<svg id="cf6_nervioso" xmlns="http://www.w3.org/2000/svg" width="274.172" height="274.172" viewBox="0 0 274.172 274.172">
  <g id="Capa_2" data-name="Capa 2" transform="translate(0 0)">
    <path id="Trazado_158946" data-name="Trazado 158946" d="M137.086,0A137.086,137.086,0,1,1,0,137.086,137.086,137.086,0,0,1,137.086,0Z" fill="#e6e0fb"/>
    <g id="Grupo_74524" data-name="Grupo 74524" transform="translate(10.236 63.4)">
      <g id="Grupo_74523" data-name="Grupo 74523">
        <path id="Trazado_158747" data-name="Trazado 158747" d="M109.952,186.684c8.69-1.012,13.266-11.952,14.6-20.135s-2.229-11.952-7.8-13.358c-5.055-1.287-6.011-2.812-6.327-6.433a6.249,6.249,0,0,0,5.055,4.978c4.352.7,6.679,2.032,7.466,3.114a6.876,6.876,0,0,0-3.065-5.062,8.76,8.76,0,0,1-3.515-4.563,7.312,7.312,0,0,1,.7-6.6s-1.406,5.3,2.109,8.7c0,0-.464-2.932,1.582-4.007a5.385,5.385,0,0,0,.8,6.138c2.622,3.009,3.937,5.013,4.141,8.788a23.791,23.791,0,0,1,3.361-9.843c3.072-4.647,6.637-6.433,4.218-14.764a10.208,10.208,0,0,1,1.947,8.872c-.661,3.065-4.921,6.011-6.595,11.565a17.9,17.9,0,0,0-.373,9.786,20.529,20.529,0,0,1,5.681-2.566c3.691-1.125,5.188-4.218,3.445-7.03-1.617-2.615-2.7-5.392-1.041-8.169a8.436,8.436,0,0,0,1.16,6.138A12.034,12.034,0,0,1,139.613,157a37.029,37.029,0,0,0,.457-15.671s3.853,9.7.084,17.787a9.069,9.069,0,0,0,6.426-4.921c2.812-5.35,7.5-5.308,7.5-5.308s-4.724,1.617-6.011,6.18c0,0,5.976-1.533,8.872,1.2,0,0-6.145-2.158-11.34,1.35-2.995,2.025-3.909,3.515-10.51,5.491-6.714,1.99-8.76,4.408-9.09,10.876s3.262,14.37,15.425,12.219c15.312-2.707,15.186-10.546,13.766-15.98a10.4,10.4,0,0,0-4.317-6.025s3.93.443,5.695,5.695c0,0-.7-10.278,7.03-13.766a14.173,14.173,0,0,0-4.978,8.739c-.773,5.582.225,6.524-.6,9.505,0,0,2.763-4.535,7.572-4.218a11.41,11.41,0,0,0-5.807,4.148c-2.109,3.093-2.812,5.357-3.923,6.524,0,0,2.109-1.666,9.013-2.489a12.873,12.873,0,0,0,10.616-8.24s-.225,5.526-4.865,7.9c0,0,4.97-.661,6.327,4.978,0,0-2.932-4.921-12.767-2.545s-18.349,8.022-18.68,14.623,9.618,16.093,22.054,14.6,28.972-6.967,41.479-15.432a47.547,47.547,0,0,1,39.061-6.714c12.521,3.234,28.579-1.526,32.255-8.212,1.828-3.318,1.1-9.892.668-11.445-.112-.387-1.357-.33-1.469-2.264s1.715-2.932,3.515-2.264,1.6,3.248-.2,4.218c-.387.2,0,1.99.169,4.921s.19,4.218,1.048,4.366,3.515-1.322,5.582-4.612,1.856-7.733,4.289-11.249a9.14,9.14,0,0,1,5.87-3.8c.225-.042.2-1.244,1.23-1.772a2.084,2.084,0,0,1,2.714,1.406,1.879,1.879,0,0,1-1.244,2.552,2.636,2.636,0,0,1-2.383-.921c-.232-.3-3.255.415-5.252,3.691s-2.447,9.287-2.447,9.287a22.053,22.053,0,0,1,8.542-5.477c4.767-1.413,8.753-.33,9.21-.5s1.364-1.49,2.981-.787,1.2,3.192-.457,3.733-2.524-1.16-2.65-1.448-5.392-1.35-10.145,1.132c-8.57,4.478-17.871,18.237-35.771,22.223,0,0,13.323,4.478,24.325,1.329a19.769,19.769,0,0,0,14.708-17.414c.042-.513-1.265-.816-1.406-2.489-.162-1.877,2.229-2.552,3.515-1.3,1.118,1.076.26,2.9-.3,3.4-.246.225-.134,6.327-3.424,9.843,0,0,2.742-2.3,8.732-3.649,6.25-1.406,7.248-1,7.691-1.357s1.49-1.828,2.735-1.16.935,2.4-.309,3.347-2.011-.141-2.292-.7-10.813,1.343-16.641,5.224a16.587,16.587,0,0,0-5.027,4.731,41.234,41.234,0,0,1,11.024.288c5.807,1.033,7.839,3.03,8.3,3.234s1.821-.288,2.573.956a1.684,1.684,0,0,1-1.772,2.566c-1.68-.141-1.216-1.933-1.49-2.376s-4.746-3.515-16.641-2.348-18.37,3.733-24.262,2.489a23,23,0,0,0,8.626,3.607c6.384,1.371,12.739,0,17.829,5.1.33.337,1.23-.809,2.735-.415,1.258.337,1.912,1.617.7,3.072a2.172,2.172,0,0,1-3.789-.8c-.162-.64-2.6-3.136-7.783-3.719s-12.31-1.16-15.671-3.192a31.055,31.055,0,0,0,3.107,2.362c2.489,1.659,3.649,3.86,5.062,8.254,1.28,3.993,4.45,8.043,6.18,8.331.745.127,1.575-.33,2.236.668a1.863,1.863,0,0,1-.787,2.735,1.945,1.945,0,0,1-2.861-.914c-.415-1.287.084-1.575-.288-1.99a14.511,14.511,0,0,1-5.681-7.916c-2.243-7.136-7.881-10.785-14.433-12.444a16.479,16.479,0,0,1,5.849,8.753c1.744,6.011-.253,8.915,1.849,13.829s8.022,2.714,11.249,6.363a2.011,2.011,0,0,1,2.721.246,2.06,2.06,0,0,1-1.49,3.564c-1.99-.077-2.109-2.243-1.786-3.15,0,0-1.216-1.462-4.176-1.406a10.954,10.954,0,0,1-4.971-1.026,7.663,7.663,0,0,0,3.867,4.422,5.779,5.779,0,0,1,3.262,4.218,1.835,1.835,0,0,1,2.053,1.111c.7,1.8-1.856,2.946-3.157,1.708a1.884,1.884,0,0,1-.169-2.4s-.584-2.018-4.162-3.93c-4.457-2.376-6.053-8.134-6.587-12.493a9.828,9.828,0,0,0-2.271,9.266c1.329,5.976,4.535,8.233,4.535,8.233a2.3,2.3,0,0,1,2.264.83,1.6,1.6,0,0,1-1.547,2.573c-1.631-.084-1.758-1.744-1.406-2.714a13.8,13.8,0,0,1-5.392-9.976c-.773-7.733,3.93-10.778,1.687-18.462-3.754-12.838-29.324-21.977-48.664-15.087-16.789,6-16.873,11.586-39.455,18.574-24.656,7.628-32.987-1.336-40.713,3.986-5.287,3.642-4.619,15.418.274,18.764,6.327,4.31,11.192-.8,15.172,4.865a11.072,11.072,0,0,0-8.289-1.631c-5.2.83-7.08-1-8.071-1.99a22.87,22.87,0,0,0,4.253,9.561c3.923,4.76,12.606,5.252,13.878,10.946,0,0-1.617-2.686-6.25-3.754-4.218-.977-4.971-2.411-4.971-2.411a8.223,8.223,0,0,1,1.575,5.435,10.688,10.688,0,0,0,1.244,7.03,5.527,5.527,0,0,1-2.573-5.435c.239-4.028-.661-5.512-3.4-8.331a18.982,18.982,0,0,1-3.937-6.637s-2.946,3.023-2.735,6.51,4.724,5.624,4.183,10.2a10.546,10.546,0,0,0-3.979-6.222,31.468,31.468,0,0,1-.991,5.554c-1.2,4.921-4.921,6.763-5.934,9.786s-.33,4.317-.33,4.317-2.109-3.614,1.16-7.67,5.041-7.544,4.218-12.233a11.1,11.1,0,0,1,.127-5.224s-6.236.387-8.282,9.343a10.75,10.75,0,0,1,4.591-9.456c5.2-3.515,7.958-6.327,5.47-13.358s-3.965-11.34-13.154-8.071c-7.628,2.707-10.25,4.921-12.388,9.175-3.867,7.684-6.595,8.816-5.681,12.134s3.691,2.489,4.478,6.426a5.224,5.224,0,0,0-3.361-2.566c-2.524-.7-2.608-2.243-2.608-2.243a10.131,10.131,0,0,0,.288,6.264c1.244,3.607,2.573,7.544-1.118,11.108,0,0,2.65-3.023.541-8.436s-1.744-11.249.787-14.384c0,0-19.973,12.894-17.576,25.661,0,0-2.6-5.027.555-11.551,1.68-3.48,5.969-7.185,5.969-7.185s-8.015.548-11.614,5.8c0,0,.7-5.027,8.57-7.241s12.106-6.327,12.549-8.957c0,0-6.742.225-10.173,5.252,0,0,1.6-5.252,9.182-7.241s9.259-7.185,8.261-11.748-6.869-8.6-14.567-7.213c-3.368.6-6.911,1.16-7.958,7.185s-.225,7.08.886,10.229-.555,7.129-.555,7.129.942-5.364-1.821-8.9a23.264,23.264,0,0,0-6.25,6.468s-.443-2.995,4.352-6.531c1.786-1.315.9-3.03,1.23-7.677s1.329-5.413,1.329-5.413-7.909.935-9.456,3.515-.879,3.874-.879,6.138a6.109,6.109,0,0,1-3.818,5.526,7.22,7.22,0,0,0,2.376-5.2c.056-3.318-.274-5.807.555-6.855,0,0-8.823,3.3-10.89,11.952,0,0-2.271-7.41,4.64-11,0,0-7.8.443-10.229-6.58,0,0,5.624,6.8,11.952,5.034a104.7,104.7,0,0,0,11.249-3.817s-6.278-3.255-8.788-7.03c-3.515-5.308-2.932-9.73-2.932-9.73s1.49,7.853,6.327,10.173c0,0,2.271-4.7-.83-10.616,0,0,3.114,2.475,3.157,8.437.056,8.514,6.932,8.436,16.36,2.875,4.978-2.925,6.011-16.107,3.515-22.61-2.32-5.969-10.271-10.546-14.975-5.772-1.5,1.519.7,8.373-6.644,11.41,0,0,3.691-2.144,3.874-7.733.105-3.424,1.652-4.753,1.652-4.753a10.961,10.961,0,0,0-3.7,1.715,8.521,8.521,0,0,1-7.551,1.441c-3.206-.886-9.357,1.519-13.154,4.591,0,0,1.5-3.825,7.185-5.533,2.208-.661,1.821-4.422-2.6-9.231,0,0,4.556.569,5.364,7.241.218,1.828,5.526,3.705,10.285-.492s11.389-2.158,11.389-2.158S82.7,167.78,71.088,167.723a10.728,10.728,0,0,1,9.786.83s-2.046-.935-3.206-6.967a23.2,23.2,0,0,0-3.086-7.494l-.12-.19s3.192,1.118,5.139,8.331,4.521,8.83,11.649,14.222a23.34,23.34,0,0,1-.042-5.35c.337-2.693-.991-8.661-8.7-10.651a10.067,10.067,0,0,1,5.681,1.322s-5.723-6.053-2.658-12.767c0,0-1.5,6.44,2.643,10.693s4.31,7.192,4.31,7.192,2.875-3.15-.218-7.628-1.272-7.248-1.272-7.248-.773,3.874,1.877,6.25,2.812,5.252,1.216,9.14-2.046,9.73,2.433,14.258a16.8,16.8,0,0,0,13.435,5.02Z" transform="translate(-61.14 -133.64)" fill="#e5989e" stroke="#b25b66" stroke-linecap="round" stroke-linejoin="round" stroke-width="1"/>
        <path id="Trazado_158748" data-name="Trazado 158748" d="M380.259,247.1a1.793,1.793,0,0,1-2.074-1.026c-.394-.682.239-1.343-.443-1.926-2.046-1.765-3.128-2.672-4.176-4.689-.977-1.9-1.483-3.923-2.271-5.9a13.843,13.843,0,0,0-1.448-2.721,12.789,12.789,0,0,0-3.262-3.129,24.748,24.748,0,0,0-4.218-2.77,14.625,14.625,0,0,0-3.3-1.343,3.887,3.887,0,0,0-1.863-.042c-.344.141-.176.443.148.745,6.517,1.666,12.127,5.315,14.356,12.423a14.511,14.511,0,0,0,5.688,7.916c.373.415-.127.7.288,1.99a1.949,1.949,0,0,0,2.861.914,1.919,1.919,0,0,0,1.083-1.455A2.945,2.945,0,0,1,380.259,247.1Z" transform="translate(-149.001 -160.312)" fill="#e5989e"/>
        <path id="Trazado_158749" data-name="Trazado 158749" d="M393.677,233.4a2.235,2.235,0,0,1-1.912-.984,2.166,2.166,0,0,1-.253-1.547c-1.272-.7-3.185-1.99-3.389-2.109a22.632,22.632,0,0,0-3.719-1.5c-.661-.077-1.315-.134-1.919-.176-2.362-.183-4.7-.464-7.03-.83a41.956,41.956,0,0,1-10-3.114c.457.443.942.886,1.406,1.406a5.014,5.014,0,0,0,1.526,1.1c3.656,1.568,9.843,2.109,14.5,2.608,5.181.583,7.621,3.079,7.783,3.719a2.165,2.165,0,0,0,3.044,1.406Z" transform="translate(-151.508 -160.218)" fill="#e5989e"/>
        <path id="Trazado_158750" data-name="Trazado 158750" d="M410.416,199.152a1.1,1.1,0,0,1-1.744-.886v-.19c-.394.091-.787.225-1.125.274-1.483.246-3.065.26-4.521.619-1.884.464-3.684,1.258-5.582,1.61a32.829,32.829,0,0,0-3.607,1.469.464.464,0,0,1-.225.049,9.567,9.567,0,0,0-1.483,1.041.408.408,0,0,1-.218.1.845.845,0,0,1-.148.091h-.077a.486.486,0,0,1-.176.183,8.74,8.74,0,0,0-2.25,1.708,7.232,7.232,0,0,1-1.73,1.441,13.245,13.245,0,0,1-4.921,3.719,31.174,31.174,0,0,1-8.816,2.229c-2.735.787-6.229.7-8.943.738-.8,0-.7.274-.338.6,5.807,1.1,12.254-1.406,23.946-2.538,11.9-1.16,16.36,1.905,16.641,2.348s-.169,2.243,1.49,2.376a1.777,1.777,0,0,0,.387,0,1.329,1.329,0,0,1-.935-1.814,1.617,1.617,0,0,1,0-1.28c-2.109-1.476-6.988-2.482-8.134-2.657-3.649-.562-7.333-.281-10.989-.619-.443-.042-.443-.422-.232-.7h-.239a16.588,16.588,0,0,1,5.027-4.731c5.828-3.881,16.367-5.772,16.641-5.224s1.055,1.631,2.292.7a2.629,2.629,0,0,0,1.09-1.983A2.5,2.5,0,0,1,410.416,199.152Z" transform="translate(-151.149 -152.702)" fill="#e5989e"/>
        <path id="Trazado_158751" data-name="Trazado 158751" d="M406.755,185.661a2.243,2.243,0,0,0-3.023-.1,2.394,2.394,0,0,1,.492-.12,2.158,2.158,0,0,1,1.406.26,1.652,1.652,0,0,1,.119,2.735,1.108,1.108,0,0,1-.1.183,3.8,3.8,0,0,1-.042.619,4.922,4.922,0,0,1-.042,1.2,16.852,16.852,0,0,1-.759,2.433,11.249,11.249,0,0,1-1.99,5.624,1.562,1.562,0,0,0,0,.26.436.436,0,0,1,.4-.063c3.136-3.515,3.044-9.421,3.283-9.639C407.015,188.558,407.866,186.737,406.755,185.661Z" transform="translate(-162.603 -148.899)" fill="#e5989e"/>
        <path id="Trazado_158752" data-name="Trazado 158752" d="M399.13,176.6a2.361,2.361,0,0,1-.562.239c-.7.422-1.659.492-1.905-.077v-.077c0-.028-.766-.211-.879-.239l-.893-.225c-.591-.141-1.2-.253-1.8-.337a16.05,16.05,0,0,0-3.719-.035,16.709,16.709,0,0,0-3.621.78,11.859,11.859,0,0,0-3.22,1.694,22.28,22.28,0,0,0-2.861,2.721c-.112.12-.218.26-.337.366-.239.218-1.35,1.062-1.49.337a.97.97,0,0,1,0-.45c0-.232.492-6.06,2.44-9.266s5.02-3.986,5.252-3.691a2.636,2.636,0,0,0,2.383.921,1.777,1.777,0,0,0,1.308-2.222l-.1.26a1.968,1.968,0,0,1-2.988.879c-1.652-1.294-5.772,1.779-6.489,3.115a32.441,32.441,0,0,0-1.877,4.977c-1.076,4.3-1.905,8.669-6.194,11.01a1.968,1.968,0,0,1-.78.246,1.575,1.575,0,0,1-1.933-1.406,15.923,15.923,0,0,1-.436-3.8c-.2-2.932-.555-4.717-.169-4.921,1.8-.949,1.961-3.515.2-4.218a2.812,2.812,0,0,0-2.278.063,2.678,2.678,0,0,1,1.406.457c1.28.858.907,2.257-.141,2.988a3.043,3.043,0,0,1-.45.661v.225a.62.62,0,0,1,0,.12,1.289,1.289,0,0,1,.063.176,26.315,26.315,0,0,1,.64,5.877c.246,2.074.373,4.394-.429,6.124-.984,2.109-3.1,3.227-5.076,4.352a2.306,2.306,0,0,1-.576.232,26.175,26.175,0,0,1-5.434,2.714,62.014,62.014,0,0,1-6.707,2.411l-.794.64.176.07a2.066,2.066,0,0,1,.7-.141c17.871-4,27.165-17.745,35.729-22.216,4.753-2.482,10.018-1.406,10.145-1.132s1,1.99,2.65,1.448a2.215,2.215,0,0,0,1.476-2.109A1.258,1.258,0,0,1,399.13,176.6Z" transform="translate(-146.528 -143.558)" fill="#e5989e"/>
        <g id="Grupo_74522" data-name="Grupo 74522" transform="translate(20.979 26.519)">
          <path id="Trazado_158753" data-name="Trazado 158753" d="M158.084,281.3c2.158-1.49,3.649-5.055,3.15-9.14a25.425,25.425,0,0,0-4.921-11.952c-2.355-2.749-8.373-.745-12.852.5s-7.769,3.677-9.343,7.241-3.888,9.526-3.888,9.526h0a57.353,57.353,0,0,0,3.888-6.566c2.109-4.218,4.76-6.468,12.388-9.175,9.189-3.269,10.665,1.048,13.154,8.071s-.274,9.843-5.47,13.358a10.13,10.13,0,0,0-2.812,2.812C153.669,283.556,156.713,282.255,158.084,281.3Z" transform="translate(-102.636 -197.335)" fill="#e5989e"/>
          <path id="Trazado_158754" data-name="Trazado 158754" d="M98.193,237.8c3.761-.162,9.786-3.318,12.655-6.25s3.593-10.06,1.821-18.23-7.79-10.405-11.881-11.122-4.921,2.243-4.921,2.243h0c4.746-4.1,12.3.366,14.56,6.159,2.524,6.5,1.49,19.685-3.515,22.61-8.085,4.76-14.286,5.5-15.931.246h0C91.81,237.411,94.432,237.973,98.193,237.8Z" transform="translate(-90.98 -180.486)" fill="#e5989e"/>
          <path id="Trazado_158755" data-name="Trazado 158755" d="M127.4,260.41c-.246-2.812-1.244-8.043-9.786-8.95s-11.108,2.812-11.108,2.812h0a11.78,11.78,0,0,1,5.083-1.737c7.733-1.406,13.576,2.65,14.567,7.213.949,4.331-.534,9.231-7.164,11.417h0C127.172,269.408,127.657,263.229,127.4,260.41Z" transform="translate(-95.592 -195.104)" fill="#e5989e"/>
          <path id="Trazado_158756" data-name="Trazado 158756" d="M151.421,183.923c-1.244,6.637.577,12.774,9.2,14.764s16.086-1.99,18.574-4.31,4.654-5.4,4.064-10.039c-.436-3.445-1.779-6.707-4.584-8.057a10.545,10.545,0,0,1,3.206,5.181c1.406,5.42,1.547,13.273-13.766,15.98-12.163,2.151-15.755-5.751-15.425-12.219s2.376-8.886,9.09-10.876a25.184,25.184,0,0,0,7.03-2.988c-.042,0-3.81.879-8.268,2.285S152.666,177.294,151.421,183.923Z" transform="translate(-108.824 -171.36)" fill="#e5989e"/>
          <path id="Trazado_158757" data-name="Trazado 158757" d="M310.013,259.922a1.631,1.631,0,0,1-1.16-2.369,16.4,16.4,0,0,1-2.9-2.812,15.69,15.69,0,0,1-1.673-3.178c-.7-1.139-.7-2.693-.956-3.986a1.2,1.2,0,0,1,0-.316,11.022,11.022,0,0,1,.26-3.515,10.6,10.6,0,0,1,.33-1.167,32.574,32.574,0,0,1,1.624-5.343,1.224,1.224,0,0,1,.162-.281,38.049,38.049,0,0,0,.619-4.837,24.924,24.924,0,0,0-.83-4.218,23.758,23.758,0,0,0-2.854-5.083,21.7,21.7,0,0,0-7.227-6.257,53.57,53.57,0,0,0-9.554-3.431c-2.2-.654-4.429-1.216-6.609-1.94a1.617,1.617,0,0,1-1.055-2.278,47.933,47.933,0,0,0-18.855-.07,2.032,2.032,0,0,1-1.912,2.714,1.519,1.519,0,0,1-1.666-1.856,48.417,48.417,0,0,0-14,6.531c-.9.612-1.821,1.2-2.756,1.772a1.99,1.99,0,0,1-1.729,3.009,1.54,1.54,0,0,1-1.631-1.062A101.783,101.783,0,0,1,220.4,226.76a1.979,1.979,0,0,1-1.7,3.037,1.519,1.519,0,0,1-1.652-1.919,93.508,93.508,0,0,1-16.782,3.782c-.3.035-.584.056-.879.077.246,1.863-1.251,2.889-5.73,2.658-6.327-.33-17-3.318-20.437,1.99a13.308,13.308,0,0,0-1.343,11.01c-.422-4.183.7-8.683,3.6-10.7,7.733-5.322,16.057,3.642,40.713-3.986,22.575-6.988,22.666-12.577,39.455-18.574,19.341-6.911,44.91,2.264,48.643,15.038,2.243,7.684-2.461,10.721-1.687,18.462a13.825,13.825,0,0,0,5.392,9.976c-.352.97-.225,2.629,1.406,2.714a2.228,2.228,0,0,0,.7-.077A2.572,2.572,0,0,1,310.013,259.922Z" transform="translate(-114.814 -182.222)" fill="#e5989e"/>
          <path id="Trazado_158758" data-name="Trazado 158758" d="M179.083,213.3c-3.234,7.03,4.31,14.511,10.546,16.5a25.309,25.309,0,0,0,11.523.942h0c-11.874.787-21.176-8.352-20.852-14.679.232-4.626,4.521-8.8,10.475-11.685h0S182.31,206.257,179.083,213.3Z" transform="translate(-116.913 -181.166)" fill="#e5989e"/>
        </g>
        <path id="Trazado_158759" data-name="Trazado 158759" d="M131.864,229.156c-.415,9.308,8.7,12.521,17.393,10.946,9.266-1.673,15.8-16.571,0-20.915C138.663,216.27,132.04,225.212,131.864,229.156Z" transform="translate(-82.138 -158.873)" fill="#e5989e"/>
        <path id="Trazado_158760" data-name="Trazado 158760" d="M131.865,227.981c-.387,8.746,8.176,11.762,16.339,10.285,8.7-1.575,14.848-15.572,0-19.685C138.283,215.909,132.033,224.248,131.865,227.981Z" transform="translate(-82.139 -158.71)" fill="#a35a66" stroke="#6d4658" stroke-miterlimit="10" stroke-width="1"/>
        <path id="Trazado_158761" data-name="Trazado 158761" d="M148.194,218.614a14.243,14.243,0,0,0-4.647-.513,10.7,10.7,0,0,1,2.011.352c10.468,2.882,6.138,12.753,0,13.864-5.758,1.04-11.79-1.083-11.523-7.255a7.108,7.108,0,0,1,2.018-3.937c-2.629,2.186-4.12,5.062-4.218,6.862-.387,8.746,8.176,11.762,16.339,10.285C156.9,236.7,163.043,222.7,148.194,218.614Z" transform="translate(-82.13 -158.715)" fill="#a35a66" opacity="0.5"/>
        <path id="Trazado_158762" data-name="Trazado 158762" d="M211.847,235.384c-.492.45,1.441,9.393,2.875,10.06s14.926-2.763,16.367-3.874-1.99-9.519-2.763-10.124S214.392,233.057,211.847,235.384Z" transform="translate(-105.871 -162.655)" fill="#ff9d00" stroke="#cc9042" stroke-linecap="round" stroke-linejoin="round" stroke-width="1"/>
        <path id="Trazado_158763" data-name="Trazado 158763" d="M239.191,227.427c-.436.984,2.32,9.625,4.218,10.356,1.406.541,14.665-5.547,14.918-7.2s-1.659-8.879-3.817-9.786S240.646,224.165,239.191,227.427Z" transform="translate(-114 -159.486)" fill="#ff9d00" stroke="#cc9042" stroke-linecap="round" stroke-linejoin="round" stroke-width="1"/>
        <path id="Trazado_158764" data-name="Trazado 158764" d="M264.794,214.148c-.38,1.09,2.151,9.843,3.81,10.138s15.509-6.658,16.339-7.607-1.329-8.753-2.9-9.5S265.539,211.99,264.794,214.148Z" transform="translate(-121.606 -155.459)" fill="#ff9d00" stroke="#cc9042" stroke-linecap="round" stroke-linejoin="round" stroke-width="1"/>
        <path id="Trazado_158765" data-name="Trazado 158765" d="M295.949,203.407c-1.568,1.139-.478,10.412,1.181,11.017s16.423.6,17.829-.478,1.083-8.437-.5-9.625S297.44,202.331,295.949,203.407Z" transform="translate(-130.643 -154.208)" fill="#ff9d00" stroke="#cc9042" stroke-linecap="round" stroke-linejoin="round" stroke-width="1"/>
        <path id="Trazado_158766" data-name="Trazado 158766" d="M228.326,231.49s3.079,8.479-6.194,11.122-10.285-7.185-10.285-7.185c-.492.45,1.441,9.393,2.875,10.061s14.926-2.763,16.367-3.874S229.1,232.095,228.326,231.49Z" transform="translate(-105.871 -162.698)" fill="#ff9d00" opacity="0.8"/>
        <path id="Trazado_158767" data-name="Trazado 158767" d="M254.5,220.85s3.733,8.3-4.31,12.1-11.031-5.47-11.031-5.47c-.436.984,2.32,9.625,4.218,10.356,1.406.541,14.665-5.547,14.919-7.2S256.68,221.757,254.5,220.85Z" transform="translate(-113.991 -159.538)" fill="#ff9d00" opacity="0.8"/>
        <path id="Trazado_158768" data-name="Trazado 158768" d="M282.028,207.16s2.4,8.127-6.327,11.7-10.946-4.731-10.946-4.731c-.38,1.09,2.151,9.843,3.811,10.138s15.509-6.658,16.339-7.607S283.6,207.905,282.028,207.16Z" transform="translate(-121.594 -155.472)" fill="#ff9d00" opacity="0.8"/>
        <path id="Trazado_158769" data-name="Trazado 158769" d="M305.841,213.042c-10.286-.415-9.892-9.372-9.892-9.372-1.568,1.139-.478,10.412,1.181,11.017s16.423.6,17.829-.478,1.083-8.436-.5-9.625C314.46,204.549,316.148,213.421,305.841,213.042Z" transform="translate(-130.643 -154.436)" fill="#ff9d00" opacity="0.8"/>
        <path id="Trazado_158770" data-name="Trazado 158770" d="M215.487,239.235c.253,1.983,6.4.872,5.863-.991C221.041,237.168,215.233,237.288,215.487,239.235Z" transform="translate(-106.972 -164.502)" fill="#ff9d00" opacity="0.8"/>
        <path id="Trazado_158771" data-name="Trazado 158771" d="M215.5,237.8c.239,1.983,5.92.872,5.42-.991C220.629,235.737,215.265,235.849,215.5,237.8Z" transform="translate(-106.976 -164.076)" fill="#936168" stroke="#6d4658" stroke-miterlimit="10" stroke-width="1"/>
        <path id="Trazado_158772" data-name="Trazado 158772" d="M253.355,237.378c.33,1.99,6.489-.83,6.053-2.932S252.807,234.13,253.355,237.378Z" transform="translate(-118.21 -163.306)" fill="#ff9d00" opacity="0.8"/>
        <path id="Trazado_158773" data-name="Trazado 158773" d="M252.8,236.089c.33,1.99,6.489-.823,6.046-2.925S252.227,232.82,252.8,236.089Z" transform="translate(-118.045 -162.924)" fill="#936168" stroke="#6d4658" stroke-miterlimit="10" stroke-width="1"/>
        <path id="Trazado_158774" data-name="Trazado 158774" d="M275.052,214.926c.548,2.109,6.468-.274,5.863-1.99S274.447,212.606,275.052,214.926Z" transform="translate(-124.65 -156.96)" fill="#ff9d00" opacity="0.8"/>
        <path id="Trazado_158775" data-name="Trazado 158775" d="M274.461,213.907c.548,2.109,6.468-.281,5.856-1.99S273.849,211.58,274.461,213.907Z" transform="translate(-124.475 -156.658)" fill="#936168" stroke="#6d4658" stroke-miterlimit="10" stroke-width="1"/>
        <path id="Trazado_158776" data-name="Trazado 158776" d="M303.749,210.106c-.155,2.425,8.626,2.208,8.626,0S303.974,206.732,303.749,210.106Z" transform="translate(-133.185 -155.719)" fill="#ff9d00" opacity="0.8"/>
        <path id="Trazado_158777" data-name="Trazado 158777" d="M304.2,208.826c-.155,2.433,8.626,2.208,8.626,0S304.424,205.452,304.2,208.826Z" transform="translate(-133.318 -155.339)" fill="#936168" stroke="#6d4658" stroke-miterlimit="10" stroke-width="1"/>
      </g>
      <path id="Trazado_158778" data-name="Trazado 158778" d="M376.436,271.223c-1.631.169-1.715-1.048-1.631-2.018.239-2.812-3.993-3.515-6.967-7.08s-4.338-9.315-4.338-9.315c.534,4.359,2.109,10.117,6.587,12.493,3.578,1.912,4.162,3.93,4.162,3.93a1.884,1.884,0,0,0,.169,2.4c1.16,1.1,3.318.309,3.269-1.146A1.666,1.666,0,0,1,376.436,271.223Z" transform="translate(-150.929 -169.029)" fill="#e5989e"/>
      <path id="Trazado_158779" data-name="Trazado 158779" d="M381.238,267.5a1.476,1.476,0,0,1-1.076-1.687c-.387-.886-2.032-2.144-4.661-2.144a34.914,34.914,0,0,1-5.041-.4,10.954,10.954,0,0,0,4.971,1.026c2.96-.056,4.176,1.406,4.176,1.406-.323.907-.2,3.072,1.786,3.15a1.968,1.968,0,0,0,2.109-2.278A1.842,1.842,0,0,1,381.238,267.5Z" transform="translate(-152.996 -172.135)" fill="#e5989e"/>
      <path id="Trazado_158780" data-name="Trazado 158780" d="M122.3,201.387c11.53.246,16.669-13.477,16.254-20.937-1.329,8.176-5.906,19.123-14.6,20.135a16.8,16.8,0,0,1-13.435-5.034,12.529,12.529,0,0,1-2.215-3.037h0S110.778,201.14,122.3,201.387Z" transform="translate(-75.148 -147.541)" fill="#e5989e"/>
    </g>
  </g>
</svg>
