<svg xmlns="http://www.w3.org/2000/svg" xmlns:xlink="http://www.w3.org/1999/xlink" width="440" height="281.941" viewBox="0 0 440 281.941">
  <defs>
    <linearGradient id="linear-gradient" x1="0.072" y1="-17.639" x2="1.268" y2="-18.33" gradientUnits="objectBoundingBox">
      <stop offset="0" stop-color="#f4bb89"/>
      <stop offset="1" stop-color="#f49168"/>
    </linearGradient>
    <linearGradient id="linear-gradient-2" x1="0" y1="-39.287" x2="1" y2="-39.287" xlink:href="#linear-gradient"/>
    <linearGradient id="linear-gradient-3" x1="0.257" y1="-13.72" x2="0.718" y2="-14.32" xlink:href="#linear-gradient"/>
    <linearGradient id="linear-gradient-4" x1="-0.069" y1="-21.612" x2="0.725" y2="-22.758" gradientUnits="objectBoundingBox">
      <stop offset="0" stop-color="#71322b"/>
      <stop offset="0.99" stop-color="#592421"/>
    </linearGradient>
    <linearGradient id="linear-gradient-5" x1="0.381" y1="-28.727" x2="0.603" y2="-29.523" xlink:href="#linear-gradient"/>
    <linearGradient id="linear-gradient-6" x1="0.945" y1="-34.952" x2="-0.075" y2="-35.055" xlink:href="#linear-gradient"/>
    <linearGradient id="linear-gradient-7" x1="0.399" y1="-130.965" x2="0.565" y2="-131.983" xlink:href="#linear-gradient"/>
    <linearGradient id="linear-gradient-8" x1="26.018" y1="17.099" x2="26.808" y2="16.203" gradientUnits="objectBoundingBox">
      <stop offset="0" stop-color="#f57d2c"/>
      <stop offset="1" stop-color="#ff6a1f"/>
    </linearGradient>
    <linearGradient id="linear-gradient-9" x1="64.157" y1="30.703" x2="64.786" y2="30.124" xlink:href="#linear-gradient-8"/>
    <linearGradient id="linear-gradient-10" x1="91.152" y1="30.864" x2="89.68" y2="30.117" xlink:href="#linear-gradient-8"/>
    <linearGradient id="linear-gradient-11" x1="26.889" y1="21.468" x2="27.615" y2="20.443" xlink:href="#linear-gradient-8"/>
    <linearGradient id="linear-gradient-12" x1="89.146" y1="31.786" x2="90.606" y2="31.786" xlink:href="#linear-gradient-8"/>
    <linearGradient id="linear-gradient-13" x1="101.844" y1="30.17" x2="102.394" y2="30.863" xlink:href="#linear-gradient"/>
    <linearGradient id="linear-gradient-14" x1="27.552" y1="11.432" x2="28.511" y2="11.432" xlink:href="#linear-gradient"/>
    <linearGradient id="linear-gradient-15" x1="0.513" y1="-113.557" x2="0.476" y2="-114.69" xlink:href="#linear-gradient-4"/>
    <linearGradient id="linear-gradient-16" x1="0.742" y1="-55.698" x2="0.354" y2="-58.161" xlink:href="#linear-gradient"/>
  </defs>
  <g id="Grupo_75493" data-name="Grupo 75493" transform="translate(-37.813 -221.051)">
    <path id="Trazado_161598" data-name="Trazado 161598" d="M477.813,502.992H54.586S-27.992,264.111,173.314,224.47,477.813,502.992,477.813,502.992Z" fill="#81d4fa" opacity="0.42"/>
    <g id="Grupo_75066" data-name="Grupo 75066" transform="translate(72.871 284.48)">
      <path id="Trazado_161599" data-name="Trazado 161599" d="M345.383,625.929c0,.328-1.6.912-2.921,1.32l-1.52.475s-3.747-12.794-6.44-24.268a64.522,64.522,0,0,1-1.2-24.2c.722-3.942-2.094-11.3-2.631-14l7.893-1.814,4.915-1.135,2.033,15.05C348.4,588.848,345.383,625.388,345.383,625.929Z" transform="translate(-226.647 -463.672)" fill="url(#linear-gradient)"/>
      <path id="Trazado_161600" data-name="Trazado 161600" d="M354.11,625.945c0,.328-1.6.912-2.921,1.32.2-.617.361-1.064.361-1.064,1.064-6.316.337-38.083-.589-44.95a131.024,131.024,0,0,0-3.671-17.776l4.915-1.135,2.033,15.036C357.125,588.864,354.11,625.4,354.11,625.945Z" transform="translate(-235.374 -463.688)" fill="#e56b44" opacity="0.2"/>
      <path id="Trazado_161601" data-name="Trazado 161601" d="M431.848,642.065c-1.757-.3-4.084-.689-6.715-1.111-4.184-.679-9.156-1.425-13.915-2.1l-1.344-.176c-.5-10.818-.926-22.05-.926-22.05-1.007,4.7-3.063,13.373-4.982,21.314l-2.46-.247-2.826-.29c-4.545-.475-10.054-1.144-15.99-1.5q0-3.115.2-6.691a204.641,204.641,0,0,1,4.977-32.94c.4-1.743.8-3.2,1.1-4.189a1.764,1.764,0,0,1,.119.2s22.1.332,34.7-11.194c.565-.508,1.126-1.059,1.662-1.6a37.319,37.319,0,0,1,2.375,3.662,61.113,61.113,0,0,1,7.532,27.877C435.448,616.909,433.909,630.487,431.848,642.065Z" transform="translate(-253.962 -472.698)" fill="#12263f"/>
      <path id="Trazado_161602" data-name="Trazado 161602" d="M384.782,501.6c-8.3,8.938-19.581,15.321-31.463,19.334-.8.28-1.657.551-2.488.8-.684-.855-1.425-1.743-2.18-2.631q-.218-.266-.475-.527c-1.154-1.344-2.346-2.679-3.438-3.894l-.475-.541-2.46-2.621-.3-.313-.617-.636-.223-.256-.736-.8c-.746,1.078-14.665,3.234-14.665,3.234-.223-.75-.475-1.8-.727-3.068-1.486-7.238-3.462-21.476-2.6-25.816.475-2.455,2.75-5.7,5.946-8.886a51.6,51.6,0,0,1,6.022-5.124c6.316,12.922,11.825,2.189,12.348-.712a31.007,31.007,0,0,0-.081-5.59l.185-.047c6.492-1.729,11.925-1.6,16.427-.09,7.651,2.479,12.595,8.8,15.463,15.99A186.062,186.062,0,0,1,384.782,501.6Z" transform="translate(-221.95 -411.13)" fill="#7e5ee3"/>
      <path id="Trazado_161603" data-name="Trazado 161603" d="M425.619,561.428a29.96,29.96,0,0,1-5.414,4.559c-9.9,6.587-23.024,7.917-28.438,8.178-1.121.057-1.9.066-2.28.066h-.233a1.816,1.816,0,0,0-.119-.209c-.351-.6-1.529-2.541-4.312-6.4-.532-.736-1.149-1.534-1.814-2.375.8-.256,1.667-.527,2.489-.8a79.947,79.947,0,0,0,26.951-14.969,58.419,58.419,0,0,0,4.512-4.364c1.349,5.533,2.294,9.664,2.555,9.945Z" transform="translate(-254.13 -454.646)" fill="url(#linear-gradient-2)"/>
      <path id="Trazado_161604" data-name="Trazado 161604" d="M391.767,595.45c-1.121.052-1.9.062-2.28.062h-.233a1.827,1.827,0,0,0-.119-.209c-.351-.6-1.529-2.541-4.312-6.4-.532-.731-1.149-1.534-1.814-2.4.8-.256,1.667-.527,2.489-.8C386.938,587.747,389.678,592.088,391.767,595.45Z" transform="translate(-254.13 -475.959)" fill="#e56b44" opacity="0.2"/>
      <path id="Trazado_161605" data-name="Trazado 161605" d="M359.718,470.579a29.018,29.018,0,0,0-.09-5.6,39.77,39.77,0,0,0-12.258,6.335C353.686,484.171,359.2,473.471,359.718,470.579Z" transform="translate(-235.416 -412.565)" fill="#7e5ee3"/>
      <path id="Trazado_161606" data-name="Trazado 161606" d="M356.424,569.852c-.8.28-1.657.551-2.489.8-.684-.855-1.425-1.743-2.18-2.631q-.218-.266-.475-.527c-1.154-1.344-2.346-2.679-3.438-3.894l-.475-.541-2.46-2.622-.3-.313-.617-.636-.223-.256-.736-.8c-.746,1.078-14.665,3.234-14.665,3.234-.223-.75-.475-1.8-.727-3.068,2.968-.271,10.258-1.125,14.214-3.2C341.854,555.41,350.607,562.168,356.424,569.852Z" transform="translate(-225.056 -460.044)" fill="#7e5ee3" opacity="0.4"/>
      <path id="Trazado_161607" data-name="Trazado 161607" d="M428.162,674.4c-.475-.066-.209-.119-.651-.185-.475-10.809-.95-22.041-.95-22.041-.988,4.706-3.054,13.374-4.972,21.324-.845-.1-1.676-.185-2.46-.256l-2.85-.29c3.367-6.35,8.843-15.359,10.344-25.745C426.657,647.21,428.105,664.611,428.162,674.4Z" transform="translate(-271.6 -508.252)" fill="#643231" opacity="0.3"/>
      <path id="Trazado_161608" data-name="Trazado 161608" d="M433.578,583.067c-4.355,5.262-14.285,15.558-39.978,13.117.408-1.743.8-3.2,1.107-4.189.043.067.081.138.119.209s22.1.328,34.7-11.194c.565-.513,1.126-1.064,1.662-1.6A37.735,37.735,0,0,1,433.578,583.067Z" transform="translate(-259.691 -472.651)" fill="#0e1d2f"/>
      <path id="Trazado_161609" data-name="Trazado 161609" d="M477.289,642.075c-1.767-.3-4.084-.689-6.715-1.111a79.061,79.061,0,0,0,4.274-11.308c1.168-5.139,3.134-18.108,2.56-27.64-.518-8.634-4.5-15.463-8.178-20.9.565-.513,1.126-1.064,1.653-1.6,6.112,8.14,9.821,21.2,9.94,31.544C480.889,616.919,479.35,630.5,477.289,642.075Z" transform="translate(-299.403 -472.709)" fill="#643231" opacity="0.3"/>
      <path id="Trazado_161610" data-name="Trazado 161610" d="M370.343,732.023l-1.05.119c-7.195.878-49.994,6.012-66.089,6.539a107.3,107.3,0,0,1-39.047-5.875,31.793,31.793,0,0,1-8.211-3.681c-1.358-.978-1.6-1.71-1.6-2.123,0,0,1.6-2.375,3.419-4.977,1.719-2.47,3.624-5.153,4.493-6.259.608-.75,1.3-2.156,2.574-3.942,2.56-3.567,7.475-8.658,18.75-13.089,10.116-4,21.694-4.331,31.857-3.733,6.848.4,13.065,1.23,17.771,1.681l2.327.237c1.762.19,3.628.432,5.6.689,7.675,1.021,16.171,2.375,20.73,3.2l3.324.575c2.014,1.7,4.36,22.677,5.015,28.9C370.281,731.382,370.343,732.023,370.343,732.023Z" transform="translate(-186.572 -533.226)" fill="#0bdffa"/>
      <path id="Trazado_161611" data-name="Trazado 161611" d="M376.646,564.466s.537,2.322-2.341,11.654-12.561,29.126-16.5,31.819a7.859,7.859,0,0,1-2.484,1.007c-5.015,1.254-13.3.247-13.3.247,5.927-6.82,12-4.483,12-4.483s2.147-10.23,5.732-25.484,7.874-19.125,7.874-19.125c1.073-3.415,2.46-30.575,3.149-30.831a27.16,27.16,0,0,1,12.557-1.776,15.322,15.322,0,0,1,4.274.95C386.69,540.293,376.646,564.466,376.646,564.466Z" transform="translate(-232.607 -445.326)" fill="url(#linear-gradient-3)"/>
      <path id="Trazado_161612" data-name="Trazado 161612" d="M137.5,690.862a42.805,42.805,0,0,0-2-5.452C134.942,687.376,136.96,690.1,137.5,690.862Z" transform="translate(-124.116 -528.31)" fill="#71322b"/>
      <path id="Trazado_161613" data-name="Trazado 161613" d="M130.75,699.28c.081.29.133.475.133.475S130.835,699.57,130.75,699.28Z" transform="translate(-121.671 -535.593)" fill="#71322b"/>
      <path id="Trazado_161614" data-name="Trazado 161614" d="M152.55,728.571c-5.224-3.2,4.07-10.828,4.07-10.828s-6.1,3.049-10.5,3.381-6.259-2.2-8.292-4.355-6.938-.722-8.971-.043-4.4-7.451-5.077-10.154-3.391-9.147,2.7-14.893a9.428,9.428,0,0,1,4.274-2.4h0s-4.042-9.4-6.863-7.261a2.308,2.308,0,0,0-.864,1.135c.993,1.938-.589,1.966,0,0-.646-1.263-1.425-2.175-2.318-1.976-2.132.475-.518,6.791,0,8.548.09.29.138.475.138.475s-.057-.176-.138-.475c-.56-1.876-2.788-8.753-4.939-7.09s.855,6.739,1.838,8.325c.19.285.3.475.3.475s-.119-.166-.3-.475c-.8-1.216-3.063-4.274-4.44-2.911-1.676,1.7,3.624,3.942,3.624,3.942-3.614,5.414-6.2,25.5-4.749,31.477s10.894,13.179,19.291,15.2c6.454,1.52,18.184-1.168,25.113-4.664s11.474-9.394,11.46-12.481h0c-2.294.655-4.863,1.648-4.863,1.648C163.046,728.1,157.8,731.805,152.55,728.571Z" transform="translate(-111.634 -526.075)" fill="url(#linear-gradient-4)"/>
      <path id="Trazado_161615" data-name="Trazado 161615" d="M167.972,726.468c-6.212,1.6-14.618-7.418-20.706-5.162s-10.6-6.4-10.467-11.616,2.883-9.845,6.174-11.469a9.5,9.5,0,0,0-4.274,2.375c-6.093,5.751-3.381,12.186-2.7,14.9s3.03,10.847,5.077,10.168,6.938-2.128,8.971.038,3.894,4.7,8.292,4.36,10.448-3.324,10.448-3.324-9.313,7.6-4.07,10.828,10.5-.5,10.5-5.414c0,0,2.565-.993,4.858-1.648C180.077,730.49,174.146,724.886,167.972,726.468Z" transform="translate(-123.802 -535.037)" fill="#71322b"/>
      <path id="Trazado_161616" data-name="Trazado 161616" d="M201.98,709.634c-1.278,1.79-1.966,3.2-2.574,3.951-.893,1.121-2.878,3.928-4.63,6.454l-2.479,3.586-.8,1.187a56.825,56.825,0,0,1-8.89,1.126,13.724,13.724,0,0,0-2.588.551c-1.976.56-4.16,1.382-4.749,1.6l-.138.057a6.587,6.587,0,0,1-4.6,6.335,7.124,7.124,0,0,1-5.86-.95c-5.044-3.077,3.324-10.206,4-10.785v-.038H168.6c-.679.337-6.293,3.039-10.391,3.358-4.407.337-6.269-2.2-8.282-4.365s-6.948-.712-8.981,0-4.4-7.451-5.086-10.154c-.613-2.489-2.949-8.112,1.391-13.473a14.994,14.994,0,0,1,1.32-1.425,9.589,9.589,0,0,1,4.274-2.446c4.616-1.149,9.147,1.9,13.682,1.767a9.779,9.779,0,0,0,8.3-5.371,27.157,27.157,0,0,1,3.2,4.189l7.029.4.6.038,7.09.4a5.7,5.7,0,0,1,.584.912c2.066,3.932,1.729,12.281.95,15.99l1.425.133,7.532.712C195.621,712.531,200.5,709.364,201.98,709.634Z" transform="translate(-123.735 -531.036)" fill="url(#linear-gradient-5)"/>
      <path id="Trazado_161617" data-name="Trazado 161617" d="M487.66,708.71c1.6,1.311,3.324,14.162,4.326,22.8.537,4.493.864,7.836.864,7.836l-1.049.119c1.064.95,6.464,5.262,15.834,5.471,10.5.237,14.665-3.557,14.665-3.557a101.276,101.276,0,0,0,17.956,2.541c.8-9.7,1.99-19.272,3.239-28.822C522.7,713.25,490.286,709.323,487.66,708.71Z" transform="translate(-309.08 -540.545)" fill="#078c9d"/>
      <path id="Trazado_161618" data-name="Trazado 161618" d="M736.745,706.51c-1.662,7.323-13.7,17.714-13.7,17.714H722.9c-11.4,1.938-97.3-8.871-110.617-9.408-2.693-.1-6.611-.442-11.194-.9-1.088,9.551-2.1,19.125-2.816,28.823a88.7,88.7,0,0,0,11.237.062c17.054-1.031,34.3-6.221,34.3-6.221a39.372,39.372,0,0,0,8.363,4.535c5.6,2.375,21.727,4.118,38.468.655a289.577,289.577,0,0,0,31.04-8.273h0c.917,2.669,7.884,4.626,7.884,4.626s1.558-1.477,3.8-7.86c.394-1.1.8-2.346,1.216-3.757A60.994,60.994,0,0,0,736.745,706.51Z" transform="translate(-367.16 -539.39)" fill="url(#linear-gradient-6)"/>
      <path id="Trazado_161619" data-name="Trazado 161619" d="M496.565,756.71c.537,4.493.864,7.836.864,7.836l-1.05.119c1.064.95,6.464,5.262,15.834,5.471,10.5.237,14.665-3.557,14.665-3.557a101.281,101.281,0,0,0,17.956,2.541c.128-1.458.256-2.9.39-4.341C528.93,762.993,504.387,758.467,496.565,756.71Z" transform="translate(-313.659 -565.749)" fill="#704532" opacity="0.3"/>
      <path id="Trazado_161620" data-name="Trazado 161620" d="M382.539,564.586s.537,2.322-2.341,11.654-12.561,29.126-16.5,31.819a7.858,7.858,0,0,1-2.484,1.007c-5.105-.081-9.973-1.976-7.124-2.75a21.525,21.525,0,0,1,8.943,0,97.361,97.361,0,0,0,6.046-9.826c2.911-5.461,11.274-31.5,11.274-31.5,3.529-7.238,8.036-29.943,8.857-37.395a15.671,15.671,0,0,1,4.274.95C392.583,540.413,382.539,564.586,382.539,564.586Z" transform="translate(-238.5 -445.446)" fill="#e56b44" opacity="0.2"/>
      <g id="Grupo_75059" data-name="Grupo 75059" transform="translate(103.021 156.918)">
        <path id="Trazado_161621" data-name="Trazado 161621" d="M348.863,693.088c-3.476,1.1-12.433,1.71-14.333,1.544-2.569-.233-7.038-4.07-5.737-4.8h.043c.95-.408,2.911.888,4.274,1.933-1.828-1.548-4.6-4.165-3.543-4.877,1.425-.95,6.649,3.8,7.432,4.55-.746-.8-5.1-5.362-3.937-6.084s6.772,3.8,8.073,4.892c-1.121-.95-5.181-4.493-3.624-5.148,1.814-.76,7.6,4.687,7.6,4.687s7.067-.8,8.226,0a.838.838,0,0,1,.19.176C354.239,690.86,352.1,692.052,348.863,693.088Z" transform="translate(-328.56 -685.027)" fill="url(#linear-gradient-7)"/>
        <path id="Trazado_161622" data-name="Trazado 161622" d="M348.863,698.4c-3.476,1.1-12.433,1.71-14.333,1.543-2.569-.233-7.038-4.07-5.737-4.8a12.39,12.39,0,0,0,5.737,3.063,18.05,18.05,0,0,0,5.737.28c5.376-.5,11.194-2.664,13.3-3.2C354.239,696.176,352.1,697.368,348.863,698.4Z" transform="translate(-328.56 -690.342)" fill="#e56b44" opacity="0.2"/>
      </g>
      <path id="Trazado_161623" data-name="Trazado 161623" d="M168.689,731.017c-.679.337-6.293,3.039-10.4,3.358-4.4.337-6.259-2.2-8.292-4.355s-6.938-.722-8.971-.047-4.4-7.447-5.082-10.149c-.617-2.484-2.944-8.107,1.392-13.473-1.729,5.423-1.168,13.212.855,16.489,2.3,3.723,3.51,4.165,7.675,3.4s6.25,1.866,8.548,4.17S163.849,733.32,168.689,731.017Z" transform="translate(-123.782 -539.306)" fill="#e56b44" opacity="0.2"/>
      <path id="Trazado_161624" data-name="Trazado 161624" d="M201.884,769.988a7.124,7.124,0,0,1-5.86-.95c-5.124-3.134,3.609-10.448,4.046-10.819-.247.28-4.844,5.466-3.6,8.506C197.263,768.72,199.989,769.608,201.884,769.988Z" transform="translate(-155.102 -566.542)" fill="#e56b44" opacity="0.2"/>
      <path id="Trazado_161625" data-name="Trazado 161625" d="M236.367,730.209c-.475.727-.8,1.178-.8,1.178a56.809,56.809,0,0,1-8.9,1.126,13.684,13.684,0,0,0-2.584.551c-1.976.56-4.165,1.377-4.725,1.6a6.057,6.057,0,0,0-.75-1.458s8.145-8.715,8.985-17.876c.608-6.649.565-9.427-.166-12.21,2.061,3.942,1.719,12.281.95,15.99l1.425.138C228.992,721.86,229.5,728.642,236.367,730.209Z" transform="translate(-167.806 -537.609)" fill="#e56b44" opacity="0.2"/>
      <path id="Trazado_161626" data-name="Trazado 161626" d="M198.16,690.58s1.216,4.583,3.2,4.179Z" transform="translate(-157.067 -531.025)" fill="#e56b44" opacity="0.2"/>
      <path id="Trazado_161627" data-name="Trazado 161627" d="M369.618,463.32c-6.3,7.632-16.2,12.884-19.989,14.019s-10.989-.584-14.879-2.4c1.767-1.776,12.918-9.5,18.275-11.474l.195-.047C359.688,461.691,365.13,461.852,369.618,463.32Z" transform="translate(-228.789 -411.09)" fill="#7e5ee3" opacity="0.4"/>
      <path id="Trazado_161628" data-name="Trazado 161628" d="M402.847,510.88s-.879,6.649-.442,9.726a22.539,22.539,0,0,1,16.793-.8,18.9,18.9,0,0,0,0-2.645s-3.248-3.719-15.335.233Z" transform="translate(-264.25 -436.667)" fill="#7e5ee3" opacity="0.4"/>
      <path id="Trazado_161629" data-name="Trazado 161629" d="M722.329,756.6c0,.219-15.107,6.863-38.582,8.838-27.037,2.256-38.838-7.242-38.838-7.242-5.86,2.284-24.415,7.418-37.409,7.261a85.65,85.65,0,0,1-8.748-.736c-.119,1.425-.233,2.883-.342,4.341a87.766,87.766,0,0,0,11.232.062c17.054-1.031,34.3-6.217,34.3-6.217a39.328,39.328,0,0,0,8.363,4.531c5.594,2.4,21.722,4.117,38.468.655a289.173,289.173,0,0,0,31.036-8.273h0c.855,2.645,7.822,4.6,7.822,4.6s1.558-1.477,3.8-7.86A18.812,18.812,0,0,1,722.329,756.6Z" transform="translate(-367.234 -565.67)" fill="#e56b44" opacity="0.2"/>
      <g id="Grupo_75065" data-name="Grupo 75065" transform="translate(82.013)">
        <path id="Trazado_161630" data-name="Trazado 161630" d="M328.7,369.4c.171.366.323.736.475,1.116s.214.551.328.8a29.019,29.019,0,0,1,1.8,7.993v.418c0,.342.043.693.043,1.045a5.993,5.993,0,0,1,1.425,2.08,3.074,3.074,0,0,1,.142.4,4.782,4.782,0,0,1-.048,3.1.949.949,0,0,1-.128.347,6.61,6.61,0,0,1-.309.641,5.7,5.7,0,0,0,.214-.665,1.855,1.855,0,0,0,.066-.361,2.707,2.707,0,0,0-.418-1.857,10.478,10.478,0,0,0-1.2-1.548c-.166-.176-.328-.337-.475-.475-1.2-1.054-2.4-1.391-3.486-.926a2.328,2.328,0,0,0-.4.223,4.954,4.954,0,0,0-1.743,2.4,49.678,49.678,0,0,1-8.582-9.522c-4.687-6.5-6.012-9.949-6.012-9.949-2.816.242-10.8,6.093-16.413,13.9-2.246,3.12-3.776,5.462-4.8,7.2s-1.6,2.731-1.809,3.2a7.251,7.251,0,0,0-.8,2.641,18.938,18.938,0,0,1-.408-2.023c-.09-.451-.185-.95-.28-1.529a4.754,4.754,0,0,0-.114-.655c-.071-.394-.133-.8-.2-1.225,0-.133-.052-.28-.066-.423-.223-1.372-.446-2.878-.632-4.388a5.841,5.841,0,0,0-.085-.712l-.076-.646c-.047-.418-.076-.8-.109-1.249-.337-5.158.893-9.171,3.391-11.759a53.71,53.71,0,0,1,10.6-7.879,37.36,37.36,0,0,1,8.2-3.581c.579-.161,1.154-.294,1.719-.408.432-.085.86-.161,1.287-.214a18.6,18.6,0,0,1,7.508.214c.185.047.361.1.537.166a4.067,4.067,0,0,1,2.4,1.681A43.439,43.439,0,0,1,328.7,369.4Z" transform="translate(-284.44 -354.613)" fill="url(#linear-gradient-8)"/>
        <g id="Grupo_75061" data-name="Grupo 75061" transform="translate(0 0.435)">
          <path id="Trazado_161631" data-name="Trazado 161631" d="M383.261,431.764a20.9,20.9,0,0,1-6.4,5.827c-.285.171-.575.332-.86.475l-.171.086a17.669,17.669,0,0,1-2.308.988l-.427.133-.375.1-.375.1a7.419,7.419,0,0,1-3.149.138c-2.849-.6-3.685-1.344-3.909-1.657a21.6,21.6,0,0,0,1.79-4.155c.038-.138.085-.28.119-.423a17.671,17.671,0,0,0,.689-4.478,29.344,29.344,0,0,0,2.693-1.814l.3-.223a12.923,12.923,0,0,0,3.942-4.44h0a2.692,2.692,0,0,1,.722-.513,4.2,4.2,0,0,1,.475-.214,5.339,5.339,0,0,1,1.7-.271,8.021,8.021,0,0,1,2.094.294C383.422,422.678,386.932,426.535,383.261,431.764Z" transform="translate(-326.839 -390.127)" fill="url(#linear-gradient-9)"/>
          <path id="Trazado_161632" data-name="Trazado 161632" d="M377.747,421.4c1.22,3.1,3.282,10.515-1.743,16.655-2.522,1.325-5.015,1.928-6.805,1.543-2.849-.6-3.685-1.344-3.909-1.657a19.533,19.533,0,0,0,2.6-9.057s5.547-3.2,6.938-6.478h0A3.923,3.923,0,0,1,377.747,421.4Z" transform="translate(-326.839 -390.111)" opacity="0.34" fill="url(#linear-gradient-10)"/>
          <g id="Grupo_75060" data-name="Grupo 75060" transform="translate(0.302)" opacity="0.57">
            <path id="Trazado_161633" data-name="Trazado 161633" d="M324.4,366.2c-3.1-2.959-5.409-6.772-9.023-9.166a17.909,17.909,0,0,1,2.764-1.263c-.176-.062-.351-.119-.532-.166-.537.2-1.05.432-1.562.679a5.123,5.123,0,0,0-3.581-.727c-1.183.071-2.4,0-3.652.047-.57.114-1.145.247-1.719.408,1.453-.071,2.9,0,4.364-.057,1.311-.057,3.134-.342,4.246.513-.627.318-1.24.67-1.847,1.045h0c-4.274-1.524-8.691,1.263-12.167,3.457a69.856,69.856,0,0,0-6.316,4.179,25.33,25.33,0,0,0-5.058,5.6,56.573,56.573,0,0,0-5.352,10.391,5.3,5.3,0,0,0,.085.712,60.433,60.433,0,0,1,5.371-10.643,25.388,25.388,0,0,1,4.673-5.381,29.22,29.22,0,0,1,2.612-1.957c-1.71,4.982-4.7,9.4-7.124,14.062a50.2,50.2,0,0,1-4.379,7.67c-.171.223-.351.437-.537.641a2.523,2.523,0,0,0,.062.423l.361-.375c1.9-2.113,3.153-4.887,4.407-7.4,2.527-5.053,5.827-9.769,7.6-15.2a.2.2,0,0,0,0-.147q1.306-.86,2.636-1.676a42.388,42.388,0,0,1,6.573-3.681,9.636,9.636,0,0,1,6.141-.475l-.67.427a.2.2,0,0,0-.152.1c-.708.475-1.425.95-2.094,1.425a.1.1,0,0,0-.066.048q-1.425,1-2.783,2.037a81.271,81.271,0,0,0-10.391,9.859c-3.158,3.462-6.4,6.981-8.667,11.1a55.987,55.987,0,0,0-2.631,5.158,3.849,3.849,0,0,0,.109.655c.722-1.767,1.648-3.438,2.536-5.129,2.189-4.118,5.348-7.6,8.477-11.065a85.563,85.563,0,0,1,10.272-9.878c1.016-.8,2.056-1.6,3.111-2.3a24.349,24.349,0,0,0,3.277,8.4,51.766,51.766,0,0,0,5.732,8.092,20.525,20.525,0,0,0,7.485,5.5l.294.119a23.745,23.745,0,0,0,4.079,1.064l1.824.342a3.707,3.707,0,0,0-.142-.4l-2.17-.423q-1.339-.256-2.645-.641a7.641,7.641,0,0,1-.841-.29,19.657,19.657,0,0,1-7.394-5.276,48.867,48.867,0,0,1-5.509-7.6,24.589,24.589,0,0,1-3.685-9.171c.632-.437,1.273-.869,1.9-1.3a55.5,55.5,0,0,0,3.557,8.8,26.439,26.439,0,0,0,6.145,7.005,43.3,43.3,0,0,0,9.166,5.8v-.418a45.517,45.517,0,0,1-8.453-5.224,27.9,27.9,0,0,1-6.2-6.739c-1.838-2.873-2.726-6.217-3.89-9.379h.038c.641-.423,1.3-.8,1.952-1.216,3.695,2.4,6.027,6.245,9.147,9.242,1.8,1.729,3.676,3.4,5.428,5.181l.19.2c-.109-.285-.214-.565-.328-.8C327.759,369.33,326.016,367.782,324.4,366.2Z" transform="translate(-284.96 -355.529)" fill="#ff9b5a"/>
            <path id="Trazado_161634" data-name="Trazado 161634" d="M374.793,452.329l-.375.095a4.454,4.454,0,0,0,0-3.077,4.039,4.039,0,0,0-2.75-2.788,5.143,5.143,0,0,0-2.489.19c.038-.138.09-.28.119-.423a4.274,4.274,0,0,1,3.248.157,5.077,5.077,0,0,1,2.246,5.846Z" transform="translate(-329.183 -403.075)" fill="#ff9b5a"/>
            <path id="Trazado_161635" data-name="Trazado 161635" d="M379.665,437.316a13.554,13.554,0,0,1-.275,7.846l-.423.133a12.609,12.609,0,0,0,.361-7.86,9.855,9.855,0,0,0-2.878-4.331l.3-.223A9.6,9.6,0,0,1,379.665,437.316Z" transform="translate(-333 -396.145)" fill="#ff9b5a"/>
            <path id="Trazado_161636" data-name="Trazado 161636" d="M391.787,430.867a14.11,14.11,0,0,1-3.567,7.029c-.29.171-.575.332-.864.475l-.166.085a13.914,13.914,0,0,0,4.127-6.957c.541-2.517.389-5.542-1.52-7.466a7.642,7.642,0,0,0-2.9-1.8,3.875,3.875,0,0,1,.522-.233,6.829,6.829,0,0,1,2.46,1.6,8.135,8.135,0,0,1,1.9,7.266Z" transform="translate(-338.487 -390.432)" fill="#ff9b5a"/>
          </g>
          <path id="Trazado_161637" data-name="Trazado 161637" d="M334.2,396.426a2.992,2.992,0,0,0-.138-2.883c-2.55-3.994-5.7-4.341-7.314-.328a49.488,49.488,0,0,1-8.582-9.522c-4.687-6.5-6.036-9.973-6.036-9.973-2.816.242-10.8,6.093-16.413,13.9-2.246,3.12-3.776,5.461-4.8,7.2s-1.6,2.731-1.809,3.2a7.252,7.252,0,0,0-.8,2.641,18.946,18.946,0,0,1-.408-2.023c.475-3.89,1.344-9.6,6.022-14.9,5.761-6.54,17.021-12.913,19.186-11.65,0,0,10.724,12.956,17.382,6.35a29.225,29.225,0,0,1,2.617,11.4A5.39,5.39,0,0,1,334.2,396.426Z" transform="translate(-286.207 -364.136)" opacity="0.34" fill="url(#linear-gradient-11)"/>
          <path id="Trazado_161638" data-name="Trazado 161638" d="M298.451,364.05c-4.2,3.277-9.475,7.5-11.531,10.923-1.335,2.223-2.1,6.022-2.541,8.734-.337-5.158.9-9.171,3.391-11.764a54.047,54.047,0,0,1,10.681-7.893Z" transform="translate(-284.325 -360.003)" opacity="0.67" fill="url(#linear-gradient-12)"/>
        </g>
        <g id="Grupo_75062" data-name="Grupo 75062" transform="translate(30.416 46.531)">
          <path id="Trazado_161639" data-name="Trazado 161639" d="M357.289,452.59l2.778,7.195.432,1.13.1.28a28.812,28.812,0,0,1-.95,3.2c-.176.475-.375.983-.6,1.472-1.007,2.2-3.932,4.141-3.932,4.141l-1.543-1.505-.917-.879c-.579-.541-1.187-1.121-1.752-1.672l-2.536-2.4C352.525,458.845,357.289,452.59,357.289,452.59Z" transform="translate(-348.37 -452.59)" fill="url(#linear-gradient-13)"/>
          <path id="Trazado_161640" data-name="Trazado 161640" d="M357.289,452.59l2.778,7.195.432,1.13.1.28a28.812,28.812,0,0,1-.95,3.2,19.614,19.614,0,0,0-8.748,1.6l-2.536-2.4C352.525,458.845,357.289,452.59,357.289,452.59Z" transform="translate(-348.37 -452.59)" fill="#e56b44" opacity="0.2"/>
        </g>
        <path id="Trazado_161641" data-name="Trazado 161641" d="M328.4,404.956a19.419,19.419,0,0,1-2.6,9.057c-3.581,6.4-9.921,10.885-12.96,12.58-3.524,1.957-5.595,1.126-9.023-1.847-.8-.674-1.6-1.425-2.546-2.318-5.124-4.8-11.194-21.936-11.194-21.936l.176-.38a72.774,72.774,0,0,1,6.616-10.4c5.609-7.8,13.592-13.654,16.441-13.9,0,0,1.353,3.429,6.036,9.921a50.827,50.827,0,0,0,8.525,9.522c1.6-3.994,4.8-3.638,7.314.328S328.4,404.956,328.4,404.956Z" transform="translate(-287.347 -365.748)" fill="url(#linear-gradient-14)"/>
        <path id="Trazado_161642" data-name="Trazado 161642" d="M332,392.569c-1.6-.608-3.158.214-4.122,2.636a49.489,49.489,0,0,1-8.582-9.522c-4.687-6.5-6.036-9.973-6.036-9.973-2.816.242-10.8,6.093-16.413,13.9a73.28,73.28,0,0,0-6.616,10.4l-.176.385a16.311,16.311,0,0,0,.432,2.237c2.08-7.413,16.56-20.787,21.789-24.467,0,0,4.421,11.65,10.116,17.311s2.4,16.536-3.856,23.356c-4,4.388-7.057,6.986-14.722,5.813,3.429,2.973,5.485,3.8,9.023,1.847,3.039-1.7,9.38-6.174,12.96-12.576a19.471,19.471,0,0,0,2.6-9.061,28.016,28.016,0,0,0,4.564-3.353,19.5,19.5,0,0,1-.959-8.924Z" transform="translate(-287.336 -365.691)" fill="#e56b44" opacity="0.2"/>
        <path id="Trazado_161643" data-name="Trazado 161643" d="M327.27,402.081c-.385-.6,1.733-2.944,4.573-2.816s4.478,3.025,3.951,2.655C334.512,401.036,327.27,402.081,327.27,402.081Z" transform="translate(-306.851 -378.056)" fill="#e87322"/>
        <path id="Trazado_161644" data-name="Trazado 161644" d="M372.475,417.742c-.271-.921-2.584,2.071-2.555,4.749a1.206,1.206,0,0,0,1.477-.632c.475-.95-.161-1.287-.161-1.287S372.627,418.25,372.475,417.742Z" transform="translate(-329.27 -387.672)" fill="#e56b44" opacity="0.2"/>
        <path id="Trazado_161645" data-name="Trazado 161645" d="M296.34,437.08a5.105,5.105,0,0,0,.223.708,2.161,2.161,0,0,1-.223-.708Z" transform="translate(-290.634 -397.915)" fill="#fff"/>
        <g id="Grupo_75063" data-name="Grupo 75063" transform="translate(4.702 32.495)">
          <path id="Trazado_161646" data-name="Trazado 161646" d="M294.76,430.276s-1.871-5.381,1.391-6.891c3.894-1.814,6.107,4.046,6.107,4.046a6.511,6.511,0,0,1-3.419,2.849,4.911,4.911,0,0,1-4.079,0Z" transform="translate(-294.225 -423.036)" fill="#e57f5f" opacity="0.28"/>
          <path id="Trazado_161647" data-name="Trazado 161647" d="M302.854,430.93a7.887,7.887,0,0,1-2.693,2.213,7.664,7.664,0,0,1-2.85.75,6.73,6.73,0,0,1-1.952-.128,4.44,4.44,0,0,1,2.935-3.8C301.4,429.011,302.854,430.93,302.854,430.93Z" transform="translate(-294.821 -426.535)" fill="#fff"/>
          <path id="Trazado_161648" data-name="Trazado 161648" d="M297.3,426.932a3.628,3.628,0,0,0-2.493,4.545,4.747,4.747,0,0,0,.2.717,4.43,4.43,0,0,1,2.935-3.8c3.111-.95,4.564.95,4.564.95a4.079,4.079,0,0,0-5.205-2.413Z" transform="translate(-294.474 -424.954)" fill="#c1632f"/>
          <path id="Trazado_161649" data-name="Trazado 161649" d="M301.59,432.576a1.847,1.847,0,0,1-.052,1.448,7.687,7.687,0,0,1-2.849.75,1.871,1.871,0,0,1,.475-3.277A1.9,1.9,0,0,1,301.59,432.576Z" transform="translate(-296.164 -427.417)" fill="#639270"/>
        </g>
        <g id="Grupo_75064" data-name="Grupo 75064" transform="translate(21.176 27.482)">
          <path id="Trazado_161650" data-name="Trazado 161650" d="M328.955,419.618s-.679-6.782,3.481-7.124,5.5,5.594,5.5,5.594a6.554,6.554,0,0,1-4.678,2.7C329.933,421.223,328.955,419.618,328.955,419.618Z" transform="translate(-328.913 -412.48)" fill="#e57f5f" opacity="0.28"/>
          <path id="Trazado_161651" data-name="Trazado 161651" d="M337.981,422.388a16.94,16.94,0,0,1-3.6,1.771,8.073,8.073,0,0,1-3.358.475,3.642,3.642,0,0,1-2.018-.708c0-.6,1.7-2.978,4.274-3.2A5.818,5.818,0,0,1,337.981,422.388Z" transform="translate(-328.959 -416.793)" fill="#fff"/>
          <path id="Trazado_161652" data-name="Trazado 161652" d="M332.792,417.252a4.492,4.492,0,0,0-3.8,4.8,5.284,5.284,0,0,1,4.274-3.2,5.818,5.818,0,0,1,4.7,1.657A4.452,4.452,0,0,0,332.792,417.252Z" transform="translate(-328.952 -414.939)" fill="#c1632f"/>
          <path id="Trazado_161653" data-name="Trazado 161653" d="M336.118,423.217a1.985,1.985,0,0,1,0,1.6,8.073,8.073,0,0,1-3.358.475,1.76,1.76,0,0,1-.351-.475,2.03,2.03,0,1,1,3.733-1.6Z" transform="translate(-330.663 -417.471)" fill="#639270"/>
        </g>
        <path id="Trazado_161654" data-name="Trazado 161654" d="M299.932,409.064c-1.145-.408-2.527-1.2-4.8.166a5.5,5.5,0,0,0-2.641,4.925,34.253,34.253,0,0,1,3.538-2.821A23.852,23.852,0,0,1,299.932,409.064Z" transform="translate(-288.613 -382.888)" fill="#e87322"/>
      </g>
      <path id="Trazado_161655" data-name="Trazado 161655" d="M157.916,702.987c-2.17.385-3.918,4.8-.047,11.194,0,0,.622-3.652,1.334-6.568S160.4,702.551,157.916,702.987Z" transform="translate(-134.709 -537.51)" fill="url(#linear-gradient-15)"/>
      <path id="Trazado_161656" data-name="Trazado 161656" d="M172.821,708.29s1.054,3.486-.351,6.174C172.47,714.464,177.471,711.377,172.821,708.29Z" transform="translate(-143.578 -540.324)" fill="#473a36"/>
      <path id="Trazado_161657" data-name="Trazado 161657" d="M317.027,436.426a9.379,9.379,0,0,1-3.1-.7.361.361,0,0,1-.166-.446c3.263-4.63-.95-11.635-.983-11.707a.29.29,0,0,1,.1-.4h0a.3.3,0,0,1,.408.095h0c.176.3,4.274,7.124,1.178,12.053.736.261,2.493.8,3.524.332a1.206,1.206,0,0,0,.679-.741.294.294,0,0,1,.356-.223.3.3,0,0,1,.223.351.17.17,0,0,1,0,.052,1.781,1.781,0,0,1-.993,1.107,3.124,3.124,0,0,1-1.23.228Z" transform="translate(-217.231 -390.589)" fill="#e77653"/>
      <path id="Trazado_161658" data-name="Trazado 161658" d="M320.9,462.01a.309.309,0,0,1-.29-.223.3.3,0,0,1,.214-.366l6.264-1.6a.3.3,0,0,1,.143.575l-6.255,1.6Z" transform="translate(-221.359 -409.851)" fill="#d3413d"/>
      <path id="Trazado_161659" data-name="Trazado 161659" d="M430.39,759.995c.294-.143,2.849,3.016,0,4.55Z" transform="translate(-279.009 -567.471)" fill="#e56b44" opacity="0.2"/>
      <path id="Trazado_161660" data-name="Trazado 161660" d="M411.11,753.732c2.218.123,4.749.427,4.63,1.168-.166,1.088-5.39,1.311-7.195,1.377.893.085,4.274-.147,5.381.142.318.067.475.185.318.361-1.292,1.719-20.236,1.244-20.236,1.244s-7.689.052-19.438.907c-15.059,1.092-33.515-.233-33.515-.233-7.276.527-36.212,0-36.212,0h0c-1.173,0-31.088.693-31.734-10.476v-1.278c.632-11.536,19.557-10.69,26.866-10.69,5.87.128,39.081,6.967,39.574,7.124,1.187.328,5.775-1.045,19-.7s35.4,6.867,35.4,6.877c7-1.306,12.1-2.175,13.663-1.287s-2.584,1.425-4,1.6c2.042-.128,10.676-.608,10.923.613.218,1.054-5.224,1.425-5.7,1.6,2.1-.247,8.074-.394,8.074.641C416.894,753.959,413.736,753.855,411.11,753.732Z" transform="translate(-196.423 -555.001)" fill="url(#linear-gradient-16)"/>
      <path id="Trazado_161661" data-name="Trazado 161661" d="M414.314,768.665c-1.3,1.719-20.236,1.249-20.236,1.249s-7.694.048-19.438.9c-15.064,1.092-33.515-.233-33.515-.233-7.276.527-36.212,0-36.212,0h0c-1.178,0-31.088.693-31.734-10.477V758.83c14.062,8.1,49.073,9.284,68.387,8.126,0,0,23.85,2.46,35.367,1.149,9.593-1.1,26.738,1.99,37.072.2C414.314,768.371,414.452,768.49,414.314,768.665Z" transform="translate(-196.46 -566.862)" fill="#e56b44" opacity="0.2"/>
      <path id="Trazado_161662" data-name="Trazado 161662" d="M458.169,561.465a29.961,29.961,0,0,1-5.414,4.559,58.517,58.517,0,0,0-6.682-7.922s-.594-4.749-1.073-8.548a58.431,58.431,0,0,0,4.512-4.364c1.349,5.533,2.294,9.664,2.555,9.945C452.67,555.7,458.169,561.465,458.169,561.465Z" transform="translate(-286.68 -454.683)" fill="#e56b44" opacity="0.2"/>
      <path id="Trazado_161663" data-name="Trazado 161663" d="M220.333,700.318v4.431a.309.309,0,0,1-.351.252.313.313,0,0,1-.252-.252V700.28Z" transform="translate(-168.394 -536.118)" fill="#e56b44"/>
    </g>
  </g>
</svg>
