<svg xmlns="http://www.w3.org/2000/svg" xmlns:xlink="http://www.w3.org/1999/xlink" width="179" height="179" viewBox="0 0 179 179">
  <defs>
    <filter id="Elipse_4365" x="0" y="0" width="179" height="179" filterUnits="userSpaceOnUse">
      <feOffset dy="3" input="SourceAlpha"/>
      <feGaussianBlur stdDeviation="3" result="blur"/>
      <feFlood flood-opacity="0.161"/>
      <feComposite operator="in" in2="blur"/>
      <feComposite in="SourceGraphic"/>
    </filter>
    <clipPath id="clip-path">
      <circle id="Elipse_4063" data-name="Elipse 4063" cx="62" cy="62" r="62" fill="none"/>
    </clipPath>
  </defs>
  <g id="Grupo_74531" data-name="Grupo 74531" transform="translate(9 6)">
    <g id="Grupo_74528" data-name="Grupo 74528">
      <g transform="matrix(1, 0, 0, 1, -9, -6)" filter="url(#Elipse_4365)">
        <circle id="Elipse_4365-2" data-name="Elipse 4365" cx="80.5" cy="80.5" r="80.5" transform="translate(9 6)" fill="#fff"/>
      </g>
      <g id="Capa_2" data-name="Capa 2" transform="translate(19 19)">
        <g id="Grupo_73325" data-name="Grupo 73325">
          <circle id="Elipse_4063-2" data-name="Elipse 4063" cx="62" cy="62" r="62" fill="#81d4fa"/>
        </g>
      </g>
    </g>
    <path id="Trazado_163371" data-name="Trazado 163371" d="M31.344,42.055h6.211q7.383,0,7.383-7.227a6.249,6.249,0,0,0-1.758-4.59,6.666,6.666,0,0,0-4.961-1.777,7.136,7.136,0,0,0-4.551,1.523,4.648,4.648,0,0,0-1.934,3.789H18.57a13.475,13.475,0,0,1,2.5-8.008A16.51,16.51,0,0,1,28,20.277,23.706,23.706,0,0,1,37.75,18.3q9.492,0,14.922,4.336T58.1,34.555a12.014,12.014,0,0,1-2.246,6.934,16.009,16.009,0,0,1-6.543,5.293,15.291,15.291,0,0,1,7.109,4.98A13.116,13.116,0,0,1,59,60.023a14.676,14.676,0,0,1-5.859,12.188q-5.859,4.57-15.391,4.57a25.223,25.223,0,0,1-10.371-2.129,16.249,16.249,0,0,1-7.246-5.9,15.335,15.335,0,0,1-2.461-8.574H30.914a5.927,5.927,0,0,0,2.109,4.531,7.447,7.447,0,0,0,5.2,1.914,7.8,7.8,0,0,0,5.547-1.934,6.463,6.463,0,0,0,2.07-4.941q0-4.3-2.148-6.094a8.981,8.981,0,0,0-5.937-1.8H31.344Z" transform="translate(41.287 32.789)" fill="#fff"/>
  </g>
</svg>
