<svg xmlns="http://www.w3.org/2000/svg" xmlns:xlink="http://www.w3.org/1999/xlink" width="398.314" height="337.984" viewBox="0 0 398.314 337.984">
  <defs>
    <linearGradient id="linear-gradient" x1="-0.088" y1="1.297" x2="0.603" y2="0.362" gradientUnits="objectBoundingBox">
      <stop offset="0" stop-color="#81d4fa"/>
      <stop offset="0.424" stop-color="#81d4fa"/>
      <stop offset="1" stop-color="#7e5ee3"/>
    </linearGradient>
    <clipPath id="clip-path">
      <circle id="Elipse_4708" data-name="Elipse 4708" cx="140.733" cy="140.733" r="140.733" fill="none"/>
    </clipPath>
    <radialGradient id="radial-gradient" cx="0.139" cy="0.55" r="0.44" gradientTransform="matrix(1.355, 0, 0, -1.004, -38.096, 54.552)" gradientUnits="objectBoundingBox">
      <stop offset="0.2" stop-color="#e1795c"/>
      <stop offset="0.53" stop-color="#e0765b"/>
      <stop offset="0.78" stop-color="#df6c58"/>
      <stop offset="1" stop-color="#dc5d54"/>
    </radialGradient>
    <radialGradient id="radial-gradient-2" cx="0.725" cy="0.638" r="0.611" gradientTransform="matrix(0.714, 0, 0, -0.998, 30.742, 113.262)" xlink:href="#radial-gradient"/>
    <radialGradient id="radial-gradient-3" cx="0.004" cy="0.33" r="0.59" gradientTransform="matrix(0.75, 0, 0, -0.998, 28.543, 113.966)" xlink:href="#radial-gradient"/>
    <radialGradient id="radial-gradient-4" cx="0.476" cy="0.468" r="0.44" gradientTransform="matrix(1.359, 0, 0, -1.004, -38.207, 54.563)" xlink:href="#radial-gradient"/>
    <radialGradient id="radial-gradient-5" cx="0.313" cy="0.273" r="0.609" gradientTransform="matrix(0.714, 0, 0, -1.002, 30.333, 113.172)" xlink:href="#radial-gradient"/>
    <radialGradient id="radial-gradient-6" cx="0.972" cy="0.3" r="0.589" gradientTransform="matrix(0.746, 0, 0, -1, 28.605, 114.041)" xlink:href="#radial-gradient"/>
    <linearGradient id="linear-gradient-2" x1="177.672" y1="3.535" x2="177.809" y2="3.535" gradientUnits="objectBoundingBox">
      <stop offset="0" stop-color="#078c9d"/>
      <stop offset="0.04" stop-color="#0796a8"/>
      <stop offset="0.22" stop-color="#09bdd4"/>
      <stop offset="0.37" stop-color="#0bd6f0"/>
      <stop offset="0.45" stop-color="#0bdffa"/>
      <stop offset="0.72" stop-color="#09b4ca"/>
      <stop offset="1" stop-color="#078c9d"/>
    </linearGradient>
    <radialGradient id="radial-gradient-7" cx="-0.317" cy="0.279" r="0.497" gradientTransform="matrix(1.007, 0, 0, -1, -1.282, 136.641)" xlink:href="#radial-gradient"/>
  </defs>
  <g id="Grupo_74560" data-name="Grupo 74560" transform="translate(-930.621 -4138.501)">
    <path id="Trazado_100532" data-name="Trazado 100532" d="M333.755,71.969c-19.477-20.362-89.037-87.387-232.8-68.722C3.836,15.857-3.964,72.613,1.2,108.11A117.556,117.556,0,0,0,12.617,143.7c5.041,10.082,13.549,30.565,11.361,50.443-1.773,16.1,33.389,111.992,207.754,94.175S364.42,104.028,333.755,71.969Z" transform="translate(930.621 4188.798) rotate(-8)" fill="#81d4fa"/>
    <path id="Trazado_100534" data-name="Trazado 100534" d="M921.457,274.368c16.278-22.412,74.41-96.187,194.552-75.643,81.167,13.88,87.686,76.352,83.374,115.423a160.035,160.035,0,0,1-9.546,39.173c-4.212,11.1-11.323,33.643-9.495,55.522,1.481,17.724-27.9,123.269-173.623,103.659S895.83,309.656,921.457,274.368Z" transform="translate(81.119 3956.334)" fill="url(#linear-gradient)"/>
    <g id="Grupo_53817" data-name="Grupo 53817" transform="translate(959.985 4390.158)">
      <path id="Trazado_100506" data-name="Trazado 100506" d="M990.544,495.027l-47.756,47.41a2.522,2.522,0,0,1-3.554-3.58l47.756-47.41a2.522,2.522,0,1,1,3.554,3.58Z" transform="translate(-918.462 -490.714)" fill="#fff"/>
      <path id="Trazado_100507" data-name="Trazado 100507" d="M928,569.172,915.948,581.14a2.522,2.522,0,0,1-3.554-3.58l12.055-11.968a2.522,2.522,0,0,1,3.554,3.58Z" transform="translate(-911.649 -509.535)" fill="#fff"/>
    </g>
    <g id="Grupo_53818" data-name="Grupo 53818" transform="translate(988.227 4410.686)">
      <path id="Trazado_100508" data-name="Trazado 100508" d="M997.242,520.825l-28.917,28.25a1.515,1.515,0,1,1-2.118-2.167l28.917-28.25a1.515,1.515,0,0,1,2.118,2.167Z" transform="translate(-953.624 -518.226)" fill="#7e5ee3"/>
      <path id="Trazado_100509" data-name="Trazado 100509" d="M959.373,565.006l-7.3,7.132a1.515,1.515,0,0,1-2.118-2.169l7.3-7.131a1.515,1.515,0,0,1,2.118,2.168Z" transform="translate(-949.498 -529.441)" fill="#7e5ee3"/>
    </g>
    <path id="Trazado_100510" data-name="Trazado 100510" d="M1206.14,150.806l-36.315,31.725a1.807,1.807,0,0,0,2.378,2.722l36.316-31.725a1.808,1.808,0,1,0-2.379-2.722Z" transform="translate(84.2 4011.632)" fill="#81d4fa"/>
    <path id="Trazado_100511" data-name="Trazado 100511" d="M1156.968,204.343l-9.167,8.008a1.807,1.807,0,1,0,2.378,2.722l9.168-8.008a1.807,1.807,0,1,0-2.378-2.722Z" transform="translate(90.995 3995.114)" fill="#81d4fa"/>
    <ellipse id="Elipse_4060" data-name="Elipse 4060" cx="11.787" cy="11.787" rx="11.787" ry="11.787" transform="translate(984.895 4359.364)" fill="#ff9d00"/>
    <ellipse id="Elipse_4061" data-name="Elipse 4061" cx="14.084" cy="14.084" rx="14.084" ry="14.084" transform="translate(1271.816 4204.069)" fill="#ff9d00"/>
    <g id="Capa_2" data-name="Capa 2" transform="translate(990.55 4158.262)">
      <circle id="Elipse_4640" data-name="Elipse 4640" cx="140.473" cy="140.473" r="140.473" transform="translate(-4.263 0.224)" fill="#fff"/>
      <g id="Capa_2-2" data-name="Capa 2" transform="translate(-50.843 -43.236)">
        <g id="Grupo_75092" data-name="Grupo 75092" transform="translate(46.58 43.46)" clip-path="url(#clip-path)">
          <g id="Grupo_74542" data-name="Grupo 74542" transform="translate(52.331 2.389)">
            <path id="Trazado_158781" data-name="Trazado 158781" d="M307,259.05a34.2,34.2,0,0,1-8.379-7.571,22.49,22.49,0,0,0-9.433-6.286,8.753,8.753,0,0,1-1.905-.873c-1.176-.816-1.371-2.468-1.7-3.8s-.556-2.562-.909-3.818a50.723,50.723,0,0,1-1.342-13.36c0-16.016-3.385-29.844-5.175-33.576s-2.937-6.59-5.052-21.732,1.949-12.667,0-30.956-16.42-21.508-22.8-22.98-19.653-6.77-22.208-8.625c-1.263-.938-1.443-5.709-1.335-10.292a29.9,29.9,0,0,0,3.76-10.3c.318.383.96,1.1,1.545,1.14.808,0,1.985-2.468,2.353-3.7a20.476,20.476,0,0,0,.318-7.528c-.556-1.689-1.862-.354-2.288.31a2.562,2.562,0,0,1-.837.657c.13-2.23.238-4.46.57-6.683A25.579,25.579,0,0,0,231,56.319c-3.2-8.885-15.691-9.5-17.43-9.549h0c-1.739,0-14.226.664-17.43,9.549a25.579,25.579,0,0,0-1.162,12.76,64.688,64.688,0,0,1,.563,6.683,2.41,2.41,0,0,1-.808-.678c-.447-.664-1.732-2-2.288-.31a20.318,20.318,0,0,0,.3,7.528c.368,1.379,1.545,3.8,2.346,3.7.585,0,1.263-.722,1.545-1.14a30.436,30.436,0,0,0,3.7,10.256c.13,4.6-.072,9.383-1.321,10.292-2.533,1.905-15.756,7.217-22.208,8.625s-20.858,4.684-22.807,22.988,2.1,15.806,0,30.949-3.233,18-5.052,21.732-5.175,17.56-5.175,33.576a50.429,50.429,0,0,1-1.357,13.36c-.339,1.234-.592,2.548-.909,3.818s-.512,2.981-1.689,3.8a8.914,8.914,0,0,1-1.905.873,22.677,22.677,0,0,0-9.455,6.286,34.412,34.412,0,0,1-8.358,7.578c-1.92,1.306-1.263,4.641,3.1,3.7s7.3-6.424,8.394-6.1-1.263,8.379-2.115,11.086-1.79,5.991-2.375,7.658-1.263,4.713.079,6.416,3.132-.491,4.4-4.857,3.89-12.176,3.89-12.176-1.443,6.59-2.526,10.581-3.789,9.087-1.443,11.007c1.263,1.025,2.692-.274,3.508-2.165s1.862-5.2,1.934-5.507c.772-3.262,3.06-12.212,3.06-12.212s-1.48,7.506-2.353,11.086a37.061,37.061,0,0,0-1.617,6.164,1.674,1.674,0,0,0,.722,1.494,1.768,1.768,0,0,0,1.667.231c1.263-.361,2.288-3.01,3-5.832s1.819-8.12,2.526-10.6c.253-.938.671-1.862.65-1.162-.065,1.53-1.263,5.68-1.667,7.766-.5,2.634-.411,4.511.866,4.655a2.043,2.043,0,0,0,2.165-1.234,35.149,35.149,0,0,0,2.122-7.29c.924-3.991,2.165-7.679,2.707-11.266s1.263-10.934,1.855-13.338,1.732-5.55,1.732-5.55h-.094c2.23-6.763,7.586-23,11.137-32.883,4.5-12.739,2.887-17.127,3.609-22.612.44-3.558,4.287-12.479,7.059-22.028,4.193,8.625,8.517,21.2,5.926,33.662-4.547,21.883-3.118,15.51-4.547,21.883a175.942,175.942,0,0,0-3.854,21.1c-1.588,16.023-2.829,32.305-.216,48.191.953,5.774,4.41,39.357,4.2,40.512-.823,4.374-3.479,13.554-4.489,18.679s-.505,12.912-.1,27.022,2.252,25.045,2.887,32.789c.527,6.654-.484,23.673-.772,28.336a8.769,8.769,0,0,1-.476,2.4,45.315,45.315,0,0,1-2.62,6.156,83.863,83.863,0,0,1-8.084,12.2c-1.516,1.444-3.991,5.052-1.682,6.1a1.176,1.176,0,0,0,1.263,0,2.439,2.439,0,0,0,.953,2.75,2.886,2.886,0,0,0,1.335.209,2.454,2.454,0,0,0,1.205,1.819,2.57,2.57,0,0,0,2.216.188s.577,1.985,2.346,2.086a4.452,4.452,0,0,0,1.718-.209c.491-.2,1.047-.722,1.638-2.165a2.36,2.36,0,0,0,1.812,2.649,5.052,5.052,0,0,0,6.315-2.981c1.4-2.829,1.263-3.335,2.36-5.774s.606-8.856,1.443-11.461,3.284-3.5,3.508-5.659a28.721,28.721,0,0,0-.108-6.1l.144-9.722.3-4.331a155.968,155.968,0,0,1,2.526-19.956c2.165-11.093,5.175-29.411,6.084-40.54,1.263-14.9,2.656-27.426,3.464-29.8l.152-.462a139.651,139.651,0,0,0,6.315-28.025c.354-3.024.671-6.351.924-9.859,1.111-15.676.606-24.215,3.486-24.64,2.887.4,2.36,8.942,3.472,24.64.253,3.558.585,6.885.924,9.859a141.161,141.161,0,0,0,6.315,28.025l.152.462c.823,2.375,2.252,14.9,3.464,29.8.924,11.093,3.926,29.462,6.1,40.541a157.279,157.279,0,0,1,2.533,19.956l.289,4.331s.108,9.707.166,9.722a28.252,28.252,0,0,0-.123,6.1c.224,2.165,2.678,3.053,3.508,5.658s.3,8.993,1.443,11.461.982,2.966,2.36,5.774a5.052,5.052,0,0,0,6.315,2.981,2.331,2.331,0,0,0,1.8-2.649c.606,1.393,1.148,1.949,1.653,2.165a4.4,4.4,0,0,0,1.7.209c1.768-.1,2.353-2.086,2.353-2.086a2.576,2.576,0,0,0,2.23-.173,2.439,2.439,0,0,0,1.213-1.826,2.887,2.887,0,0,0,1.321-.209,2.447,2.447,0,0,0,.967-2.75s.4.332,1.256,0c2.317-1.025-.144-4.6-1.667-6.1a84.441,84.441,0,0,1-8.084-12.2,45.352,45.352,0,0,1-2.627-6.157,9.159,9.159,0,0,1-.476-2.4c-.3-4.684-1.263-21.7-.772-28.336.621-7.752,2.454-18.679,2.851-32.789s.924-21.854-.087-27.022-3.674-14.3-4.482-18.679c-.217-1.155,3.233-34.723,4.193-40.512,2.6-15.878,1.371-32.132-.217-48.191a177.42,177.42,0,0,0-3.861-21.1c-1.444-6.373,0,0-4.54-21.883-2.591-12.457,1.718-25.088,5.926-33.662,2.772,9.549,6.618,18.484,7.051,22.028.686,5.492-.9,9.859,3.609,22.612,3.5,9.859,8.841,26.12,11.129,32.883h-.079a55.409,55.409,0,0,1,1.718,5.55c.57,2.4,1.342,9.744,1.869,13.338s1.783,7.275,2.692,11.266a35.187,35.187,0,0,0,2.165,7.29c.686,1.162,1.371,1.357,2.165,1.234,1.263-.144,1.371-2.021.859-4.655-.4-2.086-1.609-6.236-1.667-7.766,0-.722.39.224.642,1.162.671,2.461,1.754,7.716,2.526,10.6s1.783,5.471,3,5.832a1.79,1.79,0,0,0,1.667-.224,1.682,1.682,0,0,0,.686-1.5,34.288,34.288,0,0,0-1.617-6.164c-.859-3.558-2.338-11.086-2.338-11.086s2.288,8.942,3.06,12.212c.072.31,1.1,3.558,1.92,5.507s2.288,3.219,3.508,2.165c2.353-1.927-.39-7.015-1.443-11.007s-2.526-10.581-2.526-10.581,2.6,7.809,3.876,12.176,3.111,6.553,4.4,4.857.664-4.756.079-6.424-1.443-4.922-2.36-7.651-3.2-10.783-2.115-11.086,3.991,5.124,8.394,6.1S308.915,260.357,307,259.05Z" transform="translate(-119.086 -46.77)" fill="#fcd7c8"/>
            <path id="Trazado_158787" data-name="Trazado 158787" d="M200.421,560.312a20.526,20.526,0,0,0,3.955-9.931,45.47,45.47,0,0,0,.592-17.279c-.527-2.887-1.112-6.5-1.934-9.289-4.208-14.471-2.887-29.649-1.5-44.474,1.2-13.114,2.526-28.061,3.688-41.14-1.783,5.695-2.4,13.475-2.887,19.379q-1.111,12.631-2.252,25.369c-.924,10.444-1.855,20.967-.426,31.418,1.263,9.383,4.46,18.657,4.6,28.148a42.856,42.856,0,0,1-3.832,17.791Z" transform="translate(-141.3 -155.687)" fill="#00bcd4"/>
            <path id="Trazado_158788" data-name="Trazado 158788" d="M209.409,464.9l-1.8,4.468a20.8,20.8,0,0,0-2.115,8.849,21.436,21.436,0,0,0,5.153,11.23c.44.512-.57-1.718,0-1.617-2.591-5.146-3.2-5.666-3.609-7.939a23.76,23.76,0,0,1,.505-8.2Q208.435,468.256,209.409,464.9Z" transform="translate(-143.128 -163.116)" fill="#00bcd4"/>
            <path id="Trazado_158789" data-name="Trazado 158789" d="M209.509,508.36a84.286,84.286,0,0,0-2.772-10.631,130.76,130.76,0,0,1-3.392-15.878,18.29,18.29,0,0,0-.267,4.33,36.427,36.427,0,0,0,2.822,12.609c3.06,8.2,4.006,13.237,3.01,17.769C210.13,514.437,209.877,510.828,209.509,508.36Z" transform="translate(-142.449 -167.833)" fill="#00bcd4"/>
            <path id="Trazado_158790" data-name="Trazado 158790" d="M215.776,499.925c-1.263-15.07.722-23.161.419-31.288-.433-11.375-1.956-15.518-3.414-27.217-.274,10.1,1.963,17.842,2.23,27.708S213.185,490.383,215.776,499.925Z" transform="translate(-145.151 -156.583)" fill="#00bcd4"/>
            <path id="Trazado_158791" data-name="Trazado 158791" d="M206.045,553.3a49.308,49.308,0,0,1-3.385,9.931c4.114-4.85,4.648-10.6,5.9-16.6a65.805,65.805,0,0,0,1.032-8.661q.541-7.355.895-14.774a480.408,480.408,0,0,0-.238-53.171c-.354-5.651-1.371-16.427-3.9-21.342,3.537,16.9,3.089,40.071,2.887,57.206q-.087,8.481-.44,16.925-.411,10.1-1.176,20.209A48.724,48.724,0,0,1,206.045,553.3Z" transform="translate(-142.341 -158.603)" fill="#00bcd4"/>
            <path id="Trazado_158792" data-name="Trazado 158792" d="M203.28,478.71c-.982,3.609-4.8,8.921-6.1,12.407a16.781,16.781,0,0,0-.938,10.927c.419-1.732.318-3.544.65-5.283a33.921,33.921,0,0,1,3.248-7.831C201.324,486.353,204.2,481.388,203.28,478.71Z" transform="translate(-140.413 -166.959)" fill="#00bcd4"/>
            <path id="Trazado_158795" data-name="Trazado 158795" d="M211.486,459.3c-.722,3.89-.931,7.939-2.526,11.548,2.526-3.046,3.06-7.174,3.876-11.021a65.073,65.073,0,0,1,5.716-16.088,20.65,20.65,0,0,0,2.634-6.712,51.857,51.857,0,0,0-9.7,22.273Z" transform="translate(-144.094 -155.361)" fill="#00bcd4"/>
            <path id="Trazado_158796" data-name="Trazado 158796" d="M207.185,448.149c2.2-5.052,1.126-10.927.469-16.42a82,82,0,0,1-.253-18.953c.289-2.627.722-5.471-.621-7.766a131.944,131.944,0,0,0,.13,32.363,33.533,33.533,0,0,1,.274,10.776Z" transform="translate(-143.228 -146.451)" fill="#00bcd4"/>
            <path id="Trazado_158797" data-name="Trazado 158797" d="M232.744,421.278c-.274,2.086-.722,4.128-1.184,6.164a46.271,46.271,0,0,0,1.119-29.592C232.015,405.681,233.7,413.548,232.744,421.278Z" transform="translate(-150.382 -144.459)" fill="#00bcd4"/>
            <path id="Trazado_158798" data-name="Trazado 158798" d="M198.629,371.239a9.643,9.643,0,0,1-.31-2.028c0-1-.1-1.985-.152-2.981a64.344,64.344,0,0,0,.491,26.791,143.525,143.525,0,0,1,0-21.79Z" transform="translate(-140.763 -135.661)" fill="#00bcd4"/>
            <path id="Trazado_158799" data-name="Trazado 158799" d="M235.128,280.986c1.263-.657,2.663-1.6,2.526-2.966A44.669,44.669,0,0,0,211.2,308.074c-2.021,7.939-1.768,16.3-1.5,24.539q1.025,32.111,2.071,64.235a38.32,38.32,0,0,0,.873,8.264q1.443-27.96.577-55.979c-.123-4.179-.289-8.372-.772-12.53s-1.263-8.4-1.5-12.631a47.116,47.116,0,0,1,24.178-42.987Z" transform="translate(-144.25 -111.116)" fill="#00bcd4"/>
            <path id="Trazado_158800" data-name="Trazado 158800" d="M228.53,299.774a57.93,57.93,0,0,1,5.832-6.07c1.747-1.263,5.7-3.609,5.723-5.774-6.171,2.526-13.54,10.7-16.752,16.535a65.405,65.405,0,0,0-6.128,15.51c-4.547,18.231-.823,37.444,3.991,55.575a65.513,65.513,0,0,1,2.764,14.579c2.115-9.383-1.371-18.946-3.537-28.386a171.673,171.673,0,0,1-2.851-17.026,70.531,70.531,0,0,1-.772-8.971c0-10.9,4.475-21.234,8.841-31.2a17.943,17.943,0,0,1,2.887-4.771Z" transform="translate(-145.815 -113.874)" fill="#00bcd4"/>
            <path id="Trazado_158801" data-name="Trazado 158801" d="M241.521,305.193c.39-.411.621-1.263,0-1.263A36.542,36.542,0,0,0,227.5,326.3a72.573,72.573,0,0,0-.938,8.841q-1.364,21.284-2.714,42.583-.38,4.855-.274,9.729c.274,7.023,2.165,14.009,1.263,20.981,3.522-8.964,0-19.047.411-28.682.2-4.244,1.263-8.43,1.711-12.638.339-2.815.455-5.644.577-8.473q.671-15.265,1.263-30.544a31.561,31.561,0,0,1,1.01-7.939C231.813,314.085,237.111,309.755,241.521,305.193Z" transform="translate(-148.153 -118.326)" fill="#00bcd4"/>
            <path id="Trazado_158802" data-name="Trazado 158802" d="M240.36,309c-4.655,3.609-7.217,9.289-8.841,14.955-5.052,17.827-2.375,36.867-3.991,55.344a118.222,118.222,0,0,1-9.578,37.343,84.372,84.372,0,0,1,4.9-11.548c5.233-11.548,5.774-24.6,6.727-37.264s-.231-18.267,1.119-30.891c.873-8.12,2.3-15.878,4.713-19.523C237.221,314.666,240.238,312.392,240.36,309Z" transform="translate(-146.595 -119.736)" fill="#00bcd4"/>
            <path id="Trazado_158803" data-name="Trazado 158803" d="M221.917,470.26c-.1-2.613-.563-5.2-.686-7.816-.166-4.071,1.09-8.076,1.371-12.133a22.021,22.021,0,0,0-1.119-6.943c-.253-.455-.657,1.075-.657,1.075,1.79,6.4-1.061,13.338-.657,18.311.577,7.268,1.653,16.088-2.23,23.666a27.426,27.426,0,0,0,3.977-16.16Z" transform="translate(-146.592 -157.101)" fill="#00bcd4"/>
            <path id="Trazado_158804" data-name="Trazado 158804" d="M218.225,445.027a.44.44,0,0,0,0-.137,8.337,8.337,0,0,1-1.566,2.606c.78,10.328-1.14,20.88-1.1,31.324,0,12.789,3.024,26.142-1.725,38.014a29.909,29.909,0,0,0,3.789-16.42c-.094-5.774-.989-11.375-1.263-16.983C215.9,470.635,219,457.853,218.225,445.027Z" transform="translate(-145.449 -157.548)" fill="#00bcd4"/>
            <path id="Trazado_158805" data-name="Trazado 158805" d="M202.056,317.244a86.3,86.3,0,0,1,5.052-16.008c2.887-6.092,6.986-16.095,13.583-22.742,3.147-3.183,9.549-9.3,15.157-12.313a10.017,10.017,0,0,1,.072-2.23c-11.909,4.8-21.652,17.582-27.26,29.144a100.041,100.041,0,0,0-10.465,41.255c-.368,20.772,6.691,40.562,17.56,59.551a28.632,28.632,0,0,1,3.508,13.641c1.963-4.417.621-9.65-1.711-13.894s-11.266-21.826-12.284-26.827c-.8-3.789-5.666-21.342-5.146-34.932a79.58,79.58,0,0,1,1.978-14.644Z" transform="translate(-141.095 -107.201)" fill="#00bcd4"/>
            <path id="Trazado_158806" data-name="Trazado 158806" d="M212.773,318.692a33.071,33.071,0,0,1-2.591-8.076,27,27,0,0,1,1.263-10.559,55.574,55.574,0,0,1,9.123-19.444,78.213,78.213,0,0,0,5.24-6.806,35.5,35.5,0,0,0,3.789-9.917c1.155-4.439,2.591-7.939,3.4-12.421.722-4.092,7.037-11.469,7.376-12.024s.505-2.678-.188-2.764a43.867,43.867,0,0,0-8.921,13.136c-1.263,3.2-3.111,12.14-4.042,15.424-2.2,7.578-7.9,12.183-11.548,19.314-4,7.795-5.723,12.472-6.553,21.032a33.056,33.056,0,0,0,.592,11.548c.844,3.212,3.313,6.315,4.677,9.433,2.107,4.756,4.078,8.95,4.006,14.543,2.209-3.27.722-7.492-.765-11.079Q215.177,324.4,212.773,318.692Z" transform="translate(-144.067 -99.613)" fill="#00bcd4"/>
            <path id="Trazado_158807" data-name="Trazado 158807" d="M221.673,248.906a80.582,80.582,0,0,0,7.261-6.864,17.92,17.92,0,0,0,3.515-4.511,36.442,36.442,0,0,1,3.609-5.889c.758-.96,1.84-1.638,2.526-2.663a2.418,2.418,0,0,0-.2-3.3,33.106,33.106,0,0,0-6.178,8.228c-1.075,2.006-3.132,4.432-4.424,6.315-2.779,4.063-7.217,6.6-11.165,9.585s-7.672,7.051-7.824,11.974a18.21,18.21,0,0,1,5.052-6.705A83.727,83.727,0,0,1,221.673,248.906Z" transform="translate(-144.047 -96.552)" fill="#00bcd4"/>
            <path id="Trazado_158808" data-name="Trazado 158808" d="M244.573,225.6a44.25,44.25,0,0,0-13.287,11.548,8.445,8.445,0,0,0-2.165,4.966s3.089-3.226,4.778-5.052c1.263-1.443,7.578-5.882,8.7-7.073A6.5,6.5,0,0,0,244.573,225.6Z" transform="translate(-149.703 -96.53)" fill="#00bcd4"/>
            <path id="Trazado_158809" data-name="Trazado 158809" d="M238.64,246.33c-4.02,2.23-10.018,7.088-13.627,9.65-3.378,2.411-4.893,5.341-6.019,9.946a11.779,11.779,0,0,1-4.244,7.138,7.47,7.47,0,0,0,4.157-3.017,35.46,35.46,0,0,0,1.581-4.143,15.157,15.157,0,0,1,4.193-7.376c1.718-1.667,12.493-8.841,13.973-9.866h0Z" transform="translate(-145.705 -102.298)" fill="#00bcd4"/>
            <path id="Trazado_158810" data-name="Trazado 158810" d="M232.953,263.1a29.531,29.531,0,0,0,4.893-3.731c3.183-2.937,4.518-4.417,4.518-4.417a4.33,4.33,0,0,1,.945-2.165c-3.609,2.526-8.7,7.261-12.27,9.8a15.367,15.367,0,0,0-3.508,3.118,7.441,7.441,0,0,0-1.393,4.273C227.208,265.63,231.5,263.869,232.953,263.1Z" transform="translate(-148.874 -104.096)" fill="#00bcd4"/>
            <path id="Trazado_158811" data-name="Trazado 158811" d="M168.191,260.01a8.6,8.6,0,0,1,.332-2.23c-2.642,2.165-5.42,4.576-7.586,6.128a14.745,14.745,0,0,0-3.508,3.118,7.448,7.448,0,0,0-1.4,4.273c1.083-4.33,5.377-6.156,6.835-6.871a29.594,29.594,0,0,0,4.9-3.731l.476-.455a.636.636,0,0,1-.051-.231Z" transform="translate(-129.366 -105.484)" fill="#00bcd4"/>
            <path id="Trazado_158812" data-name="Trazado 158812" d="M236.419,280.294a9.838,9.838,0,0,0,2.605-1.617,2.266,2.266,0,0,0,.44-2.808,19.429,19.429,0,0,0-9.274,6.5,44.554,44.554,0,0,0-5.824,9.852c-5.146,11.079-8.841,23.2-7.795,35.366.4,4.915,1.53,9.83,1.075,14.745,3.067-10.1-.274-21.126,2.165-31.36a56.448,56.448,0,0,1,3.2-8.841c1.1-2.6,2.216-5.218,3.313-7.831C228.61,288.883,231.266,283.073,236.419,280.294Z" transform="translate(-146.162 -110.518)" fill="#00bcd4"/>
            <path id="Trazado_158813" data-name="Trazado 158813" d="M241.257,331.408a38.25,38.25,0,0,1,1.263-8.849,39.406,39.406,0,0,1,4.417-10.61,6.727,6.727,0,0,1,0,5.052c-.57,1.646-1.444,3.161-2.006,4.807a39.817,39.817,0,0,0-1.66,7.03,34.218,34.218,0,0,0,.8,14.11A17.149,17.149,0,0,1,241.257,331.408Z" transform="translate(-153.049 -120.557)" fill="#00bcd4"/>
            <path id="Trazado_158814" data-name="Trazado 158814" d="M237.265,338a38.376,38.376,0,0,1,1.119-14.8c1.263-5.247,3.609-10.689,8.293-13.482,0,0-2.05,3.789-3.789,6.691-4.612,7.766-6,20.209-2.533,28.538A11.2,11.2,0,0,1,237.265,338Z" transform="translate(-151.894 -119.934)" fill="#00bcd4"/>
            <path id="Trazado_158815" data-name="Trazado 158815" d="M232.075,317.775a8.242,8.242,0,0,0,1.545,6.849,30.675,30.675,0,0,1-.44-6.8,15.821,15.821,0,0,1,2.461-6.243c2.591-4.626,8.661-9.837,8.466-10.256s-.888-.592-1.14-.217l-3.233,3.226a41.354,41.354,0,0,0-3.789,4.157A20.274,20.274,0,0,0,232.075,317.775Z" transform="translate(-150.471 -117.483)" fill="#00bcd4"/>
            <path id="Trazado_158816" data-name="Trazado 158816" d="M228.61,309.62c-3.334,5.521-5.2,12.45-2.887,18.469,0,0,0-5.557.383-8.358.527-4.1,2.981-7.708,5.326-11.274,4.143-6.315,12.991-14.312,11.764-15.388l-2.165,1.263S231.959,304.105,228.61,309.62Z" transform="translate(-148.472 -115.304)" fill="#00bcd4"/>
            <path id="Trazado_158817" data-name="Trazado 158817" d="M243.588,285.971c0,.83.072-1.7.1-2.533-.31-.289-.808-.058-1.155.173a24.135,24.135,0,0,0-9.924,18.318s2.093-6.5,2.649-7.578C238.153,288.858,243.609,285.524,243.588,285.971Z" transform="translate(-150.674 -112.586)" fill="#00bcd4"/>
            <path id="Trazado_158818" data-name="Trazado 158818" d="M236.917,222.7a73.832,73.832,0,0,0-6.431,4.193,8.524,8.524,0,0,0-3.407,6.582,38.759,38.759,0,0,1,7.766-7.867c2.014-1.371,4.287-2.375,6.164-3.919a7.448,7.448,0,0,0,3.161-6.25,26.12,26.12,0,0,1-7.217,7.261Z" transform="translate(-149.136 -93.703)" fill="#00bcd4"/>
            <path id="Trazado_158819" data-name="Trazado 158819" d="M237.193,214.927a42.116,42.116,0,0,0,3.666-2.606,6.409,6.409,0,0,0,1.732-1.739,3.652,3.652,0,0,0,.375-2.432,20.158,20.158,0,0,1-8.322,6.546,41.052,41.052,0,0,0-9.224,5.406,10.357,10.357,0,0,0-3.789,9.505,17.813,17.813,0,0,1,6.416-8.661A94.593,94.593,0,0,1,237.193,214.927Z" transform="translate(-147.593 -91.675)" fill="#00bcd4"/>
            <path id="Trazado_158820" data-name="Trazado 158820" d="M213.389,223.3c2.887-5.052,7.939-8.545,12.8-11.793l10.494-6.979c1.6-1.061,3.349-2.425,3.378-4.33-8.011,4.41-16.124,8.841-22.591,15.388C215.345,217.717,213.324,220.315,213.389,223.3Z" transform="translate(-145.326 -89.462)" fill="#00bcd4"/>
            <path id="Trazado_158821" data-name="Trazado 158821" d="M230.467,196.073c-4.237,2.266-8.849,3.789-12.811,6.5s-7.391,6.82-7.506,11.613c5.218-9.123,15.012-14.543,24.612-18.816a12.789,12.789,0,0,0,3.724-2.165,4.179,4.179,0,0,0,1.443-3.89,44.408,44.408,0,0,1-9.433,6.784Z" transform="translate(-144.425 -86.432)" fill="#00bcd4"/>
            <path id="Trazado_158822" data-name="Trazado 158822" d="M233.513,187.407a33.814,33.814,0,0,0,3.3-2.526c1.263-1.111,2.743-2.887,1.768-4.33-4.561,4.828-10.927,7.42-16.831,10.451s-11.873,7.03-14.348,13.208a72.76,72.76,0,0,1,20.375-13.894,42.374,42.374,0,0,0,5.774-2.887Z" transform="translate(-143.66 -83.995)" fill="#00bcd4"/>
            <path id="Trazado_158823" data-name="Trazado 158823" d="M206.69,196.665c7.982-8,19.3-11.49,29.252-16.86a5.774,5.774,0,0,0,1.6-1.111,3.226,3.226,0,0,0,.657-3.284c-8.192,6.618-19.133,9.029-27.47,15.489A9.137,9.137,0,0,0,206.69,196.665Z" transform="translate(-143.462 -82.565)" fill="#00bcd4"/>
            <path id="Trazado_158824" data-name="Trazado 158824" d="M238.648,169.186l-1.01-.346c-8.235,7.037-19.646,8.841-29.029,14.377-1.7.982-3.5,2.4-3.609,4.367,9.043-6.315,20.072-8.979,29.678-14.363A7.1,7.1,0,0,0,238.648,169.186Z" transform="translate(-142.992 -80.736)" fill="#00bcd4"/>
            <path id="Trazado_158825" data-name="Trazado 158825" d="M232.248,167.2c2.526-.837,5.456-1.913,6.315-4.439-8.964,5.4-19.79,6.885-29.05,11.815a6.885,6.885,0,0,0-3.883,3.9A160.436,160.436,0,0,1,232.248,167.2Z" transform="translate(-143.167 -79.045)" fill="#00bcd4"/>
            <path id="Trazado_158826" data-name="Trazado 158826" d="M235.59,158.83c.953-.426,1.891-.844,2.793-1.335a3.14,3.14,0,0,0,1.1-.837,1.761,1.761,0,0,0,.209-1.667c-4.67,2.606-9.967,3.789-15.005,5.622s-10.1,4.432-12.991,8.928Z" transform="translate(-144.856 -76.883)" fill="#00bcd4"/>
            <path id="Trazado_158827" data-name="Trazado 158827" d="M229.112,143.69a31.945,31.945,0,0,1-7.939,5.29c-7.578,3.609-16.283,4.107-24.669,5.153s-17.156,2.887-23.413,8.358a98.7,98.7,0,0,1,13.8-4.561c10.169-2.259,20.931-1.256,31.035-3.609a19.141,19.141,0,0,0,7.788-3.385,8.38,8.38,0,0,0,3.392-7.217Z" transform="translate(-134.113 -73.738)" fill="#00bcd4"/>
            <path id="Trazado_158828" data-name="Trazado 158828" d="M237.753,110.131a3.717,3.717,0,0,1,1.047-3.371,17.582,17.582,0,0,1,4.33-4.33,11.866,11.866,0,0,0,2.526-1.6,2.165,2.165,0,0,0,.419-2.678,22.879,22.879,0,0,0-8.748,5.861c-2.23,2.772-3.031,6.987-.96,9.852a8.235,8.235,0,0,0,4.4,2.887,20.93,20.93,0,0,0,5.312.722,4.987,4.987,0,0,0-3.681-2.526,6.214,6.214,0,0,1-3.962-2.165A5.723,5.723,0,0,1,237.753,110.131Z" transform="translate(-151.386 -61.067)" fill="#00bcd4"/>
            <path id="Trazado_158829" data-name="Trazado 158829" d="M246.032,113.138c.931-.368,1.444-1.443,1.942-2.288a2.411,2.411,0,0,0-.072-2.8c-4.634,2.75-6.77,8.4-7.217,13.778s.505,10.761.4,16.16c-.13,7.051-.433,26.64-.079,29.433.549,4.33.3,8.661.722,12.991a20.765,20.765,0,0,0,4.46,12,4.374,4.374,0,0,0,.722-5.572,15.779,15.779,0,0,1-.967-1.342c-.419-.722-.455-1.956-.938-1.263-2.425,3.522-2.605-34.11-2.107-40.158C243.361,138.883,239.854,115.563,246.032,113.138Z" transform="translate(-152.888 -63.821)" fill="#00bcd4"/>
            <path id="Trazado_158830" data-name="Trazado 158830" d="M195,141c6.885,1.083,12.775-1.184,19.069-3.334s20.036-9.931,20.44-10.826c.642-1.443-1.191.173-.217-1.184-6.5,3.342-10.408,5.673-16.752,8.4C210.958,136.934,203.17,140.788,195,141Z" transform="translate(-140.209 -68.721)" fill="#00bcd4"/>
            <path id="Trazado_158831" data-name="Trazado 158831" d="M231.992,131.39a173.221,173.221,0,0,1-22.468,10.5,72.8,72.8,0,0,1-26.084,4.634c4.865,2.375,11.6,1.443,17.221.058a168.169,168.169,0,0,0,22.511-7.448C227.467,137.366,232.252,134.84,231.992,131.39Z" transform="translate(-136.993 -70.316)" fill="#00bcd4"/>
            <path id="Trazado_158832" data-name="Trazado 158832" d="M235.337,142.983c.938-1.8,2.75-4.381,3.948-6.38a9.145,9.145,0,0,1-.556-2.093,49.938,49.938,0,0,0-9.578,24.756,118.2,118.2,0,0,0,.722,28.112,24.922,24.922,0,0,1-.238,10.682c-.909,2.75-3.046,8.127-2.165,10.87,0-2.887,2.4-7.838,3.724-10.386,2.526-4.85-.1-15.951-.419-21.472-.491-8.957-.722-12.71.9-21.652a55.573,55.573,0,0,1,3.659-12.436Z" transform="translate(-149.186 -71.184)" fill="#00bcd4"/>
            <path id="Trazado_158833" data-name="Trazado 158833" d="M190.567,151.809a36.81,36.81,0,0,0-5.824,3.789,25.125,25.125,0,0,0-5.052,6.315,53.59,53.59,0,0,0-6.387,16.773c-2.064,10.35-7.268,31.584-12.183,42.511,6.315-10.032,12.01-29.772,13.713-39.162s4.756-19.227,12.111-25.326c3.609-3.017,8.047-4.9,12.14-7.261,2.692-1.545,5.24-3.3,7.809-5.052l7.817-5.406c3.789-2.591,7.939-5.825,8.17-10.4a181.5,181.5,0,0,1-32.313,23.219Z" transform="translate(-130.782 -69.537)" fill="#00bcd4"/>
            <path id="Trazado_158834" data-name="Trazado 158834" d="M199.344,166.249c-.888-.722-1.443,0-1.5,1.169a37.358,37.358,0,0,1-5.052,13.136c-2.447,3.537-5.312,6.438-6.6,10.61a16.037,16.037,0,0,0,.895,12.631c-.686-8.906.57-10.588,1.176-12.631a11.865,11.865,0,0,1,1.443-2.887c2.165-3.45,4.648-6.662,6.611-10.242a21.775,21.775,0,0,0,3.031-11.786Z" transform="translate(-137.509 -79.935)" fill="#00bcd4"/>
            <path id="Trazado_158835" data-name="Trazado 158835" d="M161.994,256.831c1.992-5.442,4.215-11.822,5.9-17.365,4.4-14.507,5.341-27.542,5.052-43.233-.224-16.42,1.176-26.7,14.854-36.722,5.132-3.789,27.369-16.853,33.684-17.683a2.237,2.237,0,0,0-.96-2.678c-10.1,6.149-37.783,17.149-43.81,27.369-5.716,9.707-5.492,17.105-5.622,28.365-.094,7.008.065,10.776-.722,20.779-.469,6.1-1.263,10.27-2.216,16.3a74.67,74.67,0,0,1-3.573,12.768c-4.5,12.8-8.711,29.057-12.27,38.974-2.735,7.578-2.115,12.746-4.958,24.806,4.237-11.014,2.266-17.077,5.774-24.186C154.986,280.641,160.147,261.876,161.994,256.831Z" transform="translate(-126.951 -72.475)" fill="#00bcd4"/>
            <path id="Trazado_158836" data-name="Trazado 158836" d="M137.541,327c-.173.065-.332.144-.5.188a25.536,25.536,0,0,0-6.2,3.436,40.266,40.266,0,0,1-5.723,4.468c2.36.195,4.966-2.937,7.311-4.554a74.764,74.764,0,0,1,8.278-4.273,18.9,18.9,0,0,0,5.543-4.229c.852-1.061.722-2.273,1.155-3.111A19.177,19.177,0,0,1,137.541,327Z" transform="translate(-120.765 -122.497)" fill="#00bcd4"/>
            <path id="Trazado_158837" data-name="Trazado 158837" d="M140.582,333.614c-.96,1.263-3.031,3.861-3.854,5.233-2.461,4.078-3.212,7.816-4.208,13.641,1.357-4.865,2.75-9.845,5.651-13.894,1.884-2.692,3.71-5.4,5.536-8.149,1.523-2.338,4.4-6.142,4.807-8.935a72.983,72.983,0,0,1-7.939,12.1Z" transform="translate(-122.824 -123.217)" fill="#00bcd4"/>
            <path id="Trazado_158838" data-name="Trazado 158838" d="M141.687,348.856c-.339,3.551-.722,7.109-.967,10.66,1.8-4.7,1.263-13.316,3.046-18.008a39.866,39.866,0,0,1,1.768-3.609,23.009,23.009,0,0,0,2.836-8.17c-1.978,6.438-3.941,7.939-4.951,10.913a29.534,29.534,0,0,0-1.581,6.784Z" transform="translate(-125.106 -125.505)" fill="#00bcd4"/>
            <path id="Trazado_158839" data-name="Trazado 158839" d="M149.909,331.044a16.752,16.752,0,0,1-1.92,10.465c-.909,2.1-.909,7.073-.455,11.8a74.548,74.548,0,0,1,.455-9.5c.274-2.252,1.941-4.879,2.375-7.1a11.007,11.007,0,0,0-.281-5.94Z" transform="translate(-126.919 -125.794)" fill="#00bcd4"/>
            <path id="Trazado_158840" data-name="Trazado 158840" d="M157.111,328.034c-.1,2.627.188,4.092-.217,12.01-.217,3.977-.808,8.661-.895,12.493a115.123,115.123,0,0,0,1.7-24.648A4.164,4.164,0,0,1,157.111,328.034Z" transform="translate(-129.357 -124.993)" fill="#00bcd4"/>
            <path id="Trazado_158841" data-name="Trazado 158841" d="M234.3,272.66c-8.661,3.5-17.322,7.362-24.59,13.28S196.718,300.1,195.57,309.382a51.922,51.922,0,0,1,28.458-28.307,35.6,35.6,0,0,0,6.315-2.887A8.192,8.192,0,0,0,234.3,272.66Z" transform="translate(-140.368 -109.625)" fill="#00bcd4"/>
            <path id="Trazado_158846" data-name="Trazado 158846" d="M202.228,458.141a6.437,6.437,0,0,0,.628-1.263,6.144,6.144,0,0,0,.217-1.848,29.765,29.765,0,0,0-6.193,18.044,43.543,43.543,0,0,1,5.348-14.933Z" transform="translate(-140.732 -160.37)" fill="#00bcd4"/>
            <path id="Trazado_158852" data-name="Trazado 158852" d="M296.9,560.312a20.433,20.433,0,0,1-3.941-9.931,45.355,45.355,0,0,1-.606-17.279c.527-2.887,1.111-6.5,1.934-9.289,4.2-14.471,2.887-29.649,1.516-44.474-1.263-13.114-2.526-28.061-3.7-41.14,1.79,5.695,2.4,13.475,2.93,19.379l2.23,25.369c.931,10.444,1.855,20.967.426,31.418-1.263,9.383-4.46,18.657-4.6,28.148A43.015,43.015,0,0,0,296.9,560.312Z" transform="translate(-167.144 -155.687)" fill="#00bcd4"/>
            <path id="Trazado_158853" data-name="Trazado 158853" d="M288.483,464.9l1.819,4.468a20.671,20.671,0,0,1,2.093,8.849,21.372,21.372,0,0,1-5.146,11.23c-.426.512.585-1.718,0-1.617,2.591-5.146,3.2-5.666,3.573-7.939a23.4,23.4,0,0,0-.505-8.2Q289.464,468.256,288.483,464.9Z" transform="translate(-165.848 -163.116)" fill="#00bcd4"/>
            <path id="Trazado_158854" data-name="Trazado 158854" d="M287.79,508.36a84.31,84.31,0,0,1,2.779-10.631A130.583,130.583,0,0,0,294,481.85a17.914,17.914,0,0,1,.267,4.33,36.429,36.429,0,0,1-2.793,12.609c-3.06,8.2-4,13.237-3,17.769C287.141,514.437,287.473,510.828,287.79,508.36Z" transform="translate(-165.95 -167.832)" fill="#00bcd4"/>
            <path id="Trazado_158855" data-name="Trazado 158855" d="M282.826,499.925c1.263-15.07-.722-23.161-.419-31.288.44-11.375,1.97-15.518,3.407-27.217.281,10.1-1.941,17.842-2.23,27.708S285.388,490.383,282.826,499.925Z" transform="translate(-164.522 -156.583)" fill="#00bcd4"/>
            <path id="Trazado_158856" data-name="Trazado 158856" d="M290.6,553.3a49.288,49.288,0,0,0,3.378,9.931c-4.107-4.85-4.655-10.6-5.889-16.6a65.808,65.808,0,0,1-1.032-8.661q-.534-7.355-.881-14.774a483.96,483.96,0,0,1,.224-53.171c.354-5.651,1.371-16.427,3.9-21.342-3.537,16.9-3.067,40.071-2.887,57.206q.108,8.481.455,16.925.411,10.1,1.162,20.209A49.679,49.679,0,0,0,290.6,553.3Z" transform="translate(-165.407 -158.603)" fill="#00bcd4"/>
            <path id="Trazado_158857" data-name="Trazado 158857" d="M293.64,478.71c.974,3.609,4.785,8.921,6.1,12.407a16.694,16.694,0,0,1,.938,10.927c-.419-1.732-.332-3.544-.65-5.283a33.813,33.813,0,0,0-3.255-7.831C295.575,486.353,292.716,481.388,293.64,478.71Z" transform="translate(-167.606 -166.959)" fill="#00bcd4"/>
            <path id="Trazado_158860" data-name="Trazado 158860" d="M283.7,459.3c.722,3.89.945,7.939,2.461,11.548-2.526-3.046-3.039-7.174-3.861-11.021a64.957,64.957,0,0,0-5.723-16.088,21.059,21.059,0,0,1-2.642-6.712A51.634,51.634,0,0,1,283.7,459.3Z" transform="translate(-162.172 -155.361)" fill="#00bcd4"/>
            <path id="Trazado_158861" data-name="Trazado 158861" d="M291.682,448.149c-2.2-5.052-1.126-10.927-.455-16.42a82.408,82.408,0,0,0,.238-18.953c-.289-2.627-.722-5.471.621-7.766a132.307,132.307,0,0,1-.116,32.363,32.162,32.162,0,0,0-.289,10.776Z" transform="translate(-166.745 -146.451)" fill="#00bcd4"/>
            <path id="Trazado_158862" data-name="Trazado 158862" d="M266.026,421.278c.26,2.086.722,4.128,1.169,6.164a46.322,46.322,0,0,1-1.119-29.592C266.719,405.681,265.03,413.548,266.026,421.278Z" transform="translate(-159.457 -144.459)" fill="#00bcd4"/>
            <path id="Trazado_158863" data-name="Trazado 158863" d="M300.612,371.239a9.668,9.668,0,0,0,.332-2.028c0-1,.087-1.985.152-2.981a64.467,64.467,0,0,1-.505,26.791A142.5,142.5,0,0,0,300.612,371.239Z" transform="translate(-169.59 -135.661)" fill="#00bcd4"/>
            <path id="Trazado_158864" data-name="Trazado 158864" d="M253.93,280.986c-1.263-.657-2.656-1.6-2.533-2.966a44.633,44.633,0,0,1,26.459,30.054c2.021,7.939,1.768,16.3,1.5,24.539q-1.025,32.111-2.071,64.235a38.754,38.754,0,0,1-.859,8.264q-1.444-27.96-.585-55.979c.13-4.179.289-8.372.772-12.53s1.263-8.4,1.5-12.631a47.123,47.123,0,0,0-24.186-42.987Z" transform="translate(-155.9 -111.116)" fill="#00bcd4"/>
            <path id="Trazado_158865" data-name="Trazado 158865" d="M261.75,299.774a57.339,57.339,0,0,0-5.846-6.07c-1.747-1.263-5.687-3.609-5.723-5.774,6.178,2.526,13.54,10.7,16.752,16.535A64.718,64.718,0,0,1,273.045,320c4.547,18.231.823,37.444-3.991,55.575a63.84,63.84,0,0,0-2.764,14.579c-2.115-9.383,1.371-18.946,3.537-28.386,1.263-5.608,2.108-11.368,2.887-17.026a73.247,73.247,0,0,0,.722-8.971c.065-10.9-4.46-21.234-8.906-31.2a17.8,17.8,0,0,0-2.779-4.8Z" transform="translate(-155.563 -113.874)" fill="#00bcd4"/>
            <path id="Trazado_158866" data-name="Trazado 158866" d="M251.3,305.193c-.383-.411-.606-1.263,0-1.263A36.628,36.628,0,0,1,265.333,326.3a72.563,72.563,0,0,1,.931,8.841l2.707,42.583a93.215,93.215,0,0,1,.289,9.729c-.289,7.023-2.165,14.009-1.263,20.981-3.522-8.964,0-19.047-.419-28.682-.2-4.244-1.2-8.43-1.711-12.638-.332-2.815-.455-5.644-.585-8.473q-.65-15.265-1.263-30.544a31.585,31.585,0,0,0-1.032-7.939C260.981,314.085,255.712,309.755,251.3,305.193Z" transform="translate(-155.769 -118.326)" fill="#00bcd4"/>
            <path id="Trazado_158867" data-name="Trazado 158867" d="M250.91,309c4.655,3.609,7.217,9.289,8.849,14.955,5.052,17.827,2.389,36.867,3.991,55.344a118.207,118.207,0,0,0,9.6,37.372,80.254,80.254,0,0,0-4.9-11.548c-5.211-11.548-5.774-24.6-6.705-37.264s.231-18.267-1.126-30.891c-.881-8.134-2.245-15.878-4.771-19.487C254.035,314.666,251.025,312.392,250.91,309Z" transform="translate(-155.767 -119.736)" fill="#00bcd4"/>
            <path id="Trazado_158868" data-name="Trazado 158868" d="M276.18,470.26c.087-2.613.57-5.2.671-7.816.166-4.071-1.075-8.076-1.371-12.133a21.233,21.233,0,0,1,1.1-6.943c.245-.455.65,1.075.65,1.075-1.8,6.4,1.061,13.338.664,18.311-.577,7.268-1.667,16.088,2.23,23.666a27.578,27.578,0,0,1-3.941-16.16Z" transform="translate(-162.603 -157.101)" fill="#00bcd4"/>
            <path id="Trazado_158869" data-name="Trazado 158869" d="M282.619,478.562c0-10.66-1.985-21.472-1.061-31.973a8.249,8.249,0,0,1-1.53-2.649,6.492,6.492,0,0,0-.1.837c-.722,12.818,2.338,25.6,1.833,38.44-.231,5.68-1.155,11.367-1.263,16.983a30.061,30.061,0,0,0,3.782,16.42C279.588,504.7,282.569,491.344,282.619,478.562Z" transform="translate(-163.81 -157.284)" fill="#00bcd4"/>
            <path id="Trazado_158870" data-name="Trazado 158870" d="M283.292,317.244a86.466,86.466,0,0,0-5.052-16.008c-2.887-6.092-6.986-16.095-13.59-22.742-3.132-3.183-9.542-9.3-15.157-12.313a9.222,9.222,0,0,0-.072-2.23c11.923,4.8,21.652,17.582,27.26,29.144a99.925,99.925,0,0,1,10.465,41.255c.368,20.772-6.691,40.562-17.546,59.551a28.351,28.351,0,0,0-3.515,13.641c-1.956-4.417-.621-9.65,1.7-13.894s11.281-21.826,12.335-26.827c.808-3.789,5.666-21.342,5.146-34.933a80.736,80.736,0,0,0-1.978-14.644Z" transform="translate(-155.352 -107.201)" fill="#00bcd4"/>
            <path id="Trazado_158871" data-name="Trazado 158871" d="M274.857,318.692a31.758,31.758,0,0,0,2.584-8.076,26.6,26.6,0,0,0-1.256-10.559,55.451,55.451,0,0,0-9.123-19.444,79.758,79.758,0,0,1-5.247-6.806,35.942,35.942,0,0,1-3.789-9.917c-1.133-4.439-2.526-7.939-3.392-12.421-.722-4.092-7.023-11.469-7.369-12.024s-.512-2.678.173-2.764a44.026,44.026,0,0,1,8.935,13.136c1.263,3.2,3.082,12.14,4.042,15.424,2.165,7.578,7.889,12.183,11.548,19.314,4.02,7.795,5.738,12.472,6.561,21.032a32.543,32.543,0,0,1-.6,11.548c-.844,3.212-3.306,6.315-4.67,9.433-2.1,4.756-4.071,8.95-3.991,14.543-2.216-3.27-.758-7.492.758-11.079Z" transform="translate(-154.668 -99.613)" fill="#00bcd4"/>
            <path id="Trazado_158872" data-name="Trazado 158872" d="M266.534,248.906a81.634,81.634,0,0,1-7.268-6.864,17.387,17.387,0,0,1-3.522-4.511,36.437,36.437,0,0,0-3.609-5.889c-.758-.96-1.833-1.638-2.526-2.663a2.44,2.44,0,0,1,.2-3.3,32.775,32.775,0,0,1,6.171,8.228c1.075,2.006,3.147,4.432,4.439,6.315,2.779,4.063,7.217,6.6,11.165,9.585s7.658,7.051,7.809,11.974a18.866,18.866,0,0,0-5.052-6.683A86.974,86.974,0,0,0,266.534,248.906Z" transform="translate(-155.252 -96.552)" fill="#00bcd4"/>
            <path id="Trazado_158873" data-name="Trazado 158873" d="M249.36,225.6a44.15,44.15,0,0,1,13.287,11.548,8.271,8.271,0,0,1,2.165,4.966s-3.089-3.226-4.764-5.052c-1.256-1.443-7.578-5.882-8.711-7.073a6.625,6.625,0,0,1-1.97-4.381Z" transform="translate(-155.335 -96.53)" fill="#00bcd4"/>
            <path id="Trazado_158874" data-name="Trazado 158874" d="M252.05,246.33c4.02,2.23,10.018,7.088,13.619,9.65,3.385,2.411,4.9,5.341,6.027,9.946a11.721,11.721,0,0,0,4.244,7.138,7.607,7.607,0,0,1-4.164-3.017,35.858,35.858,0,0,1-1.516-4.193,14.9,14.9,0,0,0-4.2-7.376c-1.7-1.667-12.479-8.841-13.966-9.866h0Z" transform="translate(-156.084 -102.298)" fill="#00bcd4"/>
            <path id="Trazado_158875" data-name="Trazado 158875" d="M260.313,263.1a29.972,29.972,0,0,1-4.886-3.731c-3.183-2.938-4.525-4.417-4.525-4.417a4.172,4.172,0,0,0-.931-2.165c3.573,2.526,8.7,7.261,12.27,9.8a15.25,15.25,0,0,1,3.515,3.118,7.448,7.448,0,0,1,1.4,4.273C266.065,265.63,261.778,263.869,260.313,263.1Z" transform="translate(-155.505 -104.096)" fill="#00bcd4"/>
            <path id="Trazado_158876" data-name="Trazado 158876" d="M337.871,267.2a15.368,15.368,0,0,0-3.508-3.118c-2.057-1.444-4.612-3.609-7.088-5.687a8.427,8.427,0,0,1,0,1.35,4.8,4.8,0,0,1-.116.787l.368.339a28.939,28.939,0,0,0,4.857,3.739c1.443.722,5.774,2.526,6.828,6.871A7.3,7.3,0,0,0,337.871,267.2Z" transform="translate(-176.983 -105.654)" fill="#00bcd4"/>
            <path id="Trazado_158877" data-name="Trazado 158877" d="M254.469,280.294a9.873,9.873,0,0,1-2.613-1.617,2.259,2.259,0,0,1-.426-2.808,19.422,19.422,0,0,1,9.26,6.5,44.278,44.278,0,0,1,5.824,9.852c5.146,11.079,8.841,23.2,7.809,35.366-.4,4.915-1.545,9.83-1.09,14.745-3.053-10.1.289-21.126-2.165-31.36a55.667,55.667,0,0,0-3.183-8.841c-1.111-2.6-2.209-5.218-3.327-7.831C262.279,288.883,259.695,283.073,254.469,280.294Z" transform="translate(-155.825 -110.518)" fill="#00bcd4"/>
            <path id="Trazado_158878" data-name="Trazado 158878" d="M256.231,331.422A41.623,41.623,0,0,0,250.522,312a6.792,6.792,0,0,0,0,5.052c.556,1.638,1.443,3.161,1.992,4.8a39.435,39.435,0,0,1,1.667,7.037,34.644,34.644,0,0,1-.8,14.11A17.242,17.242,0,0,0,256.231,331.422Z" transform="translate(-155.523 -120.571)" fill="#00bcd4"/>
            <path id="Trazado_158879" data-name="Trazado 158879" d="M258.917,338a38.108,38.108,0,0,0-1.111-14.8c-1.328-5.247-3.609-10.689-8.286-13.482,0,0,2.043,3.789,3.789,6.691,4.612,7.766,6,20.209,2.526,28.538A11.267,11.267,0,0,0,258.917,338Z" transform="translate(-155.38 -119.934)" fill="#00bcd4"/>
            <path id="Trazado_158880" data-name="Trazado 158880" d="M263.093,317.775a8.235,8.235,0,0,1-1.523,6.849,32.02,32.02,0,0,0,.426-6.8,15.922,15.922,0,0,0-2.454-6.243c-2.526-4.626-8.661-9.837-8.473-10.256s.888-.592,1.148-.217l3.226,3.226a39.761,39.761,0,0,1,3.789,4.157,20,20,0,0,1,3.861,9.282Z" transform="translate(-155.809 -117.483)" fill="#00bcd4"/>
            <path id="Trazado_158881" data-name="Trazado 158881" d="M264.09,309.62c3.334,5.521,5.211,12.45,2.887,18.469,0,0,0-5.557-.375-8.358-.549-4.1-2.981-7.708-5.334-11.274-4.143-6.315-12.991-14.312-11.772-15.388l2.165,1.263S260.755,304.105,264.09,309.62Z" transform="translate(-155.341 -115.304)" fill="#00bcd4"/>
            <path id="Trazado_158882" data-name="Trazado 158882" d="M252.031,285.971c0,.83-.065-1.7-.1-2.533.318-.289.808-.058,1.162.173a24.157,24.157,0,0,1,9.917,18.318s-2.093-6.5-2.656-7.578C257.473,288.858,252.017,285.524,252.031,285.971Z" transform="translate(-156.05 -112.586)" fill="#00bcd4"/>
            <path id="Trazado_158883" data-name="Trazado 158883" d="M256.379,222.7a72.531,72.531,0,0,1,6.416,4.193,8.51,8.51,0,0,1,3.414,6.582,38.794,38.794,0,0,0-7.8-7.867c-2.006-1.371-4.266-2.375-6.164-3.919a7.405,7.405,0,0,1-3.154-6.25A26.243,26.243,0,0,0,256.379,222.7Z" transform="translate(-155.259 -93.703)" fill="#00bcd4"/>
            <path id="Trazado_158884" data-name="Trazado 158884" d="M254.415,214.9a44.809,44.809,0,0,1-3.659-2.605,6.5,6.5,0,0,1-1.7-1.8,3.609,3.609,0,0,1-.375-2.425,20.274,20.274,0,0,0,8.322,6.546,41.225,41.225,0,0,1,9.238,5.413,10.321,10.321,0,0,1,3.789,9.5,17.676,17.676,0,0,0-6.409-8.661C260.737,218.607,257.489,216.875,254.415,214.9Z" transform="translate(-155.128 -91.652)" fill="#00bcd4"/>
            <path id="Trazado_158885" data-name="Trazado 158885" d="M276.233,223.3c-2.887-5.052-7.939-8.545-12.811-11.793l-10.509-6.979c-1.581-1.061-3.349-2.425-3.363-4.33,8.011,4.41,16.124,8.841,22.583,15.388C274.255,217.717,276.283,220.315,276.233,223.3Z" transform="translate(-155.388 -89.462)" fill="#00bcd4"/>
            <path id="Trazado_158886" data-name="Trazado 158886" d="M257.93,196.073c4.222,2.266,8.841,3.789,12.8,6.5s7.391,6.82,7.506,11.613c-5.218-9.123-15.012-14.543-24.6-18.816a12.8,12.8,0,0,1-3.789-2.165,4.186,4.186,0,0,1-1.4-3.89,43.8,43.8,0,0,0,9.484,6.784Z" transform="translate(-155.064 -86.432)" fill="#00bcd4"/>
            <path id="Trazado_158887" data-name="Trazado 158887" d="M254.245,187.407a33.054,33.054,0,0,1-3.306-2.526c-1.263-1.111-2.728-2.887-1.768-4.33,4.576,4.828,10.927,7.42,16.838,10.451s11.873,7.03,14.334,13.208a72.333,72.333,0,0,0-20.36-13.894,42.008,42.008,0,0,1-5.738-2.909Z" transform="translate(-155.196 -83.995)" fill="#00bcd4"/>
            <path id="Trazado_158888" data-name="Trazado 158888" d="M280.992,196.665c-7.983-8-19.3-11.49-29.274-16.86a6.127,6.127,0,0,1-1.6-1.111,3.219,3.219,0,0,1-.642-3.284c8.2,6.618,19.141,9.029,27.462,15.489A9.209,9.209,0,0,1,280.992,196.665Z" transform="translate(-155.311 -82.565)" fill="#00bcd4"/>
            <path id="Trazado_158889" data-name="Trazado 158889" d="M248.27,169.186l1.032-.346c8.235,7.037,19.653,8.841,29.058,14.377,1.7.982,3.493,2.4,3.609,4.367-9.029-6.315-20.065-8.979-29.657-14.363a7.217,7.217,0,0,1-4.042-4.035Z" transform="translate(-155.032 -80.736)" fill="#00bcd4"/>
            <path id="Trazado_158890" data-name="Trazado 158890" d="M254.955,167.2c-2.526-.837-5.471-1.913-6.315-4.439,8.95,5.4,19.79,6.885,29.05,11.815a6.849,6.849,0,0,1,3.883,3.9A160.7,160.7,0,0,0,254.955,167.2Z" transform="translate(-155.135 -79.045)" fill="#00bcd4"/>
            <path id="Trazado_158891" data-name="Trazado 158891" d="M253.454,158.83c-.931-.426-1.884-.844-2.779-1.335a2.973,2.973,0,0,1-1.1-.837,1.71,1.71,0,0,1-.217-1.667c4.677,2.606,9.967,3.789,15,5.622s10.1,4.432,12.991,8.928Z" transform="translate(-155.301 -76.883)" fill="#00bcd4"/>
            <path id="Trazado_158892" data-name="Trazado 158892" d="M249.157,143.69a32.1,32.1,0,0,0,7.939,5.29c7.578,3.609,16.283,4.107,24.669,5.153s17.17,2.887,23.421,8.358a98.481,98.481,0,0,0-13.807-4.561c-10.169-2.259-20.895-1.256-31.035-3.609a19.076,19.076,0,0,1-7.809-3.371,8.379,8.379,0,0,1-3.4-7.217Z" transform="translate(-155.269 -73.738)" fill="#00bcd4"/>
            <path id="Trazado_158893" data-name="Trazado 158893" d="M257.875,110.131a3.789,3.789,0,0,0-1.061-3.371,17.524,17.524,0,0,0-4.33-4.33,11.251,11.251,0,0,1-2.526-1.6,2.165,2.165,0,0,1-.419-2.678,22.713,22.713,0,0,1,8.748,5.861c2.209,2.772,3.046,6.987.96,9.852a8.25,8.25,0,0,1-4.4,2.887,21.559,21.559,0,0,1-5.3.722c.505-1.443,2.165-2.107,3.659-2.526a6.3,6.3,0,0,0,3.984-2.165A5.911,5.911,0,0,0,257.875,110.131Z" transform="translate(-155.305 -61.067)" fill="#00bcd4"/>
            <path id="Trazado_158894" data-name="Trazado 158894" d="M250.832,113.138c-.938-.368-1.443-1.443-1.934-2.288a2.4,2.4,0,0,1,.065-2.8c4.634,2.75,6.77,8.4,7.217,13.778s-.505,10.761-.4,16.16c.137,7.051.426,26.64.072,29.433-.527,4.33-.289,8.661-.722,12.991a20.808,20.808,0,0,1-4.475,11.988,4.388,4.388,0,0,1-.722-5.572,15.947,15.947,0,0,0,.982-1.342c.411-.722.455-1.956.924-1.263,2.44,3.529,2.62-34.1,2.115-40.158C253.517,138.883,257.018,115.563,250.832,113.138Z" transform="translate(-155.09 -63.821)" fill="#00bcd4"/>
            <path id="Trazado_158895" data-name="Trazado 158895" d="M289.559,141c-6.871,1.083-12.76-1.184-19.061-3.334s-20.036-9.931-20.44-10.826c-.642-1.443,1.263.173.217-1.184,6.5,3.342,10.408,5.673,16.745,8.4C273.63,136.934,281.439,140.788,289.559,141Z" transform="translate(-155.492 -68.721)" fill="#00bcd4"/>
            <path id="Trazado_158896" data-name="Trazado 158896" d="M249.244,131.39a173.519,173.519,0,0,0,22.526,10.5,72.752,72.752,0,0,0,26.069,4.634c-4.85,2.375-11.584,1.443-17.214.058a167.6,167.6,0,0,1-22.5-7.448C253.726,137.366,248.927,134.84,249.244,131.39Z" transform="translate(-155.299 -70.316)" fill="#00bcd4"/>
            <path id="Trazado_158897" data-name="Trazado 158897" d="M259.96,142.983c-.938-1.8-2.757-4.381-3.97-6.38a9.146,9.146,0,0,0,.556-2.093,49.843,49.843,0,0,1,9.556,24.756,116.707,116.707,0,0,1-.722,28.112,24.7,24.7,0,0,0,.245,10.682c.895,2.75,3.039,8.127,2.165,10.869,0-2.887-2.4-7.838-3.789-10.386-2.526-4.85.1-15.951.4-21.472.505-8.957.722-12.71-.895-21.652a57.74,57.74,0,0,0-3.551-12.436Z" transform="translate(-157.18 -71.184)" fill="#00bcd4"/>
            <path id="Trazado_158898" data-name="Trazado 158898" d="M285.52,151.809a36.015,36.015,0,0,1,5.774,3.782,24.863,24.863,0,0,1,5.052,6.315,54.131,54.131,0,0,1,6.4,16.781c2.071,10.35,7.275,31.584,12.19,42.511-6.38-10.032-12.024-29.772-13.713-39.162s-4.742-19.227-12.1-25.348c-3.609-3.017-8.033-4.9-12.125-7.261-2.692-1.545-5.254-3.3-7.809-5.052l-7.867-5.384c-3.789-2.591-7.939-5.825-8.177-10.4a180.993,180.993,0,0,0,32.37,23.219Z" transform="translate(-156.39 -69.537)" fill="#00bcd4"/>
            <path id="Trazado_158899" data-name="Trazado 158899" d="M295.117,166.249c.888-.722,1.443,0,1.523,1.169.166,3.32,3.19,10.458,5.052,13.136,2.447,3.537,5.3,6.445,6.6,10.61a15.915,15.915,0,0,1-.909,12.631c.722-8.906-.57-10.581-1.176-12.631a11.685,11.685,0,0,0-1.4-2.887c-2.165-3.45-4.662-6.654-6.618-10.242A21.992,21.992,0,0,1,295.117,166.249Z" transform="translate(-168.065 -79.935)" fill="#00bcd4"/>
            <path id="Trazado_158900" data-name="Trazado 158900" d="M309.245,256.831c-2-5.442-4.208-11.822-5.889-17.365-4.4-14.536-5.341-27.527-5.117-43.233.224-16.42-1.176-26.7-14.846-36.722-5.146-3.789-27.361-16.853-33.691-17.683a2.259,2.259,0,0,1,.96-2.678c10.1,6.149,37.8,17.149,43.81,27.369,5.709,9.707,5.492,17.105,5.637,28.365.072,7.008-.065,10.776.722,20.779.469,6.1,1.263,10.27,2.209,16.3a76.063,76.063,0,0,0,3.652,12.768c4.482,12.8,8.719,29.058,12.27,38.974,2.728,7.578,2.108,12.746,4.966,24.806-4.237-11.014-2.273-17.077-5.774-24.186C316.282,280.641,311.1,261.876,309.245,256.831Z" transform="translate(-155.395 -72.475)" fill="#00bcd4"/>
            <path id="Trazado_158901" data-name="Trazado 158901" d="M353.787,327a3.528,3.528,0,0,0,.484.188,25.535,25.535,0,0,1,6.2,3.435,39.976,39.976,0,0,0,5.774,4.468c-2.367.195-4.98-2.937-7.333-4.554a73.835,73.835,0,0,0-8.257-4.273,18.959,18.959,0,0,1-5.557-4.229c-.844-1.061-.722-2.273-1.148-3.111A19.191,19.191,0,0,0,353.787,327Z" transform="translate(-181.655 -122.497)" fill="#00bcd4"/>
            <path id="Trazado_158902" data-name="Trazado 158902" d="M353.133,333.614q2.024,2.52,3.789,5.233c2.461,4.078,3.212,7.816,4.208,13.641-1.342-4.865-2.743-9.845-5.637-13.894-1.884-2.692-3.724-5.4-5.529-8.149-1.545-2.338-4.424-6.142-4.814-8.935A72.507,72.507,0,0,0,353.133,333.614Z" transform="translate(-181.989 -123.217)" fill="#00bcd4"/>
            <path id="Trazado_158903" data-name="Trazado 158903" d="M355.249,348.856c.354,3.551.722,7.109.974,10.66-1.8-4.7-1.263-13.316-3.031-18.008a39.755,39.755,0,0,0-1.768-3.609,22.6,22.6,0,0,1-2.844-8.17c1.985,6.438,3.948,7.939,4.951,10.913a30.394,30.394,0,0,1,1.581,6.784C355.162,347.9,355.2,348.38,355.249,348.856Z" transform="translate(-182.944 -125.505)" fill="#00bcd4"/>
            <path id="Trazado_158904" data-name="Trazado 158904" d="M348.707,331.036a16.65,16.65,0,0,0,1.92,10.465c.895,2.1.895,7.073.455,11.8a77.3,77.3,0,0,0-.455-9.5c-.282-2.252-1.963-4.879-2.389-7.1a10.949,10.949,0,0,1,.267-5.962Z" transform="translate(-182.767 -125.786)" fill="#00bcd4"/>
            <path id="Trazado_158905" data-name="Trazado 158905" d="M342.088,328.034c.1,2.627-.195,4.092.224,12.01.2,3.977.808,8.661.888,12.493a114.655,114.655,0,0,1-1.7-24.648,3.934,3.934,0,0,0,.592.144Z" transform="translate(-180.948 -124.993)" fill="#00bcd4"/>
            <path id="Trazado_158906" data-name="Trazado 158906" d="M164.384,281.118a22.643,22.643,0,0,1-1.934,1.494,21.9,21.9,0,0,1-4.886,2.259c-1.718.722-3.349,1.66-3.414,2.822a6,6,0,0,1,2.23-1.581c1.032-.556,2.274-.974,3.4-1.443a33.662,33.662,0,0,0,3.183-1.617,6.5,6.5,0,0,0,1.545-1.061c0-.072.173-.173.267-.267V280.8Z" transform="translate(-128.843 -111.89)" fill="#00bcd4"/>
            <path id="Trazado_158907" data-name="Trazado 158907" d="M331.288,281.118a24.194,24.194,0,0,0,1.941,1.494,22.454,22.454,0,0,0,4.915,2.259c1.732.722,3.385,1.66,3.45,2.822a6.005,6.005,0,0,0-2.23-1.581c-1.032-.556-2.3-.974-3.428-1.443a34.815,34.815,0,0,1-3.2-1.617,6.206,6.206,0,0,1-1.559-1.061l-.26-.267V280.8a1.94,1.94,0,0,0,.368.318Z" transform="translate(-178.03 -111.89)" fill="#00bcd4"/>
            <path id="Trazado_158908" data-name="Trazado 158908" d="M250.71,272.66c8.661,3.5,17.322,7.362,24.583,13.28s12.991,14.161,14.132,23.442a51.923,51.923,0,0,0-28.4-28.307,35.43,35.43,0,0,1-6.322-2.887A8.242,8.242,0,0,1,250.71,272.66Z" transform="translate(-155.711 -109.625)" fill="#00bcd4"/>
            <path id="Trazado_158913" data-name="Trazado 158913" d="M295.273,458.141a7.1,7.1,0,0,1-.628-1.263,6.172,6.172,0,0,1-.216-1.848,29.714,29.714,0,0,1,6.2,18.044,43.557,43.557,0,0,0-5.355-14.933Z" transform="translate(-167.875 -160.37)" fill="#00bcd4"/>
            <path id="Trazado_158914" data-name="Trazado 158914" d="M165.084,226.57a56.722,56.722,0,0,1,.8,17.394q-.909,8.351-2.642,16.6C159.05,277.836,155.434,291,147.3,309.34a255.5,255.5,0,0,0,14.327-35.734,125.3,125.3,0,0,0,4.944-23.731C167.61,241.929,167.956,234.1,165.084,226.57Z" transform="translate(-126.937 -96.8)" fill="#00bcd4"/>
            <path id="Trazado_158915" data-name="Trazado 158915" d="M313.952,225.319c2.4,12.631,3.32,22.5,7.889,36.881,1.819,5.774,4.172,12.631,10.1,13.814a7.809,7.809,0,0,1-6.315-3.1c-.462,1.7,2.389,6.185,2.526,7.939a62.072,62.072,0,0,1-5.225-11.887,191.079,191.079,0,0,1-7.47-25.4c-1.263-5.7-1.739-11.548-3.2-17.185-1.184-4.626-2.057-8.25-3.32-12.847-2.707-9.9-1.01-19.8-2.057-30.017a64.235,64.235,0,0,0-12.219-30.176c-5.052-6.582-12.27-11.072-19.487-15.157a48.719,48.719,0,0,1-6.315-4.063c-2.829-2.526-13.085-11.021-11.75-12.219,6.784,8.026,32.847,22.49,40.194,31.7s10.992,21.162,11.548,32.984c.419,8.509-.65,17.156,1.083,25.492C310.834,216.615,313.093,220.779,313.952,225.319Z" transform="translate(-157.46 -67.675)" fill="#00bcd4"/>
            <path id="Trazado_158916" data-name="Trazado 158916" d="M327.07,226.57a56.5,56.5,0,0,0-.794,17.394,167,167,0,0,0,2.649,16.6c4.186,17.271,7.809,30.436,15.943,48.776a256.743,256.743,0,0,1-14.334-35.734,127.142,127.142,0,0,1-4.93-23.7C324.644,241.929,324.247,234.1,327.07,226.57Z" transform="translate(-176.352 -96.8)" fill="#00bcd4"/>
            <path id="Trazado_158917" data-name="Trazado 158917" d="M157.063,225.314c-2.382,12.631-3.32,22.5-7.889,36.881-1.819,5.774-4.157,12.631-10.1,13.814a7.8,7.8,0,0,0,6.315-3.1c.455,1.7-2.4,6.185-2.526,7.939a64.372,64.372,0,0,0,5.233-11.887,192.089,192.089,0,0,0,7.492-25.413c1.263-5.7,1.739-11.548,3.19-17.185,1.205-4.626,2.064-8.25,3.327-12.847,2.7-9.9,1.025-19.8,2.071-30.017a64.235,64.235,0,0,1,12.2-30.176c5.052-6.582,12.27-11.072,19.487-15.157a48.724,48.724,0,0,0,6.315-4.063c2.829-2.526,13.085-11.021,11.75-12.219-6.8,8.026-32.847,22.49-40.194,31.7s-11.007,21.162-11.548,32.984c-.419,8.509.635,17.156-1.1,25.492C160.167,216.609,157.908,220.774,157.063,225.314Z" transform="translate(-124.647 -67.67)" fill="#00bcd4"/>
            <g id="Grupo_74541" data-name="Grupo 74541" transform="translate(76.718 3.254)">
              <g id="Grupo_74539" data-name="Grupo 74539">
                <g id="Grupo_74535" data-name="Grupo 74535">
                  <path id="Trazado_158918" data-name="Trazado 158918" d="M256.141,59.017c-1.674-3.9-8.134-5.824-9.383-7.008a3.789,3.789,0,0,0-3.3-.577h-.722a3.782,3.782,0,0,0-3.3.577c-1.263,1.191-7.694,3.111-9.383,7.015s-5.413,8.286-4.547,11.036,2.844,10.465,3.089,11.548,6.734,3.789,8.661,2.642a10.971,10.971,0,0,1,5.146-.65v.13l.722-.072.722.072v-.173a10.97,10.97,0,0,1,5.146.65c1.905,1.1,8.4-1.566,8.661-2.642s2.208-8.841,3.089-11.548S257.845,62.892,256.141,59.017Z" transform="translate(-225.382 -51.278)" fill="#a13d39"/>
                  <g id="Grupo_74534" data-name="Grupo 74534" transform="translate(0.078 0.126)">
                    <path id="Trazado_158919" data-name="Trazado 158919" d="M227.316,69.646a25.081,25.081,0,0,0,8.661,4.756,5.536,5.536,0,0,0,4.612-.072A5.7,5.7,0,0,0,242.61,70.1a59.9,59.9,0,0,0-.859-16.3,3.19,3.19,0,0,0-.57-1.718,2.519,2.519,0,0,0-3.024-.238c-.96.527-1.718,1.393-2.656,1.956-1.768,1.061-4.114,1.111-5.557,2.526s-1.444,3.681-2.273,5.492-2.663,3.789-1.978,5.774A4.5,4.5,0,0,0,227.316,69.646Z" transform="translate(-225.504 -51.453)" fill="url(#radial-gradient)"/>
                    <path id="Trazado_158920" data-name="Trazado 158920" d="M226.125,81.648a19.977,19.977,0,0,0,0,2.079,4.128,4.128,0,0,0,2.122,2.887,7.816,7.816,0,0,0,3.529.909,10.66,10.66,0,0,0,5.3-.989,7.492,7.492,0,0,0,3.7-3.869.339.339,0,0,0,0-.238c-.079-.152-.281-.13-.433-.079a8.928,8.928,0,0,1-6-.339,18.188,18.188,0,0,1-2.822-1.617l-5.774-3.782C225.028,78.061,226.01,79.923,226.125,81.648Z" transform="translate(-225.49 -58.453)" fill="url(#radial-gradient-2)"/>
                    <path id="Trazado_158921" data-name="Trazado 158921" d="M242.19,87.059c.224-.469.39-1.075.895-1.263a.967.967,0,0,1,1.032.57,2.98,2.98,0,0,1,.166,1.263v2.714a6.712,6.712,0,0,1-1.292,4.7,6.113,6.113,0,0,1-4.749,1.443,11.331,11.331,0,0,1-5.471-1.263A5.29,5.29,0,0,1,230,90.545a7.6,7.6,0,0,1,2.678.238,12.226,12.226,0,0,0,6.149-1.234A5.774,5.774,0,0,0,242.19,87.059Z" transform="translate(-226.745 -61.006)" fill="url(#radial-gradient-3)"/>
                    <path id="Trazado_158922" data-name="Trazado 158922" d="M265.9,69.648a25.4,25.4,0,0,1-8.661,4.756,5.536,5.536,0,0,1-4.612-.072A5.673,5.673,0,0,1,250.6,70.1a59.9,59.9,0,0,1,.758-16.3,3.406,3.406,0,0,1,.57-1.718,2.533,2.533,0,0,1,3.031-.231c.974.534,1.718,1.393,2.663,1.963,1.761,1.061,4.107,1.111,5.557,2.526s1.443,3.674,2.281,5.485,2.663,3.789,1.978,5.774a4.684,4.684,0,0,1-1.545,2.006Z" transform="translate(-232.408 -51.455)" fill="url(#radial-gradient-4)"/>
                    <path id="Trazado_158923" data-name="Trazado 158923" d="M267.8,81.637c0,.722.065,1.4,0,2.079a4.179,4.179,0,0,1-2.122,2.887,7.845,7.845,0,0,1-3.537.909,10.826,10.826,0,0,1-5.3-.989,7.463,7.463,0,0,1-3.688-3.869.245.245,0,0,1,0-.245c.058-.144.274-.123.426-.072a8.907,8.907,0,0,0,6-.346,16.9,16.9,0,0,0,2.836-1.631l5.774-3.789C268.946,78.05,267.95,79.912,267.8,81.637Z" transform="translate(-233.177 -58.442)" fill="url(#radial-gradient-5)"/>
                    <path id="Trazado_158924" data-name="Trazado 158924" d="M252.178,87.058c-.231-.469-.4-1.075-.9-1.263a.945.945,0,0,0-1.025.57,2.887,2.887,0,0,0-.173,1.263v2.714a6.951,6.951,0,0,0,1.263,4.7,6.142,6.142,0,0,0,4.764,1.443,11.432,11.432,0,0,0,5.456-1.278,5.3,5.3,0,0,0,2.887-4.612,7.535,7.535,0,0,0-2.663.238,12.27,12.27,0,0,1-6.164-1.285A5.86,5.86,0,0,1,252.178,87.058Z" transform="translate(-232.323 -61.005)" fill="url(#radial-gradient-6)"/>
                  </g>
                </g>
                <g id="Grupo_74538" data-name="Grupo 74538" transform="translate(0.923 1.878)">
                  <g id="Grupo_74536" data-name="Grupo 74536">
                    <path id="Trazado_158925" data-name="Trazado 158925" d="M239.128,57.814h-.072a3.154,3.154,0,0,1-2.375-1.2.31.31,0,0,1,0-.4.245.245,0,0,1,.354,0h0a2.591,2.591,0,0,0,1.97,1.01,3.609,3.609,0,0,0,1.169-.2,4.266,4.266,0,0,0,.837-.346,3.32,3.32,0,0,0,1.617-2.526.281.281,0,0,1,.267-.267h0a.3.3,0,0,1,.238.318,3.955,3.955,0,0,1-1.884,3.024,4.915,4.915,0,0,1-2.165.592Z" transform="translate(-229.428 -53.88)" fill="#edb8a6"/>
                    <path id="Trazado_158926" data-name="Trazado 158926" d="M246.2,78.315h-.072a5.853,5.853,0,0,1-2.649-1.718,10.467,10.467,0,0,1-.722-.909,5.615,5.615,0,0,0-2.165-1.949,4.67,4.67,0,0,1-1.66-1.263,4.655,4.655,0,0,1-.166-4.229c.072-.231.152-.469.238-.722a7.384,7.384,0,0,0,.606-3.168,9.22,9.22,0,0,0-.188-.909,4.237,4.237,0,0,1-.144-2.014,4.9,4.9,0,0,1,.5-1.061c.3-.527.556-.974.39-1.443a.289.289,0,0,1,.152-.375.274.274,0,0,1,.354.166,2.266,2.266,0,0,1-.433,1.934,4.4,4.4,0,0,0-.44.909,3.471,3.471,0,0,0,.152,1.718,9.049,9.049,0,0,1,.188.982,7.94,7.94,0,0,1-.628,3.436,7.051,7.051,0,0,0-.245.722,4.128,4.128,0,0,0,.1,3.7,4.331,4.331,0,0,0,1.472,1.184,6.992,6.992,0,0,1,1.14.722,7.938,7.938,0,0,1,1.263,1.386,7.937,7.937,0,0,0,.722.859,5.319,5.319,0,0,0,2.375,1.566.281.281,0,0,1,.173.354A.253.253,0,0,1,246.2,78.315Z" transform="translate(-229.909 -55.176)" fill="#edb8a6"/>
                    <path id="Trazado_158927" data-name="Trazado 158927" d="M237.016,70.2a.224.224,0,0,1-.166,0h-.173l-.657-.152h-.152a2.634,2.634,0,0,1-1.263-.577,2.526,2.526,0,0,1-.195-3.5,3.765,3.765,0,0,1,.281-.354c.57-.722.945-1.263.556-1.869a1.913,1.913,0,0,0-.938-.549,2.411,2.411,0,0,1-1.328-.866.3.3,0,0,1,.065-.4.274.274,0,0,1,.368.065h0a1.956,1.956,0,0,0,1.061.642,2.4,2.4,0,0,1,1.205.722c.657.974-.094,1.934-.6,2.526l-.253.346a1.934,1.934,0,0,0,.1,2.7,1.977,1.977,0,0,0,1.054.469h.108l.671.152h.173c.152,0,.39,0,.411.289a.31.31,0,0,1-.26.332Z" transform="translate(-228.406 -56.108)" fill="#edb8a6"/>
                    <path id="Trazado_158928" data-name="Trazado 158928" d="M242.42,75.58a.245.245,0,0,1-.2-.1.289.289,0,0,1,0-.4l.281-.231a3.414,3.414,0,0,0,1.35-1.819,3.183,3.183,0,0,0-.354-1.667,6.1,6.1,0,0,1-.354-1.061,3.565,3.565,0,0,1,.808-3.147,4.968,4.968,0,0,1,.39-.39,2.086,2.086,0,0,0,.722-.96.931.931,0,0,0-.267-.909.8.8,0,0,0-.895-.137.26.26,0,0,1-.346-.144h0a.3.3,0,0,1,.137-.383,1.364,1.364,0,0,1,1.443.231,1.588,1.588,0,0,1,.44,1.5,2.591,2.591,0,0,1-.881,1.263l-.368.354a3.038,3.038,0,0,0-.664,2.627,7.5,7.5,0,0,0,.325.96,2.966,2.966,0,0,1-1.01,4.078l-.137.079-.267.231a.274.274,0,0,1-.152.029Z" transform="translate(-230.967 -56.728)" fill="#edb8a6"/>
                    <path id="Trazado_158929" data-name="Trazado 158929" d="M241.825,84.314a2.5,2.5,0,0,1-.563-.065,7.492,7.492,0,0,1-2.887-1.5c-.368-.253-.722-.505-1.1-.722a18.389,18.389,0,0,0-3.082-1.371,20.121,20.121,0,0,1-2.757-1.169,3.861,3.861,0,0,1-2.165-2.526,4.835,4.835,0,0,1,.116-2.006,5.182,5.182,0,0,1,.137-.722c.1-.787-.079-1.747-.722-1.985a.3.3,0,0,1-.173-.368.267.267,0,0,1,.332-.173h0a2.338,2.338,0,0,1,1.075,2.6,4.266,4.266,0,0,1-.144.794,4.432,4.432,0,0,0-.123,1.768,3.4,3.4,0,0,0,1.884,2.079,22.675,22.675,0,0,0,2.692,1.148,17.321,17.321,0,0,1,3.168,1.443,11.8,11.8,0,0,1,1.126.722,7.3,7.3,0,0,0,2.728,1.443,1.8,1.8,0,0,0,1.516-.3,1.083,1.083,0,0,0,.346-.722.722.722,0,0,0-.173-.556.31.31,0,0,1,0-.4.267.267,0,0,1,.375,0h0a1.313,1.313,0,0,1,.31.982,1.66,1.66,0,0,1-.541,1.148,1.985,1.985,0,0,1-1.371.556Z" transform="translate(-227.203 -58.837)" fill="#edb8a6"/>
                    <path id="Trazado_158930" data-name="Trazado 158930" d="M232.723,83.7a2.836,2.836,0,0,1-2.418-1.443l-.065-.087c-.051-.094-.108-.188-.166-.281-.231-.224-.621-.166-1.054-.1h-.245a3.14,3.14,0,0,1-1.978-.361.325.325,0,0,1-.108-.4.281.281,0,0,1,.368-.123,2.685,2.685,0,0,0,1.653.318h.238a1.631,1.631,0,0,1,1.494.26,1.853,1.853,0,0,1,.274.4v.1a2.252,2.252,0,0,0,2.526,1.047,4.589,4.589,0,0,0,.722-.318l.541-.253a2.086,2.086,0,0,1,1.371-.115,2.23,2.23,0,0,0-.375-2.526,3.275,3.275,0,0,0-.671-.505,4.18,4.18,0,0,1-.844-.664,2.533,2.533,0,0,1-.52-2.3.253.253,0,0,1,.3-.195h0a.281.281,0,0,1,.173.354,1.92,1.92,0,0,0,.4,1.739,4.231,4.231,0,0,0,.722.57,3.934,3.934,0,0,1,.722.57,2.822,2.822,0,0,1,.346,3.428l-.137.217-.217-.13a1.386,1.386,0,0,0-1.148,0l-.505.238a4.454,4.454,0,0,1-.837.346,2.6,2.6,0,0,1-.657.173Z" transform="translate(-226.661 -60.074)" fill="#edb8a6"/>
                    <path id="Trazado_158931" data-name="Trazado 158931" d="M235.465,90.957a2.786,2.786,0,0,1-.909-.173,4.634,4.634,0,0,1-2.245-1.855.3.3,0,0,1,.072-.4.245.245,0,0,1,.354.051h0a4.092,4.092,0,0,0,1.985,1.638,1.545,1.545,0,0,0,1.263,0,2.245,2.245,0,0,0,.455-.375,3,3,0,0,1,.512-.44,2.483,2.483,0,0,1,1.588-.253,2.671,2.671,0,0,0,1.263-.1.9.9,0,0,0,.447-.5.52.52,0,0,0,0-.39.281.281,0,0,1,.137-.375.253.253,0,0,1,.346.152h0a1.083,1.083,0,0,1,0,.823,1.443,1.443,0,0,1-.722.823,2.887,2.887,0,0,1-1.53.166,2.353,2.353,0,0,0-1.335.173,2.166,2.166,0,0,0-.4.368,2.981,2.981,0,0,1-.6.484,1.573,1.573,0,0,1-.678.188Z" transform="translate(-228.219 -63.307)" fill="#edb8a6"/>
                    <path id="Trazado_158932" data-name="Trazado 158932" d="M238.215,94.363a4.813,4.813,0,0,1-1.292-.209.282.282,0,0,1-.188-.346.3.3,0,0,1,.325-.217,3.356,3.356,0,0,0,1.646.152,1.263,1.263,0,0,0,1.047-.96.943.943,0,0,0,0-.2,2.124,2.124,0,0,1,.087-.426,1.27,1.27,0,0,1,.909-.787,3.147,3.147,0,0,1,.686-.1h.3a3.508,3.508,0,0,0,2.822-2.642.4.4,0,0,1,0-.419.274.274,0,0,1,.361-.108.419.419,0,0,1,.195.491,4.035,4.035,0,0,1-3.313,3.248h-.332a4.177,4.177,0,0,0-.592.087.722.722,0,0,0-.527.433.967.967,0,0,0,0,.289,1.314,1.314,0,0,1,0,.238,1.877,1.877,0,0,1-1.53,1.48A2.511,2.511,0,0,1,238.215,94.363Z" transform="translate(-229.461 -63.393)" fill="#edb8a6"/>
                    <path id="Trazado_158933" data-name="Trazado 158933" d="M245.72,96.936h-.13a.3.3,0,0,1-.231-.318.289.289,0,0,1,.3-.253h0a.4.4,0,0,0,.26,0c.281-.173.3-.664.267-.938a5.175,5.175,0,0,0-.44-1.8v-.108c-.065-.173-.137-.332-.188-.505a3.017,3.017,0,0,1,.895-2.533.26.26,0,0,1,.354,0h0a.318.318,0,0,1,0,.411,2.5,2.5,0,0,0-.8,1.97,2.166,2.166,0,0,0,.173.4v.13a5.774,5.774,0,0,1,.491,2,1.566,1.566,0,0,1-.512,1.443.946.946,0,0,1-.469.072Z" transform="translate(-231.863 -64.046)" fill="#edb8a6"/>
                  </g>
                  <g id="Grupo_74537" data-name="Grupo 74537" transform="translate(16.935)">
                    <path id="Trazado_158934" data-name="Trazado 158934" d="M258.234,57.814h.065a3.154,3.154,0,0,0,2.375-1.2.289.289,0,0,0,0-.4.245.245,0,0,0-.354,0h0a2.663,2.663,0,0,1-1.97,1.01,3.674,3.674,0,0,1-1.184-.2,4.453,4.453,0,0,1-.837-.346,3.306,3.306,0,0,1-1.6-2.526.3.3,0,0,0-.274-.267h0a.3.3,0,0,0-.253.318,3.912,3.912,0,0,0,1.905,3.024,4.179,4.179,0,0,0,.924.39A4.461,4.461,0,0,0,258.234,57.814Z" transform="translate(-251.258 -53.88)" fill="#edb8a6"/>
                    <path id="Trazado_158935" data-name="Trazado 158935" d="M250.547,78.32h0a6.012,6.012,0,0,0,2.613-1.7c.253-.289.491-.606.722-.909A7.456,7.456,0,0,1,255,74.444a6.762,6.762,0,0,1,1.054-.686,5.009,5.009,0,0,0,1.667-1.263,4.7,4.7,0,0,0,.166-4.229l-.238-.722a7.463,7.463,0,0,1-.621-3.168c.051-.3.115-.606.188-.909a3.869,3.869,0,0,0,.144-2.006,4.746,4.746,0,0,0-.5-1.061c-.289-.534-.556-.974-.39-1.443a.289.289,0,0,0-.137-.383.267.267,0,0,0-.346.152h0a2.245,2.245,0,0,0,.426,1.934,4.049,4.049,0,0,1,.433.909,3.716,3.716,0,0,1-.137,1.711,6.677,6.677,0,0,0-.2.989,7.564,7.564,0,0,0,.642,3.428l.231.722a4.128,4.128,0,0,1-.094,3.7,4.331,4.331,0,0,1-1.48,1.191,7.694,7.694,0,0,0-1.126.722,7.479,7.479,0,0,0-1.263,1.393,6.6,6.6,0,0,1-.722.859,5.485,5.485,0,0,1-2.389,1.566.3.3,0,0,0-.173.354.26.26,0,0,0,.346.144h.051Z" transform="translate(-250.125 -55.181)" fill="#edb8a6"/>
                    <path id="Trazado_158936" data-name="Trazado 158936" d="M261.149,70.2a.354.354,0,0,0,.173,0h.173l.657-.152h.13a2.454,2.454,0,0,0,1.443-4.078l-.281-.354c-.585-.722-.96-1.263-.57-1.869a2.049,2.049,0,0,1,.953-.549,2.519,2.519,0,0,0,1.321-.866.3.3,0,0,0-.072-.4A.282.282,0,0,0,264.7,62h0a1.934,1.934,0,0,1-1.061.642,2.31,2.31,0,0,0-1.184.722c-.671.974.087,1.934.577,2.526a2.461,2.461,0,0,1,.152,3.046,1.956,1.956,0,0,1-1.047.469h-.108l-.664.152h-.173c-.152,0-.39,0-.4.289s0,.253.267.332Z" transform="translate(-253.091 -56.108)" fill="#edb8a6"/>
                    <path id="Trazado_158937" data-name="Trazado 158937" d="M256.131,75.589a.238.238,0,0,0,.209-.1.289.289,0,0,0,0-.4l-.26-.231a2.382,2.382,0,0,1-1.176-3.161,2.322,2.322,0,0,1,.173-.325,7.937,7.937,0,0,0,.354-1.061,3.609,3.609,0,0,0-.808-3.147l-.39-.39a2.115,2.115,0,0,1-.722-.96.982.982,0,0,1,.267-.909.808.808,0,0,1,.9-.144.245.245,0,0,0,.339-.108h0a.289.289,0,0,0-.137-.383,1.328,1.328,0,0,0-1.443.231,1.53,1.53,0,0,0-.44,1.5,2.562,2.562,0,0,0,.866,1.263l.368.354a3,3,0,0,1,.671,2.627,5.053,5.053,0,0,1-.332.96,2.966,2.966,0,0,0,1.018,4.071l.144.087.267.224A.216.216,0,0,0,256.131,75.589Z" transform="translate(-250.909 -56.737)" fill="#edb8a6"/>
                    <path id="Trazado_158938" data-name="Trazado 158938" d="M252.253,84.313a2.389,2.389,0,0,0,.556-.065,7.65,7.65,0,0,0,2.923-1.508c.354-.253.722-.505,1.1-.722a17.358,17.358,0,0,1,3.089-1.371,21.256,21.256,0,0,0,2.743-1.162,3.883,3.883,0,0,0,2.165-2.526,5.052,5.052,0,0,0-.123-2.006,5.21,5.21,0,0,0-.144-.722c-.1-.787.094-1.747.722-1.985a.3.3,0,0,0,.173-.368.282.282,0,0,0-.354-.173,2.288,2.288,0,0,0-1.075,2.606,4.256,4.256,0,0,0,.137.794,4.568,4.568,0,0,1,.13,1.768,3.363,3.363,0,0,1-1.891,2.071,20.332,20.332,0,0,1-2.678,1.148,17.7,17.7,0,0,0-3.183,1.443c-.375.224-.758.491-1.126.722A7.3,7.3,0,0,1,252.7,83.7a1.8,1.8,0,0,1-1.516-.3,1.133,1.133,0,0,1-.354-.722.765.765,0,0,1,.173-.556.3.3,0,0,0,0-.411.267.267,0,0,0-.375,0h0a1.443,1.443,0,0,0-.31.989,1.66,1.66,0,0,0,.541,1.148,2.021,2.021,0,0,0,1.393.469Z" transform="translate(-250.178 -58.836)" fill="#edb8a6"/>
                    <path id="Trazado_158939" data-name="Trazado 158939" d="M263.337,83.691a2.887,2.887,0,0,0,2.425-1.443v-.1a1.681,1.681,0,0,1,.188-.274c.231-.231.621-.173,1.032-.1h.267A3.14,3.14,0,0,0,269.2,81.4a.3.3,0,0,0,.123-.39.274.274,0,0,0-.361-.13,2.714,2.714,0,0,1-1.66.318h-.253a1.314,1.314,0,0,0-1.754.657v.1a2.23,2.23,0,0,1-2.526,1.047,4.719,4.719,0,0,1-.722-.318l-.556-.245a2.042,2.042,0,0,0-1.371-.115,2.216,2.216,0,0,1,.383-2.526,3.226,3.226,0,0,1,.664-.505,4.106,4.106,0,0,0,.859-.671,2.512,2.512,0,0,0,.513-2.3.267.267,0,0,0-.318-.195h0a.3.3,0,0,0-.173.354,1.934,1.934,0,0,1-.39,1.747,4.028,4.028,0,0,1-.722.563,4.959,4.959,0,0,0-.758.57,2.822,2.822,0,0,0-.346,3.428l.137.217.217-.123a1.386,1.386,0,0,1,1.148,0l.52.238a4.229,4.229,0,0,0,.816.339A2.533,2.533,0,0,0,263.337,83.691Z" transform="translate(-252.709 -60.069)" fill="#edb8a6"/>
                    <path id="Trazado_158940" data-name="Trazado 158940" d="M261.142,90.945a2.786,2.786,0,0,0,.909-.173,4.735,4.735,0,0,0,2.252-1.855.31.31,0,0,0-.079-.4.267.267,0,0,0-.368.058h0a4.035,4.035,0,0,1-1.985,1.646,1.6,1.6,0,0,1-1.263,0,2.553,2.553,0,0,1-.455-.383,3.25,3.25,0,0,0-.505-.44,2.591,2.591,0,0,0-1.6-.253,2.743,2.743,0,0,1-1.256-.1.989.989,0,0,1-.447-.491.541.541,0,0,1,0-.4.3.3,0,0,0-.123-.375.253.253,0,0,0-.346.087v.051a1.155,1.155,0,0,0,0,.823,1.444,1.444,0,0,0,.722.823,2.887,2.887,0,0,0,1.53.173,2.273,2.273,0,0,1,1.328.166,2.885,2.885,0,0,1,.419.368,2.669,2.669,0,0,0,.577.484,1.631,1.631,0,0,0,.722.2Z" transform="translate(-251.705 -63.302)" fill="#edb8a6"/>
                    <path id="Trazado_158941" data-name="Trazado 158941" d="M258.429,94.363a5.1,5.1,0,0,0,1.321-.217.274.274,0,0,0,.209-.332h0a.289.289,0,0,0-.325-.217,3.479,3.479,0,0,1-1.653.152,1.342,1.342,0,0,1-1.068-.967v-.2a1.811,1.811,0,0,0-.072-.433,1.241,1.241,0,0,0-.909-.779,3.277,3.277,0,0,0-.722-.1h-.3a3.529,3.529,0,0,1-2.822-2.642.368.368,0,0,0,0-.419.274.274,0,0,0-.361-.108.4.4,0,0,0-.2.491,4.027,4.027,0,0,0,3.291,3.248h.332a4.177,4.177,0,0,1,.592.087.722.722,0,0,1,.541.426,2.033,2.033,0,0,1,0,.3,1.318,1.318,0,0,0,0,.238,1.9,1.9,0,0,0,1.559,1.48A3.608,3.608,0,0,0,258.429,94.363Z" transform="translate(-250.508 -63.393)" fill="#edb8a6"/>
                    <path id="Trazado_158942" data-name="Trazado 158942" d="M253.552,96.938h.13a.289.289,0,0,0-.079-.563.426.426,0,0,1-.267,0c-.267-.173-.274-.664-.267-.938a5.348,5.348,0,0,1,.447-1.8v-.108a2.672,2.672,0,0,0,.188-.505,2.945,2.945,0,0,0-.873-2.533.267.267,0,0,0-.361,0h0a.3.3,0,0,0,0,.411,2.44,2.44,0,0,1,.787,1.97,2.109,2.109,0,0,1-.152.4v.13a5.463,5.463,0,0,0-.491,2,1.508,1.508,0,0,0,.505,1.443.909.909,0,0,0,.476.072Z" transform="translate(-250.755 -64.048)" fill="#edb8a6"/>
                  </g>
                </g>
              </g>
              <g id="Grupo_74540" data-name="Grupo 74540" transform="translate(12.686 19.63)">
                <path id="Trazado_158943" data-name="Trazado 158943" d="M252.686,87.27h-8.6a76.075,76.075,0,0,1,1.588,12.27c.173,5.825,0,88.594,0,109.236s1.148,51,2.692,51,2.678-30.313,2.678-51-.173-103.412,0-109.236a76.917,76.917,0,0,1,1.638-12.27Z" transform="translate(-243.273 -80.923)" fill="url(#linear-gradient-2)"/>
                <path id="Trazado_158944" data-name="Trazado 158944" d="M252.775,82.513a4.85,4.85,0,0,0-9.563,0c-1,3.609,1.01,6.034,4.785,6.034S253.815,86.151,252.775,82.513Z" transform="translate(-242.958 -78.476)" fill="#ecb4a1"/>
                <path id="Trazado_158945" data-name="Trazado 158945" d="M252.613,82.8a4.33,4.33,0,0,0-8.553,0c-.9,3.255.895,5.406,4.287,5.406S253.429,86.059,252.613,82.8Z" transform="translate(-243.201 -78.665)" fill="url(#radial-gradient-7)"/>
              </g>
            </g>
          </g>
        </g>
      </g>
    </g>
  </g>
</svg>
