<svg id="Capa_2" data-name="Capa 2" xmlns="http://www.w3.org/2000/svg" xmlns:xlink="http://www.w3.org/1999/xlink" width="610" height="340" viewBox="0 0 610 340">
  <defs>
    <clipPath id="clip-path">
      <rect id="Rectángulo_32722" data-name="Rectángulo 32722" width="610" height="340" fill="none"/>
    </clipPath>
  </defs>
  <rect id="Rectángulo_32720" data-name="Rectángulo 32720" width="610" height="340" fill="#66d7e5"/>
  <g id="Grupo_75223" data-name="Grupo 75223" clip-path="url(#clip-path)">
    <g id="Grupo_75222" data-name="Grupo 75222">
      <g id="Grupo_75220" data-name="Grupo 75220">
        <g id="Grupo_75218" data-name="Grupo 75218">
          <path id="Trazado_162041" data-name="Trazado 162041" d="M299.29,149.28s-.51,32.32-4.93,42.38c0,0,36.76,9.72,62.27,0a155.439,155.439,0,0,1-6.29-42.38C350.34,138,299.29,149.28,299.29,149.28Z" fill="#f2a88f"/>
          <path id="Trazado_162042" data-name="Trazado 162042" d="M298.42,167.55c9,7.41,33.4,24.12,54.15,6.52a147.1,147.1,0,0,1-2.23-24.79c0-3.9-6.06-5.12-14-5l-37,5.38C299.25,151.35,299.06,159,298.42,167.55Z" fill="#f2a88f"/>
          <g id="Grupo_75217" data-name="Grupo 75217">
            <g id="Grupo_75214" data-name="Grupo 75214">
              <g id="Grupo_75211" data-name="Grupo 75211">
                <path id="Trazado_162043" data-name="Trazado 162043" d="M400.55,203.18s35.58,9.18,47.63,22.82,23.36,73.34,24.87,86.06-3,30.45,0,39.3,2.19,7.9,3.38,16.19-2.49,14.32.85,24.86-1.08,14.32,0,21.85,4.81,13.78,6.32,22.81,5.93,81.16.24,87.39c-7,7.68-37.67,12-42.94,0S427.84,434.79,424.83,425s-8.2-56.56-12.59-67.45c0,0-16-32.3-17.55-44.59S400.55,203.18,400.55,203.18Z" fill="#54abe0"/>
                <path id="Trazado_162044" data-name="Trazado 162044" d="M412.24,357.55s-16-32.3-17.55-44.59c-.65-5.29.35-26.44,1.69-48.78l10.25,3.91s17.64,13,18.95,28.82,2.76,87.8,7,103.8,11.17,52.16,11.48,69.49,4.85,50.48,11.63,52.75,7.41-15.63,9.73-9.7c2.16,5.48,14.63,8.16,20,6.29-.42,2.44-1,4.16-1.64,4.92-7,7.68-37.67,12-42.94,0s-13-89.67-16.01-99.46S416.63,368.44,412.24,357.55Z" fill="#3396d3"/>
                <path id="Trazado_162045" data-name="Trazado 162045" d="M412.22,336.2s29.68-36.42,38.18-61.7" fill="none" stroke="#2e90c0" stroke-linecap="round" stroke-miterlimit="10" stroke-width="2.26"/>
              </g>
              <g id="Grupo_75212" data-name="Grupo 75212">
                <path id="Trazado_162046" data-name="Trazado 162046" d="M164.41,395.05h58.41c2.37-15.37,5-31.77,7.37-37.66,0,0,16-32.3,17.55-44.59S241.88,203,241.88,203s-35.59,9.18-47.64,22.82-23.36,73.34-24.86,86.06,3,30.45,0,39.29-2.2,7.91-3.39,16.2,2.49,14.32-.85,24.86C164.83,393.25,164.6,394.17,164.41,395.05Z" fill="#54abe0"/>
                <path id="Trazado_162047" data-name="Trazado 162047" d="M222.82,395.05c2.37-15.37,5-31.77,7.37-37.66,0,0,16-32.3,17.55-44.59.64-5.29-.36-26.44-1.7-48.78l-10.24,3.91s-17.65,12.95-19,28.82c-1.2,14.46-2.51,75.49-6,98.3Z" fill="#3396d3"/>
                <path id="Trazado_162048" data-name="Trazado 162048" d="M223,372.12s-7.35-24-45.19-37" fill="none" stroke="#2e90c0" stroke-linecap="round" stroke-miterlimit="10" stroke-width="2.26"/>
              </g>
              <g id="Grupo_75213" data-name="Grupo 75213">
                <path id="Trazado_162049" data-name="Trazado 162049" d="M235.8,312.8c7.33-53.75,1.65-99,1.65-99" fill="none" stroke="#b57d29" stroke-linecap="round" stroke-miterlimit="10" stroke-width="2.32"/>
                <path id="Trazado_162050" data-name="Trazado 162050" d="M357.4,214.59c5.84-5.9,9.23-13.3,11.21-20.28l-2.15-1.22c-1.85,6.87-5.09,14.18-10.73,19.89-7.62,7.7-18.32,11.21-31.94,10.43-1.4.06-31.39.78-38.26-31.75-.69.37-1.39.73-2.14,1.1,7.62,33.85,40.12,33,40.38,33,1.28.07,2.54.11,3.77.11C340,225.84,350,222.06,357.4,214.59Z" fill="#b57d29"/>
              </g>
              <path id="Trazado_162051" data-name="Trazado 162051" d="M414.66,472c-1-8.28-2.44-135.78-2.44-135.78,2.54-18.84,3.2-126.87-1.19-130.72s-37.25-10.64-45.95-19-10.82-2.91-10.82-2.91c-2.64,2-18.76,3.39-31,3.44v.11c-12.08-.07-23.32-1-25.93-3,0,0-2.12-5.48-10.82,2.9s-46.26,14.7-50.67,18.55-3.73,111.89-1.18,130.72c0,0-1.42,127.51-2.44,135.79s3.94,16.58,8.53,19.59c0,0,35.07,7.73,82.82,8.44V500c47.61-.75,82.51-8.43,82.51-8.43C410.71,488.56,415.68,480.27,414.66,472Z" fill="#54abe0"/>
              <path id="Trazado_162052" data-name="Trazado 162052" d="M317.58,187V510.05h21.17l-5-323.05Z" fill="#217ead"/>
              <path id="Trazado_162053" data-name="Trazado 162053" d="M289.78,184.32s35.51,19.34,71.17-1.18c0,0,1.76-3.94-2.76-8.84s-5.62-15.82-5.62-15.82-.66-2-2.23-1.94-51.92.65-51.92.65-3.14.64-3.52,5.86-.38,7.62-2.64,11.5S288.79,178.51,289.78,184.32Z" fill="#c2dbed"/>
              <path id="Trazado_162054" data-name="Trazado 162054" d="M352.57,158.48s-.66-2-2.23-1.94-51.92.65-51.92.65-3,.62-3.49,5.52c7.87,6.79,26.65,21,43.57,18.46,10.23-1.53,15.74-4.47,19-7.69C353.56,168.29,352.57,158.48,352.57,158.48Z" fill="#9cbfd5"/>
              <path id="Trazado_162055" data-name="Trazado 162055" d="M209.81,234.22s10.55,54.39,20.15,80.56" fill="none" stroke="#2e90c0" stroke-linecap="round" stroke-miterlimit="10" stroke-width="2.26"/>
              <path id="Trazado_162056" data-name="Trazado 162056" d="M416.5,326.14s28-69.31,27.78-86.64" fill="none" stroke="#2e90c0" stroke-linecap="round" stroke-miterlimit="10" stroke-width="2.26"/>
              <path id="Trazado_162057" data-name="Trazado 162057" d="M230.19,322.37s-28.49-35.61-35.95-59.08" fill="none" stroke="#2e90c0" stroke-linecap="round" stroke-miterlimit="10" stroke-width="2.26"/>
            </g>
            <g id="Grupo_75216" data-name="Grupo 75216">
              <path id="Trazado_162058" data-name="Trazado 162058" d="M301.76,51c-19.67,12.95-15.56,51.15-15.56,51.15-11.23-10-12.76,4.77-9.17,15.49s9,9.5,9,9.5c2.64,24.24,24.95,40.21,35.34,42.11,1.1.21,2,.36,3,.47v-.11c1-.11,1.87-.26,3-.46,10.39-1.92,32.57-18.63,35.37-42.13,0,0,5,2,8.6-8.67s2.47-26.3-8.74-16.3c0,0,4.09-38.21-15.57-51.16Z" fill="#f2a88f"/>
              <g id="Grupo_75215" data-name="Grupo 75215">
                <path id="Trazado_162059" data-name="Trazado 162059" d="M312.76,92a3.1,3.1,0,0,1-2.33,2.39c-2.13.64-8.44-1.48-10-1.19s-6,1.31-6,1.31,3.18-3.54,6-4.13S313.6,90.45,312.76,92Z" fill="#222349"/>
                <path id="Trazado_162060" data-name="Trazado 162060" d="M333.8,92a3.05,3.05,0,0,0,2.32,2.39c2.12.64,8.43-1.48,10-1.19s6,1.31,6,1.31-3.18-3.54-6-4.13S332.94,90.45,333.8,92Z" fill="#222349"/>
                <path id="Trazado_162061" data-name="Trazado 162061" d="M297.36,104.73s5.38-7,13.5-1.23c0,0-.29,1.45-1.59,1.23S304.76,100.89,297.36,104.73Z" fill="#222349"/>
                <path id="Trazado_162062" data-name="Trazado 162062" d="M307.51,103s.19,4-3.74,4c-3.51,0-3-4-3-4S305.9,102,307.51,103Z" fill="#222349"/>
                <path id="Trazado_162063" data-name="Trazado 162063" d="M350.34,104.73s-5.37-7-13.49-1.23c0,0,.28,1.45,1.59,1.23S342.93,100.89,350.34,104.73Z" fill="#222349"/>
                <path id="Trazado_162064" data-name="Trazado 162064" d="M340.2,103s-.19,4,3.74,4c3.51,0,3-4,3-4S341.8,102,340.2,103Z" fill="#222349"/>
              </g>
              <path id="Trazado_162065" data-name="Trazado 162065" d="M335.81,95.62a39.16,39.16,0,0,0-7.36,27.48" fill="none" stroke="#934a32" stroke-miterlimit="10" stroke-width="1.16"/>
            </g>
            <path id="Trazado_162066" data-name="Trazado 162066" d="M361.93,129.56c-1.45.27-17.38-1.39-23.31-6.43-4.34-3.7-11.17-4.34-14.52-4.42-3.33.08-10.17.72-14.51,4.42-5.92,5-21.85,6.7-23.3,6.43a6.1,6.1,0,0,0-1.8,4.83c.35,2.82,16.75,35.32,35.77,37.29a20.22,20.22,0,0,0,7.7,0c19-2,35.41-34.47,35.77-37.29A6.1,6.1,0,0,0,361.93,129.56Z" fill="#fff"/>
            <path id="Trazado_162067" data-name="Trazado 162067" d="M324.37,150.59C324,143.8,327,127.13,326,123.1c-.52-2.14-3.19-3.39-5.58-4.11-3.45.44-7.76,1.53-10.83,4.14-5.92,5-21.85,6.7-23.3,6.43a6.1,6.1,0,0,0-1.8,4.83c.35,2.82,16.75,35.32,35.77,37.29a20.22,20.22,0,0,0,7.7,0,24.1,24.1,0,0,0,10.54-4.07C325.31,170,324.67,156.66,324.37,150.59Z" fill="#dde8f2"/>
            <path id="Trazado_162068" data-name="Trazado 162068" d="M297.36,137.86a70,70,0,0,1,10.15-8.11c5.43-3.7,6.73-6.28,6.08-9a15.16,15.16,0,0,0-4,2.39c-5.92,5-21.85,6.7-23.3,6.43a6.1,6.1,0,0,0-1.8,4.83c.35,2.82,16.75,35.32,35.77,37.29a13.08,13.08,0,0,0,3.84.37,14.29,14.29,0,0,0,3.33-.25C317.81,168.48,296.44,158.71,297.36,137.86Z" fill="#b6cddc"/>
            <path id="Trazado_162069" data-name="Trazado 162069" d="M353.32,134.15s-23.12-7.6-27.14-7.59-31.28,7.59-31.28,7.59" fill="none" stroke="#91b2c4" stroke-linecap="round" stroke-miterlimit="10" stroke-width="2.26"/>
            <path id="Trazado_162070" data-name="Trazado 162070" d="M354.29,139.56S331.17,132,327.15,132s-31.28,7.59-31.28,7.59" fill="none" stroke="#91b2c4" stroke-linecap="round" stroke-miterlimit="10" stroke-width="2.26"/>
          </g>
          <path id="Trazado_162071" data-name="Trazado 162071" d="M275.31,120.74c-11.25-20.65-21.85-55.31,4.95-84.9,12.05-13.3,81-20.51,92.88,7.36,16.59,39,.17,74.32.17,74.32-1.25,8.34-11.38,12-11.38,12,3.18-54.57-7.64-55.83-7.64-55.83-23.47-5-56.93-2-56.93-2-15,4-11.32,55.38-11.32,55.38S279.34,128.15,275.31,120.74Z" fill="#459da2"/>
          <path id="Trazado_162072" data-name="Trazado 162072" d="M362,129.54h.07l.19-.08.2-.08h.07l.53-.24h0l.73-.35h.07l.82-.44h.09c.29-.16.58-.34.89-.53l.13-.08.86-.57.2-.15.51-.35L368,126c1.38-6.18.4-15.12-.6-16.65-1.51-2.3.76-5.61,3.94-8.17s-1.31-4.59-5.07-8.86.76-4,4.14-7.79-3.38-4.9-6.61-6,.58-9.42,1.72-17.05-9.79,2.74-13.3,5-1.4-4.14-1.85-10.8S335.72,61.2,332,64.6s-2.29-6-3.81-10.93-12.8,6.78-15.37,9.79-2.7-6.4-5.3-10.55-6.06,7.16-9.09,11.31-5.64-3-9-4.28-.41,8.42,0,12.94-4.52,1.51-8.29,2.11.75,6.93,3.35,12.58-2.6,4.52-4.48,9.8,5.71,12.46,0,12c-3.12-.25-14.37-8.25-16-22.69,1.53,13,6.37,24.91,11.37,34.07,4,7.41,10.73,6.39,10.73,6.39s-3.71-51.33,11.32-55.38c0,0,33.46-3,56.93,2,0,0,10.82,1.26,7.64,55.83Z" fill="#328b8b"/>
        </g>
        <rect id="Rectángulo_32721" data-name="Rectángulo 32721" width="117.12" height="3.86" transform="translate(263.44 61.48)" fill="#fff"/>
        <path id="Trazado_162073" data-name="Trazado 162073" d="M263.44,64.39V134a20.33,20.33,0,0,0,20.34,20.34h76.43A20.34,20.34,0,0,0,380.56,134V64.39Z" fill="#fff" opacity="0.4"/>
        <g id="Grupo_75219" data-name="Grupo 75219" opacity="0.4">
          <path id="Trazado_162074" data-name="Trazado 162074" d="M313.88,64.39l-50.44,67.7V134a20.3,20.3,0,0,0,5.31,13.68l62-83.27Z" fill="#fff"/>
          <path id="Trazado_162075" data-name="Trazado 162075" d="M347.7,64.39h-9.86L273.1,151.28a20.33,20.33,0,0,0,7.76,2.81Z" fill="#fff"/>
          <path id="Trazado_162076" data-name="Trazado 162076" d="M380.56,83.66V64.39h-4.68l-67,89.93h19.03Z" fill="#fff"/>
        </g>
      </g>
      <g id="Grupo_75221" data-name="Grupo 75221">
        <path id="Trazado_162077" data-name="Trazado 162077" d="M248.26,417.46c0,5.4,5.26,9.75,11.75,9.75h78.14c6.48,0,11.75-4.35,11.75-9.75V315.89c0-5.37-5.27-9.73-11.75-9.73H260c-6.49,0-11.75,4.36-11.75,9.73Z" fill="#845a41"/>
        <path id="Trazado_162078" data-name="Trazado 162078" d="M310,300.8a4,4,0,0,0-4.05-4H293.33a4,4,0,0,0-4,4h-9.15v10.71H318V300.8Zm-4.27,1.49h-13.3a1.17,1.17,0,0,1,0-2.34h13.31a1.17,1.17,0,0,1,0,2.34Z" fill="#7d91b4"/>
      </g>
    </g>
  </g>
</svg>
