<svg xmlns="http://www.w3.org/2000/svg" width="173.445" height="179.205" viewBox="0 0 173.445 179.205">
  <g id="Capa_2" data-name="Capa 2" transform="translate(0)">
    <g id="Grupo_75045" data-name="Grupo 75045" transform="translate(0 0)">
      <path id="Trazado_161525" data-name="Trazado 161525" d="M204.177,153.622c-1.131-10.248-6.4-20.546-15.74-25.444-4.629-2.438-9.711-3.894-14.341-6.361-5-2.643-6.361-5.654-5.7-11.2.608-5.2,2.318-10.185,3.315-15.309a63.207,63.207,0,0,0,.572-18.376c-2.53-24-19.02-42.358-41.192-50.818C108.64,17.545,83.316,23.63,63.766,36.593,54.317,42.862,46.1,50.728,41,60.97,35.961,71.1,33.332,82.237,31.94,93.425c-2.778,22.108-.262,46.026,11.047,65.632.594,1.025,1.23,2.028,1.88,3.018,15.153,32.3,58.1,39.948,91.706,39.22,20.165-.438,41.51-4.679,56.338-19.521C200.325,174.388,205.357,164.288,204.177,153.622Z" transform="translate(-30.903 -22.136)" fill="#c0e9fc"/>
      <g id="Grupo_75044" data-name="Grupo 75044" transform="translate(7.972 19.72)">
        <g id="Grupo_75042" data-name="Grupo 75042" transform="translate(15.745 28.997)">
          <path id="Trazado_161526" data-name="Trazado 161526" d="M104.536,191.1a16.793,16.793,0,0,0-3,2.587c-8.481,9.118-31.021,37.679-30.823,38.28s12.524,16.256,12.524,16.256,3.534.3,14.136-8.425,24.914-25.444,24.914-25.444Z" transform="translate(-66.291 -120.396)" fill="#ed9996"/>
          <path id="Trazado_161527" data-name="Trazado 161527" d="M108.7,191.1a16.793,16.793,0,0,0-3,2.587c-4.707,5.054-13.719,16.065-20.787,24.992,6.679,5.774,17.083,15.768,22.794,20.5,9.9-9.054,18.758-24.886,18.758-24.886Z" transform="translate(-70.455 -120.396)" fill="#7e5ee3"/>
          <path id="Trazado_161528" data-name="Trazado 161528" d="M113.82,187.918c-.982-1,29.3-23.133,56.034-18.115,35.078,6.573,41.432,69.852,41.432,69.852H140.714S132.614,206.952,113.82,187.918Z" transform="translate(-78.925 -113.935)" fill="#7e5ee3"/>
          <path id="Trazado_161529" data-name="Trazado 161529" d="M152.687,159.74c1.378.078,10.983,6.828,10.983,6.828s-7.139,20.461-11.867,21.409-17.2-10.27-17.2-10.27Z" transform="translate(-85.025 -111.201)" fill="#ed9996"/>
          <path id="Trazado_161530" data-name="Trazado 161530" d="M101.784,157.5c2.269,4.516,1.414,9.542-1.937,11.217s-7.888-.629-10.149-5.145-1.4-9.506,1.965-11.21S99.515,152.98,101.784,157.5Z" transform="translate(-71.489 -108.873)" fill="#ed9996"/>
          <path id="Trazado_161531" data-name="Trazado 161531" d="M145.635,125.5c4.488,12.545.926,32.809-17.005,41.107-9.683,4.481-22.554-1.781-31.558-17.337-12.871-22.221-4.841-33.509,9-40.407S139.585,108.571,145.635,125.5Z" transform="translate(-72.12 -95.492)" fill="#ffb1a5"/>
          <path id="Trazado_161532" data-name="Trazado 161532" d="M134.145,112.021a29.793,29.793,0,0,0-4.446-2.361c-4.863,1.067-13.917,3.279-21.91,5.322l-.636-2.756-2.438-1.619c-5.414,2.9-9.8,6.559-12.171,11.4v.057c-.2.4-.375.8-.544,1.216v.071c-2.6,6.594-1.626,15.252,5.145,26.95,4.891,8.446,10.92,14.136,16.963,16.885-6.361-9.188-2.12-23.988-1.124-28.038,5.52-2.163,9.52-14.687,9.52-14.687a50.193,50.193,0,0,0,16.468,4.87S135.757,117.675,134.145,112.021Z" transform="translate(-72.145 -96.517)" fill="#ed9996"/>
          <g id="Grupo_75034" data-name="Grupo 75034">
            <path id="Trazado_161533" data-name="Trazado 161533" d="M138.955,129.185c-.785.247-18.419-7.174-25.769-16.1,0,0-2.12,11.309-7.874,16.256s-4.721-8.135-4.721-8.135-14.843,21.663-26.66,17.988,2-15.931,2-15.931-19.168,1.414-7.951-9.379,40.047-34.1,48.811-16.369c0,0,11.16-6.446,16.546,4.241C138.969,112.887,138.955,129.185,138.955,129.185Z" transform="translate(-64.458 -91.064)" fill="#282828"/>
            <path id="Trazado_161534" data-name="Trazado 161534" d="M115.624,95.566c-9.9-13.91-36.88,7.98-47.644,18.306-11.217,10.757,7.951,9.379,7.951,9.379S63.208,134.56,72.658,138.7a10.6,10.6,0,0,1-.417-2.9,12.412,12.412,0,0,1,3.612-8.156,37.087,37.087,0,0,1,7.174-5.6,5.972,5.972,0,0,1-7.428-7.216c.565-2.191,2.3-3.866,4-5.365,5.287-4.679,11.026-8.976,17.542-11.669A32.369,32.369,0,0,1,115.624,95.566Z" transform="translate(-64.458 -91.067)" fill="#424242"/>
          </g>
          <g id="Grupo_75035" data-name="Grupo 75035" transform="translate(28.818 36.15)">
            <path id="Trazado_161535" data-name="Trazado 161535" d="M145.61,150.81a15.441,15.441,0,0,0-4.347,2.474c-.509.353-1.074.707-1.626,1.1.41-.53.827-1.06,1.265-1.569.94-1.06,1.809-2.58,2.983-3.364a.544.544,0,0,0-.417-.989c-1.364.4-2.163,2.085-3.046,3.082a22.341,22.341,0,0,0-3.393,5.011.382.382,0,0,0,0,.233l-.035.042a.339.339,0,0,0,.375.488c1.6-.509,2.926-1.859,4.3-2.778a16.337,16.337,0,0,1,4.3-2.481.652.652,0,1,0-.368-1.251Z" transform="translate(-114.533 -144.041)" fill="#282828"/>
            <path id="Trazado_161536" data-name="Trazado 161536" d="M115.575,165.631a58.021,58.021,0,0,0-6.128-3.484.516.516,0,1,0-.4.947,24.033,24.033,0,0,1,3.619,1.682c-.608-.127-1.223-.24-1.859-.332-1.583-.247-3.2-.763-4.792-.848a.5.5,0,0,0-.247.926,9.906,9.906,0,0,0,4.241,1.067c1.781.212,3.576.332,5.357.53h.092a.262.262,0,0,0,.12-.488Z" transform="translate(-105.32 -148.04)" fill="#282828"/>
            <path id="Trazado_161537" data-name="Trazado 161537" d="M140.522,142.26c-2.064.869-3.5,2.523-4.983,4.142-.565.615-4.036,5.845-4.41,5.753a.212.212,0,0,0-.24.311l.155.254a.339.339,0,0,0,.523.071c3.039-2.926,5.188-7.69,9.273-9.379C141.561,143.122,141.228,141.963,140.522,142.26Z" transform="translate(-112.746 -142.212)" fill="#282828"/>
            <path id="Trazado_161538" data-name="Trazado 161538" d="M115.069,158.525c-3.166-.77-6.078-2.12-9.188-3.188-.643-.219-.933.82-.283,1.018,2.12.636,4.149,1.456,6.2,2.226.763.283,2.686,1.223,3.364.339a.24.24,0,0,0-.092-.4Z" transform="translate(-105.231 -146.052)" fill="#282828"/>
            <path id="Trazado_161539" data-name="Trazado 161539" d="M126.237,169.225c-3.378-.777-3.2-5.591-3.534-8.34a.325.325,0,0,0-.643,0c-.262,2.9,0,9.153,4.015,9.365a.523.523,0,0,0,.163-1.025Z" transform="translate(-110.144 -147.606)" fill="#282828"/>
            <path id="Trazado_161540" data-name="Trazado 161540" d="M130,179.5v.113c.4,1.357,2.467,1.986,3.322,1.194,1.562-1.414,4.672-3.11,6.707-2.3,1.244.5,2.445-1.216,2.445-2C142.5,170.52,128.35,175.051,130,179.5Z" transform="translate(-112.456 -151.424)" fill="#fff"/>
          </g>
          <ellipse id="Elipse_4706" data-name="Elipse 4706" cx="6.783" cy="9.179" rx="6.783" ry="9.179" transform="matrix(0.987, -0.16, 0.16, 0.987, 66.608, 29.469)" fill="#ffb1a5"/>
          <g id="Grupo_75037" data-name="Grupo 75037" transform="translate(14.766 21.653)">
            <path id="Trazado_161541" data-name="Trazado 161541" d="M111.19,132.57a4.241,4.241,0,0,0-1.809.155,7.068,7.068,0,0,0,.226-2.516,2.571,2.571,0,0,0-1.583-1.93,3.11,3.11,0,0,0-1.308-.163,6.043,6.043,0,0,0-.982-1.682c-1.074-1.187-4.3.2-5.944,2.417-.883,1.187-4.813,6.616-4.552,7.534-.608-2.12,1.781-8.361,2.226-10.6.417-2.12,1.944-4.015-1.216-4.085-2.417-.057-6.474,10.277-6.99,13.917-1.237,8.778-1.965,17.776-3.909,26.427.438.707-.042.926.488,1.576,4.368,1.831,10.665,4.4,14.843,1.823,3.824-2.339,6.128-7.351,6.283-11.683a26.452,26.452,0,0,1,3.393-12.92c.848-1.534,2.177-4.439,2.12-6.425A1.852,1.852,0,0,0,111.19,132.57Z" transform="translate(-85.35 -121.7)" fill="#ffb1a5"/>
            <g id="Grupo_75036" data-name="Grupo 75036" transform="translate(11.911 6.558)">
              <path id="Trazado_161542" data-name="Trazado 161542" d="M115.559,138c-4.043,2.205-4.905,7.464-6.439,11.393-.148.382.459.551.608.17,1.6-4.1,2.516-8.34,6.015-11.309C115.884,138.144,115.708,137.939,115.559,138Z" transform="translate(-104.224 -133.034)" fill="#282828"/>
              <path id="Trazado_161543" data-name="Trazado 161543" d="M110.731,130.994c-4.827,2.954-7.584,10.107-8.524,15.394-.078.474.643.707.707.2a28.738,28.738,0,0,1,8.043-15.281.2.2,0,0,0-.226-.311Z" transform="translate(-102.202 -130.979)" fill="#282828"/>
            </g>
          </g>
          <path id="Trazado_161544" data-name="Trazado 161544" d="M80,178.81C78.751,183.3,68.927,224.1,67.33,232.1c-2.544,12.779,15.627,17.67,23.246,6.983,5.463-7.676,4-56.472,4-56.472Z" transform="translate(-65.229 -116.793)" fill="#ffb1a5"/>
          <g id="Grupo_75041" data-name="Grupo 75041" transform="translate(40.806 57.537)">
            <g id="Grupo_75038" data-name="Grupo 75038" transform="translate(15.202)">
              <path id="Trazado_161545" data-name="Trazado 161545" d="M186.446,173.382c-3.329-1.286-11.853-2.424-13.118,5.6-1.965,12.411,17.917,43.821,17.917,43.821L143.7,229.67l1.951,13.068s76.9,9.457,72.8-12.27C213.085,201.738,202.943,179.743,186.446,173.382Z" transform="translate(-143.7 -172.471)" fill="#ffb1a5"/>
              <path id="Trazado_161546" data-name="Trazado 161546" d="M227.454,214.2l-26.024,9.188c2.226,4.1,4.241,7.527,5.485,9.57a62.134,62.134,0,0,0,25.126-5A128.376,128.376,0,0,0,227.454,214.2Z" transform="translate(-160.627 -184.706)" fill="#ed9996"/>
              <path id="Trazado_161547" data-name="Trazado 161547" d="M198.676,173.382c-3.329-1.286-11.853-2.424-13.118,5.6-1.52,9.605,9,32.434,14.305,41.432,6.905-1.449,19.861-4.948,27.5-8.114C221.47,192.239,211.667,178.393,198.676,173.382Z" transform="translate(-155.93 -172.471)" fill="#987ee9"/>
            </g>
            <g id="Grupo_75040" data-name="Grupo 75040" transform="translate(0 44.664)">
              <path id="Trazado_161548" data-name="Trazado 161548" d="M147.642,245.578s-1.484-8.715-5.979-9.45c-7.633-1.251-9.266.155-9.386,2.728,0,0-7.775-1.18-8.708,2.064a2.933,2.933,0,0,0,1.032,3.463s-2.912.2-2.332,3.018a3.465,3.465,0,0,0,2.205,2.255,4.241,4.241,0,0,0-1.216,3.492,2.587,2.587,0,0,0,2,2.629s-1.619,2.438,1,4.884c2.057,1.922,20.5,1.067,20.5,1.067Z" transform="translate(-122.192 -235.664)" fill="#ffb1a5"/>
              <g id="Grupo_75039" data-name="Grupo 75039" transform="translate(2.784 1.367)">
                <path id="Trazado_161549" data-name="Trazado 161549" d="M144.617,239.9c-.9-.085-1.8-.219-2.693-.339a3.249,3.249,0,0,1,2.043-1.414.276.276,0,0,0,0-.544c-1.124-.042-1.845,1.1-2.445,1.9a16.489,16.489,0,0,0-4.241-.113c-.12,0-.212.2-.071.269a9.234,9.234,0,0,0,3.067.368c1.414.127,2.87.4,4.311.537C145.034,240.6,145.034,239.939,144.617,239.9Z" transform="translate(-129.359 -237.598)" fill="#282828"/>
                <path id="Trazado_161550" data-name="Trazado 161550" d="M129.725,248.369c-1.081-.247-2.184-.057-3.272-.382-.163-.049-.325.191-.177.311.891.707,2.283.6,3.371.664a.3.3,0,0,0,.078-.594Z" transform="translate(-126.157 -240.643)" fill="#282828"/>
                <path id="Trazado_161551" data-name="Trazado 161551" d="M128.7,255.507a6.417,6.417,0,0,0-2.438.085.184.184,0,0,0,0,.353,9.126,9.126,0,0,0,2.438.226.332.332,0,0,0,0-.664Z" transform="translate(-126.131 -242.827)" fill="#282828"/>
                <path id="Trazado_161552" data-name="Trazado 161552" d="M129.159,263.986a19.282,19.282,0,0,0-2.3,0,.2.2,0,0,0,0,.375,12.106,12.106,0,0,0,2.3.3C129.6,264.693,129.6,263.986,129.159,263.986Z" transform="translate(-126.304 -245.325)" fill="#282828"/>
              </g>
            </g>
          </g>
          <path id="Trazado_161553" data-name="Trazado 161553" d="M131.826,222.406c-1.831-3.534-3.887-6.912-5.506-10.531-1.7-3.788-3.159-7.676-4.856-11.471-.042-.092-.2,0-.17.071,1.336,3.965,2.608,7.93,4.241,11.775A79.08,79.08,0,0,0,129.5,219.9c-5.562-3.308-11.139-6.764-15.387-11.726-.12-.134-.36.049-.254.2,4.036,5.774,10.149,9.379,16.094,12.913a.438.438,0,0,0,.318.049c.269.495.544.99.806,1.491A.429.429,0,0,0,131.826,222.406Z" transform="translate(-78.935 -123.113)" fill="#935221"/>
        </g>
        <g id="Grupo_75043" data-name="Grupo 75043">
          <path id="Trazado_161554" data-name="Trazado 161554" d="M181.292,104.634c-5.916,2.721.339,10.114,3.7,5.654.926-1.209-1.131-2.382-2.043-1.187-1.534.254-2.036-.339-1.513-1.767a3.371,3.371,0,0,1,1.717-.827,3.781,3.781,0,0,1,2.721.573c1.739,1.209,1.838,3.718.827,5.407-2.205,3.718-8.566,3.053-10.927-.113-4.453-5.972,5.52-11.789,10.6-10.983a.785.785,0,1,0,.417-1.513c-9.019-3.781-20.5,10.383-10.3,16.256,4.559,2.622,11.86,1.279,13.146-4.446C190.706,106.847,185.992,102.479,181.292,104.634Z" transform="translate(-80.393 -64.466)" fill="#00bcd4"/>
          <path id="Trazado_161555" data-name="Trazado 161555" d="M61.945,78.93c-2.749.749-9.74,4.432-5.294,7.563.4.269.947-.276.664-.707-1.689-2.382,2.933-3.958,4.573-4.467,2.587-.8,5.463-.375,7.174,1.915,1.972,2.622,1.3,8.206-2.495,8.941a3.535,3.535,0,0,1-3.852-2.99c-.318-1.979.848-2.99,2.608-1.8,1.35.9,2.615-1.279,1.272-2.177-4.693-3.117-8,2.5-5.527,6.623,3.718,6.128,11.047,1.414,11.556-4.241A8.343,8.343,0,0,0,61.945,78.93Z" transform="translate(-46.001 -58.418)" fill="#00bcd4"/>
          <path id="Trazado_161556" data-name="Trazado 161556" d="M100.336,63.175a48.668,48.668,0,0,0-7.421,1.845,76.1,76.1,0,0,1-2.156-11.612c-.184-1.894-3.166-1.915-2.983,0a82.519,82.519,0,0,0,2.7,13.846,1.5,1.5,0,0,0,1.816,1.032c2.332-.657,4.615-1.414,6.962-2.028a29.155,29.155,0,0,1-.368,8.835.226.226,0,0,0,.431.12,53.914,53.914,0,0,0,2.389-10.284C101.778,64.158,101.361,63.041,100.336,63.175Z" transform="translate(-55.549 -50.607)" fill="#00bcd4"/>
          <path id="Trazado_161557" data-name="Trazado 161557" d="M147.443,51.538c-.17-1.965-3.138-2.036-3.117,0,0,1.852-1.576,3.59-2.332,5.209a45.493,45.493,0,0,0-1.958,5.372,30.568,30.568,0,0,0-6.29-1.279,1.1,1.1,0,0,0-1.1,1.1c.551,4.071-.4,8.142.346,12.256.1.523.99.41.933-.127a34.4,34.4,0,0,1,.629-10.842c2.043.438,3.986,1.18,6.015,1.725a1.371,1.371,0,0,0,1.619-.919,72.92,72.92,0,0,1,3.88-8.319A7.048,7.048,0,0,0,147.443,51.538Z" transform="translate(-68.708 -50.037)" fill="#00bcd4"/>
          <path id="Trazado_161558" data-name="Trazado 161558" d="M178.05,77.391c-2.566,1.074-4.078,2.827-6.206,4.538a4.085,4.085,0,0,1-2.375,1.47,11.539,11.539,0,0,0-1.131-1.067,12.99,12.99,0,0,0-2.12-1.216c-3.81-1.131-5.937,3.534-8.149,5.739-.424.417.155,1.23.657.848,1.414-1.1,2.827-3.315,4.552-3.986,3.287-1.308,3.435,1.937,5.7,2.622,1.18.353,2.078-.24,3.032-.891,2.537-1.725,4.241-4.241,7.068-5.591C180.439,79.208,179.463,76.8,178.05,77.391Z" transform="translate(-76.119 -58.031)" fill="#00bcd4"/>
          <path id="Trazado_161559" data-name="Trazado 161559" d="M54.712,135.475c-2.3.4-4.58,1.032-6.863,1.527-1.619.346-4.354.3-5.435,1.668a.82.82,0,0,0,.163,1.272c1.7.855,4.142-.3,5.88-.707a22.965,22.965,0,0,0,6.778-2.481.707.707,0,0,0-.523-1.279Z" transform="translate(-42.182 -75.086)" fill="#00bcd4"/>
          <path id="Trazado_161560" data-name="Trazado 161560" d="M55.414,111.785a14.934,14.934,0,0,0-4.594-2.516c-1.173-.4-3.223-1.576-4.432-1.173a.869.869,0,0,0-.6,1.06c.523,1.293,2.12,1.414,3.322,1.781a22.454,22.454,0,0,1,5.435,1.979C55.223,113.312,56.064,112.315,55.414,111.785Z" transform="translate(-43.23 -67.036)" fill="#00bcd4"/>
        </g>
      </g>
    </g>
  </g>
</svg>
