<svg id="Grupo_75493" data-name="Grupo 75493" xmlns="http://www.w3.org/2000/svg" width="610" height="340" viewBox="0 0 610 340">
  <rect id="Rectángulo_32687" data-name="Rectángulo 32687" width="610" height="340" fill="#66d7e5"/>
  <g id="Grupo_75191" data-name="Grupo 75191">
    <path id="Trazado_161947" data-name="Trazado 161947" d="M564.84,61.3s13.47-3.41,16-4.77v8.18s-5.13,4.57-15.28,6.37Z" fill="#0e141e"/>
    <path id="Trazado_161948" data-name="Trazado 161948" d="M440.8,57.67s-13.47-3.41-16-4.77v8.17s5.14,4.58,15.28,6.38Z" fill="#0e141e"/>
    <path id="Trazado_161949" data-name="Trazado 161949" d="M564.4,59.25s6.86,5.35,7.53,5.46a2.92,2.92,0,0,1,1.37,2.38c0,1.59-1.37,9.76-1.37,9.76a2.94,2.94,0,0,1-3.63,0c-2.15-1.36-5-3.52-5-3.52Z" fill="#5f7c82"/>
    <path id="Trazado_161950" data-name="Trazado 161950" d="M571.26,66.35l-1.19,9.37S584.2,86.11,585.9,92.41l1.37-11.75S588.45,77.46,571.26,66.35Z" fill="#1a2332"/>
    <path id="Trazado_161951" data-name="Trazado 161951" d="M579.43,103.31c9.37-8.37,5.79-17.94,5.79-17.94l-6.54-3.52c.77,6.5,1,15-8.61,18.16a43.29,43.29,0,0,1-16.87,1.59c-52.43-5-54.47-4.87-54.47-4.87s-15.56-.92-49.05,4.87a32.88,32.88,0,0,1-16.86-1.6c-9.6-3.12-9.4-11.66-8.61-18.16l-6.55,3.52s-4,10.06,5.79,17.94c0,0,10.22,6.47,28.62,4.08s34.05-4.76,46.66-4.43c5.51.15,38.82,2.76,53.81,5S577.8,104.76,579.43,103.31Z" fill="#0e141e"/>
    <g id="Grupo_75190" data-name="Grupo 75190" opacity="0.5">
      <path id="Trazado_161952" data-name="Trazado 161952" d="M491.12,36.61H488.8L461.56,91l.78.26,1,.24c.18,0,1.24.14,1.42.14h.47c.44,0,.88-.06,1.31-.1,0,0,1.2-.22,1.38-.26l.79-.17L496,36.69Z" fill="#fff"/>
      <path id="Trazado_161953" data-name="Trazado 161953" d="M504.14,36.75c-.6,0-1.21-.09-1.81-.09h-2.81L473,89.64l.42-.19c.42-.22.84-.44,1.24-.67s1.07-.64,1.57-1l.27-.19h0a21.863,21.863,0,0,0,2.22-2.19,4.55,4.55,0,0,1,1.77-1.25l23.73-47.36Z" fill="#fff"/>
    </g>
    <path id="Trazado_161954" data-name="Trazado 161954" d="M438.48,59.25s-6.85,5.35-7.54,5.46a2.92,2.92,0,0,0-1.36,2.38c0,1.59,1.36,9.76,1.36,9.76a3,3,0,0,0,3.64,0c2.16-1.36,5-3.52,5-3.52Z" fill="#5f7c82"/>
    <path id="Trazado_161955" data-name="Trazado 161955" d="M557.31,32.8s-15.33-12.94-46-5.45c0,0-6.57,1.15-9.88,1.4-3.31-.25-9.88-1.4-9.88-1.4-30.65-7.49-46,5.45-46,5.45-7.49,6.47-7.81,31.91-7.81,31.91l2.64.21c1.83-7.2,4.15-11.73,7.9-18.16,1.54-2.63,5.3-6,7.94-4.51.14.08.27.18.41.27a6.59,6.59,0,0,1,2.19-.55c11.47-3.83,23.81-3.71,35.75-4.29a238.3,238.3,0,0,1,40.22,1.42c2,.23,4.8-.22,5.8,1.32,7.55,1.18,15.16,3.73,19.27,10.67a33,33,0,0,1,4.28,13.69l.94-.07S564.8,39.27,557.31,32.8Z" fill="#d2e8ee"/>
    <path id="Trazado_161956" data-name="Trazado 161956" d="M438.48,59.25s0-13,6.94-17.93S475.91,32,499.07,32.8c0,0,6.47,0,10.55-.11s58.09-.9,55.1,24.76L554.58,43.87l-25.2-5.79L504,36.38l-39.51,3.4-19.07,7.66Z" fill="#acc5cb"/>
    <path id="Trazado_161957" data-name="Trazado 161957" d="M561.06,47.44c-6.48-8.29-35.76-12.39-59.27-11.57-23.5-.82-52.79,3.28-59.27,11.57,0,0-10.89,19,.35,37.47,8.85,14.57,31.67,8.13,37.81.75,8.06-9.7,11-20.5,21.11-22.54,10.13,2,13.06,12.84,21.12,22.54,6.13,7.38,29,13.82,37.8-.75C572,66.42,561.06,47.44,561.06,47.44ZM555,82.94c-8,13.15-23.46,7.61-29,1-7.27-8.76-14.13-23.5-24.18-23.84-9.71.51-14.86,13.38-22.14,22.14-5.53,6.66-23,13.9-31,.75-10.15-16.69-.32-33.81-.32-33.81,5.84-7.49,32.28-11.19,53.49-10.45,21.21-.74,47.64,3,53.49,10.45C555.28,49.13,565.11,66.25,555,82.94Z" fill="#fff"/>
    <path id="Trazado_161958" data-name="Trazado 161958" d="M431.63,66.35l1.19,9.37S418.68,86.11,417,92.41l-1.36-11.75S414.43,77.46,431.63,66.35Z" fill="#1a2332"/>
  </g>
  <g id="Grupo_75192" data-name="Grupo 75192">
    <path id="Trazado_161959" data-name="Trazado 161959" d="M457.67,180.28s7.73-6.78,16.64-5.19,29.33,18.3,34.1,25.6L502.85,203s-15.5-18.8-30.12-22.73c0,0-10.82-1.37-16.55,3.71S457.67,180.28,457.67,180.28Z" fill="#24598c"/>
    <path id="Trazado_161960" data-name="Trazado 161960" d="M469.43,230.08s20.47,51.56,34,57.5c12.93,5.66,72.83-11.7,78.43-9.84,3.34,1.12-36.49-77.82-36.49-77.82S492.92,208.49,469.43,230.08Z" fill="#f7fafc" opacity="0.3"/>
    <path id="Trazado_161961" data-name="Trazado 161961" d="M559.19,281.29c3-.61,5.78-1.19,8.36-1.7l-58-70.57c-4.55,1.53-9.23,3.26-13.81,5.22Z" fill="#f7fafc" opacity="0.5"/>
    <path id="Trazado_161962" data-name="Trazado 161962" d="M515,207.27l57.8,71.33c4.67-.83,8-1.23,9.09-.86,3.34,1.12-36.49-77.82-36.49-77.82a255.68,255.68,0,0,0-30.4,7.35Z" fill="#f7fafc" opacity="0.5"/>
    <path id="Trazado_161963" data-name="Trazado 161963" d="M540.36,189.49l6.36,13.14s-42,1.27-78,28L467,223S486.08,200.09,540.36,189.49Z" fill="#1f457c"/>
    <path id="Trazado_161964" data-name="Trazado 161964" d="M482.48,216.55a92.349,92.349,0,0,1-24.81-36.27l-4.67,3.4s5.3,18.66,23.11,35.2c0,0,3.29,3.68,6,1.53S482.48,216.55,482.48,216.55Z" fill="#32649f"/>
    <path id="Trazado_161965" data-name="Trazado 161965" d="M581.58,275.53c.54,1.53.68,2.34.32,2.21-2.45-.81-15.29,2.05-30,5.06,2.33,4.57,5,8.65,7.78,8.93,6.14.64,13.22-2.34,20-7.75C583.44,280.88,582.79,277.72,581.58,275.53Z" fill="#f7fafc" opacity="0.3"/>
  </g>
  <g id="Grupo_75197" data-name="Grupo 75197">
    <g id="Grupo_75194" data-name="Grupo 75194">
      <path id="Trazado_161966" data-name="Trazado 161966" d="M127.34,197.43s-1.25-4.19,4.49-7,12.81,2.28,17.33-1.76,2.93-8.81,8.61-9.39,14.86,8.4,19.17,6.56-6.59,12.14-7.86,13.09S127.34,197.43,127.34,197.43Z" fill="#1380a0"/>
      <path id="Trazado_161967" data-name="Trazado 161967" d="M142.1,259.38c.13-4-.53,4.86-1.15,6.78s-.89,18.75-1.83,21.71-5,6.07-7.48,4.07-2.3-24.81-2-27.93.73-10.74.8-18.13,1.75-23.17,1.71-27.47-4.84-21-4.84-21c1.68-3.66,5.08-.52,7.8-.8s3.4-4,6.17-5.14,6.06.42,9.61,1.08,7.91-2.71,7.91-2.71c4.41-2.61,10.13-1.31,10.13-1.31s8.78-4,9.77-2.36-.06,9.1.35,13.16,2.57,11.78,3.44,15c0,0,5.85,8.65,8.46,12.76s7.54,10.77,11.3,16.9c3.95,6.49,4.37,5.37,5.7,10.37s-5.77,3.44-9.45,1.23C193.36,252.48,188,246,188,246l-3.37-3.49a47,47,0,0,0,1.74,16c2.45,8,5.73,22.41,6.41,26.44s1.74,11.86.32,13.92-6.15,1.44-7.89-2.21-8.43-23.77-9.19-25.87-3.27-7.88-3.27-7.88,1.29,10,2.16,13.18,5.47,21.34,4.8,23.87,2.94,11.19-1.74,13.58-9.73-2.84-9.91-8-4-17.65-4.91-21.39c0,0-4-18.19-4.42-19.25,0,0,1.15,27.52,1.46,30.5s1.62,16,0,18.33c0,0-2.36,3.73-5.43,3.12s-4.95-5.62-5.71-10.46-4.69-35.37-5.16-37.24a78.218,78.218,0,0,1-1.79-9.77Z" fill="#4cc1f0"/>
      <g id="Grupo_75193" data-name="Grupo 75193">
        <path id="Trazado_161968" data-name="Trazado 161968" d="M134.85,292.32c-1.78-4.84-1.44-12.53-1.39-15.89.07-4.66-1-25.62,2.35-30.61s6.46-14.61,4.2-20.67-6.34-16.59-6.16-20.17,3.25-.33,5.69-3.32,3.18-6.34,7-6.19,7.37,2.42,10.56-1.12a21.12,21.12,0,0,0,3.79-5.43,10.731,10.731,0,0,0-2.08.94s-4.35,3.38-7.91,2.71-6.85-2.18-9.61-1.08-3.45,4.87-6.17,5.14-6.12-2.86-7.8.8c0,0,4.82,16.67,4.84,21s-1.65,20.07-1.71,27.47-.48,15-.8,18.13-.5,25.92,2,27.93a3.2,3.2,0,0,0,3.2.36Z" fill="#00aed7"/>
        <path id="Trazado_161969" data-name="Trazado 161969" d="M184.89,251.51a47.2,47.2,0,0,1-.28-9L188,246s5.38,6.49,10.55,9.59c3.31,2,9.38,3.44,9.61.08a3.87,3.87,0,0,1-4-.1c-3-2.16-7.85-9.87-9.62-11.06a18.88,18.88,0,0,1-5.23-5.76c-1.34-2.33-5.56-9-6.65-6.17S183,247.9,184.89,251.51Z" fill="#00aed7"/>
        <path id="Trazado_161970" data-name="Trazado 161970" d="M174.13,256.7c-2.73,0-1,5.59,1.87,14,.76,2.1,7.46,22.22,9.19,25.87,1.42,3,4.84,3.94,6.82,3.07-2.08-2.47-3.41-6.67-4.33-8.25-1.52-2.58-6.33-12.21-7-15.7S176.86,256.69,174.13,256.7Z" fill="#00aed7"/>
        <path id="Trazado_161971" data-name="Trazado 161971" d="M172.62,305c-.39-5.16.45-7.71-1.24-12.19s-5.38-8.48-5-10.43.61-14.3-2.13-20.31-6.05-14.41-6.41-9.87c-.15,1.9.37,9.37,1.11,17.63-.13-3-.21-5-.21-5,.37,1.06,4.42,19.25,4.42,19.25.92,3.74,4.72,16.21,4.91,21.39s5.23,10.41,9.91,8a3.87,3.87,0,0,0,1.41-1.2C176.11,312.2,172.9,308.75,172.62,305Z" fill="#00aed7"/>
        <path id="Trazado_161972" data-name="Trazado 161972" d="M149,306.32c.76,4.84,2.64,9.85,5.71,10.46l.3.05a159.593,159.593,0,0,1-3.73-18.68c-.55-5.42-2.88-25.7-3.19-31.41s-2-16.77-4.45-16.79c-.88,0-1.31,4.09-1.52,9.54a84.651,84.651,0,0,0,1.72,9.59C144.29,271,148.2,301.47,149,306.32Z" fill="#00aed7"/>
      </g>
      <path id="Trazado_161973" data-name="Trazado 161973" d="M179.07,187.45a3.45,3.45,0,0,0-.34-1.26c-1-1.61-9.77,2.36-9.77,2.36s-5.72-1.3-10.13,1.31c0,0-4.35,3.38-7.91,2.71s-6.85-2.18-9.61-1.08-3.45,4.87-6.17,5.14-6.12-2.86-7.8.8c0,0,.11.4.31,1.09a5.579,5.579,0,0,0,1-.4c.95-.52,3.71.31,6.89.67s3.72-2.57,5.56-4.67,5.71-.31,7.53.19,3.56,1.28,6.37-.65,8.45-4.28,12.07-3.69,3.39-.34,3.39-.34C173.13,187.82,177.19,187.5,179.07,187.45Z" fill="#88cfeb"/>
    </g>
    <g id="Grupo_75196" data-name="Grupo 75196">
      <path id="Trazado_161974" data-name="Trazado 161974" d="M124.31,197.27s1.42-4.12-4.19-7.16-12.9,1.74-17.25-2.5-2.54-8.92-8.21-9.74-15.19,7.77-19.41,5.75S81.31,196,82.54,197,124.31,197.27,124.31,197.27Z" fill="#1380a0"/>
      <path id="Trazado_161975" data-name="Trazado 161975" d="M106.94,258.55c0-4,.33,4.88.87,6.82s.1,18.77.9,21.77,4.77,6.28,7.32,4.38,3.33-24.69,3.14-27.82-.27-10.76,0-18.15-.77-23.22-.56-27.52,5.73-20.76,5.73-20.76c-1.52-3.73-5.06-.73-7.76-1.12s-3.24-4.18-5.94-5.4-6.08.17-9.66.68-7.79-3.05-7.79-3.05c-4.29-2.79-10.06-1.73-10.06-1.73s-8.61-4.34-9.66-2.77S73.11,193,72.53,197s-3.07,11.66-4.07,14.82c0,0-6.21,8.38-9,12.38s-8,10.44-12,16.41c-4.23,6.31-4.6,5.18-6.14,10.12s5.62,3.68,9.39,1.63c5.3-2.88,11-9.14,11-9.14l3.51-3.34a47.09,47.09,0,0,1-2.41,15.87c-2.78,7.85-6.66,22.14-7.52,26.14s-2.25,11.78-.91,13.9,6.08,1.71,8-1.87,9.43-23.39,10.29-25.47,3.59-7.73,3.59-7.73-1.71,9.93-2.72,13.08-6.36,21.09-5.8,23.64-3.41,11.06,1.16,13.65,9.84-2.43,10.25-7.6,4.72-17.46,5.8-21.16c0,0,4.82-18,5.24-19,0,0-2.32,27.44-2.75,30.4s-2.3,15.89-.72,18.32c0,0,2.19,3.83,5.29,3.35s5.18-5.41,6.16-10.22,6.17-35.13,6.71-37A76.732,76.732,0,0,0,106.94,258.55Z" fill="#4cc1f0"/>
      <g id="Grupo_75195" data-name="Grupo 75195">
        <path id="Trazado_161976" data-name="Trazado 161976" d="M112.8,291.76c2-4.76,2-12.45,2.06-15.81.12-4.66,2-25.56-1.07-30.68s-5.83-14.87-3.31-20.83,7-16.31,7-19.89-3.23-.47-5.53-3.55-2.92-6.48-6.77-6.49-7.45,2.11-10.5-1.57a20.88,20.88,0,0,1-3.55-5.58,10.721,10.721,0,0,1,2,1s4.21,3.56,7.79,3.05,7-1.89,9.66-.68,3.23,5,5.94,5.4,6.24-2.61,7.76,1.12c0,0-5.53,16.46-5.73,20.76s.79,20.13.56,27.52-.17,15,0,18.15-.6,25.92-3.14,27.82a3.19,3.19,0,0,1-3.17.26Z" fill="#00aed7"/>
        <path id="Trazado_161977" data-name="Trazado 161977" d="M64.51,248.88a47.191,47.191,0,0,0,.67-9l-3.51,3.34s-5.65,6.26-11,9.14c-3.39,1.85-9.52,3-9.6-.32a3.87,3.87,0,0,0,4,.06c3-2,8.26-9.53,10.07-10.64a18.58,18.58,0,0,0,5.46-5.53c1.44-2.27,6-8.77,6.92-5.88S66.6,245.35,64.51,248.88Z" fill="#00aed7"/>
        <path id="Trazado_161978" data-name="Trazado 161978" d="M75.05,254.51c2.73.13.79,5.63-2.45,13.95-.86,2.08-8.39,21.89-10.29,25.47-1.55,2.92-5,3.73-6.94,2.77,2.19-2.38,3.69-6.51,4.68-8.05,1.63-2.51,6.84-11.94,7.62-15.4S72.31,254.4,75.05,254.51Z" fill="#00aed7"/>
        <path id="Trazado_161979" data-name="Trazado 161979" d="M74.52,302.85c.61-5.14-.11-7.73,1.76-12.13s5.72-8.25,5.46-10.21,0-14.3,3-20.19,6.66-14.15,6.83-9.6c.07,1.9-.76,9.35-1.85,17.57.25-3,.42-5,.42-5-.42,1-5.24,19-5.24,19-1.08,3.7-5.41,16-5.8,21.16s-5.67,10.18-10.25,7.6a4.13,4.13,0,0,1-1.36-1.26C70.73,309.89,74.09,306.57,74.52,302.85Z" fill="#00aed7"/>
        <path id="Trazado_161980" data-name="Trazado 161980" d="M98.1,305.15c-1,4.81-3.06,9.74-6.16,10.22h-.31a156,156,0,0,0,4.51-18.51c.79-5.38,4-25.55,4.52-31.24s2.7-16.67,5.15-16.59c.89,0,1.15,4.15,1.13,9.6a85,85,0,0,1-2.13,9.51C104.27,270,99.07,300.34,98.1,305.15Z" fill="#00aed7"/>
      </g>
      <path id="Trazado_161981" data-name="Trazado 161981" d="M73,185.12a3.59,3.59,0,0,1,.4-1.24c1-1.57,9.66,2.77,9.66,2.77s5.77-1.06,10.06,1.73c0,0,4.21,3.56,7.79,3.05s7-1.89,9.66-.68,3.23,5,5.94,5.4,6.24-2.61,7.76,1.12l-.36,1.09a5.672,5.672,0,0,1-1-.44c-.93-.56-3.74.14-6.93.37s-3.6-2.72-5.35-4.9-5.69-.55-7.54-.13-3.61,1.13-6.33-.91-8.27-4.64-11.91-4.2-3.36-.49-3.36-.49C79,185.74,74.92,185.25,73,185.12Z" fill="#88cfeb"/>
    </g>
  </g>
  <g id="Grupo_75202" data-name="Grupo 75202">
    <path id="Trazado_161982" data-name="Trazado 161982" d="M173.2,66.23C158.73,51.77,112,40.09,112,40.09h0S65.28,51.77,50.81,66.23c-10.25,10.26-3.17,44.5,7.22,58.88,11.73,16.23,54,32.35,54,32.35h0s42.25-16.12,54-32.35C176.38,110.73,183.46,76.49,173.2,66.23Z" fill="#c1c9d6"/>
    <path id="Trazado_161983" data-name="Trazado 161983" d="M167.4,69.32C154.3,56.23,112,45.66,112,45.65h0S69.7,56.23,56.62,69.32c-9.29,9.29-2.88,40.28,6.53,53.3C73.76,137.31,112,151.9,112,151.9h0s38.25-14.59,48.86-29.28C170.28,109.6,176.68,78.61,167.4,69.32Z" fill="#f9f7f9"/>
    <path id="Trazado_161984" data-name="Trazado 161984" d="M112,45.65s26.7,54,10,62.3c-12.32,6.16-54.2-5.06-65,2.61a51.56,51.56,0,0,0,6.13,12.06C73.76,137.31,112,151.9,112,151.9h0s38.25-14.59,48.86-29.28c9.41-13,15.81-44,6.53-53.3C154.3,56.23,112,45.66,112,45.65Z" fill="#c1c9d6" opacity="0.4"/>
    <g id="Grupo_75198" data-name="Grupo 75198">
      <path id="Trazado_161985" data-name="Trazado 161985" d="M156.75,117.93s-21.69,13.28-39.21,18.74" fill="none" stroke="#c1c9d6" stroke-linecap="round" stroke-miterlimit="10" stroke-width="2.48"/>
      <path id="Trazado_161986" data-name="Trazado 161986" d="M156.75,111.37s-21.69,13.27-39.21,18.72" fill="none" stroke="#c1c9d6" stroke-linecap="round" stroke-miterlimit="10" stroke-width="2.48"/>
      <path id="Trazado_161987" data-name="Trazado 161987" d="M156.75,102s-21.69,13.27-39.21,18.73" fill="none" stroke="#c1c9d6" stroke-linecap="round" stroke-miterlimit="10" stroke-width="2.48"/>
    </g>
    <g id="Grupo_75199" data-name="Grupo 75199">
      <path id="Trazado_161988" data-name="Trazado 161988" d="M67.49,117.93s21.69,13.28,39.21,18.74" fill="none" stroke="#c1c9d6" stroke-linecap="round" stroke-miterlimit="10" stroke-width="2.48"/>
      <path id="Trazado_161989" data-name="Trazado 161989" d="M67.49,111.37s21.69,13.27,39.21,18.72" fill="none" stroke="#c1c9d6" stroke-linecap="round" stroke-miterlimit="10" stroke-width="2.48"/>
      <path id="Trazado_161990" data-name="Trazado 161990" d="M67.49,102s21.69,13.27,39.21,18.73" fill="none" stroke="#c1c9d6" stroke-linecap="round" stroke-miterlimit="10" stroke-width="2.48"/>
    </g>
    <path id="Trazado_161991" data-name="Trazado 161991" d="M165.51,75.23S138,68.56,124.63,67.72" fill="none" stroke="#c1c9d6" stroke-linecap="round" stroke-miterlimit="10" stroke-width="2.48"/>
    <path id="Trazado_161992" data-name="Trazado 161992" d="M60,75.23s27.54-6.67,40.89-7.51" fill="none" stroke="#c1c9d6" stroke-linecap="round" stroke-miterlimit="10" stroke-width="2.48"/>
    <path id="Trazado_161993" data-name="Trazado 161993" d="M80.41,60.22s29.17-12.09,33.35-10.85,33.82,10.85,33.82,10.85" fill="none" stroke="#67778b" stroke-linecap="round" stroke-miterlimit="10" stroke-width="2.48"/>
    <g id="Grupo_75200" data-name="Grupo 75200">
      <path id="Trazado_161994" data-name="Trazado 161994" d="M33,90.66a29.53,29.53,0,0,0-4.22,18.78c1,8.12,8.6,36.39,3.39,50L27.45,155s1.19-13.34,0-21.7c-2.83-19.91-7-33.37-.18-38.93S33,90.66,33,90.66Z" fill="#acbac8"/>
      <path id="Trazado_161995" data-name="Trazado 161995" d="M55,82.55s-9.88-3.15-15.17-8l-1.95,5.56s5,5.19,17.12,8.16Z" fill="#94a6b5"/>
      <line id="Línea_300" data-name="Línea 300" y2="8.34" transform="translate(54.96 81.5)" fill="none" stroke="#67778b" stroke-linecap="round" stroke-miterlimit="10" stroke-width="2.48"/>
      <line id="Línea_301" data-name="Línea 301" x2="3.78" y2="8.48" transform="translate(59.96 111.37)" fill="none" stroke="#67778b" stroke-linecap="round" stroke-miterlimit="10" stroke-width="2.48"/>
      <path id="Trazado_161996" data-name="Trazado 161996" d="M55,82.55a103.421,103.421,0,0,1-14.6,3.11c-8,.79-10.17,2.83-12.91,6l-2.83,7.13s6.16-6.76,15.17-7C49.6,91.62,55,88.3,55,88.3Z" fill="#d9e0e9"/>
      <path id="Trazado_161997" data-name="Trazado 161997" d="M60.85,113.35s-4.15,1.56-8.76,9.34c0,0-15.18,28.65-24.64,32.27l4.73,4.45s11.13-9.18,15.58-18.08,13.3-23.15,15.13-23.4Z" fill="#d9e0e9"/>
    </g>
    <g id="Grupo_75201" data-name="Grupo 75201">
      <path id="Trazado_161998" data-name="Trazado 161998" d="M192.23,90.66a29.55,29.55,0,0,1,4.24,18.78c-1,8.12-8.61,36.39-3.4,50L197.8,155s-1.19-13.34,0-21.7c2.83-19.91,7-33.37.19-38.93S192.23,90.66,192.23,90.66Z" fill="#acbac8"/>
      <path id="Trazado_161999" data-name="Trazado 161999" d="M170.3,82.55s9.88-3.15,15.17-8l1.94,5.56s-5,5.19-17.11,8.16Z" fill="#94a6b5"/>
      <line id="Línea_302" data-name="Línea 302" y2="8.34" transform="translate(170.3 81.5)" fill="none" stroke="#67778b" stroke-linecap="round" stroke-miterlimit="10" stroke-width="2.48"/>
      <line id="Línea_303" data-name="Línea 303" x1="3.78" y2="8.48" transform="translate(161.51 111.37)" fill="none" stroke="#67778b" stroke-linecap="round" stroke-miterlimit="10" stroke-width="2.48"/>
      <path id="Trazado_162000" data-name="Trazado 162000" d="M170.3,82.55a103.153,103.153,0,0,0,14.59,3.11c8,.79,10.18,2.83,12.91,6l2.83,7.13s-6.16-6.76-15.16-7c-9.81-.2-15.17-3.52-15.17-3.52Z" fill="#d9e0e9"/>
      <path id="Trazado_162001" data-name="Trazado 162001" d="M164.4,113.35s4.16,1.56,8.76,9.34c0,0,15.19,28.65,24.64,32.27l-4.73,4.45s-11.13-9.18-15.58-18.08-13.29-23.15-15.13-23.4Z" fill="#d9e0e9"/>
    </g>
  </g>
  <g id="Grupo_75205" data-name="Grupo 75205">
    <path id="Trazado_162002" data-name="Trazado 162002" d="M325.74,85.46s4.65,30.85,6.65,36.42-14.46,11.6-29.23,11.11,9.51-43.47,12-43S325.74,85.46,325.74,85.46Z" fill="#658c92"/>
    <g id="Grupo_75203" data-name="Grupo 75203">
      <path id="Trazado_162003" data-name="Trazado 162003" d="M245.87,100.63s-12.64,80.06-12.64,86.13S244.64,200,254.5,200.42s21.36-3.41,27.57-17.07,33.14-83.1,40.34-85.76,53.89-31.49,55-31.87,6.25-35.28,3-35.67-71.34,28.08-71.34,28.08Z" fill="#f0f2f1"/>
      <path id="Trazado_162004" data-name="Trazado 162004" d="M348.59,26.26S275,55.1,271.19,58.13s47,5.32,47,5.32l62.23-33.4Z" fill="#9bb2b7"/>
      <path id="Trazado_162005" data-name="Trazado 162005" d="M271.19,58.13s-22,33.4-22.78,36.43-5.3,6.82,0,9.1,38.71,0,38.71,0a29,29,0,0,0,11.39-7.58c4.55-5.32,19.72-32.63,19.72-32.63s0-4.56-9.11-5.32S271.19,58.13,271.19,58.13Z" fill="#b7ced3"/>
    </g>
    <g id="Grupo_75204" data-name="Grupo 75204">
      <path id="Trazado_162006" data-name="Trazado 162006" d="M245.87,100.63s-12.64,80.06-12.64,86.13S244.64,200,254.5,200.42s21.36-3.41,27.57-17.07,29.54-74.79,36.16-78.67c11.42-6.69,58.07-38.58,59.19-39s6.25-35.28,3-35.67-71.34,28.08-71.34,28.08Z" fill="#f0f2f1"/>
      <path id="Trazado_162007" data-name="Trazado 162007" d="M318.23,104.68c11.42-6.69,58.07-38.58,59.19-39,.47-.15,1.55-5.81,2.49-12.58-15.42,9.6-68.84,42.88-72.53,45.47,0,0-35.17,80.44-39.74,84-4,3.14-21.64,12.65-34.39,4.12h0c0,6.07,11.41,13.28,21.27,13.66s21.36-3.41,27.57-17.07S311.61,108.56,318.23,104.68Z" fill="#b7ced3" opacity="0.5"/>
      <path id="Trazado_162008" data-name="Trazado 162008" d="M247.46,199.13c1.33-23.62,17.21-107.69,17.37-108.55l-3-.57c-.66,3.49-15.68,83.05-17.34,108C245.46,198.43,246.46,198.8,247.46,199.13Z" fill="#b7ced3"/>
      <path id="Trazado_162009" data-name="Trazado 162009" d="M348.59,26.26S275,55.1,271.19,58.13s47,5.32,47,5.32l62.23-33.4Z" fill="#9bb2b7"/>
      <path id="Trazado_162010" data-name="Trazado 162010" d="M271.19,58.13s-22,33.4-22.78,36.43-5.3,6.82,0,9.1,38.71,0,38.71,0a29,29,0,0,0,11.39-7.58c4.55-5.32,19.72-32.63,19.72-32.63s0-4.56-9.11-5.32S271.19,58.13,271.19,58.13Z" fill="#b7ced3"/>
    </g>
    <path id="Trazado_162011" data-name="Trazado 162011" d="M363.6,74.84l2.7-37.18-30.39-6.41,12.68-5,31.87,3.79s8.1,6.33,0,35.67Z" fill="#658c92"/>
    <path id="Trazado_162012" data-name="Trazado 162012" d="M366.31,37.66l-30.4-6.41,12.68-4.99,31.87,3.79Z" fill="#89aeb1"/>
    <path id="Trazado_162013" data-name="Trazado 162013" d="M307.38,66.74S300.71,84.45,294.63,90s-37.11,0-37.11,0L271,63.45Z" fill="#65a4d9"/>
  </g>
  <g id="Grupo_75210" data-name="Grupo 75210">
    <path id="Trazado_162014" data-name="Trazado 162014" d="M367.16,312.41c23.68,0,42.87,1.36,42.87,3s-19.19,3-42.87,3-42.86-1.36-42.86-3S343.49,312.41,367.16,312.41Z" fill-rule="evenodd" opacity="0.3"/>
    <g id="Grupo_75209" data-name="Grupo 75209">
      <path id="Trazado_162015" data-name="Trazado 162015" d="M344.4,315.46h45.53c6.32,0,10.74-5.74,11.49-12.68l8.75-80.71c4.38-40.36-90.41-40.57-86,0l8.75,80.71C333.66,309.72,338.08,315.46,344.4,315.46Z" fill="#fff" fill-rule="evenodd" opacity="0.3"/>
      <rect id="Rectángulo_32689" data-name="Rectángulo 32689" width="14.2" height="12.78" transform="translate(360.06 192.71)" fill="#fff"/>
      <rect id="Rectángulo_32690" data-name="Rectángulo 32690" width="3.17" height="99.7" transform="translate(365.58 205.5)" fill="#fff" opacity="0.5"/>
      <path id="Trazado_162016" data-name="Trazado 162016" d="M367.16,307.61c9.6,0,18,2.65,22.77,6.63H344.4C349.15,310.26,357.57,307.61,367.16,307.61Z" fill="#fff" fill-rule="evenodd" opacity="0.3"/>
      <rect id="Rectángulo_32691" data-name="Rectángulo 32691" width="14.2" height="2.73" transform="translate(360.06 192.71)" fill="#00262c" opacity="0.15"/>
      <path id="Trazado_162017" data-name="Trazado 162017" d="M344.4,314.24h45.53a8.6,8.6,0,0,0,4-1c3.83-2,5.82-6.5,6.27-10.62l8.8-80.68a20.32,20.32,0,0,0-2.17-12c-3.23-6.07-9.37-10.12-15.6-12.66a69,69,0,0,0-47.93-.11c-6.23,2.51-12.38,6.53-15.65,12.58a20.41,20.41,0,0,0-2.24,12.18l8.75,80.71c.44,4.12,2.44,8.62,6.27,10.62A8.6,8.6,0,0,0,344.4,314.24Z" fill="#00ddf1" fill-rule="evenodd" opacity="0.3"/>
      <path id="Trazado_162018" data-name="Trazado 162018" d="M344.4,314.24h45.53a8.6,8.6,0,0,0,4-1c3.83-2,5.82-6.5,6.27-10.62l8.8-80.68a20.63,20.63,0,0,0-1.44-10.45c-23.56,12.49-53.72-12.65-80.27-1a20.53,20.53,0,0,0-1.88,11.49l8.75,80.71c.44,4.12,2.44,8.62,6.27,10.62A8.6,8.6,0,0,0,344.4,314.24Z" fill="#fff" fill-rule="evenodd" opacity="0.3"/>
      <path id="Trazado_162019" data-name="Trazado 162019" d="M407.52,211.49c-23.56,12.49-55-12.55-80.27-1C355.34,224.91,398.5,223,407.52,211.49Z" fill="#fff" fill-rule="evenodd" opacity="0.3"/>
      <circle id="Elipse_4899" data-name="Elipse 4899" cx="27.27" cy="27.27" r="27.27" transform="matrix(0.123, -0.992, 0.992, 0.123, 336.763, 272.599)" fill="#fff"/>
      <circle id="Elipse_4900" data-name="Elipse 4900" cx="25.65" cy="25.65" r="25.65" transform="translate(338.575 271.213) rotate(-82.98)" fill="#fff" stroke="#00bcce" stroke-miterlimit="22.93" stroke-width="1.2"/>
      <path id="Trazado_162020" data-name="Trazado 162020" d="M372.81,254.53h11.31V243.22H372.81v-11.3h-11.3v11.3h-11.3v11.31h11.3v11.3h11.3Z" fill="#ff6496" fill-rule="evenodd"/>
      <rect id="Rectángulo_32692" data-name="Rectángulo 32692" width="7.68" height="32.47" transform="translate(363.3 161.29)" fill="#fff"/>
      <path id="Trazado_162021" data-name="Trazado 162021" d="M371,164.8v-3.51h-6c-.57.12-1.14.22-1.71.31v4.77C365.86,166,368.42,165.41,371,164.8Z" fill="#b9e9ee" fill-rule="evenodd"/>
      <path id="Trazado_162022" data-name="Trazado 162022" d="M350.83,163.84l1.35-4.66c14.91,4.35,31.22-11,48.15.3l-2.7,4.05C383.37,154,366.51,168.41,350.83,163.84Z" fill="#fff" fill-rule="evenodd"/>
      <rect id="Rectángulo_32693" data-name="Rectángulo 32693" width="27.34" height="21.85" rx="1.46" transform="translate(353.3 171.92)" fill="#fff"/>
      <path id="Trazado_162023" data-name="Trazado 162023" d="M379.18,171.92a1.5,1.5,0,0,0-1.49-1.5H356.26a1.5,1.5,0,0,0-1.5,1.5Z" fill="#b9e9ee" fill-rule="evenodd"/>
      <g id="Grupo_75206" data-name="Grupo 75206">
        <rect id="Rectángulo_32694" data-name="Rectángulo 32694" width="1.01" height="18.76" transform="translate(354.33 173.46)" fill="#b9e9ee"/>
        <rect id="Rectángulo_32695" data-name="Rectángulo 32695" width="1.01" height="18.76" transform="translate(356.36 173.46)" fill="#b9e9ee"/>
        <rect id="Rectángulo_32696" data-name="Rectángulo 32696" width="1.01" height="18.76" transform="translate(358.38 173.46)" fill="#b9e9ee"/>
        <rect id="Rectángulo_32697" data-name="Rectángulo 32697" width="1.01" height="18.76" transform="translate(360.4 173.46)" fill="#b9e9ee"/>
        <rect id="Rectángulo_32698" data-name="Rectángulo 32698" width="1.01" height="18.76" transform="translate(362.42 173.46)" fill="#b9e9ee"/>
        <rect id="Rectángulo_32699" data-name="Rectángulo 32699" width="1.01" height="18.76" transform="translate(364.44 173.46)" fill="#b9e9ee"/>
        <rect id="Rectángulo_32700" data-name="Rectángulo 32700" width="1.01" height="18.76" transform="translate(366.47 173.46)" fill="#b9e9ee"/>
        <rect id="Rectángulo_32701" data-name="Rectángulo 32701" width="1.01" height="18.76" transform="translate(368.49 173.46)" fill="#b9e9ee"/>
        <rect id="Rectángulo_32702" data-name="Rectángulo 32702" width="1.01" height="18.76" transform="translate(370.51 173.46)" fill="#b9e9ee"/>
        <rect id="Rectángulo_32703" data-name="Rectángulo 32703" width="1.01" height="18.76" transform="translate(372.53 173.46)" fill="#b9e9ee"/>
        <rect id="Rectángulo_32704" data-name="Rectángulo 32704" width="1.01" height="18.76" transform="translate(374.56 173.46)" fill="#b9e9ee"/>
        <rect id="Rectángulo_32705" data-name="Rectángulo 32705" width="1.01" height="18.76" transform="translate(376.58 173.46)" fill="#b9e9ee"/>
        <rect id="Rectángulo_32706" data-name="Rectángulo 32706" width="1.01" height="18.76" transform="translate(378.6 173.46)" fill="#b9e9ee"/>
      </g>
      <path id="Trazado_162024" data-name="Trazado 162024" d="M344.91,199.57c-5.93,1.64-13.17,9-15.1,14.27-2.83,7.79-.11,26.63,1.48,31.87.52,1.73,2.36,1.31,2.26-.55-.28-5.28-2.39-20.64,1.25-28.92,2.72-6.21,7.06-11.73,11.34-14.55C348.31,200.26,347.74,198.79,344.91,199.57Z" fill="#fff" fill-rule="evenodd" opacity="0.3"/>
      <path id="Trazado_162025" data-name="Trazado 162025" d="M396.43,202.67c3.61,1,8,6.82,9.37,10.73,2.18,6.35.86,15.12-.1,18.3-.32,1.05-1.44.79-1.38-.34.17-3.21.77-10.94-1.1-16.11-1.43-3.94-4.93-9.58-7.54-11.29C394.37,203.09,394.71,202.2,396.43,202.67Z" fill="#fff" fill-rule="evenodd" opacity="0.3"/>
      <g id="Grupo_75207" data-name="Grupo 75207">
        <path id="Trazado_162026" data-name="Trazado 162026" d="M340.85,270.08a1.36,1.36,0,1,1-1.36,1.36,1.36,1.36,0,0,1,1.36-1.36Z" fill="#d5f5ff" fill-rule="evenodd" opacity="0.5"/>
        <path id="Trazado_162027" data-name="Trazado 162027" d="M336,226.3a1.36,1.36,0,1,1-1.36,1.36A1.36,1.36,0,0,1,336,226.3Z" fill="#fff" fill-rule="evenodd" opacity="0.75"/>
        <path id="Trazado_162028" data-name="Trazado 162028" d="M400.66,227.21a1.35,1.35,0,1,1-.783-.685,1.36,1.36,0,0,1,.783.685Z" fill="#fff" fill-rule="evenodd" opacity="0.75"/>
        <path id="Trazado_162029" data-name="Trazado 162029" d="M385.5,297a1.36,1.36,0,1,1-1.36,1.36A1.36,1.36,0,0,1,385.5,297Z" fill="#fff" fill-rule="evenodd" opacity="0.75"/>
        <path id="Trazado_162030" data-name="Trazado 162030" d="M336.12,231.77a1.36,1.36,0,1,1-1.36,1.36,1.36,1.36,0,0,1,1.36-1.36Z" fill="#d5f5ff" fill-rule="evenodd" opacity="0.5"/>
        <path id="Trazado_162031" data-name="Trazado 162031" d="M398.19,261.13a.81.81,0,1,1-.579.234A.81.81,0,0,1,398.19,261.13Z" fill="#d5f5ff" fill-rule="evenodd" opacity="0.5"/>
        <path id="Trazado_162032" data-name="Trazado 162032" d="M330.81,228.38a.81.81,0,1,1-.81.81A.81.81,0,0,1,330.81,228.38Z" fill="#d5f5ff" fill-rule="evenodd" opacity="0.5"/>
        <path id="Trazado_162033" data-name="Trazado 162033" d="M339.18,275a.81.81,0,1,1-.81.81A.81.81,0,0,1,339.18,275Z" fill="#fff" fill-rule="evenodd" opacity="0.75"/>
        <path id="Trazado_162034" data-name="Trazado 162034" d="M392.82,294.54a.81.81,0,1,1-.81.81.81.81,0,0,1,.81-.81Z" fill="#d5f5ff" fill-rule="evenodd" opacity="0.5"/>
        <path id="Trazado_162035" data-name="Trazado 162035" d="M388.17,292.3a.81.81,0,1,1-.81.81A.81.81,0,0,1,388.17,292.3Z" fill="#d5f5ff" fill-rule="evenodd" opacity="0.5"/>
        <path id="Trazado_162036" data-name="Trazado 162036" d="M354.56,291.08a1.36,1.36,0,1,1-1.36,1.36A1.36,1.36,0,0,1,354.56,291.08Z" fill="#fff" fill-rule="evenodd" opacity="0.75"/>
        <path id="Trazado_162037" data-name="Trazado 162037" d="M356.5,294.54a.81.81,0,1,1-.81.81A.81.81,0,0,1,356.5,294.54Z" fill="#d5f5ff" fill-rule="evenodd" opacity="0.5"/>
        <path id="Trazado_162038" data-name="Trazado 162038" d="M349.24,298.1a1.36,1.36,0,1,1-1.36,1.36A1.36,1.36,0,0,1,349.24,298.1Z" fill="#d5f5ff" fill-rule="evenodd" opacity="0.5"/>
        <path id="Trazado_162039" data-name="Trazado 162039" d="M405.36,231.15a1.36,1.36,0,1,1-1.82-.62,1.36,1.36,0,0,1,1.82.62Z" fill="#d5f5ff" fill-rule="evenodd" opacity="0.5"/>
        <path id="Trazado_162040" data-name="Trazado 162040" d="M395.43,267.94a1.36,1.36,0,1,1-1.36,1.36,1.36,1.36,0,0,1,1.36-1.36Z" fill="#d5f5ff" fill-rule="evenodd" opacity="0.5"/>
      </g>
      <g id="Grupo_75208" data-name="Grupo 75208">
        <rect id="Rectángulo_32707" data-name="Rectángulo 32707" width="1.01" height="0.22" transform="translate(354.33 173.46)" fill="#a0dee4"/>
        <rect id="Rectángulo_32708" data-name="Rectángulo 32708" width="1.01" height="0.22" transform="translate(356.36 173.46)" fill="#a0dee4"/>
        <rect id="Rectángulo_32709" data-name="Rectángulo 32709" width="1.01" height="0.22" transform="translate(358.38 173.46)" fill="#a0dee4"/>
        <rect id="Rectángulo_32710" data-name="Rectángulo 32710" width="1.01" height="0.22" transform="translate(360.4 173.46)" fill="#a0dee4"/>
        <rect id="Rectángulo_32711" data-name="Rectángulo 32711" width="1.01" height="0.22" transform="translate(362.42 173.46)" fill="#a0dee4"/>
        <rect id="Rectángulo_32712" data-name="Rectángulo 32712" width="1.01" height="0.22" transform="translate(364.44 173.46)" fill="#a0dee4"/>
        <rect id="Rectángulo_32713" data-name="Rectángulo 32713" width="1.01" height="0.22" transform="translate(366.47 173.46)" fill="#a0dee4"/>
        <rect id="Rectángulo_32714" data-name="Rectángulo 32714" width="1.01" height="0.22" transform="translate(368.49 173.46)" fill="#a0dee4"/>
        <rect id="Rectángulo_32715" data-name="Rectángulo 32715" width="1.01" height="0.22" transform="translate(370.51 173.46)" fill="#a0dee4"/>
        <rect id="Rectángulo_32716" data-name="Rectángulo 32716" width="1.01" height="0.22" transform="translate(372.53 173.46)" fill="#a0dee4"/>
        <rect id="Rectángulo_32717" data-name="Rectángulo 32717" width="1.01" height="0.22" transform="translate(374.56 173.46)" fill="#a0dee4"/>
        <rect id="Rectángulo_32718" data-name="Rectángulo 32718" width="1.01" height="0.22" transform="translate(376.58 173.46)" fill="#a0dee4"/>
        <rect id="Rectángulo_32719" data-name="Rectángulo 32719" width="1.01" height="0.22" transform="translate(378.6 173.46)" fill="#a0dee4"/>
      </g>
    </g>
  </g>
</svg>
