<svg id="Capa_2" data-name="Capa 2" xmlns="http://www.w3.org/2000/svg" xmlns:xlink="http://www.w3.org/1999/xlink" width="143" height="143" viewBox="0 0 143 143">
  <defs>
    <clipPath id="clip-path">
      <circle id="Elipse_4734" data-name="Elipse 4734" cx="71.5" cy="71.5" r="71.5" fill="none"/>
    </clipPath>
  </defs>
  <circle id="Elipse_4733" data-name="Elipse 4733" cx="71.5" cy="71.5" r="71.5" fill="#81d4fa"/>
  <g id="Grupo_75140" data-name="Grupo 75140" clip-path="url(#clip-path)">
    <g id="Grupo_75139" data-name="Grupo 75139" transform="translate(-3.613 39.753)">
      <g id="Grupo_75136" data-name="Grupo 75136" transform="translate(70.955)">
        <path id="Trazado_161744" data-name="Trazado 161744" d="M138.738,100.435,122.222,62.6h0a15.858,15.858,0,0,0-3.255-4.617L99.762,38.929a14.716,14.716,0,0,0-9.152-3.751c-2.228,0-20.267-.727-20.44-.727a6.313,6.313,0,0,0-4.617,1.685L58.8,53.218a1.42,1.42,0,0,0-.4,1.281,1.431,1.431,0,0,0,.185,1.154l4.27,6.625a1.431,1.431,0,0,0,1.477.623h0a.739.739,0,0,0,.173.15l6.59,4.305a1.293,1.293,0,0,0,.589.208,1.316,1.316,0,0,0,.312.4L87.216,82.522a12.453,12.453,0,0,0,8.737,3.186l5.113-.173a3.843,3.843,0,0,1,3.613,2.239l9.522,34.475a1.431,1.431,0,0,0,1.385,1.085,1.533,1.533,0,0,0,.323,0,1.42,1.42,0,0,0,1.05-1.708L107.414,87a1.237,1.237,0,0,0-.081-.219,6.694,6.694,0,0,0-6.359-4.074l-5.113.162a9.476,9.476,0,0,1-6.752-2.458L73.966,65.81a1.362,1.362,0,0,0-.762-.323,1.373,1.373,0,0,0-.473-.554l-6.6-4.317a1.466,1.466,0,0,0-1.039-.208l-3.924-6.082,6.371-16.158a3.462,3.462,0,0,1,2.516-.935c.739,0,18.259.716,20.544.739A11.842,11.842,0,0,1,97.777,40.9l19.171,19.032a12.926,12.926,0,0,1,2.678,3.774l16.539,37.822a1.408,1.408,0,0,0,1.293.843,1.373,1.373,0,0,0,.566-.115A1.431,1.431,0,0,0,138.738,100.435Z" transform="translate(-58.348 -34.443)" fill="#fff"/>
        <path id="Trazado_161745" data-name="Trazado 161745" d="M115.532,122.926a1.42,1.42,0,0,0,1.05-1.708l-9.545-34.625a1.236,1.236,0,0,0-.081-.219A6.694,6.694,0,0,0,100.6,82.3l-5.113.162a9.476,9.476,0,0,1-6.752-2.424L73.59,65.437a1.362,1.362,0,0,0-.762-.323,1.374,1.374,0,0,0-.473-.554l-6.6-4.317a1.466,1.466,0,0,0-1.039-.208L60.79,53.954,67.161,37.8a3.462,3.462,0,0,1,2.516-.935c.739,0,18.259.716,20.544.739A11.842,11.842,0,0,1,97.4,40.531l19.171,19.032a12.926,12.926,0,0,1,2.678,3.774l16.539,37.822a1.408,1.408,0,0,0,1.293.843" transform="translate(-57.971 -34.071)" fill="#ffb9ae"/>
        <path id="Trazado_161746" data-name="Trazado 161746" d="M67.31,55.51a1.477,1.477,0,0,0,.45.277A1.408,1.408,0,0,0,69.6,55l2.666-6.6,10.618.75h.2l1.362,3.462a1.431,1.431,0,0,0,1.327.912,1.293,1.293,0,0,0,.508-.1,1.408,1.408,0,0,0,.808-1.835L84.219,44.28a1.42,1.42,0,1,0-2.643,1.027l.369.935-10.664-.75a1.42,1.42,0,0,0-1.523,1.316V47l-2.793,6.925A1.431,1.431,0,0,0,67.31,55.51Z" transform="translate(-57.036 -33.077)" fill="#fff"/>
      </g>
      <g id="Grupo_75137" data-name="Grupo 75137" transform="translate(0 1.675)">
        <path id="Trazado_161747" data-name="Trazado 161747" d="M84.356,76.781l-33.921-4,33.471-5.367a6.683,6.683,0,0,0,5.448-7.721h0A6.694,6.694,0,0,0,81.7,54.24L49.927,59.1l23.36-10.5h0a6.706,6.706,0,0,0,3.012-8.91h0a6.648,6.648,0,0,0-8.876-3.139L45.61,47.2a12.95,12.95,0,0,1-5.69,1.293c-2.308,0-5.586,0-7.664-.1L19.676,48h0c-4.19,0-9.984,2.193-12.026,5.771a3.67,3.67,0,0,1-3.243,1.87H-1.71a1.42,1.42,0,0,0-1.42,1.42,1.42,1.42,0,0,0,.408,1.019A1.42,1.42,0,0,0-1.71,58.5H4.4a6.463,6.463,0,0,0,5.678-3.3c1.154-2.077,5.505-4.386,9.533-4.374l12.569.392c2.1.069,5.367.1,7.721.115a15.766,15.766,0,0,0,6.925-1.593L68.6,39.086a3.809,3.809,0,0,1,2.932-.185,3.763,3.763,0,0,1,2.216,1.939h0a3.843,3.843,0,0,1-1.708,5.148L43.9,58.684A2.112,2.112,0,0,0,45.056,62.7l37-5.667a3.843,3.843,0,0,1,4.409,3.139h0a3.843,3.843,0,0,1-3.1,4.444L44.883,70.8a2.112,2.112,0,0,0,.092,4.19l39.034,4.617A3.866,3.866,0,0,1,87.345,83.9h0a3.832,3.832,0,0,1-4.305,3.324L46.949,82.979a2.112,2.112,0,0,0-.981,4.086L76.38,98.341a3.847,3.847,0,1,1-2.943,7.11h-.069l-39.415-12.7a1.42,1.42,0,0,0-.727,0l-.427-.577-1.235-2.435a46.824,46.824,0,0,0-.392-10.226c-1.154-7.606-4.4-12.7-9.233-14.75a1.42,1.42,0,0,0-1.847.762,1.362,1.362,0,0,0-.115.554,1.42,1.42,0,0,0,.877,1.3c9.66,4.04,7.929,22.3,7.906,22.483a1.408,1.408,0,0,0,.15.785L30.387,93.6h0l.1.127.069.115h0l5.321,6.5a2.308,2.308,0,0,0,.242.231L47.8,109.5a5.355,5.355,0,0,1-.6,7.11,1.016,1.016,0,0,1-1.373,0,1.8,1.8,0,0,0-.231-.185l-17.093-10.48c-6.5-6.186-16.481-15.881-17.843-17.8l-.069-.115a6.786,6.786,0,0,0-5.321-2.666H-1.71a1.42,1.42,0,0,0-1.008.42A1.42,1.42,0,0,0-3.13,86.8a1.42,1.42,0,0,0,1.42,1.408H5.215a3.855,3.855,0,0,1,2.193.669.5.5,0,0,0,.127.138l.831.808c2.158,2.92,16.631,16.7,18.305,18.282a1.8,1.8,0,0,0,.231.185l17.082,10.491a3.843,3.843,0,0,0,5.136-.1,8.218,8.218,0,0,0,.773-11.08,1.154,1.154,0,0,0-.242-.242L37.924,98.422l-1.581-1.916L72.4,108.048a6.671,6.671,0,0,0,5.078,0,6.6,6.6,0,0,0,3.6-3.624,6.683,6.683,0,0,0-3.647-8.714h0L52.6,86.476l30.124,3.532A6.671,6.671,0,0,0,90.2,84.237h0a6.683,6.683,0,0,0-5.84-7.456Z" transform="translate(3.13 -35.895)" fill="#fff"/>
        <path id="Trazado_161748" data-name="Trazado 161748" d="M-3.13,56.706a1.42,1.42,0,0,0,1.42,1.42H4.4a6.463,6.463,0,0,0,5.678-3.3c1.154-2.077,5.505-4.386,9.533-4.374l12.569.392c2.1.069,5.367.1,7.721.115a15.766,15.766,0,0,0,6.925-1.593L68.6,38.713a3.809,3.809,0,0,1,2.932-.185,3.763,3.763,0,0,1,2.216,1.939h0a3.843,3.843,0,0,1-1.708,5.148L43.9,58.31a2.112,2.112,0,0,0,1.154,4.016l37-5.667A3.843,3.843,0,0,1,86.468,59.8h0a3.843,3.843,0,0,1-3.1,4.444l-38.48,6.186a2.112,2.112,0,0,0,.092,4.19l39.034,4.617a3.866,3.866,0,0,1,3.336,4.293h0a3.832,3.832,0,0,1-4.305,3.324L46.949,82.605a2.112,2.112,0,0,0-.981,4.086L76.38,97.967a3.847,3.847,0,1,1-2.943,7.11h-.069l-39.415-12.7a1.42,1.42,0,0,0-.727,0L32.8,91.8l-1.235-2.435a46.824,46.824,0,0,0-.392-10.226c-1.154-7.606-4.4-12.7-9.233-14.75a1.42,1.42,0,0,0-1.847.762,1.362,1.362,0,0,0-.115.554,1.42,1.42,0,0,0,.877,1.3c9.66,4.04,7.929,22.3,7.906,22.483a1.408,1.408,0,0,0,.15.785l1.477,2.943h0l.1.127.069.115h0l5.321,6.5a2.308,2.308,0,0,0,.242.231l11.68,8.933a5.355,5.355,0,0,1-.6,7.11,1.016,1.016,0,0,1-1.373,0,1.8,1.8,0,0,0-.231-.185l-17.093-10.48c-6.5-6.186-16.481-15.881-17.843-17.8l-.069-.115a6.786,6.786,0,0,0-5.321-2.666H-1.71a1.42,1.42,0,0,0-1.008.42,1.42,1.42,0,0,0-.412,1.011" transform="translate(3.13 -35.521)" fill="#bf8b83"/>
      </g>
      <g id="Grupo_75138" data-name="Grupo 75138" transform="translate(75.363 20.629)">
        <path id="Trazado_161749" data-name="Trazado 161749" d="M86.119,68.467a1.223,1.223,0,0,1-.358,0L66.245,63.424h0a5.667,5.667,0,0,1,2.135-11.08l22.875,2a1.413,1.413,0,0,1-.242,2.816L68.068,55.148a2.831,2.831,0,0,0-1.1,5.528l19.494,5.009a1.4,1.4,0,0,1,1.016,1.72,1.42,1.42,0,0,1-1.362,1.062Z" transform="translate(-62.167 -52.317)" fill="#fff"/>
        <path id="Trazado_161750" data-name="Trazado 161750" d="M92.13,55.476a1.408,1.408,0,0,1-1.535,1.281L67.7,54.772A2.831,2.831,0,0,0,66.6,60.3l19.494,5.009a1.4,1.4,0,0,1,1.016,1.72" transform="translate(-61.795 -51.941)" fill="#ffb9ae"/>
      </g>
    </g>
  </g>
</svg>
