<svg xmlns="http://www.w3.org/2000/svg" width="101" height="101" viewBox="0 0 101 101">
  <g id="Capa_2" data-name="Capa 2" transform="translate(-0.113)">
    <circle id="Elipse_4904" data-name="Elipse 4904" cx="50.5" cy="50.5" r="50.5" transform="translate(0.113)" fill="#987ee9"/>
    <path id="Trazado_162110" data-name="Trazado 162110" d="M51.317,99.374A48.057,48.057,0,1,1,99.374,51.317,48.057,48.057,0,0,1,51.317,99.374Zm0-93.635A45.578,45.578,0,1,0,96.895,51.317,45.578,45.578,0,0,0,51.317,5.739Z" transform="translate(-0.593 -0.593)" fill="#fff"/>
    <g id="Grupo_75235" data-name="Grupo 75235" transform="translate(31.408 15.184)">
      <path id="Trazado_162111" data-name="Trazado 162111" d="M57.706,23.624A23.726,23.726,0,0,1,77.022,34.26V31.388A14.6,14.6,0,0,1,68.955,21.2L57.706,18.56,46.457,21.2A14.6,14.6,0,0,1,38.39,31.388v2.724A23.178,23.178,0,0,1,57.706,23.624Z" transform="translate(-38.39 -18.56)" fill="#81d4fa"/>
      <path id="Trazado_162112" data-name="Trazado 162112" d="M77.022,49.69A23.726,23.726,0,0,1,57.706,60.3,23.218,23.218,0,0,1,38.39,49.813v2.119c.025.744.957,8.476,19.316,16.011,18.351-7.494,19.283-15.217,19.332-15.994V51.6Z" transform="translate(-38.39 -24.222)" fill="#81d4fa"/>
    </g>
    <g id="Eye_care-Eye-Protect-Hand-Health_care-Medical" data-name="Eye care-Eye-Protect-Hand-Health care-Medical" transform="translate(9.875 9.93)">
      <path id="Trazado_162113" data-name="Trazado 162113" d="M60.181,33.72A8.181,8.181,0,1,0,68.363,41.9a8.181,8.181,0,0,0-8.181-8.181Zm0,13.614a5.449,5.449,0,1,1,5.441-5.449,5.449,5.449,0,0,1-5.441,5.449Z" transform="translate(-19.332 -16.063)" fill="#fff"/>
      <circle id="Elipse_4905" data-name="Elipse 4905" cx="2.724" cy="2.724" r="2.724" transform="translate(38.125 23.098)" fill="#81d4fa"/>
      <path id="Trazado_162114" data-name="Trazado 162114" d="M57.764,27.07A20.38,20.38,0,0,0,38.808,40.16a1.317,1.317,0,0,0,0,1A20.38,20.38,0,0,0,57.764,54.289,20.846,20.846,0,0,0,76.712,41.2a1.325,1.325,0,0,0,0-1.031,20.838,20.838,0,0,0-18.948-13.1Zm0,24.487A17.655,17.655,0,0,1,41.541,40.675,17.655,17.655,0,0,1,57.764,29.794,18.064,18.064,0,0,1,73.979,40.675,18.089,18.089,0,0,1,57.764,51.557Z" transform="translate(-16.915 -14.853)" fill="#fff"/>
      <path id="Trazado_162115" data-name="Trazado 162115" d="M81.047,44.75V27.569A1.374,1.374,0,0,0,80,26.236a9.49,9.49,0,0,1-7.363-9.269,1.35,1.35,0,0,0-1.047-1.317L56.863,12.18a1.145,1.145,0,0,0-.622,0L41.515,15.649a1.35,1.35,0,0,0-1.064,1.284A9.49,9.49,0,0,1,33.088,26.2a1.374,1.374,0,0,0-1.031,1.366V44.75c-.1,1.244-.2,12.272,24,21.7a1.358,1.358,0,0,0,.982,0C81.251,57.022,81.145,45.994,81.047,44.75ZM56.552,63.722C34.094,54.838,34.765,45.012,34.765,44.906a1.112,1.112,0,0,0,0-.164V28.559a12.166,12.166,0,0,0,8.353-10.537l13.434-3.158,13.434,3.158a12.166,12.166,0,0,0,8.337,10.537V44.75a.9.9,0,0,0,0,.147C78.339,45.012,79.01,54.838,56.552,63.722Z" transform="translate(-15.703 -12.137)" fill="#fff"/>
      <path id="Trazado_162116" data-name="Trazado 162116" d="M49.246,84.249,38.193,70.971A4.189,4.189,0,0,0,35.239,69.5a4.091,4.091,0,0,0-3.068,1.2l-.409.393a4.091,4.091,0,0,0-.5,5.154L35.485,82.6,24.178,77.3a6.815,6.815,0,0,1-3.919-6.16V62.741a4.091,4.091,0,0,0-4.05-4.091h-.049a4.091,4.091,0,0,0-4.091,4.091V73.213a12.125,12.125,0,0,0,3.616,8.631L34.029,100.2a6.774,6.774,0,0,0,4.819,1.988h9.981a1.358,1.358,0,0,0,1.358-1.358V86.867a4.091,4.091,0,0,0-.941-2.618ZM47.479,99.491H38.847A4.033,4.033,0,0,1,35.959,98.3L17.6,79.954a9.539,9.539,0,0,1-2.79-6.741V62.741a1.366,1.366,0,0,1,1.366-1.35,1.342,1.342,0,0,1,1.358,1.334v8.427a9.564,9.564,0,0,0,5.49,8.631l15.716,7.363a1.358,1.358,0,0,0,1.7-2.029l-6.93-10.374a1.35,1.35,0,0,1,.18-1.718l.393-.409a1.358,1.358,0,0,1,1.023-.393,1.334,1.334,0,0,1,.974.491l11.11,13.278a1.374,1.374,0,0,1,.319.875Z" transform="translate(-12.07 -20.597)" fill="#fff"/>
      <path id="Trazado_162117" data-name="Trazado 162117" d="M99.364,58.66a4.091,4.091,0,0,0-4.091,4.034v8.443a6.815,6.815,0,0,1-3.919,6.16L80.048,82.6,84.27,76.25a4.091,4.091,0,0,0-.5-5.154l-.409-.393a4.091,4.091,0,0,0-3.068-1.2,4.189,4.189,0,0,0-2.962,1.473L66.279,84.251a4.091,4.091,0,0,0-.949,2.618v13.99a1.358,1.358,0,0,0,1.366,1.358h9.981a6.774,6.774,0,0,0,4.819-1.988L99.839,81.846a12.125,12.125,0,0,0,3.592-8.656V62.742a4.091,4.091,0,0,0-4.066-4.082Zm1.35,14.554a9.539,9.539,0,0,1-2.79,6.742L79.565,98.3a4.033,4.033,0,0,1-2.888,1.194H68.046V86.869a1.374,1.374,0,0,1,.286-.875l11.11-13.278a1.35,1.35,0,0,1,1.906-.18l.09.082.393.409a1.35,1.35,0,0,1,.18,1.718l-6.93,10.374A1.358,1.358,0,0,0,75.475,87a1.334,1.334,0,0,0,1.309.1L92.5,79.735A9.564,9.564,0,0,0,97.99,71.1V62.742a1.35,1.35,0,0,1,1.334-1.35h0a1.366,1.366,0,0,1,1.366,1.366Z" transform="translate(-21.757 -20.599)" fill="#fff"/>
    </g>
  </g>
</svg>
