<svg xmlns="http://www.w3.org/2000/svg" width="101" height="101" viewBox="0 0 101 101">
  <g id="Capa_2" data-name="Capa 2" transform="translate(-0.371)">
    <circle id="Elipse_4902" data-name="Elipse 4902" cx="50.5" cy="50.5" r="50.5" transform="translate(0.371)" fill="#987ee9"/>
    <path id="Trazado_162091" data-name="Trazado 162091" d="M51.317,99.374A48.057,48.057,0,1,1,99.374,51.317,48.057,48.057,0,0,1,51.317,99.374Zm0-93.635A45.578,45.578,0,1,0,96.895,51.317,45.578,45.578,0,0,0,51.317,5.739Z" transform="translate(-0.593 -0.593)" fill="#fff"/>
    <g id="Grupo_75232" data-name="Grupo 75232" transform="translate(20.06 12.665)">
      <rect id="Rectángulo_32723" data-name="Rectángulo 32723" width="9.556" height="2.389" transform="translate(16.747 4.794)" fill="#fff"/>
      <rect id="Rectángulo_32724" data-name="Rectángulo 32724" width="2.389" height="2.389" transform="translate(28.7 4.794)" fill="#fff"/>
      <rect id="Rectángulo_32725" data-name="Rectángulo 32725" width="2.389" height="2.389" transform="translate(11.969 4.794)" fill="#fff"/>
      <rect id="Rectángulo_32726" data-name="Rectángulo 32726" width="7.167" height="2.389" transform="translate(17.942 66.915)" fill="#fff"/>
      <path id="Trazado_162092" data-name="Trazado 162092" d="M95.026,34.608H69.91V37H95.026a1.194,1.194,0,0,1,1.194,1.194V66.867a1.194,1.194,0,0,1-1.194,1.194H80.406l-8.042,4.033V68.061H56.82a1.194,1.194,0,0,1-1.194-1.194V38.191A1.194,1.194,0,0,1,56.82,37H67.553V21.452a5.981,5.981,0,0,0-5.972-5.972H30.492a5.981,5.981,0,0,0-5.972,5.972V83.589a5.989,5.989,0,0,0,5.972,5.972H61.581a5.989,5.989,0,0,0,5.972-5.972V70.45H69.91v5.514L80.938,70.45H95.026a3.592,3.592,0,0,0,3.583-3.583V38.191A3.592,3.592,0,0,0,95.026,34.608ZM53.22,38.191V66.867a3.592,3.592,0,0,0,3.6,3.583H60.4v2.389H31.769V32.219H60.387v2.389H56.82a3.592,3.592,0,0,0-3.6,3.583Zm9.556-3.583V29.814H29.322V75.228H62.776V70.45h2.389v7.167H26.933V27.441H65.165v7.167ZM30.517,17.885H61.606a3.592,3.592,0,0,1,3.559,3.583v3.583H26.933V21.469A3.592,3.592,0,0,1,30.517,17.885ZM61.606,87.172H30.517a3.592,3.592,0,0,1-3.583-3.583V80.006H65.165v3.583a3.592,3.592,0,0,1-3.583,3.583Z" transform="translate(-24.52 -15.48)" fill="#fff"/>
      <rect id="Rectángulo_32727" data-name="Rectángulo 32727" width="16.723" height="2.389" transform="translate(9.58 19.128)" fill="#81d4fa"/>
      <rect id="Rectángulo_32728" data-name="Rectángulo 32728" width="16.723" height="2.389" transform="translate(9.58 23.906)" fill="#81d4fa"/>
      <rect id="Rectángulo_32729" data-name="Rectángulo 32729" width="16.723" height="2.389" transform="translate(9.58 28.684)" fill="#81d4fa"/>
      <rect id="Rectángulo_32730" data-name="Rectángulo 32730" width="16.723" height="2.389" transform="translate(9.58 33.461)" fill="#81d4fa"/>
      <path id="Trazado_162093" data-name="Trazado 162093" d="M70.867,57.619h1.227a11.675,11.675,0,1,1,3.42,8.263,11.675,11.675,0,0,1-3.42-8.263H69.64A14.137,14.137,0,1,0,83.772,43.49,14.137,14.137,0,0,0,69.64,57.619Z" transform="translate(-32.726 -20.574)" fill="#fff"/>
      <path id="Trazado_162094" data-name="Trazado 162094" d="M91.666,59.385c-2.593-.286-4.909.164-4.909,0s.065-1.366-.311-1.014-.057.974-.736.671-1.98-.818-1.914-1.424-.18-3.273.924-2.831.867,1.194.867,1.194.679-.155.614-.335-.818-1.489-.311-2.225-.982-1.358-.3-2.659S87,49.125,86.634,48.544a8.565,8.565,0,0,0-.728-.875c-.311,0-.622-.049-.941-.049a10.717,10.717,0,0,0-7.879,3.461c-.524,1.227-1.293,3.665.1,4.909C79.1,57.691,82,57.9,82.56,58.378s2.405,1.039,2.405,1.53-1.293.556-1.113,2.348c.147,1.4,2.512,4.712,3.862,6.545a11.036,11.036,0,0,0,2.831-1.235,22.645,22.645,0,0,0,1.554-3.78C92.6,61.937,94.259,59.671,91.666,59.385Z" transform="translate(-33.955 -21.325)" fill="#81d4fa"/>
    </g>
  </g>
</svg>
