<svg id="Capa_2" data-name="Capa 2" xmlns="http://www.w3.org/2000/svg" width="101" height="101" viewBox="0 0 101 101">
  <circle id="Elipse_4901" data-name="Elipse 4901" cx="50.5" cy="50.5" r="50.5" fill="#987ee9"/>
  <g id="Grupo_75231" data-name="Grupo 75231" transform="translate(2.667 2.667)">
    <g id="Grupo_75229" data-name="Grupo 75229">
      <path id="Trazado_162079" data-name="Trazado 162079" d="M51.317,99.374A48.057,48.057,0,1,1,99.374,51.317,48.057,48.057,0,0,1,51.317,99.374Zm0-93.635A45.578,45.578,0,1,0,96.895,51.317,45.578,45.578,0,0,0,51.317,5.739Z" transform="translate(-3.26 -3.26)" fill="#fff"/>
      <g id="Grupo_75226" data-name="Grupo 75226" transform="translate(7.805 10.014)">
        <path id="Trazado_162080" data-name="Trazado 162080" d="M28.549,32.746A8.623,8.623,0,1,0,20,24.09a8.623,8.623,0,0,0,8.549,8.656Zm0-14.726a6.092,6.092,0,1,1,0-.041Z" transform="translate(-14.109 -15.5)" fill="#fff"/>
        <path id="Trazado_162081" data-name="Trazado 162081" d="M42.04,64.707l-4.3-18.866v-.687a6.166,6.166,0,0,0-6.439-5.874H23.2c-3.551,0-6.439,2.634-6.447,5.85L12.825,64.765a1.251,1.251,0,1,0,2.454.491l1.17-5.85L15.8,87.77a1.219,1.219,0,0,0,.434.916l6.471,5.784a1.268,1.268,0,0,0,.818.311,1.219,1.219,0,0,0,.45-.082,1.244,1.244,0,0,0,.818-1.031l2.454-24.716,1.808,24.683a1.235,1.235,0,0,0,1.235,1.145h7.363a1.227,1.227,0,0,0,.884-.368,1.268,1.268,0,0,0,.36-.9L38.08,58.277l1.538,6.954a1.252,1.252,0,0,0,1.211.965,1.015,1.015,0,0,0,.27,0,1.244,1.244,0,0,0,.941-1.489ZM36.313,92.3H31.4l-1.98-26.875a1.244,1.244,0,0,0-1.235-1.145h-1.9a1.235,1.235,0,0,0-1.227,1.113L22.5,91l-4.23-3.78.949-41.814.286-1.538a4.025,4.025,0,0,1,3.665-2.111H31.29A4.091,4.091,0,0,1,34.644,43.4l.63,2.782Z" transform="translate(-12.8 -19.825)" fill="#fff"/>
      </g>
      <g id="Grupo_75227" data-name="Grupo 75227" transform="translate(58.93 10.014)">
        <path id="Trazado_162082" data-name="Trazado 162082" d="M91.028,32.746a8.615,8.615,0,1,0-6.1-2.543A8.623,8.623,0,0,0,91.028,32.746Zm0-14.726a6.092,6.092,0,1,1,0-.041Z" transform="translate(-76.589 -15.5)" fill="#fff"/>
        <path id="Trazado_162083" data-name="Trazado 162083" d="M104.505,64.707l-4.271-18.866v-.687a6.168,6.168,0,0,0-6.447-5.874h-8.1c-3.551,0-6.439,2.634-6.439,5.85L75.315,64.765a1.251,1.251,0,1,0,2.454.491l1.17-5.85-.818,34.14a1.244,1.244,0,0,0,1.244,1.268h7.363a1.244,1.244,0,0,0,1.235-1.145L89.82,68.307l3.69,25.452a1.26,1.26,0,0,0,.818,1,1.3,1.3,0,0,0,.393.057,1.227,1.227,0,0,0,.875-.36l5.228-5.211a1.285,1.285,0,0,0,.409-.941l-.687-30.025,1.563,6.954a1.235,1.235,0,0,0,1.2.965,1.08,1.08,0,0,0,.278,0,1.244,1.244,0,0,0,.916-1.489ZM98.7,87.828l-3.1,3.1L91.9,65.346a1.227,1.227,0,0,0-1.219-1.064h-1.9a1.235,1.235,0,0,0-1.235,1.145L85.574,92.3H80.665l1.072-46.9.311-1.538a4,4,0,0,1,3.641-2.111H93.78A4.14,4.14,0,0,1,97.142,43.4l.63,2.782Z" transform="translate(-75.29 -19.825)" fill="#fff"/>
      </g>
      <path id="Trazado_162084" data-name="Trazado 162084" d="M68.432,52.784H50.638a.622.622,0,0,1,0-1.235H68.432a.622.622,0,1,1,0,1.235Z" transform="translate(-11.777 -12.042)" fill="#fff"/>
      <g id="Grupo_75228" data-name="Grupo 75228" transform="translate(35.43 37.481)">
        <path id="Trazado_162085" data-name="Trazado 162085" d="M50.856,49.463v4.524a.393.393,0,0,1-.605.327l-3.51-2.266a.4.4,0,0,1,0-.663l3.51-2.25a.393.393,0,0,1,.605.327Z" transform="translate(-46.566 -49.073)" fill="#fff"/>
        <path id="Trazado_162086" data-name="Trazado 162086" d="M71.46,53.988V49.463a.393.393,0,0,1,.605-.327l3.51,2.274a.393.393,0,0,1,0,.655l-3.51,2.25a.393.393,0,0,1-.605-.327Z" transform="translate(-51.093 -49.073)" fill="#fff"/>
      </g>
    </g>
    <g id="Grupo_75230" data-name="Grupo 75230" transform="translate(14.98 33.64)">
      <path id="Trazado_162087" data-name="Trazado 162087" d="M34.562,91.52,32.7,66.232a2.937,2.937,0,0,0-2.921-2.716h-1.9a2.921,2.921,0,0,0-2.913,2.643L22.74,88.452,21.57,87.43l.941-40.906.229-1.145a2.454,2.454,0,0,1,2.054-1h8.091a2.553,2.553,0,0,1,1.792.687l.507,2.225L36.19,91.52Z" transform="translate(-21.57 -44.378)" fill="#9af0f0"/>
      <path id="Trazado_162088" data-name="Trazado 162088" d="M83.94,91.52l1.031-45,.229-1.145a2.454,2.454,0,0,1,2.062-1h8.091a2.593,2.593,0,0,1,1.8.687l.5,2.217.933,40.784-.2.2L95.148,66.027a2.945,2.945,0,0,0-2.9-2.512h-1.9a2.937,2.937,0,0,0-2.921,2.716L85.576,91.52Z" transform="translate(-32.913 -44.378)" fill="#9af0f0"/>
    </g>
    <path id="Trazado_162089" data-name="Trazado 162089" d="M33.459,24.962A3.87,3.87,0,1,1,29.59,21.1a3.87,3.87,0,0,1,3.87,3.862Z" transform="translate(-7.345 -6.505)" fill="#9af0f0"/>
    <path id="Trazado_162090" data-name="Trazado 162090" d="M95.949,24.962A3.87,3.87,0,1,1,92.08,21.1a3.87,3.87,0,0,1,3.87,3.862Z" transform="translate(-18.71 -6.505)" fill="#9af0f0"/>
  </g>
</svg>
