<svg xmlns="http://www.w3.org/2000/svg" width="190" height="191" viewBox="0 0 190 191">
  <g id="Capa_2" data-name="Capa 2" transform="translate(0.298 -0.356)">
    <g id="Grupo_75428" data-name="Grupo 75428" transform="translate(59.844 27.37)">
      <path id="Trazado_162848" data-name="Trazado 162848" d="M193.1,71.8c.365,2.772-10.953,2.605-10.953,2.605l-.5-12.5c.775.077,6.049-.557,9.32-.877C190.65,61.011,192.539,67.457,193.1,71.8Z" transform="translate(-129.466 -49.429)" fill="#f1bc87"/>
      <path id="Trazado_162849" data-name="Trazado 162849" d="M170.664,58.9l1-.115a15.26,15.26,0,0,0,.768,2.823c1.28,2.2,2.087,3.841,3.924,3.591l1.082-.237a7.224,7.224,0,0,0,4.827-7.771c1.4-.352,3.994.864,3.943-.583-.051-1.556,1.338-4.033,1.242-6.081-1.453-8.962-6.965-7.746-10.306-7.31-3.476.6-6.523,3.162-6.721,8.008a13.441,13.441,0,0,0,.051,1.812,10.091,10.091,0,0,0,.576,1.018S167.912,58.042,170.664,58.9Z" transform="translate(-125.106 -42.908)" fill="#ffc990"/>
      <path id="Trazado_162850" data-name="Trazado 162850" d="M187.006,49.591a1.844,1.844,0,0,0-1.363,2.285c.89,3.265,1.92,7.906,3.79,9.538.058.045,1.5-.224,3.111-.371a1.92,1.92,0,0,0,1.7-1.44c.711-2.913-.224-6.318-1.229-9.96A1.466,1.466,0,0,0,191.27,48.6Z" transform="translate(-130.88 -44.942)" fill="#131313"/>
      <path id="Trazado_162851" data-name="Trazado 162851" d="M189.469,59.292c.179,1.415-.807,3.2-1.728,3.309s-.96-1.005-1.159-2.452c-.128-.935-.531-2.234.442-2.657C187.881,57.116,189.213,57.218,189.469,59.292Z" transform="translate(-131.172 -48.095)" fill="#ffc990"/>
      <path id="Trazado_162852" data-name="Trazado 162852" d="M218.81,265.787a4.081,4.081,0,0,1-4.353,3.777H104.483a4.1,4.1,0,0,1-4.353-3.777h0a4.1,4.1,0,0,1,4.353-3.777H214.458A4.093,4.093,0,0,1,218.81,265.787Z" transform="translate(-100.13 -121.756)" fill="#131313" opacity="0.1"/>
      <g id="Grupo_75423" data-name="Grupo 75423" transform="translate(22.479 45.457)">
        <path id="Trazado_162853" data-name="Trazado 162853" d="M138.7,143.439l1.363-.051a4.719,4.719,0,0,0,1.581-.243,1.632,1.632,0,0,0,1.043-1.127,1,1,0,0,0-.794-1.178,2.081,2.081,0,0,0-1.139.461,3.61,3.61,0,0,1-1.792.493,5.455,5.455,0,0,0-1.12,0,.922.922,0,0,0-.762.723.871.871,0,0,0,.576.8,2.483,2.483,0,0,0,1.043.122Z" transform="translate(-135.906 -123.608)" fill="#e8b485"/>
        <path id="Trazado_162854" data-name="Trazado 162854" d="M153.786,124.615c3.7-5.185,10.108.57,5.422,4.91l-9.512,7.861-3.245-3.2Z" transform="translate(-139.278 -117.03)" fill="#ffc990"/>
        <path id="Trazado_162855" data-name="Trazado 162855" d="M168.858,116.756l-3.745,7.835-5.953-3.975,2.586-6.7Z" transform="translate(-143.852 -113.92)" fill="#ffc990"/>
        <g id="Grupo_75422" data-name="Grupo 75422" transform="translate(0 17.038)">
          <path id="Trazado_162856" data-name="Trazado 162856" d="M147.108,143.855a5.038,5.038,0,0,1-1.556,2.714l-1.523,1.536a.134.134,0,0,1-.154,0,14.492,14.492,0,0,1-4.526-3.534.166.166,0,0,1-.038-.083l-.051-.768a.147.147,0,0,1,.038-.1c.339-.352,2.618-2.689,2.746-2.765a2.279,2.279,0,0,1,1.818-.218h0S147.121,143.8,147.108,143.855Z" transform="translate(-136.691 -140.537)" fill="#ffc990"/>
          <path id="Trazado_162857" data-name="Trazado 162857" d="M138.155,145l-.083.058-2.292,2.215c-1.216,1.114-.154,2.561,1.184,1.28l2.221-2.151v-.038A16.607,16.607,0,0,1,138.155,145Z" transform="translate(-135.246 -142.143)" fill="#e8b485"/>
          <path id="Trazado_162858" data-name="Trazado 162858" d="M139.792,147.06l-2.5,2.439c-1.146,1.037.147,2.375,1.28,1.184l2.42-2.381C140.58,147.9,140.176,147.489,139.792,147.06Z" transform="translate(-135.821 -142.884)" fill="#e8b485"/>
          <path id="Trazado_162859" data-name="Trazado 162859" d="M141.683,148.94l-2.381,2.42c-1.114,1.088.1,2.317,1.229,1.2l2.439-2.465C142.528,149.721,142.1,149.337,141.683,148.94Z" transform="translate(-136.547 -143.561)" fill="#e8b485"/>
          <path id="Trazado_162860" data-name="Trazado 162860" d="M144.127,150.71l-1.434,1.466c-1.28,1.171-.038,2.215.973,1.043l1.543-1.62C144.85,151.325,144.486,151.024,144.127,150.71Z" transform="translate(-137.73 -144.198)" fill="#e8b485"/>
          <path id="Trazado_162861" data-name="Trazado 162861" d="M144.1,148.92l-1.082,1.095a.717.717,0,0,1-1.018-.083h0a.723.723,0,0,1,0-1.024l-.186.186a.819.819,0,0,1-1.159-.045h0a.813.813,0,0,1,0-1.152l-.179.166a.813.813,0,0,1-1.152-.045h0a.813.813,0,0,1,0-1.152.826.826,0,0,1-1.159-.038h0a.813.813,0,0,1,0-1.152l1.421-1.344Z" transform="translate(-136.211 -141.902)" fill="#ffc990"/>
        </g>
      </g>
      <path id="Trazado_162862" data-name="Trazado 162862" d="M169.122,84.2h.09a4.206,4.206,0,0,1,3.374,4.852l-.122.64-3.2,17.687a4.129,4.129,0,0,1-.883,1.92h0a4.18,4.18,0,0,1-3.681,1.492l-.269-.045h-.083a4.174,4.174,0,0,1-3.373-4.846l.237-1.28,2.842-15.862.211-1.184a4.174,4.174,0,0,1,4.859-3.373Z" transform="translate(-122.001 -57.744)" fill="#00bcd4"/>
      <path id="Trazado_162863" data-name="Trazado 162863" d="M219.974,110.247h-.09a4.2,4.2,0,0,1-3.988-.679,4.135,4.135,0,0,1-1.28-1.792.429.429,0,0,1-.038-.1l-2.324-6.638-.749-2.125L208.419,90.1a4.193,4.193,0,0,1,2.561-5.326h.077a4.251,4.251,0,0,1,2.522-.077,4.161,4.161,0,0,1,2.81,2.637l6.139,17.591a3.282,3.282,0,0,1,.134.474,3.455,3.455,0,0,1,.064.371A4.18,4.18,0,0,1,219.974,110.247Z" transform="translate(-139.016 -57.889)" fill="#00bcd4"/>
      <g id="Grupo_75424" data-name="Grupo 75424" transform="translate(36.955 137.773)">
        <path id="Trazado_162864" data-name="Trazado 162864" d="M175.3,258.829c.39.122.947.346.9,4.615H157.86C157.86,257.652,170.906,257.479,175.3,258.829Z" transform="translate(-157.86 -258.134)" fill="#3c3c3b"/>
        <rect id="Rectángulo_32847" data-name="Rectángulo 32847" width="18.346" height="1.767" transform="translate(0 4.817)" fill="#16191e"/>
      </g>
      <path id="Trazado_162865" data-name="Trazado 162865" d="M199.921,83.218h0L198.8,96.865l-.224,2.733-1.2,14.685c-.128,1.562-.64,4.731-1.965,5.518a1.165,1.165,0,0,1-.717.173l-5.537-.275-18.948-.928.538-29.638L170.9,87.3l-.7-4.231L175.321,81l16.714-.487Z" transform="translate(-125.346 -56.44)" fill="#00bcd4"/>
      <path id="Trazado_162866" data-name="Trazado 162866" d="M198.088,221.18H186.764l-4.231-59.961v.07l-2.208,59.4h0l-10.69-4.571-.384-63.968v-1.28c0-.4.141-2.874.384-5.294.083-.807.173-1.613.269-2.324.211-1.466.454-2.561.736-2.561l8.9.352,11.65.461h.173l3.348.128h.7c0,.583.045,1.235.077,1.92v.058c.032.506.058,1.018.083,1.536.16,2.561.358,5.121.358,5.691l.038,1.28,2.132,68.532h0Z" transform="translate(-125.004 -78.097)" fill="#bae6fa"/>
      <path id="Trazado_162867" data-name="Trazado 162867" d="M195.772,144.407c0-1.485-.032-2.138-.083-2.887l-25.516-1.21a11.62,11.62,0,0,0,0,2.785Z" transform="translate(-125.306 -77.96)" fill="#16191e"/>
      <rect id="Rectángulo_32848" data-name="Rectángulo 32848" width="2.228" height="2.983" transform="translate(54.378 65.322) rotate(-86.72)" fill="#fbf7cf"/>
      <g id="Grupo_75425" data-name="Grupo 75425" transform="translate(61.766 138.468)">
        <path id="Trazado_162868" data-name="Trazado 162868" d="M202.279,259.22c3.124,0,5.652.346,5.652,4.615H196.62C196.62,259.367,199.155,259.22,202.279,259.22Z" transform="translate(-196.62 -259.22)" fill="#3c3c3b"/>
        <rect id="Rectángulo_32849" data-name="Rectángulo 32849" width="11.311" height="1.767" transform="translate(0 4.122)" fill="#16191e"/>
      </g>
      <path id="Trazado_162869" data-name="Trazado 162869" d="M204.783,160.74a11.154,11.154,0,0,1-1.2.64Z" transform="translate(-137.358 -85.312)" opacity="0.07"/>
      <path id="Trazado_162870" data-name="Trazado 162870" d="M198.077,223.025h0l-4.193.486h-7.131l-4.231-59.961v.07l-2.208,59.4h0l-10.69-4.571h.09a9.9,9.9,0,0,0,1.453-.16h0a9.045,9.045,0,0,0,7.31-8.527l2.618-46.185c-.992-4.577-7.541-6.344-11.874-9.09v-1.28c0-.4.141-2.874.384-5.294,4.756.115,17.687-1.4,25.951-.4.16,2.561.358,5.121.358,5.691l.038,1.28c-5.537,2.74-12.329,5.23-12.3,9.007l4.481,44.169A19.581,19.581,0,0,0,193,218.9a19.261,19.261,0,0,0,3.918,3.373l1.133.736h0Z" transform="translate(-124.993 -80.428)" opacity="0.15"/>
      <path id="Trazado_162871" data-name="Trazado 162871" d="M181.973,85.122l2.618-3.841c-2.836-1.53-2.465-2.509-3.47-4.161l-1.684,1.53-1.248,1.133C179.822,82.113,179.643,83.406,181.973,85.122Z" transform="translate(-128.221 -55.22)" fill="#00bcd4"/>
      <path id="Trazado_162872" data-name="Trazado 162872" d="M189.386,85.4l-2.336-4.686c2.772-.358,6.606-1.78,7.746-4.519l3.3,2.785h0C196.9,81.605,192.318,84.569,189.386,85.4Z" transform="translate(-131.41 -54.885)" fill="#00bcd4"/>
      <path id="Trazado_162873" data-name="Trazado 162873" d="M213.29,117.793c-.141-1.107-.269-2.17-.39-3.124a23.611,23.611,0,0,0-.787-4.423c-.051-.109-.109-.224-.154-.333a40.245,40.245,0,0,1-2.484-6.5,30.657,30.657,0,0,1-.941-4.769,37.6,37.6,0,0,1,0,5.371,40.616,40.616,0,0,1-8.674,22.232l5.537.275a1.165,1.165,0,0,0,.717-.173c1.28-.787,1.837-3.956,1.965-5.518l1.2-14.685,2.324,6.638.877,5.012Z" transform="translate(-136.02 -62.964)" opacity="0.07"/>
      <g id="Grupo_75427" data-name="Grupo 75427" transform="translate(67.693 50.945)">
        <path id="Trazado_162874" data-name="Trazado 162874" d="M207.729,150.265l1.248-.544a4.654,4.654,0,0,0,1.383-.8,1.632,1.632,0,0,0,.57-1.427,1.005,1.005,0,0,0-1.171-.813c-.4.122-.64.519-.9.851a3.546,3.546,0,0,1-1.491,1.1,5.894,5.894,0,0,0-1.037.429.922.922,0,0,0-.442.954.864.864,0,0,0,.826.531A2.5,2.5,0,0,0,207.729,150.265Z" transform="translate(-205.878 -131.192)" fill="#e8b485"/>
        <path id="Trazado_162875" data-name="Trazado 162875" d="M216.981,125.9c1.562-6.177,9.6-3.143,6.837,2.605l-6.011,10.78-4.186-1.8Z" transform="translate(-208.664 -122.493)" fill="#ffc990"/>
        <g id="Grupo_75426" data-name="Grupo 75426" transform="translate(0.416 14.996)">
          <path id="Trazado_162876" data-name="Trazado 162876" d="M216.022,147.719a5.025,5.025,0,0,1-.467,3.092l-.858,1.984a.141.141,0,0,1-.134.083,14.486,14.486,0,0,1-5.5-1.652.122.122,0,0,1-.064-.064l-.326-.7a.128.128,0,0,1,0-.109c.192-.448,1.466-3.45,1.556-3.572a2.3,2.3,0,0,1,1.613-.864h0S216.015,147.655,216.022,147.719Z" transform="translate(-207.296 -145.92)" fill="#ffc990"/>
          <path id="Trazado_162877" data-name="Trazado 162877" d="M208.111,152.28a.427.427,0,0,0-.058.09l-1.331,2.893c-.73,1.472.794,2.458,1.556.743l1.28-2.81v-.051A16.114,16.114,0,0,1,208.111,152.28Z" transform="translate(-206.529 -148.209)" fill="#e8b485"/>
          <path id="Trazado_162878" data-name="Trazado 162878" d="M210.363,153.63l-1.447,3.2c-.7,1.376.992,2.151,1.626.64l1.389-3.1C211.4,154.136,210.876,153.867,210.363,153.63Z" transform="translate(-207.329 -148.695)" fill="#e8b485"/>
          <path id="Trazado_162879" data-name="Trazado 162879" d="M212.81,154.73l-1.344,3.117c-.64,1.421.935,2.125,1.588.679l1.37-3.2Q213.607,155.056,212.81,154.73Z" transform="translate(-208.251 -149.09)" fill="#e8b485"/>
          <path id="Trazado_162880" data-name="Trazado 162880" d="M215.564,155.66l-.781,1.92c-.762,1.556.768,2.08,1.28.64l.845-2.068C216.466,155.967,216.012,155.82,215.564,155.66Z" transform="translate(-209.424 -149.425)" fill="#e8b485"/>
          <path id="Trazado_162881" data-name="Trazado 162881" d="M214.792,154.053l-.64,1.415a.711.711,0,0,1-.973.288h0a.73.73,0,0,1-.358-.96l-.109.237a.826.826,0,0,1-1.095.384h0a.813.813,0,0,1-.4-1.075l-.1.218a.819.819,0,0,1-1.095.378h0a.813.813,0,0,1-.4-1.082.826.826,0,0,1-1.095.384h0a.813.813,0,0,1-.4-1.082l.832-1.767Z" transform="translate(-207.077 -147.888)" fill="#ffc990"/>
        </g>
      </g>
      <path id="Trazado_162882" data-name="Trazado 162882" d="M222.775,117.811h.077l.275.128a4.18,4.18,0,0,1,2.266,3.937h0a4.18,4.18,0,0,1-.326,1.4l-6.792,15.2L213,137.015l3.841-15.888.454-1.139A4.186,4.186,0,0,1,222.775,117.811Z" transform="translate(-140.748 -69.742)" fill="#ffc990"/>
    </g>
    <g id="Grupo_75432" data-name="Grupo 75432" transform="translate(5.052 154.034)">
      <path id="Trazado_162883" data-name="Trazado 162883" d="M167.9,270.189a2.7,2.7,0,0,1-2.407,2.919H13.817a2.682,2.682,0,0,1-2.407-2.919h0a2.7,2.7,0,0,1,2.407-2.919H165.49A2.682,2.682,0,0,1,167.9,270.189Z" transform="translate(-11.41 -250.313)" fill="#131313" opacity="0.1"/>
      <g id="Grupo_75431" data-name="Grupo 75431" transform="translate(11.561)">
        <path id="Trazado_162884" data-name="Trazado 162884" d="M246.064,260.715l-2.471.3c-.691.083-1.338.141-1.92.186a20.694,20.694,0,0,1-3.034,0c-1.018-.077-1.568-.256-1.639-.416a6.51,6.51,0,0,1-.467-1.639,11.894,11.894,0,0,1,1.613-8.117c.077-.109.147-.224.218-.339,1.543-2.484,2.208-6.19,2.9-7.182,1.05-1.492,3.668-1.21,3.668-1.21l.038.538.832,11.753-1.2,2.3,1.28.454v.64Z" transform="translate(-103.935 -241.319)" fill="#2e2e2d"/>
        <path id="Trazado_162885" data-name="Trazado 162885" d="M145.1,260.158c-4.385,3.527-12.079,3.079-15.862.064-.832-5.211-1.05-10.012,0-13.98,5.934-.282,14.326,1.357,18.781,2.048Z" transform="translate(-65.12 -242.734)" fill="#12263f"/>
        <path id="Trazado_162886" data-name="Trazado 162886" d="M247.876,255.261l-1.415,2.183,1.248.576-.16,3.361-2.49.058c-1.037,0-1.92,0-2.74-.032a16.168,16.168,0,0,1-2.861-.384c-.589-.147-.9-.314-.947-.435a5.954,5.954,0,0,1-.269-1.331,11.933,11.933,0,0,1,2.349-8.27c1.965-2.336,3.009-6.222,3.841-7.189a2.605,2.605,0,0,1,1.191-.749,5.914,5.914,0,0,1,2.561-.109Z" transform="translate(-104.582 -241.524)" fill="#3c3c3b"/>
        <g id="Grupo_75430" data-name="Grupo 75430" transform="translate(0 2.223)">
          <path id="Trazado_162887" data-name="Trazado 162887" d="M62.079,251.8v9.935l-8.5.275L53.38,253Z" transform="translate(-38.074 -246.969)" fill="#f0b87d"/>
          <g id="Grupo_75429" data-name="Grupo 75429">
            <path id="Trazado_162888" data-name="Trazado 162888" d="M49,244.468a2.119,2.119,0,0,1,1.466,1.543l.4,1.748a5.07,5.07,0,0,1-.16,2.01h0a6.619,6.619,0,0,1-4.756,4.795.256.256,0,0,1,0,.1h0c.282,1.28,2.068,2.983.851,3.431-1.338.5-2.957,2.561-4.731,3.169-8.117,1.92-8.962-3.2-9.788-6.2a7.086,7.086,0,0,1,2.125-6.984,9.154,9.154,0,0,1,2.33-1.511,14.082,14.082,0,0,1,1.556-.589,10.59,10.59,0,0,1,1.063.141l.378-.3,1.658-1.331a.89.89,0,0,1,1.28.32l.422.711c.538-.134,3.5-1.133,3.5-1.133a4.391,4.391,0,0,1,2.407.09Z" transform="translate(-30.404 -244.252)" fill="#f0b87d"/>
            <path id="Trazado_162889" data-name="Trazado 162889" d="M48.463,261.16c-.154,1.043-1.088,1.671-2.336,2.061a6.869,6.869,0,0,1-.672.179,36.04,36.04,0,0,1-6.613.5h-.871c-4.206.09-5.934-.711-7.041-2.938a17.084,17.084,0,0,1-1.011-2.951c-.928-3.476-.326-6.4.992-7.637a2.164,2.164,0,0,1,2.561-.346h0a10.53,10.53,0,0,0,.09,1.159c.64,6.593,3.412,4.583,9.986,3.149.275.787.275.787.525,1.664l-.045.058c-.474.64-1.92,2.176-2.016,2.272a8.874,8.874,0,0,1,2.887-.736h.122a3.764,3.764,0,0,1,2.292.64h0A4,4,0,0,1,48.463,261.16Z" transform="translate(-29.47 -246.233)" fill="#3c3c3b"/>
            <path id="Trazado_162890" data-name="Trazado 162890" d="M49.371,262.683c1.28-.346,2.433-1.805,2.208-2.625s-1.223-.461-2.49-.128c-.832.211-2.08.326-2.1,1.28C47,262.082,47.521,263.183,49.371,262.683Z" transform="translate(-35.775 -249.761)" fill="#f0b87d"/>
          </g>
          <path id="Trazado_162891" data-name="Trazado 162891" d="M56.782,244.59a2.119,2.119,0,0,1,1.466,1.543l.4,1.748a5.07,5.07,0,0,1-.16,2.01h0a5.678,5.678,0,0,1-2.164,1.517,17.609,17.609,0,0,1-2.631.807,4.25,4.25,0,0,0,1.92-1.485,7.483,7.483,0,0,0,1.082-2.183,7.041,7.041,0,0,0,.4-2.413,4.244,4.244,0,0,0-.307-1.543Z" transform="translate(-38.186 -244.374)" fill="#050504" opacity="0.1"/>
        </g>
        <path id="Trazado_162892" data-name="Trazado 162892" d="M106.507,255.785c-.294.986-.64,1.984-.992,2.983a.739.739,0,0,1-.077.218c-.2.538-.4,1.075-.608,1.607h-.474c-1.876,0-7.477,0-14,.051h-1.28l-6.292.045H80.5c-8.206.064-12.431.839-16.739-1.472h0c-.378-.2-.755-.429-1.139-.679l-.294-.09-1.812-.563c.2-.8.378-1.62.544-2.426h0c.461-2.33.8-4.6,1.223-6.4.083-.333.16-.64.25-.947a.963.963,0,0,1,.09-.3c.275-.57,1.831-1.4,1.831-1.4a17.283,17.283,0,0,1,5.761-3.348,24.118,24.118,0,0,1,6.5-1.453c.429-.045.871-.07,1.325-.09a27.4,27.4,0,0,1,2.887.032c4.718-1.075,19.953-1.568,26.815,2.317l.4.243v.134A30.871,30.871,0,0,1,106.507,255.785Z" transform="translate(-40.644 -240.78)" fill="#00bcd4"/>
        <path id="Trazado_162893" data-name="Trazado 162893" d="M94.417,259.111l-.9,5.876-.218,1.4v.122h-.711l-6.849-.064-11.407-.1c-3.521-.64-4.852-2.336-5.339-3.77a4.814,4.814,0,0,1-.224-2.208c.787-3.694,5.211-3.886,7.682-3.457,4.379.775,16,2,17.8,2.189h.186Z" transform="translate(-43.596 -246.526)" fill="#078c9d"/>
        <path id="Trazado_162894" data-name="Trazado 162894" d="M175.164,249.474l-.794,10.242-.294,3.777h-.832c-6.049.128-11.151.41-16.874,0a76.071,76.071,0,0,1-8.322-1.031c-.851-.147-1.735-.32-2.637-.506l-.038-.282-.256-1.92-1.376-10.313c2.855-.3,5.505-.493,7.976-.64C161.907,248.373,169.019,249.205,175.164,249.474Z" transform="translate(-70.592 -243.624)" fill="#12263f"/>
        <path id="Trazado_162895" data-name="Trazado 162895" d="M223.187,253.556l-.915,8.123-.218,1.92-.045.39h-.128c-15.638.115-21.957.237-32.051,0h0l.519-3.758,1.4-10.242a240.513,240.513,0,0,0,29.856,3.527Z" transform="translate(-87.178 -244.095)" fill="#12263f"/>
        <path id="Trazado_162896" data-name="Trazado 162896" d="M153,264.691c-.083-.64-.794-.6-1.2-.474a32.453,32.453,0,0,1-3.341.64c-.294.122-.576.16-.877.269a7.136,7.136,0,0,0-.832.339c-.2.262-.346.474-.576.819a17.124,17.124,0,0,0,5.377-.6C151.97,265.523,153.1,265.228,153,264.691Z" transform="translate(-71.466 -249.187)" fill="#ffc990"/>
        <path id="Trazado_162897" data-name="Trazado 162897" d="M156.549,268.872h0a.467.467,0,0,1-.41.461H143.1l.141-1.991.109-1.549c0,.045.1.058.282.045a12.7,12.7,0,0,0,1.28-.2c1.28-.256,3.053-.64,3.841-.743h.186a1.538,1.538,0,0,1,.557.109l1.242.487.525.2,1.69.64a1.983,1.983,0,0,1,.326.173l1.972,1.28,1.127.723a.467.467,0,0,1,.173.365Z" transform="translate(-70.362 -249.457)" fill="#ffc990"/>
        <path id="Trazado_162898" data-name="Trazado 162898" d="M133.607,257.93c-.186,1.024-.371,1.952-.538,2.695-.1.435-.2.807-.282,1.095-.141.448-.256.7-.346.7h-3.5v-.077c.192-.518.365-1.05.525-1.587.064-.186.122-.378.173-.563.269-.9.5-1.831.717-2.778.832-3.617,1.344-7.49,1.863-11.414a2.42,2.42,0,0,1,.051-.358l2.65.2c.058,0,.1.128.115.346C135.181,247.663,134.388,253.654,133.607,257.93Z" transform="translate(-65.266 -242.529)" fill="#078c9d"/>
        <path id="Trazado_162899" data-name="Trazado 162899" d="M129.8,264.043v.173l-.16,1.5-.218,1.991v.032h-20.03a21.477,21.477,0,0,1-3.918.1h0l-.41-.045a.237.237,0,0,1-.147-.064c-.256-.173-.384-.717-.384-1.434,0-2.151.973-5.864,2.561-5.87h.224l12.879,2.087,1.376.224.749.122,2.477.4Z" transform="translate(-56.481 -247.848)" fill="#078c9d"/>
      </g>
      <path id="Trazado_162900" data-name="Trazado 162900" d="M173.421,266.255l-.16,3.361-2.49.058c-1.037,0-1.92,0-2.74-.032a20.694,20.694,0,0,1-3.034,0c-15.638.115-21.957.237-32.051,0h0c-6.049.128-11.151.41-16.874,0H83.2a21.475,21.475,0,0,1-3.918.1h0l-6.849-.064H70.155c-8.206.064-12.431.839-16.739-1.472l.64.435c-.762.467-2.529.9-5.4,1.427a1.614,1.614,0,0,1-.333,0,2.8,2.8,0,0,1-2.042-.96,36.035,36.035,0,0,1-6.613.5H38.8c-4.206.09-5.934-.711-7.041-2.938a22.639,22.639,0,0,0,2.24.583,16.337,16.337,0,0,0,8.7-.294l1.421.64,1.6.736,1.229.563.7.32c1.876.192,3.13-.864,4.289-1.844l.211-.179h0c1.965.442,3.06-.128,3.5-1.466,6.4,1.6,14.134,2.253,22.654,2.394h1.92c4.571.032,9.365-.064,14.307-.237h.979l2.6-.1,5.076-.224h.23c.557.077,1.114.147,1.684.2q1.824.2,3.751.275h0c2,.077,4.09.058,6.292-.045a162.777,162.777,0,0,0,18.321-2.1l.41-.07a1.827,1.827,0,0,0,.2.038,88.408,88.408,0,0,0,28.806,1.754l1.063-.1c.474-.038.954-.09,1.434-.147,2.228-.237,4.519-.55,6.9-.915Z" transform="translate(-18.733 -249.759)" fill="#1d1d1b" opacity="0.1"/>
    </g>
    <rect id="Rectángulo_32850" data-name="Rectángulo 32850" width="190" height="191" transform="translate(-0.298 0.356)" fill="none"/>
  </g>
</svg>
