<svg xmlns="http://www.w3.org/2000/svg" width="232.713" height="150.254" viewBox="0 0 232.713 150.254">
  <g id="Capa_2" data-name="Capa 2" transform="translate(1334.462 -245.773)">
    <g id="Grupo_75366" data-name="Grupo 75366" transform="translate(-1334.462 245.773)">
      <g id="Grupo_75362" data-name="Grupo 75362" transform="translate(36.452 8.903)">
        <g id="Grupo_75358" data-name="Grupo 75358" transform="translate(60.383 34.524)">
          <g id="Grupo_75357" data-name="Grupo 75357" transform="translate(29.189 50.157)">
            <g id="Grupo_75355" data-name="Grupo 75355">
              <path id="Trazado_162500" data-name="Trazado 162500" d="M179.2,201.395c.392-.235.776-.471,1.142-.715a19.171,19.171,0,0,0,6.152,1.412c.636,0,1.534.27,1.508,1.194h0c.122,1.2-1.4,1.333-2.083,1.394a31.538,31.538,0,0,1-8.714-1.847A21.344,21.344,0,0,1,179.2,201.395Z" transform="translate(-174.664 -200.426)" fill="#fdda99"/>
              <path id="Trazado_162501" data-name="Trazado 162501" d="M184.83,206.965h0a1.194,1.194,0,0,1,1.664.235l4.558,5.777a1.194,1.194,0,0,1-.235,1.664h0a1.194,1.194,0,0,1-1.664-.235l-4.558-5.777a1.194,1.194,0,0,1,.235-1.664Z" transform="translate(-175.584 -201.204)" fill="#fdda99"/>
              <path id="Trazado_162502" data-name="Trazado 162502" d="M182.558,207.848h0a1.176,1.176,0,0,1,1.6.471L188.588,216a1.194,1.194,0,0,1-.479,1.612h0a1.185,1.185,0,0,1-1.612-.471l-4.418-7.677a1.185,1.185,0,0,1,.479-1.612Z" transform="translate(-175.272 -201.329)" fill="#fdda99"/>
              <path id="Trazado_162503" data-name="Trazado 162503" d="M180.45,209.1h0a1.176,1.176,0,0,1,1.542.654l3.094,7.494a1.176,1.176,0,0,1-.654,1.542h0a1.185,1.185,0,0,1-1.551-.654l-3.094-7.494a1.194,1.194,0,0,1,.662-1.542Z" transform="translate(-174.986 -201.497)" fill="#fdda99"/>
              <path id="Trazado_162504" data-name="Trazado 162504" d="M178.028,208.844h0a1.063,1.063,0,0,1,1.316.715l2.274,7.485a1.063,1.063,0,0,1-.715,1.316h0a1.063,1.063,0,0,1-1.316-.715l-2.274-7.485a1.054,1.054,0,0,1,.715-1.316Z" transform="translate(-174.672 -201.47)" fill="#fdda99"/>
              <path id="Trazado_162505" data-name="Trazado 162505" d="M185.618,206.882l-1.473-1.943h0l-1.743-2.283c-1.168-1.534-3.268-3.015-4.81-1.847l-1.481.706a4.906,4.906,0,0,0-1.377,5.856l1.952,3.2h0l1.02,1.342a1.046,1.046,0,0,0,1.473.209h0a1.054,1.054,0,0,0,.209-1.473l.227.305a1.194,1.194,0,0,0,1.664.235h0a1.194,1.194,0,0,0,.227-1.664l.218.288a1.185,1.185,0,0,0,1.664.227h0a1.185,1.185,0,0,0,.227-1.664,1.185,1.185,0,0,0,1.664.227h0a1.194,1.194,0,0,0,.34-1.717Z" transform="translate(-174.289 -200.388)" fill="#fdda99"/>
            </g>
            <g id="Grupo_75356" data-name="Grupo 75356">
              <path id="Trazado_162506" data-name="Trazado 162506" d="M179.2,201.395c.392-.235.776-.471,1.142-.715a19.171,19.171,0,0,0,6.152,1.412c.636,0,1.534.27,1.508,1.194h0c.122,1.2-1.4,1.333-2.083,1.394a31.538,31.538,0,0,1-8.714-1.847A21.344,21.344,0,0,1,179.2,201.395Z" transform="translate(-174.664 -200.426)" fill="#ffc990"/>
              <path id="Trazado_162507" data-name="Trazado 162507" d="M184.83,206.965h0a1.194,1.194,0,0,1,1.664.235l4.558,5.777a1.194,1.194,0,0,1-.235,1.664h0a1.194,1.194,0,0,1-1.664-.235l-4.558-5.777a1.194,1.194,0,0,1,.235-1.664Z" transform="translate(-175.584 -201.204)" fill="#ffc990"/>
              <path id="Trazado_162508" data-name="Trazado 162508" d="M182.558,207.848h0a1.176,1.176,0,0,1,1.6.471L188.588,216a1.194,1.194,0,0,1-.479,1.612h0a1.185,1.185,0,0,1-1.612-.471l-4.418-7.677a1.185,1.185,0,0,1,.479-1.612Z" transform="translate(-175.272 -201.329)" fill="#ffc990"/>
              <path id="Trazado_162509" data-name="Trazado 162509" d="M180.45,209.1h0a1.176,1.176,0,0,1,1.542.654l3.094,7.494a1.176,1.176,0,0,1-.654,1.542h0a1.185,1.185,0,0,1-1.551-.654l-3.094-7.494a1.194,1.194,0,0,1,.662-1.542Z" transform="translate(-174.986 -201.497)" fill="#ffc990"/>
              <path id="Trazado_162510" data-name="Trazado 162510" d="M178.028,208.844h0a1.063,1.063,0,0,1,1.316.715l2.274,7.485a1.063,1.063,0,0,1-.715,1.316h0a1.063,1.063,0,0,1-1.316-.715l-2.274-7.485a1.054,1.054,0,0,1,.715-1.316Z" transform="translate(-174.672 -201.47)" fill="#ffc990"/>
              <path id="Trazado_162511" data-name="Trazado 162511" d="M185.618,206.882l-1.473-1.943h0l-1.743-2.283c-1.168-1.534-3.268-3.015-4.81-1.847l-1.481.706a4.906,4.906,0,0,0-1.377,5.856l1.952,3.2h0l1.02,1.342a1.046,1.046,0,0,0,1.473.209h0a1.054,1.054,0,0,0,.209-1.473l.227.305a1.194,1.194,0,0,0,1.664.235h0a1.194,1.194,0,0,0,.227-1.664l.218.288a1.185,1.185,0,0,0,1.664.227h0a1.185,1.185,0,0,0,.227-1.664,1.185,1.185,0,0,0,1.664.227h0a1.194,1.194,0,0,0,.34-1.717Z" transform="translate(-174.289 -200.388)" fill="#ffc990"/>
            </g>
          </g>
          <path id="Trazado_162512" data-name="Trazado 162512" d="M164.219,181.035c-5.621-9.185-17.045-.871-9.664,6.971L172.14,203.77l5.324-4.993Z" transform="translate(-142.253 -147.224)" fill="#ffc990"/>
          <path id="Trazado_162513" data-name="Trazado 162513" d="M141.244,152.564l4.462,13.864,5.115,14.553,10.518-6.344-3.172-11.712-4.122-14.143C151.308,139.493,138.22,141.323,141.244,152.564Z" transform="translate(-140.793 -142.831)" fill="#f7b242"/>
          <path id="Trazado_162514" data-name="Trazado 162514" d="M154.384,188.38c-1.02.715-2.24-.81-3.059-2.614-.645-2.17-1.56-3.486-.871-3.9l11.128-5.629c1.028-.575,3.3,4.1,2.518,4.357Z" transform="translate(-142.004 -147.119)" fill="#aa741d"/>
        </g>
        <path id="Trazado_162515" data-name="Trazado 162515" d="M89.081,234.41,91.32,242l-.819,1.7a4.829,4.829,0,0,0-1.368,0,2.384,2.384,0,0,0-.436.061,12.034,12.034,0,0,0-3.852,1.743c-.924.54-2.091,2.187-3.555,3.669-.3.288-.584.575-.871.871-1.569,1.63-2.745,3.041-3.991,3.425-1.02.514-2.2-.227-3.791-.819a.567.567,0,0,1-.427-.54,20.679,20.679,0,0,1,2.536-9.141l1.359-2.353,1.612-2.789,1.874-3.233.166-.279.584-1.15.166-.314,1.211-2.318a6.335,6.335,0,0,1,.871-1.29l1.185-1.368a.523.523,0,0,1,.366-.174,18.248,18.248,0,0,1,3.329,2.013,42.948,42.948,0,0,1,3.486,2.545v.044c.174.157.6.871,1.3,1.6.479.505-4.357.052-3.59.427Z" transform="translate(-71.591 -119.219)" fill="#3c3c3b"/>
        <path id="Trazado_162516" data-name="Trazado 162516" d="M136.613,243.723a10.532,10.532,0,0,1-.7,1.124.2.2,0,0,0-.052.061,7.842,7.842,0,0,1-1.142,1.255l-.174.157a8.653,8.653,0,0,1-4.139,1.952c-4.427.871-7.163-1.647-8.2-5.891-.078-.322-.148-.645-.2-.976s-1.49-5.037-3.033-11.9h0c-1.2-5.438-2.527-12.252-3.416-19.4-.174-1.377-.331-2.762-.462-4.165-.1-1.115-.2-2.24-.288-3.364v-1.508h0a17.1,17.1,0,0,1,.166-2.03,11.686,11.686,0,0,1,.61-2.449,7.7,7.7,0,0,1,.767-1.516,5.438,5.438,0,0,1,2.118-1.908c6-3.015,17.219,5.342,17.219,5.342.1,2.37.209,4.479.288,6.353a6.557,6.557,0,0,0,.044.932c.07,1.255.113,2.414.166,3.486.566,12.548.54,12.88,1.124,25.933,0,.915.078,1.9.122,2.954a8.932,8.932,0,0,1-.819,5.56Z" transform="translate(-77.069 -114.694)" fill="#078c9d"/>
        <path id="Trazado_162517" data-name="Trazado 162517" d="M132.646,249.668a.2.2,0,0,0-.052.061c-.166.192-.645.749-1.142,1.255l-.174.157a5.524,5.524,0,0,1-.627.549,8.645,8.645,0,0,1-6.161,1.612c-21.655-3.817-27.563-3.224-33.314-4.27l-.357-4.514L90.6,241.9,89.58,230h0a217.642,217.642,0,0,1,26.143,4.357h0c7.486,1.656,13.768,3.486,15.5,5.133.044.044.34,1.952.654,4.1C132.3,246.365,132.724,249.589,132.646,249.668Z" transform="translate(-73.825 -119.515)" fill="#078c9d"/>
        <path id="Trazado_162518" data-name="Trazado 162518" d="M146.35,136.317a9.708,9.708,0,0,0,5.481,1.786l4.514-15.006c-.976-.261-6.1-2.684-9.856-4.558l-4.2,9.525-.593,1.325a.384.384,0,0,0-.166.087C140.441,130.112,144.093,134.862,146.35,136.317Z" transform="translate(-80.479 -105.183)" fill="#f2bf89"/>
        <g id="Grupo_75359" data-name="Grupo 75359" transform="translate(62.44)">
          <path id="Trazado_162519" data-name="Trazado 162519" d="M165.829,117.131a16.61,16.61,0,0,1-.436,2.283,12.137,12.137,0,0,1-.924,1.168l.087.662.392,2.945a1.255,1.255,0,0,1-1.333,1.342h-1.133a.439.439,0,0,1-.087.288c-.1.41-.27,1.107-.436,1.83h0c-.192.871-.392,1.743-.532,2.318-.078.349-.122.566-.122.566a6.327,6.327,0,0,1-1.682,2.614,3.041,3.041,0,0,1-3.006.758l-2.37-.784a2.065,2.065,0,0,0-.279-.131,9.31,9.31,0,0,1-4.4-10.326,1.328,1.328,0,0,1,.1-.349.636.636,0,0,1-.166-.061h0a3.486,3.486,0,0,0-.627-.157c-1.8-.261-4.357.27-4.052-1.3.375-1.961-.871-5.377-.366-7.947,1.8-5.507,4.357-7.634,6.971-8.209l.54-.1c2.492-.366,5,.523,6.971,1.089a9.908,9.908,0,0,1,6.806,7.6h0A13.4,13.4,0,0,1,165.829,117.131Z" transform="translate(-143.306 -103.373)" fill="#ffc990"/>
          <path id="Trazado_162520" data-name="Trazado 162520" d="M144.083,123.27c7.067,3.843,5.342-6.03,5.342-6.03s1.786.54,2.17,1.473c.932.366,1.525.523,2.283.871,3.216-9.376,1.821-11.747,11.651-6.475,2.667-1.551,3.6-5.847-7.529-9.263-5.568-1.743-11.389.1-13.5,5.542C143.272,112.508,142.41,114.225,144.083,123.27Z" transform="translate(-143.153 -103.212)" fill="#b17f4a"/>
          <path id="Trazado_162521" data-name="Trazado 162521" d="M148.619,119.406c-.505,1.743.392,4.2,1.534,4.531s1.429-1.124,1.952-2.876c.349-1.159,1.115-2.719,0-3.486C151.059,116.975,149.359,116.835,148.619,119.406Z" transform="translate(-143.838 -105.012)" fill="#ffc990"/>
        </g>
        <path id="Trazado_162522" data-name="Trazado 162522" d="M150.843,155.534a.393.393,0,0,1,0,.1h0c-.07,1.229-.235,2.841-.523,4.732-.331,2.362-.871,5.159-1.525,8.156a96.6,96.6,0,0,1-4.871,15.686c-.078.183-.148.357-.235.532-3.486,8.1-8.244,14.814-14.457,15.686a23.2,23.2,0,0,1-9.69-1.159l-2.536-.828c-3-5.472-4.854-12.365-1.743-17.132.174-.619.357-1.316.558-2.057,3.006-11.224,9.063-35.5,13.5-41.018a1.827,1.827,0,0,0,.122-.148,24.513,24.513,0,0,1,6.971-6.178c.453-.244,1.394-.706,1.743-.871h.07a27.659,27.659,0,0,0,5.6,5.969c1.856,1.516,3.616,2.614,4.523,2.745h0s.331.741.784,2.013a33.114,33.114,0,0,1,1.708,13.777Z" transform="translate(-76.92 -106.789)" fill="#ff9d00"/>
        <path id="Trazado_162523" data-name="Trazado 162523" d="M159.227,132.869a1.673,1.673,0,0,0,1.107,1.386,1.63,1.63,0,0,0,1.743-.322c.174-.244.157-.758.444-.819a3.058,3.058,0,0,1,.81.183c.122-.558.331-1.455.523-2.309h0a3.553,3.553,0,0,1-.514-.1,7.625,7.625,0,0,0-1.882-.113,3.024,3.024,0,0,0-1.743.688,1.525,1.525,0,0,0-.488,1.4Z" transform="translate(-82.777 -106.754)" fill="#fdda99"/>
        <path id="Trazado_162524" data-name="Trazado 162524" d="M177.871,254.983a21.2,21.2,0,0,1-9.464,2.4H156.4l-2.684.1a6.637,6.637,0,0,1-1.6-.122l-1.83-.357a.532.532,0,0,1-.34-.244,23.988,23.988,0,0,1,.148-4.775,34.8,34.8,0,0,1,.436-3.66v-.07c.061-.235.462-.976.776-1.978a7.206,7.206,0,0,0,.322-2.362c0-.122,0-.244,0-.375l2.684-.192,6.788-.471a5.654,5.654,0,0,0,.662,1.246,11.329,11.329,0,0,0,3.808,2.919,2.941,2.941,0,0,0,.523.235h0c1.072.383,2.815.593,4.558,1.063.418.122.819.227,1.211.322,2.257.558,4.122.871,5.1,1.821.985.654.932,2.091,1.211,3.808a.593.593,0,0,1-.3.7Z" transform="translate(-81.579 -121.169)" fill="#3c3c3b"/>
        <path id="Trazado_162525" data-name="Trazado 162525" d="M169.882,199.957c-.052.758-3.067,21.245-3.93,40.669h0l-10.57,3.137-5.394,1.595h0c-2.283-13.315-.967-27.572.488-36.992.244-1.647.5-3.155.749-4.47.68-3.686,1.246-5.969,1.307-6.187a8.418,8.418,0,0,1,1.656-3.486,8.714,8.714,0,0,1,7.642-3.259H162a8.714,8.714,0,0,1,5.778,2.963,8.427,8.427,0,0,1,1.647,2.858c.044.148.1.288.131.436a8.3,8.3,0,0,1,.322,2.736Z" transform="translate(-81.433 -114.49)" fill="#00bcd4"/>
        <path id="Trazado_162526" data-name="Trazado 162526" d="M156.462,206.964H156.4l-5.49.4-5.115.383-9.856.732c-6.448.479-12,.871-12.2.871-4.427-.331-7.224-1.943-8.9-4.183-2.1-2.8-2.449-6.562-2.091-9.978h0a23.44,23.44,0,0,1,.427-2.562c.715-3.4,1.961-6.021,2.466-6.239h.07l12.906,3.486c6.9-.209,12.087-.383,16-.505,13.524-.444,11.8-.427,12.792-.27a8.9,8.9,0,0,1,7.32,6.771,5.175,5.175,0,0,1,.183.871,9.01,9.01,0,0,1-8.453,10.222Z" transform="translate(-76.788 -113.907)" fill="#00bcd4"/>
        <path id="Trazado_162527" data-name="Trazado 162527" d="M144.264,237.029a101.677,101.677,0,0,1,.819-25.01s1.647-9.507,1.647-9.525h0l-.288-.366-6.344,2.344a60.006,60.006,0,0,1-9.533,1.438c-.4,0-.8.061-1.211.07h0a75.175,75.175,0,0,1-13.193-.5,10.745,10.745,0,0,1-6.754-6.318,17.7,17.7,0,0,1-1.194-5.08l-.392-.575-.418,2.553h0c-.357,3.416,0,7.18,2.091,9.978.131,1.4.288,2.789.462,4.165,6.884,5.229,12.47,13.864,16.827,23.276.871,1.856,1.647,3.738,2.414,5.638-2.7,2.327-7.085,3.346-12.592,3.372-8.444.052-13.943-1.176-25.445-4.462-.967-.27-1.943-.558-2.919-.871-3.686-1.081-7.39-2.274-11.067-3.486l-1.656,2.867-1.4,2.431a21.254,21.254,0,0,0-2.614,9.411.575.575,0,0,0,.436.558c1.638.619,2.867,1.377,3.913.871,1.281-.392,2.5-1.847,4.122-3.529.261-.279.566-.584.871-.871,1.5-1.525,2.7-3.224,3.66-3.782a12.47,12.47,0,0,1,3.965-1.743l.383,4.514c5.751,1.046,11.66.453,33.314,4.27a8.644,8.644,0,0,0,6.161-1.612,5.524,5.524,0,0,0,.627-.549l.174-.157a7.842,7.842,0,0,0,1.142-1.255.2.2,0,0,1,.052-.061,10.54,10.54,0,0,0,.7-1.124,8.941,8.941,0,0,0,.871-5.56c-.044-1.054-.087-2.039-.122-2.954h0c-.575-13.071-.54-13.385-1.115-25.942l9.864-.732c-1.455,9.42-2.771,23.676-.488,36.992a23.993,23.993,0,0,0-.148,4.775.532.532,0,0,0,.34.244l1.83.357a6.642,6.642,0,0,0,1.6.122l2.684-.1h1.333a41.019,41.019,0,0,1-2.24-6.9,55.293,55.293,0,0,1-1.168-7.189Z" transform="translate(-71.5 -114.823)" fill="#1d1d1b" opacity="0.1"/>
        <path id="Trazado_162528" data-name="Trazado 162528" d="M143.07,131.83c3.826,0,4.741-3.486,5.987-6.64l7.721,8.435-2.362,13.786C151.828,141.128,146.294,135.586,143.07,131.83Z" transform="translate(-80.702 -106.038)" fill="#1d1d1b" opacity="0.1"/>
        <path id="Trazado_162529" data-name="Trazado 162529" d="M164.122,124.3l-.174,1.865-.122.932h-.871a.439.439,0,0,1-.087.288c-.1.41-.27,1.107-.436,1.83h0c-.192.871-.392,1.743-.532,2.318-.078.349-.122.566-.122.566a6.327,6.327,0,0,1-1.682,2.614H155.87v-2.736a4.654,4.654,0,0,1-.636-1.054,13.289,13.289,0,0,0-3.625-3.712c-1.455-1.037-1.4-1.969-.732-2.3l-.871-.662-.157-.122-.558-.444-.7-.54a.976.976,0,0,1-.174-1.377l.148-.183,1.577-2.057.314-.383,1.316-1.743.078-.1a1,1,0,0,1,1.386-.174l1.969,1.534a.976.976,0,0,1,.235-.261,1.063,1.063,0,0,1,.767-.288h0a1.185,1.185,0,0,1,1.159,1.22,1.743,1.743,0,0,1,1.516-.087,1.516,1.516,0,0,1,1.054,1.586,1.316,1.316,0,0,1,1.586,0,1.682,1.682,0,0,1,.749,1.83,1.5,1.5,0,0,1,.871,0,1.813,1.813,0,0,1,.976,1.647Z" transform="translate(-81.364 -104.974)" fill="#1d1d1b" opacity="0.1"/>
        <path id="Trazado_162530" data-name="Trazado 162530" d="M157.837,184.377c-.078.157-10.875,2.161-13.35,2.719a7.073,7.073,0,0,1-1.281.174l-12.853.523a13.307,13.307,0,0,1-7.5-1.952l-6.78-4.131h.07l12.984.113c10.867.688,12.13-2.213,13.42-5.6a13.373,13.373,0,0,0-2.231-14.117L130.9,150.27l19.712,12.592c-.34,2.362-.871,5.159-1.525,8.148a101.951,101.951,0,0,1-4.043,13.638C158.56,184.2,156.835,184.22,157.837,184.377Z" transform="translate(-77.231 -109.263)" fill="#1d1d1b" opacity="0.1"/>
        <g id="Grupo_75361" data-name="Grupo 75361" transform="translate(52.621 12.27)">
          <path id="Trazado_162531" data-name="Trazado 162531" d="M165.4,128.514l-3.425,4.418a1.133,1.133,0,0,1-1.586,0L148.3,123.573a1.133,1.133,0,0,1-.375-1.542l3.425-4.418a1.142,1.142,0,0,1,1.586,0l12.1,9.385a1.133,1.133,0,0,1,.366,1.516Z" transform="translate(-133.927 -117.292)" fill="#3c3c3b"/>
          <g id="Grupo_75360" data-name="Grupo 75360" transform="translate(15.974 1.122)">
            <path id="Trazado_162532" data-name="Trazado 162532" d="M156.346,133.44c-.444-.061-.593-.671-1.037-.706a12.889,12.889,0,0,0-3.887-4.1c-2.614-1.821-.453-3.329,1.516-1.847a30.683,30.683,0,0,1,5.865,6.753A19.3,19.3,0,0,1,156.346,133.44Z" transform="translate(-150.215 -119.558)" fill="#ffc990"/>
            <path id="Trazado_162533" data-name="Trazado 162533" d="M156.61,128.314h0a1.185,1.185,0,0,1-1.15-1.22l.052-7.363a1.185,1.185,0,0,1,1.22-1.15h0a1.185,1.185,0,0,1,1.15,1.22l-.052,7.363A1.185,1.185,0,0,1,156.61,128.314Z" transform="translate(-150.89 -118.579)" fill="#ffc990"/>
            <path id="Trazado_162534" data-name="Trazado 162534" d="M157.915,131.227h0a1.194,1.194,0,0,1-.967-1.377l1.351-8.714a1.185,1.185,0,0,1,1.377-.959h0a1.194,1.194,0,0,1,.967,1.377l-1.351,8.714a1.185,1.185,0,0,1-1.377.959Z" transform="translate(-151.079 -118.782)" fill="#ffc990"/>
            <path id="Trazado_162535" data-name="Trazado 162535" d="M159.534,131.718h0a1.185,1.185,0,0,1-.8-1.481L161,122.454a1.194,1.194,0,0,1,1.481-.8h0a1.185,1.185,0,0,1,.8,1.473l-2.1,7.843a1.359,1.359,0,0,1-1.647.749Z" transform="translate(-151.304 -118.968)" fill="#ffc990"/>
            <path id="Trazado_162536" data-name="Trazado 162536" d="M155.378,126.907v3.033a4.409,4.409,0,0,0,3.852,4.688,4.889,4.889,0,0,0,4.741-3.7l.471-3.712h0l.174-1.856a1.2,1.2,0,0,0-1.159-1.394h0c-.584,0-1.063.871-1.081,1.5v-.383a1.185,1.185,0,0,0-1.15-1.22h0a1.185,1.185,0,0,0-1.22,1.15v-.357a1.185,1.185,0,0,0-1.15-1.22h0a1.081,1.081,0,0,0-1.081,1.159c0-.654-.183-1.229-1.211-1.229S155.378,126.907,155.378,126.907Z" transform="translate(-150.878 -119.194)" fill="#ffc990"/>
          </g>
          <path id="Trazado_162537" data-name="Trazado 162537" d="M156.345,157.844c-1.359,10.692,11.773,11.189,10.945.418l-4.479-24.452-6.344.113Z" transform="translate(-135.017 -119.416)" fill="#ffc990"/>
          <path id="Trazado_162538" data-name="Trazado 162538" d="M134.207,150.367,143,158.418l9.586,8.191,1.185-14.927-11.328-11.633C136.726,134.559,127.558,143.526,134.207,150.367Z" transform="translate(-131.885 -120)" fill="#ff9d00"/>
          <path id="Trazado_162539" data-name="Trazado 162539" d="M163.033,167.869c.654,1.647-7.555,1.908-9-.68a36.6,36.6,0,0,1,0-16.487s2.109-.444,1.908.357C157.935,157.29,159.713,163.756,163.033,167.869Z" transform="translate(-134.612 -121.572)" fill="#aa741d"/>
        </g>
      </g>
      <path id="Trazado_162540" data-name="Trazado 162540" d="M29.67,260.6c0,2.057,1.377,3.721,3.076,3.721H259.315c1.691,0,3.067-1.664,3.067-3.721h0c0-2.065-1.377-3.73-3.067-3.73H32.746C31,256.87,29.67,258.534,29.67,260.6Z" transform="translate(-29.67 -114.067)" fill="#131313" opacity="0.1"/>
      <g id="Grupo_75365" data-name="Grupo 75365" transform="translate(3.018 120.591)">
        <g id="Grupo_75363" data-name="Grupo 75363" transform="translate(178.18 17.688)">
          <path id="Trazado_162541" data-name="Trazado 162541" d="M282.476,259.7c.078-.784-.81-.976-1.351-.941-.959.07-2.571-.07-4.357-.174-.41.061-.767,0-1.176.078a6.97,6.97,0,0,0-1.124.183,12.109,12.109,0,0,0-.967.871,21.481,21.481,0,0,0,6.858.871C280.951,260.436,282.406,260.393,282.476,259.7Z" transform="translate(-242.219 -252.566)" fill="#ffc990"/>
          <path id="Trazado_162542" data-name="Trazado 162542" d="M289.9,259.758h0a.6.6,0,0,1-.523.584.193.193,0,0,1-.1,0l-8.592-.061H272.72l.113-1.551.078-.985.148-1.969a.493.493,0,0,0,.357,0,13.58,13.58,0,0,0,1.612-.244c1.656-.322,3.9-.871,4.88-.932a1,1,0,0,1,.235,0,2,2,0,0,1,.706.139l1.577.619.671.261,2.161.871a1.655,1.655,0,0,1,.41.209l2.51,1.63.871.558.575.375a.584.584,0,0,1,.27.5Z" transform="translate(-242.119 -252.053)" fill="#ffc990"/>
          <path id="Trazado_162543" data-name="Trazado 162543" d="M268.9,255.444l-.322,2.911-.174,1.551h0l-14.169.061c-7.607,0-15.59,0-16.357-.052h0a1.744,1.744,0,0,1-.148-.322,2.17,2.17,0,0,1,.122-1.743h0a1.925,1.925,0,0,1,.157-.3c.052-.087.113-.192.174-.279a7.661,7.661,0,0,1,1.054-1.2,11.255,11.255,0,0,1,1.081-.871h0a16.661,16.661,0,0,1,2.248-1.394c3.1-1.63,6.884-2.614,9.019-1.882l2.937.61,1.089.227.349.078.427.087,1.63.331,1.115.235,1.551.314,2.144.444,2.309.471Z" transform="translate(-237.604 -251.678)" fill="#ffc990"/>
        </g>
        <path id="Trazado_162544" data-name="Trazado 162544" d="M241.585,256.578H229.96l1.752-14.178,9.873,1.4Z" transform="translate(-58.441 -232.797)" fill="#e6b582"/>
        <path id="Trazado_162545" data-name="Trazado 162545" d="M238.464,253.67c.227.192.471.392.758.593.575.436,1.281.915,2.118,1.473a13.07,13.07,0,0,0,4.592,1.647.871.871,0,0,0,0,.7h6.1a1.084,1.084,0,0,0,0-.139h4.357a6.448,6.448,0,0,0,6.327-5.542,5.157,5.157,0,0,0,.061-.976l-.052-6.152a6.448,6.448,0,0,0-6.518-6.387h-4.314a1.046,1.046,0,0,0,.052-.54c-.166-.95-1.691-1.089-3.407-.8-1.386.244-2.449.566-2.728,1.325a1.046,1.046,0,0,0-.061.54,1.1,1.1,0,0,0,.052.157,13.437,13.437,0,0,0-4.566,1.743c-.871.575-1.525,1.072-2.1,1.508-.27.209-.514.41-.741.61-1.569,1.377-1.943,2.51-1.917,5.106h0a6.693,6.693,0,0,0,.784,3.712A5.848,5.848,0,0,0,238.464,253.67Z" transform="translate(-59.276 -232.155)" fill="#f2bf89"/>
        <path id="Trazado_162546" data-name="Trazado 162546" d="M260.213,243.538c-.07.288-.131.558-.183.8a19.234,19.234,0,0,0-.462,3.616v.488a11.235,11.235,0,0,0,.1,1.211,20.1,20.1,0,0,0,.357,2.187c.052.227.113.471.174.715s.131.5.209.767a6.309,6.309,0,0,1,.148.68,2.117,2.117,0,0,1-.148,1.359c-.566,1.037-2.5,1.621-7.843.767V257a2.615,2.615,0,0,1,1.516,1,.3.3,0,0,1,0,.139h4.819c3.747,0,4.261-.357,4.592-.61a10.989,10.989,0,0,0,4.1-6.675h0a11.442,11.442,0,0,0-4.436-11.677c-2.344-1.638-4.488-1.142-6.588-.784a22,22,0,0,0-2.71.549c.061.331-.392.758-1.49,1.159v.871C260.6,239.4,260.683,241.586,260.213,243.538Z" transform="translate(-61.323 -232.236)" fill="#61483e"/>
        <path id="Trazado_162547" data-name="Trazado 162547" d="M264.553,248.549a5.882,5.882,0,0,1-2.536,3.878c-1.246.985-3.2,1.621-4.287,2.78a21.977,21.977,0,0,1,3.32-8.357,2.614,2.614,0,0,1,1.891-1.359,1.952,1.952,0,0,1,1.743,1.743,5.29,5.29,0,0,1-.436,2.614Z" transform="translate(-62.012 -233.194)" fill="#61483e"/>
        <path id="Trazado_162548" data-name="Trazado 162548" d="M264.143,244.91A4.9,4.9,0,0,1,262.4,248.1a27.266,27.266,0,0,1-3,2.161,7.476,7.476,0,0,0-2.553,2.614,10.788,10.788,0,0,1,2.51-7.2c.784-.932,1.743-1.83,1.908-3.033a5.013,5.013,0,0,1,.078-.81.749.749,0,0,1,.523-.575c.444-.078.758.41.941.871q.819,1.917,1.664,3.843Z" transform="translate(-61.898 -232.649)" fill="#61483e"/>
        <path id="Trazado_162549" data-name="Trazado 162549" d="M60.084,241.316a7.52,7.52,0,0,1-.462,1.691,16.1,16.1,0,0,1-5.612,7.137,8.173,8.173,0,0,1-1.046.636,6.1,6.1,0,0,1-.871.436,15.427,15.427,0,0,0-2.414,1.342c-2.614,1.786-5.037,4.244-6.2,4.732a3.485,3.485,0,0,1-1.813.174,6.639,6.639,0,0,1-2.4-.959c-.392-.235-.636-.418-.636-.418l2.335-4.357,5.229-9.681,2.9-1.743L48,238.911l.706-1.264,1.412-2.527,2.928,1.386.192.1c1.133.54,2.118,1.046,2.945,1.542s1.307.784,1.821,1.133a14.232,14.232,0,0,1,1.255.967C59.867,240.775,60.111,241.115,60.084,241.316Z" transform="translate(-33.84 -231.861)" fill="#2e2e2d"/>
        <path id="Trazado_162550" data-name="Trazado 162550" d="M104,255.453l1.081-16.932c.357,0,36.539-2.518,37.706-2.353l3.991,17.28c-3.616.619-6.971.41-10.074.758C123.781,255.645,111.886,255.288,104,255.453Z" transform="translate(-42.245 -231.995)" fill="#4f5050"/>
        <path id="Trazado_162551" data-name="Trazado 162551" d="M52.565,250.043c-1.29-4.253,1.926-13.263,1.926-13.263h.157c19.956.488,30.935,1.081,43.806,1.786l1.743,3.9-2.8,13.071C84.555,252.779,53.236,250.13,52.565,250.043Z" transform="translate(-35.593 -232.074)" fill="#4f5050"/>
        <path id="Trazado_162552" data-name="Trazado 162552" d="M262.841,251.725a3.224,3.224,0,0,1-.793,3.416,5.272,5.272,0,0,1-3.364,1.394,15.067,15.067,0,0,1-3.695-.314,8.766,8.766,0,0,0,3.416-3.137,13.069,13.069,0,0,1,1.133-1.743,2.231,2.231,0,0,1,1.821-.871A1.969,1.969,0,0,1,262.841,251.725Z" transform="translate(-61.66 -233.835)" fill="#61483e"/>
        <path id="Trazado_162553" data-name="Trazado 162553" d="M160.759,257.219c-.819,0-1.691.052-2.614,0h0c-.924,0-1.856-.07-2.806-.131l-.584-.044a149.834,149.834,0,0,1-14.98-2.24h0l-2.78-.514h-.235V238.4a14.17,14.17,0,0,1,3.2-2.1c5.777-2.815,13.734-2.379,18.012-.34.3,2.179.793,4.427,1.29,6.649.227,1.02.444,2.03.671,3.033a55.841,55.841,0,0,1,1.054,6.318A16.68,16.68,0,0,1,160.759,257.219Z" transform="translate(-46.458 -231.756)" fill="#565858"/>
        <path id="Trazado_162554" data-name="Trazado 162554" d="M55.387,245.02c-.3.4-.392,1.02-.732,1.577-1.142,1.943-1.429,2.919-3.006,3.669a8.832,8.832,0,0,1-.871.349c-.41.131-.871.27-1.473.41l-.322.087c-2.858.819-7.512,3.948-10.4,5.664a11.929,11.929,0,0,1-2.248,1.168,3.355,3.355,0,0,1-1.813-.122c-1.56-.54-1.386-.81-1.386-.81a41.934,41.934,0,0,1,2-4.157,62.674,62.674,0,0,1,4.357-6.867,18.753,18.753,0,0,1,4.357-3.486l-.645-1.281,3.355-3.991c.444.2.871.436,1.368.7a26.77,26.77,0,0,1,2.684,1.8l.4.3C53.713,242.1,55.848,244.445,55.387,245.02Z" transform="translate(-33.133 -232.132)" fill="#3c3c3b"/>
        <path id="Trazado_162555" data-name="Trazado 162555" d="M222.9,251.649a10.639,10.639,0,0,1-1.647,2.719.924.924,0,0,1-.148.174s0,0,0,.044h0a4.191,4.191,0,0,1-2.2,1.464,120.617,120.617,0,0,1-14.317.932c-2.266.07-4.645.113-7.111.139h-.741c-16.409.218-35.249-.1-35.354-.174a.27.27,0,0,0,0-.087,37.368,37.368,0,0,1-.1-5.229,58.839,58.839,0,0,1,1.211-9.42,38.117,38.117,0,0,1,1.952-6.649c8.514,0,20.914-4.122,29.28-4.183h2.911c14.814,0,22.2,3.73,25.4,8.3a11.919,11.919,0,0,1,.871,1.516,12.418,12.418,0,0,1-.009,10.457Z" transform="translate(-49.605 -231.38)" fill="#00bcd4"/>
        <path id="Trazado_162556" data-name="Trazado 162556" d="M145.474,254.461c-3.616.61-6.928.4-10.056.758h0c-12.932,1.438-24.827,1.089-32.678,1.255l.078-1.115.3-4.662.68-10.788v-.366l1.1-.07h.392c4.749-.331,19.746-1.359,28.661-1.882,3.817-.235,6.51-.375,6.823-.322l4.253,15.686.244.871Z" transform="translate(-42.083 -232.136)" fill="#565858"/>
        <path id="Trazado_162557" data-name="Trazado 162557" d="M98.918,243.779,97.663,249.6l-.366,1.7-.941,4.427-.235,1.081c-12.941-2.179-43.71-1.194-44.381-1.22a8.549,8.549,0,0,1-.41-2.431v-1.743a8.218,8.218,0,0,1,.052-1.133,72.329,72.329,0,0,1,1.63-10.239.244.244,0,0,0,0-.052h.166a2.056,2.056,0,0,0,.331,0l6.1-.1c16.034-.235,25.986-.061,37.471.061l.139.288.959,1.952Z" transform="translate(-35.473 -232.46)" fill="#565858"/>
        <path id="Trazado_162558" data-name="Trazado 162558" d="M165.1,236.17v.1c-.235.671-.462,1.342-.671,2.022-.078.235-.148.488-.218.723-.349,1.15-.645,2.335-.915,3.538s-.471,2.179-.671,3.294c-.4,2.074-.732,4.2-1.046,6.361-.235,1.63-.444,3.277-.671,4.923v.453l-2.815-.218h-.575c-.07,0-.113-.166-.139-.427a28.914,28.914,0,0,1,.27-4.252c.349-3.181.967-7.381,1.595-10.745.235-1.307.462-2.492.68-3.433.122-.558.253-1.028.366-1.4.174-.575.322-.871.436-.871Z" transform="translate(-49.109 -231.996)" fill="#078c9d"/>
        <path id="Trazado_162559" data-name="Trazado 162559" d="M232.807,256.915l-2.832-.2c-1.281-5.682-1.176-11.015.732-15.895l5.307,2C232.955,245.674,232.205,251.791,232.807,256.915Z" transform="translate(-58.334 -232.594)" fill="#00bcd4"/>
        <path id="Trazado_162560" data-name="Trazado 162560" d="M225.459,247.892a17.271,17.271,0,0,1-3.66,3.486c-.749.532-1.455.993-2.065,1.368-1.2.741-2.536,1.473-3.826,2.144-2.7,1.429-5.229,2.614-6.353,3.094l-.532.244-5.385.122h-1.377a1.672,1.672,0,0,1-.558-.244c-2.091-1.246-2-6.292,2.362-9.525,2.545-1.891,5.926-4.95,9.376-7.119h0c4.8-3.006,9.734-4.357,12.749,1.551l.07.113C227.106,244.738,226.566,246.393,225.459,247.892Z" transform="translate(-54.637 -232.346)" fill="#078c9d"/>
        <g id="Grupo_75364" data-name="Grupo 75364" transform="translate(147.68 17.54)">
          <path id="Trazado_162561" data-name="Trazado 162561" d="M249.293,254.647c-.1-.784-1.011-.767-1.534-.61a41.194,41.194,0,0,1-4.261.819c-.383.157-.741.209-1.124.34a8.063,8.063,0,0,0-1.063.436c-.27.331-.444.6-.741,1.037a21.594,21.594,0,0,0,6.867-.741C247.977,255.737,249.389,255.344,249.293,254.647Z" transform="translate(-207.485 -251.822)" fill="#ffc990"/>
          <path id="Trazado_162562" data-name="Trazado 162562" d="M254.847,259.766h0a.6.6,0,0,1-.523.593h-.1l-8.583-.052H237.68l.183-2.545.148-1.978c0,.061.131.07.366.061s.932-.131,1.612-.253c1.656-.322,3.9-.828,4.871-.932h.227a2,2,0,0,1,.715.139l1.586.627.662.261,2.161.871a2.038,2.038,0,0,1,.41.218l2.518,1.63,1.438.924A.6.6,0,0,1,254.847,259.766Z" transform="translate(-207.113 -251.913)" fill="#ffc990"/>
          <path id="Trazado_162563" data-name="Trazado 162563" d="M233.867,255.422l-.2,1.743v.575l-.235,2.109h0s-23.851.131-29.428,0h-1.089a.731.731,0,0,1-.1-.2c-.941-1.874,1.464-4.235,4.653-5.943s6.971-2.684,9.167-1.952l5.534,1.15,3.773.784L227,253.9l1.272.27,1.02.209Z" transform="translate(-202.603 -251.508)" fill="#ffc990"/>
        </g>
      </g>
      <path id="Trazado_162564" data-name="Trazado 162564" d="M259.09,258.123h0a.6.6,0,0,1-.523.584.192.192,0,0,1-.1,0l-8.592-.061h-7.764l-14.169.061c-7.607,0-15.59,0-16.357-.052h0s-23.851.131-29.428,0h-1.377a1.673,1.673,0,0,1-.558-.244c-16.409.218-35.249-.1-35.354-.174l-2.815-.218h-.575a149.824,149.824,0,0,1-14.98-2.24h0c-12.932,1.438-24.827,1.089-32.678,1.255-12.941-2.179-43.71-1.194-44.381-1.22a8.549,8.549,0,0,1-.41-2.431c-2.614,1.786-5.037,4.244-6.2,4.732a3.486,3.486,0,0,1-1.813.174,6.64,6.64,0,0,1-2.4-.959,11.932,11.932,0,0,1-2.283,1.211,3.355,3.355,0,0,1-1.813-.122c-1.56-.54-1.386-.81-1.386-.81a41.937,41.937,0,0,1,2-4.157c1.691-.218,3.4-.514,5.141-.871,2.867-.575,5.8-1.281,8.714-2h0a16.935,16.935,0,0,0,1.743.636c.471.157.967.3,1.49.436,5.926,1.56,14.283,2,22.518,1.56a96.015,96.015,0,0,0,17.873-2.51c.505.218,1.02.41,1.542.6l.8.27.253.078.645.183c8.461,2.414,18.692,1.447,27.589-.723,1.063-.244,2.083-.505,3.085-.793a18.239,18.239,0,0,0,9.586,3.172c.471,0,.959.061,1.438.061a35.806,35.806,0,0,0,4.052-.166c1.011-.1,2.057-.235,3.111-.41h.871c.706,0,1.4,0,2.1-.044a105.843,105.843,0,0,0,44.268-11.05h.061c-3.852,3.939-6.971,7.729-6.431,10.736a3.668,3.668,0,0,0,.427,1.237c-.1.558,3.137,1.054,8.383,1.473,2.858.235,6.309.462,10.152.645h.052a.262.262,0,0,0,.122,0l2.78.139,4.043.174h.3l3.416.139h.993l8.1.261h.27c.749,0,1.49.052,2.248.061,1.255,0,2.527.078,3.782.1s2.457.07,3.677.087l2.187.07,5.481.1h1.072c2.954,0,5.786.087,8.427.1,2.431,0,4.7.052,6.719.052l.575.375a.584.584,0,0,1,.3.505Z" transform="translate(-30.115 -112.139)" fill="#1d1d1b" opacity="0.1"/>
      <path id="Trazado_162565" data-name="Trazado 162565" d="M175.341,139.3a3.6,3.6,0,1,1-3.024-3.948,3.486,3.486,0,0,1,3.024,3.948Z" transform="translate(-47.478 -98.436)" fill="#81d4fa"/>
      <path id="Trazado_162566" data-name="Trazado 162566" d="M191.327,134.771a5.176,5.176,0,1,1-4.357-5.69,5.072,5.072,0,0,1,4.357,5.69Z" transform="translate(-49.129 -97.627)" fill="#81d4fa"/>
      <path id="Trazado_162567" data-name="Trazado 162567" d="M235.5,114.785c-1.525,9.821-13.2,16.165-26.064,14.161s-22.064-11.59-20.531-21.419S202.1,91.361,214.97,93.365,237.034,104.955,235.5,114.785Z" transform="translate(-50.123 -92.995)" fill="#81d4fa"/>
    </g>
    <g id="Grupo_75367" data-name="Grupo 75367" transform="translate(-1188.462 257.834)">
      <path id="Trazado_162568" data-name="Trazado 162568" d="M203.974,118.055H202v-7.581l-2.344.732v-1.6l4.1-1.473h.209Z" transform="translate(-199.66 -108.002)" fill="#fff"/>
      <path id="Trazado_162569" data-name="Trazado 162569" d="M219.057,118.038h-6.8v-1.325l3.207-3.425a8.026,8.026,0,0,0,.976-1.255,2.03,2.03,0,0,0,.314-1.02,1.507,1.507,0,0,0-.331-1.037,1.211,1.211,0,0,0-.95-.383,1.307,1.307,0,0,0-1.054.462,1.83,1.83,0,0,0-.383,1.211H212.06a3.242,3.242,0,0,1,.436-1.656,3.05,3.05,0,0,1,1.22-1.176,3.669,3.669,0,0,1,1.778-.436,3.486,3.486,0,0,1,2.379.741,2.614,2.614,0,0,1,.871,2.074,3.39,3.39,0,0,1-.383,1.5,8.383,8.383,0,0,1-1.307,1.743l-2.257,2.37h4.27Z" transform="translate(-201.254 -107.984)" fill="#fff"/>
      <path id="Trazado_162570" data-name="Trazado 162570" d="M227.422,112.215h1.089a1.508,1.508,0,0,0,1.115-.375,1.4,1.4,0,0,0,.357-.993,1.246,1.246,0,0,0-.357-.941,1.4,1.4,0,0,0-.985-.331,1.429,1.429,0,0,0-.941.314.958.958,0,0,0-.383.8h-1.969a2.4,2.4,0,0,1,.418-1.386,2.789,2.789,0,0,1,1.168-.967,3.878,3.878,0,0,1,1.664-.349,3.712,3.712,0,0,1,2.457.749,2.562,2.562,0,0,1,.871,2.074,2.091,2.091,0,0,1-.418,1.255,2.71,2.71,0,0,1-1.089.871,2.327,2.327,0,0,1,1.664,2.318,2.614,2.614,0,0,1-.967,2.118,3.913,3.913,0,0,1-2.545.793,3.669,3.669,0,0,1-2.431-.784,2.553,2.553,0,0,1-.941-2.065h1.969a1.133,1.133,0,0,0,.418.871,1.534,1.534,0,0,0,1.028.357,1.516,1.516,0,0,0,1.1-.375,1.263,1.263,0,0,0,.4-.985c0-.985-.549-1.481-1.638-1.481h-1.037Z" transform="translate(-202.944 -107.983)" fill="#fff"/>
    </g>
  </g>
</svg>
