<svg xmlns="http://www.w3.org/2000/svg" width="236.906" height="127.396" viewBox="0 0 236.906 127.396">
  <g id="Capa_2" data-name="Capa 2" transform="translate(-9.671 -99.07)">
    <g id="Grupo_75383" data-name="Grupo 75383" transform="translate(31.577 99.07)">
      <path id="Trazado_162613" data-name="Trazado 162613" d="M104.29,220.6c.128-.916,1.219-.916,1.832-.715,1.09.339,3.014.623,5.1,1,.458.183.916.238,1.347.4a8.5,8.5,0,0,1,1.264.531c.321.394.531.715.916,1.246a25.891,25.891,0,0,1-8.246-.916C105.856,221.887,104.18,221.448,104.29,220.6Z" transform="translate(-43.908 -130.531)" fill="#f2bf89"/>
      <path id="Trazado_162614" data-name="Trazado 162614" d="M95.05,225.867h0a.715.715,0,0,0,.623.705h.119l10.38-1.448,4.306.6c2.913,0,5.983-1.649,5.781-4.581v-.055c0,.073-.156.092-.44.073s-1.109-.156-1.933-.312c-1.979-.394-4.663-1.008-5.827-1.136h-.275a2.309,2.309,0,0,0-.852.165l-1.9.742-.806.311-2.584,1.008a2.116,2.116,0,0,0-.495.257L97.1,224.135l-1.722,1.1a.733.733,0,0,0-.33.632Z" transform="translate(-42.914 -130.623)" fill="#f2bf89"/>
      <g id="Grupo_75379" data-name="Grupo 75379" transform="translate(53.146)">
        <g id="Grupo_75376" data-name="Grupo 75376" transform="translate(10.506 28.162)">
          <path id="Trazado_162615" data-name="Trazado 162615" d="M118.191,193.873c2.639-10.783,16.491-6.212,11.681,3.848l-12.542,22.758L110,218.967Z" transform="translate(-110 -154.88)" fill="#f2bf89"/>
          <path id="Trazado_162616" data-name="Trazado 162616" d="M139.476,161.28l-3.188,14.659-3.8,15.447-11.416-5.451,2.08-12.332,2.84-14.879C127.85,148.957,141.455,149.5,139.476,161.28Z" transform="translate(-110.928 -151.879)" fill="#d99651"/>
          <path id="Trazado_162617" data-name="Trazado 162617" d="M129.832,198.535c1.109.65,2.217-1.035,2.886-2.987.476-2.281,1.283-3.738.5-4.086l-11.91-4.746c-1.118-.5-3.014,4.508-2.19,4.709Z" transform="translate(-110.748 -154.797)" fill="#c48849"/>
        </g>
        <path id="Trazado_162618" data-name="Trazado 162618" d="M190.142,234.719l-2.373,8.062.861,1.832a5.213,5.213,0,0,1,1.457,0l.467.064a12.982,12.982,0,0,1,4.086,1.832c.98.577,2.217,2.327,3.775,3.894l.916.916c1.667,1.732,2.923,3.234,4.242,3.665,1.081.541,2.345-.238,4.031-.87a.6.6,0,0,0,.449-.577,21.914,21.914,0,0,0-2.694-9.7l-1.448-2.5-1.713-2.959-1.988-3.445-.174-.293-.614-1.219-.183-.339-1.283-2.465a7.164,7.164,0,0,0-.916-1.365l-1.264-1.448a.522.522,0,0,0-.385-.192,19.855,19.855,0,0,0-3.536,2.135c-1.677,1.136-3.39,2.373-3.72,2.7l-.046.046c-.192.174-.641.916-1.383,1.7-.5.541,4.581.055,3.811.458A2.9,2.9,0,0,1,190.142,234.719Z" transform="translate(-105.921 -132.583)" fill="#61483e"/>
        <path id="Trazado_162619" data-name="Trazado 162619" d="M142.416,246.629a9.067,9.067,0,0,0,.568,1.246v.073a7.4,7.4,0,0,0,1,1.429l.156.192a8.777,8.777,0,0,0,3.967,2.538c4.407,1.512,7.54-.733,9.162-4.929.119-.311.229-.641.33-.971s2.19-4.947,4.682-11.764h0c1.961-5.4,4.214-12.176,6.065-19.368.366-1.374.705-2.749,1.035-4.187.257-1.127.5-2.272.733-3.408.082-.541.147-1.044.192-1.539h0a18.147,18.147,0,0,0,.073-2.07,12.1,12.1,0,0,0-.293-2.593,8.6,8.6,0,0,0-.586-1.64,5.5,5.5,0,0,0-1.915-2.245c-5.717-3.875-18.324,3.179-18.324,3.179-.431,2.41-.815,4.581-1.145,6.413-.064.33-.119.641-.174.916-.229,1.273-.431,2.446-.632,3.527-2.245,12.744-2.254,13.092-4.581,26.358-.165.916-.339,1.924-.531,3A9.345,9.345,0,0,0,142.416,246.629Z" transform="translate(-102.162 -129.952)" fill="#785039"/>
        <path id="Trazado_162620" data-name="Trazado 162620" d="M144,251.46a.211.211,0,0,1,.055.064c.165.192.66.77,1.173,1.292l.174.165a7.961,7.961,0,0,0,.65.568,9,9,0,0,0,6.358,1.658c22.309-3.94,28.4-3.326,34.32-4.4l.4-4.654.229-2.749L187.2,230.58s-13.1,2.217-25.79,5.057h0c-7.705,1.7-14.192,3.591-15.978,5.286-.046.046-.348,2.016-.669,4.233C144.366,248.051,143.926,251.377,144,251.46Z" transform="translate(-102.343 -132.832)" fill="#785039"/>
        <path id="Trazado_162621" data-name="Trazado 162621" d="M203.591,234.711l-2.373,8.062.916,1.832a5.148,5.148,0,0,1,1.448,0l.467.064a12.936,12.936,0,0,1,4.1,1.832c.98.577,2.217,2.327,3.775,3.894l.916.916c1.658,1.732,2.923,3.234,4.242,3.665,1.081.541,2.336-.238,4.022-.87a.6.6,0,0,0,.458-.577,21.988,21.988,0,0,0-2.7-9.7l-1.438-2.5-1.713-2.959-1.988-3.445c-.064-.1-.119-.2-.183-.293l-.6-1.219-.183-.339-1.283-2.465a7.21,7.21,0,0,0-.916-1.365l-1.374-1.539a.522.522,0,0,0-.385-.192,19.854,19.854,0,0,0-3.536,2.135c-1.677,1.136-3.39,2.373-3.72,2.7v.046c-.192.174-.641.916-1.383,1.7-.513.541,4.581.055,3.811.458A3.02,3.02,0,0,1,203.591,234.711Z" transform="translate(-107.047 -132.574)" fill="#61483e"/>
        <path id="Trazado_162622" data-name="Trazado 162622" d="M156.411,247.273a9.936,9.936,0,0,0,.724,1.164l.055.064a7.86,7.86,0,0,0,1.173,1.292l.174.165a8.832,8.832,0,0,0,4.269,2.006c4.581.916,7.375-1.695,8.447-6.074.082-.321.156-.66.211-1s1.53-5.195,3.124-12.268h0c1.246-5.607,2.6-12.625,3.518-19.991.174-1.42.339-2.849.476-4.288.11-1.154.211-2.318.293-3.472v-1.557h0a19.233,19.233,0,0,0-.192-2.061,12,12,0,0,0-.632-2.529,7.98,7.98,0,0,0-.788-1.558,5.561,5.561,0,0,0-2.181-1.97c-6.184-3.106-17.746,5.5-17.746,5.5-.11,2.446-.22,4.581-.3,6.551v.916c-.064,1.292-.11,2.483-.165,3.582-.586,12.927-.55,13.275-1.154,26.725,0,.916-.082,1.961-.128,3.042a9.217,9.217,0,0,0,.825,5.763Z" transform="translate(-103.303 -129.809)" fill="#8f6044"/>
        <path id="Trazado_162623" data-name="Trazado 162623" d="M157.29,251.465l.055.064c.165.192.66.77,1.173,1.292l.174.165a6.678,6.678,0,0,0,.65.568,8.969,8.969,0,0,0,6.349,1.658c22.309-3.94,31.516-4.049,37.444-5.131l-2.519-19.432s-13.22,2.181-25.873,4.993h0c-7.714,1.7-14.192,3.591-15.978,5.286-.046.046-.348,2.016-.669,4.233C157.674,248.057,157.235,251.383,157.29,251.465Z" transform="translate(-103.457 -132.838)" fill="#8f6044"/>
        <path id="Trazado_162624" data-name="Trazado 162624" d="M128.065,148.185a10,10,0,0,1-4.709,3.665L113.8,138.794c.852-.586,4.975-4.7,8-7.824l7.329,7.8,1.035,1.081a1.4,1.4,0,0,1,.192,0C131.665,140.159,129.76,146,128.065,148.185Z" transform="translate(-99.812 -119.51)" fill="#f0bd87"/>
        <g id="Grupo_75377" data-name="Grupo 75377">
          <path id="Trazado_162625" data-name="Trazado 162625" d="M124.2,133.229c.916,1.594-2.574,1.832-4.077,3.042a.787.787,0,0,1-.128.119c3.161,4.031,1.713,9.574-.495,11.846l-.229.22-2.034,1.585c-1.951,1.475-4.471-.073-5.717-1.686l-.321-.513c-.321-.495-.825-1.3-1.31-2.061h0c-.412-.65-.815-1.264-1.063-1.631l-.174-.247-1.118.412a1.292,1.292,0,0,1-1.759-.843l-.632-3L105,139.8a12.3,12.3,0,0,1-1.31-.815,16.712,16.712,0,0,1-1.2-2.071,13.065,13.065,0,0,1-1.219-3.8,10.188,10.188,0,0,1,3.985-9.73c1.695-1.218,3.83-2.95,6.413-3.454l.55-.092c2.749-.348,5.983.825,9.629,5.552C123.211,127.7,123.166,131.452,124.2,133.229Z" transform="translate(-98.752 -118.571)" fill="#ffc990"/>
          <path id="Trazado_162626" data-name="Trazado 162626" d="M125.4,135.519c-5.5,6.175-7.274-4.013-7.274-4.013s-1.548,1.136-1.6,2.18c-.77.678-1.292,1.035-1.933,1.585-6.349-8-5.809-10.774-13.541-2.263-6.12-2.263.467-9.922,3.463-12.02,5.259-3.665,11.745-3.4,15.676,1.154C122.47,124.782,123.89,126.156,125.4,135.519Z" transform="translate(-98.532 -118.461)" fill="#61483e"/>
          <path id="Trazado_162627" data-name="Trazado 162627" d="M121.25,132.39c1.1,1.521,1.072,4.214.073,4.929s-1.777-.6-2.9-2.116c-.733-1.008-2.016-2.263-1.145-3.362S119.647,130.146,121.25,132.39Z" transform="translate(-100.08 -119.501)" fill="#ffc990"/>
        </g>
        <path id="Trazado_162628" data-name="Trazado 162628" d="M169.427,197.608l-.247.174a37.288,37.288,0,0,1-3.72,2.355c-6.166,3.417-13.651,5.36-16.858,1.832-3.811-4.2-12.084-16.7-14.906-21.2a88.238,88.238,0,0,1-6.413-11.809h0a.43.43,0,0,1,0-.092,33.972,33.972,0,0,1-3.033-14.036c0-1.383.055-2.226.055-2.226h0c.834-.449,2.171-2.116,3.436-4.224a28.4,28.4,0,0,0,3.39-7.742h.119a18.655,18.655,0,0,1,1.951.238,25.177,25.177,0,0,1,8.878,3.6l.156.1c6.221,3.83,20.477,25.3,27.265,35.172.449.66,2.446,4.911,5.222,9.968C175.712,191.662,173.256,194.777,169.427,197.608Z" transform="translate(-100.688 -121.889)" fill="#e69f56"/>
        <path id="Trazado_162629" data-name="Trazado 162629" d="M120.194,150.311c-.211,4.81-8.246,5.35-8.3-.394,0-.586-.825-1.3-1.31-2.061h0c-.568.247-1.484-1.191-1.063-1.631a1.741,1.741,0,0,1,.55-.449,9.162,9.162,0,0,1,2.474-1.09,4.48,4.48,0,0,1,2.666.092,6.862,6.862,0,0,1,2.639,2.171,19.24,19.24,0,0,1,2.162,2.987A2.867,2.867,0,0,1,120.194,150.311Z" transform="translate(-99.444 -121.652)" fill="#61483e"/>
        <path id="Trazado_162630" data-name="Trazado 162630" d="M115.8,148.292a1.722,1.722,0,0,1-.6,1.732,1.7,1.7,0,0,1-1.777.275c-.247-.174-.412-.678-.705-.641a3.051,3.051,0,0,0-.724.458c-.321-.495-.825-1.3-1.31-2.061h0a4.8,4.8,0,0,1,.467-.275,7.822,7.822,0,0,1,1.832-.76,3.069,3.069,0,0,1,1.924.064A1.576,1.576,0,0,1,115.8,148.292Z" transform="translate(-99.552 -121.889)" fill="#ffc990"/>
        <path id="Trazado_162631" data-name="Trazado 162631" d="M170.447,199.073l-.4.257-3.72,2.355c-6.166,3.417-13.651,5.36-16.858,1.832-3.811-4.2-12.084-16.7-14.906-21.2l3.509-18.992,7.274-4.214-1.466,25.066c6.111,16.986,13.816,21.072,26.413,14.97Z" transform="translate(-101.552 -124.146)" fill="#1d1d1b" opacity="0.1"/>
        <g id="Grupo_75378" data-name="Grupo 75378" transform="translate(12.586 28.526)">
          <path id="Trazado_162632" data-name="Trazado 162632" d="M121.551,193.589c3.1-10.655,16.7-5.5,11.507,4.352l-13.514,22.19L112.27,218.3Z" transform="translate(-112.27 -155.245)" fill="#ffc990"/>
          <path id="Trazado_162633" data-name="Trazado 162633" d="M144.224,161.936l-3.82,14.521-4.425,15.254-11.168-5.937,2.611-12.231L130.9,158.8C133.138,149.119,146.707,150.255,144.224,161.936Z" transform="translate(-113.321 -152.278)" fill="#e69f56"/>
          <path id="Trazado_162634" data-name="Trazado 162634" d="M133.079,198.7c1.09.7,2.263-.916,3.023-2.858.568-2.263,1.438-3.665.669-4.059l-11.727-5.259c-1.09-.55-3.207,4.379-2.391,4.581Z" transform="translate(-113.125 -155.145)" fill="#d1914e"/>
        </g>
      </g>
      <path id="Trazado_162635" data-name="Trazado 162635" d="M250.68,257.662c0,2.465-1.578,4.462-3.527,4.462H39.207c-1.958,0-3.527-2-3.527-4.462h0c0-2.465,1.587-4.462,3.527-4.462H247.144c1.958,0,3.527,2,3.527,4.462Z" transform="translate(-35.68 -134.728)" fill="#131313" opacity="0.1"/>
      <g id="Grupo_75382" data-name="Grupo 75382" transform="translate(1.857 92.551)">
        <path id="Trazado_162636" data-name="Trazado 162636" d="M273.5,254.69l-3.784.467c-1.054.119-2.043.211-2.932.275a32.674,32.674,0,0,1-4.645,0c-1.557-.128-2.4-.394-2.51-.641a10.444,10.444,0,0,1-.705-2.51c-.577-3.555-.064-8.749,2.465-12.4.11-.174.229-.339.339-.522,2.355-3.793,3.372-9.464,4.434-10.994,1.594-2.272,5.6-1.832,5.6-1.832l.064.834,1.264,17.966-1.832,3.518,1.979.7.046.971Z" transform="translate(-64.623 -225.041)" fill="#2e2e2d"/>
        <path id="Trazado_162637" data-name="Trazado 162637" d="M168.822,251.978c-6.706,5.387-18.47,4.7-24.251.092-1.273-7.962-1.6-15.309,0-21.374,9.07-.431,21.906,2.071,28.713,3.142Z" transform="translate(-50.86 -225.389)" fill="#00bcd4"/>
        <path id="Trazado_162638" data-name="Trazado 162638" d="M275.435,246.1l-2.162,3.335,1.906.916-.238,5.14-3.811.092c-1.585,0-2.987,0-4.187-.055a24.687,24.687,0,0,1-4.379-.586c-.916-.229-1.374-.476-1.448-.669a9.608,9.608,0,0,1-.412-2.025c-.366-3.619.586-9.079,3.6-12.652s4.581-9.519,5.864-10.994A3.894,3.894,0,0,1,272,227.452a9.025,9.025,0,0,1,3.94-.165Z" transform="translate(-64.784 -225.095)" fill="#3c3c3b"/>
        <g id="Grupo_75381" data-name="Grupo 75381" transform="translate(0 3.41)">
          <path id="Trazado_162639" data-name="Trazado 162639" d="M76.5,236.67v15.2l-6.358.2h-.009l-1.292.046-5.332.165-.027-1.026v-.211l-.092-4.077-.009-.284-.046-2.355-.137-5.818,3.848-.531,3.848-.531,2.318-.321Z" transform="translate(-39.844 -229.303)" fill="#f0b87d"/>
          <g id="Grupo_75380" data-name="Grupo 75380">
            <path id="Trazado_162640" data-name="Trazado 162640" d="M66.323,228.969a3.216,3.216,0,0,1,2.245,2.309l.614,2.675a7.9,7.9,0,0,1-.247,3.069h0a10.142,10.142,0,0,1-7.274,7.329.76.76,0,0,1,0,.137h0c.431,1.97,3.161,4.581,1.31,5.25-2.052.76-4.526,3.875-7.238,4.837-12.414,2.9-13.743-4.911-14.97-9.482a10.838,10.838,0,0,1,3.3-10.628,13.743,13.743,0,0,1,3.555-2.309,20.355,20.355,0,0,1,2.373-.916,14.968,14.968,0,0,1,1.631.22l.568-.458,2.51-2.034a1.365,1.365,0,0,1,2.016.476l.641,1.09c.825-.2,5.36-1.732,5.36-1.732A6.642,6.642,0,0,1,66.323,228.969Z" transform="translate(-37.937 -228.629)" fill="#f0b87d"/>
            <path id="Trazado_162641" data-name="Trazado 162641" d="M66.707,251.933c-.238,1.585-1.667,2.547-3.573,3.142-.33.11-.678.192-1.026.275-3.445.8-7.925.669-10.078.77H50.7c-6.413.137-9.079-1.09-10.756-4.5a25.551,25.551,0,0,1-1.558-4.508c-1.411-5.314-.495-9.812,1.521-11.681a3.317,3.317,0,0,1,3.949-.531h0c0,.632.082,1.219.128,1.759.971,10.078,5.231,7.018,15.273,4.828a24.612,24.612,0,0,1,.806,2.547.79.79,0,0,0-.064.092c-.724.916-2.941,3.317-3.078,3.472a13.229,13.229,0,0,1,4.361-1.145h.192a4.828,4.828,0,0,1,.632,0h0a4.581,4.581,0,0,1,2.858,1.008h0a4.234,4.234,0,0,1,.7.751A6.862,6.862,0,0,1,66.707,251.933Z" transform="translate(-37.707 -229.12)" fill="#3c3c3b"/>
            <path id="Trazado_162642" data-name="Trazado 162642" d="M60.017,249.733c1.933-.522,3.72-2.749,3.372-4.013s-1.832-.7-3.793-.192c-1.283.33-3.188.495-3.216,1.988C56.362,248.826,57.186,250.493,60.017,249.733Z" transform="translate(-39.272 -229.998)" fill="#f0b87d"/>
          </g>
          <path id="Trazado_162643" data-name="Trazado 162643" d="M68.258,229a3.216,3.216,0,0,1,2.245,2.309l.614,2.675a7.9,7.9,0,0,1-.247,3.069h0a8.75,8.75,0,0,1-3.307,2.309A25.814,25.814,0,0,1,63.54,240.6a6.541,6.541,0,0,0,2.9-2.272A11.754,11.754,0,0,0,68.093,235a10.884,10.884,0,0,0,.632-3.665A6.413,6.413,0,0,0,68.258,229Z" transform="translate(-39.872 -228.66)" fill="#050504" opacity="0.1"/>
        </g>
        <path id="Trazado_162644" data-name="Trazado 162644" d="M141.136,247.842c-.449,1.512-.916,3.033-1.512,4.581a1.076,1.076,0,0,1-.119.339c-.3.815-.6,1.64-.916,2.446h-.724c-2.877,0-11.434,0-21.4.082h-2l-9.62.073h-3.481c-12.552.092-19,1.283-25.6-2.254h0a19.435,19.435,0,0,1-1.75-1.035l-.449-.137-2.749-.861h0c.211-.815.394-1.64.577-2.474l.247-1.237h0c.705-3.555,1.228-7.027,1.832-9.766.119-.513.238-1,.376-1.457h0c.046-.165.092-.3.137-.458.421-.861,2.749-2.144,2.749-2.144a26.726,26.726,0,0,1,8.768-5.121,37.012,37.012,0,0,1,9.931-2.217c.65-.064,1.328-.11,2.025-.128,1.4-.064,2.877-.046,4.416,0,7.21-1.631,30.509-2.391,40.99,3.555l.614.357v.22C144.141,235.354,143.079,241.483,141.136,247.842Z" transform="translate(-40.483 -224.908)" fill="#ff9d00"/>
        <path id="Trazado_162645" data-name="Trazado 162645" d="M118.88,245.58l-1.383,8.979-.321,2.144v.192h-1.081l-10.481-.092-17.407-.165c-5.378-.916-7.412-3.564-8.163-5.763A7.329,7.329,0,0,1,79.7,247.5c1.209-5.644,7.971-5.946,11.709-5.286,6.7,1.182,24.471,3.051,27.2,3.344h.293Z" transform="translate(-43.01 -226.338)" fill="#f7b242"/>
        <path id="Trazado_162646" data-name="Trazado 162646" d="M207.776,234.562,206.557,250.2l-.449,5.772h-1.264c-9.253.2-17.059.623-25.8,0a118.065,118.065,0,0,1-12.707-1.567c-1.3-.229-2.648-.495-4.031-.779l-.064-.431-.385-2.913-2.107-15.767c4.37-.458,8.42-.76,12.194-.916C187.51,232.876,198.376,234.15,207.776,234.562Z" transform="translate(-53.407 -225.618)" fill="#00bcd4"/>
        <path id="Trazado_162647" data-name="Trazado 162647" d="M259.973,240.189l-1.411,12.423-.33,2.923-.064.6h-.2c-23.9.174-33.559.357-49.006,0h0l.788-5.744,2.144-15.685a367.465,367.465,0,0,0,45.662,5.35Z" transform="translate(-60.453 -225.729)" fill="#00bcd4"/>
        <path id="Trazado_162648" data-name="Trazado 162648" d="M172.762,250.684c-.119-.916-1.209-.916-1.832-.724-1.1.348-3.014.623-5.112,1-.449.183-.916.247-1.347.412a10.016,10.016,0,0,0-1.264.522c-.321.4-.522.724-.916,1.246a25.917,25.917,0,0,0,8.246-.916C171.186,251.967,172.881,251.518,172.762,250.684Z" transform="translate(-52.731 -226.999)" fill="#ffc990"/>
        <path id="Trazado_162649" data-name="Trazado 162649" d="M179.609,256.753h0a.705.705,0,0,1-.623.705H159.05l.211-3.042.165-2.373c0,.073.165.092.44.073a13.694,13.694,0,0,0,1.933-.312c1.979-.394,4.673-1.008,5.827-1.136h.275a2.235,2.235,0,0,1,.852.165l1.906.742.8.311,2.584,1a2.328,2.328,0,0,1,.495.266l3.023,1.942,1.722,1.1A.7.7,0,0,1,179.609,256.753Z" transform="translate(-52.567 -227.067)" fill="#ffc990"/>
        <path id="Trazado_162650" data-name="Trazado 162650" d="M151.057,248.888c-.284,1.567-.568,2.987-.825,4.123-.156.66-.3,1.237-.431,1.677-.211.678-.394,1.072-.531,1.072h-5.35a.71.71,0,0,0,.073-.092c.284-.8.55-1.594.8-2.419.092-.293.183-.577.257-.87.412-1.374.77-2.794,1.1-4.242,1.273-5.5,2.061-11.452,2.858-17.407,0-.183.046-.366.064-.55l4.059.3c.092,0,.147.192.183.522C153.467,233.194,152.239,242.356,151.057,248.888Z" transform="translate(-50.496 -225.35)" fill="#f7b242"/>
        <path id="Trazado_162651" data-name="Trazado 162651" d="M156.468,251.419v.266l-.247,2.281-.394,3.014v.055H125.318a32.393,32.393,0,0,1-6.01.128h0l-.641-.064a.485.485,0,0,1-.22-.1c-.385-.257-.586-1.1-.586-2.19-.046-3.289,1.484-8.96,3.93-8.978h.348l19.67,3.243,2.1.339,1.154.183,3.784.6Z" transform="translate(-47.831 -226.662)" fill="#f7b242"/>
      </g>
      <path id="Trazado_162652" data-name="Trazado 162652" d="M248.314,252.031l-.229,5.131-3.664.1c-1.524,0-2.871,0-4.025-.055a30.193,30.193,0,0,1-4.465,0c-22.976.174-32.259.357-47.107,0h0c-8.895.192-16.389.632-24.8,0h-48.26a30.883,30.883,0,0,1-5.786.137h0l-10.066-.1H96.567c-12.065.092-18.265,1.283-24.606-2.254h0a18.519,18.519,0,0,1-1.682-1.035l-.432-.137-2.642-.861h0L65.964,253c-.229,1.585-1.6,2.547-3.435,3.142-.317.11-.652.192-.986.275-3.311.8-7.618.669-9.687.77H50.579c-6.165.137-8.727-1.09-10.339-4.5a31.805,31.805,0,0,0,3.285.916h0a23.1,23.1,0,0,0,12.787-.449,18.29,18.29,0,0,0,4.527-1.237A15.533,15.533,0,0,0,62.6,251h0a7.3,7.3,0,0,0,5.61-3.335c0,1.31,6.376,3.784,7.045,3.665,9.467,2.446,20.775,3.445,33.3,3.665h2.8c6.711,0,13.756-.1,21.021-.366h1.444l3.813-.147,7.459-.339h.343c.81.119,1.638.22,2.466.311,1.761.211,3.628.339,5.522.421h0c2.95.11,6.015.092,9.256-.064a229.872,229.872,0,0,0,26.931-3.362l.608-.1.291.064a125.121,125.121,0,0,0,42.351,2.675l1.559-.147c.7-.064,1.4-.147,2.1-.229,3.276-.376,6.649-.843,10.154-1.393Z" transform="translate(-36.062 -134.264)" fill="#1d1d1b" opacity="0.1"/>
      <path id="Trazado_162653" data-name="Trazado 162653" d="M106,220.6c.128-.916,1.219-.916,1.832-.715,1.09.339,3.005.623,5.1,1,.458.183.916.238,1.347.4a8.5,8.5,0,0,1,1.264.531c.321.394.531.715.916,1.246a25.956,25.956,0,0,1-8.246-.916C107.538,221.887,105.853,221.448,106,220.6Z" transform="translate(-44.112 -130.531)" fill="#ffc990"/>
      <path id="Trazado_162654" data-name="Trazado 162654" d="M97.07,226.667h0a.715.715,0,0,0,.623.705h.119l10.389-1.448,4.3.6c2.913,0,5.992-1.649,5.79-4.581v-.055c0,.073-.156.092-.431.073a19.583,19.583,0,0,1-1.942-.311c-1.979-.385-4.663-1.008-5.827-1.136h-.275a2.51,2.51,0,0,0-.852.165l-1.9.742-.8.312-2.593,1.008a3.158,3.158,0,0,0-.495.257l-4.049,1.942-1.722,1.109A.715.715,0,0,0,97.07,226.667Z" transform="translate(-43.16 -130.72)" fill="#ffc990"/>
    </g>
    <g id="Grupo_75384" data-name="Grupo 75384" transform="translate(65.311 135.68)">
      <line id="Línea_348" data-name="Línea 348" y2="35.41" transform="translate(14.155 6.853)" fill="none" stroke="#7e5ee3" stroke-miterlimit="10" stroke-width="6"/>
      <path id="Trazado_162655" data-name="Trazado 162655" d="M100.8,167.362,86.655,158.42,72.5,167.362v.092h28.3Z" transform="translate(-72.5 -158.42)" fill="#7e5ee3"/>
      <path id="Trazado_162656" data-name="Trazado 162656" d="M100.8,202.262,86.655,211.2,72.5,202.262v-.092h28.3Z" transform="translate(-72.5 -162.087)" fill="#7e5ee3"/>
    </g>
    <text id="_5_o_6_cm" data-name="5 o 6 cm" transform="translate(9.671 165.243)" fill="#12263f" font-size="13" font-family="Roboto-Regular, Roboto"><tspan x="0" y="0">5 o 6 cm</tspan></text>
  </g>
</svg>
