<svg xmlns="http://www.w3.org/2000/svg" width="180.012" height="183.012" viewBox="0 0 180.012 183.012">
  <g id="Capa_2" data-name="Capa 2" transform="translate(1609.509 -74.63)">
    <g id="Grupo_75421" data-name="Grupo 75421" transform="translate(-1592.925 107.014)">
      <path id="Trazado_162792" data-name="Trazado 162792" d="M42.69,243.631a2.872,2.872,0,0,0,2.557,3.1H183.653a2.863,2.863,0,0,0,2.557-3.1h0a2.868,2.868,0,0,0-2.557-3.1H45.254a2.868,2.868,0,0,0-2.557,3.1Z" transform="translate(-42.249 -120.229)" fill="#131313" opacity="0.1"/>
      <path id="Trazado_162793" data-name="Trazado 162793" d="M123.707,171.23H105.863l-.243,9.916c3.2,1.886,17.9-.281,22.409-6.055Z" transform="translate(-64.945 -95.235)" fill="#3c3c3b"/>
      <g id="Grupo_75410" data-name="Grupo 75410" transform="translate(79.865 57.275)">
        <path id="Trazado_162794" data-name="Trazado 162794" d="M178.946,157.734l-.083-.358-.569-2.557h0l-.1-.46-.07-.275a.172.172,0,0,0-.038-.1.9.9,0,0,0-1.036-.563h0a.978.978,0,0,0-.748.87.179.179,0,0,0,0,.058.755.755,0,0,0,.032.237v.051l.224.639a.045.045,0,0,1,0,.032l.991,2.845a.7.7,0,0,0,.141.313.863.863,0,0,0,.409.377h0a.825.825,0,0,0,.345.064C179.022,158.686,179.093,158.258,178.946,157.734Z" transform="translate(-170.3 -146.079)" fill="#d19e69"/>
        <path id="Trazado_162795" data-name="Trazado 162795" d="M176.719,158.8a1.153,1.153,0,0,0-.058-.179l-1.074-3.088a.6.6,0,0,0,0-.083h0l-.141-.364a.486.486,0,0,0-.058-.115.94.94,0,0,0-1.1-.422h0a.94.94,0,0,0-.639.767v.07a.211.211,0,0,1,0,.09.351.351,0,0,1,0,.115h0a.415.415,0,0,0,.032.128v.032a.058.058,0,0,0,0,.032l.077.141h0l1.483,3.075h0l.038.083a.9.9,0,0,0,.991.639C176.751,159.659,176.847,159.231,176.719,158.8Z" transform="translate(-169.346 -146.476)" fill="#d19e69"/>
        <path id="Trazado_162796" data-name="Trazado 162796" d="M174.354,159.274h0a1.278,1.278,0,0,0-.147-.435l-1.029-2.321h0l-.416-.946h0v-.032a.863.863,0,0,0-1.093-.352h0a.844.844,0,0,0-.294.217h0a.933.933,0,0,0-.211.556.531.531,0,0,0,0,.224,1.6,1.6,0,0,0,.045.166h0a.267.267,0,0,0,0,.077l.153.256h0l.5.838.8,1.349.038.058a.057.057,0,0,1,0,.038l.281.486a.921.921,0,0,0,.32.39h0a.863.863,0,0,0,.671.128.55.55,0,0,0,.384-.7Z" transform="translate(-168.444 -146.698)" fill="#d19e69"/>
        <path id="Trazado_162797" data-name="Trazado 162797" d="M171.866,159.415a1.176,1.176,0,0,0-.1-.275.057.057,0,0,0,0-.038.447.447,0,0,0-.058-.109h0l-.639-1.279-.358-.639-.486-.933-.058-.09V156a.844.844,0,0,0-.639-.352.888.888,0,0,0-.422.083h0a.876.876,0,0,0-.371.377.831.831,0,0,0-.064.582.326.326,0,0,0,.083.185v.07l.735,1.068h0l1.144,1.656a.78.78,0,0,0,.326.332.121.121,0,0,0,.045.038.825.825,0,0,0,.377.1.589.589,0,0,0,.211-.051.479.479,0,0,0,.269-.671Z" transform="translate(-167.542 -146.89)" fill="#d19e69"/>
        <path id="Trazado_162798" data-name="Trazado 162798" d="M174.885,150.428l-.07-.243-.1-.32v-.058a9.757,9.757,0,0,0-1.349-3.35,16.624,16.624,0,0,0-2.321-2.954,20.835,20.835,0,0,0-2.1-1.554l-1.765.377h-.141a.147.147,0,0,0-.109.192l.237,1.01.448,1.886v.07a.109.109,0,0,1-.07.109,4.815,4.815,0,0,0-.275,1.17c0,.256-.038.518-.038.774a12.534,12.534,0,0,0,.192,2.027,17.019,17.019,0,0,0,.4,1.694.2.2,0,0,0,0,.045l.077.339v.038a.326.326,0,0,0,.083.185.844.844,0,0,0,.908.345h0a.639.639,0,0,0,.281-.141.69.69,0,0,0,.237-.32.109.109,0,0,0,0-.064.773.773,0,0,0,.045-.32h0v.128a.134.134,0,0,0,0,.038h0a.121.121,0,0,0,0,.051l.153.256h0a1.382,1.382,0,0,0,.237.185,1.5,1.5,0,0,0,.237.09.889.889,0,0,0,.428,0h0a.837.837,0,0,0,.639-.575h0a1.1,1.1,0,0,0,0-.153h0a.966.966,0,0,0,0-.307l.07.211a1,1,0,0,0,.237.409h0a.9.9,0,0,0,.857.256h0a.876.876,0,0,0,.639-.889.045.045,0,0,0,0-.032.337.337,0,0,0,0-.077.59.59,0,0,0,0-.083h0a.685.685,0,0,0,.1.2v.038h0a.914.914,0,0,0,.844.4.532.532,0,0,0,.141,0h0a.857.857,0,0,0,.639-.87h0a.691.691,0,0,0,.211-.224Z" transform="translate(-166.917 -141.95)" fill="#e8af74"/>
      </g>
      <g id="Grupo_75411" data-name="Grupo 75411" transform="translate(79.719 60.807)">
        <path id="Trazado_162799" data-name="Trazado 162799" d="M214.14,201.729l-17.48-14.264,4.693-6.266,17.627,12.787c1.777,1.279,3.235,4.066,1.451,6.31C220.418,200.3,217.509,204.344,214.14,201.729Z" transform="translate(-177.498 -159.638)" fill="#f0ba89"/>
        <path id="Trazado_162800" data-name="Trazado 162800" d="M224.51,197.914l-8.388-5.754-5.191,6.707,8.311,7.205C223.883,209.678,231.248,203.131,224.51,197.914Z" transform="translate(-182.645 -163.591)" fill="#c08447"/>
        <path id="Trazado_162801" data-name="Trazado 162801" d="M190.8,179.273A34,34,0,0,1,181.71,163l2.73-3.312L196.6,173.9l.083.109a3.919,3.919,0,0,1-.294,5.441l-.07.051a1.278,1.278,0,0,1-.269.224,3.874,3.874,0,0,1-4.6.128S190.949,179.426,190.8,179.273Z" transform="translate(-172.106 -151.88)" fill="#f0ba89"/>
        <path id="Trazado_162802" data-name="Trazado 162802" d="M179.035,155.284,175.25,150a4.475,4.475,0,0,0-2.96-1.8l-4.833-.716a.639.639,0,0,0-.671.32h0a.671.671,0,0,0,.345.978l5.159,1.829,2.014,5.633,2.008,2.346Z" transform="translate(-166.689 -147.474)" fill="#f0ba89"/>
      </g>
      <path id="Trazado_162803" data-name="Trazado 162803" d="M172.355,146.822c-1.662-1.407,0-3.05.639-2.187a12.655,12.655,0,0,0,4.137,3.12c.729.224,1.675.774.4,1.394a2.481,2.481,0,0,1-1.918-.4Z" transform="translate(-88.755 -85.557)" fill="#e8af74"/>
      <path id="Trazado_162804" data-name="Trazado 162804" d="M140.239,107.057a14.621,14.621,0,0,1-7.723,2.845l-.422-1.049h0l-1.132-2.826h0l-2.084-5.2c-1.707-4.539.166-7.672,4.654-7.723,3.836.077,3.932,5.294,5.172,8.906C139.664,104.742,140.239,107.057,140.239,107.057Z" transform="translate(-73.108 -67.057)" fill="#e3e3e3"/>
      <path id="Trazado_162805" data-name="Trazado 162805" d="M159.2,133.516c-2.1-1.88-14.3-12.787-14.7-13.158h0l-1.848-5.428c-.486.32-.972.639-1.5.94a14.265,14.265,0,0,1-2.206,1.055c-.237.1-.467.185-.7.256l-.793.237c-.269.058-.537.121-.806.166a.749.749,0,0,1-.224.038,1.573,1.573,0,0,1-.23.038,4.8,4.8,0,0,0-.518.07c-.166.019-.505.038-.754.045l2.5,6.272a3.126,3.126,0,0,0,1.24,1.483l17.71,11.284,3.133-3.031Z" transform="translate(-75.512 -74.93)" fill="#e8af74"/>
      <g id="Grupo_75413" data-name="Grupo 75413" transform="translate(42.779 66.853)">
        <path id="Trazado_162806" data-name="Trazado 162806" d="M129.663,175.516c-.4,1.6-.921,3.766-1.317,5.543-.1.5-.224,1-.332,1.5-.173.729-.339,1.477-.5,2.238-.058.275-.121.531-.179.806-1.656,7.634-3.408,16.284-4.232,20.325h0l-2.6,1.279L118.3,208.3v-1.164c.1-3.945.045-7.416-.051-10.5-.09-2.826-.23-5.332-.32-7.6-.07-1.918-.121-3.727-.077-5.364a11.923,11.923,0,0,1,.058-1.445,25.269,25.269,0,0,1,.531-4.015h0a17.013,17.013,0,0,1,1.554-4.29c-1.221-1.758-2.851-3.529-4.693-5.754a57.9,57.9,0,0,1-6.393-9.085l8.216-1.279h0l5.716-.87c1.6,3.612,3.7,7.25,5.4,11.208.211.467.4.933.595,1.413l.492,1.247a7.724,7.724,0,0,1,.435,1.656A7.5,7.5,0,0,1,129.663,175.516Z" transform="translate(-108.91 -156.93)" fill="#dba66e"/>
        <g id="Grupo_75412" data-name="Grupo 75412" transform="translate(8.682 44.402)">
          <path id="Trazado_162807" data-name="Trazado 162807" d="M138.2,240.649c.038,1.1-4.514,1.01-5.012,1.01l-7.033-.166-2.2-.045c-1.228-.262-1.522-1.349-1.464-2.481v-.32a10.544,10.544,0,0,1,.185-1.08h0c.045-.166.083-.332.134-.486s.115-.4.166-.55a4.041,4.041,0,0,1,.166-.435h0a1.841,1.841,0,0,1,1.068-1.074h0a3.638,3.638,0,0,1,1.739.045,13.186,13.186,0,0,1,2.442.8h0l.134.058c1.573.639,2.883,1.132,4.2,1.6l.352.128.153.064h0l.838.313c.416.16.844.32,1.279.5a9.03,9.03,0,0,1,1.573.8,3.254,3.254,0,0,1,1.176,1.279A.377.377,0,0,1,138.2,240.649Z" transform="translate(-122.489 -229.467)" fill="#16191e"/>
          <path id="Trazado_162808" data-name="Trazado 162808" d="M128.126,228.694l.569-2.314h-4.527a17.863,17.863,0,0,1-.588,6.636.16.16,0,0,1,0,.077,8.426,8.426,0,0,1,3.261,1.08c2.9,1.752,5.7,2.187,7.672.742-1.637-.639-4.053-1.279-5.984-3.574A4.3,4.3,0,0,1,128.126,228.694Z" transform="translate(-122.883 -226.38)" fill="#e8b783"/>
        </g>
      </g>
      <path id="Trazado_162809" data-name="Trazado 162809" d="M156.317,234.188c-5.351-.179-10.568-.269-15.51-.473-2.749-.115-5.422-.269-7.979-.486-6.726-.582-12.71-1.662-17.537-3.881l.505-2.557h0l.256-1.279.716-3.568.39-1.918,6.841-.294,8.682-.371,5.434-.23,2.685-.115,13.055-.556.889,5.46Z" transform="translate(-68.432 -112.269)" fill="#078c9d"/>
      <path id="Trazado_162810" data-name="Trazado 162810" d="M236.041,197.4c-.7.761-2.091.639-3.587.121a29,29,0,0,1-5.754-2.979l.933-1.8,1.279-2.461,2.877-5.473c.4.332,2.557,1.848,4.776,3.229.563.358,1.125.716,1.675,1.036h0c.345.217.691.428,1.023.6l-.09.243-.115.243-.569,1.375-.69,1.586-.511,1.234-.249.588Z" transform="translate(-108.613 -100.133)" fill="#ebb686"/>
      <path id="Trazado_162811" data-name="Trazado 162811" d="M218.468,206.843h0l-.045.224a18.139,18.139,0,0,1-6.445,10.261c-.173.147-.358.3-.543.435s-.556.435-.844.639l-.077.064a22.477,22.477,0,0,1-2.123,1.368h0a33.609,33.609,0,0,1-5.492,2.557c-.352.122-.69.256-1.055.39-.793.313-1.611.639-2.487.985a43.974,43.974,0,0,1-6.847,2.148,53.215,53.215,0,0,1-8.657,1.183l-1.707.083H179.73a31.756,31.756,0,0,0-.524-3.241c-.767-3.446-1.279-.71-.639-13.337a8.35,8.35,0,0,1,1.1-1.2h0c5.064-4.616,16.821-6.464,18.24-7.506a8.617,8.617,0,0,1,.959-.639h0l.16-.115.326-.2h0a24.934,24.934,0,0,1,8.618-3.389c.269-.058.511-.089.729-.134h.486c.511-.07.85-.083.965-.09h0l1.1.6h0l2.346,1.279h0l2.941,1.624.639.345h0l1.368.754c.051.4.1.8.115,1.2A15.6,15.6,0,0,1,218.468,206.843Z" transform="translate(-91.149 -104.648)" fill="#e69f56"/>
      <g id="Grupo_75414" data-name="Grupo 75414" transform="translate(119.449 80.744)">
        <path id="Trazado_162812" data-name="Trazado 162812" d="M243.548,196.89a18.9,18.9,0,0,1-4.38.083c-.473-.051-.953-.128-1.426-.224-.774-.173-.806-1.445-.761-2.756a10.524,10.524,0,0,0-.058-2.353.243.243,0,0,0,0-.121,6.951,6.951,0,0,1-7.237-3.344,3.332,3.332,0,0,1-.409-.908l-.4-1.848c-.352-1.739,1.464-2.877,2.9-3.2,0,0,2.461-.377,3.03-.48l.083-.863a.927.927,0,0,1,.953-.9h0a.243.243,0,0,1,.153,0l2.7.524h0l.684.128a8.643,8.643,0,0,1,.946-.607,10.307,10.307,0,0,1,4.6.275,7.34,7.34,0,0,1,5.07,5.645c.448,2.468,1.439,6.572-2.1,9.13a11.029,11.029,0,0,1-4.36,1.809Z" transform="translate(-228.831 -179.102)" fill="#ffc692"/>
        <path id="Trazado_162813" data-name="Trazado 162813" d="M254.594,190.385a7.538,7.538,0,0,1-3.018,4.38,9.495,9.495,0,0,1-1.982,1.029,16.4,16.4,0,0,1-6.879,1.279,4.61,4.61,0,0,1-2.193-.7,3.16,3.16,0,0,1-.377-.275,3.089,3.089,0,0,1-.48-.48,3.568,3.568,0,0,1-.435-.639,5.757,5.757,0,0,1-.192-.55h0c-.716-2.155.211-2.973,1.477-3.2h0a6.733,6.733,0,0,1,1.566-.045l.671.07h.038c.582.09,1.036.2,1.215.243l-1.017-.428c-.083,0-.173-.077-.262-.115l-.473-.192c-.454-.2-.889-.4-1.119-.531-.153-.921-.153-.921-.249-1.79a1.558,1.558,0,0,1,.3-.058l1.189-.262,1.087-.211c1.279-.243,2.378-.454,3.286-.69,2.947-.818,3.836-2.161,1.758-7.295h0c0-1.618,4.827-3.395,6.272,6.336A10.288,10.288,0,0,1,254.594,190.385Z" transform="translate(-232.422 -178.658)" fill="#3c3c3b"/>
        <path id="Trazado_162814" data-name="Trazado 162814" d="M244.683,198.737c-1.343.237-3.088-.639-3.241-1.5s.946-.972,2.289-1.215c.882-.166,2.11-.639,2.557.3C246.678,197.119,246.646,198.4,244.683,198.737Z" transform="translate(-233.374 -184.823)" fill="#ffc692"/>
      </g>
      <path id="Trazado_162815" data-name="Trazado 162815" d="M177.028,233.929a35.159,35.159,0,0,1-15.869.1l-.115-.953-.364-3.069-1.33-11.041c1.835-.441,3.651-.806,5.358-1.112,3.3-.607,6.208-1.023,8.132-1.586h0a56.512,56.512,0,0,0,2.826,14.161C176.107,231.678,176.568,232.861,177.028,233.929Z" transform="translate(-84.323 -111.479)" fill="#00bcd4"/>
      <path id="Trazado_162816" data-name="Trazado 162816" d="M50.331,227.309l2.033,1.349-.722.978.179.313,1.407,2.557,1.956-.914c.818-.377,1.522-.748,2.11-1.093a12.091,12.091,0,0,0,2.059-1.439c.39-.358.563-.639.543-.748a6.017,6.017,0,0,0-.358-1.279.131.131,0,0,0-.051-.115c-.857-2.135-1.777-3.043-4.277-4.284s-6.106-6.061-7.167-6.6a2.244,2.244,0,0,0-1.247-.192,4.661,4.661,0,0,0-2.046.9Z" transform="translate(-42.992 -111.316)" fill="#2f2f2e"/>
      <path id="Trazado_162817" data-name="Trazado 162817" d="M60.206,224.3a19.551,19.551,0,0,0,1.279,8.644c14.967.416,27.076,1.317,37.21-1.451,1.848-3.337-.211-7.838-1.4-10.632Z" transform="translate(-48.544 -113.134)" fill="#078c9d"/>
      <path id="Trazado_162818" data-name="Trazado 162818" d="M56.366,232.834c0,.121-.179.377-.582.7a.281.281,0,0,1-.1.064,12.4,12.4,0,0,1-2.065,1.234,1.109,1.109,0,0,0-.173.09c-.582.275-1.279.575-1.995.857l-2.033.786-1.029-2.206-.2-.416-.153-.326.774-.94-.882-.7-1.042-.793L42,220.3a4.718,4.718,0,0,1,2.1-.761,3,3,0,0,1,.416,0,2.123,2.123,0,0,1,.825.269c.953.543,3.836,4.961,6.189,6.713h0a4.535,4.535,0,0,0,.511.352h.051a13.875,13.875,0,0,1,1.662,1.1,6.048,6.048,0,0,1,2.116,2.986c.051.141.1.294.153.448a.4.4,0,0,1,.045.121.752.752,0,0,0,.064.192.933.933,0,0,1,0,.128,6.054,6.054,0,0,1,.141.639,2.83,2.83,0,0,1,.1.352Z" transform="translate(-42 -112.654)" fill="#3c3c3b"/>
      <path id="Trazado_162819" data-name="Trazado 162819" d="M154.233,235.264h-9.75c-1.956,0-3.887,0-5.754-.038q-1.982,0-3.906-.077c-1.381-.045-2.749-.1-4.085-.173-2.346-.147-4.61-.352-6.758-.639-1.688-.224-3.312-.505-4.853-.863-.23-.045-.467-.1-.7-.16-.7-.16-1.375-.345-2.033-.543h0c-.85-.256-1.656-.531-2.442-.831l-.844-.352.217-1.279.083-.473h0l.083-.473.051-.281.217-1.311.639-3.6v-.166l.313-1.765h0l1.336-.1h.39l.6-.045,2.8-.2,1.694-.121,4.552-.32,4.117-.288,5.422-.384,2.692-.185,4.373-.313,8.554-.6h.083l1,5.454,1.087,5.85.23,1.247.454,2.449.083.441Z" transform="translate(-67.646 -112.712)" fill="#00bcd4"/>
      <path id="Trazado_162820" data-name="Trazado 162820" d="M97.133,231.933v.275a1.953,1.953,0,0,1,0,.2.368.368,0,0,1-.032.185v.1a5.4,5.4,0,0,1-.524,1.47h0c-.281.09-.569.166-.857.249a62.715,62.715,0,0,1-6.643,1.5c-8.439,1.458-18.189,1.662-29.614,1.662a9.9,9.9,0,0,1-.173-1.189,1.856,1.856,0,0,0-.045-.224c-.173-.416-.313-.818-.448-1.215l-.121-.39a16.118,16.118,0,0,1-.4-1.784,21.1,21.1,0,0,1-.32-4.405,2.357,2.357,0,0,1,0-.3h0l1.528-.185L63,227.458l27.377-3.318,4.514-.55h0c.281.607.595,1.279.908,2.014.038.09.077.185.121.275A15.709,15.709,0,0,1,97.2,230.8,7.34,7.34,0,0,1,97.133,231.933Z" transform="translate(-47.75 -114.119)" fill="#00bcd4"/>
      <path id="Trazado_162821" data-name="Trazado 162821" d="M186.968,197a7.538,7.538,0,0,1-3.018,4.38,9.5,9.5,0,0,1-1.982,1.029,16.4,16.4,0,0,1-6.879,1.279,4.61,4.61,0,0,1-2.193-.7,15.6,15.6,0,0,1-.23,3.74h0l-.045.224a18.139,18.139,0,0,1-6.445,10.261c-.173.147-.358.3-.543.435s-.556.435-.844.639l-.077.064a22.48,22.48,0,0,1-2.123,1.368h0a33.615,33.615,0,0,1-5.492,2.557c-.352.121-.69.256-1.055.39-.793.313-1.611.639-2.487.985a43.972,43.972,0,0,1-6.847,2.148,53.213,53.213,0,0,1-8.657,1.176,35.159,35.159,0,0,1-15.869.1c-1.956,0-3.887,0-5.754-.038q-1.982,0-3.906-.077c.038,1.1-4.514,1.01-5.012,1.01l-7.033-.166a22.537,22.537,0,0,1-3.293.166l-9.219-.211a1.745,1.745,0,0,1-1.394-1.439c-8.439,1.458-18.189,1.662-29.614,1.662a9.9,9.9,0,0,1-.173-1.189c-.582.275-1.279.575-1.995.857l-2.033.786-1.017-2.206-.2-.416-.153-.326.774-.94-.882-.7,3.037-.467,1.464-.224,1.988-.294.985-.141.486.115,1.279.294a62.016,62.016,0,0,0,13.343,1.547,45.976,45.976,0,0,0,13.183-1.854c.275-.083.556-.166.838-.262a30.752,30.752,0,0,0,2.928-1.049h0l.275.058,2.052.416.46.1,1.112.224c.313.064.639.128.933.179.582.115,1.144.23,1.675.326,1.125.211,2.148.39,3.1.537a42.609,42.609,0,0,0,7.193.639h0a105.443,105.443,0,0,0,12.755-1.247l1.33.307a40.655,40.655,0,0,0,9.641.9,12.4,12.4,0,0,0,1.464-.058l.595-.045c1.1-.083,2.193-.2,3.293-.371,6.272-.94,21.54-4.009,23.937-8.644,1.483-2.871-3.421-8.842-7.384-13.816,15.875,9.763,17.428,2.071,17.729,1.279.109-.288.237-.69.416-1.279h0c.511.064,1.017.1,1.522.128h.115c4.475.16,8.906-1.279,13.266-3.772Z" transform="translate(-45.347 -104.529)" fill="#1d1d1b" opacity="0.1"/>
      <path id="Trazado_162822" data-name="Trazado 162822" d="M168.3,149.317a1.055,1.055,0,0,1-.179-1.483h0a.9.9,0,0,1,1.279-.147,9.245,9.245,0,0,0,3.337,2.935c.69.32,1.56.991.217,1.439a2.5,2.5,0,0,1-1.873-.639Z" transform="translate(-87.405 -86.671)" fill="#dba66e"/>
      <g id="Grupo_75415" data-name="Grupo 75415" transform="translate(76.579 62.681)">
        <path id="Trazado_162823" data-name="Trazado 162823" d="M212.809,201.386,194.46,188.254l4.264-6.534,18.407,11.636c1.86,1.189,3.491,3.836,1.86,6.2C218.992,199.558,216.345,203.777,212.809,201.386Z" transform="translate(-173.565 -161.699)" fill="#ffc692"/>
        <path id="Trazado_162824" data-name="Trazado 162824" d="M222.93,196.881l-8.74-5.211-4.75,7.033,8.733,6.662C223.064,208.664,229.995,201.657,222.93,196.881Z" transform="translate(-178.967 -165.288)" fill="#e69f56"/>
        <path id="Trazado_162825" data-name="Trazado 162825" d="M187.971,180.546a34.1,34.1,0,0,1-10.121-15.651l2.513-3.484,13.068,13.426.089.1a3.913,3.913,0,0,1,.058,5.447l-.064.064a1.786,1.786,0,0,1-.256.237,3.874,3.874,0,0,1-4.584.422S188.131,180.686,187.971,180.546Z" transform="translate(-167.574 -154.374)" fill="#ffc692"/>
        <path id="Trazado_162826" data-name="Trazado 162826" d="M174.566,157.441l-4.117-5.025a4.424,4.424,0,0,0-3.062-1.6l-4.878-.4a.639.639,0,0,0-.639.358h0a.639.639,0,0,0,.409.953l5.262,1.5,2.378,5.492,2.148,2.212Z" transform="translate(-161.778 -150.405)" fill="#ffc692"/>
      </g>
      <g id="Grupo_75417" data-name="Grupo 75417" transform="translate(36.858 67.773)">
        <path id="Trazado_162827" data-name="Trazado 162827" d="M118.415,177.071c-.07.275-.147.543-.237.818-.435,1.33-.914,2.864-1.413,4.527l-.46,1.477c-.217.7-.441,1.439-.639,2.187l-.243.793-.844,2.679c-1.982,6.745-3.983,13.759-4.98,17.262h0l-2.692,1.087-2.282.921c.045-.345.077-.639.1-1v-.16c.409-3.926.639-7.391.754-10.479.237-5.249.243-9.43.639-12.953.038-.364.083-.71.121-1.049a1.2,1.2,0,0,1,.045-.4,19.519,19.519,0,0,1,2.73-8.113,61.48,61.48,0,0,1-4.117-5.965,99.941,99.941,0,0,1-5.243-9.878l14.161-.46h.083c1.228,3.446,2.359,6.694,3.529,10.338l.748,2.346a1.811,1.811,0,0,0,.083.269A10.869,10.869,0,0,1,118.415,177.071Z" transform="translate(-99.65 -158.37)" fill="#f2b779"/>
        <g id="Grupo_75416" data-name="Grupo 75416" transform="translate(4.289 43.482)">
          <path id="Trazado_162828" data-name="Trazado 162828" d="M120.355,241.474a22.535,22.535,0,0,1-3.293.166l-9.219-.211a1.745,1.745,0,0,1-1.394-1.439,5.115,5.115,0,0,1,0-1.918,9.985,9.985,0,0,1,.422-1.573,3.627,3.627,0,0,1,.16-.441.409.409,0,0,1,.051-.09,1.758,1.758,0,0,1,1.036-1h0a4.143,4.143,0,0,1,2.135.141l.371.1h0l.269.083c.4.128.863.3,1.368.511h0l.128.058c.716.3,1.387.563,2.027.806l.153.058c.69.262,1.349.5,2.014.742l.224.077h0c.4.153.78.288,1.125.428s.844.32,1.279.5a6.541,6.541,0,0,1,2.231,1.336,2.493,2.493,0,0,1,.518.729C122.189,241.058,121.371,241.353,120.355,241.474Z" transform="translate(-106.358 -229.448)" fill="#16191e"/>
          <path id="Trazado_162829" data-name="Trazado 162829" d="M112,228.694l.569-2.314h-4.527a17.864,17.864,0,0,1-.588,6.636.16.16,0,0,1,0,.077,8.426,8.426,0,0,1,3.261,1.08c2.9,1.752,5.7,2.187,7.672.742-1.637-.639-4.053-1.279-5.984-3.574A4.3,4.3,0,0,1,112,228.694Z" transform="translate(-106.752 -226.38)" fill="#f2b779"/>
        </g>
      </g>
      <path id="Trazado_162830" data-name="Trazado 162830" d="M144.451,109.613a6,6,0,0,1-5.888,6.01,5.754,5.754,0,0,1-2.174-.428,6.067,6.067,0,0,1-1.841-9.967,5.786,5.786,0,0,1,4.015-1.618,5.888,5.888,0,0,1,5.415,3.644h0a6.183,6.183,0,0,1,.473,2.359Z" transform="translate(-74.705 -70.847)" fill="#ff9d00"/>
      <path id="Trazado_162831" data-name="Trazado 162831" d="M107.036,115.091a131.407,131.407,0,0,1,8.51,15.242c1.08,2.2,2.155,4.475,3.2,6.822q1.279,2.736,2.506,5.549h-.217c-6.221.473-11.713,1.074-17.262,3.446a35.161,35.161,0,0,0-4.942,2.6c-1.2-4.475-7.519-12.742-10.447-21.194-2.64-7.608-2.513-15.4,6.617-20.759C106.685,96.87,112.97,81.43,119.229,81.43l4.539,6.393,3.644,11.419h0l.243.761c-.806.78-1.6,1.547-2.391,2.289-1.854,1.752-3.683,3.4-5.454,4.872a40.461,40.461,0,0,1-9.015,5.927C109.223,113.819,107.42,113.889,107.036,115.091Z" transform="translate(-58.191 -62.848)" fill="#ff9d00"/>
      <path id="Trazado_162832" data-name="Trazado 162832" d="M145.983,75.474s-3.836-4.961-7.519-5.754l-.914,7.512,3.114,5.716,3.529,7.237-2.1-6.6Z" transform="translate(-76.461 -58.624)" fill="#dba66e"/>
      <g id="Grupo_75419" data-name="Grupo 75419" transform="translate(53.77)">
        <path id="Trazado_162833" data-name="Trazado 162833" d="M161.266,68.584l-1.956-4.092,2.519-7.672C167.871,59.8,168.139,67.58,161.266,68.584Z" transform="translate(-138.078 -53.972)" fill="#362a2b"/>
        <g id="Grupo_75418" data-name="Grupo 75418">
          <path id="Trazado_162834" data-name="Trazado 162834" d="M136.708,64.113a18.253,18.253,0,0,1,1.707-6.035c4.559-8.222,10.23-4.808,13.318-3.2,7.864,4.52,2.129,12.678,2.129,12.678a11.008,11.008,0,0,0-.441,3.382c0,1.649-1.49,1.017-2.059,1-.4,0-.435.288-.639.639a11.078,11.078,0,0,1-1.6,1.873c-2.666,2.391-4.475,1.407-5.383.166,0,0-2.883-1.918-1.432-7.832C141.043,65.9,136.574,65.6,136.708,64.113Z" transform="translate(-129.926 -52.519)" fill="#f2b779"/>
          <path id="Trazado_162835" data-name="Trazado 162835" d="M126.107,76.107c11.956,1.541,12.307-13.369,13.3-12.9,6.464,3.1,6.6-5.639,12.736-1.439.985-1.681,1.477-5.262-5.7-8.522-4.776-2.174-10.869-.275-12.717,4.936C130.269,68.013,125.921,72.156,126.107,76.107Z" transform="translate(-126.101 -52.365)" fill="#362a2b"/>
          <path id="Trazado_162836" data-name="Trazado 162836" d="M143.739,67.7c-.671,1.279-.339,3.389.524,3.836s1.279-.639,1.982-1.976c.454-.869,1.279-1.988.5-2.743C146.04,66.143,144.717,65.772,143.739,67.7Z" transform="translate(-132.333 -57.381)" fill="#f2b779"/>
        </g>
        <path id="Trazado_162837" data-name="Trazado 162837" d="M156.289,65.415a4.309,4.309,0,0,1,3.382-1.349,10.23,10.23,0,0,1,3.357.889,1.279,1.279,0,0,1,.486.269.575.575,0,0,1,.166.543.933.933,0,0,1-.582.556,8.311,8.311,0,0,1-5.364.78,3.365,3.365,0,0,0-2.794,1.515,6.547,6.547,0,0,1,1.349-3.2Z" transform="translate(-136.502 -56.583)" fill="#362a2b"/>
      </g>
      <path id="Trazado_162838" data-name="Trazado 162838" d="M130.172,179.847c-2.819-1.72-7.359.121-8.037,4.047-3.472-3.344-8.414,1.618-12.186,6.112a1.2,1.2,0,0,1,.045-.4,19.519,19.519,0,0,1,2.73-8.113l-.588-.761c5.53-2.372,11.022-2.973,17.262-3.446.115.294.243.595.358.9a7.724,7.724,0,0,1,.416,1.656Z" transform="translate(-66.507 -97.42)" fill="#1d1d1b" opacity="0.1"/>
      <path id="Trazado_162839" data-name="Trazado 162839" d="M122.139,168.726h-.217c-6.221.473-11.713,1.074-17.262,3.446a35.166,35.166,0,0,0-4.942,2.6c-1.2-4.475-7.519-12.742-10.447-21.194,12.429,12.819,26.539,16.84,30.343,9.59Q120.892,165.913,122.139,168.726Z" transform="translate(-59.048 -88.869)" fill="#1d1d1b" opacity="0.1"/>
      <path id="Trazado_162840" data-name="Trazado 162840" d="M133.538,108.654a5.933,5.933,0,0,1-5.792,4.936,5.754,5.754,0,0,1-2.174-.428,40.46,40.46,0,0,1-9.015,5.927c-1.637.729-3.414.8-3.836,2a131.4,131.4,0,0,1,8.51,15.242c-5.364-9.149-11.425-15.619-18.541-18.208,4.8.914,9.008.991,12.1-.511l2.174-1.956a9.833,9.833,0,0,0,3.184-8.874l-1.413-8.721c1.694,1.822,3.376,3.587,5.012,5.115,2.557,2.423,5.044,4.322,7.295,5.115A5.978,5.978,0,0,0,133.538,108.654Z" transform="translate(-63.888 -68.846)" fill="#1d1d1b" opacity="0.1"/>
      <path id="Trazado_162841" data-name="Trazado 162841" d="M138.883,106a14.6,14.6,0,0,1-7.941,2.148l-.326-1.08h0l-.882-2.922h0l-1.611-5.37c-1.279-4.667.844-7.608,5.319-7.276,3.836.422,3.452,5.626,4.36,9.334C138.518,103.643,138.883,106,138.883,106Z" transform="translate(-72.928 -66.469)" fill="#ededed"/>
      <path id="Trazado_162842" data-name="Trazado 162842" d="M155.524,134.176c-1.918-2.065-13.107-14.014-13.471-14.424h0l-1.343-5.562c-.511.275-1.023.55-1.566.806a14.536,14.536,0,0,1-2.3.85,6.655,6.655,0,0,1-.716.192c-.269.064-.531.115-.812.166l-.818.1a.715.715,0,0,1-.23,0,1.347,1.347,0,0,1-.224,0H132.77l1.918,6.47a3.107,3.107,0,0,0,1.1,1.586l16.2,12.352,1.074.818.243-.269,2.506-2.82Z" transform="translate(-74.737 -74.663)" fill="#f2b779"/>
      <g id="Grupo_75420" data-name="Grupo 75420" transform="translate(76.977 58.17)">
        <path id="Trazado_162843" data-name="Trazado 162843" d="M173.207,159.889h0v-.153l-.39-2.973h0l-.051-.326v-.147h0v-.262a.205.205,0,0,0,0-.1h0a.9.9,0,0,0-.972-.639h0a.94.94,0,0,0-.46.2h0a.517.517,0,0,0-.121.115.767.767,0,0,0-.179.3.965.965,0,0,0-.058.467v.064l.058.2.115.435h0l.71,2.819v.1a.889.889,0,0,0,.109.326.863.863,0,0,0,.729.505.684.684,0,0,0,.588-.428A1.112,1.112,0,0,0,173.207,159.889Z" transform="translate(-165.491 -147.652)" fill="#dba66e"/>
        <path id="Trazado_162844" data-name="Trazado 162844" d="M170.827,160.572a.588.588,0,0,0,0-.179l-.058-.211-.735-2.928a.083.083,0,0,0,0-.038v-.083h0l-.077-.307v-.07a.46.46,0,0,0-.058-.128.927.927,0,0,0-1.055-.511h0a.851.851,0,0,0-.326.153,1.069,1.069,0,0,0-.179.16.928.928,0,0,0-.192.39h0a1.553,1.553,0,0,0,0,.511l.07.153,1.208,3.2h0v.09a.9.9,0,0,0,.927.729C170.795,161.435,170.923,161.013,170.827,160.572Z" transform="translate(-164.466 -147.945)" fill="#dba66e"/>
        <path id="Trazado_162845" data-name="Trazado 162845" d="M168.263,160.37l-.812-2.4h0l-.332-.972h0a.882.882,0,0,0-1.08-.48h0a.882.882,0,0,0-.595.742.505.505,0,0,0,0,.217,1.229,1.229,0,0,0,0,.141.058.058,0,0,0,0,.045v.083l.128.269h0l1.132,2.359a.038.038,0,0,1,0,.032l.243.505a.857.857,0,0,0,.94.639.55.55,0,0,0,.473-.639h0a1.438,1.438,0,0,0-.1-.537Z" transform="translate(-163.494 -148.082)" fill="#dba66e"/>
        <path id="Trazado_162846" data-name="Trazado 162846" d="M165.792,160.446a.038.038,0,0,0,0-.032.224.224,0,0,0-.038-.115l-.87-2.046-.4-.965-.045-.1a.9.9,0,0,0-.639-.467.844.844,0,0,0-.435.051h0a.857.857,0,0,0-.518.914.3.3,0,0,0,.064.192v.077l1.63,2.883a.85.85,0,0,0,.71.531.787.787,0,0,0,.211,0C165.933,161.264,165.946,160.849,165.792,160.446Z" transform="translate(-162.557 -148.171)" fill="#dba66e"/>
        <path id="Trazado_162847" data-name="Trazado 162847" d="M169.7,152.2v-.243h0l-.058-.313h0a.351.351,0,0,1,0-.115.211.211,0,0,0,0-.09.3.3,0,0,0,0-.1,9.194,9.194,0,0,0-.831-2.73,1.094,1.094,0,0,0-.045-.115,16.411,16.411,0,0,0-1.247-2.167,11.39,11.39,0,0,0-.927-1.234c-.058-.064-.441-.454-.959-.908-.3-.269-.639-.563-1-.831l-1.79.217h-.141a.16.16,0,0,0-.134.179L163,146.7a.315.315,0,0,1,0,.07.115.115,0,0,1-.077.1,4.143,4.143,0,0,0-.371,1.112,7.376,7.376,0,0,0-.147,1.189,14.872,14.872,0,0,0,.294,3.4l.051.352a.045.045,0,0,0,0,.032.3.3,0,0,0,.064.192.825.825,0,0,0,.857.384h0a.6.6,0,0,0,.294-.115.812.812,0,0,0,.364-.671h0v.128h0a.058.058,0,0,0,0,.045.209.209,0,0,0,0,.038V153l.128.269h0a1.278,1.278,0,0,0,.224.2.927.927,0,0,0,.639.147h0a.87.87,0,0,0,.716-.684,1.042,1.042,0,0,0,0-.345l.064.237a.908.908,0,0,0,.2.435h0a.831.831,0,0,0,.793.326h.058a.863.863,0,0,0,.748-.87h0a.07.07,0,0,1,0-.038.084.084,0,0,0,0-.038v-.083h0a.965.965,0,0,0,.735.722.262.262,0,0,0,.1,0h.128a.23.23,0,0,0,.1,0h0a.844.844,0,0,0,.716-.806h0a.729.729,0,0,0,.032-.275Z" transform="translate(-162.4 -143.35)" fill="#f2b779"/>
      </g>
    </g>
    <ellipse id="Elipse_4910" data-name="Elipse 4910" cx="85.506" cy="87.006" rx="85.506" ry="87.006" transform="translate(-1605.009 79.13)" fill="none" stroke="#9e1533" stroke-miterlimit="10" stroke-width="9"/>
    <line id="Línea_349" data-name="Línea 349" y1="121.526" x2="121.533" transform="translate(-1579.141 106.232)" fill="none" stroke="#9e1533" stroke-miterlimit="10" stroke-width="9"/>
  </g>
</svg>
