<svg id="Capa_2" data-name="Capa 2" xmlns="http://www.w3.org/2000/svg" width="215" height="75.417" viewBox="0 0 215 75.417">
  <g id="Grupo_75354" data-name="Grupo 75354" transform="translate(0 0)">
    <path id="Trazado_162458" data-name="Trazado 162458" d="M244.78,246.822c0,2.272-1.52,4.123-3.4,4.123H33.178c-1.878,0-3.4-1.851-3.4-4.123h0c0-2.281,1.52-4.132,3.4-4.132h208.2C243.26,242.69,244.78,244.541,244.78,246.822Z" transform="translate(-29.78 -175.529)" fill="#131313" opacity="0.1"/>
    <g id="Grupo_75348" data-name="Grupo 75348" transform="translate(4.767 60.533)">
      <path id="Trazado_162459" data-name="Trazado 162459" d="M42.469,239.909c.116-.894,1.127-.841,1.7-.662a46.434,46.434,0,0,0,4.723.894c.42.17.823.224,1.243.376a8.43,8.43,0,0,1,1.172.492c.3.367.492.662.823,1.145a23.944,23.944,0,0,1-7.6-.841C43.927,241.063,42.362,240.652,42.469,239.909Z" transform="translate(-35.886 -235.688)" fill="#ffc990"/>
      <path id="Trazado_162460" data-name="Trazado 162460" d="M35.11,245.5h0a.662.662,0,0,0,.572.653H54.126l-.2-2.809-.134-2.227c0,.063-.143.08-.4.063s-1.038-.143-1.789-.286c-1.834-.358-4.32-.894-5.367-1.046a1.176,1.176,0,0,0-.25,0A2.164,2.164,0,0,0,45.2,240l-1.789.689-.742.286-2.388.894a2.738,2.738,0,0,0-.456.233l-2.8,1.789-1.592,1.02A.689.689,0,0,0,35.11,245.5Z" transform="translate(-35.11 -235.762)" fill="#e8b783"/>
      <path id="Trazado_162461" data-name="Trazado 162461" d="M55.5,240.459v.241l.233,2.12.3,2.817H84.328a29.143,29.143,0,0,0,5.563.125h0l.59-.063a.385.385,0,0,0,.206-.089c.358-.242.537-1.011.537-2.03.045-3.032-1.368-8.282-3.631-8.3h-.34l-18.246,3.005-1.941.322L66,238.768l-3.5.563Z" transform="translate(-37.262 -235.28)" fill="#e8b783"/>
    </g>
    <path id="Trazado_162462" data-name="Trazado 162462" d="M88.617,227.771c-3.292-.3-6.583-.644-9.892-1.136l-1.878-.3-.063-1.145L76.721,224,76.65,222.8l-.51-9.642v-.286a5.814,5.814,0,0,1,1.252-3.578,6.349,6.349,0,0,1,.528-.572,4.981,4.981,0,0,1,.581-.492,5.752,5.752,0,0,1,1.521-.8,5.591,5.591,0,0,1,1.6-.313h.125a5.8,5.8,0,0,1,6.073,5.474v.322l.08,1.655.1,1.789v1.342l.179,3.292v.483l.089,1.61.045.948Z" transform="translate(-34.686 -171.772)" fill="#f7b242"/>
    <g id="Grupo_75349" data-name="Grupo 75349" transform="translate(80.097 17.5)">
      <path id="Trazado_162463" data-name="Trazado 162463" d="M164.924,225.019l-2.2,7.451.8,1.673a4.534,4.534,0,0,1,1.342,0l.438.063a12.048,12.048,0,0,1,3.783,1.69c.894.537,2.048,2.156,3.479,3.578.3.286.581.572.832.841,1.547,1.61,2.683,3,3.927,3.363,1,.51,2.165-.215,3.73-.8a.581.581,0,0,0,.42-.537,20.312,20.312,0,0,0-2.5-8.944l-1.333-2.308-1.583-2.737-1.843-3.184c-.054-.089-.1-.188-.161-.277l-.564-1.127-.17-.313-1.19-2.272a6.341,6.341,0,0,0-.894-1.27l-1.163-1.333a.465.465,0,0,0-.358-.179,18.157,18.157,0,0,0-3.265,1.977,42.166,42.166,0,0,0-3.444,2.5l-.045.045c-.179.161-.59.85-1.279,1.574-.474.5,4.258.054,3.524.42a2.613,2.613,0,0,1-.286.107Z" transform="translate(-123.83 -190.464)" fill="#61483e"/>
      <path id="Trazado_162464" data-name="Trazado 162464" d="M145.711,195.756v.832h0a6.385,6.385,0,0,1-.063,1.082h0a12.87,12.87,0,0,1-.17,1.431c-.224,1.055-.447,2.1-.689,3.148-.3,1.306-.617,2.594-.948,3.873-.894,3.426-1.869,6.735-2.853,9.839-.215.662-.42,1.306-.635,1.941-.286.894-.563,1.69-.841,2.487-.2.59-.394,1.163-.6,1.726s-.465,1.306-.689,1.923h0c-.17.456-.331.894-.5,1.342-1.216,3.283-2.281,5.912-2.978,7.576-.483,1.154-.787,1.843-.841,1.959-.1.313-.206.608-.313.894a12.47,12.47,0,0,1-.519,1.154c-.107.2-.215.4-.331.581h0a8.049,8.049,0,0,1-1.082,1.422,5.823,5.823,0,0,1-2.209,1.476,5.366,5.366,0,0,1-1.905.331,7.486,7.486,0,0,1-2.424-.438,8.265,8.265,0,0,1-3.676-2.343l-.143-.17a6.261,6.261,0,0,1-.653-.894,4.422,4.422,0,0,1-.268-.438h0a10.165,10.165,0,0,1-.519-1.145,8.435,8.435,0,0,1-.456-3.658,7.236,7.236,0,0,1,.161-1.046,2.469,2.469,0,0,1,.161-.662c.179-.984.34-1.905.492-2.773.438-2.531.8-4.553,1.091-6.261.563-3.22.894-5.367,1.36-7.835s.894-5.277,1.708-9.794l.081-.474c.188-1,.376-2.093.59-3.274a5.06,5.06,0,0,1,.152-.894c.179-.993.358-2.048.555-3.193h0c.152-.894.322-1.789.5-2.782,0,0,7.978-4.472,13.721-3.971h0a6.753,6.753,0,0,1,3.193,1.038,5.233,5.233,0,0,1,1.789,2.066l.188.438a7.036,7.036,0,0,1,.3.894l.054.224A11.153,11.153,0,0,1,145.711,195.756Z" transform="translate(-119.366 -187.328)" fill="#3c3c3b"/>
      <path id="Trazado_162465" data-name="Trazado 162465" d="M121.279,240.568v.072c.161.17.608.707,1.082,1.19.063.054.107.107.17.152a5.9,5.9,0,0,0,.6.528,8.309,8.309,0,0,0,5.876,1.538c20.635-3.649,26.27-3.077,31.752-4.079l.367-4.3.206-2.5-.152-11.842s-12.1,2.021-23.81,4.624h0c-7.155,1.583-13.121,3.327-14.776,4.893,0,0-.322,1.869-.617,3.918C121.637,237.429,121.226,240.5,121.279,240.568Z" transform="translate(-119.568 -190.773)" fill="#3c3c3b"/>
      <path id="Trazado_162466" data-name="Trazado 162466" d="M177.674,225.019l-2.2,7.451.8,1.673a4.534,4.534,0,0,1,1.342,0l.429.063a11.869,11.869,0,0,1,3.783,1.69c.894.537,2.057,2.156,3.488,3.578.3.286.581.572.832.841,1.547,1.61,2.683,3,3.927,3.363,1,.51,2.165-.215,3.73-.8a.581.581,0,0,0,.42-.537,20.313,20.313,0,0,0-2.5-8.944l-1.333-2.308-1.583-2.737-1.843-3.184-.161-.277-.564-1.127-.17-.313-1.19-2.272a6.341,6.341,0,0,0-.894-1.27l-1.163-1.333a.465.465,0,0,0-.358-.179,18.157,18.157,0,0,0-3.265,1.977,42.179,42.179,0,0,0-3.444,2.5l-.045.045c-.179.161-.59.85-1.279,1.574-.474.5,4.257.054,3.524.42A2.606,2.606,0,0,1,177.674,225.019Z" transform="translate(-125.176 -190.464)" fill="#61483e"/>
      <path id="Trazado_162467" data-name="Trazado 162467" d="M153.815,196.669c-.081,1.064-.17,2.147-.277,3.211-.125,1.333-.268,2.683-.438,3.971-.626,5.071-1.485,9.973-2.37,14.311-.116.6-.242,1.19-.367,1.789-.17.841-.349,1.655-.519,2.442h0c-.546,2.433-1.064,4.571-1.521,6.315-.751,2.97-1.3,4.821-1.368,5.036a8.218,8.218,0,0,1-.17.841v.089a10.538,10.538,0,0,1-.787,2.209,7.81,7.81,0,0,1-.8,1.306,3.081,3.081,0,0,1-.313.367,4.472,4.472,0,0,1-.724.7,5.3,5.3,0,0,1-2.46,1.109,4.966,4.966,0,0,1-.742.08,7.155,7.155,0,0,1-1.995-.161,8.113,8.113,0,0,1-2.478-.841,6.379,6.379,0,0,1-.894-.59c-.179-.134-.358-.268-.528-.42a1.382,1.382,0,0,1-.17-.152,7.9,7.9,0,0,1-.76-.787,4.649,4.649,0,0,1-.322-.411l-.054-.063-.089-.134a7,7,0,0,1-.572-.894,8.7,8.7,0,0,1-.823-5.3c.045-1.011.089-1.95.125-2.817.063-1.485.125-2.8.17-3.98,0-.957.081-1.789.125-2.639.125-3.068.206-5.179.313-7.531.107-2.683.233-5.608.456-10.572.054-1.02.1-2.12.161-3.318v-.886c.045-1.19.107-2.5.179-3.9,0-.7.063-1.4.089-2.156a40.428,40.428,0,0,1,7.406-4.231c3.086-1.315,6.52-2.111,9.007-.894a5.071,5.071,0,0,1,1.86,1.592l.161.241a3.087,3.087,0,0,1,.224.367h0a3.972,3.972,0,0,1,.3.581c.072.152.143.313.206.474a11.96,11.96,0,0,1,.581,2.343,15.077,15.077,0,0,1,.17,1.905h0Q153.828,195.9,153.815,196.669Z" transform="translate(-120.718 -187.167)" fill="#12263f"/>
      <path id="Trazado_162468" data-name="Trazado 162468" d="M133.88,240.568l.054.072c.152.17.608.707,1.082,1.19l.161.152a7.032,7.032,0,0,0,.6.528,8.327,8.327,0,0,0,5.876,1.538c20.644-3.649,29.159-3.748,34.641-4.749l-2.334-17.978s-12.227,2.021-23.935,4.624h0c-7.155,1.583-13.121,3.327-14.776,4.893,0,0-.322,1.869-.626,3.918C134.237,237.429,133.835,240.5,133.88,240.568Z" transform="translate(-120.898 -190.773)" fill="#12263f"/>
    </g>
    <g id="Grupo_75353" data-name="Grupo 75353" transform="translate(10.176 43.256)">
      <path id="Trazado_162469" data-name="Trazado 162469" d="M264.189,243.461l-3.5.429c-.975.116-1.887.206-2.683.259a31.246,31.246,0,0,1-4.293,0c-1.44-.116-2.218-.367-2.326-.6a9.49,9.49,0,0,1-.653-2.317,16.848,16.848,0,0,1,2.281-11.476c.107-.152.206-.313.313-.474,2.182-3.515,3.113-8.756,4.1-10.161,1.485-2.111,5.188-1.717,5.188-1.717l.054.769,1.172,16.619-1.69,3.256,1.834.644v.894Z" transform="translate(-63.319 -216.113)" fill="#2e2e2d"/>
      <path id="Trazado_162470" data-name="Trazado 162470" d="M164.784,241.042c-6.207,4.991-17.084,4.356-22.432.1-1.172-7.37-1.485-14.159,0-19.776,8.39-.394,20.259,1.923,26.556,2.907Z" transform="translate(-51.764 -216.529)" fill="#00bcd4"/>
      <path id="Trazado_162471" data-name="Trazado 162471" d="M266.027,235.523l-1.995,3.041,1.789.823-.224,4.749-3.524.089c-1.467,0-2.755,0-3.873-.054a23.363,23.363,0,0,1-4.052-.537c-.832-.215-1.27-.447-1.333-.626a8.354,8.354,0,0,1-.385-1.878c-.34-3.336.537-8.39,3.327-11.7s4.249-8.792,5.42-10.161a3.641,3.641,0,0,1,1.682-1.055,8.274,8.274,0,0,1,3.64-.152Z" transform="translate(-63.511 -216.171)" fill="#3c3c3b"/>
      <g id="Grupo_75351" data-name="Grupo 75351" transform="translate(0 3.043)">
        <path id="Trazado_162472" data-name="Trazado 162472" d="M77.588,227.03v14.06l-5.885.179h0l-1.2.045-4.937.152-.027-.948v-.2l-.08-3.766-.009-.268-.045-2.182-.116-5.376,3.56-.492,3.551-.492,2.147-.3Z" transform="translate(-43.705 -220.175)" fill="#f0b87d"/>
        <g id="Grupo_75350" data-name="Grupo 75350">
          <path id="Trazado_162473" data-name="Trazado 162473" d="M70.134,226.936h0a.894.894,0,0,1,0,.215h0a9.436,9.436,0,0,1-6.476,6.708l-.331.072a.688.688,0,0,1,0,.134h0a4.259,4.259,0,0,0,.259.76c.089.2.2.411.3.617h0c.286.555.626,1.109.894,1.6.331.662.492,1.243.179,1.6h0a1.1,1.1,0,0,1-.411.268,6.477,6.477,0,0,0-1.324.742h0c-.224.161-.456.331-.689.519-1.431,1.127-3.005,2.612-4.678,3.211a22.9,22.9,0,0,1-2.862.492h-.483a13.763,13.763,0,0,1-2.191,0,7.612,7.612,0,0,1-5.662-2.8h0a7.44,7.44,0,0,1-.572-.85,6.546,6.546,0,0,1-.4-.733,12.516,12.516,0,0,1-.555-1.3c-.125-.313-.224-.635-.322-.948-.286-.894-.492-1.789-.707-2.585a10.134,10.134,0,0,1,1.789-8.569,10.964,10.964,0,0,1,1.216-1.3h0a12.916,12.916,0,0,1,3.256-2.182,16.941,16.941,0,0,1,2.191-.823,13.8,13.8,0,0,1,1.512.188l.528-.42,2.343-1.878a1.27,1.27,0,0,1,1.869.447l.581,1c.769-.179,4.964-1.6,4.964-1.6a6.19,6.19,0,0,1,3.318.134,2.987,2.987,0,0,1,2.075,2.138l.474,2.093.089.385a7.084,7.084,0,0,1-.179,2.656Z" transform="translate(-41.438 -219.366)" fill="#f0b87d"/>
          <path id="Trazado_162474" data-name="Trazado 162474" d="M67.957,241.1c-.224,1.467-1.538,2.352-3.309,2.907-.3.1-.617.179-.948.259-.617.134-1.261.25-1.923.331-2.782.367-5.8.3-7.433.376H53.118a20.832,20.832,0,0,1-5.367-.438,6.476,6.476,0,0,1-4.571-3.721h0a11.324,11.324,0,0,1-.5-1.19,29.446,29.446,0,0,1-.894-2.961c-1.252-4.723-.519-8.739,1.19-10.581l.215-.215a3.032,3.032,0,0,1,3.649-.492h0a13.569,13.569,0,0,0,.107,1.413,1.735,1.735,0,0,0,0,.215c.894,9.329,4.83,6.485,14.123,4.472a23.845,23.845,0,0,1,.742,2.361l-.063.08c-.662.894-2.683,3.077-2.853,3.211a12.9,12.9,0,0,1,4.043-1.055h.179a3.252,3.252,0,0,1,.59,0h0a4.311,4.311,0,0,1,2.683.894h0c.116.1.233.215.34.322a3.886,3.886,0,0,1,.3.367,4.356,4.356,0,0,1,.474.894A7.074,7.074,0,0,1,68,240.784.506.506,0,0,0,67.957,241.1Z" transform="translate(-41.157 -219.958)" fill="#3c3c3b"/>
          <path id="Trazado_162475" data-name="Trazado 162475" d="M62.183,239.3c1.789-.483,3.444-2.549,3.122-3.712s-1.726-.644-3.515-.179c-1.181.3-2.943.456-2.97,1.843C58.8,238.458,59.571,240.005,62.183,239.3Z" transform="translate(-43.022 -221.004)" fill="#f0b87d"/>
        </g>
        <path id="Trazado_162476" data-name="Trazado 162476" d="M72.44,226.977h0a.9.9,0,0,1,0,.215h0a8.05,8.05,0,0,1-3.05,2.138,26.019,26.019,0,0,1-3.73,1.145,6.091,6.091,0,0,0,2.683-2.1,7.957,7.957,0,0,0,.59-.894,11.958,11.958,0,0,0,.894-2.173,13.014,13.014,0,0,0,.394-1.431,8.39,8.39,0,0,0,.2-1.95,6.261,6.261,0,0,0-.429-2.173,2.987,2.987,0,0,1,2.075,2.138l.474,2.093.089.385a7.084,7.084,0,0,1-.188,2.612Z" transform="translate(-43.744 -219.406)" fill="#050504" opacity="0.1"/>
      </g>
      <path id="Trazado_162477" data-name="Trazado 162477" d="M139.919,223.76a16.963,16.963,0,0,1-.125,2.5,53.989,53.989,0,0,1-2.254,10.85c-.268.894-.572,1.834-.894,2.764l-.51,1.458h0l-.081.215a.683.683,0,0,1,0,.1c-.206.572-.42,1.145-.644,1.708v.1l-.179.456H122.639l-7.889.045h-1.914l-8.891.072h-3.22c-8.873.072-14.454.733-19.311-.429a17.218,17.218,0,0,1-4.365-1.655h0c-.537-.286-1.064-.608-1.61-.966l-.411-.116-2.558-.8h0l.054-.233c.17-.68.322-1.36.474-2.057l.233-1.145h0l.161-.832c.045-.215.081-.429.116-.644.519-2.755.939-5.367,1.449-7.558.116-.465.224-.894.349-1.342h0a1.346,1.346,0,0,1,.125-.42,3.1,3.1,0,0,1,.894-.894,16.612,16.612,0,0,1,1.682-1.064h0c.107-.1.42-.385.948-.8a27.594,27.594,0,0,1,7.155-3.9c.5-.2,1.02-.376,1.574-.546s1.3-.4,1.986-.572c.984-.25,2.03-.465,3.131-.644.8-.116,1.628-.224,2.487-.3h.233l.716-.063h.894c1.109-.045,2.272,0,3.479,0h.608a76.781,76.781,0,0,1,16.386-1.038,89.038,89.038,0,0,1,8.944.707c.948.134,1.887.277,2.809.447a40.9,40.9,0,0,1,6.574,1.726,21.953,21.953,0,0,1,3.157,1.44c.2.107.385.224.563.34v.2a24.048,24.048,0,0,1,.268,2.9Z" transform="translate(-44.463 -215.964)" fill="#e69f56"/>
      <path id="Trazado_162478" data-name="Trazado 162478" d="M117.15,235.381l-1.288,8.3-.3,1.986v.179h-1.038l-9.7-.089-16.1-.152c-4.964-.894-6.851-3.3-7.549-5.367a6.878,6.878,0,0,1-.313-3.122c1.118-5.223,7.37-5.5,10.832-4.884,6.189,1.091,22.629,2.817,25.16,3.086h.268Z" transform="translate(-45.355 -217.656)" fill="#e69f56"/>
      <path id="Trazado_162479" data-name="Trazado 162479" d="M201.178,225l-1.127,14.472-.411,5.367h-1.172c-8.56.179-15.778.572-23.864,0a109.123,109.123,0,0,1-11.753-1.449q-1.789-.322-3.73-.724l-.054-.394-.367-2.683L156.76,225.01c4.043-.42,7.791-.7,11.279-.894C182.43,223.445,192.484,224.617,201.178,225Z" transform="translate(-53.399 -216.803)" fill="#00bcd4"/>
      <path id="Trazado_162480" data-name="Trazado 162480" d="M250.561,230.223l-1.306,11.493-.3,2.683-.063.555h-.179c-22.11.161-31.046.331-45.33,0h0l.724-5.367,1.986-14.508a340.864,340.864,0,0,0,42.226,4.991Z" transform="translate(-58.34 -216.926)" fill="#00bcd4"/>
      <path id="Trazado_162481" data-name="Trazado 162481" d="M148.361,238.174c-.259,1.458-.528,2.764-.76,3.819-.143.608-.277,1.136-.4,1.547-.2.626-.358.993-.483.993H141.76v-.116c.268-.733.519-1.485.742-2.245.089-.268.17-.528.242-.8.376-1.279.716-2.594,1.02-3.927,1.172-5.116,1.9-10.6,2.683-16.1a1.426,1.426,0,0,1,.063-.51l3.748.277c.089,0,.143.179.17.483C150.588,223.666,149.461,232.137,148.361,238.174Z" transform="translate(-51.804 -216.478)" fill="#cc8d4c"/>
      <g id="Grupo_75352" data-name="Grupo 75352" transform="translate(67.819 17.689)">
        <path id="Trazado_162482" data-name="Trazado 162482" d="M168.86,240.288c-.116-.894-1.127-.85-1.708-.671a47.124,47.124,0,0,1-4.723.894c-.42.17-.814.233-1.243.385a8.809,8.809,0,0,0-1.172.483c-.3.367-.483.671-.814,1.154a23.909,23.909,0,0,0,7.6-.85C167.393,241.469,168.958,241.058,168.86,240.288Z" transform="translate(-121.464 -236.138)" fill="#ffc990"/>
        <path id="Trazado_162483" data-name="Trazado 162483" d="M175.107,245.916h0a.653.653,0,0,1-.572.653H156.1l.188-2.809.152-2.2c0,.072.152.081.4.072a16.391,16.391,0,0,0,1.789-.3c1.789-.358,4.32-.894,5.367-1.047h.259a2.2,2.2,0,0,1,.787.152l1.789.689.742.286,2.4.894a2.228,2.228,0,0,1,.456.241l2.791,1.789,1.574,1.055A.635.635,0,0,1,175.107,245.916Z" transform="translate(-121.137 -236.22)" fill="#ffc990"/>
        <path id="Trazado_162484" data-name="Trazado 162484" d="M152.778,240.874v.25l-.224,2.111-.313,2.817v.054H123.924a30.8,30.8,0,0,1-5.572.125h0l-.59-.072a.411.411,0,0,1-.206-.08c-.358-.25-.537-1.02-.546-2.03,0-3.041,1.377-8.291,3.64-8.309h.322l18.264,2.934,1.95.313,1.055.17,3.506.555Z" transform="translate(-117.01 -235.74)" fill="#ffc990"/>
      </g>
    </g>
    <path id="Trazado_162485" data-name="Trazado 162485" d="M243.678,241.521l-.224,4.749-3.523.089c-1.466,0-2.763,0-3.872-.054a31.213,31.213,0,0,1-4.292,0c-22.113.161-31.037.322-45.317,0h0c-8.557.179-15.773.581-23.857,0H116.132a30.788,30.788,0,0,1-5.571.125h0l-9.684-.089H97.659c-11.624.089-17.571,1.2-23.669-2.084h0q-.8-.429-1.61-.966l-.411-.125-2.584-.751h0l-1.2.045c-.224,1.467-1.538,2.361-3.308,2.907-.3.1-.617.179-.948.259-3.183.733-7.323.617-9.353.707H53.352c-5.955.125-8.4-1.011-9.952-4.159,1.064.322,2.119.608,3.165.823h0a23.072,23.072,0,0,0,12.295-.42,17.737,17.737,0,0,0,4.355-1.145,13.839,13.839,0,0,0,1.735-.823h0a7.082,7.082,0,0,0,5.463-3.148c0,1.208,6.134,3.5,6.751,3.39,9.1,2.263,19.985,3.184,32.029,3.39h2.683c6.456.054,13.234-.089,20.226-.331h1.386l3.675-.143c2.37-.089,4.757-.2,7.153-.3h.331c.787.116,1.574.215,2.379.3,1.726.188,3.487.313,5.3.385h0c2.835.107,5.785.089,8.9-.054a231.358,231.358,0,0,0,25.931-3.1l.581-.1.286.063a125.173,125.173,0,0,0,40.739,2.469l1.5-.134c.671-.063,1.35-.134,2.021-.215,3.156-.34,6.393-.778,9.764-1.288Z" transform="translate(-31.218 -174.977)" fill="#1d1d1b" opacity="0.1"/>
    <path id="Trazado_162486" data-name="Trazado 162486" d="M95.756,193.175l-.411.3-.233.161L79.065,205.267l-1.324.984a2.016,2.016,0,0,0-.152-.188,11.031,11.031,0,0,0-1.216-1.19c-.769-.689-1.538-1.306-1.538-1.306l-1.342.242-2.5.474-1.547.286c-.134-.653-.259-1.225-.367-1.789-.716-3.488-.894-4.177-.894-4.311s-.2-1.046-1.1-6.091l1.556-.313,3.157-.626.474-1.3h0c.4-1.145.957-2.683,1.073-3.283l21.028,5.894.814.224Z" transform="translate(-33.728 -169.635)" fill="#e8b783"/>
    <path id="Trazado_162487" data-name="Trazado 162487" d="M146.285,187.841h0l-5.8,3.068-.51.268a48.077,48.077,0,0,1-12.629,5.859,20.765,20.765,0,0,0-7.925,4.025c-2.683,2.236-10.366,6.011-13.658,6.986,0,0-1.655.555-4.034,1.279-2.182.653-5,1.449-7.773,2.084H93.9l-.894.2a42.792,42.792,0,0,1-4.669.787l-.581.054h-1.1c-3.256.626-8.578,1.968-10.241-2.227q-.3-.751-.563-1.61a66.189,66.189,0,0,1-1.69-6.914,5.8,5.8,0,0,0,2.683-1.905c2.916-3.658,1.878-10.572-3.891-11.726h0s1.592-8.533,2.415-11.914a9.964,9.964,0,0,1,1.959-4.186,6.9,6.9,0,0,1,4.195-2.388h.045l1.476-.233h0c34.516-5.232,59.086,1.512,63.111,17.674A6.315,6.315,0,0,0,146.285,187.841Z" transform="translate(-34.353 -167.602)" fill="#ff9d00"/>
    <path id="Trazado_162488" data-name="Trazado 162488" d="M69.958,202a6.4,6.4,0,0,1-1.02,1.69c-.2.259-.42.519-.671.8-.528.59-1.172,1.243-1.941,2.021a14.311,14.311,0,0,1-4.472,2.683.894.894,0,0,1,.08.161,1.064,1.064,0,0,1,.045.581c-.143.894-1.225,1.422-2.683,1.941-1.789.644-3.417.8-3.783-.188a.894.894,0,0,1-.054-.3.25.25,0,0,1,0-.116.528.528,0,0,1,0-.17L50.87,212a6.977,6.977,0,0,1-7.9-4.472,6.342,6.342,0,0,1-.277-1.02l-1.27-6.547a6.986,6.986,0,0,1,5.537-8.175l4.588-.894a1.118,1.118,0,0,1-.17-.572c0-1.038,1.565-1.521,3.444-1.574,1.521-.045,2.683.072,3.184.814a1.046,1.046,0,0,1,.17.563,1.1,1.1,0,0,1,0,.17,14.383,14.383,0,0,1,5.215.894c1.011.438,1.851.8,2.558,1.154a10.124,10.124,0,0,1,.894.483c1.959,1.127,2.6,2.245,3.139,5h0A7.227,7.227,0,0,1,69.958,202Z" transform="translate(-30.996 -169.834)" fill="#ffc990"/>
    <path id="Trazado_162489" data-name="Trazado 162489" d="M55.122,211.4a.367.367,0,0,0,0,.17.447.447,0,0,0,0,.107h0a27.836,27.836,0,0,0-2.934.894c-2.173.751-4.383,1.673-7.155.331a11.86,11.86,0,0,1-5.787-6.207h0a12.37,12.37,0,0,1,2.191-13.336c2.129-2.245,4.472-2.173,6.816-2.254a22.767,22.767,0,0,1,3,0c0,.358.581.716,1.789.894l.179.894c-9.025.08-8.64,2.424-7.719,4.392.134.286.25.555.367.814a20.5,20.5,0,0,1,1.27,3.73,2.421,2.421,0,0,0,.125.519c.063.474.116.894.152,1.306a18.292,18.292,0,0,1,.089,2.4c0,.25,0,.519,0,.8a4.616,4.616,0,0,1-.054.85,5.367,5.367,0,0,0,0,.76,2.236,2.236,0,0,0,.447,1.4c.823.984,3,1.19,8.461-.894l.188.948C55.632,210.531,55.212,211.032,55.122,211.4Z" transform="translate(-30.668 -170.078)" fill="#61483e"/>
    <path id="Trazado_162490" data-name="Trazado 162490" d="M43.075,206.013a3.578,3.578,0,0,0,.894,3.783,5.885,5.885,0,0,0,3.73,1.547A17.584,17.584,0,0,0,51.8,211,9.839,9.839,0,0,1,48,207.516a13.228,13.228,0,0,0-1.252-1.932,2.433,2.433,0,0,0-2.021-.894A2.191,2.191,0,0,0,43.075,206.013Z" transform="translate(-31.162 -171.517)" fill="#61483e"/>
    <path id="Trazado_162491" data-name="Trazado 162491" d="M42.324,203.46a6.568,6.568,0,0,0,3.578,3.649c1.547.787,3.837,1.055,5.277,2.075a24.481,24.481,0,0,0-5.42-8.309,2.871,2.871,0,0,0-2.352-1.055,2.147,2.147,0,0,0-1.547,2.254,5.9,5.9,0,0,0,1.02,2.728Z" transform="translate(-31.054 -171.003)" fill="#61483e"/>
    <path id="Trazado_162492" data-name="Trazado 162492" d="M41.979,199.563a5.42,5.42,0,0,0,2.549,3.086,29.88,29.88,0,0,0,3.712,1.691,8.435,8.435,0,0,1,3.372,2.3,12,12,0,0,0-4.32-7.263c-1.055-.832-2.326-1.592-2.737-2.871a6.805,6.805,0,0,0-.259-.894.832.832,0,0,0-.7-.51c-.5,0-.733.608-.832,1.1l-.966,4.544Z" transform="translate(-31.049 -170.505)" fill="#61483e"/>
    <path id="Trazado_162493" data-name="Trazado 162493" d="M69.673,221.838l.474,2.093-2.317-.107c-4.472-.143-8.944,0-12.862,1.243a23.417,23.417,0,0,1-7.871,1.145,12.514,12.514,0,0,1-1.324-.116,13.131,13.131,0,0,1-2.683-.6l.215-.215a3.032,3.032,0,0,1,3.649-.492h0a12.916,12.916,0,0,1,3.336-2.173,16.944,16.944,0,0,1,2.191-.823,13.791,13.791,0,0,1,1.512.188l.528-.42,2.343-1.878a1.27,1.27,0,0,1,1.869.447l.581,1c.769-.179,4.964-1.6,4.964-1.6a6.19,6.19,0,0,1,3.318.134A2.987,2.987,0,0,1,69.673,221.838Z" transform="translate(-31.185 -173.067)" fill="#1d1d1b" opacity="0.1"/>
    <path id="Trazado_162494" data-name="Trazado 162494" d="M142.74,189.553h0c-.045-.25-.107-.5-.17-.742l-.215.134a31.743,31.743,0,0,1-5.715,2.817c-4.025,1.529-31.752,12.844-33.783-2.952,0-.215-25.59-5.223-25.438-5.071,3.157,3,11.064,7.585,12.129,10.966-.063,0,.778,15.912-10.841,15.375-2.218-.1-3.757-1.995-4.669-3.846a8.246,8.246,0,0,1-.59-1.673,8.443,8.443,0,0,1-.2-2.97h0a9.615,9.615,0,0,0-3.5-.107,15.653,15.653,0,0,0-3.578,1.02c-4.2,1.7-8.247,4.749-12.37,5.17a32.193,32.193,0,0,1-3.828.179,19.61,19.61,0,0,1-2.406-.1A30.874,30.874,0,0,1,43.2,207.1l-.411-.1a26.449,26.449,0,0,1-3.417-1.046,11.86,11.86,0,0,0,5.787,6.207c2.791,1.342,5,.42,7.155-.331a27.841,27.841,0,0,1,2.934-.894.9.9,0,0,0,.054.3c.367.984,2.021.832,3.783.188,1.431-.519,2.513-1.073,2.683-1.941a1.064,1.064,0,0,0-.045-.581.894.894,0,0,0-.08-.161,14.311,14.311,0,0,0,4.472-2.683c.769-.778,1.413-1.431,1.941-2.021l2.5-.474a66.187,66.187,0,0,0,1.69,6.914v.286l.59,10.778c.6.045,1.127-1.136,1.717-1.1,3.023.17,9.141-.635,11.923-.751.385,0,11.136-.394,14.6-2.8,7.012-4.875,21.234,1.6,24.883-3.166,1.324-1.726,1.207-4.168,2.2-6.1,2.12-4.123,5.5-7.433,8.551-10.939l.546-.617h0c1.735-1.905,3.846-3.882,5.787-5.93A3.968,3.968,0,0,0,142.74,189.553ZM97.777,213.6h-.608c.34-.832.68-1.69,1.011-2.54,2.379-.724,4.007-1.27,4.034-1.279,3.292-.975,10.948-4.687,13.658-6.986-.805,4.472-1.288,7.308-1.708,9.794A75.4,75.4,0,0,0,97.777,213.6Z" transform="translate(-30.792 -169.305)" fill="#1d1d1b" opacity="0.1"/>
    <path id="Trazado_162495" data-name="Trazado 162495" d="M105.779,206.807c-.528,1.61-1.118,3.229-1.735,4.839-.331.894-.671,1.708-1.011,2.54-.215.492-.42.984-.626,1.476s-.474,1.073-.716,1.6l-1.941-1.377h0l-.116-.08h-.1l-1.252.2-3.354.537.107-.769L95.2,214.6l.089-.644.054-.358v-.045l.546-3.748,2.2-15.885v-.894l.107-.5c.546-2.88,9.919-3.023,9.919-3.023a3.336,3.336,0,0,1,.51,1.3C109.357,193.874,107.98,200.206,105.779,206.807Z" transform="translate(-36.674 -169.914)" fill="#ffc990"/>
    <path id="Trazado_162496" data-name="Trazado 162496" d="M88.479,216.193c.125-.948,1.234-.894,1.869-.733,1.109.349,3.059.635,5.188,1.011.465.188.894.25,1.368.42a8.946,8.946,0,0,1,1.288.537c.322.4.537.733.894,1.261a26.171,26.171,0,0,1-8.354-.966C90.08,217.5,88.363,217.042,88.479,216.193Z" transform="translate(-35.991 -172.645)" fill="#ffc990"/>
    <path id="Trazado_162497" data-name="Trazado 162497" d="M79.23,222.374h0a.716.716,0,0,0,.626.716h.125l10.554-1.467,4.374.6c2.961,0,6.082-1.673,5.876-4.624v-.054c0,.072-.161.089-.447.072a13.775,13.775,0,0,1-1.968-.322c-2.012-.394-4.741-1.02-5.921-1.154h-.277a2.415,2.415,0,0,0-.894.17l-1.932.751-.814.322L85.9,218.4a2.415,2.415,0,0,0-.5.259l-4.114,1.977L79.5,221.757a.733.733,0,0,0-.268.617Z" transform="translate(-35.013 -172.726)" fill="#ffc990"/>
    <path id="Trazado_162498" data-name="Trazado 162498" d="M88.19,185.466c3.336,2.478,6.816,5.045,10.438,7.621l.894.617a5.3,5.3,0,0,0,7.361-1.073.449.449,0,0,0,.063-.072l.054-.089a5.286,5.286,0,0,0,.555-5.367h0c-1.342-2.63-6.359-7.334-10.957-11.073a29.928,29.928,0,0,0-8.408,9.436Z" transform="translate(-35.962 -168.492)" fill="#ffc990"/>
    <path id="Trazado_162499" data-name="Trazado 162499" d="M77.779,172.833l-.063.1a5.787,5.787,0,0,0,1.673,8.05c2.826,1.834,5.769,3.783,8.8,5.8a32.852,32.852,0,0,1,8.569-10.733,63.506,63.506,0,0,0-7.907-5.089C83.351,168.236,79.532,170.168,77.779,172.833Z" transform="translate(-34.751 -167.817)" fill="#f7b242"/>
  </g>
</svg>
