<svg xmlns="http://www.w3.org/2000/svg" width="215" height="127.404" viewBox="0 0 215 127.404">
  <g id="Capa_2" data-name="Capa 2" transform="translate(-26.734 -91.937)">
    <g id="Grupo_75375" data-name="Grupo 75375" transform="translate(26.734 91.937)">
      <path id="Trazado_162571" data-name="Trazado 162571" d="M100.939,212.012c.117-.836,1.112-.836,1.673-.661,1,.309,2.751.569,4.658.912.418.167.836.226,1.229.368a8.761,8.761,0,0,1,1.154.485c.293.36.485.661.836,1.137a23.634,23.634,0,0,1-7.527-.836C102.378,213.183,100.839,212.774,100.939,212.012Z" transform="translate(-40.288 -121.794)" fill="#f2bf89"/>
      <path id="Trazado_162572" data-name="Trazado 162572" d="M91.7,216.8h0a.652.652,0,0,0,.569.644h.109l9.475-1.321,3.931.544c2.659,0,5.461-1.505,5.277-4.182v-.05c0,.067-.142.084-.4.067a12.69,12.69,0,0,1-1.765-.284c-1.806-.351-4.257-.92-5.319-1.037h-.251a2.292,2.292,0,0,0-.778.151l-1.731.677-.736.284-2.358.92a1.931,1.931,0,0,0-.452.234l-3.7,1.765-1.572,1a.677.677,0,0,0-.3.585Z" transform="translate(-39.067 -121.651)" fill="#f2bf89"/>
      <g id="Grupo_75371" data-name="Grupo 75371" transform="translate(58.422)">
        <g id="Grupo_75368" data-name="Grupo 75368" transform="translate(9.599 31.193)">
          <path id="Trazado_162573" data-name="Trazado 162573" d="M114.128,184.8c2.409-9.843,15.054-5.67,10.663,3.512L113.35,209.13l-6.69-1.38Z" transform="translate(-106.66 -149.208)" fill="#f2bf89"/>
          <path id="Trazado_162574" data-name="Trazado 162574" d="M134.521,151.93l-2.91,13.381-3.471,14.083-10.42-4.976,1.907-11.24,2.593-13.582C123.909,140.682,136.353,141.176,134.521,151.93Z" transform="translate(-108.47 -143.349)" fill="#f7b242"/>
          <path id="Trazado_162575" data-name="Trazado 162575" d="M125.53,188.98c1.012.585,2.024-.953,2.634-2.726.435-2.091,1.171-3.42.46-3.73l-10.872-4.34c-1.02-.46-2.751,4.115-2,4.3Z" transform="translate(-108.118 -149.046)" fill="#c48849"/>
        </g>
        <path id="Trazado_162576" data-name="Trazado 162576" d="M186.492,225.562l-2.166,7.36.786,1.673a4.759,4.759,0,0,1,1.33,0l.426.059a12.035,12.035,0,0,1,3.73,1.673c.895.527,2.024,2.124,3.446,3.554l.836.836c1.522,1.581,2.668,2.952,3.872,3.345.987.493,2.141-.217,3.68-.836a.544.544,0,0,0,.41-.527,20,20,0,0,0-2.459-8.856l-1.338-2.292-1.564-2.7-1.815-3.153-.159-.276-.56-1.112-.184-.284-1.171-2.25a6.54,6.54,0,0,0-.836-1.246l-1.154-1.321a.477.477,0,0,0-.351-.176,18.69,18.69,0,0,0-3.228,1.949,40.417,40.417,0,0,0-3.4,2.509h0c-.176.151-.585.836-1.263,1.547-.46.493,4.182.05,3.479.418A2.647,2.647,0,0,1,186.492,225.562Z" transform="translate(-109.611 -121.223)" fill="#61483e"/>
        <path id="Trazado_162577" data-name="Trazado 162577" d="M139.016,233.713a8.649,8.649,0,0,0,.519,1.129v.067a6.816,6.816,0,0,0,.912,1.313c.05.05.092.109.142.167a8.012,8.012,0,0,0,3.621,2.317c4.023,1.38,6.883-.669,8.363-4.5.109-.284.209-.577.3-.886s2-4.516,4.274-10.738h0c1.79-4.926,3.847-11.123,5.536-17.688.335-1.254.644-2.509.945-3.822.234-1.029.46-2.074.669-3.111.075-.493.134-.953.176-1.4h0a16.557,16.557,0,0,0,.067-1.89,11.048,11.048,0,0,0-.268-2.367,7.846,7.846,0,0,0-.535-1.5,5.085,5.085,0,0,0-1.748-2.049c-5.219-3.529-16.726,2.9-16.726,2.9-.393,2.2-.744,4.182-1.045,5.9-.059.293-.109.577-.159.836-.209,1.162-.393,2.233-.577,3.22-2.049,11.641-2.057,11.951-4.182,24.061-.151.836-.309,1.756-.485,2.735a8.564,8.564,0,0,0,.2,5.311Z" transform="translate(-102.271 -116.093)" fill="#785039"/>
        <path id="Trazado_162578" data-name="Trazado 162578" d="M140.629,241.109a.192.192,0,0,1,.05.059c.151.176.6.7,1.07,1.179l.159.151a7.266,7.266,0,0,0,.594.519,8.171,8.171,0,0,0,5.8,1.514c20.364-3.588,25.926-3.027,31.328-4.014l.368-4.248.209-2.509-.151-11.708s-11.943,1.99-23.5,4.558h0c-7.033,1.556-12.954,3.278-14.585,4.826-.042.042-.318,1.84-.611,3.864C140.98,238,140.579,241.034,140.629,241.109Z" transform="translate(-102.621 -121.717)" fill="#785039"/>
        <path id="Trazado_162579" data-name="Trazado 162579" d="M199.948,225.557l-2.166,7.36.794,1.673a4.7,4.7,0,0,1,1.321,0l.427.059a11.993,11.993,0,0,1,3.738,1.673c.895.527,2.024,2.124,3.437,3.554.293.284.569.569.836.836,1.514,1.581,2.668,2.952,3.872,3.345.987.493,2.133-.217,3.671-.836a.552.552,0,0,0,.418-.527,20.071,20.071,0,0,0-2.467-8.857l-1.321-2.291-1.564-2.7-1.815-3.153c-.059-.1-.109-.192-.167-.276l-.552-1.112-.167-.309-1.171-2.25a6.581,6.581,0,0,0-.836-1.246l-1.146-1.321a.477.477,0,0,0-.351-.176,18.693,18.693,0,0,0-3.228,1.949,40.423,40.423,0,0,0-3.4,2.509h0c-.176.151-.585.836-1.263,1.547-.468.493,4.182.05,3.479.418A2.752,2.752,0,0,1,199.948,225.557Z" transform="translate(-111.819 -121.218)" fill="#61483e"/>
        <path id="Trazado_162580" data-name="Trazado 162580" d="M152.976,234.145a9.065,9.065,0,0,0,.661,1.062l.05.059a6.857,6.857,0,0,0,1.07,1.179l.159.151a8.062,8.062,0,0,0,3.9,1.832c4.182.836,6.732-1.547,7.711-5.545.075-.293.142-.6.192-.912s1.4-4.742,2.852-11.2h0c1.137-5.118,2.375-11.524,3.211-18.248.159-1.3.309-2.6.435-3.914.1-1.054.192-2.116.268-3.17v-1.422h0a17.561,17.561,0,0,0-.176-1.882,10.947,10.947,0,0,0-.577-2.308,7.527,7.527,0,0,0-.719-1.422,5.143,5.143,0,0,0-1.99-1.8c-5.645-2.835-16.2,5.018-16.2,5.018-.1,2.225-.2,4.182-.276,5.971v.836c-.059,1.179-.1,2.266-.151,3.27-.535,11.8-.5,12.118-1.054,24.4,0,.836-.075,1.79-.117,2.777a8.413,8.413,0,0,0,.753,5.269Z" transform="translate(-104.497 -115.815)" fill="#8f6044"/>
        <path id="Trazado_162581" data-name="Trazado 162581" d="M153.939,241.121l.05.059c.151.176.6.7,1.07,1.179l.159.151a6.091,6.091,0,0,0,.594.519,8.146,8.146,0,0,0,5.8,1.514c20.364-3.588,28.769-3.7,34.18-4.683l-2.3-17.738s-12.068,1.99-23.609,4.558h0c-7.042,1.556-12.954,3.278-14.585,4.826-.042.042-.318,1.84-.61,3.864C154.29,238.01,153.889,241.046,153.939,241.121Z" transform="translate(-104.8 -121.728)" fill="#8f6044"/>
        <path id="Trazado_162582" data-name="Trazado 162582" d="M123.455,138.158a9.132,9.132,0,0,1-4.3,3.345l-8.706-11.9c.778-.535,4.541-4.29,7.3-7.142l6.69,7.125.945.987a.426.426,0,0,1,.176,0C126.8,130.806,125.019,136.159,123.455,138.158Z" transform="translate(-97.682 -111.982)" fill="#f0bd87"/>
        <g id="Grupo_75369" data-name="Grupo 75369">
          <path id="Trazado_162583" data-name="Trazado 162583" d="M118.875,123.535c.836,1.455-2.35,1.673-3.722,2.777a.72.72,0,0,1-.117.109,8.751,8.751,0,0,1-.452,10.822c-.075.059-.134.125-.209.192l-1.857,1.447c-1.781,1.346-4.081-.067-5.219-1.539l-.293-.46-1.2-1.89h0c-.376-.594-.744-1.154-.97-1.489l-.159-.226-1.02.376a1.179,1.179,0,0,1-1.606-.769l-.577-2.735-.134-.619a11.229,11.229,0,0,1-1.2-.744,15.255,15.255,0,0,1-1.129-1.848,11.926,11.926,0,0,1-1.112-3.471,9.3,9.3,0,0,1,3.638-8.882c1.547-1.112,3.5-2.685,5.854-3.153l.5-.084c2.509-.318,5.461.753,8.79,5.068C117.938,118.492,117.9,121.921,118.875,123.535Z" transform="translate(-95.611 -110.155)" fill="#ffc990"/>
          <path id="Trazado_162584" data-name="Trazado 162584" d="M119.709,125.5c-5.06,5.637-6.64-3.663-6.64-3.663s-1.413,1.037-1.464,2c-.7.611-1.179.937-1.765,1.438-5.8-7.3-5.3-9.827-12.361-2.066-5.587-2.057.427-9.057,3.161-10.972,4.8-3.345,10.722-3.1,14.309,1.054C117.033,115.7,118.329,116.955,119.709,125.5Z" transform="translate(-95.182 -109.931)" fill="#61483e"/>
          <path id="Trazado_162585" data-name="Trazado 162585" d="M117.529,123.727c1,1.4.978,3.847.067,4.5s-1.622-.552-2.643-1.932c-.669-.92-1.84-2.066-1.045-3.069S116.066,121.678,117.529,123.727Z" transform="translate(-98.204 -111.961)" fill="#ffc990"/>
        </g>
        <path id="Trazado_162586" data-name="Trazado 162586" d="M162.13,184.113l-.226.167a33.99,33.99,0,0,1-3.4,2.141c-5.628,3.128-12.461,4.892-15.388,1.673-3.479-3.83-11.031-15.246-13.607-19.352a81.072,81.072,0,0,1-5.854-10.772h0a.393.393,0,0,1-.042-.084,31.01,31.01,0,0,1-2.768-12.812c0-1.263.05-2.032.05-2.032h0a12.211,12.211,0,0,0,3.136-3.855,25.925,25.925,0,0,0,3.094-7.067h.109a17.03,17.03,0,0,1,1.781.217,22.982,22.982,0,0,1,8.1,3.287l.142.092c5.679,3.5,18.692,23.107,24.889,32.106.41.6,2.233,4.483,4.767,9.1C167.867,178.686,165.626,181.529,162.13,184.113Z" transform="translate(-99.384 -111.49)" fill="#f7b242"/>
        <path id="Trazado_162587" data-name="Trazado 162587" d="M115.9,141.286c-.192,4.382-7.527,4.876-7.577-.36,0-.544-.753-1.2-1.2-1.89h0c-.519.226-1.355-1.087-.97-1.489a1.589,1.589,0,0,1,.5-.41,8.363,8.363,0,0,1,2.258-1,4.182,4.182,0,0,1,2.434.084,6.214,6.214,0,0,1,2.409,1.99,17.469,17.469,0,0,1,1.974,2.718A2.747,2.747,0,0,1,115.9,141.286Z" transform="translate(-96.963 -112.87)" fill="#61483e"/>
        <path id="Trazado_162588" data-name="Trazado 162588" d="M112.007,139.649a1.589,1.589,0,0,1-.544,1.581,1.564,1.564,0,0,1-1.622.243c-.226-.159-.376-.619-.644-.585a2.592,2.592,0,0,0-.661.427l-1.2-1.89h0a4.383,4.383,0,0,1,.427-.251,7.142,7.142,0,0,1,1.673-.694,2.86,2.86,0,0,1,1.756.059A1.438,1.438,0,0,1,112.007,139.649Z" transform="translate(-97.172 -113.207)" fill="#ffc990"/>
        <path id="Trazado_162589" data-name="Trazado 162589" d="M163.968,187.061l-.368.243-3.4,2.141c-5.628,3.128-12.461,4.892-15.388,1.673-3.479-3.83-11.031-15.246-13.607-19.352l3.17-17.32,6.64-3.855-1.3,22.923c5.578,15.514,12.612,19.235,24.111,13.665Z" transform="translate(-101.08 -113.579)" fill="#1d1d1b" opacity="0.1"/>
        <g id="Grupo_75370" data-name="Grupo 75370" transform="translate(11.489 31.531)">
          <path id="Trazado_162590" data-name="Trazado 162590" d="M117.392,184.553c2.827-9.735,15.246-5.018,10.5,3.964L115.56,208.773l-6.64-1.673Z" transform="translate(-108.92 -149.549)" fill="#ffc990"/>
          <path id="Trazado_162591" data-name="Trazado 162591" d="M139.165,152.565l-3.487,13.256L131.6,179.745l-10.195-5.419,2.383-11.131,3.178-13.456C129.054,140.865,141.44,141.9,139.165,152.565Z" transform="translate(-110.964 -143.754)" fill="#f7b242"/>
          <path id="Trazado_162592" data-name="Trazado 162592" d="M128.8,189.115c1,.627,2.066-.836,2.76-2.609.519-2.074,1.313-3.345.611-3.713l-10.7-4.8c-1-.5-2.927,4-2.183,4.182Z" transform="translate(-110.59 -149.352)" fill="#d1914e"/>
        </g>
      </g>
      <path id="Trazado_162593" data-name="Trazado 162593" d="M247.33,248.753a3.834,3.834,0,0,1-3.527,4.073H35.857a3.828,3.828,0,0,1-3.527-4.073h0a3.835,3.835,0,0,1,3.527-4.073H243.794a3.823,3.823,0,0,1,3.527,4.073Z" transform="translate(-32.33 -125.421)" fill="#131313" opacity="0.1"/>
      <g id="Grupo_75374" data-name="Grupo 75374" transform="translate(1.687 95.564)">
        <path id="Trazado_162594" data-name="Trazado 162594" d="M268.857,243.7l-3.454.426c-.962.109-1.865.192-2.676.251a29.841,29.841,0,0,1-4.24,0c-1.422-.117-2.191-.36-2.292-.585a9.426,9.426,0,0,1-.644-2.291c-.527-3.245-.059-7.987,2.25-11.324l.309-.468c2.149-3.471,3.078-8.647,4.048-10.036,1.455-2.082,5.11-1.673,5.11-1.673l.059.761,1.154,16.4-1.673,3.211,1.806.636v.895Z" transform="translate(-68.441 -216.613)" fill="#2e2e2d"/>
        <path id="Trazado_162595" data-name="Trazado 162595" d="M163.264,241.59c-6.122,4.918-16.86,4.29-22.137.084-1.162-7.268-1.464-13.966,0-19.5,8.279-.4,20,1.89,26.21,2.86Z" transform="translate(-51.003 -217.293)" fill="#00bcd4"/>
        <path id="Trazado_162596" data-name="Trazado 162596" d="M270.795,235.914l-1.974,3.044,1.74.836-.217,4.692-3.479.084c-1.447,0-2.726,0-3.822-.05a21.742,21.742,0,0,1-4-.535c-.836-.209-1.254-.435-1.321-.611a8.775,8.775,0,0,1-.376-1.848c-.335-3.3.535-8.288,3.287-11.549s4.182-8.681,5.352-10.036a3.554,3.554,0,0,1,1.673-1.045,8.238,8.238,0,0,1,3.6-.151Z" transform="translate(-68.756 -216.719)" fill="#3c3c3b"/>
        <g id="Grupo_75373" data-name="Grupo 75373" transform="translate(0 3.12)">
          <path id="Trazado_162597" data-name="Trazado 162597" d="M71.993,228.15v13.866l-5.8.184h-.008L65,242.242l-4.867.151-.025-.937v-.192l-.084-3.722-.008-.259-.042-2.149-.125-5.311,3.513-.485,3.513-.485,2.116-.293Z" transform="translate(-38.522 -221.399)" fill="#f0b87d"/>
          <g id="Grupo_75372" data-name="Grupo 75372">
            <path id="Trazado_162598" data-name="Trazado 162598" d="M60.717,220.389a2.935,2.935,0,0,1,2.049,2.133l.56,2.45a7.184,7.184,0,0,1-.226,2.793h0a9.258,9.258,0,0,1-6.64,6.69.7.7,0,0,1,0,.125h0c.393,1.806,2.885,4.182,1.2,4.792-1.873.694-4.131,3.538-6.607,4.424-11.332,2.643-12.545-4.491-13.665-8.664a9.9,9.9,0,0,1,2.977-9.718,12.544,12.544,0,0,1,3.245-2.107,17.192,17.192,0,0,1,2.166-.836,14.069,14.069,0,0,1,1.489.192l.519-.418,2.317-1.857a1.246,1.246,0,0,1,1.84.435l.585,1c.753-.184,4.892-1.581,4.892-1.581A6.063,6.063,0,0,1,60.717,220.389Z" transform="translate(-34.797 -220.078)" fill="#f0b87d"/>
            <path id="Trazado_162599" data-name="Trazado 162599" d="M60.819,241.881c-.217,1.447-1.522,2.325-3.262,2.869-.3.1-.619.176-.937.251-3.145.728-7.234.611-9.2.7H46.208c-5.854.125-8.288-1-9.818-4.106a23.082,23.082,0,0,1-1.422-4.115c-1.288-4.851-.452-8.957,1.388-10.663a3.027,3.027,0,0,1,3.6-.485h0c0,.577.075,1.112.117,1.606.886,9.2,4.775,6.406,13.941,4.407a22.466,22.466,0,0,1,.736,2.325.72.72,0,0,0-.059.084c-.661.836-2.685,3.027-2.81,3.17a12.076,12.076,0,0,1,3.981-1.045h.176a4.4,4.4,0,0,1,.577,0h0a4.181,4.181,0,0,1,2.609.92h0a3.805,3.805,0,0,1,.636.677A6.264,6.264,0,0,1,60.819,241.881Z" transform="translate(-34.347 -221.039)" fill="#3c3c3b"/>
            <path id="Trazado_162600" data-name="Trazado 162600" d="M56.35,240.786c1.765-.477,3.4-2.509,3.078-3.663s-1.673-.636-3.471-.176c-1.162.3-2.9.46-2.927,1.815C53,239.958,53.766,241.489,56.35,240.786Z" transform="translate(-37.405 -222.754)" fill="#f0b87d"/>
          </g>
          <path id="Trazado_162601" data-name="Trazado 162601" d="M64.5,220.45a2.935,2.935,0,0,1,2.049,2.133l.56,2.45a7.184,7.184,0,0,1-.226,2.793h0a8.1,8.1,0,0,1-3.019,2.116,24.47,24.47,0,0,1-3.671,1.121,5.971,5.971,0,0,0,2.651-2.074,10.73,10.73,0,0,0,1.505-3.036,9.9,9.9,0,0,0,.577-3.345,5.854,5.854,0,0,0-.427-2.158Z" transform="translate(-38.577 -220.139)" fill="#050504" opacity="0.1"/>
        </g>
        <path id="Trazado_162602" data-name="Trazado 162602" d="M131.652,237.308c-.41,1.38-.878,2.768-1.38,4.182a.982.982,0,0,1-.109.309c-.276.744-.552,1.5-.836,2.241h-.669c-2.626,0-10.437,0-19.536.067H107.3l-8.781.067H95.339c-11.457.092-17.353,1.179-23.367-2.057h0a17.729,17.729,0,0,1-1.614-.97l-.41-.125-2.509-.786h0c.192-.744.36-1.5.527-2.258l.226-1.129h0c.644-3.245,1.121-6.414,1.714-8.915.109-.468.217-.912.343-1.33h0a1.372,1.372,0,0,1,.125-.41c.385-.836,2.509-1.965,2.509-1.965a24.4,24.4,0,0,1,8-4.675,33.786,33.786,0,0,1,9.066-2.024c.594-.059,1.213-.092,1.848-.117,1.28-.059,2.626-.042,4.031,0,6.582-1.489,27.849-2.183,37.417,3.245.2.109.376.217.56.335v.192C134.4,225.909,133.425,231.512,131.652,237.308Z" transform="translate(-39.764 -216.348)" fill="#ff9d00"/>
        <path id="Trazado_162603" data-name="Trazado 162603" d="M112.109,236.733l-1.263,8.2-.293,1.957v.176h-.987L100,246.978l-15.89-.151c-4.909-.836-6.766-3.253-7.452-5.26a6.691,6.691,0,0,1-.309-3.078c1.02-5.168,7.226-5.419,10.571-4.842,6.113,1.079,22.338,2.793,24.83,3.053h.268Z" transform="translate(-38.851 -219.144)" fill="#f7b242"/>
        <path id="Trazado_162604" data-name="Trazado 162604" d="M200.239,225.929,199.127,240.2l-.41,5.269h-1.154c-8.447.176-15.572.569-23.551,0a105.7,105.7,0,0,1-11.6-1.43c-1.188-.209-2.417-.452-3.68-.711l-.059-.393-.351-2.659L156.4,225.887c3.989-.418,7.686-.694,11.131-.836C181.74,224.39,191.659,225.553,200.239,225.929Z" transform="translate(-52.101 -217.74)" fill="#00bcd4"/>
        <path id="Trazado_162605" data-name="Trazado 162605" d="M252.176,231.179l-1.288,11.34-.3,2.668-.059.552h-.184c-21.819.159-30.634.326-44.734,0h0l.719-5.252,1.957-14.318a337.035,337.035,0,0,0,41.682,4.876Z" transform="translate(-60.299 -217.955)" fill="#00bcd4"/>
        <path id="Trazado_162606" data-name="Trazado 162606" d="M168.5,242.083c-.109-.836-1.1-.836-1.673-.652-1,.309-2.751.569-4.667.9-.41.167-.836.226-1.229.376a9.154,9.154,0,0,0-1.154.477c-.293.368-.477.661-.836,1.137a23.66,23.66,0,0,0,7.527-.836C167.061,243.254,168.608,242.844,168.5,242.083Z" transform="translate(-48.691 -220.437)" fill="#ffc990"/>
        <path id="Trazado_162607" data-name="Trazado 162607" d="M174.467,247.693h0a.644.644,0,0,1-.569.644H155.7l.192-2.777.151-2.166c0,.067.151.084.4.067a17.8,17.8,0,0,0,1.765-.284c1.806-.36,4.265-.92,5.319-1.037h.251a2.04,2.04,0,0,1,.778.151l1.74.677.728.284,2.358.92a1.783,1.783,0,0,1,.452.234l2.76,1.773,1.572,1A.636.636,0,0,1,174.467,247.693Z" transform="translate(-48.019 -220.57)" fill="#ffc990"/>
        <path id="Trazado_162608" data-name="Trazado 162608" d="M147.085,238.721c-.259,1.43-.519,2.726-.753,3.763-.142.6-.276,1.129-.393,1.53-.192.619-.36.978-.485.978H140.57a.653.653,0,0,0,.042-.117q.393-1.079.728-2.208c.084-.268.167-.527.234-.794.376-1.254.7-2.551,1-3.872,1.162-5.018,1.882-10.454,2.609-15.89a1.473,1.473,0,0,1,.059-.5l3.7.276c.084,0,.134.176.167.477C149.293,224.395,148.172,232.758,147.085,238.721Z" transform="translate(-51.603 -217.209)" fill="#f7b242"/>
        <path id="Trazado_162609" data-name="Trazado 162609" d="M149.719,242.408v.243l-.226,2.082-.309,2.785v.05H121.268a29.563,29.563,0,0,1-5.486.117h0a2.02,2.02,0,0,1-.585-.059.536.536,0,0,1-.2-.084c-.351-.243-.535-1.012-.535-2.007,0-3,1.355-8.179,3.588-8.2h.318l18.031,2.894,1.915.309,1.054.167,3.454.552Z" transform="translate(-42.965 -219.784)" fill="#f7b242"/>
      </g>
      <path id="Trazado_162610" data-name="Trazado 162610" d="M237.245,243.118l-.22,4.692-3.528.084c-1.467,0-2.765,0-3.876-.05a30.68,30.68,0,0,1-4.3,0c-22.126.159-31.064.326-45.363,0h0c-8.565.184-15.782.577-23.881,0H109.562a31.361,31.361,0,0,1-5.572.125h0l-9.693-.092H91.074c-11.618.092-17.6,1.179-23.695-2.057h0a18.044,18.044,0,0,1-1.637-.945l-.416-.125-2.544-.786h0l-1.221.075c-.22,1.447-1.543,2.325-3.307,2.869-.305.1-.628.176-.95.251-3.189.728-7.336.611-9.329.7h-1.23c-5.936.125-8.4-1-9.956-4.106a31.955,31.955,0,0,0,3.163.836h0a23.413,23.413,0,0,0,12.28-.4,17.907,17.907,0,0,0,4.359-1.129,15.276,15.276,0,0,0,1.7-.836,7.1,7.1,0,0,0,5.47-3.1c0,1.2,6.14,3.454,6.784,3.345,9.117,2.233,20.006,3.145,32.065,3.345h2.7c6.462.05,13.247-.092,20.243-.326h1.391l3.672-.134c2.375-.1,4.766-.192,7.183-.309h.331c.78.109,1.577.2,2.375.284,1.7.192,3.494.309,5.317.385h0c2.841.109,5.792.084,8.913-.059a234.758,234.758,0,0,0,25.934-3.061l.585-.1.28.059a126.7,126.7,0,0,0,40.783,2.442l1.5-.134c.678-.059,1.348-.134,2.027-.209,3.155-.335,6.4-.769,9.778-1.271Z" transform="translate(-33.06 -124.511)" fill="#1d1d1b" opacity="0.1"/>
      <path id="Trazado_162611" data-name="Trazado 162611" d="M102.609,212.012c.117-.836,1.112-.836,1.673-.661,1,.309,2.743.569,4.658.912.418.167.836.226,1.229.368a8.756,8.756,0,0,1,1.154.485c.293.36.485.661.836,1.137a23.694,23.694,0,0,1-7.527-.836C104.048,213.183,102.509,212.774,102.609,212.012Z" transform="translate(-40.482 -121.794)" fill="#ffc990"/>
      <path id="Trazado_162612" data-name="Trazado 162612" d="M93.72,217.6h0a.652.652,0,0,0,.569.644H94.4l9.484-1.321,3.922.544c2.659,0,5.469-1.5,5.285-4.182v-.05c0,.067-.142.084-.393.067a17.881,17.881,0,0,1-1.773-.284c-1.806-.351-4.257-.92-5.319-1.037h-.251a2.291,2.291,0,0,0-.778.151l-1.731.677-.728.284-2.367.92a2.886,2.886,0,0,0-.452.234l-3.671,1.8-1.572,1.012A.652.652,0,0,0,93.72,217.6Z" transform="translate(-39.296 -121.744)" fill="#ffc990"/>
    </g>
  </g>
</svg>
