<svg xmlns="http://www.w3.org/2000/svg" width="215" height="131.97" viewBox="0 0 215 131.97">
  <g id="Capa_2" data-name="Capa 2" transform="translate(-24.261 -80.042)">
    <g id="Grupo_75396" data-name="Grupo 75396" transform="translate(122.471 80.043)">
      <path id="Trazado_162701" data-name="Trazado 162701" d="M154.141,173.51H161v5.612l-7.008-2.317Z" transform="translate(-136.504 -108.444)" fill="#f2bf89"/>
      <path id="Trazado_162702" data-name="Trazado 162702" d="M158.209,171.79c-.109,2.593-1.74,5.018-6.205,4.717-2.576-.167-6.063-4.416-6.063-4.416Z" transform="translate(-135.186 -108.163)" fill="#f2bf89"/>
      <path id="Trazado_162703" data-name="Trazado 162703" d="M170.492,141.862l-4.282,13.314-4.432,11.207-10.128-6.548,2.6-8.037,3.972-13.523C160.833,129.393,173.394,131.124,170.492,141.862Z" transform="translate(-136.121 -101.744)" fill="#f7b242"/>
      <path id="Trazado_162704" data-name="Trazado 162704" d="M175.479,231.383a7.787,7.787,0,0,0,.669,1.079l.05.067a7.527,7.527,0,0,0,1.1,1.2l.167.151a8.146,8.146,0,0,0,3.972,1.865c4.248.836,6.866-1.581,7.87-5.653.075-.3.142-.611.192-.928s1.422-4.842,2.9-11.424h0c1.162-5.219,2.434-11.758,3.287-18.616.159-1.321.309-2.659.443-4,.1-1.07.192-2.158.276-3.237v-1.447h0a16.234,16.234,0,0,0-.176-1.924,11.416,11.416,0,0,0-.594-2.358,7.526,7.526,0,0,0-.728-1.447,5.2,5.2,0,0,0-2.041-1.84c-5.745-2.885-16.517,5.135-16.517,5.135-.109,2.275-.2,4.3-.276,6.1a5.3,5.3,0,0,1-.05.895c-.059,1.2-.1,2.317-.159,3.345-.544,12.043-.51,12.361-1.07,24.889,0,.878-.075,1.823-.117,2.827A8.564,8.564,0,0,0,175.479,231.383Z" transform="translate(-139.869 -109.875)" fill="#464747"/>
      <path id="Trazado_162705" data-name="Trazado 162705" d="M166.522,125.332a9.2,9.2,0,0,1-5.26,1.714l-4.332-14.4c.928-.243,5.854-2.576,9.459-4.366l4.031,9.141.569,1.263a.6.6,0,0,1,.159.092C172.193,119.386,168.7,123.936,166.522,125.332Z" transform="translate(-136.985 -97.767)" fill="#f2bf89"/>
      <g id="Grupo_75394" data-name="Grupo 75394" transform="translate(6.79)">
        <path id="Trazado_162706" data-name="Trazado 162706" d="M145.438,112.856a16.073,16.073,0,0,0,1.146,1.915,12.754,12.754,0,0,0,1.221.753l.134.627.627,2.777a1.2,1.2,0,0,0,1.673.769l.234-.084.836-.309.176.234c.226.335.611.9,1,1.505h0c.46.694.937,1.447,1.246,1.907l.3.477a6.114,6.114,0,0,0,2.375,1.823,2.919,2.919,0,0,0,2.961-.309l1.882-1.489a2.363,2.363,0,0,1,.209-.2,8.943,8.943,0,0,0,.56-10.763c-.059-.092-.134-.192-.2-.284l.125-.109h0a4.686,4.686,0,0,1,.519-.351c1.539-.836,4.023-1.188,3.228-2.509-.987-1.673-.97-5.143-2.3-7.284-3.437-4.374-6.448-5.444-9.007-5.093a2.176,2.176,0,0,0-.519.092c-2.367.493-4.34,2.116-5.913,3.278a9.467,9.467,0,0,0-3.621,9.082h0a12.661,12.661,0,0,0,1.112,3.546Z" transform="translate(-141.691 -95.887)" fill="#ffc990"/>
        <path id="Trazado_162707" data-name="Trazado 162707" d="M166.482,111.24c-5.11,5.8-6.808-3.671-6.808-3.671s-1.43,1.07-1.472,2.049c-.719.636-1.2.962-1.79,1.489-5.98-7.393-5.5-9.986-12.628-2-2.919-.519-5.168-4.081,3.73-10.822,4.458-3.387,10.3-3.663,14,.544C163.663,101.271,165,102.534,166.482,111.24Z" transform="translate(-141.2 -95.709)" fill="#b17f4a"/>
        <path id="Trazado_162708" data-name="Trazado 162708" d="M164.225,109.422c1.037,1.413,1.037,3.922.109,4.6s-1.673-.552-2.7-1.957c-.694-.928-1.907-2.082-1.1-3.119C161.256,108.009,162.744,107.348,164.225,109.422Z" transform="translate(-144.32 -97.73)" fill="#ffc990"/>
      </g>
      <path id="Trazado_162709" data-name="Trazado 162709" d="M159.138,144.269a.209.209,0,0,1,0,.1h0c.075,1.171.226,2.726.5,4.541.318,2.266.836,4.943,1.464,7.828a92.83,92.83,0,0,0,4.692,15.054,3.9,3.9,0,0,0,.217.51c3.345,7.769,7.912,14.175,13.874,15.012a22.4,22.4,0,0,0,9.308-1.1l2.434-.836c2.869-5.252,4.642-11.867,1.673-16.433-.167-.594-.351-1.263-.544-1.982-2.1-7.845-3.1-22.873-5.143-32.516-.761-3.6-1.673-6.44-2.818-7.878-4.7-5.938-13.473-5.854-13.481-5.854h0a27.364,27.364,0,0,1-5.377,5.729,12.414,12.414,0,0,1-4.349,2.634h0s-.318.7-.744,1.932A31.729,31.729,0,0,0,159.138,144.269Z" transform="translate(-137.328 -99.801)" fill="#ff9d00"/>
      <path id="Trazado_162710" data-name="Trazado 162710" d="M133.4,244.248a20.49,20.49,0,0,0,9.082,2.291h10.253l.92.042h1.263l1.673.067h.585a4.675,4.675,0,0,0,.953-.1l1.748-.351a.527.527,0,0,0,.335-.226.242.242,0,0,0,0-.092.417.417,0,0,0,0-.159,1.925,1.925,0,0,0,0-.335c0-.552,0-1.43-.092-2.392,0-.293-.042-.6-.067-.912a4.663,4.663,0,0,0-.05-.669h0c-.142-1.622-.309-3.161-.41-3.521v-.059c-.067-.234-.452-.945-.744-1.907a6.874,6.874,0,0,1-.309-2.25,2.748,2.748,0,0,1,0-.376l-2.576-.184-2.994-.2h-.284l-3.237-.226a5.854,5.854,0,0,1-.627,1.2,11.005,11.005,0,0,1-3.655,2.8,2.825,2.825,0,0,1-.5.217h0c-1.029.376-2.7.585-4.366,1.02-.41.117-.794.217-1.171.309-2.158.535-3.947.878-4.892,1.748-.92.619-.886,1.957-1.146,3.571v.084A.569.569,0,0,0,133.4,244.248Z" transform="translate(-133.081 -118.132)" fill="#3c3c3b"/>
      <path id="Trazado_162711" data-name="Trazado 162711" d="M142.5,189.307c.042.728,2.944,20.389,3.772,39.031h0l10.153,3,5.177,1.53h0c2.2-12.779.937-26.469-.46-35.5-.234-1.589-.485-3.027-.719-4.3-.661-3.529-1.2-5.72-1.254-5.938a8,8,0,0,0-1.589-3.3,8.229,8.229,0,0,0-5.9-3.136,7.6,7.6,0,0,0-1.447,0h-.159a8.271,8.271,0,0,0-5.545,2.843,8.087,8.087,0,0,0-1.581,2.743c-.05.134-.092.276-.134.418a8.137,8.137,0,0,0-.318,2.609Z" transform="translate(-134.621 -109.615)" fill="#565858"/>
      <path id="Trazado_162712" data-name="Trazado 162712" d="M150.958,195.884h.059l5.269.385,4.9.368,9.459.7c6.2.452,11.524.836,11.708.836,4.248-.318,6.925-1.873,8.539-4.023,2.016-2.676,2.35-6.3,2.007-9.576h0a22.154,22.154,0,0,0-.41-2.459c-.694-3.27-1.882-5.787-2.375-5.988h-.059l-12.361,3.237c-6.615-.2-11.591-.368-15.346-.485-12.98-.435-11.324-.41-12.277-.268a8.547,8.547,0,0,0-7.025,6.5,5.144,5.144,0,0,0-.176.836,8.647,8.647,0,0,0,8.087,9.935Z" transform="translate(-134.667 -108.873)" fill="#565858"/>
      <path id="Trazado_162713" data-name="Trazado 162713" d="M156.58,238.41l.92.042h1.263l1.673.067h.585a4.679,4.679,0,0,0,.953-.1l1.748-.351a.527.527,0,0,0,.335-.226.243.243,0,0,0,0-.092.418.418,0,0,0,0-.159,1.926,1.926,0,0,0,0-.335c0-.552,0-1.43-.092-2.392,0-.293-.042-.6-.067-.912a4.658,4.658,0,0,0-.05-.669h0a87.306,87.306,0,0,0,1.171-13.858,135.689,135.689,0,0,0-1.631-21.652l7.426.56,2.032.151c-.167,3.538-.268,6.063-.376,8.171-.142,3.529-.226,5.938-.41,10.036,0,.736-.067,1.539-.1,2.409,0,.661-.05,1.338-.092,2.091h0c0,.694-.05,1.43-.092,2.216h0c0,.836-.084,1.831-.117,2.835a8.656,8.656,0,0,0,.836,5.344,11.54,11.54,0,0,0,.669,1.07.309.309,0,0,1,.05.075,8.771,8.771,0,0,0,1.1,1.2l.167.151a7.783,7.783,0,0,0,.594.535,8.363,8.363,0,0,0,5.921,1.539l.309-.05,2.676-.46c1.673-.284,3.178-.527,4.625-.753l1.388-.217c1.773-.268,3.412-.485,4.9-.677h0c.326-.059.644-.092.962-.134h.134c1.121-.142,2.174-.259,3.153-.368,1.43-.159,2.7-.284,3.864-.393l1.129-.1c1.263-.117,2.384-.209,3.4-.293l.978-.084,1.556-.151c1-.1,1.94-.234,2.869-.4l.067-.769.309-3.554a12.326,12.326,0,0,1,3.805,1.673,5.268,5.268,0,0,1,1.112.979c.694.736,1.48,1.723,2.409,2.651.293.284.577.585.836.836l.719.761c1.2,1.271,2.2,2.317,3.228,2.626.836.435,1.806,0,3.027-.527.234-.092.477-.2.719-.284a.552.552,0,0,0,.426-.544,15,15,0,0,0-.284-2.7,22.381,22.381,0,0,0-1.221-4.248.777.777,0,0,0-.084-.167,14.476,14.476,0,0,0-.92-1.915l-1.355-2.333-1.6-2.751c-3.513,1.2-7.075,2.342-10.6,3.345-.953.284-1.882.56-2.818.836l-.142.042-3.237.912c-.418.117-.836.234-1.254.335-.97.276-1.882.519-2.768.736-1.84.46-3.529.836-5.127,1.171-.594.117-1.171.217-1.748.309a53.209,53.209,0,0,1-8.99.769H186.3a24.1,24.1,0,0,1-9.3-1.589,10.27,10.27,0,0,1-2.693-1.673c.518-1.263,1.029-2.509,1.581-3.772.251-.544.493-1.1.736-1.673.41-.887.836-1.773,1.271-2.651,3.713-7.435,8.271-14.167,13.69-18.725.385-.335.786-.644,1.179-.953.167-1.33.326-2.651.452-3.989a12.277,12.277,0,0,0,2.124-7.376,21.474,21.474,0,0,0-.125-2.216l-.4-2.459-.376.552a16.726,16.726,0,0,1-1.146,4.884,10.145,10.145,0,0,1-3.4,4.5,11.09,11.09,0,0,1-2.969,1.572,73.667,73.667,0,0,1-12.653.477h0c-.385,0-.769-.042-1.162-.067-.836-.059-1.673-.142-2.509-.243a53.2,53.2,0,0,1-6.69-1.146l-1.229-.452-4.867-1.79-.268.351h0l1.572,9.141a106.711,106.711,0,0,1,1.163,18.783c-.067,1.79-.184,3.554-.376,5.252a53.075,53.075,0,0,1-1.154,6.782c-.084.351-.167.7-.259,1.045s-.209.786-.326,1.171c-.2.711-.418,1.4-.669,2.091S156.931,237.649,156.58,238.41Z" transform="translate(-136.928 -110.027)" fill="#1d1d1b" opacity="0.1"/>
      <path id="Trazado_162714" data-name="Trazado 162714" d="M149.43,165.2a1.221,1.221,0,0,1,.535,1.673l-2.016,3.989a1.229,1.229,0,0,1-1.673.535h0a1.229,1.229,0,0,1-.535-1.673l2.016-3.972a1.221,1.221,0,0,1,1.673-.535Z" transform="translate(-135.13 -107.064)" fill="#ffcf9a"/>
      <path id="Trazado_162715" data-name="Trazado 162715" d="M152.357,165.693a1.229,1.229,0,0,1,.56,1.673l-2.342,4.65a1.238,1.238,0,0,1-1.673.56h0a1.221,1.221,0,0,1-.56-1.673l2.342-4.65a1.221,1.221,0,0,1,1.673-.56Z" transform="translate(-135.556 -107.142)" fill="#ffcf9a"/>
      <path id="Trazado_162716" data-name="Trazado 162716" d="M154.628,167.773a1.229,1.229,0,0,1,.552,1.673l-1.982,3.989a1.221,1.221,0,0,1-1.673.56h0a1.229,1.229,0,0,1-.552-1.673l1.982-3.989a1.221,1.221,0,0,1,1.673-.56Z" transform="translate(-135.987 -107.482)" fill="#ffcf9a"/>
      <path id="Trazado_162717" data-name="Trazado 162717" d="M156.561,170.219a1.037,1.037,0,0,1,.477,1.388l-1.422,2.827a1.037,1.037,0,0,1-1.388.468h0a1.029,1.029,0,0,1-.468-1.38l1.388-2.827a1.037,1.037,0,0,1,1.388-.477Z" transform="translate(-136.448 -107.888)" fill="#ffcf9a"/>
      <path id="Trazado_162718" data-name="Trazado 162718" d="M178.34,169.645l6.415,3.036,11.207-2.986c-2.1-7.845-3.1-22.873-5.143-32.516H178.959C189.68,151.5,188.192,159.016,178.34,169.645Z" transform="translate(-140.489 -102.497)" fill="#1d1d1b" opacity="0.15"/>
      <g id="Grupo_75395" data-name="Grupo 75395" transform="translate(26.391 23.287)">
        <path id="Trazado_162719" data-name="Trazado 162719" d="M175.021,168.742h0a1.489,1.489,0,0,0-2.158-.335c-2.827,1.957-3.479,3.27-6.456,4.491a1.581,1.581,0,0,0-.836,1.99h0a1.489,1.489,0,0,0,1.99.836c3.128-1.271,3.931-2.643,6.916-4.667A1.79,1.79,0,0,0,175.021,168.742Z" transform="translate(-164.774 -130.844)" fill="#f2bf89"/>
        <rect id="Rectángulo_32843" data-name="Rectángulo 32843" width="7.602" height="7.334" transform="matrix(0.764, -0.645, 0.645, 0.764, 9.158, 38.268)" fill="#ffcf9a"/>
        <path id="Trazado_162720" data-name="Trazado 162720" d="M195.858,151.291l-7.41-6.933-3.83-3.6L177.2,133.8a5.946,5.946,0,0,1-.142-8.363l.084-.084a5.938,5.938,0,0,1,8.363-.142l.836.778L204.564,143.1Z" transform="translate(-166.4 -123.554)" fill="#f7b242"/>
        <path id="Trazado_162721" data-name="Trazado 162721" d="M182.53,160.554s.619,3.688,1.037,6.281c.109.652.209,1.263.284,1.765a2.225,2.225,0,0,0,.067.368c.117.694.167,1,.151.953h0c.6-.677,21.987-13.95,21.987-13.95a6.13,6.13,0,0,0,1.171-1.346,5.645,5.645,0,0,0,.761-4.541,7.953,7.953,0,0,0-3.1-4.182c-2.392-.836-6.632,1.029-11.817,5.344C186.017,157.075,182.53,160.554,182.53,160.554Z" transform="translate(-167.566 -127.181)" fill="#ffcf9a"/>
        <path id="Trazado_162722" data-name="Trazado 162722" d="M173.161,181.713h0a1.43,1.43,0,0,0,2-.117l1.221-1.355h0l.05-.067.192-.217.9-1a1.43,1.43,0,0,0,.335-.719,1.221,1.221,0,0,0,0-.577,1.254,1.254,0,0,0-.418-.694h0a1.413,1.413,0,0,0-1.982.117h0l-.042.05-1.221,1.338h0l-.1.125a1.3,1.3,0,0,1-.234.243l-.309.368-.192.192-.268.309a1.4,1.4,0,0,0,.067,2Z" transform="translate(-165.958 -132.241)" fill="#f2bf89"/>
        <path id="Trazado_162723" data-name="Trazado 162723" d="M176.969,182.608h0a1.254,1.254,0,0,0,1.756-.243l1.48-1.982.36-.485a1.263,1.263,0,0,0-.259-1.756h0a1.263,1.263,0,0,0-1.756.259v.05l-1.179,1.572-.251.36-.05.067h0l-.284.385a1.263,1.263,0,0,0,.184,1.773Z" transform="translate(-166.58 -132.45)" fill="#f2bf89"/>
        <path id="Trazado_162724" data-name="Trazado 162724" d="M165,179.908h0a1.405,1.405,0,0,0,1.99.117l1.6-1.6.912-.912.761-.769.243-.243a1.271,1.271,0,0,0,.309-.418h0a1.413,1.413,0,0,0-.067-1.33l-.151-.217h0a1.4,1.4,0,0,0-1.99-.1l-1.154,1.129-.836.836-.36.351-.167.167-1,1a1.413,1.413,0,0,0-.092,1.982Z" transform="translate(-164.637 -131.824)" fill="#f2bf89"/>
        <path id="Trazado_162725" data-name="Trazado 162725" d="M169.611,180.451h0a1.405,1.405,0,0,0,1.982-.2l1.1-1.146.192-.192.6-.644,1.121-1.162a.711.711,0,0,0,.167-.284v-.05a1.4,1.4,0,0,0-.4-1.673h0a1.4,1.4,0,0,0-1.982.217l-.836.836h0l-.4.4h0l-.184.184h0l-1.547,1.614a.175.175,0,0,0-.05.084,1.422,1.422,0,0,0,.243,2.016Z" transform="translate(-165.361 -131.941)" fill="#f2bf89"/>
        <path id="Trazado_162726" data-name="Trazado 162726" d="M168.518,174.4a1.388,1.388,0,0,0,.234.953,1.263,1.263,0,0,0,.318.351h0a1.43,1.43,0,0,0,1.756-.042h0a1.913,1.913,0,0,0,.184-.184,1.24,1.24,0,0,0-.142.234,1.38,1.38,0,0,0,.435,1.714h0a1.388,1.388,0,0,0,1.748-.042,1.3,1.3,0,0,0,.234-.243l.1-.125.142-.209a1.858,1.858,0,0,0-.125.192h0a.226.226,0,0,1-.042.092,1.447,1.447,0,0,0,.468,1.673h0a1.4,1.4,0,0,0,1.965-.3l.284-.36-.117.184a.154.154,0,0,1-.059.142,1.254,1.254,0,0,0,.427,1.43h0a1.246,1.246,0,0,0,1.748-.243l.719-.97h0l2.032-2.718a4.181,4.181,0,0,0,.836-2.509,4.577,4.577,0,0,0-.117-.953,2.367,2.367,0,0,0-.117-.343,3.722,3.722,0,0,0-.953-1.564,2.893,2.893,0,0,0-.477-.418l-2.225-1.673a4.181,4.181,0,0,0-1.94-.794,4.115,4.115,0,0,0-3.454,1.171,3.148,3.148,0,0,0-.41.46l-1.238,1.673h0l-2.049,2.726a2.182,2.182,0,0,0-.142.234,1.755,1.755,0,0,0-.025.46Z" transform="translate(-165.271 -130.77)" fill="#ffcf9a"/>
      </g>
      <path id="Trazado_162727" data-name="Trazado 162727" d="M164.986,176.1h0a1.405,1.405,0,0,0,1.99.117l1.6-1.6a1.422,1.422,0,0,0,.284,1.882h0a1.405,1.405,0,0,0,1.982-.2l1.02-1.062-.192.226a1.4,1.4,0,0,0,.117,1.99h0a1.43,1.43,0,0,0,2-.117L175,175.988l-.284.385a1.263,1.263,0,0,0,.243,1.756h0a1.254,1.254,0,0,0,1.756-.243l1.48-1.982h0l2.032-2.718a4.181,4.181,0,0,0,.836-2.509c.6-.677,21.987-13.95,21.987-13.95a6.131,6.131,0,0,0,1.171-1.346,5.645,5.645,0,0,0,.761-4.541,50.613,50.613,0,0,1-21.125,15.639,32.833,32.833,0,0,1-3.345,1.137c-.226.075-.443.142-.669.2.694,4.842-1.773,5.679-1.773,5.679-1.832.9-5.779.577-8.664.167-1.957-.284-3.421-.6-3.421-.6l-1,1a1.413,1.413,0,0,0-.008,2.041Z" transform="translate(-138.233 -104.733)" fill="#1d1d1b" opacity="0.05"/>
      <path id="Trazado_162728" data-name="Trazado 162728" d="M146.76,176.09l1.514,1.162c.142.1.284.217.427.335.836.669,1.723,1.346,2.559,2.024l.142.109,1.254,1,.962.769q1.188.953,2.358,1.857h0l1.372,1.045.7.51c.836.619,1.673,1.213,2.509,1.756a2.224,2.224,0,0,0,.318.2c.719.493,1.455.945,2.174,1.355.9.51,1.815.987,2.735,1.4a23.164,23.164,0,0,0,2.651,1.029l-1.146.669.836,3.412.4,2.818,1.1,1.556h0c1.355,6.782,3.939,19.837,5.787,28.844a11.759,11.759,0,0,0,6.331,8.229l10.738-1.94c-6.966-5.1-13.573-11.708-17.563-20.205a50.529,50.529,0,0,1-2.258-22.455l.075-.669c.125-1,.268-1.99.435-3C165.585,187.121,155.834,182.053,146.76,176.09Z" transform="translate(-135.32 -108.867)" fill="#1d1d1b" opacity="0.1"/>
    </g>
    <g id="Grupo_75400" data-name="Grupo 75400" transform="translate(24.261 159.484)">
      <path id="Trazado_162729" data-name="Trazado 162729" d="M243.9,247.843a3.835,3.835,0,0,1-3.527,4.073H32.427a3.823,3.823,0,0,1-3.527-4.073h0a3.835,3.835,0,0,1,3.527-4.073H240.364a3.829,3.829,0,0,1,3.527,4.073Z" transform="translate(-28.9 -199.387)" fill="#131313" opacity="0.1"/>
      <g id="Grupo_75399" data-name="Grupo 75399" transform="translate(1.695 20.72)">
        <path id="Trazado_162730" data-name="Trazado 162730" d="M265.427,242.794l-3.454.427c-.97.117-1.865.2-2.676.251a29.836,29.836,0,0,1-4.24,0c-1.422-.109-2.191-.36-2.292-.585a8.991,8.991,0,0,1-.644-2.283c-.527-3.253-.067-7.987,2.241-11.332.109-.151.209-.309.318-.468,2.149-3.471,3.069-8.639,4.048-10.036,1.455-2.074,5.11-1.673,5.11-1.673l.059.753,1.154,16.4-1.673,3.22,1.806.627v.895Z" transform="translate(-65.02 -215.735)" fill="#2e2e2d"/>
        <path id="Trazado_162731" data-name="Trazado 162731" d="M159.834,240.68c-6.122,4.917-16.86,4.3-22.137.092-1.162-7.268-1.464-13.975,0-19.511,8.279-.393,20,1.89,26.21,2.86Z" transform="translate(-47.583 -216.415)" fill="#00bcd4"/>
        <path id="Trazado_162732" data-name="Trazado 162732" d="M267.363,234.994l-1.965,3.019,1.74.836-.217,4.692-3.479.092c-1.447,0-2.726,0-3.822-.059a21.921,21.921,0,0,1-3.964-.544c-.836-.209-1.254-.435-1.321-.61a8.747,8.747,0,0,1-.376-1.857c-.335-3.3.535-8.288,3.278-11.549s4.182-8.681,5.352-10.036a3.571,3.571,0,0,1,1.673-1.054,8.237,8.237,0,0,1,3.6-.151Z" transform="translate(-65.341 -215.83)" fill="#3c3c3b"/>
        <g id="Grupo_75398" data-name="Grupo 75398" transform="translate(0 3.081)">
          <path id="Trazado_162733" data-name="Trazado 162733" d="M68.563,227.24v13.874l-5.8.176h-.008l-1.179.042-4.876.159-.017-.945v-.184L56.6,236.64l-.008-.259-.05-2.158-.117-5.311,3.513-.477,3.513-.493,2.116-.293Z" transform="translate(-35.1 -220.482)" fill="#f0b87d"/>
          <g id="Grupo_75397" data-name="Grupo 75397">
            <path id="Trazado_162734" data-name="Trazado 162734" d="M57.282,219.478a2.935,2.935,0,0,1,2.049,2.116l.535,2.45a7.058,7.058,0,0,1-.217,2.8h0a9.2,9.2,0,0,1-6.64,6.69.418.418,0,0,1,0,.134h0c.393,1.806,2.885,4.182,1.188,4.792-1.865.694-4.131,3.538-6.6,4.424-11.332,2.643-12.545-4.483-13.665-8.656a9.927,9.927,0,0,1,2.969-9.751,12.929,12.929,0,0,1,3.3-2.107,18.587,18.587,0,0,1,2.166-.836,14.073,14.073,0,0,1,1.489.192l.519-.418,2.317-1.857a1.246,1.246,0,0,1,1.84.443l.585,1C49.873,220.707,54,219.3,54,219.3a6.172,6.172,0,0,1,3.278.176Z" transform="translate(-31.371 -219.159)" fill="#f0b87d"/>
            <path id="Trazado_162735" data-name="Trazado 162735" d="M57.4,240.97c-.217,1.447-1.522,2.333-3.27,2.869-.293.1-.611.184-.928.259-3.153.728-7.234.611-9.2.694H42.788c-5.854.117-8.288-1-9.818-4.106a23.325,23.325,0,0,1-1.422-4.115c-1.288-4.851-.452-8.957,1.388-10.663a3,3,0,0,1,3.6-.485h0c0,.577.075,1.112.117,1.614.886,9.2,4.767,6.406,13.941,4.407a19.953,19.953,0,0,1,.728,2.317.192.192,0,0,1-.059.084c-.652.836-2.676,3.036-2.81,3.17a12.545,12.545,0,0,1,3.989-1.037h.176a4.43,4.43,0,0,1,.577,0h0a4.232,4.232,0,0,1,2.609.912h0a3.863,3.863,0,0,1,.636.686,6.23,6.23,0,0,1,.953,3.4Z" transform="translate(-30.927 -220.12)" fill="#3c3c3b"/>
            <path id="Trazado_162736" data-name="Trazado 162736" d="M52.92,239.886c1.756-.477,3.345-2.509,3.078-3.663s-1.673-.636-3.471-.184c-1.162.309-2.9.46-2.927,1.823C49.575,239.05,50.336,240.58,52.92,239.886Z" transform="translate(-33.983 -221.838)" fill="#f0b87d"/>
          </g>
          <path id="Trazado_162737" data-name="Trazado 162737" d="M61.062,219.54a2.935,2.935,0,0,1,2.049,2.116l.535,2.45a7.058,7.058,0,0,1-.217,2.8h0a7.987,7.987,0,0,1-3.019,2.108,25.3,25.3,0,0,1-3.68,1.129,6.055,6.055,0,0,0,2.659-2.074,10.772,10.772,0,0,0,1.505-3.044,10.094,10.094,0,0,0,.577-3.345A5.938,5.938,0,0,0,61.062,219.54Z" transform="translate(-35.151 -219.221)" fill="#050504" opacity="0.1"/>
        </g>
        <path id="Trazado_162738" data-name="Trazado 162738" d="M128.22,236.4c-.41,1.38-.836,2.777-1.38,4.182,0,.1-.075.192-.109.3-.276.744-.56,1.5-.836,2.241h-.677c-2.618,0-10.429,0-19.528.067h-1.823l-8.781.067H91.908c-11.457.092-17.353,1.179-23.367-2.057h0a16.986,16.986,0,0,1-1.589-.953l-.443-.084L64,239.331h0q.276-1.112.527-2.258l.226-1.129h0c.644-3.245,1.121-6.414,1.673-8.923.109-.46.217-.912.343-1.321h0l.125-.41c.385-.836,2.509-1.957,2.509-1.957a24.253,24.253,0,0,1,8-4.675,34.106,34.106,0,0,1,9.174-2.007c.6-.059,1.221-.092,1.857-.117,1.271-.05,2.618-.042,4.031,0,6.582-1.48,27.841-2.174,37.417,3.253.192.1.376.217.56.326v.192C130.963,225,129.993,230.608,128.22,236.4Z" transform="translate(-36.341 -215.476)" fill="#ff9d00"/>
        <path id="Trazado_162739" data-name="Trazado 162739" d="M108.674,235.824l-1.263,8.2-.3,1.965v.167H106.1l-9.559-.084-15.89-.151c-4.909-.836-6.766-3.262-7.452-5.26a6.749,6.749,0,0,1-.309-3.086c1.1-5.152,7.276-5.428,10.688-4.817,6.113,1.079,22.338,2.785,24.83,3.044h.268Z" transform="translate(-35.426 -218.266)" fill="#f7b242"/>
        <path id="Trazado_162740" data-name="Trazado 162740" d="M196.814,225.024,195.7,239.308l-.41,5.26h-1.154c-8.447.176-15.572.569-23.551,0a107.884,107.884,0,0,1-11.6-1.438c-1.2-.209-2.425-.443-3.68-.711l-.059-.385-.351-2.668L153,225.024c3.989-.418,7.686-.686,11.131-.836C178.315,223.493,188.234,224.647,196.814,225.024Z" transform="translate(-48.685 -216.866)" fill="#00bcd4"/>
        <path id="Trazado_162741" data-name="Trazado 162741" d="M248.744,230.268l-1.28,11.349-.268,2.659-.067.544h-.176c-21.828.159-30.634.326-44.734,0h0l.719-5.252L204.9,225.25a335.276,335.276,0,0,0,41.673,4.926Z" transform="translate(-56.884 -217.076)" fill="#00bcd4"/>
        <path id="Trazado_162742" data-name="Trazado 162742" d="M165.069,241.182c-.109-.836-1.112-.836-1.673-.661-1,.309-2.751.569-4.667.912-.41.167-.836.226-1.229.368a9.254,9.254,0,0,0-1.154.485c-.293.36-.485.661-.836,1.137a23.693,23.693,0,0,0,7.527-.836C163.631,242.353,165.178,241.944,165.069,241.182Z" transform="translate(-45.27 -219.56)" fill="#ffc990"/>
        <path id="Trazado_162743" data-name="Trazado 162743" d="M171.037,246.783h0a.669.669,0,0,1-.569.652h-18.2l.192-2.777.151-2.166c0,.059.142.075.4.059a15.6,15.6,0,0,0,1.765-.284c1.806-.351,4.257-.92,5.319-1.037h.251a2.258,2.258,0,0,1,.778.151l1.731.677.736.284,2.358.92a2.883,2.883,0,0,1,.452.234l2.76,1.773,1.572,1.012A.652.652,0,0,1,171.037,246.783Z" transform="translate(-44.599 -219.691)" fill="#ffc990"/>
        <path id="Trazado_162744" data-name="Trazado 162744" d="M143.655,237.811c-.259,1.438-.519,2.735-.753,3.763-.142.611-.276,1.129-.4,1.53-.184.627-.351.978-.477.978H137.14a.577.577,0,0,1,.042-.109c.259-.728.5-1.464.728-2.216.084-.259.167-.527.234-.786.376-1.263.7-2.559,1-3.88,1.162-5.018,1.882-10.454,2.609-15.89,0-.167.042-.335.059-.5l3.7.276c.084,0,.134.176.159.477C145.854,223.46,144.742,231.823,143.655,237.811Z" transform="translate(-48.182 -216.331)" fill="#f7b242"/>
        <path id="Trazado_162745" data-name="Trazado 162745" d="M146.289,241.5v.243l-.226,2.091-.309,2.777v.05H117.837a29.738,29.738,0,0,1-5.495.125h0l-.577-.067a.36.36,0,0,1-.2-.084c-.36-.243-.535-1-.535-2-.05-3,1.355-8.187,3.588-8.2h.318l18.023,2.894,1.924.309,1.045.167,3.462.552Z" transform="translate(-39.544 -218.906)" fill="#f7b242"/>
      </g>
      <path id="Trazado_162746" data-name="Trazado 162746" d="M233.844,242.208l-.221,4.683-3.528.092c-1.467,0-2.765,0-3.876-.059a30.692,30.692,0,0,1-4.3,0c-22.137.159-31.077.326-45.368,0h0c-8.566.176-15.784.569-23.884,0H106.144a30.586,30.586,0,0,1-5.572.125h0l-9.695-.084H87.654c-11.62.092-17.6,1.179-23.7-2.057h0a17.279,17.279,0,0,1-1.612-.953l-.45-.075-2.544-.836h0l-1.2.042c-.221,1.447-1.544,2.333-3.316,2.869-.3.1-.619.184-.941.259-3.2.728-7.337.61-9.33.694h-1.23c-5.937.117-8.405-1-9.957-4.106a31.963,31.963,0,0,0,3.164.836h0a23.5,23.5,0,0,0,12.315-.41,18.381,18.381,0,0,0,4.36-1.129,15.989,15.989,0,0,0,1.7-.836h0a7.12,7.12,0,0,0,5.471-3.1c0,1.188,6.141,3.446,6.785,3.345,9.109,2.233,20.008,3.145,32.069,3.345h2.689c6.471.05,13.257-.084,20.254-.326h1.382l3.681-.134,7.184-.3h.322c.789.117,1.586.209,2.383.293,1.7.184,3.494.309,5.309.376h0c2.841.109,5.793.084,8.914-.059a232.812,232.812,0,0,0,25.937-3.061l.577-.092.28.059a127.259,127.259,0,0,0,40.8,2.442,13.018,13.018,0,0,0,1.5-.142l2.027-.2c3.155-.343,6.4-.769,9.771-1.28Z" transform="translate(-29.633 -198.469)" fill="#1d1d1b" opacity="0.1"/>
      <path id="Trazado_162747" data-name="Trazado 162747" d="M109.894,200.694,94.071,190.7,78.24,200.694v.1h7.05v7.635h17.563v-7.635h7.042Z" transform="translate(-34.322 -190.7)" fill="#7e5ee3"/>
    </g>
  </g>
</svg>
