<svg xmlns="http://www.w3.org/2000/svg" xmlns:xlink="http://www.w3.org/1999/xlink" width="179" height="179" viewBox="0 0 179 179">
  <defs>
    <filter id="Elipse_4062" x="0" y="0" width="179" height="179" filterUnits="userSpaceOnUse">
      <feOffset dy="3" input="SourceAlpha"/>
      <feGaussianBlur stdDeviation="3" result="blur"/>
      <feFlood flood-opacity="0.161"/>
      <feComposite operator="in" in2="blur"/>
      <feComposite in="SourceGraphic"/>
    </filter>
  </defs>
  <g id="Grupo_75494" data-name="Grupo 75494" transform="translate(-281 -469)">
    <g id="Grupo_73307" data-name="Grupo 73307" transform="translate(5 -387)">
      <g transform="matrix(1, 0, 0, 1, 276, 856)" filter="url(#Elipse_4062)">
        <circle id="Elipse_4062-2" data-name="Elipse 4062" cx="80.5" cy="80.5" r="80.5" transform="translate(9 6)" fill="#fff"/>
      </g>
    </g>
    <g id="Capa_2" data-name="Capa 2" transform="translate(309 493)">
      <circle id="Elipse_4063" data-name="Elipse 4063" cx="62" cy="62" r="62" fill="#7e5ee3"/>
      <g id="Grupo_73840" data-name="Grupo 73840">
        <rect id="Rectángulo_32330" data-name="Rectángulo 32330" width="3.08" height="3.08" transform="translate(57.38 43.53)" fill="#fff"/>
        <rect id="Rectángulo_32331" data-name="Rectángulo 32331" width="3.08" height="3.08" transform="translate(63.54 43.53)" fill="#fff"/>
        <rect id="Rectángulo_32332" data-name="Rectángulo 32332" width="3.08" height="3.08" transform="translate(60.46 52.77)" fill="#fff"/>
        <path id="Trazado_146738" data-name="Trazado 146738" d="M107.51,37.63l-4.62-3.08a1.52,1.52,0,0,0-1.71,0l-4.31,2.87-9.69,1.21,12.6-9.1a1.54,1.54,0,0,0,.44-2l4-2.31a1.54,1.54,0,0,0,.57-2.1h0l-1.54-2.67a1.55,1.55,0,0,0-1.23-.77l-5.54-.35a1.54,1.54,0,0,0-1.48.85l-2.3,4.65L83.25,32,74.7,35.2l-.23.11-3.64,2.11H66.62V34.25a7.73,7.73,0,0,0,2.93-4.58h.92a3.85,3.85,0,0,0,0-7.7h-.92a7.7,7.7,0,0,0-15.1,0h-.92a3.85,3.85,0,0,0,0,7.7h.92a7.73,7.73,0,0,0,2.93,4.58v3.12H53.17l-3.64-2.11-.23-.11L40.75,32l-9.44-7.14L29,20.16a1.53,1.53,0,0,0-1.47-.85L22,19.66a1.55,1.55,0,0,0-1.23.77l-1.54,2.66a1.55,1.55,0,0,0,.56,2.11h0l4,2.31a1.55,1.55,0,0,0,.44,2l12.55,9,.13.1-9.77-1.22-4.31-2.88a1.56,1.56,0,0,0-1.71,0L16.5,37.59a1.55,1.55,0,0,0-.69,1.29V42a1.54,1.54,0,0,0,1.54,1.54H22a1.55,1.55,0,0,0,1.39,1.54l15.38,1.54L51.22,48V64.62L39.39,82.08l-8.6,12L26,94.37a1.58,1.58,0,0,0-1.24.77L24,96.47a1.55,1.55,0,0,0,.56,2.1h0l8,4.62a1.54,1.54,0,0,0,2-.37L47.13,87.08,49.86,84l-.17,2.52-1.47,14.67-4,2.68a1.55,1.55,0,0,0-.69,1.28v1.54a1.54,1.54,0,0,0,1.54,1.54H54.3a1.53,1.53,0,0,0,1.52-1.3l3.07-20,2.83-14.17h.56l2.82,14.1,3.08,20a1.53,1.53,0,0,0,1.52,1.3h9.24a1.54,1.54,0,0,0,1.54-1.54v-1.54a1.55,1.55,0,0,0-.69-1.28l-4-2.68L74.32,86.53,74.13,84l2.68,3,12.68,15.8a1.54,1.54,0,0,0,2,.37l8-4.62a1.54,1.54,0,0,0,.57-2.1h0l-.77-1.32A1.53,1.53,0,0,0,98,94.37l-4.81-.32L84.64,82.12,72.78,64.61V48l7.91-.88,20-2A1.55,1.55,0,0,0,102,43.53h4.62A1.54,1.54,0,0,0,108.2,42V38.91a1.52,1.52,0,0,0-.69-1.28ZM69.7,25.05h.77a.77.77,0,1,1,0,1.54H69.7ZM54.3,26.59h-.77a.77.77,0,1,1,0-1.54h.77Zm7.7-7.7A4.63,4.63,0,0,1,66.34,22H57.66A4.63,4.63,0,0,1,62,18.89Zm-4.62,6.16h3.08v3.08H58.92v3.08h6.16V28.13H63.54V25.05h3.08v3.08a4.62,4.62,0,0,1-9.24,0V25.05Zm6.16,10.62v1.7H60.46v-1.7a7.61,7.61,0,0,0,3.08,0ZM54.3,40.45H69.7V58.92H54.3ZM27.15,27.84l.07-.13a1.53,1.53,0,0,0-.56-2.1l-4-2.31.36-.62,3.7-.23,2,4.05a1.47,1.47,0,0,0,.45.54l9.9,7.5a1.5,1.5,0,0,0,.39.22l7.46,2.79-5.14.86ZM43.64,44,25,42.14V42a1.54,1.54,0,0,0-1.54-1.54H18.88v-.72L22,37.67l3.77,2.51a1.44,1.44,0,0,0,.66.25L38.71,42a1.36,1.36,0,0,0,.45,0l9.11-1.51h2.95v4.44Zm1.14,41.05L32.94,99.86,28.49,97.3l3.23-.22a1.52,1.52,0,0,0,1.15-.64l9.05-12.6,8.9-13.14-.59,8.19Zm11.08,1.32L53,105.12H47.83l2.7-1.8a1.52,1.52,0,0,0,.69-1.12l1.54-15.45,1.31-18.39v-.24l4.68,3.74ZM63,69.7H61l-6.7-5.36V62H69.7v2.34ZM82.12,83.88l9,12.56a1.54,1.54,0,0,0,1.15.64l3.24.22-4.45,2.56L79.18,85l-5.4-6.16-.54-7.43v-.75Zm-9.33,18.31a1.51,1.51,0,0,0,.67,1.13l2.71,1.8H71L68.13,86.33l-2.9-14.47,4.68-3.74v.43L71.25,86.8ZM84.55,34.76a1.45,1.45,0,0,0,.38-.22L94.84,27a1.57,1.57,0,0,0,.45-.54l2-4.05,3.69.23.36.62-4,2.31a1.54,1.54,0,0,0-.57,2.1l.08.13L85.41,36.07,82.23,38.4l-5.14-.85Zm20.57,5.69H100.5A1.54,1.54,0,0,0,99,42v.15l-14,1.4L72.78,44.89V40.45h3L84.84,42a1.36,1.36,0,0,0,.45,0l12.32-1.54a1.55,1.55,0,0,0,.66-.24L102,37.67l3.08,2.06Z" fill="#fff"/>
        <path id="Trazado_146739" data-name="Trazado 146739" d="M37.36,68.16V63.54h6.16a1.54,1.54,0,0,0,1.09-.45l4.62-4.62L47.05,56.3l-4.17,4.16H37.36V55.85a1.53,1.53,0,0,0-1.54-1.54H17.34a1.53,1.53,0,0,0-1.54,1.54V68.16a1.54,1.54,0,0,0,1.54,1.54H35.82A1.54,1.54,0,0,0,37.36,68.16Zm-3.08-1.54H18.88V57.38h15.4Z" fill="#fff"/>
        <path id="Trazado_146740" data-name="Trazado 146740" d="M106.66,54.31H88.18a1.53,1.53,0,0,0-1.54,1.54v4.61H83.56a1.55,1.55,0,0,0-1.09.46l-6.16,6.16,2.18,2.17,5.71-5.71h2.44v4.62a1.54,1.54,0,0,0,1.54,1.54h18.48a1.54,1.54,0,0,0,1.54-1.54V55.85a1.53,1.53,0,0,0-1.54-1.54Zm-1.54,12.31H89.72V57.38h15.4Z" fill="#fff"/>
      </g>
    </g>
  </g>
</svg>
