<svg id="Grupo_75324" data-name="Grupo 75324" xmlns="http://www.w3.org/2000/svg" width="206.862" height="185.044" viewBox="0 0 206.862 185.044">
  <path id="Trazado_162245" data-name="Trazado 162245" d="M239.659,276.508a4.474,4.474,0,0,1-4.474,4.474H40.458A4.483,4.483,0,0,1,36,276.508h0A4.474,4.474,0,0,1,40.458,272H235.184a4.466,4.466,0,0,1,4.474,4.474Z" transform="translate(-36 -95.937)" fill="#131313" opacity="0.1"/>
  <g id="Grupo_75312" data-name="Grupo 75312" transform="translate(120.839 54.856)">
    <g id="Grupo_75311" data-name="Grupo 75311" transform="translate(4.524)">
      <rect id="Rectángulo_32801" data-name="Rectángulo 32801" width="47.001" height="30.425" fill="#706f6f"/>
      <rect id="Rectángulo_32802" data-name="Rectángulo 32802" width="44.015" height="27.548" transform="translate(1.489 1.438)" fill="#c6c6c6"/>
      <rect id="Rectángulo_32803" data-name="Rectángulo 32803" width="18.399" height="13.005" rx="2.5" transform="translate(13.682 4.064)" fill="#12263f"/>
      <path id="Trazado_162246" data-name="Trazado 162246" d="M219.663,135.183v7a1.773,1.773,0,0,1-1.773,1.756H205.5a1.756,1.756,0,0,1-1.756-1.756v-7a1.756,1.756,0,0,1,1.756-1.773H217.89A1.773,1.773,0,0,1,219.663,135.183Z" transform="translate(-188.82 -128.108)" fill="#cbbba0"/>
      <path id="Trazado_162247" data-name="Trazado 162247" d="M219.663,137.977v.795l-.544-1.054-1.673,2.383-1.982-5.311-1.949,5.227-.661-1.6-1.656,4.441-1.547-4.516-.8,1.748-1.388-4.642-1.94,7.226-1.355-4.449-.427.694V138.2l.535-.878,1.221,4.006,1.957-7.234,1.472,4.943.778-1.689,1.514,4.416,1.631-4.366.652,1.606,1.957-5.285,2.091,5.595,1.606-2.3Z" transform="translate(-188.82 -128.159)" fill="#fff"/>
      <rect id="Rectángulo_32804" data-name="Rectángulo 32804" width="3.454" height="2.475" rx="0.62" transform="translate(9.275 18.959)" fill="#12263f"/>
      <rect id="Rectángulo_32805" data-name="Rectángulo 32805" width="3.454" height="2.475" rx="0.62" transform="translate(13.448 18.959)" fill="#878787"/>
      <rect id="Rectángulo_32806" data-name="Rectángulo 32806" width="3.454" height="2.475" rx="0.62" transform="translate(17.621 18.959)" fill="#878787"/>
      <rect id="Rectángulo_32807" data-name="Rectángulo 32807" width="3.454" height="2.475" rx="0.62" transform="translate(21.794 18.959)" fill="#12263f"/>
      <rect id="Rectángulo_32808" data-name="Rectángulo 32808" width="3.454" height="2.475" rx="0.62" transform="translate(31.822 18.959)" fill="#fff"/>
      <rect id="Rectángulo_32809" data-name="Rectángulo 32809" width="3.454" height="2.475" rx="0.62" transform="translate(35.995 18.959)" fill="#ff9d00"/>
      <rect id="Rectángulo_32810" data-name="Rectángulo 32810" width="3.454" height="2.475" rx="0.62" transform="translate(9.275 23.141)" fill="#12263f"/>
      <rect id="Rectángulo_32811" data-name="Rectángulo 32811" width="3.454" height="2.475" rx="0.62" transform="translate(13.448 23.141)" fill="#12263f"/>
      <rect id="Rectángulo_32812" data-name="Rectángulo 32812" width="3.454" height="2.475" rx="0.62" transform="translate(21.794 23.141)" fill="#12263f"/>
      <rect id="Rectángulo_32813" data-name="Rectángulo 32813" width="3.454" height="2.475" rx="0.62" transform="translate(31.822 23.141)" fill="#fff"/>
      <rect id="Rectángulo_32814" data-name="Rectángulo 32814" width="3.454" height="2.475" rx="0.62" transform="translate(35.995 23.141)" fill="#95c11f"/>
      <path id="Trazado_162248" data-name="Trazado 162248" d="M233.025,135.007a1.6,1.6,0,0,1-3.195,0,1.522,1.522,0,0,1,.351-.978,1.088,1.088,0,0,1,.259-.259,1.581,1.581,0,0,1,2.584,1.238Z" transform="translate(-193.091 -128.108)" fill="#12263f"/>
      <path id="Trazado_162249" data-name="Trazado 162249" d="M233.025,141.307a1.6,1.6,0,1,1-1.6-1.6h.251a1.67,1.67,0,0,1,.351.092,1.581,1.581,0,0,1,1,1.505Z" transform="translate(-193.091 -129.139)" fill="#12263f"/>
      <path id="Trazado_162250" data-name="Trazado 162250" d="M231.446,134.813l-.259.259-.937-.953a1.087,1.087,0,0,1,.259-.259Z" transform="translate(-193.16 -128.181)" fill="#f9b233"/>
      <path id="Trazado_162251" data-name="Trazado 162251" d="M232.308,139.84l-.418,1.673-.36-.1.427-1.622A1.674,1.674,0,0,1,232.308,139.84Z" transform="translate(-193.369 -129.152)" fill="#f9b233"/>
    </g>
    <rect id="Rectángulo_32815" data-name="Rectángulo 32815" width="55.456" height="6.782" transform="translate(0 30.425)" fill="#b2b2b2"/>
    <rect id="Rectángulo_32816" data-name="Rectángulo 32816" width="49.267" height="5.311" transform="translate(3.094 37.266)" fill="#12263f"/>
    <rect id="Rectángulo_32817" data-name="Rectángulo 32817" width="49.267" height="5.311" transform="translate(3.094 106.713)" fill="#12263f"/>
    <rect id="Rectángulo_32818" data-name="Rectángulo 32818" width="49.267" height="5.311" transform="translate(3.094 59.913)" fill="#12263f"/>
    <rect id="Rectángulo_32819" data-name="Rectángulo 32819" width="5.361" height="89.042" transform="translate(3.094 37.266)" fill="#12263f"/>
    <rect id="Rectángulo_32820" data-name="Rectángulo 32820" width="5.361" height="89.042" transform="translate(47.009 37.266)" fill="#12263f"/>
  </g>
  <g id="Grupo_75313" data-name="Grupo 75313" transform="translate(3.755 103.304)">
    <path id="Trazado_162252" data-name="Trazado 162252" d="M49.974,271.5a4.742,4.742,0,1,1-4.742-4.742A4.742,4.742,0,0,1,49.974,271.5Z" transform="translate(-40.49 -198.383)" fill="#3c3c3b"/>
    <rect id="Rectángulo_32821" data-name="Rectángulo 32821" width="3.713" height="68.995" transform="translate(7.627)" fill="#878787"/>
    <path id="Trazado_162253" data-name="Trazado 162253" d="M45.51,272.6h0a1.572,1.572,0,0,1-1.472-1l-1.9-4.842h6.749l-1.9,4.842a1.564,1.564,0,0,1-1.48,1Z" transform="translate(-40.76 -198.383)" fill="#12263f"/>
    <path id="Trazado_162254" data-name="Trazado 162254" d="M52.2,267.316H40.88v-2.843a1.213,1.213,0,0,1,1.213-1.213h8.923a1.213,1.213,0,0,1,1.213,1.213Z" transform="translate(-40.554 -197.81)" fill="#706f6f"/>
    <path id="Trazado_162255" data-name="Trazado 162255" d="M46.833,271.956A.836.836,0,1,1,46,271.12.836.836,0,0,1,46.833,271.956Z" transform="translate(-41.254 -199.097)" fill="#3c3c3b"/>
  </g>
  <g id="Grupo_75314" data-name="Grupo 75314" transform="translate(19.628 103.304)">
    <path id="Trazado_162256" data-name="Trazado 162256" d="M68.954,271.5a4.742,4.742,0,1,1-4.742-4.742A4.742,4.742,0,0,1,68.954,271.5Z" transform="translate(-59.47 -198.383)" fill="#3c3c3b"/>
    <rect id="Rectángulo_32822" data-name="Rectángulo 32822" width="3.713" height="68.995" transform="translate(7.627)" fill="#878787"/>
    <path id="Trazado_162257" data-name="Trazado 162257" d="M64.49,272.6h0a1.581,1.581,0,0,1-1.472-1l-1.9-4.842h6.757l-1.9,4.842a1.581,1.581,0,0,1-1.489,1Z" transform="translate(-59.74 -198.383)" fill="#12263f"/>
    <path id="Trazado_162258" data-name="Trazado 162258" d="M71.184,267.316H59.86v-2.843a1.213,1.213,0,0,1,1.213-1.213h8.94a1.213,1.213,0,0,1,1.213,1.213Z" transform="translate(-59.534 -197.81)" fill="#706f6f"/>
    <path id="Trazado_162259" data-name="Trazado 162259" d="M65.813,271.956a.836.836,0,1,1-.836-.836A.836.836,0,0,1,65.813,271.956Z" transform="translate(-60.234 -199.097)" fill="#3c3c3b"/>
  </g>
  <g id="Grupo_75315" data-name="Grupo 75315" transform="translate(187.05 103.304)">
    <path id="Trazado_162260" data-name="Trazado 162260" d="M269.144,271.5a4.742,4.742,0,1,1-4.742-4.742A4.742,4.742,0,0,1,269.144,271.5Z" transform="translate(-259.66 -198.383)" fill="#3c3c3b"/>
    <rect id="Rectángulo_32823" data-name="Rectángulo 32823" width="3.713" height="68.995" transform="translate(7.669)" fill="#878787"/>
    <path id="Trazado_162261" data-name="Trazado 162261" d="M264.732,272.6h0a1.572,1.572,0,0,1-1.464-1l-1.9-4.842h6.749l-1.9,4.842a1.572,1.572,0,0,1-1.489,1Z" transform="translate(-259.94 -198.383)" fill="#12263f"/>
    <path id="Trazado_162262" data-name="Trazado 162262" d="M271.414,267.316H260.09v-2.843a1.213,1.213,0,0,1,1.213-1.213h8.9a1.213,1.213,0,0,1,1.213,1.213Z" transform="translate(-259.73 -197.81)" fill="#706f6f"/>
    <path id="Trazado_162263" data-name="Trazado 162263" d="M266.053,271.956a.836.836,0,1,1-.836-.836A.836.836,0,0,1,266.053,271.956Z" transform="translate(-260.433 -199.097)" fill="#3c3c3b"/>
  </g>
  <g id="Grupo_75320" data-name="Grupo 75320" transform="translate(58.629)">
    <path id="Trazado_162264" data-name="Trazado 162264" d="M162.649,160.6a4.315,4.315,0,0,1-1.547-.251,3.346,3.346,0,0,1-.569-.293,3.2,3.2,0,0,1-3.128-.268l-.259.1a4.725,4.725,0,0,1-2.885.042,3.611,3.611,0,0,1-.577-.234,4.179,4.179,0,0,1-.928.259,3.847,3.847,0,0,1-2.609-.351l-.067-.042a3.864,3.864,0,0,1-2.216.268,3.923,3.923,0,0,1-1.564-.51,3.6,3.6,0,0,1-1.748.209,3.513,3.513,0,0,1-2.057-.962,4.357,4.357,0,0,1-.9.092h0a3.931,3.931,0,0,1-2.467-.711,2.945,2.945,0,0,1-.477-.493,3.972,3.972,0,0,1-3.053-.978,3.906,3.906,0,0,1-1.112-1.464,4.182,4.182,0,0,1-2.442-.987,3.161,3.161,0,0,1-.836-1.288,3.4,3.4,0,0,1-3.161-2.751,3.847,3.847,0,0,1-3.128-1.873,2.509,2.509,0,0,1-.276-.978,3.346,3.346,0,0,1-1-.552,3.571,3.571,0,0,1-1.33-2.576,2.51,2.51,0,0,1-.318-.2,3.906,3.906,0,0,1-1.673-2.91v-.234a3.345,3.345,0,0,1-1.949-3.446.38.38,0,0,1,.067-.259,3.345,3.345,0,0,1-1.673-2.593,2.659,2.659,0,0,1,.092-1,4.048,4.048,0,0,1-1.673-1.765l.677-.326a3.345,3.345,0,0,0,1.313,1.38,3.053,3.053,0,0,1,2.041-1.564,1.957,1.957,0,0,1,1.731.661,1.07,1.07,0,0,1,.176,1.1,1.539,1.539,0,0,1-1.02.836,4.064,4.064,0,0,1-2.618,0,2.241,2.241,0,0,0,0,.627,2.618,2.618,0,0,0,1.263,1.965,3.537,3.537,0,0,1,2.032-1.514,1.3,1.3,0,0,1,1.438.535.945.945,0,0,1,0,1.087,3.036,3.036,0,0,1-2.634,1,3.343,3.343,0,0,1-.477-.117v.084a2.509,2.509,0,0,0,1.3,2.509,2.567,2.567,0,0,1,.761-1.3,2.241,2.241,0,0,1,1.773-.527,1.121,1.121,0,0,1,.836.585,1.2,1.2,0,0,1-.167,1.346,3.044,3.044,0,0,1-2.509.9,3.111,3.111,0,0,0,1.288,2.258.969.969,0,0,0,0-.151,2.509,2.509,0,0,1,1.673-1.9,1.815,1.815,0,0,1,1.5.276,1.455,1.455,0,0,1,.652,1.079,1.949,1.949,0,0,1-1.464,1.84,2.893,2.893,0,0,1-1.622,0,2.776,2.776,0,0,0,1,1.673,2.224,2.224,0,0,0,.594.351,2.592,2.592,0,0,1,.284-.769,2.108,2.108,0,0,1,1.673-1.162,1.673,1.673,0,0,1,1.4.56,1.1,1.1,0,0,1,.268,1.02,1.539,1.539,0,0,1-.878.97,3.571,3.571,0,0,1-1.99.351,1.672,1.672,0,0,0,.159.452,3.061,3.061,0,0,0,2.383,1.455v-.243a2.149,2.149,0,0,1,.836-1.6,1.4,1.4,0,0,1,1.9.217,1.43,1.43,0,0,1-.309,1.865,2.509,2.509,0,0,1-1.572.544,2.609,2.609,0,0,0,2.208,1.957v-.4a2.141,2.141,0,0,1,.836-1.673,1.2,1.2,0,0,1,1.539.176,1.321,1.321,0,0,1,.368,1.673,1.815,1.815,0,0,1-.786.677,3.663,3.663,0,0,1-.97.318,2.442,2.442,0,0,0,.552.761,3.345,3.345,0,0,0,1.714.761,1.889,1.889,0,0,1,0-.376,2.216,2.216,0,0,1,2.024-2.191h0a1.723,1.723,0,0,1,1.48.97,1.438,1.438,0,0,1-.05,1.522,2.325,2.325,0,0,1-1.556.836c-.284.042-.552.067-.836.084a3.521,3.521,0,0,0,.744.836,3.345,3.345,0,0,0,2.208.836,1.79,1.79,0,0,1,1.857-2.375.937.937,0,0,1,.886.669,1.33,1.33,0,0,1-.176,1.137,2.9,2.9,0,0,1-1.4,1.07l.134.117a3.2,3.2,0,0,0,2.007.56h.418a2.158,2.158,0,0,1-.05-1.857,1.171,1.171,0,0,1,.92-.669,1.154,1.154,0,0,1,1.137.594,1.614,1.614,0,0,1,0,1.673,1.957,1.957,0,0,1-.686.627,2.927,2.927,0,0,0,2.325.46,1.915,1.915,0,0,1-.217-2.108,1.505,1.505,0,0,1,1.238-.694,1.238,1.238,0,0,1,1.1.5,1.756,1.756,0,0,1-.368,2.158,2.359,2.359,0,0,1-.3.276,4.048,4.048,0,0,0,2.375.134,2.141,2.141,0,0,1-.418-1.882,1.447,1.447,0,0,1,.786-.895,1,1,0,0,1,.836,0,1.2,1.2,0,0,1,.518.519,2.016,2.016,0,0,1-.427,2.333,3.454,3.454,0,0,0,1.865.134l.3-.059a2.132,2.132,0,0,1-.452-.753,1.673,1.673,0,0,1,.268-1.464,1.288,1.288,0,0,1,1.062-.535,1.246,1.246,0,0,1,1.037.669,1.673,1.673,0,0,1,0,1.6,1.973,1.973,0,0,1-.418.535h0a4.014,4.014,0,0,0,2.308,0,2.007,2.007,0,0,1-.259-1.823,1.112,1.112,0,0,1,.9-.728,1.129,1.129,0,0,1,1.012.426,1.489,1.489,0,0,1,.309,1.363,1.907,1.907,0,0,1-.619.9,2.45,2.45,0,0,0,1.79.134,1.982,1.982,0,0,1-.443-1.622,1.3,1.3,0,0,1,.385-.728,1.054,1.054,0,0,1,1.054-.2,1.33,1.33,0,0,1,.9.953,1.848,1.848,0,0,1-.611,1.673l.159.067a5.561,5.561,0,0,0,2.509.117l.075.753a12.824,12.824,0,0,1-1.313.092Zm-2.091-2.969a.243.243,0,0,0-.176.067.519.519,0,0,0-.151.309,1.313,1.313,0,0,0,.376,1.112,1.2,1.2,0,0,0,.485-1.07.577.577,0,0,0-.393-.393A.393.393,0,0,0,160.558,157.633Zm-2.986-.226h-.042a.335.335,0,0,0-.293.251,1.254,1.254,0,0,0,.209,1.154l.059.067a1.2,1.2,0,0,0,.527-.652.744.744,0,0,0-.151-.661.435.435,0,0,0-.309-.159Zm-3.814-.251a.552.552,0,0,0-.41.234.912.912,0,0,0-.151.778,1.38,1.38,0,0,0,.518.669,1.422,1.422,0,0,0,.5-.519.945.945,0,0,0,0-.836.51.51,0,0,0-.41-.293Zm-3.5-.268h-.134a.778.778,0,0,0-.368.427,1.4,1.4,0,0,0,.393,1.3,1.313,1.313,0,0,0,.393-1.53.435.435,0,0,0-.184-.2.184.184,0,0,0-.1.008Zm-3.546-.2h0a.744.744,0,0,0-.611.335,1.213,1.213,0,0,0,.276,1.388h0a2.409,2.409,0,0,0,.452-.368c.326-.343.535-.878.309-1.2a.535.535,0,0,0-.426-.151Zm-3.73-.585h-.042a.393.393,0,0,0-.335.251,1.413,1.413,0,0,0,.067,1.213l.075.125a1.33,1.33,0,0,0,.619-.468.887.887,0,0,0,0-.886A.443.443,0,0,0,142.987,156.1Zm-2.969-1a1.254,1.254,0,0,0-1,.577,1.188,1.188,0,0,0,0,.895,2.275,2.275,0,0,0,1.179-.836.6.6,0,0,0,.1-.519c0-.042,0-.117-.217-.134ZM135,154.271a5.128,5.128,0,0,0,.987-.084,1.539,1.539,0,0,0,1.062-.485.728.728,0,0,0,0-.744.979.979,0,0,0-.836-.552h0a1.455,1.455,0,0,0-1.271,1.447,1.823,1.823,0,0,0,.075.435Zm-2.559-3.839a.3.3,0,0,0-.184.059,1.4,1.4,0,0,0-.527,1.087,2.837,2.837,0,0,0,0,.376,2.852,2.852,0,0,0,.836-.251,1.171,1.171,0,0,0,.477-.393.587.587,0,0,0-.217-.694.635.635,0,0,0-.368-.167Zm-2.81-2.593a.761.761,0,0,0-.427.134,1.48,1.48,0,0,0-.51,1.062,1.62,1.62,0,0,0,0,.2,1.89,1.89,0,0,0,1.171-.36.711.711,0,0,0,.2-.836.535.535,0,0,0-.418-.184Zm-4.248-1.313a2.793,2.793,0,0,0,1.673-.251.945.945,0,0,0,.493-.477.393.393,0,0,0-.109-.351.945.945,0,0,0-.753-.3,1.363,1.363,0,0,0-1.062.769,2.049,2.049,0,0,0-.226.627Zm-2.358-3.011a2.183,2.183,0,0,0,1.438.042c.485-.151.97-.577.937-1.062a.719.719,0,0,0-.335-.519,1.07,1.07,0,0,0-.836-.167,1.806,1.806,0,0,0-1.121,1.346,2.51,2.51,0,0,0-.067.4Zm-1.94-3.4a2.333,2.333,0,0,0,1.89-.627.435.435,0,0,0,.075-.527.351.351,0,0,0-.293-.184,1.463,1.463,0,0,0-1.129.351,1.815,1.815,0,0,0-.527,1Zm-1.673-3.554a1.331,1.331,0,0,0,.251.05,2.3,2.3,0,0,0,1.882-.661.192.192,0,0,0,0-.259.552.552,0,0,0-.661-.217,2.768,2.768,0,0,0-1.447,1.1Zm-1.673-3.613a3.345,3.345,0,0,0,2.091,0,.962.962,0,0,0,.577-.41.343.343,0,0,0-.075-.351,1.188,1.188,0,0,0-1.029-.376,2.25,2.25,0,0,0-1.522,1.154Z" transform="translate(-107.59 -72.87)" fill="#ff9d00"/>
    <g id="Grupo_75316" data-name="Grupo 75316" transform="translate(0 43.209)">
      <path id="Trazado_162265" data-name="Trazado 162265" d="M129.02,123.522c-.1-.092-2.651-.728-2.651-.728l-2.409-3.345-1.673-1.673h-1.229l-.761-.477-2.116-1.33-1.238.209-.9.159-.493.084-.418.075-.393.067-1.112.192-.953.159s.067.41.226,1.079c.109.443.251,1,.443,1.622h0c.117.393.259.836.418,1.246s.243.644.376.978l.117.276a.9.9,0,0,0,.067.159,16.949,16.949,0,0,0,.836,1.673l.134.243.059.1c.51.836-.084,1.622.778,2.041a11.19,11.19,0,0,0,7.953.937l5.336,3.253Z" transform="translate(-107.179 -113.606)" fill="#f0bd87"/>
      <path id="Trazado_162266" data-name="Trazado 162266" d="M116.241,128.182l1.6.059a1.238,1.238,0,0,0,1.3-1.2h0a1.246,1.246,0,0,0-1.2-1.288l-1.6-.067a1.263,1.263,0,0,0-.1,2.492Z" transform="translate(-107.597 -115.197)" fill="#ffc990"/>
      <path id="Trazado_162267" data-name="Trazado 162267" d="M127.7,122.912c.05-2.651-2.509-4.131-2.785-4.391l-1.012-.836a4.55,4.55,0,0,0-1.974-1.045l-.744,1.882s-.41.36-.4.368.644,6.264,6.264,7.4c0,0,4.014,2.509,3.981,2.425l2.509-4.374C132.831,123.8,127.7,122.921,127.7,122.912Z" transform="translate(-108.506 -113.715)" fill="#ffc990"/>
      <path id="Trazado_162268" data-name="Trazado 162268" d="M113.213,119.674c.276-.084,1.087-.435,1.087-.435a1.472,1.472,0,0,0,.912-1.873h0a1.464,1.464,0,0,0-1.957-.694l-1.087.443C110.027,118.093,111.223,120.569,113.213,119.674Z" transform="translate(-106.911 -113.697)" fill="#ffc990"/>
      <path id="Trazado_162269" data-name="Trazado 162269" d="M114.647,122.6c.276-.067,1.112-.36,1.112-.36a1.48,1.48,0,0,0,1.045-1.806h0a1.472,1.472,0,0,0-1.907-.836l-1.137.318C111.578,120.8,112.59,123.347,114.647,122.6Z" transform="translate(-107.157 -114.183)" fill="#ffc990"/>
      <path id="Trazado_162270" data-name="Trazado 162270" d="M115.252,125.448l1.99.059a1.48,1.48,0,0,0,1.589-1.363h0a1.472,1.472,0,0,0-1.489-1.455l-1.99-.059a1.413,1.413,0,0,0-.1,2.818Z" transform="translate(-107.394 -114.696)" fill="#ffc990"/>
      <path id="Trazado_162271" data-name="Trazado 162271" d="M117.024,117.243a2.509,2.509,0,0,0-1.221-1.606,2.024,2.024,0,0,0-1.4,0l-.886-1.957a4.182,4.182,0,0,1,3.128,0,4.516,4.516,0,0,1,2.409,2.869Z" transform="translate(-107.318 -113.181)" fill="#12263f"/>
      <path id="Trazado_162272" data-name="Trazado 162272" d="M115.731,129.721l-.661-2.049a4.692,4.692,0,0,0,2.977-2.183c.728-1.422.594-3.63-.418-6.749l2.049-.661c1.213,3.747,1.3,6.406.284,8.363a6.741,6.741,0,0,1-4.232,3.278Z" transform="translate(-107.572 -113.951)" fill="#12263f"/>
      <path id="Trazado_162273" data-name="Trazado 162273" d="M116.178,115.353c-1.112-.3-1.84.209-1.932.912h0a1.1,1.1,0,0,0,.418,1.079c1.271.886,3.964,1.129,5.344,1.43l2.626-1.505c-.9-.544-2.509-1.673-2.509-1.673A24.136,24.136,0,0,1,116.178,115.353Z" transform="translate(-107.434 -113.49)" fill="#ffc990"/>
      <path id="Trazado_162274" data-name="Trazado 162274" d="M117.522,118.971c-1.129-3.855-4.182-6.18-7.142-5.57.677,5.244,1.781,10.437,2.367,15.7a4.758,4.758,0,0,0,1.338-.3C117.213,127.56,118.76,123.161,117.522,118.971Z" transform="translate(-106.804 -113.169)" fill="#9d9d9c"/>
      <path id="Trazado_162275" data-name="Trazado 162275" d="M115.944,120.391c.836,4.374-.1,8.221-2.091,8.606a16.029,16.029,0,0,1-2.183.192c-1.79-.418-2.208-3.588-2.944-7.418-.761-3.964-1.564-7.527.059-8.43.167-.092,1.848-.134,2.032-.167C112.816,112.789,115.108,116.026,115.944,120.391Z" transform="translate(-106.388 -113.143)" fill="#12263f"/>
      <path id="Trazado_162276" data-name="Trazado 162276" d="M113.627,120.58c.836,4.366-.1,8.221-2.091,8.6s-4.29-2.843-5.127-7.217.1-8.221,2.091-8.606S112.791,116.222,113.627,120.58Z" transform="translate(-106.104 -113.172)" fill="#878787"/>
      <path id="Trazado_162277" data-name="Trazado 162277" d="M111.445,128.285c-1.02,0-2.894-2.392-3.638-6.3a13.1,13.1,0,0,1,0-5.294c.259-1.079.728-1.832,1.179-1.924h0c1.112,0,2.986,2.392,3.73,6.281.778,4.064-.176,7.033-1.154,7.226Z" transform="translate(-106.339 -113.409)" fill="#b2b2b2"/>
    </g>
    <g id="Grupo_75317" data-name="Grupo 75317" transform="translate(38.753 86.605)">
      <path id="Trazado_162278" data-name="Trazado 162278" d="M180.051,165.917s-.276,6.741-.886,14.6c-.1,1.188-.209,2.409-.309,3.638-.084.92-.167,1.848-.259,2.768a2.525,2.525,0,0,1-.059.661c-.36,3.437-.778,13.874-1.271,16.659-.125.719-.259,1.4-.385,2.032l-.2.836a11.591,11.591,0,0,1-1.505,4.048,3.921,3.921,0,0,1-.4.443,7.368,7.368,0,0,1-3.228,1.832,6.967,6.967,0,0,1-2.225.259h-.1a5.971,5.971,0,0,1-5.127-3.738l-.059-.167a3.044,3.044,0,0,1-.184-.594v-.05c-.075-.276-.151-.577-.209-.895a61.3,61.3,0,0,1-.669-11.173V186.95c.192-8.614.945-17.855,1.2-20.807.05-.627.092-.978.092-.978C164.3,164.654,180.051,165.783,180.051,165.917Z" transform="translate(-154.161 -165.033)" fill="#906144"/>
      <path id="Trazado_162279" data-name="Trazado 162279" d="M176.727,272.666a.435.435,0,0,1-.276.234l-1.522.477a5.779,5.779,0,0,1-1.355.251l-2.626.176-.97.067h-.443l-6.113.694-2.392.276a18.307,18.307,0,0,1-8.288-1.171.51.51,0,0,1-.293-.544c.067-1.505-.109-2.718.669-3.345.753-.836,2.317-1.33,4.182-2.024l1.012-.376c1.673-.677,3.454-1.029,4.182-1.581.209-.151.418-.3.619-.46h0a8.045,8.045,0,0,0,2.342-2.383,4.927,4.927,0,0,0,.46-1.121l7.3-.276h.836a5.854,5.854,0,0,0,.5,2.3c.351.836.769,1.422.836,1.622v.05a43.221,43.221,0,0,1,.97,4.483,11.851,11.851,0,0,1,.368,2.651Z" transform="translate(-152.443 -180.833)" fill="#574037"/>
      <path id="Trazado_162280" data-name="Trazado 162280" d="M178.259,262.233l-4.65-1.631-8.614-3.011h0l-1.238-41.28-.067-2.016v-.176l2.442.059,6.59.167h4.3C177.079,214.647,180.676,246.585,178.259,262.233Z" transform="translate(-154.284 -173.068)" fill="#906144"/>
    </g>
    <path id="Trazado_162281" data-name="Trazado 162281" d="M178.255,261.873a11.85,11.85,0,0,1,.309,2.668.435.435,0,0,1-.276.234l-1.522.477a5.781,5.781,0,0,1-1.355.251l-2.626.176-.97.067c.694-1.831,1.3-3.671,1.79-5.5a59.583,59.583,0,0,0,1.489-6.791c1.673-10.479.36-25.022-3.429-32.323a25.223,25.223,0,0,0-5.553-7.309,20.347,20.347,0,0,0-2.442-1.9h13.715c-.125.719-.259,1.4-.385,2.032C177.076,214.287,180.672,246.225,178.255,261.873Z" transform="translate(-115.527 -86.103)" fill="#1d1d1b" opacity="0.1"/>
    <g id="Grupo_75318" data-name="Grupo 75318" transform="translate(55.288 86.972)">
      <path id="Trazado_162282" data-name="Trazado 162282" d="M196.188,204.317c-.042.9-.109,1.748-.192,2.509a4.206,4.206,0,0,1-.1.744,9.744,9.744,0,0,1-.9,3.454,3.91,3.91,0,0,1-.343.485,7.6,7.6,0,0,1-4.182,2.6,6.4,6.4,0,0,1-1.02.151h-.1a5.988,5.988,0,0,1-5.553-3.094l-.084-.159a3.87,3.87,0,0,1-.243-.569h0a20.909,20.909,0,0,1-1.02-3.429,85.314,85.314,0,0,1-1.33-8.447c-.117-.987-.226-9.091-.318-10.1-.836-8.581-1.221-17.847-1.33-20.807v-.97c-.059-.544,15.714-1.33,15.731-1.2,0,0,.544,6.69.886,14.594.05,1.2.092,2.417.142,3.655l.075,2.785v.661C196.389,190.785,196.372,201.406,196.188,204.317Z" transform="translate(-173.402 -165.472)" fill="#9a6849"/>
      <path id="Trazado_162283" data-name="Trazado 162283" d="M196.505,273.316a.46.46,0,0,1-.259.243l-1.53.468a5.856,5.856,0,0,1-1.355.259l-2.618.176-1.146.117h-.661l-5.729.644-2.392.276a18.265,18.265,0,0,1-8.3-1.171.51.51,0,0,1-.293-.535c.084-1.5-.092-2.718.686-3.345.744-.836,2.3-1.33,4.182-2.016l1-.385c1.673-.669,3.454-1.029,4.182-1.572l.527-.385a8.363,8.363,0,0,0,2.45-2.459,4.824,4.824,0,0,0,.452-1.129l6.624-.243,1.121-.05h.393a5.854,5.854,0,0,0,.5,2.308c.351.836.769,1.422.836,1.614v.059c.159.418.636,2.626.962,4.483a10.805,10.805,0,0,1,.368,2.643Z" transform="translate(-172.214 -181.307)" fill="#61483e"/>
      <path id="Trazado_162284" data-name="Trazado 162284" d="M197.973,262.891l-5.319-1.815-8.037-2.751-.234-.075-1.313-43.2v-.284l2.793.075,6.23.167,4.3-.05s.042.251.092.669C197.095,219.98,200.156,248.59,197.973,262.891Z" transform="translate(-173.991 -173.542)" fill="#9a6849"/>
    </g>
    <path id="Trazado_162285" data-name="Trazado 162285" d="M160.479,106.658l-.836,8.781-1.4,15.054A5.135,5.135,0,0,1,157.31,133a2.247,2.247,0,0,1-.167.226,5.277,5.277,0,0,1-4.708,1.982h-.109a5.3,5.3,0,0,1-4.692-5.854l.251-2.768,1.949-21.083a5.294,5.294,0,0,1,5.854-4.7h.109a5.277,5.277,0,0,1,4.683,5.854Z" transform="translate(-112.897 -67.909)" fill="#ededed"/>
    <path id="Trazado_162286" data-name="Trazado 162286" d="M151.73,138.92l-.268.109a5.194,5.194,0,0,1-2.325,0l-20.858-5.143.744-10.036,19.653,4.182,2.869.611a5.311,5.311,0,0,1,3.956,6.348v.1A5.294,5.294,0,0,1,151.73,138.92Z" transform="translate(-109.734 -71.687)" fill="#ededed"/>
    <path id="Trazado_162287" data-name="Trazado 162287" d="M151.223,113.81l-1.037-11.6a3.446,3.446,0,0,1,.351-3.512,4.959,4.959,0,0,1,1.112-1.2,5.779,5.779,0,0,1,1.1-.686c.167-.092.335-.176.519-.259.836-.41,1.673-.836,2.559-1.171l5.561,12.16.443.962.226.485.125-.519.276-1.079,4-15.815a41.816,41.816,0,0,1,6.866,0c3.7.142,7.728.376,9.684,2.133a3.5,3.5,0,0,1,1.137,2.041,3.345,3.345,0,0,1,.075.652c0,.3,2.442,13.49,5.018,27.506.268,1.413.527,2.843.786,4.257,2.743,14.719,5.9,34.113,5.9,34.113L155.856,166Z" transform="translate(-113.267 -66.38)" fill="#12263f"/>
    <rect id="Rectángulo_32824" data-name="Rectángulo 32824" width="3.019" height="14.644" transform="translate(58.537 82.52) rotate(-73.74)" fill="#bbbabb"/>
    <path id="Trazado_162288" data-name="Trazado 162288" d="M165.344,115.779l-1.229-.794L155.76,97.338,170.237,91.3Z" transform="translate(-114.232 -66.358)" fill="#fcfcfb"/>
    <path id="Trazado_162289" data-name="Trazado 162289" d="M168.891,89.512c-.552,5.377-7.962,9.969-10.036,6.448C158.7,95.633,155,84.8,155,84.8l10.387-5.6,2.509,7.192,1.012,2.843Z" transform="translate(-114.108 -64.378)" fill="#ffc990"/>
    <path id="Trazado_162290" data-name="Trazado 162290" d="M176.168,91.551l-.067.577-.636,5.545-3.153,1.974,3.036,1.857-8.1,14.518-.435.769.209-1.38,3.554-22.781.226-1.43Z" transform="translate(-116.041 -66.342)" fill="#717d8c"/>
    <path id="Trazado_162291" data-name="Trazado 162291" d="M156.262,106.773l1.689-1.873-2.927-1.447-.97-3.579L153.82,99l3.822-3.3.519,1.413,6.732,19.034.226.61,1.4,3.981Z" transform="translate(-113.915 -67.079)" fill="#717d8c"/>
    <g id="Grupo_75319" data-name="Grupo 75319" transform="translate(27.689)">
      <path id="Trazado_162292" data-name="Trazado 162292" d="M162.2,75.729a1.254,1.254,0,0,1-.075.151,5.436,5.436,0,0,1-1.213,1.355c-.519.435-1.112.836-1.765,1.3l-.159.109-.4.284h0c-.184.125-.376.268-.552.41l-.075.05h0a11.1,11.1,0,0,1-2.183,9.81,11.423,11.423,0,0,1-2.358,2.225c-1.873.878-3.78-.167-5.076-2.651l-1.556-3.078-1.129.217a1.288,1.288,0,0,1-.937-.151,1.263,1.263,0,0,1-.636-.97,15.892,15.892,0,0,1-.1-2.158,12.719,12.719,0,0,1,.209-2.074l-.251-.477c-.192-.351-.452-.836-.753-1.464-.427-.836-.912-1.89-1.271-2.793a7.527,7.527,0,0,1-.569-1.865c0-.368.217-.836.226-1.2a9.584,9.584,0,0,1,5.854-8.731C159.13,58.543,164.474,71.48,162.2,75.729Z" transform="translate(-139.562 -61.676)" fill="#ffc990"/>
      <path id="Trazado_162293" data-name="Trazado 162293" d="M164.124,73.974a34.288,34.288,0,0,1,1.2,5.679,1.857,1.857,0,0,1-1.673,2.082c-2.049.125-3.755-1.589-4.934-3.3-.318-.477-.6-.945-.836-1.372a14.218,14.218,0,0,1-.92-1.907c-.293-.836-3.345.836-3.947,1.029a1.212,1.212,0,0,0-.1-.293c-.117-.343-.226-.669-.335-.97-2.425-6.808-4.416-4.466-11.524-1.146-2.6,1.146-3.847-6.264,6.021-10.805C156.539,58.569,160.98,64.365,164.124,73.974Z" transform="translate(-139.212 -61.477)" fill="#61483e"/>
      <path id="Trazado_162294" data-name="Trazado 162294" d="M161.479,76.753c.836,2.024.786,4.742-1.171,4.575-1.346-.109-2.107-1.012-2.835-2.509A2.718,2.718,0,0,1,158.4,75.2C159.572,74.4,160.86,75.164,161.479,76.753Z" transform="translate(-142.145 -63.671)" fill="#ffc990"/>
      <path id="Trazado_162295" data-name="Trazado 162295" d="M158.011,94.438a30.8,30.8,0,0,1-2.986,2.233,2.584,2.584,0,0,1-3.6-1.171l-3.579-7.594c1.8-1,3.973-2.007,5.67-.159l.443-.192a3.814,3.814,0,0,0,1.622-3.7,29.656,29.656,0,0,0-1.338-5.528h0l1.539-2.082a18.319,18.319,0,0,0,.836,2.041C157.292,79.543,164.258,89.713,158.011,94.438Z" transform="translate(-140.626 -63.893)" fill="#61483e"/>
      <path id="Trazado_162296" data-name="Trazado 162296" d="M152.667,91.694h0a.92.92,0,0,1-.443,1.229l-2.467,1.171-.836-1.673,2.467-1.162a.937.937,0,0,1,1.28.435Z" transform="translate(-140.801 -66.335)" fill="#ffc990"/>
    </g>
    <path id="Trazado_162297" data-name="Trazado 162297" d="M149.682,115.832h0a1.321,1.321,0,0,0-1-1.673c-2.952-.836-4.182-.51-6.757-1.84a1.405,1.405,0,0,0-1.857.544h0a1.313,1.313,0,0,0,.552,1.84c2.659,1.413,4.056,1.179,7.142,2.057a1.589,1.589,0,0,0,1.924-.928Z" transform="translate(-111.634 -69.774)" fill="#f0bd87"/>
    <rect id="Rectángulo_32825" data-name="Rectángulo 32825" width="6.532" height="6.766" transform="matrix(0.172, -0.985, 0.985, 0.172, 36.044, 51.959)" fill="#ffc990"/>
    <path id="Trazado_162298" data-name="Trazado 162298" d="M145.772,121.953h0a1.254,1.254,0,0,0-1.221-1.288l-3.195-.125a1.263,1.263,0,0,0-1.3,1.221h0a1.254,1.254,0,0,0,1.221,1.288l3.195.125a1.263,1.263,0,0,0,1.3-1.221Z" transform="translate(-111.662 -71.145)" fill="#f0bd87"/>
    <path id="Trazado_162299" data-name="Trazado 162299" d="M146.659,124.543h0a1.112,1.112,0,0,0-1.171-1.054l-2.735.159a1.112,1.112,0,0,0-1.054,1.171h0a1.121,1.121,0,0,0,1.171,1.054l2.743-.159A1.121,1.121,0,0,0,146.659,124.543Z" transform="translate(-111.93 -71.627)" fill="#f0bd87"/>
    <path id="Trazado_162300" data-name="Trazado 162300" d="M143.432,116.012h0a1.263,1.263,0,0,0-1.062-1.422l-4.441-.393a1.254,1.254,0,0,0-1.422,1.062h0a1.254,1.254,0,0,0,1.062,1.422l4.441.393a1.254,1.254,0,0,0,1.422-1.062Z" transform="translate(-111.079 -70.104)" fill="#f0bd87"/>
    <path id="Trazado_162301" data-name="Trazado 162301" d="M145.219,118.905h0a1.254,1.254,0,0,0-1.28-1.229l-3.872-.276a1.263,1.263,0,0,0-1.238,1.28h0a1.263,1.263,0,0,0,1.28,1.238l3.88.268A1.254,1.254,0,0,0,145.219,118.905Z" transform="translate(-111.461 -70.631)" fill="#f0bd87"/>
    <path id="Trazado_162302" data-name="Trazado 162302" d="M200.281,200.415l-40.051,3.738,34.08-9.2-1.154-41.924C196.434,173.5,200.281,200.415,200.281,200.415Z" transform="translate(-114.964 -76.463)" fill="#1d1d1b" opacity="0.1"/>
    <path id="Trazado_162303" data-name="Trazado 162303" d="M197.921,262.184a10.806,10.806,0,0,1,.309,2.659.46.46,0,0,1-.259.243l-1.53.468a5.853,5.853,0,0,1-1.355.259l-2.618.176-1.146.117h-.661c.753-1.923,1.388-3.847,1.932-5.762a58.437,58.437,0,0,0,1.489-6.582c1.773-10.429.594-24.947-3.044-32.315a25.759,25.759,0,0,0-5.244-7.334,21.293,21.293,0,0,0-3.044-2.459l14.134-1.2c0,.9-.276,2.952-.36,3.713a4.206,4.206,0,0,1-.1.744C197.043,219.273,200.1,247.883,197.921,262.184Z" transform="translate(-118.65 -85.862)" fill="#1d1d1b" opacity="0.1"/>
    <path id="Trazado_162304" data-name="Trazado 162304" d="M191.23,138.362c-7.82-3.111-22.756-9.392-31.077-12.9l-5.963-2.509,3.4-6.264,5.57-.552h.351l8.857-.836,1.957-12.009,10.763-3.947a6.354,6.354,0,0,1,.092.912C185.2,100.553,188.111,118.876,191.23,138.362Z" transform="translate(-113.975 -67.675)" fill="#1d1d1b" opacity="0.1"/>
    <path id="Trazado_162305" data-name="Trazado 162305" d="M181.888,127.743h-.109a5.285,5.285,0,0,1-4.892-5.653l.067-1.179.519-9.015.268-4.675.527-9.04a5.285,5.285,0,0,1,5.653-4.892h.1a5.294,5.294,0,0,1,4.9,5.653l-.059,1.012-1.321,22.9a5.344,5.344,0,0,1-.794,2.434A5.286,5.286,0,0,1,181.888,127.743Z" transform="translate(-117.688 -66.681)" fill="#ededed"/>
    <path id="Trazado_162306" data-name="Trazado 162306" d="M154.19,125.651l.243-9.651,24.161,4.633.836.151a5.3,5.3,0,0,1,4.282,6.139v.109a5.277,5.277,0,0,1-4.55,4.315,5.36,5.36,0,0,1-1.589,0Z" transform="translate(-113.975 -70.402)" fill="#ededed"/>
    <path id="Trazado_162307" data-name="Trazado 162307" d="M141.747,114.789a1.924,1.924,0,0,0-.836-1.413,2.459,2.459,0,0,0-1.806,0l-.794-2a4.558,4.558,0,0,1,3.613.109,3.964,3.964,0,0,1,1.915,2.885Z" transform="translate(-111.376 -69.592)" fill="#12263f"/>
    <path id="Trazado_162308" data-name="Trazado 162308" d="M140.294,128.882l-.184-2.141a4.182,4.182,0,0,0,2.509-1.1,1.673,1.673,0,0,0,.351-1.3l2.141-.2a3.855,3.855,0,0,1-.836,2.885,6.231,6.231,0,0,1-3.981,1.857Z" transform="translate(-111.67 -71.734)" fill="#12263f"/>
    <path id="Trazado_162309" data-name="Trazado 162309" d="M152.122,120.185l-.134-2.509a3.7,3.7,0,0,0-3.9-3.487l-3.011.159.535,9.852,3.011-.167a3.7,3.7,0,0,0,3.5-3.847Z" transform="translate(-112.484 -70.104)" fill="#ffc990"/>
    <path id="Trazado_162310" data-name="Trazado 162310" d="M146.193,124.183l-2.25.117a1.112,1.112,0,0,1-1.2-1.037h0a1.112,1.112,0,0,1,1.054-1.179h-.41a1.246,1.246,0,0,1-1.321-1.188h0a1.254,1.254,0,0,1,1.188-1.321h-.385a1.263,1.263,0,0,1-1.321-1.188h0a1.254,1.254,0,0,1,1.188-1.321,1.254,1.254,0,0,1-1.321-1.188h0a1.246,1.246,0,0,1,1.179-1.321l3.036-.167Z" transform="translate(-111.883 -70.138)" fill="#ffc990"/>
    <path id="Trazado_162311" data-name="Trazado 162311" d="M188.3,157.685a4.249,4.249,0,0,1-1.539-.251,2.676,2.676,0,0,1-.577-.293,3.2,3.2,0,0,1-3.128-.268l-.259.1a4.725,4.725,0,0,1-2.885,0,3.967,3.967,0,0,1-.577-.234,4.181,4.181,0,0,1-.928.259,3.847,3.847,0,0,1-2.609-.351l-.067-.042a3.864,3.864,0,0,1-2.216.268,3.922,3.922,0,0,1-1.564-.51,3.705,3.705,0,0,1-1.748.217,3.521,3.521,0,0,1-2.049-.962,4.491,4.491,0,0,1-.912.092h0a3.931,3.931,0,0,1-2.467-.711,2.416,2.416,0,0,1-.477-.493,3.972,3.972,0,0,1-3.053-.978,3.905,3.905,0,0,1-1.112-1.464,4.181,4.181,0,0,1-2.434-.987,3.119,3.119,0,0,1-.836-1.28,3.554,3.554,0,0,1-1.74-.594,3.487,3.487,0,0,1-1.422-2.166,3.847,3.847,0,0,1-3.128-1.873,2.509,2.509,0,0,1-.268-.978,3.346,3.346,0,0,1-1.012-.552,3.563,3.563,0,0,1-1.33-2.576,3.345,3.345,0,0,1-.318-.2,3.906,3.906,0,0,1-1.673-2.91v-.234a3.345,3.345,0,0,1-1.949-3.446,1.078,1.078,0,0,1,.067-.259,3.345,3.345,0,0,1-1.673-2.593,2.844,2.844,0,0,1,.092-1,4.048,4.048,0,0,1-1.673-1.765l.686-.326a3.245,3.245,0,0,0,1.3,1.38,3.053,3.053,0,0,1,2.149-1.564,1.957,1.957,0,0,1,1.731.661,1.062,1.062,0,0,1,.176,1.1,1.539,1.539,0,0,1-1.02.836,4.064,4.064,0,0,1-2.618,0,2.242,2.242,0,0,0-.042.627,2.6,2.6,0,0,0,1.271,1.965,3.513,3.513,0,0,1,2.024-1.514,1.3,1.3,0,0,1,1.438.535.945.945,0,0,1,0,1.087,3.011,3.011,0,0,1-2.634,1,3.344,3.344,0,0,1-.477-.117v.084a2.509,2.509,0,0,0,1.3,2.509,2.567,2.567,0,0,1,.761-1.3,2.241,2.241,0,0,1,1.773-.527,1.121,1.121,0,0,1,.836.585,1.2,1.2,0,0,1-.167,1.346,3.044,3.044,0,0,1-2.509.9,3.1,3.1,0,0,0,1.3,2.258v-.151a2.509,2.509,0,0,1,1.673-1.9,1.848,1.848,0,0,1,1.5.276,1.455,1.455,0,0,1,.652,1.079,1.94,1.94,0,0,1-1.464,1.84,2.893,2.893,0,0,1-1.622,0,2.777,2.777,0,0,0,1,1.673,2.024,2.024,0,0,0,.594.351,2.843,2.843,0,0,1,.284-.769,2.108,2.108,0,0,1,1.673-1.162,1.673,1.673,0,0,1,1.4.56,1.1,1.1,0,0,1,.268,1.02,1.539,1.539,0,0,1-.836.97,3.5,3.5,0,0,1-1.99.351,1.673,1.673,0,0,0,.159.452,3.069,3.069,0,0,0,2.392,1.455,2.363,2.363,0,0,1,0-.243,2.149,2.149,0,0,1,.836-1.6,1.4,1.4,0,0,1,1.9.217,1.43,1.43,0,0,1-.309,1.865,2.509,2.509,0,0,1-1.564.544,2.76,2.76,0,0,0,1.062,1.53,2.8,2.8,0,0,0,1.146.427,3.221,3.221,0,0,1,0-.4,2.141,2.141,0,0,1,.836-1.673,1.2,1.2,0,0,1,1.539.176,1.313,1.313,0,0,1,.368,1.673,1.815,1.815,0,0,1-.786.677,3.42,3.42,0,0,1-.962.318,2.291,2.291,0,0,0,.544.761,3.345,3.345,0,0,0,1.714.761,1.891,1.891,0,0,1,0-.376,2.216,2.216,0,0,1,2.024-2.191h0a1.723,1.723,0,0,1,1.48.97,1.422,1.422,0,0,1-.05,1.522,2.325,2.325,0,0,1-1.556.836c-.284.042-.552.067-.836.084a3.52,3.52,0,0,0,.744.836,3.345,3.345,0,0,0,2.208.836,1.932,1.932,0,0,1,.075-1.355,1.965,1.965,0,0,1,1.781-1.02.937.937,0,0,1,.887.669,1.33,1.33,0,0,1-.176,1.137,2.9,2.9,0,0,1-1.405,1.07l.134.117a3.22,3.22,0,0,0,2.007.56h.418a2.158,2.158,0,0,1-.05-1.857,1.171,1.171,0,0,1,.92-.669,1.154,1.154,0,0,1,1.137.594,1.614,1.614,0,0,1,0,1.673,1.957,1.957,0,0,1-.686.627,2.927,2.927,0,0,0,2.325.46,1.9,1.9,0,0,1-.217-2.1,1.5,1.5,0,0,1,1.238-.7,1.238,1.238,0,0,1,1.1.5,1.756,1.756,0,0,1-.368,2.158,2.36,2.36,0,0,1-.3.276,4.048,4.048,0,0,0,2.375.134,2.133,2.133,0,0,1-.418-1.882,1.447,1.447,0,0,1,.786-.895,1,1,0,0,1,.836,0,1.2,1.2,0,0,1,.518.519,2.016,2.016,0,0,1-.426,2.333,3.454,3.454,0,0,0,1.865.134l.309-.059a1.974,1.974,0,0,1-.46-.753,1.672,1.672,0,0,1,.268-1.464,1.3,1.3,0,0,1,1.062-.535,1.246,1.246,0,0,1,1.037.669,1.673,1.673,0,0,1,.042,1.6,1.824,1.824,0,0,1-.418.535h0a4.014,4.014,0,0,0,2.308,0,2.041,2.041,0,0,1-.259-1.823,1.112,1.112,0,0,1,.9-.728,1.171,1.171,0,0,1,1.02.426,1.505,1.505,0,0,1,.3,1.363,1.907,1.907,0,0,1-.619.9,2.45,2.45,0,0,0,1.79.134,2,2,0,0,1-.443-1.622,1.3,1.3,0,0,1,.385-.728,1.054,1.054,0,0,1,1.054-.2,1.33,1.33,0,0,1,.9.953,1.84,1.84,0,0,1-.611,1.673l.159.067a5.561,5.561,0,0,0,2.509.117l.075.753a12.822,12.822,0,0,1-1.5.125Zm-2.091-2.969a.243.243,0,0,0-.176.067.519.519,0,0,0-.151.309,1.313,1.313,0,0,0,.376,1.112,1.2,1.2,0,0,0,.485-1.07.577.577,0,0,0-.393-.393.393.393,0,0,0-.142-.025Zm-2.986-.226h-.042a.343.343,0,0,0-.293.251,1.28,1.28,0,0,0,.209,1.154l.059.067a1.254,1.254,0,0,0,.535-.652.778.778,0,0,0-.159-.661A.435.435,0,0,0,183.224,154.491Zm-3.814-.243a.552.552,0,0,0-.41.226.912.912,0,0,0-.151.778,1.38,1.38,0,0,0,.518.669,1.446,1.446,0,0,0,.51-.519.97.97,0,0,0-.042-.836.5.5,0,0,0-.41-.284Zm-3.5-.276h-.134a.728.728,0,0,0-.36.426,1.372,1.372,0,0,0,.368,1.3,1.3,1.3,0,0,0,.393-1.53.435.435,0,0,0-.184-.2.159.159,0,0,0-.084-.017Zm-3.546-.2h0a.744.744,0,0,0-.611.335,1.221,1.221,0,0,0,.276,1.388h0a2.124,2.124,0,0,0,.452-.368,1.048,1.048,0,0,0,.309-1.2A.535.535,0,0,0,172.369,153.771Zm-3.73-.585h-.067a.4.4,0,0,0-.335.259,1.4,1.4,0,0,0,.067,1.2c0,.042.05.092.075.125a1.33,1.33,0,0,0,.619-.468.886.886,0,0,0,0-.886.443.443,0,0,0-.36-.234Zm-2.969-1a1.254,1.254,0,0,0-1,.577,1.146,1.146,0,0,0,0,.895,2.342,2.342,0,0,0,1.179-.836.627.627,0,0,0,.092-.518c0-.042,0-.117-.217-.134Zm-5.018-.836a5.854,5.854,0,0,0,.987-.075,1.539,1.539,0,0,0,1.062-.493.728.728,0,0,0,0-.744,1,1,0,0,0-.836-.552h0a1.455,1.455,0,0,0-1.28,1.447,1.824,1.824,0,0,0,.084.435Zm-2.559-3.839a.3.3,0,0,0-.184.059,1.372,1.372,0,0,0-.519,1.087,2.831,2.831,0,0,0,0,.376,2.852,2.852,0,0,0,.836-.251,1.171,1.171,0,0,0,.477-.393.587.587,0,0,0-.217-.694.636.636,0,0,0-.376-.167Zm-2.81-2.593a.761.761,0,0,0-.427.134,1.48,1.48,0,0,0-.51,1.062,1.608,1.608,0,0,0,0,.2,1.89,1.89,0,0,0,1.171-.36.711.711,0,0,0,.2-.836.535.535,0,0,0-.418-.184Zm-4.248-1.3a2.86,2.86,0,0,0,1.673-.259.945.945,0,0,0,.493-.477.393.393,0,0,0-.109-.351.945.945,0,0,0-.753-.3,1.38,1.38,0,0,0-1.062.769,2.024,2.024,0,0,0-.226.636Zm-2.358-3.019a2.183,2.183,0,0,0,1.438.042c.485-.151.97-.577.937-1.062a.719.719,0,0,0-.335-.519,1.071,1.071,0,0,0-.836-.167,1.806,1.806,0,0,0-1.121,1.346,2.506,2.506,0,0,0-.067.376Zm-1.923-3.379a2.3,2.3,0,0,0,1.89-.627.427.427,0,0,0,.075-.527.343.343,0,0,0-.284-.184,1.505,1.505,0,0,0-1.137.351A1.848,1.848,0,0,0,146.753,137.221Zm-1.673-3.554.251.059a2.333,2.333,0,0,0,1.882-.669.192.192,0,0,0,0-.259.544.544,0,0,0-.652-.217,2.752,2.752,0,0,0-1.472,1.087Zm-1.673-3.613a3.345,3.345,0,0,0,2.1,0,1,1,0,0,0,.569-.4.351.351,0,0,0-.075-.36,1.188,1.188,0,0,0-1.029-.376,2.25,2.25,0,0,0-1.539,1.137Z" transform="translate(-111.79 -72.387)" fill="#ff9d00"/>
    <path id="Trazado_162312" data-name="Trazado 162312" d="M142.282,116.691c-1.137-3.855-4.223-6.18-7.142-5.57.669,5.244,1.781,10.437,2.367,15.7a4.708,4.708,0,0,0,1.33-.3C141.973,125.28,143.511,120.881,142.282,116.691Z" transform="translate(-110.857 -69.587)" fill="#9d9d9c"/>
    <path id="Trazado_162313" data-name="Trazado 162313" d="M140.7,118.111c.836,4.374-.1,8.221-2.1,8.606a15.891,15.891,0,0,1-2.183.192c-1.79-.418-2.208-3.588-2.944-7.418-.753-3.964-1.556-7.527.067-8.43.167-.092,1.848-.134,2.032-.167C137.568,110.509,139.868,113.746,140.7,118.111Z" transform="translate(-110.441 -69.561)" fill="#12263f"/>
    <path id="Trazado_162314" data-name="Trazado 162314" d="M138.386,118.32c.836,4.366-.1,8.221-2.1,8.6s-4.29-2.843-5.127-7.217.109-8.221,2.1-8.606S137.55,113.946,138.386,118.32Z" transform="translate(-110.156 -69.593)" fill="#878787"/>
    <path id="Trazado_162315" data-name="Trazado 162315" d="M136.235,126c-1.012,0-2.885-2.392-3.638-6.3a13.105,13.105,0,0,1,0-5.294c.268-1.079.728-1.832,1.179-1.924h0c1.121,0,2.994,2.392,3.738,6.281.778,4.064-.184,7.033-1.154,7.226Z" transform="translate(-110.396 -69.827)" fill="#b2b2b2"/>
  </g>
  <path id="Trazado_162316" data-name="Trazado 162316" d="M243.274,182.708H38.57v-6.59A5.143,5.143,0,0,1,43.713,171H238.131a5.143,5.143,0,0,1,5.143,5.143Z" transform="translate(-36.421 -79.405)" fill="#ededed"/>
  <path id="Trazado_162317" data-name="Trazado 162317" d="M239.5,174.939c0,2.116-1.413,3.839-3.161,3.839H50.441c-1.748,0-3.161-1.723-3.161-3.839h0c0-2.124,1.413-3.839,3.161-3.839h185.9C238.084,171.1,239.5,172.814,239.5,174.939Z" transform="translate(-37.846 -79.421)" fill="#131313" opacity="0.1"/>
  <path id="Trazado_162318" data-name="Trazado 162318" d="M270.242,170.181l-3.253.4c-.912.1-1.756.184-2.509.234a28.972,28.972,0,0,1-4,0c-1.338-.109-2.066-.343-2.158-.552a9.017,9.017,0,0,1-.611-2.158,15.633,15.633,0,0,1,2.116-10.671c.1-.151.2-.293.293-.452,2.032-3.262,2.9-8.146,3.822-9.45,1.372-1.957,4.817-1.589,4.817-1.589l.05.711,1.1,15.455-1.572,3.036,1.673.594v.836Z" transform="translate(-72.262 -75.299)" fill="#2e2e2d"/>
  <path id="Trazado_162319" data-name="Trazado 162319" d="M170.726,168.187c-5.779,4.633-15.89,4.048-20.908.084-1.087-6.849-1.38-13.172,0-18.4,7.811-.376,18.85,1.781,24.713,2.693Z" transform="translate(-54.479 -75.939)" fill="#00bcd4"/>
  <path id="Trazado_162320" data-name="Trazado 162320" d="M272.064,162.8l-1.857,2.869,1.673.761-.209,4.416-3.278.084c-1.355,0-2.559,0-3.6-.05a21.252,21.252,0,0,1-3.763-.5c-.778-.2-1.188-.41-1.246-.577a7.829,7.829,0,0,1-.36-1.748c-.318-3.1.5-7.811,3.094-10.872s3.956-8.187,5.018-9.45a3.345,3.345,0,0,1,1.564-.987,7.661,7.661,0,0,1,3.387-.142Z" transform="translate(-72.562 -75.391)" fill="#3c3c3b"/>
  <g id="Grupo_75322" data-name="Grupo 75322" transform="translate(10.981 72.268)">
    <path id="Trazado_162321" data-name="Trazado 162321" d="M84.681,155.52v13.072l-5.469.176H79.2l-1.112.033-4.591.142-.025-.886v-.176l-.075-3.5-.008-.243-.042-2.032-.109-5,3.3-.46,3.312-.46,2-.276Z" transform="translate(-53.077 -149.139)" fill="#ffc990"/>
    <g id="Grupo_75321" data-name="Grupo 75321">
      <path id="Trazado_162322" data-name="Trazado 162322" d="M74.051,148.2a2.785,2.785,0,0,1,1.932,1.99L76.5,152.5a6.816,6.816,0,0,1-.2,2.634h0a8.714,8.714,0,0,1-6.256,6.306.293.293,0,0,1,0,.117h0c.368,1.673,2.718,3.931,1.121,4.516-1.765.661-3.9,3.345-6.222,4.182-10.68,2.509-11.834-4.182-12.879-8.162a9.316,9.316,0,0,1,2.8-9.2,11.876,11.876,0,0,1,3.061-1.99,17.563,17.563,0,0,1,2.041-.778c.753.059,1.4.184,1.4.184l.493-.393,2.183-1.748a1.171,1.171,0,0,1,1.731.418l.552.937c.711-.176,4.608-1.5,4.608-1.5A5.8,5.8,0,0,1,74.051,148.2Z" transform="translate(-49.564 -147.89)" fill="#ffc990"/>
      <path id="Trazado_162323" data-name="Trazado 162323" d="M74.111,168.462c-.209,1.363-1.43,2.2-3.078,2.71a8.547,8.547,0,0,1-.886.234,48.538,48.538,0,0,1-8.7.661H60.3c-5.536.117-7.8-.945-9.25-3.872a22.07,22.07,0,0,1-1.338-3.88c-1.213-4.566-.427-8.438,1.3-10.036a2.852,2.852,0,0,1,3.4-.46h0c0,.544.067,1.045.109,1.514.836,8.681,4.491,6.038,13.138,4.182a20.406,20.406,0,0,1,.686,2.183.108.108,0,0,1-.05.084c-.619.836-2.509,2.86-2.651,2.986a11.659,11.659,0,0,1,3.755-.978h.167a3.929,3.929,0,0,1,.544,0h0a3.914,3.914,0,0,1,2.459.836h0a3.346,3.346,0,0,1,.594.636,5.854,5.854,0,0,1,.937,3.2Z" transform="translate(-49.13 -148.8)" fill="#3c3c3b"/>
      <path id="Trazado_162324" data-name="Trazado 162324" d="M69.938,167.435c1.673-.452,3.195-2.367,2.9-3.454s-1.606-.6-3.27-.167c-1.1.284-2.735.427-2.76,1.714C66.785,166.649,67.5,168.07,69.938,167.435Z" transform="translate(-52.024 -150.415)" fill="#ffc990"/>
    </g>
    <path id="Trazado_162325" data-name="Trazado 162325" d="M77.616,148.26a2.785,2.785,0,0,1,1.932,1.99l.519,2.308a6.816,6.816,0,0,1-.2,2.634h0a7.527,7.527,0,0,1-2.843,1.99,22.683,22.683,0,0,1-3.462,1.062,5.679,5.679,0,0,0,2.509-1.957,10.036,10.036,0,0,0,1.422-2.869,9.375,9.375,0,0,0,.544-3.136A5.637,5.637,0,0,0,77.616,148.26Z" transform="translate(-53.129 -147.95)" fill="#050504" opacity="0.1"/>
  </g>
  <path id="Trazado_162326" data-name="Trazado 162326" d="M140.919,164.255c-.385,1.3-.836,2.609-1.3,3.922l-.1.293c-.259.7-.527,1.413-.836,2.108h-.636c-2.509,0-9.835,0-18.4.067H117.97l-8.279.059H106.7c-10.8.084-16.35,1.1-22.02-1.94a16.82,16.82,0,0,1-1.5-.895l-.385-.117-2.375-.736h0c.176-.711.335-1.413.493-2.133l.217-1.062h0c.611-3.061,1.054-6.047,1.614-8.4.1-.443.209-.836.326-1.246,0,0,5.018-4.75,10.036-6.69a32.123,32.123,0,0,1,8.539-1.915c.569-.05,1.154-.084,1.748-.109,1.2-.05,2.509,0,3.805,0,6.2-1.4,35.234,1.982,35.811,3.554C143.5,153.525,142.583,158.811,140.919,164.255Z" transform="translate(-43.271 -75.168)" fill="#ffc990"/>
  <path id="Trazado_162327" data-name="Trazado 162327" d="M205.561,153.431l-1.045,13.456-.385,4.959h-1.1c-7.962.167-14.677.535-22.2,0a101.028,101.028,0,0,1-10.947-1.3c-1.121-.2-2.275-.427-3.471-.669l-.05-.368L166.045,167l-1.815-13.565c3.755-.4,7.242-.652,10.5-.836C188.115,151.984,197.49,153.071,205.561,153.431Z" transform="translate(-56.99 -76.362)" fill="#00bcd4"/>
  <path id="Trazado_162328" data-name="Trazado 162328" d="M254.5,158.375l-1.213,10.688-.276,2.509-.067.519h-.2c-20.573.151-28.878.309-42.167,0h0l.677-4.951,1.848-13.49a316.909,316.909,0,0,0,39.307,4.633Z" transform="translate(-64.577 -76.565)" fill="#00bcd4"/>
  <path id="Trazado_162329" data-name="Trazado 162329" d="M168.518,172.076,101.253,170.4,96.62,159.8c6.816.477,9.308-.761,12.687-4.3,1.673,2.743,16.1,5.561,25.5,7.61C150.269,166.506,149.818,168.756,168.518,172.076Z" transform="translate(-45.923 -76.867)" fill="#1d1d1b" opacity="0.1"/>
  <path id="Trazado_162330" data-name="Trazado 162330" d="M122.481,163.611l-1.188,7.728-.284,1.848v.159h-.953l-9.015-.084-15-.142c-4.625-.836-6.381-3.069-7.025-4.959a6.356,6.356,0,0,1-.293-2.9c1.037-4.859,6.858-5.118,10.036-4.541,5.762,1.012,21.05,2.626,23.417,2.869h.251Z" transform="translate(-44.621 -77.685)" fill="#ffc990"/>
  <path id="Trazado_162331" data-name="Trazado 162331" d="M175.65,168.649c-.109-.836-1.045-.786-1.581-.619a40.739,40.739,0,0,1-4.4.836c-.385.159-.761.209-1.154.351a7.717,7.717,0,0,0-1.087.452c-.276.343-.46.619-.769,1.07a22.163,22.163,0,0,0,7.075-.786C174.3,169.753,175.751,169.369,175.65,168.649Z" transform="translate(-57.387 -78.902)" fill="#ffc990"/>
  <path id="Trazado_162332" data-name="Trazado 162332" d="M181.273,173.974h0a.61.61,0,0,1-.535.6H163.61l.184-2.618.142-2.049c0,.067.134.075.368.067a11.972,11.972,0,0,0,1.673-.268c1.673-.335,4.014-.836,5.018-.978h.234a2.024,2.024,0,0,1,.736.142l1.673.636.686.268,2.225.836a2.049,2.049,0,0,1,.426.217l2.6,1.673,1.48.953a.611.611,0,0,1,.217.519Z" transform="translate(-56.888 -79.033)" fill="#ffc990"/>
  <path id="Trazado_162333" data-name="Trazado 162333" d="M157.912,169.189l-.493,4.583v.05H131.125a28.436,28.436,0,0,1-5.177.117h0l-.544-.067a.418.418,0,0,1-.192-.075c-.335-.226-.5-.945-.5-1.89,0-2.827,1.28-7.711,3.345-7.727h.3l16.994,2.726,1.806.293.987.159,3.262.519Z" transform="translate(-50.521 -78.288)" fill="#ffc990"/>
  <path id="Trazado_162334" data-name="Trazado 162334" d="M237.823,169.63l-.2,4.416-3.287.084c-1.363,0-2.559,0-3.6-.05a28.965,28.965,0,0,1-4,0c-20.573.151-28.878.3-42.167,0h0c-7.962.167-14.669.535-22.2,0H119.143a28.436,28.436,0,0,1-5.177.117h0l-9.015-.084h-2.994c-10.8.084-16.35,1.1-22.02-1.94a16.83,16.83,0,0,1-1.5-.895l-.385-.117-2.375-.736H74.567c-.209,1.363-1.43,2.2-3.078,2.71a8.54,8.54,0,0,1-.886.234,48.537,48.537,0,0,1-8.7.661H60.76c-5.536.117-7.8-.945-9.25-3.872a29.963,29.963,0,0,0,2.919.836h0a21.485,21.485,0,0,0,11.449-.393,16.65,16.65,0,0,0,4.048-1.062,13.378,13.378,0,0,0,1.614-.761h0a6.607,6.607,0,0,0,5.085-2.927c0,1.129,5.7,3.253,6.281,3.153,8.472,2.107,18.6,2.969,29.806,3.153h2.509c6.013,0,12.319-.084,18.825-.309h1.288l3.412-.125,6.691-.284h.309c.728.109,1.464.192,2.208.276q2.409.268,4.943.36h0c2.643.1,5.386.075,8.288-.059a214.134,214.134,0,0,0,24.1-2.885l.544-.092.259.059a116.394,116.394,0,0,0,37.91,2.3l1.4-.125,1.882-.2c2.935-.318,5.946-.719,9.091-1.2Z" transform="translate(-38.539 -78.562)" fill="#1d1d1b" opacity="0.1"/>
  <rect id="Rectángulo_32826" data-name="Rectángulo 32826" width="204.712" height="3.245" transform="translate(2.149 101.138)" fill="#706f6f"/>
  <g id="Grupo_75323" data-name="Grupo 75323" transform="translate(170.407 103.304)">
    <path id="Trazado_162335" data-name="Trazado 162335" d="M249.244,271.5a4.742,4.742,0,1,1-4.742-4.742,4.742,4.742,0,0,1,4.742,4.742Z" transform="translate(-239.76 -198.383)" fill="#3c3c3b"/>
    <rect id="Rectángulo_32827" data-name="Rectángulo 32827" width="3.713" height="68.995" transform="translate(7.636)" fill="#878787"/>
    <path id="Trazado_162336" data-name="Trazado 162336" d="M244.792,272.6h0a1.572,1.572,0,0,1-1.464-1l-1.9-4.842h6.749l-1.9,4.842a1.572,1.572,0,0,1-1.489,1Z" transform="translate(-240.033 -198.383)" fill="#12263f"/>
    <path id="Trazado_162337" data-name="Trazado 162337" d="M251.474,267.316H240.15v-2.843a1.213,1.213,0,0,1,1.213-1.213h8.9a1.213,1.213,0,0,1,1.213,1.213Z" transform="translate(-239.824 -197.81)" fill="#706f6f"/>
    <path id="Trazado_162338" data-name="Trazado 162338" d="M246.113,271.956a.836.836,0,1,1-.836-.836A.836.836,0,0,1,246.113,271.956Z" transform="translate(-240.526 -199.097)" fill="#3c3c3b"/>
  </g>
  <rect id="Rectángulo_32828" data-name="Rectángulo 32828" width="182.199" height="3.713" transform="translate(14.368 160.516)" fill="#878787"/>
</svg>
