<svg xmlns="http://www.w3.org/2000/svg" width="215" height="120.837" viewBox="0 0 215 120.837">
  <g id="Capa_2" data-name="Capa 2" transform="translate(-23.063 -91.937)">
    <g id="Grupo_75408" data-name="Grupo 75408" transform="translate(23.063 91.937)">
      <path id="Trazado_162748" data-name="Trazado 162748" d="M95.929,212.012c.109-.836,1.1-.836,1.673-.661,1,.309,2.751.569,4.667.912.41.167.836.226,1.221.368a9.349,9.349,0,0,1,1.162.485c.293.36.477.661.836,1.137a23.66,23.66,0,0,1-7.527-.836C97.367,213.183,95.82,212.774,95.929,212.012Z" transform="translate(-35.272 -126.518)" fill="#f2bf89"/>
      <path id="Trazado_162749" data-name="Trazado 162749" d="M86.69,216.8h0a.644.644,0,0,0,.569.644h.1l9.484-1.321,3.931.544c2.651,0,5.461-1.505,5.277-4.182v-.05c0,.067-.142.084-.393.067a17.8,17.8,0,0,1-1.765-.284c-1.815-.351-4.265-.92-5.319-1.037h-.251a2.3,2.3,0,0,0-.786.151l-1.731.677-.728.284-2.367.92a1.731,1.731,0,0,0-.443.234l-3.7,1.765-1.572,1A.661.661,0,0,0,86.69,216.8Z" transform="translate(-34.05 -126.505)" fill="#f2bf89"/>
      <g id="Grupo_75404" data-name="Grupo 75404" transform="translate(58.423)">
        <g id="Grupo_75401" data-name="Grupo 75401" transform="translate(9.594 27.948)">
          <path id="Trazado_162750" data-name="Trazado 162750" d="M109.108,184.8c2.409-9.843,15.054-5.67,10.671,3.512L108.33,209.13l-6.69-1.38Z" transform="translate(-101.64 -149.208)" fill="#f2bf89"/>
          <path id="Trazado_162751" data-name="Trazado 162751" d="M129.5,151.93l-2.91,13.381-3.471,14.083-10.42-4.976,1.924-11.24,2.6-13.582C118.9,140.682,131.35,141.176,129.5,151.93Z" transform="translate(-103.45 -143.349)" fill="#d99651"/>
          <path id="Trazado_162752" data-name="Trazado 162752" d="M120.51,188.98c1.02.585,2.032-.953,2.643-2.726.427-2.091,1.171-3.42.452-3.73l-10.872-4.34c-1.02-.46-2.76,4.115-2,4.3Z" transform="translate(-103.098 -149.046)" fill="#c48849"/>
        </g>
        <path id="Trazado_162753" data-name="Trazado 162753" d="M181.468,225.562l-2.166,7.36.795,1.673a4.7,4.7,0,0,1,1.321,0l.427.059a11.993,11.993,0,0,1,3.738,1.673c.895.527,2.024,2.124,3.437,3.554.293.284.569.569.836.836,1.522,1.581,2.668,2.952,3.872,3.345,1,.493,2.141-.217,3.68-.836a.56.56,0,0,0,.418-.527,20.072,20.072,0,0,0-2.467-8.857l-1.338-2.291-1.556-2.7-1.823-3.153a2.169,2.169,0,0,0-.159-.276l-.56-1.112-.167-.284-1.162-2.25a6.991,6.991,0,0,0-.836-1.246l-1.146-1.321a.485.485,0,0,0-.36-.176,19.109,19.109,0,0,0-3.22,1.949,40.416,40.416,0,0,0-3.4,2.509h-.05c-.167.151-.577.836-1.263,1.547-.46.493,4.182.05,3.487.418a2.75,2.75,0,0,1-.343.109Z" transform="translate(-104.593 -127.79)" fill="#61483e"/>
        <path id="Trazado_162754" data-name="Trazado 162754" d="M134.009,233.713a8.647,8.647,0,0,0,.519,1.129.4.4,0,0,1,0,.067,7.654,7.654,0,0,0,.912,1.313c.05.05.092.109.142.167a8.037,8.037,0,0,0,3.63,2.317c4.023,1.38,6.874-.669,8.363-4.5a9.2,9.2,0,0,0,.309-.886c.151-.318,2-4.516,4.265-10.738h0c1.79-4.926,3.847-11.123,5.545-17.688.326-1.254.644-2.509.937-3.822.234-1.029.46-2.074.677-3.111.067-.493.134-.953.167-1.4h0a14.92,14.92,0,0,0,.075-1.89,11.013,11.013,0,0,0-.276-2.367,7.319,7.319,0,0,0-.527-1.5A5.21,5.21,0,0,0,157,188.753c-5.227-3.529-16.726,2.9-16.726,2.9-.393,2.2-.736,4.182-1.045,5.9l-.151.836-.577,3.22c-2.049,11.641-2.066,11.951-4.182,24.061-.142.836-.309,1.756-.477,2.735a8.438,8.438,0,0,0,.167,5.311Z" transform="translate(-97.26 -122.66)" fill="#785039"/>
        <path id="Trazado_162755" data-name="Trazado 162755" d="M135.619,241.109v.059c.159.176.6.7,1.079,1.179l.159.151a6.083,6.083,0,0,0,.585.519,8.179,8.179,0,0,0,5.8,1.514c20.364-3.588,25.926-3.027,31.337-4.014l.36-4.248.209-2.509L175,222.05s-11.943,1.99-23.5,4.558h0c-7.033,1.556-12.946,3.278-14.577,4.826,0,.042-.318,1.84-.619,3.864C135.937,238,135.569,241.034,135.619,241.109Z" transform="translate(-97.608 -128.284)" fill="#785039"/>
        <path id="Trazado_162756" data-name="Trazado 162756" d="M194.927,225.557l-2.166,7.36.794,1.673a4.692,4.692,0,0,1,1.321,0l.427.059a11.867,11.867,0,0,1,3.73,1.673c.9.527,2.032,2.124,3.446,3.554l.836.836c1.522,1.581,2.668,2.952,3.872,3.345.987.493,2.141-.217,3.68-.836a.544.544,0,0,0,.41-.527,19.9,19.9,0,0,0-2.459-8.856l-1.338-2.291-1.564-2.7L204.1,225.69c-.059-.1-.1-.192-.159-.276l-.56-1.112-.167-.309-1.171-2.25a6.539,6.539,0,0,0-.836-1.246l-1.154-1.321A.477.477,0,0,0,199.7,219a18.692,18.692,0,0,0-3.228,1.949,41.96,41.96,0,0,0-3.4,2.509h-.042c-.176.151-.585.836-1.263,1.547-.46.493,4.182.05,3.479.418a2.165,2.165,0,0,1-.326.134Z" transform="translate(-106.795 -127.785)" fill="#61483e"/>
        <path id="Trazado_162757" data-name="Trazado 162757" d="M147.952,234.145a9.065,9.065,0,0,0,.661,1.062.192.192,0,0,1,.05.059,7.218,7.218,0,0,0,1.07,1.179l.167.151a8.037,8.037,0,0,0,3.889,1.831c4.182.836,6.741-1.547,7.719-5.545.075-.293.134-.6.192-.912s1.4-4.742,2.843-11.2h0c1.137-5.118,2.383-11.524,3.211-18.248.167-1.3.309-2.6.443-3.914.1-1.054.184-2.116.268-3.17v-1.422h0a17.682,17.682,0,0,0-.167-1.882,10.93,10.93,0,0,0-.585-2.308,7.525,7.525,0,0,0-.711-1.422,5.1,5.1,0,0,0-2-1.8c-5.637-2.835-16.191,5.018-16.191,5.018-.109,2.225-.2,4.182-.276,5.971a5.224,5.224,0,0,1-.042.836c-.059,1.179-.109,2.266-.159,3.27-.535,11.8-.5,12.118-1.045,24.4,0,.836-.084,1.79-.125,2.777a8.472,8.472,0,0,0,.786,5.269Z" transform="translate(-99.478 -122.382)" fill="#8f6044"/>
        <path id="Trazado_162758" data-name="Trazado 162758" d="M148.919,241.121a.193.193,0,0,1,.05.059c.159.176.6.7,1.07,1.179l.167.151a6.082,6.082,0,0,0,.585.518,8.179,8.179,0,0,0,5.8,1.514c20.364-3.588,28.769-3.7,34.18-4.683l-2.3-17.738s-12.068,1.99-23.626,4.558h0c-7.033,1.556-12.946,3.278-14.585,4.826-.042.042-.318,1.84-.611,3.864C149.27,238.01,148.869,241.046,148.919,241.121Z" transform="translate(-99.785 -128.295)" fill="#8f6044"/>
        <path id="Trazado_162759" data-name="Trazado 162759" d="M118.453,138.158a9.133,9.133,0,0,1-4.3,3.345l-8.714-11.9c.778-.535,4.533-4.29,7.3-7.142l6.69,7.125.937.987a.426.426,0,0,1,.176,0C121.74,130.806,120.009,136.159,118.453,138.158Z" transform="translate(-92.668 -111.982)" fill="#f0bd87"/>
        <g id="Grupo_75402" data-name="Grupo 75402">
          <path id="Trazado_162760" data-name="Trazado 162760" d="M113.872,123.535c.836,1.455-2.358,1.673-3.722,2.777l-.125.109a8.74,8.74,0,0,1-.452,10.822l-.2.192-1.857,1.447c-1.79,1.346-4.081-.067-5.227-1.539l-.284-.46-1.2-1.89h0c-.376-.594-.736-1.154-.962-1.489a2.653,2.653,0,0,0-.167-.226l-1.012.376a1.188,1.188,0,0,1-1.614-.769l-.577-2.735-.167-.619a10.7,10.7,0,0,1-1.188-.744,14.267,14.267,0,0,1-1.112-1.848,11.959,11.959,0,0,1-1.121-3.471,9.316,9.316,0,0,1,3.638-8.882c1.547-1.112,3.5-2.685,5.854-3.153l.5-.084c2.509-.318,5.453.753,8.79,5.068C112.927,118.492,112.885,121.921,113.872,123.535Z" transform="translate(-90.596 -110.155)" fill="#ffc990"/>
          <path id="Trazado_162761" data-name="Trazado 162761" d="M114.69,125.5c-5.018,5.637-6.632-3.663-6.632-3.663s-1.413,1.037-1.464,2c-.711.611-1.188.937-1.765,1.438-5.8-7.3-5.311-9.827-12.369-2.066-5.578-2.057.435-9.057,3.161-10.972,4.809-3.345,10.73-3.1,14.309,1.054C112.014,115.7,113.319,116.955,114.69,125.5Z" transform="translate(-90.169 -109.931)" fill="#61483e"/>
          <path id="Trazado_162762" data-name="Trazado 162762" d="M112.518,123.727c1,1.4.97,3.847.059,4.5s-1.622-.552-2.634-1.932c-.669-.92-1.848-2.066-1.054-3.069S111.046,121.678,112.518,123.727Z" transform="translate(-93.189 -111.961)" fill="#ffc990"/>
        </g>
        <path id="Trazado_162763" data-name="Trazado 162763" d="M157.119,184.113l-.226.167a32.179,32.179,0,0,1-3.4,2.141c-5.628,3.128-12.461,4.892-15.38,1.673-3.487-3.83-11.031-15.246-13.615-19.352a82.068,82.068,0,0,1-5.854-10.772h0v-.084a31.286,31.286,0,0,1-2.768-12.812c0-1.263.05-2.032.05-2.032h0a12.32,12.32,0,0,0,3.145-3.855,26.461,26.461,0,0,0,3.094-7.067h.1a16.769,16.769,0,0,1,1.781.217,22.915,22.915,0,0,1,8.1,3.287l.151.092c5.67,3.5,18.683,23.107,24.889,32.106.41.6,2.225,4.483,4.767,9.1C162.864,178.686,160.614,181.529,157.119,184.113Z" transform="translate(-94.377 -113.563)" fill="#e69f56"/>
        <path id="Trazado_162764" data-name="Trazado 162764" d="M110.895,141.286c-.192,4.382-7.527,4.876-7.527-.36,0-.544-.761-1.2-1.2-1.89h0c-.519.226-1.355-1.087-.962-1.489a1.422,1.422,0,0,1,.5-.41,8.155,8.155,0,0,1,2.258-1,4.182,4.182,0,0,1,2.434.084,6.214,6.214,0,0,1,2.409,1.99,17.413,17.413,0,0,1,1.965,2.718A1.514,1.514,0,0,1,110.895,141.286Z" transform="translate(-91.959 -114.198)" fill="#61483e"/>
        <path id="Trazado_162765" data-name="Trazado 162765" d="M107,139.649a1.589,1.589,0,0,1-.552,1.581,1.547,1.547,0,0,1-1.614.243c-.226-.159-.376-.619-.652-.585a2.417,2.417,0,0,0-.652.427l-1.2-1.89h0q.209-.134.427-.251a7.05,7.05,0,0,1,1.673-.694,2.835,2.835,0,0,1,1.748.059A1.447,1.447,0,0,1,107,139.649Z" transform="translate(-92.159 -114.586)" fill="#ffc990"/>
        <path id="Trazado_162766" data-name="Trazado 162766" d="M158.948,187.061l-.368.243-3.4,2.141c-5.628,3.128-12.461,4.892-15.38,1.673-3.487-3.83-11.031-15.246-13.615-19.352l3.186-17.32,6.64-3.855L134.7,173.513c5.578,15.514,12.6,19.235,24.1,13.665Z" transform="translate(-96.065 -116.587)" fill="#1d1d1b" opacity="0.1"/>
        <g id="Grupo_75403" data-name="Grupo 75403" transform="translate(11.467 28.287)">
          <path id="Trazado_162767" data-name="Trazado 162767" d="M112.343,184.553c2.835-9.735,15.254-5.018,10.5,3.964L110.52,208.773l-6.64-1.673Z" transform="translate(-103.88 -149.549)" fill="#ffc990"/>
          <path id="Trazado_162768" data-name="Trazado 162768" d="M134.155,152.565l-3.487,13.256-4.073,13.925L116.4,174.326l2.375-11.131,3.186-13.456C124.044,140.865,136.43,141.9,134.155,152.565Z" transform="translate(-105.929 -143.754)" fill="#e69f56"/>
          <path id="Trazado_162769" data-name="Trazado 162769" d="M123.794,189.115c.987.627,2.066-.836,2.751-2.609.519-2.074,1.321-3.345.611-3.713l-10.7-4.8c-1-.5-2.935,4-2.183,4.182Z" transform="translate(-105.554 -149.352)" fill="#d1914e"/>
        </g>
      </g>
      <path id="Trazado_162770" data-name="Trazado 162770" d="M242.31,248.753a3.84,3.84,0,0,1-3.527,4.073H30.837a3.834,3.834,0,0,1-3.527-4.073h0a3.835,3.835,0,0,1,3.527-4.073H238.765a3.823,3.823,0,0,1,3.527,4.073Z" transform="translate(-27.31 -131.988)" fill="#131313" opacity="0.1"/>
      <g id="Grupo_75407" data-name="Grupo 75407" transform="translate(1.712 89.022)">
        <path id="Trazado_162771" data-name="Trazado 162771" d="M263.839,243.7l-3.446.426q-1.455.159-2.685.251a29.721,29.721,0,0,1-4.232,0c-1.422-.117-2.191-.36-2.292-.585a8.73,8.73,0,0,1-.644-2.291c-.527-3.245-.067-7.987,2.241-11.324l.309-.468c2.158-3.471,3.078-8.647,4.048-10.036,1.464-2.082,5.118-1.673,5.118-1.673l.05.761,1.129,16.4-1.673,3.211,1.815.636.042.895Z" transform="translate(-63.456 -216.638)" fill="#2e2e2d"/>
        <path id="Trazado_162772" data-name="Trazado 162772" d="M158.253,241.59c-6.13,4.918-16.86,4.29-22.146.084-1.154-7.268-1.464-13.966,0-19.5,8.288-.4,20,1.89,26.218,2.86Z" transform="translate(-46.014 -217.318)" fill="#00bcd4"/>
        <path id="Trazado_162773" data-name="Trazado 162773" d="M265.776,235.914l-1.965,3.044,1.731.836-.217,4.692-3.479.084c-1.438,0-2.718,0-3.822-.05a21.744,21.744,0,0,1-3.989-.535c-.836-.209-1.254-.435-1.321-.611a8.27,8.27,0,0,1-.376-1.848c-.343-3.3.527-8.288,3.278-11.549s4.182-8.681,5.352-10.036a3.6,3.6,0,0,1,1.673-1.045,8.238,8.238,0,0,1,3.6-.151Z" transform="translate(-63.771 -216.744)" fill="#3c3c3b"/>
        <g id="Grupo_75406" data-name="Grupo 75406" transform="translate(0 3.097)">
          <path id="Trazado_162774" data-name="Trazado 162774" d="M66.975,228.15v13.866l-5.8.184h0l-1.188.042-4.867.151-.025-.937v-.192l-.084-3.722v-.259l-.05-2.149-.117-5.311,3.513-.485,3.513-.485,2.116-.293Z" transform="translate(-33.528 -221.402)" fill="#f0b87d"/>
          <g id="Grupo_75405" data-name="Grupo 75405">
            <path id="Trazado_162775" data-name="Trazado 162775" d="M55.7,220.39a2.961,2.961,0,0,1,2.057,2.133l.552,2.45a7.326,7.326,0,0,1-.217,2.793h0a9.258,9.258,0,0,1-6.632,6.69v.125c.385,1.806,2.877,4.182,1.188,4.792-1.873.694-4.131,3.538-6.6,4.424-11.34,2.643-12.545-4.491-13.665-8.664a9.877,9.877,0,0,1,2.977-9.718,12.7,12.7,0,0,1,3.253-2.107,17.2,17.2,0,0,1,2.166-.836,14.472,14.472,0,0,1,1.489.192l.519-.418L45.1,220.39a1.246,1.246,0,0,1,1.84.435l.577,1c.753-.184,4.892-1.581,4.892-1.581a6.063,6.063,0,0,1,3.287.151Z" transform="translate(-29.805 -220.081)" fill="#f0b87d"/>
            <path id="Trazado_162776" data-name="Trazado 162776" d="M55.82,241.881c-.217,1.447-1.514,2.325-3.262,2.869a9.54,9.54,0,0,1-.937.251c-3.145.728-7.234.611-9.2.7H41.21c-5.854.125-8.279-1-9.818-4.106a23.817,23.817,0,0,1-1.413-4.115c-1.288-4.851-.452-8.957,1.388-10.663a3.019,3.019,0,0,1,3.6-.485h0a15.385,15.385,0,0,0,.117,1.606c.878,9.2,4.767,6.406,13.941,4.407.385,1.1.385,1.1.728,2.325a.384.384,0,0,1-.059.084c-.661.836-2.685,3.027-2.81,3.17a12.152,12.152,0,0,1,3.914-1h.176a4.427,4.427,0,0,1,.577,0h0a4.248,4.248,0,0,1,2.618.92h0a3.279,3.279,0,0,1,.636.677,6.122,6.122,0,0,1,1.012,3.362Z" transform="translate(-29.357 -221.041)" fill="#3c3c3b"/>
            <path id="Trazado_162777" data-name="Trazado 162777" d="M51.35,240.786c1.756-.477,3.345-2.509,3.078-3.663s-1.673-.636-3.471-.176c-1.171.3-2.9.46-2.927,1.815C48,239.958,48.757,241.489,51.35,240.786Z" transform="translate(-32.413 -222.756)" fill="#f0b87d"/>
          </g>
          <path id="Trazado_162778" data-name="Trazado 162778" d="M59.479,220.45a2.961,2.961,0,0,1,2.057,2.133l.552,2.45a7.326,7.326,0,0,1-.217,2.793h0a8.1,8.1,0,0,1-3.019,2.116,23.883,23.883,0,0,1-3.671,1.121,5.929,5.929,0,0,0,2.651-2.074,10.3,10.3,0,0,0,1.505-3.036,9.91,9.91,0,0,0,.585-3.345,5.9,5.9,0,0,0-.443-2.158Z" transform="translate(-33.584 -220.141)" fill="#050504" opacity="0.1"/>
        </g>
        <path id="Trazado_162779" data-name="Trazado 162779" d="M126.647,237.312c-.41,1.38-.878,2.768-1.388,4.182l-.1.309c-.276.744-.56,1.5-.836,2.241h-.677c-2.626,0-10.429,0-19.536.067h-1.823l-8.773.067H90.326c-11.457.092-17.345,1.179-23.358-2.057-.527-.276-1.062-.594-1.6-.945l-.4-.125-2.509-.786h0c.184-.744.351-1.5.519-2.258l.234-1.129h0c.644-3.245,1.121-6.414,1.673-8.915.117-.468.226-.912.351-1.33h0a1.654,1.654,0,0,1,.117-.41c.385-.836,2.559-1.965,2.559-1.965a24.4,24.4,0,0,1,8-4.675,33.72,33.72,0,0,1,9.057-2.024c.6-.059,1.221-.092,1.857-.117,1.271-.059,2.618-.042,4.031,0,6.582-1.489,27.841-2.183,37.417,3.245l.56.335v.192C129.382,225.914,128.412,231.517,126.647,237.312Z" transform="translate(-34.776 -216.378)" fill="#ff9d00"/>
        <path id="Trazado_162780" data-name="Trazado 162780" d="M107.1,236.735l-1.263,8.2-.3,1.957v.176h-1l-9.567-.084-15.89-.151c-4.909-.836-6.774-3.253-7.452-5.26a6.8,6.8,0,0,1-.318-3.078c1.1-5.152,7.276-5.428,10.688-4.826,6.113,1.079,22.338,2.793,24.838,3.053h.259Z" transform="translate(-33.857 -219.17)" fill="#f7b242"/>
        <path id="Trazado_162781" data-name="Trazado 162781" d="M195.229,225.929,194.117,240.2l-.41,5.269h-1.162c-8.438.176-15.564.569-23.542,0a105.829,105.829,0,0,1-11.608-1.43c-1.188-.209-2.417-.452-3.68-.711l-.05-.393-.36-2.659-1.915-14.393c3.989-.418,7.686-.694,11.131-.836C176.722,224.39,186.649,225.553,195.229,225.929Z" transform="translate(-47.113 -217.765)" fill="#00bcd4"/>
        <path id="Trazado_162782" data-name="Trazado 162782" d="M247.157,231.179l-1.28,11.34-.3,2.668-.067.552h-.176c-21.828.159-30.642.326-44.734,0h0l.719-5.252,1.965-14.318a336.927,336.927,0,0,0,41.665,4.876Z" transform="translate(-55.314 -217.981)" fill="#00bcd4"/>
        <path id="Trazado_162783" data-name="Trazado 162783" d="M163.491,242.083c-.117-.836-1.112-.836-1.673-.652-1,.309-2.751.569-4.658.9-.418.167-.836.226-1.229.376a8.663,8.663,0,0,0-1.154.477c-.293.368-.485.661-.836,1.137a23.634,23.634,0,0,0,7.527-.836C162.052,243.254,163.591,242.844,163.491,242.083Z" transform="translate(-45.704 -220.462)" fill="#ffc990"/>
        <path id="Trazado_162784" data-name="Trazado 162784" d="M169.457,247.693h0a.652.652,0,0,1-.569.644h-18.2l.192-2.777.151-2.166c0,.067.142.084.393.067a17.81,17.81,0,0,0,1.765-.284c1.815-.36,4.265-.92,5.319-1.037h.259a2.107,2.107,0,0,1,.778.151l1.731.677.728.284,2.367.92a1.931,1.931,0,0,1,.452.234l2.76,1.773,1.572,1A.661.661,0,0,1,169.457,247.693Z" transform="translate(-45.031 -220.595)" fill="#ffc990"/>
        <path id="Trazado_162785" data-name="Trazado 162785" d="M142.066,238.721c-.251,1.43-.51,2.726-.744,3.763-.142.6-.276,1.129-.4,1.53-.184.619-.351.978-.477.978H135.56v-.117c.268-.719.51-1.455.736-2.208.084-.268.159-.527.234-.794.376-1.254.7-2.551,1-3.872,1.162-5.018,1.882-10.454,2.6-15.89a3.44,3.44,0,0,1,.067-.5l3.7.276c.075,0,.134.176.159.477C144.291,224.395,143.162,232.758,142.066,238.721Z" transform="translate(-46.615 -217.234)" fill="#f7b242"/>
        <path id="Trazado_162786" data-name="Trazado 162786" d="M144.7,242.408v.243l-.226,2.082-.3,2.785v.05H116.256a29.654,29.654,0,0,1-5.495.117h0a1.992,1.992,0,0,1-.577-.059.578.578,0,0,1-.209-.084c-.351-.243-.527-1.012-.535-2.007,0-3,1.363-8.179,3.6-8.2h.318l18.022,2.894,1.924.309,1.045.167,3.454.552Z" transform="translate(-37.974 -219.809)" fill="#f7b242"/>
      </g>
      <path id="Trazado_162787" data-name="Trazado 162787" d="M232.22,243.118,232,247.809l-3.528.084c-1.467,0-2.756,0-3.875-.05a30.558,30.558,0,0,1-4.291,0c-22.133.159-31.072.326-45.361,0h0c-8.557.184-15.782.577-23.88,0H104.55a31.358,31.358,0,0,1-5.572.125h0l-9.693-.092H86.055c-11.618.092-17.588,1.179-23.685-2.057-.534-.276-1.077-.594-1.62-.945l-.407-.125-2.544-.786h0l-1.238.075c-.22,1.447-1.535,2.325-3.307,2.869a9.782,9.782,0,0,1-.95.251c-3.189.728-7.335.611-9.328.7h-1.23c-5.936.125-8.4-1-9.956-4.106a32.11,32.11,0,0,0,3.172.836h0a23.411,23.411,0,0,0,12.271-.4,17.905,17.905,0,0,0,4.359-1.129,15.349,15.349,0,0,0,1.7-.836,7.076,7.076,0,0,0,5.461-3.1c0,1.2,6.148,3.454,6.784,3.345,9.108,2.233,20,3.145,32.055,3.345h2.7c6.462.05,13.246-.092,20.251-.326h1.425l3.68-.134c2.374-.1,4.766-.192,7.174-.309h.331c.789.109,1.577.2,2.383.284,1.7.192,3.494.309,5.309.385h0c2.832.109,5.792.084,8.9-.059a234.508,234.508,0,0,0,25.933-3.061l.585-.1.28.059a126.69,126.69,0,0,0,40.781,2.442l1.509-.134c.67-.059,1.34-.134,2.027-.209,3.155-.335,6.394-.769,9.769-1.271Z" transform="translate(-28.043 -131.078)" fill="#1d1d1b" opacity="0.1"/>
      <path id="Trazado_162788" data-name="Trazado 162788" d="M97.589,212.012c.117-.836,1.112-.836,1.673-.661,1,.309,2.751.569,4.667.912.41.167.836.226,1.221.368a9.351,9.351,0,0,1,1.162.485c.293.36.477.661.836,1.137a23.634,23.634,0,0,1-7.527-.836C99.036,213.183,97.489,212.774,97.589,212.012Z" transform="translate(-35.465 -126.518)" fill="#ffc990"/>
      <path id="Trazado_162789" data-name="Trazado 162789" d="M88.71,217.6h0a.644.644,0,0,0,.569.644h.109l9.475-1.321,3.931.544c2.659,0,5.461-1.5,5.277-4.182v-.05c0,.067-.151.084-.4.067a17.8,17.8,0,0,1-1.765-.284c-1.806-.351-4.265-.92-5.319-1.037h-.251a2.216,2.216,0,0,0-.778.151l-1.74.7-.728.284-2.358.92a2.291,2.291,0,0,0-.452.234l-3.655,1.773-1.572,1.012A.636.636,0,0,0,88.71,217.6Z" transform="translate(-34.279 -126.636)" fill="#ffc990"/>
    </g>
    <g id="Grupo_75409" data-name="Grupo 75409" transform="translate(176.404 94.854)">
      <path id="Trazado_162790" data-name="Trazado 162790" d="M233.465,123.64l1.48-2.827-2.952-1.547-1.472,2.818a23.417,23.417,0,0,0-7.794-1.923v-3.4H228.1V113.42H214.021v3.345h5.361v3.4a23.417,23.417,0,0,0-7.794,1.924l-1.48-2.818-2.952,1.547,1.48,2.827a23.626,23.626,0,1,0,24.83,0Zm-12.411,40.377a20.289,20.289,0,1,1,20.289-20.289,20.289,20.289,0,0,1-20.289,20.289Z" transform="translate(-197.423 -113.42)" fill="#7e5ee3"/>
      <path id="Trazado_162791" data-name="Trazado 162791" d="M227.017,132.71H223.68v15.84h15.848v-3.337H227.017Z" transform="translate(-201.721 -116.578)" fill="#7e5ee3"/>
    </g>
  </g>
</svg>
