<svg xmlns="http://www.w3.org/2000/svg" width="81.789" height="81.521" viewBox="0 0 81.789 81.521">
  <g id="Capa_2" data-name="Capa 2" transform="translate(-13.42 -13.45)">
    <g id="Grupo_75463" data-name="Grupo 75463" transform="translate(13.42 13.45)">
      <path id="Trazado_163011" data-name="Trazado 163011" d="M59.761,35.586H32.344a2.515,2.515,0,0,1-2.464-2.515V21.7a8.256,8.256,0,0,1,8.248-8.248h15.85A8.256,8.256,0,0,1,62.233,21.7V33.114A2.515,2.515,0,0,1,59.761,35.586ZM34.817,30.674H57.3V21.7a3.353,3.353,0,0,0-3.353-3.353H38.128A3.353,3.353,0,0,0,34.817,21.7Z" transform="translate(-16.084 -13.45)" fill="#7e5ee3"/>
      <g id="Grupo_75461" data-name="Grupo 75461" transform="translate(13.796)">
        <path id="Trazado_163012" data-name="Trazado 163012" d="M64.615,31.62V22.643a3.353,3.353,0,0,0-3.353-3.353H58.63a3.353,3.353,0,0,1,3.353,3.353V31.62Z" transform="translate(-34.533 -14.395)" fill="#582ce3"/>
        <path id="Trazado_163013" data-name="Trazado 163013" d="M32.545,33.114V21.7a8.256,8.256,0,0,1,8.248-8.248H38.128A8.256,8.256,0,0,0,29.88,21.7V33.114a2.515,2.515,0,0,0,2.465,2.515H35.01a2.464,2.464,0,0,1-2.464-2.515Z" transform="translate(-29.88 -13.45)" fill="#582ce3"/>
      </g>
      <path id="Trazado_163014" data-name="Trazado 163014" d="M64.414,29.32H22.363a8.943,8.943,0,0,0-8.943,8.952V68.278a8.943,8.943,0,0,0,8.943,8.935H64.414a8.952,8.952,0,0,0,8.952-8.943v-30A8.952,8.952,0,0,0,64.414,29.32Z" transform="translate(-13.42 -16.018)" fill="#81d4fa"/>
      <path id="Trazado_163015" data-name="Trazado 163015" d="M28.759,77.213h-6.4A8.943,8.943,0,0,1,13.42,68.27v-30a8.943,8.943,0,0,1,8.943-8.952h6.4a8.952,8.952,0,0,0-8.985,8.952V68.278a8.952,8.952,0,0,0,8.985,8.935Z" transform="translate(-13.42 -16.018)" fill="#4e2db8"/>
      <path id="Trazado_163016" data-name="Trazado 163016" d="M82,55.88h8.214v7.275H82Z" transform="translate(-24.518 -20.316)" fill="#f7b242"/>
      <path id="Trazado_163017" data-name="Trazado 163017" d="M82,55.88h8.214v3.168H82Z" transform="translate(-24.518 -20.316)" fill="#fec165"/>
      <path id="Trazado_163018" data-name="Trazado 163018" d="M82,55.88h3.227v7.275H82Z" transform="translate(-24.518 -20.316)" fill="#fec165"/>
      <path id="Trazado_163019" data-name="Trazado 163019" d="M86.938,62.52H79.025A16.235,16.235,0,0,0,62.79,78.764v7.9a16.244,16.244,0,0,0,16.235,16.244h7.912A16.244,16.244,0,0,0,103.2,86.668v-7.9A16.244,16.244,0,0,0,86.938,62.52Z" transform="translate(-21.409 -21.391)" fill="#f7b242"/>
      <path id="Trazado_163020" data-name="Trazado 163020" d="M81.029,102.912h-2A16.244,16.244,0,0,1,62.79,86.668v-7.9A16.235,16.235,0,0,1,79.025,62.52h2A16.235,16.235,0,0,0,64.793,78.764v7.9a16.244,16.244,0,0,0,16.235,16.244Z" transform="translate(-21.409 -21.391)" fill="#fec165"/>
      <path id="Trazado_163021" data-name="Trazado 163021" d="M79.975,98.941A11.332,11.332,0,0,1,68.66,87.618v-7.9A11.332,11.332,0,0,1,79.975,68.39h7.912A11.332,11.332,0,0,1,99.211,79.714v7.9A11.332,11.332,0,0,1,87.888,98.941Z" transform="translate(-22.359 -22.341)" fill="#deecf1"/>
      <path id="Trazado_163022" data-name="Trazado 163022" d="M102.2,79.705V83.9H87.11V68.39h3.763A11.332,11.332,0,0,1,102.2,79.705Z" transform="translate(-25.345 -22.341)" fill="#7e5ee3"/>
      <path id="Trazado_163023" data-name="Trazado 163023" d="M84.146,98.941H79.955A11.332,11.332,0,0,1,68.64,87.618v-7.9A11.332,11.332,0,0,1,79.955,68.39h4.191A11.332,11.332,0,0,0,72.822,79.714v7.9A11.332,11.332,0,0,0,84.146,98.941Z" transform="translate(-22.356 -22.341)" fill="#cbe5e8"/>
      <path id="Trazado_163024" data-name="Trazado 163024" d="M91.152,52H79.594a2.515,2.515,0,0,0,0,4.962H91.152a2.515,2.515,0,0,0,0-4.962Z" transform="translate(-23.788 -19.688)" fill="#f7b242"/>
      <path id="Trazado_163025" data-name="Trazado 163025" d="M82.741,56.191a2.515,2.515,0,0,0,1.752.729H79.615a2.515,2.515,0,0,1,0-4.92H84.51A2.515,2.515,0,0,0,82,54.515,2.439,2.439,0,0,0,82.741,56.191Z" transform="translate(-23.809 -19.688)" fill="#fec165"/>
      <path id="Trazado_163026" data-name="Trazado 163026" d="M86.9,83.188a1.232,1.232,0,0,1-1.232-1.24v-6.4a1.232,1.232,0,0,1,2.464,0v6.4A1.232,1.232,0,0,1,86.9,83.188Z" transform="translate(-25.112 -23.3)" fill="#3e5959"/>
      <circle id="Elipse_4923" data-name="Elipse 4923" cx="2.682" cy="2.682" r="2.682" transform="translate(58.89 58.639)" fill="#537983"/>
      <path id="Trazado_163027" data-name="Trazado 163027" d="M56.386,51.6H53.235a2.322,2.322,0,0,1-2.3-2.322V46.122a2.322,2.322,0,0,0-2.33-2.322H45.255a2.322,2.322,0,0,0-2.322,2.322v3.152A2.322,2.322,0,0,1,40.612,51.6h-3.2a2.33,2.33,0,0,0-2.33,2.322v3.353a2.33,2.33,0,0,0,2.33,2.322h3.152a2.322,2.322,0,0,1,2.322,2.322v3.152a2.322,2.322,0,0,0,2.322,2.372h3.353a2.322,2.322,0,0,0,2.38-2.339V61.946a2.322,2.322,0,0,1,2.322-2.322h3.126A2.322,2.322,0,0,0,58.708,57.3V53.95a2.322,2.322,0,0,0-2.322-2.355Z" transform="translate(-16.925 -18.361)" fill="#7e5ee3"/>
      <g id="Grupo_75462" data-name="Grupo 75462" transform="translate(18.205 25.439)">
        <path id="Trazado_163028" data-name="Trazado 163028" d="M37.655,55.422v3.353A2.322,2.322,0,0,0,39.976,61.1H37.462a2.322,2.322,0,0,1-2.322-2.322V55.422A2.322,2.322,0,0,1,37.462,53.1h2.515a2.322,2.322,0,0,0-2.322,2.322Z" transform="translate(-35.14 -45.305)" fill="#582ce3"/>
        <path id="Trazado_163029" data-name="Trazado 163029" d="M48.82,70.492H46.263a2.322,2.322,0,0,1-2.322-2.322V65A2.322,2.322,0,0,0,41.62,62.68h2.556A2.322,2.322,0,0,1,46.5,65v3.152a2.322,2.322,0,0,0,2.322,2.338Z" transform="translate(-36.189 -46.855)" fill="#582ce3"/>
        <path id="Trazado_163030" data-name="Trazado 163030" d="M44.176,51.6H41.62a2.322,2.322,0,0,0,2.322-2.322V46.122A2.322,2.322,0,0,1,46.263,43.8H48.82A2.322,2.322,0,0,0,46.5,46.122v3.152A2.322,2.322,0,0,1,44.176,51.6Z" transform="translate(-36.189 -43.8)" fill="#582ce3"/>
      </g>
      <path id="Trazado_163031" data-name="Trazado 163031" d="M87.645,99.932H79.733A12.573,12.573,0,0,1,67.16,87.36V79.473A12.573,12.573,0,0,1,79.733,66.9h7.912a12.573,12.573,0,0,1,12.573,12.573v7.9A12.573,12.573,0,0,1,87.645,99.932ZM79.733,69.381A10.1,10.1,0,0,0,69.675,79.439v7.9A10.058,10.058,0,0,0,79.733,97.4h7.912A10.058,10.058,0,0,0,97.7,87.343v-7.87A10.058,10.058,0,0,0,87.645,69.415Z" transform="translate(-22.117 -22.1)" fill="#fec165"/>
    </g>
  </g>
</svg>
