<svg xmlns="http://www.w3.org/2000/svg" xmlns:xlink="http://www.w3.org/1999/xlink" width="179" height="179" viewBox="0 0 179 179">
  <defs>
    <filter id="Elipse_4062" x="0" y="0" width="179" height="179" filterUnits="userSpaceOnUse">
      <feOffset dy="3" input="SourceAlpha"/>
      <feGaussianBlur stdDeviation="3" result="blur"/>
      <feFlood flood-opacity="0.161"/>
      <feComposite operator="in" in2="blur"/>
      <feComposite in="SourceGraphic"/>
    </filter>
  </defs>
  <g id="Grupo_75495" data-name="Grupo 75495" transform="translate(-806 -477)">
    <g id="Grupo_73842" data-name="Grupo 73842" transform="translate(530 -379)">
      <g transform="matrix(1, 0, 0, 1, 276, 856)" filter="url(#Elipse_4062)">
        <circle id="Elipse_4062-2" data-name="Elipse 4062" cx="80.5" cy="80.5" r="80.5" transform="translate(9 6)" fill="#fff"/>
      </g>
    </g>
    <g id="Capa_2" data-name="Capa 2" transform="translate(834 501)">
      <circle id="Elipse_4063" data-name="Elipse 4063" cx="62" cy="62" r="62" fill="#7e5ee3"/>
      <g id="Grupo_73841" data-name="Grupo 73841">
        <path id="Trazado_146741" data-name="Trazado 146741" d="M96.64,61.85a1.21,1.21,0,0,0-1.69.33l-5.41,8A14.15,14.15,0,0,0,86,68.36l-14.48-5a.56.56,0,0,1-.37-.53V60.74a.57.57,0,0,1,.56-.56h5.82a7.79,7.79,0,0,0,7.79-7.79V49.28a.3.3,0,0,1,.31-.3h.92a2.75,2.75,0,0,0,2-4.64l-3.07-3.25a.58.58,0,0,1-.15-.38V38.92a18.831,18.831,0,0,0-1.15-6.48,1.22,1.22,0,1,0-2.29.83,16.29,16.29,0,0,1,1,5.65v1.79a3,3,0,0,0,.82,2.06L86.78,46a.29.29,0,0,1,.09.21.31.31,0,0,1-.31.31h-.92a2.75,2.75,0,0,0-2.75,2.74v1.17H78.12a1.22,1.22,0,1,0,0,2.44h4.75a5.37,5.37,0,0,1-5.33,4.86H71.72a3,3,0,0,0-3,3V62.8a3,3,0,0,0,2,2.83l14.47,5a11.83,11.83,0,0,1,3,1.52L84.89,77h-5a31.11,31.11,0,0,0-4.32-4,4.61,4.61,0,0,0-7.41,3.5l-.88-.64a3.22,3.22,0,0,0-.55-4.2V68.77a3.23,3.23,0,0,0,0-4.84V61a3.24,3.24,0,0,0-2.16-5.67H62.2A3.24,3.24,0,0,0,60,61v2.9a3.23,3.23,0,0,0,0,4.84v2.91a3.22,3.22,0,0,0-1,2.45,3.27,3.27,0,0,0,.53,1.78l-.88.64A4.6,4.6,0,0,0,51.19,73,28.34,28.34,0,0,0,39.8,93.81a4.62,4.62,0,0,0,4.6,4.91h3a1.22,1.22,0,1,0,0-2.44h-3A2.17,2.17,0,0,1,42.24,94,25.92,25.92,0,0,1,52.68,75a2.17,2.17,0,0,1,3.49,1.72v1.62l-6.26,4.55a3.321,3.321,0,0,0,1.43,5.97,4.733,4.733,0,0,0,.53,0,3.27,3.27,0,0,0,1.94-.64l2.36-1.71v7.61A2.17,2.17,0,0,1,54,96.28h-.94a1.22,1.22,0,0,0,0,2.44H54a4.62,4.62,0,0,0,4.61-4.61V84.73l4.75-3.45,4.75,3.45v9.38a4.62,4.62,0,0,0,4.61,4.61h9.6a4.6,4.6,0,0,0,4.59-4.91,27.94,27.94,0,0,0-5.13-14.35h3.76a1.22,1.22,0,0,0,1-.54L90,73.81a11.69,11.69,0,0,1,3.08,7.91v6a1.22,1.22,0,1,0,2.44,0v-6a14.12,14.12,0,0,0-4.12-10L97,63.54a1.22,1.22,0,0,0-.33-1.69ZM62.2,57.8h2.32a.81.81,0,0,1,0,1.62H62.2a.81.81,0,1,1,0-1.62Zm2,4.06V63.1H62.47V61.86Zm-2,3.68h2.32a.82.82,0,0,1,0,1.63H62.2a.82.82,0,0,1,0-1.63Zm2,4.06v1.25H62.47V69.6Zm-2,3.69h2.32a.81.81,0,1,1,0,1.62H62.2a.81.81,0,1,1,0-1.62Zm2.35,5.84a2,2,0,0,0-2.39,0l-9.78,7.11a.88.88,0,0,1-1.39-.85.85.85,0,0,1,.35-.58L61.67,77.3a3.069,3.069,0,0,0,.53,0h2.32a3,3,0,0,0,.52,0l10.28,7.47A.92.92,0,0,1,75.6,86a.87.87,0,0,1-.75.41.85.85,0,0,1-.51-.17ZM84.48,94a2.17,2.17,0,0,1-2.16,2.31h-9.6a2.17,2.17,0,0,1-2.17-2.17V86.5l2.35,1.71a3.32,3.32,0,0,0,4.75-.88,3.36,3.36,0,0,0-.89-4.53l-6.21-4.51V76.67a2.187,2.187,0,0,1,2.21-2.17A2.17,2.17,0,0,1,74,75,25.92,25.92,0,0,1,84.48,94Z" fill="#fff"/>
        <path id="Trazado_146742" data-name="Trazado 146742" d="M94.31,92.16a1.22,1.22,0,0,0-1.22,1.21v7a.78.78,0,0,1-.78.78H34.4a.78.78,0,0,1-.78-.78V81.72A11.72,11.72,0,0,1,41.5,70.66l14.48-5a3,3,0,0,0,2-2.83V53.91a3,3,0,0,0-1.14-2.35A16.13,16.13,0,0,1,75.38,25.22a15.68,15.68,0,0,1,3.91,3.45,1.22,1.22,0,1,0,1.89-1.54,17.88,17.88,0,0,0-4.52-4A18.57,18.57,0,0,0,55.33,53.46a.57.57,0,0,1,.23.45v8.91a.56.56,0,0,1-.38.53l-1.39.48-6-11a1.22,1.22,0,0,0-1.07-.63H43.25l1.94-1.95a6.41,6.41,0,0,0,0-9.07h0a6.42,6.42,0,0,0-9.07,0l-1.64,1.63L32.84,41.2a6.42,6.42,0,0,0-11,4.53,6.56,6.56,0,0,0,.42,2.3A1.22,1.22,0,0,0,23,50.24h.7l9.5,9.5a1.67,1.67,0,0,0,1.21.51,1.7,1.7,0,0,0,1.21-.5l5.12-5.13H46l5.49,10L40.71,68.36a14.15,14.15,0,0,0-9.53,13.36V100.4a3.23,3.23,0,0,0,3.22,3.22H92.31a3.22,3.22,0,0,0,3.22-3.22v-7a1.21,1.21,0,0,0-1.22-1.21ZM34.48,57.54l-7.3-7.3h2l.45,1.39a1.24,1.24,0,0,0,1.13.85h0a1.21,1.21,0,0,0,1.14-.79l.62-1.62,1.18,3.21a1.21,1.21,0,0,0,1.14.8h0A1.22,1.22,0,0,0,36,53.23l1-3.07h1.15a1.22,1.22,0,1,0,0-2.44h-2a1.23,1.23,0,0,0-1.16.84l-.17.55-1.08-2.93a1.22,1.22,0,0,0-1.14-.8h0a1.23,1.23,0,0,0-1.14.78L30.73,48a1.24,1.24,0,0,0-.66-.19H24.9a3.982,3.982,0,0,1,6.22-4.88l2.5,2.5a1.21,1.21,0,0,0,1.72,0l2.5-2.5a3.981,3.981,0,1,1,5.63,5.63Z" fill="#fff"/>
        <path id="Trazado_146743" data-name="Trazado 146743" d="M61.85,39.9h.79a1.22,1.22,0,1,0,0-2.44h-.79a5.045,5.045,0,0,0,0,10.09h.79a1.22,1.22,0,0,0,0-2.44h-.79a2.61,2.61,0,1,1,0-5.21Z" fill="#fff"/>
        <path id="Trazado_146744" data-name="Trazado 146744" d="M77.05,36.4a1.22,1.22,0,0,0-1.22,1.22v1.77a1.22,1.22,0,1,0,2.44,0V37.62a1.21,1.21,0,0,0-1.22-1.22Z" fill="#fff"/>
        <path id="Trazado_146745" data-name="Trazado 146745" d="M102.19,40.6V32.45a1.22,1.22,0,0,0-2.44,0v1.24H92.48V32.45a1.22,1.22,0,0,0-2.44,0V40.6a6.35,6.35,0,0,0,2.53,5l1.52,1.14-1.52,1.14A6.33,6.33,0,0,0,90,53v8.08a1.22,1.22,0,0,0,2.44,0V59.73h7.27v1.32a1.22,1.22,0,0,0,2.44,0V53a6.32,6.32,0,0,0-2.52-5l-1.52-1.14,1.52-1.14a6.34,6.34,0,0,0,2.52-5Zm-9.71-4.47h7.27v2.56H92.48Zm7.27,21.16H92.48V54.73h7.27Zm-1.54-7.41a3.9,3.9,0,0,1,1.48,2.41H92.54A3.91,3.91,0,0,1,94,49.88l2.09-1.57Zm0-6.18-2.09,1.56L94,43.7a3.89,3.89,0,0,1-1.51-2.57h7.2a3.93,3.93,0,0,1-1.51,2.57Z" fill="#fff"/>
        <path id="Trazado_146746" data-name="Trazado 146746" d="M75.35,34.14a1.72,1.72,0,0,0,.43-1.34c-.45-3.77-4.37-6.62-9.12-6.62S58,29,57.54,32.8A1.71,1.71,0,0,0,58,34.14a1.73,1.73,0,0,0,1.29.58H74.06A1.7,1.7,0,0,0,75.35,34.14Zm-15.2-1.85c.76-2.11,3.43-3.67,6.51-3.67s5.75,1.56,6.5,3.67Z" fill="#fff"/>
        <path id="Trazado_146747" data-name="Trazado 146747" d="M43.54,60a1.22,1.22,0,1,0,0-2.44H40.4a1.22,1.22,0,0,0,0,2.44Z" fill="#fff"/>
        <path id="Trazado_146748" data-name="Trazado 146748" d="M24.85,60H28a1.22,1.22,0,1,0,0-2.44H24.85a1.22,1.22,0,0,0,0,2.44Z" fill="#fff"/>
        <path id="Trazado_146749" data-name="Trazado 146749" d="M24.85,63.94H43.54a1.22,1.22,0,1,0,0-2.43H24.85a1.22,1.22,0,1,0,0,2.43Z" fill="#fff"/>
        <path id="Trazado_146750" data-name="Trazado 146750" d="M38.47,66.66a1.22,1.22,0,0,0-1.21-1.22H24.85a1.22,1.22,0,0,0,0,2.44H37.26a1.21,1.21,0,0,0,1.21-1.22Z" fill="#fff"/>
      </g>
    </g>
  </g>
</svg>
