<svg xmlns="http://www.w3.org/2000/svg" width="173.445" height="187.15" viewBox="0 0 173.445 187.15">
  <g id="Capa_2" data-name="Capa 2" transform="translate(0)">
    <g id="Grupo_75057" data-name="Grupo 75057" transform="translate(0 0)">
      <path id="Trazado_161561" data-name="Trazado 161561" d="M226.893,123.375c-1.568-38.7-19.658-77.566-57.139-92.942a55.6,55.6,0,0,0-61.523,12.726C99.449,52.231,95,62.973,92.863,74.382a20.386,20.386,0,0,0-.91,2.211c-1.843,5.363-2.07,11.244-2.541,16.843-.91,10.774-2.737,20.121-10.578,27.962-13.424,13.385-29.068,33.937-19.391,53.775,18.254,37.4,64.353,37.238,99.866,34.839,19.807-1.333,39.206-5.489,52.638-21.383C227.293,170.508,227.818,146,226.893,123.375Z" transform="translate(-56.439 -26.117)" fill="#c0e9fc"/>
      <g id="Grupo_75056" data-name="Grupo 75056" transform="translate(11.179 3.475)">
        <g id="Grupo_75054" data-name="Grupo 75054" transform="translate(13.263 25.354)">
          <path id="Trazado_161562" data-name="Trazado 161562" d="M192.579,149.065c1.286-.784,10.06-11.064,14.279-2.839s31.765,69.411,21.446,73.512-15.079,4.179-21.446-7.622C203.557,206.095,176.261,158.773,192.579,149.065Z" transform="translate(-109.156 -80.19)" fill="#ed9996"/>
          <path id="Trazado_161563" data-name="Trazado 161563" d="M217.622,171.35c-4.822-11.887-9.535-22.089-11.08-25.092-4.219-8.225-12.993,2.078-14.279,2.839-8.759,5.222-7.386,21.4-1.451,36.07C197.093,184.39,210.165,177.741,217.622,171.35Z" transform="translate(-108.856 -80.198)" fill="#00bcd4"/>
          <path id="Trazado_161564" data-name="Trazado 161564" d="M141.189,137.27c-1.8.612-33.239,1.49-45.581,39.387s-6.72,60.605-6.72,60.605H164.76s-7.292-55.187,12.813-71.12S141.189,137.27,141.189,137.27Z" transform="translate(-87.61 -78.942)" fill="#00bcd4"/>
          <path id="Trazado_161565" data-name="Trazado 161565" d="M149.36,137.27s2.768,27.052,13.918,29.467,21.085-18.921,21.085-18.921Z" transform="translate(-100.941 -78.942)" fill="#ed9996"/>
          <g id="Grupo_75050" data-name="Grupo 75050" transform="translate(33.624)">
            <path id="Trazado_161566" data-name="Trazado 161566" d="M213.957,119.984c-.361,5.3-3.521,9.41-7.057,9.174s-6.14-4.7-5.779-10.037,3.513-9.41,7.057-9.174S214.349,114.691,213.957,119.984Z" transform="translate(-145.731 -73.041)" fill="#ed9996"/>
            <path id="Trazado_161567" data-name="Trazado 161567" d="M209.286,96.572a.314.314,0,0,0-.078-.141.635.635,0,0,0-.149-.737c-1.858-1.835-7.888-.612-9.2,1.568-1.051,1.741.094,5.12.423,6.877.863,4.666,1.968,9.284,2.862,13.942a.667.667,0,0,0,1.215.157C207.992,111.863,210.07,103.927,209.286,96.572Z" transform="translate(-145.373 -69.773)" fill="#282828"/>
            <path id="Trazado_161568" data-name="Trazado 161568" d="M194.539,106.527c.11,13.024,0,32.5-21.438,35.192-14.64,1.843-27.868-10.4-31.412-27.609-3.623-17.6,6.649-33.717,21.642-35.654S194.382,88.955,194.539,106.527Z" transform="translate(-132.751 -66.202)" fill="#ffb1a5"/>
            <path id="Trazado_161569" data-name="Trazado 161569" d="M187.859,141.9c-1.31-1.717-3.411-1.364-5.246-.839-1.568.455-2.933,1.066-4.634.7-1.231-.267-2.1-.635-3.387-.243a3.481,3.481,0,0,0-2.031,1.4,1.843,1.843,0,0,0-.51,2.588c.784,1.31,2.8,1.4,4.054.847,1.733-.784,2.3-2.219,4.517-2.352a19.121,19.121,0,0,1,3,.235c1.145.118,3.348.565,4.344-.267C188.713,143.335,188.407,142.606,187.859,141.9Z" transform="translate(-139.393 -79.667)" fill="#fff"/>
            <path id="Trazado_161570" data-name="Trazado 161570" d="M148.54,110.9a63.4,63.4,0,0,0,8.422-10.978,3.991,3.991,0,0,0,4.666.345,2.948,2.948,0,0,1,.729-.423c.784-.259,1.568.416,2.282.91a6.273,6.273,0,0,0,6.43.376,7.032,7.032,0,0,1,2.658-1.239c1.67-.11,3.035,1.655,4.7,1.568,1.278-.078,2.243-1.2,3.474-1.568,2.015-.58,3.921.988,5.959,1.568a6.532,6.532,0,0,0,6.7-2.062,3.137,3.137,0,0,0,.784-1.725,3.788,3.788,0,0,0-.18-1.372,18.819,18.819,0,0,0-10.57-10.978,24.864,24.864,0,0,0-8.343-1.019,50.467,50.467,0,0,0-12.8,1.145,18.63,18.63,0,0,0-10.648,6.8,25.107,25.107,0,0,0-3.45,8.484" transform="translate(-134.388 -67.507)" fill="#ed9996"/>
            <path id="Trazado_161571" data-name="Trazado 161571" d="M200.433,83.364c.784-2.6-.69-5.277-2.744-6.822-1.16-.87-3.489-.972-4.391-1.788-1.239-1.121-.353-2.846-1.106-4.383-1.482-3.019-4.909-3.215-7.661-2.423-2.611.784-.972,1.035-2.6-.6s-2.784-3.011-4.995-3.85c-4.007-1.513-5.983,0-9.041,2.282-2.18,1.615-.964.886-3.819-.274a10.735,10.735,0,0,0-5.708-.51c-3.693.643-4.43,2.705-6.422,5.356-1.67,2.227-2.29,1.019-4.869,1.294a6.665,6.665,0,0,0-5.136,3.042,6.273,6.273,0,0,0-.839,4.642c.5,2.729.839,1.741-1.725,3.333-3.223,2-4.7,4.564-3.8,8.2.353,1.411.957,2.478.87,4.023,0,.831-.384,1.694-.431,2.556a26.282,26.282,0,0,0,.549,5.489c.345,2.078.69,5.622,2.164,7.716a15.623,15.623,0,0,0,1.741.11c.478,0,2.25,1.513,2.721,1.458a34.627,34.627,0,0,0,5.3-10.037c.9-2.823,1.568-4.7,2.415-7.347,1.129-3.591,1.741-1.631,4.775-1.521,2.517.1.729-.29,2.752-.839,3.223-.87,3.082.51,6.163,1.019a7.677,7.677,0,0,0,4.164-.345,13.831,13.831,0,0,0,1.38-.784c2.078-1.129.784-1.443,3.066-.369,1.388.643,2.117,1.662,3.772,1.647s2.047-1.074,3.442-1.482c2.925-.839,4.132,2.352,6.7,3.035,2.039.565,4.219,0,6.21-.447,2.446-.525,5.379-2.149,5.418-5.113,0-1.341-.949-1.968-.619-3.27C198.348,85.489,200.081,84.47,200.433,83.364Z" transform="translate(-131.533 -62.886)" fill="#282828"/>
            <ellipse id="Elipse_4707" data-name="Elipse 4707" cx="6.438" cy="9.629" rx="6.438" ry="9.629" transform="translate(0 42.68) rotate(-11.34)" fill="#ffb1a5"/>
            <path id="Trazado_161572" data-name="Trazado 161572" d="M198.651,94.732c2.446-.525,5.379-2.148,5.418-5.113,0-1.341-.949-1.968-.619-3.27.22-.863,1.952-1.882,2.305-3,.784-2.6-.69-5.277-2.744-6.822-1.16-.87-3.489-.972-4.391-1.788-1.239-1.121-.353-2.846-1.106-4.383-1.482-3.019-4.909-3.215-7.661-2.423-2.611.784-.972,1.035-2.6-.6s-2.784-3.011-4.995-3.85c-4.007-1.513-5.983,0-9.041,2.282-2.18,1.615-.964.886-3.819-.274a10.735,10.735,0,0,0-5.708-.51,6.54,6.54,0,0,0-3.725,1.8c.322-.078.651-.157.957-.2,5.246-.706,4.964,1.639,8.288,3.074,1.851.784,2.572.431,4.375.086a11.268,11.268,0,0,1,6.783-1.568,8.21,8.21,0,0,1,3.928,4.2c.337.243.439.784.847,1,3.583,1.568,4.7-2.588,8.053,3.215.674,1.168.447,1.717,1.443,2.886,1.709,2,5.489-2.352,3.513,5.332-.2.784-1.176,1.012-1.3,1.984-.2,1.568,1.121,1.678,1.568,2.784,1.019,2.494,1.035,3.874-.071,5.222Z" transform="translate(-136.855 -62.883)" fill="#424242"/>
            <g id="Grupo_75049" data-name="Grupo 75049" transform="translate(22.062 35.105)">
              <path id="Trazado_161573" data-name="Trazado 161573" d="M169.158,125.242c0,1.2-.682,2.172-1.529,2.172s-1.529-.972-1.529-2.172.682-2.172,1.529-2.172S169.158,124.042,169.158,125.242Z" transform="translate(-160.241 -110.981)" fill="#282828"/>
              <path id="Trazado_161574" data-name="Trazado 161574" d="M201.466,122.472c0,1.2-.69,2.172-1.568,2.172s-1.568-.972-1.568-2.172.682-2.172,1.568-2.172S201.466,121.272,201.466,122.472Z" transform="translate(-167.199 -110.383)" fill="#282828"/>
              <path id="Trazado_161575" data-name="Trazado 161575" d="M201.772,111.344a7.984,7.984,0,0,1-4.407-.784,13.075,13.075,0,0,1-2.729-2.846.2.2,0,0,0-.329.22,7.3,7.3,0,0,0,2.541,3.646,7.794,7.794,0,0,0,5.011.933.6.6,0,0,0-.086-1.168Z" transform="translate(-166.328 -107.653)" fill="#282828"/>
              <path id="Trazado_161576" data-name="Trazado 161576" d="M167.725,110.9c-2.3,2.494-5.128,4.1-8.625,3.772-.541-.047-.659.831-.133.949,2.791.6,8.876-1.121,9.276-4.5a.314.314,0,0,0-.518-.22Z" transform="translate(-158.628 -108.338)" fill="#282828"/>
              <path id="Trazado_161577" data-name="Trazado 161577" d="M187.843,123.417c-.486-2.58-.329-5.254-.557-7.841a.2.2,0,1,0-.392,0,31.865,31.865,0,0,0-.118,6.916c.361,3.137,2.007,6.861-2.392,7.841a.416.416,0,0,0,.11.784,4.359,4.359,0,0,0,4.211-3.607C188.839,126.185,188.094,124.719,187.843,123.417Z" transform="translate(-164.137 -109.321)" fill="#282828"/>
              <g id="Grupo_75046" data-name="Grupo 75046" transform="translate(1.375 12.468)">
                <path id="Trazado_161578" data-name="Trazado 161578" d="M165.849,129.392c-2.807-.87-2.313-3.333-2.737-5.677-.047-.235-.376-.2-.439,0-.737,2.235.2,6.336,3.074,6.383a.361.361,0,0,0,.1-.706Z" transform="translate(-160.824 -123.553)" fill="#ed9996"/>
                <path id="Trazado_161579" data-name="Trazado 161579" d="M163.47,131.733c-1.255-.925-2.729-1.647-2.752-3.419a.165.165,0,0,0-.329,0c-.118,1.8,1.31,3.136,2.807,3.921a.286.286,0,0,0,.274-.5Z" transform="translate(-160.381 -124.546)" fill="#ed9996"/>
              </g>
              <g id="Grupo_75047" data-name="Grupo 75047" transform="translate(32.2 9.553)">
                <path id="Trazado_161580" data-name="Trazado 161580" d="M203.447,119.965a.18.18,0,0,0-.353.047c.047,1.568.337,3.238-.423,4.658a6.414,6.414,0,0,1-2.823,2.439c-.314.188-.11.737.259.619a5.685,5.685,0,0,0,3.223-2.666C204.2,123.384,203.894,121.69,203.447,119.965Z" transform="translate(-199.693 -119.837)" fill="#ed9996"/>
                <path id="Trazado_161581" data-name="Trazado 161581" d="M204.617,128.06a5.433,5.433,0,0,1-.98,1.012,4.7,4.7,0,0,1-1.208.651.533.533,0,0,0,.267.988,2.931,2.931,0,0,0,2.4-2.446.267.267,0,0,0-.478-.2Z" transform="translate(-200.229 -121.588)" fill="#ed9996"/>
              </g>
              <g id="Grupo_75048" data-name="Grupo 75048" transform="translate(16.131 30.945)">
                <path id="Trazado_161582" data-name="Trazado 161582" d="M179.569,147.9h-.047a5.913,5.913,0,0,1,.3,2.125,5.661,5.661,0,0,1-.619,1.968c0,.11.086.165.165.133.651-.282.784-1.262.823-1.89A4.352,4.352,0,0,0,179.569,147.9Z" transform="translate(-179.2 -147.286)" fill="#ed9996"/>
                <path id="Trazado_161583" data-name="Trazado 161583" d="M184.644,149.448a5.348,5.348,0,0,0-1-2.266.165.165,0,0,0-.282.165,5.724,5.724,0,0,1,.737,2.462,16.465,16.465,0,0,1-.47,2.627.284.284,0,1,0,.549.149,7.246,7.246,0,0,0,.463-3.137Z" transform="translate(-180.097 -147.117)" fill="#ed9996"/>
                <path id="Trazado_161584" data-name="Trazado 161584" d="M188.376,150.382a2.886,2.886,0,0,0-.9-1.568c-.243-.259-.6.071-.463.361a3.836,3.836,0,0,1,.345,1.247,4.885,4.885,0,0,1-.251,1.255c-.063.423.47.894.823.478A2.305,2.305,0,0,0,188.376,150.382Z" transform="translate(-180.88 -147.463)" fill="#ed9996"/>
              </g>
            </g>
          </g>
          <g id="Grupo_75052" data-name="Grupo 75052" transform="translate(6.508 58.077)">
            <g id="Grupo_75051" data-name="Grupo 75051">
              <path id="Trazado_161585" data-name="Trazado 161585" d="M173.554,177.034a14.7,14.7,0,0,0-1.733-2.964.659.659,0,0,0-.22-.188c.329-.039.823-.055.957-.086a2.753,2.753,0,0,0,1.231-.533,2.156,2.156,0,0,0,.7-1.568,2.854,2.854,0,0,0-.541-1.568c-.4-.7-.784-.784-.588-.941.572-.455,1.709-.423,1.905-1.364a2.709,2.709,0,0,0-1-2.156c-2.274-2.282-7.143-2.729-10.194-2.893l-3.568-.188a1.247,1.247,0,0,1,.784-1.223,10.981,10.981,0,0,1,1.568-.7c1.443-.572,3-.784,4.43-1.4,1.184-.486,2.588-1.255,1.513-2.556-2.07-2.5-7.183-.494-9.574.337-3.137,1.082-8.868,5.755-9.206,6.273a26.025,26.025,0,0,0-2.87,7.982c-.439,2.031-.251,5.026-.6,7.12-3.325,1.882-20.034,10.029-21.454,10.656-1.568.7,18.709-33.514,16.067-44.64s-14.773-7.52-20.6-3.968c-17.251,10.492-24.614,58.66-24.661,67.537s4.658,18.568,17.4,17.447,44.162-36.462,44.162-36.462l-.094-.094c1.9-1.388,3.536-2.5,4.7-4.767.086-.165.894-1.725,1.286-2.305.306-.439,1.184-3.842,4.117-3.3a7.058,7.058,0,0,1,1.568.855,4.531,4.531,0,0,0,3.136.839C174.181,179.787,174.252,178.712,173.554,177.034Z" transform="translate(-95.91 -136.949)" fill="#ffb1a5"/>
              <path id="Trazado_161586" data-name="Trazado 161586" d="M124.59,203.065l6.657-2.125c-.533.235,1.451-3.552,4.2-9.08Z" transform="translate(-102.101 -148.803)" fill="#ed9996"/>
              <path id="Trazado_161587" data-name="Trazado 161587" d="M135.058,177.669,106.139,172a161.262,161.262,0,0,0-5.269,18.184c13.048,4.8,21.956,3.921,26.9,2.548C129.514,189.165,132.337,183.629,135.058,177.669Z" transform="translate(-96.98 -144.516)" fill="#ed9996"/>
              <path id="Trazado_161588" data-name="Trazado 161588" d="M190.883,176.647c-2.7-1.474-7.677-3.7-10.7-1.851a.212.212,0,0,0,.165.376,11.95,11.95,0,0,1,5.371.118c1.749.376,3.278,1.482,5.011,1.717C190.938,177.039,191.1,176.765,190.883,176.647Z" transform="translate(-114.085 -144.968)" fill="#282828"/>
              <path id="Trazado_161589" data-name="Trazado 161589" d="M189.585,183.452c-2.211-1.874-6.273-2.054-8.845-.933-.3.125-.086.612.212.518,3.137-1.059,5.442-.22,8.453.721C189.538,183.812,189.727,183.569,189.585,183.452Z" transform="translate(-114.191 -146.636)" fill="#282828"/>
            </g>
            <path id="Trazado_161590" data-name="Trazado 161590" d="M141.909,144.448c-2.65-11.127-14.773-7.52-20.6-3.968-9.174,5.591-17.784,21.171-21.76,36.525,7.841,3.811,23.579,7.347,30.142,6.783C134.679,173.845,143.869,152.713,141.909,144.448Z" transform="translate(-96.695 -136.951)" fill="#66d7e5"/>
          </g>
          <g id="Grupo_75053" data-name="Grupo 75053" transform="translate(92.403 69.984)">
            <path id="Trazado_161591" data-name="Trazado 161591" d="M225.375,179c.392-3.8,1.012-7.841.423-11.558a16.051,16.051,0,0,0-4.234-8.178v-.078a19.558,19.558,0,0,0-2.478-2.752,7,7,0,0,0-2.737-2.094c-1.5-.706-2.611-1.851-4.148-1.741-1.764-.588-3.411-.5-4.281.784-1.121,1.655.572,3.27,1.8,4.2.972.737,2.1,1.262,3.058,2.015,1.482,1.153,3.411,4.822,2.2,6.728-1.749,2.784-3.285-.439-4.187-1.992a7.508,7.508,0,0,0-2.2-2.87c-1.725-1.059-3,.337-3.137,2.094a6.022,6.022,0,0,0,1.2,3.874,16.945,16.945,0,0,1,3.011,6.759c.572,3.042.784,6.626,3.434,8.625-.118,3.834-1.654,28.55.784,35.043,1.843,4.877,5.191,8.21,15.173,6.932,0,0,7.724-3.137,7.724-10.3C236.784,209.145,226.653,182.414,225.375,179Z" transform="translate(-205.453 -152.158)" fill="#ffb1a5"/>
            <path id="Trazado_161592" data-name="Trazado 161592" d="M225.708,167.712c-1.443-2.086-6.32-12.272-9.919-10.194a2.078,2.078,0,0,0-.667.6,3.725,3.725,0,0,1-.894-2.282c.321-2.094,1.568-1.874,2.705-1.482A10.091,10.091,0,0,1,220.2,156.5c2.219,2.031,3.489,4.995,5.081,7.5a.118.118,0,0,0,.2-.118c-2.007-3.732-3.976-8.3-8.249-9.951-1.764-1.372-4.666-2.815-6.116-.784s1.733,4.2,3.136,5.058a.267.267,0,0,0,.282,0,4.708,4.708,0,0,0,.322.486h0c-.5,1.905,2.054,4.767,2.917,5.912,1.388,1.858,2.266,3.693.667,5.873a15.5,15.5,0,0,0-1.709,2.658c-.674,1.435-1,2.925-.078,4.3.235.353.784,0,.572-.329-2.3-3.732,3.576-6.022,2.893-9.535-.29-1.568-7.057-8.931-3.764-9.739,2.282-.549,5.026,4.077,6.03,5.528a46.514,46.514,0,0,0,3.137,4.54C225.591,168,225.842,167.845,225.708,167.712Zm-13.981-14.4c1.129-1.364,2.831-.588,4.328.3-2.039-.157-2.564,1.921-1.882,3.787C212.849,156.546,210.536,154.719,211.728,153.315Z" transform="translate(-206.594 -152.134)" fill="#282828"/>
          </g>
        </g>
        <g id="Grupo_75055" data-name="Grupo 75055">
          <path id="Trazado_161593" data-name="Trazado 161593" d="M113.332,120.476c-3.521-2.674-8.1-6.861-10.429-10.664a1.27,1.27,0,0,0-2.172,0c-1,1.341-1.372,3.866-2.8,4.626-1.568.855-3.779-.29-5.4-.91-2.674-1.012-6.171-3.137-9.159-2.776-2.2.274-2.682,1.443-3.5,3.27-.917,2.078-1.1,3.082-3.536,3.646-1.874.431-3.136.149-4.815,1.176a1.733,1.733,0,0,0,.408,3.137c2.352.847,7.23.627,9.347-.988a7.684,7.684,0,0,0,2.243-3.544c.141-.416.22-2.015.549-2.266.964-.737,2.509.157,3.434.447,3.4,1.074,6.877,3.662,10.641,3.089s3.482-3.638,4.344-6.5c3.827,2.282,6.524,6.642,10.46,8.916A.382.382,0,0,0,113.332,120.476Z" transform="translate(-70.696 -47.528)" fill="#81d4fa"/>
          <path id="Trazado_161594" data-name="Trazado 161594" d="M118.973,83.356a64.825,64.825,0,0,1-5.622-12.985,1.976,1.976,0,0,0-1.827-1.4c-3.27-.259-7.653,2.078-9.7-1.145-1.082-1.7-1.137-3.921-2.9-5.2-3.137-2.211-7.9.1-11.3,1.8-1.145-1.89-1.568-4.007-3.482-5.489-2.054-1.623-4.995,1.27-2.909,2.909s2.533,4.7,4.3,6.665a2.109,2.109,0,0,0,2.5.321c1.89-.878,5.944-3.615,8-2.823,1.074.416,1.247,1.678,1.655,2.619.91,2.086,1.741,4.289,3.976,5.238,2.611,1.113,4.7-.972,7.12-.729,3.991.4,6.767,8.131,8.923,10.978C118.26,84.83,119.444,84.2,118.973,83.356Z" transform="translate(-72.816 -36.574)" fill="#81d4fa"/>
          <path id="Trazado_161595" data-name="Trazado 161595" d="M150.277,44.758c-2.164-1.239-6.516-.933-7.63-3.536s.071-6.453-.384-9.229c-.361-2.235-4.156-1.733-3.968.533.314,3.779-1.074,8.947,1.568,12.13,1.662,1.976,5.1,3.137,7.959,3.137-.165,3.058-.337,6.391.784,9.159a.659.659,0,0,0,1.255,0c1.184-3.3.1-7.057,1.137-10.468a1.568,1.568,0,0,0-.721-1.725Z" transform="translate(-85.269 -30.549)" fill="#81d4fa"/>
          <path id="Trazado_161596" data-name="Trazado 161596" d="M264.174,76.555q-7.112,2.352-14.114,5.089c-2.705,1.051-3.811,2.164-6.987-.431-1.121-.917-1.843-2.548-3.011-3.552a1.976,1.976,0,0,0-2.737,0c-2.791,2.886-6.273,5.332-9.292,7.943-.572.486.165,1.427.784,1.035a53.87,53.87,0,0,1,6.132-3.576c2.423-1.059,2.7-1.38,4.493.259s2.392,4,5.05,4.524,5.489-1.474,7.653-2.352c4.344-1.694,8.759-3.231,13.189-4.7C268.055,79.943,266.887,75.646,264.174,76.555Z" transform="translate(-104.616 -40.454)" fill="#81d4fa"/>
          <path id="Trazado_161597" data-name="Trazado 161597" d="M262.152,132.355c-5.755-.878-11.832-.886-17.368-2.831.863-3.333.714-7.551-2.07-9.684-3.278-2.517-9.543-1.113-13.126-.086a1.225,1.225,0,0,0,0,2.352c2.352.5,4.822.125,7.245.3,4.6.329,4.524,4.148,3.019,7.771a2.2,2.2,0,0,0,1.027,2.525c6.485,2.807,13.73,3.238,20.693,3.921C264,136.911,264.6,132.724,262.152,132.355Z" transform="translate(-104.806 -49.519)" fill="#81d4fa"/>
        </g>
      </g>
    </g>
  </g>
</svg>
