<svg xmlns="http://www.w3.org/2000/svg" xmlns:xlink="http://www.w3.org/1999/xlink" width="179" height="179" viewBox="0 0 179 179">
  <defs>
    <filter id="Elipse_4365" x="0" y="0" width="179" height="179" filterUnits="userSpaceOnUse">
      <feOffset dy="3" input="SourceAlpha"/>
      <feGaussianBlur stdDeviation="3" result="blur"/>
      <feFlood flood-opacity="0.161"/>
      <feComposite operator="in" in2="blur"/>
      <feComposite in="SourceGraphic"/>
    </filter>
    <clipPath id="clip-path">
      <circle id="Elipse_4063" data-name="Elipse 4063" cx="62" cy="62" r="62" fill="none"/>
    </clipPath>
  </defs>
  <g id="Grupo_73308" data-name="Grupo 73308" transform="translate(-276 -1051)">
    <g transform="matrix(1, 0, 0, 1, 276, 1051)" filter="url(#Elipse_4365)">
      <circle id="Elipse_4365-2" data-name="Elipse 4365" cx="80.5" cy="80.5" r="80.5" transform="translate(9 6)" fill="#fff"/>
    </g>
    <g id="icono_intro_2_" data-name="icono intro (2)" transform="translate(304 1076)">
      <g id="Capa_2" data-name="Capa 2">
        <g id="Grupo_73333" data-name="Grupo 73333">
          <circle id="Elipse_4063-2" data-name="Elipse 4063" cx="62" cy="62" r="62" fill="#7e5ee3"/>
          <g id="Grupo_73332" data-name="Grupo 73332" clip-path="url(#clip-path)">
            <g id="Grupo_73331" data-name="Grupo 73331">
              <g id="Grupo_73328" data-name="Grupo 73328">
                <path id="Trazado_145613" data-name="Trazado 145613" d="M64.54,11.87c-.86,3.3.16,8.32,1.17,17.35s.23,17.32-.41,17.68c-1,.54-3.51-11.16-5.18-20.59-1-5.91-2.64-10.46-3.33-13.51C55.5,7.07,51.25,6,49.66,7.5c-3,2.88,1,14.92,2,20.8.55,3.25,2.86,14.06,3.27,20.36a.47.47,0,0,1-.88.25,145.136,145.136,0,0,1-6.86-18.26c-1-4.36-2.37-9.38-4-12a3.635,3.635,0,0,0-3.45-2.2c-4.34-.07-1.27,13.73,1.26,23a103,103,0,0,0,3.86,10.58c.67,1.68,1.17,3.07,1.72,4.78.19.6,1.21,4-.63,2.9a8.23,8.23,0,0,1-1.75-2,113.823,113.823,0,0,1-6.49-10.79c-2.64-5.6-4.36-10.14-8-7.79-1.87,1.22-.7,4.63.32,7.38.29.79,2.07,4.93,4.09,8.88,2.66,5.19,6.45,11.2,7.4,13.07C43.25,69.65,50.47,88.77,52,96.89c1.12,6.11,1.6,17.94,2.87,24.83a.15.15,0,0,0,.11.11A34.36,34.36,0,0,0,71.7,122a77.752,77.752,0,0,0,9.43-3.29c.19,2.13-2.44-15.18.6-21.55C85.26,89.73,92.34,79,93.43,73.59s.18-9.37.62-19.05c.57-12.46,3-16.49,1-18.67-.85-.91-8.55-1.1-10.2,16.1-.3,3.13-2.28,12.58-4.53,12.86-2.48.32-2.63-8.29-3.31-11.34-.58-2.62-.45-11.77-2-20.82-1.27-7.39-1.85-21.77-6.8-22.51C66.48,9.9,64.92,10.39,64.54,11.87Z" fill="#f7ad85"/>
                <path id="Trazado_145614" data-name="Trazado 145614" d="M65.72,85.82c-2.8-8.23,4-14.27,4.74-14.95a29.15,29.15,0,0,0,7-8.39,2.243,2.243,0,0,0,.11.5c.36,1.81,3.6,4.2,2.21,4.8-3,1.27-3.5,3-5.08,4.26-1.13.92-2.71,1.9-3.77,2.83C66.88,78.45,65.82,85.77,65.72,85.82Z" fill="#e48b68"/>
                <path id="Trazado_145615" data-name="Trazado 145615" d="M73.64,115.21a41.379,41.379,0,0,0,6.68-5.1,77.945,77.945,0,0,0,.78,8.57A75,75,0,0,1,71.7,122a34.36,34.36,0,0,1-16.7-.17.15.15,0,0,1-.11-.11c-1.12-6.09-1.63-16-2.51-22.5C55.43,108.92,63.81,121.21,73.64,115.21Z" fill="#e48b68"/>
                <path id="Trazado_145616" data-name="Trazado 145616" d="M80.89,67.35C79,68.05,78,68,77.4,64.14a42.67,42.67,0,0,1-.23-9.85c.52,3.21.81,9.54,2.59,10.43h0a1.06,1.06,0,0,0,.25.09.84.84,0,0,0,.32,0,.94.94,0,0,0,.37-.14l.13-.08a2.321,2.321,0,0,0,.25-.22l.13-.14c.09-.1.17-.21.26-.33l.1-.14c1.7-2.61,3.05-9.28,3.29-11.81.52-5.47,1.66-9.18,3-11.67a63.59,63.59,0,0,0-2,14.9C85.72,57.44,84.92,65.33,80.89,67.35Z" fill="#e48b68"/>
                <path id="Trazado_145617" data-name="Trazado 145617" d="M57.47,118.38c5.8,1.65,12.3.57,15.41-5.13a30.6,30.6,0,0,0,3-10.86,20.55,20.55,0,0,1,1.67-5.84,19.32,19.32,0,0,1,2.08-3.78c1.66-2.16,3.65-4.12,5.16-6.4,3.3-4.93,7.21-10.47,8.85-16.24.1-.37.21-.75.32-1.13a28.61,28.61,0,0,1-.53,4.59C92.34,79,85.26,89.73,81.73,97.12c-2.7,5.65-.93,19.92-.63,21.56A75,75,0,0,1,71.7,122a34.36,34.36,0,0,1-16.7-.17l-.11-.11c-.25-1.4-.48-3-.68-4.71a16.18,16.18,0,0,0,3.26,1.37Z" fill="#e48b68"/>
              </g>
              <path id="Trazado_145618" data-name="Trazado 145618" d="M72.89,101.9a9.17,9.17,0,0,0,.26-4.11c-.39-1.43-1.33-2.21-1.23-3.82.19-3.13,1.23-5.39-.18-8.45-.62-1.34-1.83-2.36-2.48-3.68A15.16,15.16,0,0,1,68,77.69c-.52-3.09.19-5.83-1.06-8.75s-3.95-3-5.53-5.63c-.87-1.42-3.76-8.21-5.68-6.66s.68,9.35,1.3,11.22c1.06,3.26,4.26,5.37,4.77,8.85.23,1.54,0,3,.45,4.6A48.122,48.122,0,0,0,64.2,86.4c1.38,3.33,2.85,6.23,2.85,9.94,0,2.31-2.56,5.56-1.14,7.67,1.78,2.65,5.22.51,6.61-1.35C72.93,102.11,72.67,102.61,72.89,101.9Z" fill="#db7959"/>
              <path id="Trazado_145619" data-name="Trazado 145619" d="M57.33,60.43A27.76,27.76,0,0,1,61.51,67c1.3,2.57,4.11,2.69,5.38,5.11s-.41,5.26-.63,8c-.37,4.53,1.38,3.21,3.9,5.81s1.29,4.06.59,6.85c-.45,1.79-.62,1.35-.23,3.33.2,1.08,1.17,2,1.28,3.34.38,4.45-1.5,3.21-4.32,3.18-1.88,0-5.55,2.39-7.3,1.53-3.91-1.94,2.19-2.74,3-3.2A6.88,6.88,0,0,0,66,94.77c-.18-1.53-1.41-1.59-1.33-3.29.06-1.24,2-1.61,1.57-3.07-.55-2.07-4.08-2.12-4.4-5.21-.25-2.43,1.68-4.45,1.73-7s-1-3.78-2.8-5.42c-2.41-2.15-2-2.13-2.46-5.11C58.07,64.14,56.92,60.55,57.33,60.43Z" fill="#e72527"/>
              <path id="Trazado_145620" data-name="Trazado 145620" d="M62.46,89.92c.5-2.13-.55-1.81-2-1.73-1.2.07-2.69-1.07-3.58.13-.62.84-.08,3.21.94,3.59s.87-.53,1.66-.76a3,3,0,0,1,2,.24C61.79,90.78,62.29,90.65,62.46,89.92Z" fill="#e72527"/>
              <path id="Trazado_145621" data-name="Trazado 145621" d="M64.1,96.13c.65-2-2.19-1.74-2.36,0S64,97.71,64.13,96Z" fill="#e72527"/>
              <path id="Trazado_145622" data-name="Trazado 145622" d="M60.47,83.81c-.93-1.42-.17-2.43-.65-3.78-.56-1.6-2.15-1.6-2.67-.06-.61,1.81.69,1.49,1.49,2.68.46.69-.29,1.67.86,1.82C60.22,84.56,60.5,84.53,60.47,83.81Z" fill="#e72527"/>
              <path id="Trazado_145623" data-name="Trazado 145623" d="M75.79,87.16a53.372,53.372,0,0,1-1.71-6.72C74,79.51,74,78.35,72.88,78s-1.73.47-1.5,1.56,1.39,1.43,1.73,2.36a19.219,19.219,0,0,1,.37,2.59C73.76,85.83,74.62,89.74,75.79,87.16Z" fill="#e72527"/>
              <path id="Trazado_145624" data-name="Trazado 145624" d="M76.16,93.8c.09-1.38-.89-3.37-1.94-1.22-1,1.94,2,2.51,2.1.41Z" fill="#e72527"/>
              <path id="Trazado_145625" data-name="Trazado 145625" d="M64.6,63.06c-.47-1.36-1-3.45-1.79-3-1.55.82.32,3.72,1.55,3.82C64.44,63.72,64.74,63.49,64.6,63.06Z" fill="#e72527"/>
              <g id="Grupo_73329" data-name="Grupo 73329">
                <path id="Trazado_145626" data-name="Trazado 145626" d="M24.8,67.19l-2.28,2.38-4-3.76c-.46.79-.91,1.58-1.34,2.38l5,5.67,2.41-4.53,7.8,6.14L35,72.82l7.29,5-6.8-7L32,73.25Z" fill="#a48fe6"/>
                <path id="Trazado_145627" data-name="Trazado 145627" d="M37.56,107.14l1.89,1.61-2.66,3.14c.61.32,1.23.61,1.85.91l4-4-3.5-1.61,4.27-6.12-2.1-1.86,3.43-5.67-5,5.39,2,2.5Z" fill="#a48fe6"/>
                <path id="Trazado_145628" data-name="Trazado 145628" d="M30.24,89.44l-9.4.82.07,3.3-4.45.12c.15.9.31,1.81.47,2.71l6.77.45-1.5-4.9,9.86-1.18L32,87l8.68-1.62L31,85.26Z" fill="#a48fe6"/>
              </g>
              <g id="Grupo_73330" data-name="Grupo 73330">
                <path id="Trazado_145629" data-name="Trazado 145629" d="M93.2,104l1.56-.68L96,106c.37-.28.73-.58,1.09-.88l-1.37-3.88-2,1.71L91,98.25,89.25,99l-2.63-4,2,4.93,2.15-.45Z" fill="#a48fe6"/>
                <path id="Trazado_145630" data-name="Trazado 145630" d="M103.52,72.73l-.81-1.58,2.61-1.35c-.32-.38-.64-.74-1-1.1l-3.75,1.52,1.88,2L98,75.12l.89,1.8-3.81,2.82,4.74-2.22-.63-2.19Z" fill="#a48fe6"/>
                <path id="Trazado_145631" data-name="Trazado 145631" d="M99.33,88.27l6.43,2,.85-2.2,3,1.13c.14-.64.29-1.28.43-1.91l-4.35-2.14-.34,3.65-6.84-1.9-1,2.47-6.17-1.29,6.41,2.75Z" fill="#a48fe6"/>
              </g>
            </g>
          </g>
        </g>
      </g>
    </g>
  </g>
</svg>
