<svg xmlns="http://www.w3.org/2000/svg" width="264.133" height="260.683" viewBox="0 0 264.133 260.683">
  <g id="Capa_2" data-name="Capa 2" transform="translate(-16.16 -19.88)">
    <circle id="Elipse_4704" data-name="Elipse 4704" cx="114.246" cy="114.246" r="114.246" transform="translate(33.983 33.696)" fill="#fff"/>
    <g id="Grupo_74959" data-name="Grupo 74959" transform="translate(174.776 212.296)">
      <path id="Trazado_161285" data-name="Trazado 161285" d="M301.082,415.873c-9.96-5.584-13.283-17.454-13.991-28.352-.117-1.822-.5-3.715.2-5.39s2.607-2.965,4.306-2.344c1.412.5,2.15,2.01,3.035,3.228a10.622,10.622,0,0,0,4.652,3.638,4.064,4.064,0,0,0,3.756-.029c1.482-1.02,1.453-3.2,1.26-5q-.539-5.033-1.066-10.072a17.12,17.12,0,0,1,0-5.414,5.649,5.649,0,0,1,3.14-4.131,3.418,3.418,0,0,1,4.429,1.857,16.765,16.765,0,0,1,.27,2.244,1.9,1.9,0,0,0,1.289,1.67,2.211,2.211,0,0,0,1.9-1.019,23.943,23.943,0,0,0,3.656-6.931,32.84,32.84,0,0,1,3.351-7.1,9.833,9.833,0,0,1,6.24-4.365,5.863,5.863,0,0,1,6.381,3.392c.9,2.473-.322,5.2-1.728,7.418a40.5,40.5,0,0,1-7.587,8.824,3.322,3.322,0,0,0-1.254,1.646c-.27,1.242.99,2.344,2.215,2.6a20.613,20.613,0,0,0,4.254.059,4.09,4.09,0,0,1,3.674,1.758c.92,1.758-.428,3.855-1.822,5.273a34.568,34.568,0,0,1-9.609,6.879,11.5,11.5,0,0,0-3.6,2.221,3.366,3.366,0,0,0-.691,3.931,3.413,3.413,0,0,0,3.838,1.049,24.015,24.015,0,0,0,3.8-1.9c2.385-1.172,5.6-1.324,7.406.656a5.73,5.73,0,0,1,1.107,4.986,13.323,13.323,0,0,1-2.291,4.728,34.855,34.855,0,0,1-13.769,11.87c-5.554,2.566-10.828,3.633-16.745,2.109" transform="translate(-286.879 -348.287)" fill="#ececec"/>
      <path id="Trazado_161286" data-name="Trazado 161286" d="M314.75,409.673a161.119,161.119,0,0,1,4.687-18.034c.492-1.576.984-3.135,1.471-4.687s.967-3.047,1.529-4.5a80.564,80.564,0,0,1,3.715-8.173c1.307-2.543,2.642-4.91,3.908-7.113s2.484-4.23,3.679-6.029a64.6,64.6,0,0,1,6.246-8.033c.814-.891,1.465-1.564,1.91-2.016l.51-.5c.117-.117.182-.17.188-.164l-.158.188-.492.527c-.428.469-1.066,1.172-1.857,2.057a68.081,68.081,0,0,0-6.152,8.115c-1.172,1.8-2.379,3.832-3.633,6.035s-2.578,4.576-3.873,7.113a80.558,80.558,0,0,0-3.685,8.15c-.557,1.447-1.031,2.93-1.523,4.482s-.973,3.088-1.465,4.687a167.092,167.092,0,0,0-4.687,17.993" transform="translate(-298.42 -349.17)" fill="#e1e1e1"/>
      <path id="Trazado_161287" data-name="Trazado 161287" d="M324.745,391.251a3.516,3.516,0,0,1-.252-.756c-.146-.486-.328-1.2-.545-2.086-.434-1.758-.949-4.236-1.506-6.955s-1.107-5.174-1.564-6.931c-.229-.879-.422-1.588-.557-2.08a4.135,4.135,0,0,1-.182-.773,3.69,3.69,0,0,1,.3.738c.176.475.4,1.172.656,2.051.521,1.758,1.107,4.2,1.664,6.925l1.412,6.972q.264,1.254.439,2.109A3.447,3.447,0,0,1,324.745,391.251Z" transform="translate(-300.652 -357.97)" fill="#e1e1e1"/>
      <path id="Trazado_161288" data-name="Trazado 161288" d="M350.8,393.76a4.991,4.991,0,0,1-.908.205c-.586.111-1.447.27-2.5.5-2.1.439-4.98,1.172-8.127,2.068s-5.965,1.892-7.962,2.642c-1.008.369-1.816.691-2.344.908a5.583,5.583,0,0,1-.885.316,4.584,4.584,0,0,1,.832-.434c.545-.258,1.342-.615,2.344-1.014,1.992-.814,4.8-1.81,7.957-2.742a81.756,81.756,0,0,1,8.156-1.98c1.06-.2,1.922-.322,2.519-.393A5,5,0,0,1,350.8,393.76Z" transform="translate(-303.94 -367.117)" fill="#e1e1e1"/>
      <path id="Trazado_161289" data-name="Trazado 161289" d="M304.82,430.682a1.755,1.755,0,0,1-.187-.27l-.492-.768c-.416-.7-.99-1.717-1.682-2.994-1.377-2.543-3.181-6.117-5.109-10.089s-3.7-7.558-5.027-10.13l-1.576-3.041-.428-.826a1.171,1.171,0,0,1-.129-.3,1.1,1.1,0,0,1,.188.27l.48.8c.41.7.984,1.723,1.676,2.994,1.383,2.543,3.181,6.117,5.115,10.1s3.691,7.558,5.021,10.124l1.582,3.041c.17.334.311.586.422.832A1.1,1.1,0,0,1,304.82,430.682Z" transform="translate(-288.25 -370.637)" fill="#e1e1e1"/>
      <path id="Trazado_161290" data-name="Trazado 161290" d="M344.974,428.6a1.266,1.266,0,0,1-.293.158l-.867.387-3.193,1.394c-2.7,1.172-6.4,2.853-10.488,4.687s-7.816,3.515-10.546,4.617c-1.365.586-2.467,1.008-3.24,1.3l-.885.328a1.26,1.26,0,0,1-.322.094,1.461,1.461,0,0,1,.293-.158l.867-.387,3.193-1.394c2.7-1.172,6.4-2.853,10.494-4.687s7.81-3.515,10.546-4.617c1.359-.586,2.461-1.008,3.234-1.3l.891-.328a1.26,1.26,0,0,1,.316-.094Z" transform="translate(-298.581 -381.544)" fill="#e1e1e1"/>
    </g>
    <g id="Grupo_74960" data-name="Grupo 74960" transform="translate(16.16 58.028)">
      <path id="Trazado_161291" data-name="Trazado 161291" d="M49.324,151.456h0l-10.8-1.963h0l-.287-6.621a27.128,27.128,0,0,1-6.041-3.861L26.046,141.5h0l-6.269-9.07h0l4.476-4.886a27.04,27.04,0,0,1-1.512-6.984l-6.111-2.6h0L18.6,107.12h0l6.621-.287a26.952,26.952,0,0,1,3.867-6.006L26.608,94.67h0L35.666,88.4h0l4.886,4.476a26.8,26.8,0,0,1,6.99-1.5l2.6-6.117h0L60.96,87.223h0l.287,6.621a26.952,26.952,0,0,1,6.006,3.867l6.158-2.484h0l6.263,9.035h0l-4.482,4.881a26.652,26.652,0,0,1,1.529,7.019l6.111,2.6h0l-1.963,10.822h0l-6.621.287a26.952,26.952,0,0,1-3.867,6.006l2.478,6.158h0L63.8,148.321h0l-4.886-4.476a26.788,26.788,0,0,1-6.984,1.506Zm-10.8-1.986,10.781,1.951,2.6-6.105h0a26.7,26.7,0,0,0,7-1.512h0l4.881,4.476,9.005-6.246-2.478-6.152h0a26.823,26.823,0,0,0,3.867-6.017h0l6.621-.287,1.951-10.787-6.105-2.6h0a26.647,26.647,0,0,0-1.512-7h0l4.47-4.881-6.24-9.005-6.152,2.478h0a26.846,26.846,0,0,0-5.97-3.9h0l-.293-6.621L50.167,85.319l-2.6,6.088h0a26.653,26.653,0,0,0-6.99,1.512h0L35.7,88.441l-9.035,6.24,2.49,6.152h0a26.847,26.847,0,0,0-3.873,6.017h0l-6.621.287-1.986,10.781,6.105,2.6h0a26.952,26.952,0,0,0,1.518,7h0L19.817,132.4l6.24,9.005,6.152-2.478h0a26.951,26.951,0,0,0,6.017,3.873h0Zm11.648-19.593a11.93,11.93,0,0,1-2.133-.193,11.794,11.794,0,0,1-4.611-21.3h0a11.794,11.794,0,1,1,6.744,21.5Zm-.053-23.571a11.812,11.812,0,1,0,2.127.193,11.812,11.812,0,0,0-2.127-.193Z" transform="translate(-16.355 -85.102)" fill="#e1e1e1"/>
      <path id="Trazado_161292" data-name="Trazado 161292" d="M58.632,123.123a8.847,8.847,0,0,1,2.531-1.459,11.718,11.718,0,0,1,7.892-.275,11.87,11.87,0,0,1,4.758,2.842,12.046,12.046,0,0,1,3.211,5.49,11.22,11.22,0,0,1,.4,3.451,11.46,11.46,0,0,1-.644,3.568,12.06,12.06,0,0,1-22.446.978,11.882,11.882,0,0,1,2.045-12.743,8.888,8.888,0,0,1,2.25-1.857c.053.064-.85.621-2.057,2.027a11.794,11.794,0,0,0-2.754,7.142,11.513,11.513,0,0,0,4.892,9.861,10.687,10.687,0,0,0,2.93,1.488,10.816,10.816,0,0,0,3.381.586,11.408,11.408,0,0,0,11.132-7.711,10.546,10.546,0,0,0,.627-3.375,10.822,10.822,0,0,0-.363-3.269,11.513,11.513,0,0,0-7.511-8.044,11.759,11.759,0,0,0-7.658.07C59.51,122.548,58.673,123.193,58.632,123.123Z" transform="translate(-31.551 -99.833)" fill="#ececec"/>
      <path id="Trazado_161293" data-name="Trazado 161293" d="M40.364,92.788a2.169,2.169,0,0,1-.322-.258L39.1,91.7l-3.7-3.31h.135L26.542,94.7l.064-.205,2.5,6.14.047.111-.076.094a26.806,26.806,0,0,0-3.826,5.988l-.059.117H25.06l-6.65.311.223-.2c-.586,3.4-1.254,7.031-1.933,10.81l-.158-.293,6.134,2.572.158.064v.17a26.9,26.9,0,0,0,1.512,6.92l.059.164-.117.135L19.81,132.5v-.375l6.269,9.023-.381-.117,6.187-2.461.182-.07.146.123a27.086,27.086,0,0,0,5.953,3.826l.182.082v.2c.094,2.074.193,4.342.293,6.627l-.27-.311L49.176,151l-.369.2,2.6-6.111.082-.187h.205a26.606,26.606,0,0,0,6.9-1.488h0l.193-.064.152.135,4.886,4.482h-.416l9.029-6.258-.123.4q-1.248-3.111-2.478-6.158l-.076-.187.135-.152a26.606,26.606,0,0,0,3.826-5.941l.088-.182H74l6.632-.287-.3.264q1.014-5.531,1.969-10.8l.182.346-6.07-2.66-.17-.07V116.1a26.753,26.753,0,0,0-1.482-6.925l-.105-.152.123-.129,4.488-4.881v.352L73.016,95.3l.311.094-6.164,2.49-.135.059-.111-.094a26.952,26.952,0,0,0-5.959-3.861l-.123-.059v-.146c-.094-2.408-.182-4.582-.264-6.632l.164.193-10.8-2.027.164-.088c-1.049,2.432-1.916,4.429-2.637,6.088v.064h-.064a27.538,27.538,0,0,0-5.3.908l-1.277.375a1.962,1.962,0,0,1-.428.117l.4-.17c.281-.105.7-.258,1.266-.428a25.868,25.868,0,0,1,5.32-1.019l-.094.064c.7-1.676,1.535-3.68,2.56-6.129l.047-.111h.117L60.8,86.929h.158v.164c.094,2.045.2,4.219.311,6.627l-.129-.187a26.875,26.875,0,0,1,6.088,3.89l-.252-.041,6.152-2.5.187-.082.117.176,6.275,9.011.129.182-.152.17-4.441,4.927.059-.3a27.127,27.127,0,0,1,1.512,7.078l-.182-.252,6.111,2.6.229.1-.047.24q-.949,5.273-1.945,10.81l-.047.252h-.258l-6.6.316.281-.187a27.11,27.11,0,0,1-3.914,6.093l.053-.334,2.484,6.152.1.246-.217.152L63.8,148.467l-.223.152-.193-.182-4.892-4.482.34.07h0a27.246,27.246,0,0,1-7.078,1.529l.281-.205-2.572,6.111-.105.246-.264-.047-10.81-1.969-.258-.047v-.264c-.1-2.285-.193-4.553-.281-6.632l.187.281a27.338,27.338,0,0,1-6.093-3.926l.328.059-6.152,2.473-.234.094-.146-.205-6.281-9.035-.141-.2.164-.176,4.488-4.886-.059.3a27.6,27.6,0,0,1-1.517-7.078l.17.234-6.1-2.607-.2-.088.041-.205c.691-3.791,1.359-7.4,1.98-10.8l.035-.187h.193l6.632-.27-.187.123a27.256,27.256,0,0,1,3.92-6.052v.205l-2.461-6.164-.047-.129.111-.076L35.4,88.218l.07-.053.059.059,3.592,3.369.92.879Z" transform="translate(-16.16 -84.99)" fill="#ececec"/>
    </g>
    <g id="Grupo_74961" data-name="Grupo 74961" transform="translate(60.712 19.88)">
      <path id="Trazado_161294" data-name="Trazado 161294" d="M100.723,26.445a14.489,14.489,0,0,1,3.2-2l.193-3.515L109.822,20l1.33,3.234a14.39,14.39,0,0,1,3.68.867l2.607-2.344,4.722,3.357-1.348,3.228a14.255,14.255,0,0,1,2,3.2l3.515.193.973,5.7-3.264,1.318a14.5,14.5,0,0,1-.838,3.691l2.344,2.607-3.357,4.687-3.228-1.348a14.279,14.279,0,0,1-3.2,2l-.2,3.515-5.707.967L108.5,51.639a14.255,14.255,0,0,1-3.679-.844l-2.607,2.344-4.687-3.357,1.348-3.228a14.062,14.062,0,0,1-2.045-3.211l-3.515-.193-.967-5.713,3.24-1.33a14.156,14.156,0,0,1,.844-3.674L94.09,29.82l3.357-4.687,3.228,1.348Zm4.2,7.166a4.452,4.452,0,1,1,0,.006Z" transform="translate(-92.262 -19.93)" fill="#e1e1e1"/>
      <path id="Trazado_161295" data-name="Trazado 161295" d="M112.924,41.31a4.687,4.687,0,0,1,.99-1.172,6.17,6.17,0,0,1,3.861-1.553,6.3,6.3,0,0,1,2.871.557,6.381,6.381,0,0,1,2.578,2.15,6.046,6.046,0,0,1,.814,1.641,5.958,5.958,0,0,1,.322,1.887A6.36,6.36,0,0,1,113.4,49.326a6.275,6.275,0,0,1-1.465-2.531,6.2,6.2,0,0,1,.193-4.16,4.722,4.722,0,0,1,.791-1.324,15.234,15.234,0,0,0-.656,1.377,6.146,6.146,0,0,0-.088,4.031,6.029,6.029,0,0,0,1.435,2.4,6.146,6.146,0,0,0,2.754,1.617,5.789,5.789,0,0,0,1.723.211,5.531,5.531,0,0,0,1.758-.311,6.011,6.011,0,0,0,4.137-5.812,5.684,5.684,0,0,0-.293-1.787,5.59,5.59,0,0,0-.762-1.559,6.076,6.076,0,0,0-5.144-2.654A6.2,6.2,0,0,0,114,40.232,14.649,14.649,0,0,0,112.924,41.31Z" transform="translate(-100.262 -27.624)" fill="#e1e1e1"/>
      <path id="Trazado_161296" data-name="Trazado 161296" d="M100.661,26.4a1,1,0,0,1-.205-.07l-.621-.24L97.409,25.1h.07l-3.334,4.734v-.111l2.344,2.6.041.047v.059a14.062,14.062,0,0,0-.826,3.65v.07h-.07l-3.258,1.377.076-.135c.3,1.8.633,3.7.973,5.707l-.129-.117,3.515.187H96.9l.035.082a14.249,14.249,0,0,0,1.986,3.164l.059.07-.035.082L97.608,49.8l-.053-.193,4.687,3.351h-.205l2.607-2.344.076-.07.094.035a14.179,14.179,0,0,0,3.674.838h.1l.041.1c.416,1.014.873,2.121,1.336,3.234l-.193-.105,5.707-.967-.146.17c.064-1.107.129-2.3.2-3.515V50.23l.094-.047a13.95,13.95,0,0,0,3.158-1.975h0l.088-.07.1.041,3.222,1.348-.211.059,3.357-4.717v.223L123,42.484l-.07-.082.041-.1a13.839,13.839,0,0,0,.832-3.633v-.105l.094-.035,3.24-1.33-.1.187q-.492-2.93-.961-5.713l.152.135-3.515-.2h-.1l-.035-.088a14.062,14.062,0,0,0-1.98-3.164l-.059-.07.035-.088c.469-1.107.914-2.18,1.353-3.228l.053.182-4.687-3.369h.17l-2.613,2.344-.059.053h-.07a13.974,13.974,0,0,0-3.644-.85H111v-.064c-.48-1.172-.914-2.238-1.318-3.24l.111.064-5.713.932.07-.07c-.088,1.394-.158,2.537-.217,3.515V24.5h0a14.566,14.566,0,0,0-2.467,1.406l-.586.41a1.213,1.213,0,0,1-.187.135l.17-.158c.117-.1.3-.252.551-.439a13.816,13.816,0,0,1,2.455-1.453l-.035.047c.047-.955.105-2.1.17-3.515V20.87h.064l5.7-.99h.088v.076L111.2,23.19l-.1-.076a14.443,14.443,0,0,1,3.715.844h-.129l2.6-2.344.082-.076.088.064,4.722,3.351.1.064-.047.111c-.434,1.049-.885,2.121-1.342,3.228V28.2a14.355,14.355,0,0,1,2.027,3.234l-.135-.094,3.515.187h.135v.129c.316,1.857.639,3.756.973,5.707V37.5l-.129.053-3.234,1.33.105-.141a14.513,14.513,0,0,1-.85,3.721l-.035-.176,2.344,2.607L125.7,45l-.082.111-3.369,4.722-.088.111-.129-.053-3.228-1.348h.182a14.314,14.314,0,0,1-3.24,2.021l.105-.146c-.064,1.172-.135,2.391-.193,3.515v.141h-.135l-5.713.961h-.135l-.059-.129-1.324-3.24.141.105a14.279,14.279,0,0,1-3.721-.855h.17l-2.607,2.344-.1.088-.105-.076-4.717-3.439-.105-.07.053-.117c.469-1.125.932-2.226,1.353-3.228v.158a14.272,14.272,0,0,1-2.01-3.187l.129.082-3.515-.2h-.111v-.111c-.334-2-.65-3.914-.949-5.713v-.1l.094-.041,3.24-1.318-.07.1a14.443,14.443,0,0,1,.861-3.709v.105L93.981,29.87l-.047-.059.041-.053,3.387-4.687V25.03H97.4l2.385,1.031.586.27Z" transform="translate(-92.2 -19.88)" fill="#e1e1e1"/>
    </g>
    <g id="Grupo_74962" data-name="Grupo 74962" transform="translate(245.139 69.629)">
      <path id="Trazado_161297" data-name="Trazado 161297" d="M415.429,111.42a14.064,14.064,0,0,1,3.2-2l.2-3.515,5.707-.961,1.33,3.24a13.91,13.91,0,0,1,3.68.844l2.607-2.344,4.717,3.351-1.348,3.228a14.061,14.061,0,0,1,2,3.2l3.515.2.961,5.707-3.258,1.359a13.91,13.91,0,0,1-.844,3.68l2.344,2.607-3.351,4.687-3.228-1.348a14.061,14.061,0,0,1-3.2,2l-.2,3.515-5.707.961-1.342-3.217a13.909,13.909,0,0,1-3.68-.844l-2.607,2.344-4.717-3.357,1.348-3.222a14.064,14.064,0,0,1-2-3.2l-3.515-.2-.961-5.707,3.24-1.33a13.91,13.91,0,0,1,.844-3.68l-2.344-2.607,3.351-4.687,3.228,1.348Zm4.2,7.166a4.455,4.455,0,1,0,0-.012Z" transform="translate(-407.015 -104.852)" fill="#e1e1e1"/>
      <path id="Trazado_161298" data-name="Trazado 161298" d="M427.619,126.281a4.606,4.606,0,0,1,1-1.172,6.2,6.2,0,0,1,3.861-1.553,6.328,6.328,0,0,1,5.449,2.713,6.1,6.1,0,0,1,.814,1.635,5.987,5.987,0,0,1,.322,1.887,6.339,6.339,0,0,1-4.377,6.152,5.859,5.859,0,0,1-1.887.316,6.017,6.017,0,0,1-1.816-.234,6.345,6.345,0,0,1-2.877-1.758,6.263,6.263,0,0,1-1.271-6.685,4.822,4.822,0,0,1,.785-1.324,12.8,12.8,0,0,0-.656,1.371,6.246,6.246,0,0,0-.088,4.037,6.076,6.076,0,0,0,4.2,4.013,5.584,5.584,0,0,0,1.723.211,5.689,5.689,0,0,0,1.758-.3,6.029,6.029,0,0,0,4.137-5.818,5.684,5.684,0,0,0-.293-1.758,5.765,5.765,0,0,0-.768-1.559,6.058,6.058,0,0,0-5.162-2.642,6.2,6.2,0,0,0-3.785,1.406C427.953,125.836,427.654,126.31,427.619,126.281Z" transform="translate(-415.004 -112.559)" fill="#e1e1e1"/>
      <path id="Trazado_161299" data-name="Trazado 161299" d="M415.384,111.358l-.205-.076-.615-.24-2.426-.978h.064l-3.328,4.74v-.111l2.344,2.6.041.047v.059a14.28,14.28,0,0,0-.82,3.656v.07h-.064l-3.234,1.342.076-.141q.469,2.7.978,5.707l-.129-.117,3.515.187h.088l.041.082a13.986,13.986,0,0,0,1.986,3.164l.059.07-.035.088c-.416,1-.879,2.1-1.342,3.228l-.059-.193,4.722,3.351h-.205l2.607-2.344.076-.07.094.035a14.191,14.191,0,0,0,3.633.832h.105l.041.094,1.33,3.24-.187-.105,5.707-.967-.146.164c.064-1.1.129-2.3.193-3.515v-.111l.1-.041a14.186,14.186,0,0,0,3.158-1.98h0l.088-.07.094.041,3.228,1.348-.211.064,3.357-4.717V130l-2.344-2.607-.07-.076.035-.1a13.9,13.9,0,0,0,.838-3.633v-.105l.094-.041,3.24-1.33-.105.187c-.322-1.951-.645-3.855-.955-5.713l.152.141-3.516-.2h-.1l-.041-.088a13.873,13.873,0,0,0-1.974-3.17l-.059-.07.035-.088,1.353-3.222.053.176-4.687-3.363h.17l-2.613,2.344-.059.053h-.076a14.349,14.349,0,0,0-3.644-.85h-.094v-.064c-.48-1.172-.914-2.238-1.318-3.24l.111.064-5.713.937.064-.076c-.082,1.394-.158,2.543-.217,3.515v.035h-.035a14.518,14.518,0,0,0-2.461,1.4l-.586.416-.193.135a1.662,1.662,0,0,1,.176-.158c.117-.105.3-.252.551-.439a13.532,13.532,0,0,1,2.449-1.459l-.029.047c.047-.955.1-2.1.17-3.515v-.064h.059l5.707-.99h.082l.035.076c.416,1,.85,2.062,1.342,3.234l-.1-.07a14.185,14.185,0,0,1,3.715.838h-.129l2.6-2.344.076-.07.094.064,4.722,3.346.094.07-.041.105c-.439,1.049-.885,2.121-1.342,3.228v-.152a14.312,14.312,0,0,1,2.027,3.228l-.135-.094,3.515.193h.129v.129q.475,2.789.967,5.707v.135l-.123.053-3.234,1.33.105-.141a14.375,14.375,0,0,1-.855,3.726V127.2l2.344,2.607.094.105-.082.117-3.357,4.717-.082.117-.129-.059-3.228-1.348h.182a14.689,14.689,0,0,1-3.24,2.027l.105-.152c-.07,1.172-.135,2.391-.2,3.515v.141h-.141l-5.707.961h-.141l-.053-.129-1.324-3.234.141.105a14.279,14.279,0,0,1-3.721-.861h.17l-2.607,2.344-.1.094-.111-.082-4.687-3.357-.105-.076.053-.117,1.348-3.222v.152a14.446,14.446,0,0,1-2.016-3.234l.123.088-3.515-.205h-.111V128.1c-.334-2-.65-3.914-.949-5.713v-.1l.094-.035,3.24-1.324-.07.1a14.342,14.342,0,0,1,.861-3.7v.105l-2.344-2.619-.047-.053.041-.059,3.387-4.687v-.035h.041l2.385,1.025.615.27A1.44,1.44,0,0,1,415.384,111.358Z" transform="translate(-406.97 -104.79)" fill="#e1e1e1"/>
    </g>
    <g id="Grupo_74963" data-name="Grupo 74963" transform="translate(29.542 27.643)">
      <path id="Trazado_161300" data-name="Trazado 161300" d="M44.14,37.109a8.508,8.508,0,0,1,1.916-1.172l.117-2.092,3.416-.586.8,1.939a8.519,8.519,0,0,1,2.2.5l1.559-1.424,2.824,2.01-.8,1.933a8.255,8.255,0,0,1,1.172,1.916l2.092.117.586,3.416L58.1,44.48a8.572,8.572,0,0,1-.5,2.2l1.383,1.559-2.01,2.824-1.933-.809a8.279,8.279,0,0,1-1.916,1.172L53,53.521l-3.422.586-.8-1.933a8.583,8.583,0,0,1-2.2-.51l-1.559,1.4L42.2,51.054l.809-1.933a8.536,8.536,0,0,1-1.2-1.916l-2.092-.117-.586-3.416,1.939-.8a8.285,8.285,0,0,1,.5-2.2l-1.348-1.541,2.01-2.824,1.933.8ZM46.671,41.4a3.715,3.715,0,1,0,2.41-1.515,3.715,3.715,0,0,0-2.41,1.515Z" transform="translate(-39.054 -33.184)" fill="#f5f5f5"/>
      <path id="Trazado_161301" data-name="Trazado 161301" d="M51.472,46.023a2.777,2.777,0,0,1,.586-.68,3.7,3.7,0,0,1,2.308-.926,3.791,3.791,0,0,1,1.723.334,3.806,3.806,0,0,1,2.221,3.4,3.791,3.791,0,0,1-2.625,3.638,3.609,3.609,0,0,1-1.131.193,3.732,3.732,0,0,1-1.09-.141A3.832,3.832,0,0,1,51.748,50.8a3.756,3.756,0,0,1-.861-1.5A3.715,3.715,0,0,1,51,46.814a2.748,2.748,0,0,1,.469-.791,4.454,4.454,0,0,0-.393.82,3.732,3.732,0,0,0-.053,2.414,3.627,3.627,0,0,0,2.508,2.4,3.574,3.574,0,0,0,1.037.129,3.4,3.4,0,0,0,1.066-.187,3.58,3.58,0,0,0,2.473-3.48,3.658,3.658,0,0,0-5.988-2.742,8.238,8.238,0,0,0-.65.645Z" transform="translate(-43.856 -37.803)" fill="#f5f5f5"/>
      <path id="Trazado_161302" data-name="Trazado 161302" d="M44.086,37.056a.586.586,0,0,1-.123-.041l-.369-.146-1.453-.586h.041l-2.01,2.824v-.07l1.406,1.559v.064a8.349,8.349,0,0,0-.5,2.185v.041h-.041l-1.933.8.07-.088c.182,1.072.375,2.215.586,3.416l-.076-.07,2.092.111h.053V47.1A8.39,8.39,0,0,0,43,49l.035.041v.053l-.8,1.933-.035-.117,2.842,2.068h-.123l1.559-1.4.047-.035h.059a8.367,8.367,0,0,0,2.174.5h.064V52.1l.8,1.939-.07-.064,3.422-.586-.094.1c.041-.662.082-1.371.117-2.092v-.059h.059a8.279,8.279,0,0,0,1.887-1.172h0l.047-.041h.059l1.933.8-.129.041,2.01-2.824v.129l-1.4-1.57-.041-.053v-.059a8.3,8.3,0,0,0,.5-2.174V44.35h.059l1.939-.791-.059.111c-.2-1.172-.387-2.308-.586-3.422l.088.082-2.092-.117H57.21v-.053a8.66,8.66,0,0,0-1.172-1.892l-.047-.076v-.047q.422-.99.809-1.933l.035.105L54.011,34.3h.105L52.587,35.69h-.082a8.531,8.531,0,0,0-2.18-.5h-.041v-.035l-.791-1.945.07.041-3.422.586.041-.047c-.053.838-.094,1.523-.129,2.092h0a8.859,8.859,0,0,0-1.471.838l-.34.252a1.043,1.043,0,0,1-.117.076l.105-.094.328-.264a8.414,8.414,0,0,1,1.471-.873v.029c0-.586.064-1.254.105-2.092v-.035h.041l3.41-.586h.053v.047c.252.586.51,1.236.8,1.939l-.059-.047a8.724,8.724,0,0,1,2.226.5h-.082l1.559-1.4.047-.047.059.041,2.824,2,.059.041v.064c-.258.627-.527,1.271-.8,1.933v-.094A8.689,8.689,0,0,1,57.4,40.085l-.082-.059,2.092.117h.1v.076c.187,1.107.381,2.25.586,3.416v.082l-.076.029-1.933.8.064-.088a8.742,8.742,0,0,1-.51,2.232v-.105l1.394,1.559.059.064-.047.064-2.01,2.83-.047.064h-.082l-1.933-.809h.111a8.976,8.976,0,0,1-1.939,1.213l.064-.094c-.041.721-.082,1.43-.117,2.092v-.006h-.082l-3.422.586h-.082l-.029-.076-.8-1.939.088.064a8.636,8.636,0,0,1-2.232-.51h.105L45.076,53.08l-.059.053-.064-.047-2.848-1.992-.064-.047.029-.07.809-1.928v.094A8.648,8.648,0,0,1,41.666,47.2l.076.053-2.074-.141h-.082v-.07c-.2-1.172-.387-2.344-.586-3.416v-.059h.059L41,42.78l-.041.059a8.384,8.384,0,0,1,.516-2.221v.064c-.5-.586-.973-1.09-1.389-1.564v-.07l2.027-2.812h0l1.424.615.369.164Z" transform="translate(-39 -33.13)" fill="#f5f5f5"/>
    </g>
    <g id="Grupo_74964" data-name="Grupo 74964" transform="translate(254.56 109.407)">
      <path id="Trazado_161303" data-name="Trazado 161303" d="M428.233,176.609a8.256,8.256,0,0,1,1.916-1.172l.117-2.092,3.416-.586.8,1.9a8.571,8.571,0,0,1,2.2.5l1.559-1.394,2.824,2.01-.809,1.933a8.279,8.279,0,0,1,1.2,1.916l2.092.117.586,3.416-1.934.8a8.584,8.584,0,0,1-.51,2.2l1.4,1.559-2.01,2.824-1.934-.809a8.534,8.534,0,0,1-1.916,1.172L437.115,193l-3.416.586-.8-1.934a8.531,8.531,0,0,1-2.2-.51l-1.559,1.4-2.824-2.01.8-1.933a8.51,8.51,0,0,1-1.172-1.916l-2.092-.117-.586-3.416,1.939-.8a8.52,8.52,0,0,1,.5-2.2l-1.43-1.517,2.01-2.824,1.934.8Zm2.514,4.295a2.661,2.661,0,1,0-.018,0Z" transform="translate(-423.141 -172.713)" fill="#ececec"/>
      <path id="Trazado_161304" data-name="Trazado 161304" d="M435.464,185.5a2.812,2.812,0,0,1,.586-.709,3.7,3.7,0,0,1,2.314-.926,3.767,3.767,0,0,1,3.258,1.623,3.514,3.514,0,0,1,.492.978,3.632,3.632,0,0,1,.193,1.131,3.791,3.791,0,0,1-2.619,3.68,3.639,3.639,0,0,1-1.131.193,3.551,3.551,0,0,1-1.09-.146,3.762,3.762,0,0,1-2.6-2.543,3.673,3.673,0,0,1,.123-2.49,2.748,2.748,0,0,1,.469-.791,7.957,7.957,0,0,0-.393.82,3.691,3.691,0,0,0-.053,2.414,3.627,3.627,0,0,0,2.508,2.4,3.557,3.557,0,0,0,1.031.129,3.351,3.351,0,0,0,1.066-.188,3.618,3.618,0,0,0,1.846-5.478,3.7,3.7,0,0,0-1.453-1.242,3.609,3.609,0,0,0-1.641-.34,3.7,3.7,0,0,0-2.267.838,7.414,7.414,0,0,0-.639.645Z" transform="translate(-427.877 -177.311)" fill="#f5f5f5"/>
      <path id="Trazado_161305" data-name="Trazado 161305" d="M428.142,176.576l-.123-.041-.369-.146L426.2,175.8h.041l-1.992,2.836v-.07l1.4,1.559h0v.035a8.591,8.591,0,0,0-.492,2.185v.041h-.035l-1.939.8.047-.082c.188,1.072.381,2.215.586,3.416l-.076-.07,2.092.111h.053v.047a8.829,8.829,0,0,0,1.172,1.892l.041.041v.053c-.252.586-.527,1.26-.8,1.934l-.035-.117,2.824,2.01h-.123l1.564-1.4.041-.041h.059a8.472,8.472,0,0,0,2.18.5h.059v.059c.252.586.521,1.266.8,1.934l-.111-.059,3.416-.586-.088.1c.035-.662.076-1.371.117-2.092v-.064h.059a8.491,8.491,0,0,0,1.887-1.172h0l.053-.041.059.029,1.934.8-.129.035,2.01-2.818v.129c-.469-.527-.932-1.049-1.394-1.559l-.041-.053v-.059a8.535,8.535,0,0,0,.5-2.174v-.064h.059l1.939-.791-.064.111q-.287-1.758-.586-3.422l.094.082-2.092-.117h-.059v-.053a8.443,8.443,0,0,0-1.172-1.892l-.035-.047v-.047l.809-1.933.029.105-2.818-2.016h.1l-1.488,1.4-.035.029h-.041a8.583,8.583,0,0,0-2.18-.5h-.047V174.7l-.791-1.945.07.041-3.422.586.041-.047c-.053.838-.094,1.523-.135,2.092h0a8.971,8.971,0,0,0-1.477.838l-.34.252-.111.076.1-.094c.07-.059.182-.152.334-.264a8.314,8.314,0,0,1,1.465-.873v.029c.029-.586.059-1.254.1-2.092v-.035h.035l3.416-.586h.053v.047l.8,1.939-.059-.047a8.624,8.624,0,0,1,2.221.5h-.076l1.559-1.4.047-.047.053.041,2.83,2,.059.041-.029.064c-.264.627-.527,1.271-.8,1.934v-.094a8.5,8.5,0,0,1,1.219,1.934l-.082-.059,2.092.117h.023v.076c.193,1.107.387,2.25.586,3.416v.082l-.076.029-1.939.8.064-.088a8.745,8.745,0,0,1-.51,2.232V186.1l1.394,1.559.059.064-.053.064-2,2.83-.053.064-.076-.029-1.933-.809h.111a8.7,8.7,0,0,1-1.934,1.207l.059-.088c-.041.721-.076,1.43-.117,2.092v.082h-.082l-3.416.586h-.082l-.035-.076c-.269-.668-.545-1.33-.791-1.939l.082.064a8.536,8.536,0,0,1-2.226-.51h.105l-1.564,1.394-.059.053-.064-.047-2.824-2.01-.059-.047.029-.07.809-1.928v.094a8.611,8.611,0,0,1-1.207-1.939l.076.053-2.092-.123h-.07v-.07c-.2-1.172-.393-2.344-.586-3.416v-.059h.053l1.945-.791-.047.059a8.618,8.618,0,0,1,.516-2.221v.064l-1.389-1.564-.029-.035.029-.035,2.021-2.812h0l1.43.586.363.164Z" transform="translate(-423.05 -172.68)" fill="#f5f5f5"/>
    </g>
    <g id="Grupo_74965" data-name="Grupo 74965" transform="translate(49.568 247.738)">
      <path id="Trazado_161306" data-name="Trazado 161306" d="M88.674,408.791a5.8,5.8,0,0,1,3.193,3.24,10.189,10.189,0,0,1,.65,4.593,18.055,18.055,0,0,1-3.416,8.619c-2.637-2.062-3.428-5.859-3.709-7.822-.439-3.094.639-8.953,3.281-8.63" transform="translate(-78.197 -408.778)" fill="#ff4f5b"/>
      <path id="Trazado_161307" data-name="Trazado 161307" d="M97.148,440.412a4.957,4.957,0,0,1,1.342-4.8,6.58,6.58,0,0,1,4.763-1.758,2.789,2.789,0,0,1,2.185.838,2.127,2.127,0,0,1,.146,2.144,4.277,4.277,0,0,1-1.5,1.652c-2.115,1.488-4.429,2.543-6.937,1.939" transform="translate(-83.038 -419.16)" fill="#ff4f5b"/>
      <path id="Trazado_161308" data-name="Trazado 161308" d="M92.59,451.878a4.688,4.688,0,0,1,.059-.621c.053-.439.129-1,.211-1.682a17.508,17.508,0,0,1,1.43-5.4,10.646,10.646,0,0,1,3.592-4.26,7.115,7.115,0,0,1,1.517-.773c.188-.076.34-.105.439-.141l.158-.029a11.318,11.318,0,0,0-2.027,1.072,11.044,11.044,0,0,0-3.515,4.224,18.679,18.679,0,0,0-1.465,5.332c-.117.709-.211,1.277-.287,1.67A3.246,3.246,0,0,1,92.59,451.878Z" transform="translate(-81.217 -421.28)" fill="#12263f"/>
      <path id="Trazado_161309" data-name="Trazado 161309" d="M90.33,416.53a1.5,1.5,0,0,1,.047.27c0,.2.053.451.088.768.07.668.164,1.641.27,2.836.205,2.4.445,5.707.633,9.375s.275,6.984.3,9.375v3.621a1.078,1.078,0,0,1,0,.27,1.231,1.231,0,0,1,0-.27V442c0-.7-.053-1.664-.088-2.842-.07-2.4-.187-5.718-.369-9.375s-.4-6.972-.586-9.375c-.082-1.172-.146-2.139-.2-2.836,0-.322-.035-.586-.047-.773A1.664,1.664,0,0,1,90.33,416.53Z" transform="translate(-80.281 -411.988)" fill="#12263f"/>
      <path id="Trazado_161310" data-name="Trazado 161310" d="M83.035,442.567a11.613,11.613,0,0,0-6.8-8.138c-.867-.357-1.98-.586-2.637.105a2.407,2.407,0,0,0-.059,2.637,9.914,9.914,0,0,0,9.433,5.654" transform="translate(-73.179 -419.258)" fill="#ff4f5b"/>
      <path id="Trazado_161311" data-name="Trazado 161311" d="M79.36,439.48a3.2,3.2,0,0,1,.551.205,5.925,5.925,0,0,1,.621.287,8.29,8.29,0,0,1,.8.445,9.631,9.631,0,0,1,.914.615,10.487,10.487,0,0,1,1.008.8,12.89,12.89,0,0,1,1.9,2.191,12.572,12.572,0,0,1,1.318,2.59,10.342,10.342,0,0,1,.363,1.213,9.736,9.736,0,0,1,.211,1.084c.064.334.064.639.094.908a5.31,5.31,0,0,1,0,.686,3.142,3.142,0,0,1-.035.586c-.047,0,0-.838-.228-2.15a9.582,9.582,0,0,0-.234-1.066,11.44,11.44,0,0,0-.375-1.172,12.792,12.792,0,0,0-1.312-2.537A13.166,13.166,0,0,0,83.1,442a11.537,11.537,0,0,0-.961-.809,8.2,8.2,0,0,0-.885-.627C80.116,439.832,79.342,439.527,79.36,439.48Z" transform="translate(-75.738 -421.492)" fill="#12263f"/>
    </g>
    <g id="Grupo_74971" data-name="Grupo 74971" transform="translate(33.997 42.841)">
      <path id="Trazado_161312" data-name="Trazado 161312" d="M68.995,144.963S59.421,60.985,145.579,59.1s77.029,84.921,73.4,96.716-20.987,45.935-22.809,61.52.557,62.382,1.758,77.68H109.229l.34-46.246S77.2,253.954,71.274,239.33,65.8,196.4,65.8,196.4s-17.776,0-19.142-2.83S68.995,144.963,68.995,144.963Z" transform="translate(-46.603 -59.068)" fill="#ff4f5b"/>
      <path id="Trazado_161313" data-name="Trazado 161313" d="M68.995,144.963S59.421,60.985,145.579,59.1s77.029,84.921,73.4,96.716-20.987,45.935-22.809,61.52.557,62.382,1.758,77.68H109.229l.34-46.246S77.2,253.954,71.274,239.33,65.8,196.4,65.8,196.4s-17.776,0-19.142-2.83S68.995,144.963,68.995,144.963Z" transform="translate(-46.603 -59.068)" fill="#ff4f5b"/>
      <g id="Grupo_74966" data-name="Grupo 74966" transform="translate(0)" opacity="0.7">
        <path id="Trazado_161314" data-name="Trazado 161314" d="M68.995,144.963S59.421,60.985,145.579,59.1s77.029,84.921,73.4,96.716-20.987,45.935-22.809,61.52.557,62.382,1.758,77.68H109.229l.34-46.246S77.2,253.954,71.274,239.33,65.8,196.4,65.8,196.4s-17.776,0-19.142-2.83S68.995,144.963,68.995,144.963Z" transform="translate(-46.603 -59.068)" fill="#fff"/>
      </g>
      <g id="Grupo_74970" data-name="Grupo 74970" transform="translate(30.542 11.504)">
        <path id="Trazado_161315" data-name="Trazado 161315" d="M135.742,108.472c-4.933-1.23-11.449-3.814-16.745.932-2.713,2.426-4.23,7.787-4.412,11.472a17.771,17.771,0,0,0-13.353,7.588,12.89,12.89,0,0,0-2.5,7.617,8.042,8.042,0,0,0,3.814,6.785,12.632,12.632,0,0,0-.68,12.972,11.988,11.988,0,0,0,11.173,6.117,14.337,14.337,0,0,0,4.687,12.843,13.534,13.534,0,0,0,13.183,2.455c4.271,6.322,14.062,7.7,19.827,2.8a5.763,5.763,0,0,1,2.344-1.494,4.582,4.582,0,0,1,2.344.457c3.849,1.482,7.968,2.765,12.035,2.092s8-3.867,8.285-8.08a30.684,30.684,0,0,0,14.466,3.726c5.771,0,12.5-2.619,13.734-8.408a11.29,11.29,0,0,0,12.146,1.1,11.882,11.882,0,0,0,6-10.886c4.9.955,9.064-4.049,10.376-8.982,1.271-4.787.914-10.166-1.67-14.361s-7.617-6.925-12.357-6.035a12.738,12.738,0,0,0,.867-12.732,12.111,12.111,0,0,0-10.687-6.55,11.244,11.244,0,0,0-7.4-7.412,10.91,10.91,0,0,0-10.107,2.256,18.972,18.972,0,0,0-13.95-9.111,18.749,18.749,0,0,0-15.556,5.859c-3.914-3.451-10.986-5.332-15.9-3.7a14.859,14.859,0,0,0-9.96,10.664" transform="translate(-98.73 -85.676)" fill="#ff4f5b"/>
        <g id="Grupo_74967" data-name="Grupo 74967" transform="translate(0 9.866)" opacity="0.3">
          <path id="Trazado_161316" data-name="Trazado 161316" d="M135.742,108.472c-4.933-1.23-11.449-3.814-16.745.932-2.713,2.426-4.23,7.787-4.412,11.472a17.771,17.771,0,0,0-13.353,7.588,12.89,12.89,0,0,0-2.5,7.617,8.042,8.042,0,0,0,3.814,6.785,12.632,12.632,0,0,0-.68,12.972,11.988,11.988,0,0,0,11.173,6.117,14.337,14.337,0,0,0,4.687,12.843,13.534,13.534,0,0,0,13.183,2.455c4.271,6.322,14.062,7.7,19.827,2.8a5.763,5.763,0,0,1,2.344-1.494,4.582,4.582,0,0,1,2.344.457c3.849,1.482,7.968,2.765,12.035,2.092s8-3.867,8.285-8.08a30.684,30.684,0,0,0,14.466,3.726c5.771,0,12.5-2.619,13.734-8.408a11.29,11.29,0,0,0,12.146,1.1,11.882,11.882,0,0,0,6-10.886c4.9.955,9.064-4.049,10.376-8.982,1.271-4.787.914-10.166-1.67-14.361s-7.617-6.925-12.357-6.035a12.738,12.738,0,0,0,.867-12.732,12.111,12.111,0,0,0-10.687-6.55,11.244,11.244,0,0,0-7.4-7.412,10.91,10.91,0,0,0-10.107,2.256,18.972,18.972,0,0,0-13.95-9.111,18.749,18.749,0,0,0-15.556,5.859c-3.914-3.451-10.986-5.332-15.9-3.7a14.859,14.859,0,0,0-9.96,10.664" transform="translate(-98.73 -95.543)" fill="#fff"/>
        </g>
        <g id="Grupo_74968" data-name="Grupo 74968" transform="translate(3.228 15.485)">
          <path id="Trazado_161317" data-name="Trazado 161317" d="M141.594,135.857a5.513,5.513,0,0,0-4.916,2.344,11.606,11.606,0,0,0-2.051,5.947,16.16,16.16,0,0,0-.035,3.844,6.445,6.445,0,0,0,1.652,3.738l.211.211-.293.047a11.373,11.373,0,0,0-6.779,3.978,11.2,11.2,0,0,0-1.928,3.392,11.631,11.631,0,0,0-.645,3.691,11.882,11.882,0,0,0,1.787,6.5l.105.158-.187.047a5.525,5.525,0,0,0-2.484,1.406,7.892,7.892,0,0,0-1.547,2.115,12.023,12.023,0,0,0-1.125,4.1c-.129,1.172-.152,2.139-.176,2.777v.732a1.612,1.612,0,0,1,0,.252,1.02,1.02,0,0,1,0-.252c0-.187,0-.428,0-.732a27.785,27.785,0,0,1,.1-2.789,12.087,12.087,0,0,1,1.084-4.213,8.027,8.027,0,0,1,1.57-2.191,5.76,5.76,0,0,1,2.6-1.494l-.082.205a12.2,12.2,0,0,1-1.277-10.406,11.367,11.367,0,0,1,1.98-3.515,11.63,11.63,0,0,1,6.972-4.1l-.082.258A6.668,6.668,0,0,1,134.328,148a16.024,16.024,0,0,1,.059-3.908,11.711,11.711,0,0,1,2.162-6.041,6.111,6.111,0,0,1,3.545-2.232A3.516,3.516,0,0,1,141.594,135.857Z" transform="translate(-112.082 -117.813)" fill="#ff4f5b"/>
          <path id="Trazado_161318" data-name="Trazado 161318" d="M164.912,190.592a5.987,5.987,0,0,1-.879.4,24.085,24.085,0,0,1-2.484.879,11.906,11.906,0,0,1-3.885.545,7.376,7.376,0,0,1-2.291-.475,8.249,8.249,0,0,1-2.156-1.271,9.035,9.035,0,0,1-3.035-3.7,7.072,7.072,0,0,1-.3-3.908,6.486,6.486,0,0,1,1.019-2.443,4.492,4.492,0,0,1,.451-.586.89.89,0,0,1,.182-.17,9.434,9.434,0,0,0-.527.8,6.826,6.826,0,0,0-.9,2.414,7.031,7.031,0,0,0,.357,3.756,8.835,8.835,0,0,0,2.93,3.574,7.283,7.283,0,0,0,4.271,1.7,12.257,12.257,0,0,0,3.808-.469c1.066-.281,1.916-.586,2.5-.779a5.987,5.987,0,0,1,.943-.281Z" transform="translate(-123.078 -136.081)" fill="#ff4f5b"/>
          <path id="Trazado_161319" data-name="Trazado 161319" d="M218.748,179.71v.164a4.953,4.953,0,0,1-.076.492c-.076.428-.176,1.061-.34,1.887a27.935,27.935,0,0,1-.75,2.976,13.241,13.241,0,0,1-1.793,3.715,12.931,12.931,0,0,1-3.68,3.486,16.716,16.716,0,0,1-5.437,2.344,13.135,13.135,0,0,1-3.246.316,14.906,14.906,0,0,1-3.387-.551,23.179,23.179,0,0,1-6.6-3.135l.234-.1a23.987,23.987,0,0,1-2.133,7.488,10.265,10.265,0,0,1-1.172,1.7,8.835,8.835,0,0,1-1.553,1.4,10.546,10.546,0,0,1-3.92,1.576,14.906,14.906,0,0,1-13.247-3.949l.264-.088a7.259,7.259,0,0,1-1.629,3.574,8.836,8.836,0,0,1-2.988,2.344,10.6,10.6,0,0,1-6.92.545,16.991,16.991,0,0,1-5.683-2.543,10.74,10.74,0,0,1-3.574-3.961,7.084,7.084,0,0,1-.686-2.221,6.8,6.8,0,0,1,.07-2.057,6.246,6.246,0,0,1,1.383-2.93,4.224,4.224,0,0,1,1.646-1.172,3.634,3.634,0,0,1,.674-.2s-.234.07-.656.246a4.365,4.365,0,0,0-1.582,1.207,6.252,6.252,0,0,0-1.318,2.889,6.509,6.509,0,0,0,.645,4.166,10.476,10.476,0,0,0,3.515,3.855,16.786,16.786,0,0,0,5.613,2.478,10.353,10.353,0,0,0,6.726-.586,8.66,8.66,0,0,0,2.883-2.244,6.99,6.99,0,0,0,1.553-3.428l.047-.3.211.211a14.648,14.648,0,0,0,12.966,3.855,10.259,10.259,0,0,0,3.8-1.523,8.641,8.641,0,0,0,1.494-1.353,10.013,10.013,0,0,0,1.119-1.641,23.855,23.855,0,0,0,2.109-7.394l.041-.229.193.129a22.9,22.9,0,0,0,6.5,3.111,14.7,14.7,0,0,0,3.322.557,12.645,12.645,0,0,0,3.181-.3,16.465,16.465,0,0,0,5.367-2.279,12.89,12.89,0,0,0,3.65-3.4,13.535,13.535,0,0,0,1.81-3.65,28.225,28.225,0,0,0,.785-2.959c.176-.814.3-1.447.387-1.875.041-.205.076-.363.1-.486a.533.533,0,0,1,.07-.164Z" transform="translate(-123.35 -136.015)" fill="#ff4f5b"/>
          <path id="Trazado_161320" data-name="Trazado 161320" d="M268.752,148.139a1.847,1.847,0,0,1,.4.029l.486.064.645.158a9.961,9.961,0,0,1,3.715,2,14.5,14.5,0,0,1,3.8,4.969,19.008,19.008,0,0,1,1.248,3.515,8.349,8.349,0,0,1,.264,1.969,18.21,18.21,0,0,1-.176,2.021,10.916,10.916,0,0,1-1.26,3.8,9.492,9.492,0,0,1-2.5,2.765,16.077,16.077,0,0,1-5.625,2.754,15.4,15.4,0,0,1-4.207.416,9.7,9.7,0,0,1-1.143-.07,1.757,1.757,0,0,1-.4-.053,1.623,1.623,0,0,1,.4,0h1.143a16.471,16.471,0,0,0,4.148-.51,16.1,16.1,0,0,0,5.5-2.771,9.21,9.21,0,0,0,2.408-2.689,10.67,10.67,0,0,0,1.213-3.685c.586-2.678-.357-5.2-1.283-7.318a14.689,14.689,0,0,0-3.679-4.927,10.3,10.3,0,0,0-3.6-2.051l-.633-.187-.469-.094A2.927,2.927,0,0,1,268.752,148.139Z" transform="translate(-170.395 -122.941)" fill="#ff4f5b"/>
          <path id="Trazado_161321" data-name="Trazado 161321" d="M299.143,163.88a3.165,3.165,0,0,1,.352.709,6.938,6.938,0,0,1,.439,2.121,7.857,7.857,0,0,1-.486,3.176,7.406,7.406,0,0,1-2.273,3.217,8.444,8.444,0,0,1-1.758,1.06,7.452,7.452,0,0,1-1.822.586,5.935,5.935,0,0,1-3.24-.252,5.214,5.214,0,0,1-1.822-1.172,4.1,4.1,0,0,1-.393-.439c-.082-.105-.123-.158-.111-.17a6.339,6.339,0,0,1,.586.521,5.712,5.712,0,0,0,1.816,1.055,5.824,5.824,0,0,0,3.076.182,7.312,7.312,0,0,0,1.758-.586,7.915,7.915,0,0,0,1.693-1.025,7.236,7.236,0,0,0,2.185-3.053,8.092,8.092,0,0,0,.539-3.07,9.961,9.961,0,0,0-.539-2.859Z" transform="translate(-180.345 -129.46)" fill="#ff4f5b"/>
          <path id="Trazado_161322" data-name="Trazado 161322" d="M238.082,120.455a8.2,8.2,0,0,0-1.131-.187,5.4,5.4,0,0,0-1.383.088,6.884,6.884,0,0,0-1.758.65,8.566,8.566,0,0,0-3.58,3.762,24.922,24.922,0,0,0-2.021,6.791l-.047.252-.141-.217a14.32,14.32,0,0,0-5.15-4.834A13.57,13.57,0,0,0,215,125.042a14.3,14.3,0,0,0-8.2,3.58,11.859,11.859,0,0,0-2.93,3.832,6.826,6.826,0,0,0-.5,4.845l.281.9-.551-.773a12.943,12.943,0,0,0-10.634-5.179c-.469.047-.949.047-1.418.141a10.945,10.945,0,0,0-2.754.791,11.97,11.97,0,0,0-2.49,1.488,13.388,13.388,0,0,0-4.535,6.8,12.954,12.954,0,0,0-.387,5.179l.035.252-.24-.082a13.236,13.236,0,0,0-6.029-.691,8.525,8.525,0,0,0-5.15,2.619,7.154,7.154,0,0,0-1.81,5.209,7.886,7.886,0,0,0,2.033,4.927,8.789,8.789,0,0,0,4.383,2.642,14.677,14.677,0,0,0,4.91.281,12.7,12.7,0,0,0,4.441-1.172,7.171,7.171,0,0,0,3.105-2.836l.076-.135.1.111a7.851,7.851,0,0,0,3.844,2.308,7.511,7.511,0,0,0,4-.053,6.445,6.445,0,0,0,2.93-1.846,7.547,7.547,0,0,0,1.482-2.537,7.224,7.224,0,0,0,.252-4.037,10.133,10.133,0,0,0-.469-1.348,3.438,3.438,0,0,1,.164.322,5.325,5.325,0,0,1,.369,1.014,7.2,7.2,0,0,1-.2,4.1,7.7,7.7,0,0,1-1.488,2.6,6.586,6.586,0,0,1-3.006,1.916,7.675,7.675,0,0,1-4.1.076,8.056,8.056,0,0,1-3.961-2.344h.182a7.312,7.312,0,0,1-3.193,2.93,12.843,12.843,0,0,1-4.523,1.23,14.923,14.923,0,0,1-5-.27,9.064,9.064,0,0,1-4.529-2.719,8.132,8.132,0,0,1-2.115-5.1,7.412,7.412,0,0,1,1.881-5.426,8.853,8.853,0,0,1,5.326-2.73,13.581,13.581,0,0,1,6.175.7l-.205.17a13.265,13.265,0,0,1,.393-5.308,13.775,13.775,0,0,1,4.64-6.966,12.38,12.38,0,0,1,2.566-1.529,11.472,11.472,0,0,1,2.83-.809,13.556,13.556,0,0,1,1.453-.146c.486,0,.973,0,1.453.047a12.89,12.89,0,0,1,9.445,5.273l-.27.135a7.125,7.125,0,0,1,.521-5.056,11.988,11.988,0,0,1,2.994-3.92,14.507,14.507,0,0,1,8.367-3.633,13.833,13.833,0,0,1,8.015,1.758,14.519,14.519,0,0,1,5.2,4.927l-.182.035a25.083,25.083,0,0,1,2.08-6.82,8.624,8.624,0,0,1,3.674-3.785,6.773,6.773,0,0,1,1.816-.639,5.73,5.73,0,0,1,1.406-.064,4.1,4.1,0,0,1,.844.158A1.378,1.378,0,0,1,238.082,120.455Z" transform="translate(-130.375 -111.381)" fill="#ff4f5b"/>
          <path id="Trazado_161323" data-name="Trazado 161323" d="M254.008,163.33a6.151,6.151,0,0,1-.094.967,17.293,17.293,0,0,1-.586,2.6,7.347,7.347,0,0,1-2.016,3.392,8.338,8.338,0,0,1-4.488,1.758,9.064,9.064,0,0,1-4.763-.645,7.3,7.3,0,0,1-3.029-2.519A6.445,6.445,0,0,1,238,166.424a4.689,4.689,0,0,1-.082-.721.843.843,0,0,1,0-.252c.035,0,.047.346.193.949a6.756,6.756,0,0,0,1.1,2.344,7.172,7.172,0,0,0,2.971,2.385,8.953,8.953,0,0,0,4.623.621,8.2,8.2,0,0,0,4.33-1.687,7.312,7.312,0,0,0,1.992-3.234,22.7,22.7,0,0,0,.65-2.555,5.9,5.9,0,0,1,.24-.943Z" transform="translate(-159.589 -129.232)" fill="#ff4f5b"/>
          <path id="Trazado_161324" data-name="Trazado 161324" d="M240.654,110.29a5.271,5.271,0,0,1-.7.316c-.457.193-1.125.475-1.939.879a12.075,12.075,0,0,0-2.742,1.687,3.662,3.662,0,0,0-1.049,1.576,2.531,2.531,0,0,0,.123,2l-.252.158a8.172,8.172,0,0,0-4.57-2.836,18.989,18.989,0,0,0-6.035-.75,9.4,9.4,0,0,0-4.646,1.629,10.077,10.077,0,0,0-2.437,2.344c-.475.639-.686,1.037-.709,1.019a1.12,1.12,0,0,1,.129-.293,8.057,8.057,0,0,1,.48-.8,9.72,9.72,0,0,1,2.408-2.432,9.457,9.457,0,0,1,4.752-1.758,14.536,14.536,0,0,1,3.012.1,23.438,23.438,0,0,1,3.164.633,8.536,8.536,0,0,1,4.722,2.971l-.252.164a2.812,2.812,0,0,1-.123-2.232,3.926,3.926,0,0,1,1.143-1.676,11.759,11.759,0,0,1,2.836-1.67c.832-.375,1.512-.639,1.98-.8A3.825,3.825,0,0,1,240.654,110.29Z" transform="translate(-150.395 -107.268)" fill="#ff4f5b"/>
          <path id="Trazado_161325" data-name="Trazado 161325" d="M166.975,131.52a4.893,4.893,0,0,1-.779-1.23,7.394,7.394,0,0,1-.621-3.937,7.5,7.5,0,0,1,.838-2.689,6.386,6.386,0,0,1,2.221-2.344,7.148,7.148,0,0,1,3.469-1.09,6.738,6.738,0,0,1,3.826.92l-.211.223a7.687,7.687,0,0,1-1.254-3.428,11.994,11.994,0,0,1,2.244-8.408,10.546,10.546,0,0,1,5.859-4.049,10.054,10.054,0,0,1,4.828-.117,8.155,8.155,0,0,1,1.266.381,4.316,4.316,0,0,1,.422.187c0,.035-.586-.229-1.711-.451a10.435,10.435,0,0,0-10.435,4.2,11.753,11.753,0,0,0-2.168,8.2,7.453,7.453,0,0,0,1.172,3.287l.41.586-.621-.363a6.5,6.5,0,0,0-3.65-.891,6.89,6.89,0,0,0-3.328,1.025,6.246,6.246,0,0,0-2.162,2.256,7.464,7.464,0,0,0-.322,6.445A7.727,7.727,0,0,0,166.975,131.52Z" transform="translate(-129.617 -105.133)" fill="#ff4f5b"/>
          <path id="Trazado_161326" data-name="Trazado 161326" d="M112.2,163.19h.182a2.222,2.222,0,0,1,.5.152,3.111,3.111,0,0,1,1.389,1.3,3.674,3.674,0,0,1,.387,2.783,4.986,4.986,0,0,1-2.033,2.789,7.212,7.212,0,0,1-3.264,1.137,10.757,10.757,0,0,1-2.812,0,4.312,4.312,0,0,1-1.787-.639,1.553,1.553,0,0,1-.521-.463,4.769,4.769,0,0,0,2.344.879,11.665,11.665,0,0,0,2.748-.076,7.218,7.218,0,0,0,3.117-1.113,4.8,4.8,0,0,0,1.928-2.6,3.515,3.515,0,0,0-.293-2.607,3.129,3.129,0,0,0-1.254-1.295C112.443,163.26,112.2,163.219,112.2,163.19Z" transform="translate(-104.24 -129.174)" fill="#ff4f5b"/>
          <path id="Trazado_161327" data-name="Trazado 161327" d="M154.132,229.346a1.9,1.9,0,0,1-.469-.322,6.874,6.874,0,0,1-1.049-1.172,9.96,9.96,0,0,1-1.822-4.758,9.6,9.6,0,0,1,.082-2.83,9.134,9.134,0,0,1,.709-2.2,4.136,4.136,0,0,1,1.172-1.758,3.975,3.975,0,0,1-.3.475,8.659,8.659,0,0,0-.674,1.365,9.721,9.721,0,0,0-.621,2.162,9.871,9.871,0,0,0-.059,2.742,10.6,10.6,0,0,0,1.687,4.687A14.954,14.954,0,0,0,154.132,229.346Z" transform="translate(-123.489 -151.17)" fill="#ff4f5b"/>
          <path id="Trazado_161328" data-name="Trazado 161328" d="M190.744,225.79a3.128,3.128,0,0,1,.387,1.2,7,7,0,0,1-.164,3.035,6.879,6.879,0,0,1-1.424,2.683,3.029,3.029,0,0,1-.955.82c-.035-.041.322-.357.779-.961a7.9,7.9,0,0,0,1.541-5.549C190.832,226.265,190.692,225.808,190.744,225.79Z" transform="translate(-139.167 -155.096)" fill="#ff4f5b"/>
          <path id="Trazado_161329" data-name="Trazado 161329" d="M228.631,213.63a2.016,2.016,0,0,1,.246.586,10.431,10.431,0,0,1,.428,1.629,12.3,12.3,0,0,1-2.883,10.376,10.4,10.4,0,0,1-1.213,1.172,2.186,2.186,0,0,1-.51.352c-.035-.047.662-.586,1.553-1.664a13.188,13.188,0,0,0,2.5-4.8,13.336,13.336,0,0,0,.328-5.4C228.882,214.468,228.578,213.648,228.631,213.63Z" transform="translate(-154.121 -150.061)" fill="#ff4f5b"/>
          <path id="Trazado_161330" data-name="Trazado 161330" d="M275.877,199.28a3.1,3.1,0,0,1,.281.41,11.725,11.725,0,0,1,.586,1.213,16.242,16.242,0,0,1,1.113,8.789,11.138,11.138,0,0,1-.275,1.324,1.657,1.657,0,0,1-.164.469c-.053,0,.1-.7.217-1.822a18.9,18.9,0,0,0-1.1-8.671C276.152,199.93,275.83,199.3,275.877,199.28Z" transform="translate(-175.312 -144.118)" fill="#ff4f5b"/>
        </g>
        <path id="Trazado_161331" data-name="Trazado 161331" d="M190.284,82.516a12.762,12.762,0,0,0-3.6-2.285,14.747,14.747,0,0,0-4.1-1.43c-3.849-.586-7.57,1.553-10.136,4.043s-4.517,5.478-7.523,7.617l7.775-.129a20.775,20.775,0,0,0,6.873-.891c2.713-1.014,4.781-3.515,7.734-3.8a16.107,16.107,0,0,1,4.81.586,6.445,6.445,0,0,0-1.828-3.715Zm-7.857,3.058a1.172,1.172,0,0,1-.7.158,2.343,2.343,0,0,0-.586,0c-.463.094-.709.621-1.1.9a1.025,1.025,0,0,1-1.107.053.885.885,0,0,1-.357-1.037,1.219,1.219,0,0,1,.316-.434,3.515,3.515,0,0,1,1.172-.732,1.9,1.9,0,0,1,1.863-.293c.4.117.838.381.855.8A.721.721,0,0,1,182.427,85.574Z" transform="translate(-126.139 -78.703)" fill="#078c9d"/>
        <path id="Trazado_161332" data-name="Trazado 161332" d="M180.93,87.463a5.41,5.41,0,0,0,.48-.287c.3-.2.744-.521,1.283-.961s1.172-1.019,1.957-1.641a8.642,8.642,0,0,1,3.07-1.453A7.669,7.669,0,0,1,189.7,82.9a9.8,9.8,0,0,1,2.133.3,12.667,12.667,0,0,1,4.265,2.021,13.768,13.768,0,0,1,3.568,3.8,22.668,22.668,0,0,1,2.437,5.039,85.693,85.693,0,0,1,2.572,10.458c.7,3.228,1.277,6.146,1.787,8.607s.891,4.406,1.172,5.806c.123.662.229,1.172.3,1.582a1.769,1.769,0,0,0,.076.41.544.544,0,0,1,0,.146.44.44,0,0,1-.047-.141c-.029-.105-.059-.24-.1-.4-.088-.387-.211-.908-.363-1.57-.311-1.394-.744-3.363-1.277-5.783s-1.172-5.367-1.851-8.6a80.738,80.738,0,0,0-2.59-10.412c-1.26-3.592-3.176-6.8-5.859-8.7a12.363,12.363,0,0,0-4.16-2,7.98,7.98,0,0,0-3.984-.117,8.4,8.4,0,0,0-3.017,1.371c-.779.586-1.418,1.172-1.98,1.588a13.972,13.972,0,0,1-1.33.92c-.164.094-.287.152-.375.193S180.936,87.469,180.93,87.463Z" transform="translate(-132.768 -80.44)" fill="#12263f"/>
        <path id="Trazado_161333" data-name="Trazado 161333" d="M240.179,104.267a5.156,5.156,0,0,0,.3,4.277,8.042,8.042,0,0,0,3.381,2.5,33.907,33.907,0,0,1,5.484,3.556,3.328,3.328,0,0,0-.223-2.537q-.4-1.066-.844-2.109a11.891,11.891,0,0,0-3.14-4.74c-1.482-1.189-3.4-2.021-4.963-.943" transform="translate(-157.168 -89.082)" fill="#078c9d"/>
        <path id="Trazado_161334" data-name="Trazado 161334" d="M237.192,107.67a8.009,8.009,0,0,1-.586-.732,10.178,10.178,0,0,0-1.857-1.758,7.617,7.617,0,0,0-3.474-1.453,6.3,6.3,0,0,0-4.394.932,9.058,9.058,0,0,0-2.871,3.556,28.467,28.467,0,0,0-1.459,3.515,11.447,11.447,0,0,0-.545,2.508c-.053.586-.035.943-.064.949a1.12,1.12,0,0,1-.041-.246v-.709a10.213,10.213,0,0,1,.451-2.566,25.417,25.417,0,0,1,1.412-3.592,9.164,9.164,0,0,1,2.93-3.691,6.521,6.521,0,0,1,4.64-.949,7.74,7.74,0,0,1,3.515,1.559,9.234,9.234,0,0,1,1.822,1.869c.182.246.311.451.393.586a.873.873,0,0,1,.129.223Z" transform="translate(-149.734 -88.905)" fill="#12263f"/>
        <path id="Trazado_161335" data-name="Trazado 161335" d="M160.2,155.47a2.783,2.783,0,0,0-4.312.645,5.6,5.6,0,0,0-.457,1.916,3.879,3.879,0,0,0,0,1.471,6.2,6.2,0,0,1,.205.715,2.238,2.238,0,0,1-.111.9,4.957,4.957,0,0,0-.258,1.453,1.447,1.447,0,0,0,.662,1.242,1.57,1.57,0,0,1,.51.293.926.926,0,0,1,.146.586c0,.8.041,1.588.064,2.385a3.633,3.633,0,0,0,1.435-3.556,6.656,6.656,0,0,1-.223-1.219c0-.908.7-1.723.633-2.625s-.791-1.5-.961-2.344a1.881,1.881,0,0,1,.615-1.758,1.758,1.758,0,0,1,1.828-.264" transform="translate(-122.143 -110.181)" fill="#078c9d"/>
        <path id="Trazado_161336" data-name="Trazado 161336" d="M211.976,110.687a3.135,3.135,0,0,0-5.373.475,6.627,6.627,0,0,1-.826,1.67c-.756.826-2.162.7-2.93,1.518a2.566,2.566,0,0,0-.527,1.019,5.138,5.138,0,0,0,.539,4.06,9.421,9.421,0,0,1,1.576,2.59c.3,1.289-.41,2.842.416,3.867a7.47,7.47,0,0,0,1.67-7.617,2.467,2.467,0,0,1-.234-1.014c.105-1.172,1.869-1.254,2.6-2.185a4.277,4.277,0,0,0,.416-2.514c.035-.867.5-1.922,1.348-1.881.586,0,1.236.533,1.611.1" transform="translate(-141.544 -91.407)" fill="#078c9d"/>
        <path id="Trazado_161337" data-name="Trazado 161337" d="M242.691,157.056c-.264.434-.516,1.008-.217,1.412.135.182.357.275.5.451.334.4.129,1.014-.047,1.518s-.229,1.172.234,1.435c.27.141.586.047.9.088a1.424,1.424,0,0,1,1.084,1.072,4.348,4.348,0,0,1,.047,1.629,2.946,2.946,0,0,0,1.172-2.6,1.834,1.834,0,0,0-.334-1.377c-.135-.141-.316-.24-.439-.393-.322-.4-.17-.99-.041-1.488s.164-1.172-.27-1.412c-.287-.176-.709-.123-.908-.4-.281-.4.322-.949-.117-1.172" transform="translate(-158.197 -110.637)" fill="#078c9d"/>
        <path id="Trazado_161338" data-name="Trazado 161338" d="M267.6,160.561a10.329,10.329,0,0,0-7.336-6.691,5.236,5.236,0,0,0-4.131.539l-.275.105c-.187,1.822-.346,3.826.662,5.343,1.6,2.414,5.273,2.4,7.1,4.652,1.336,1.664,1.271,4.1,2.221,5.994A10.7,10.7,0,0,0,267.6,160.561Zm-8.015-1.758a1.172,1.172,0,0,1-1.172.85,1.406,1.406,0,0,1-1.172-.9,1.887,1.887,0,0,1,.094-1.529l.059.111a1.453,1.453,0,0,1,2.191,1.465Z" transform="translate(-163.74 -109.753)" fill="#078c9d"/>
        <path id="Trazado_161339" data-name="Trazado 161339" d="M254.265,161.364a2.114,2.114,0,0,1-.205-.281l-.539-.826a18.943,18.943,0,0,0-2.215-2.871,12.767,12.767,0,0,0-4.523-2.76,9.474,9.474,0,0,0-3.058-.627,6.3,6.3,0,0,0-3.2.779,13.478,13.478,0,0,0-4.506,4.635,29.022,29.022,0,0,0-2.508,4.74,32.58,32.58,0,0,0-1.2,3.422,12.668,12.668,0,0,1-.375,1.277,1.852,1.852,0,0,1,.041-.334c.041-.223.111-.551.211-.973a26.432,26.432,0,0,1,1.107-3.474,28.184,28.184,0,0,1,2.473-4.816,13.6,13.6,0,0,1,4.6-4.752,6.6,6.6,0,0,1,3.369-.814,9.779,9.779,0,0,1,3.152.668,12.679,12.679,0,0,1,4.582,2.877,16.727,16.727,0,0,1,2.156,2.93q.334.551.492.861A1.277,1.277,0,0,1,254.265,161.364Z" transform="translate(-153.887 -109.753)" fill="#12263f"/>
        <g id="Grupo_74969" data-name="Grupo 74969" transform="translate(48.636 64.624)">
          <path id="Trazado_161340" data-name="Trazado 161340" d="M193.2,189l.146.105.164-.053Z" transform="translate(-186.485 -189)" fill="#078c9d"/>
          <path id="Trazado_161341" data-name="Trazado 161341" d="M191.7,203.132c-.076-.984-.281-1.951-.316-2.93-.07-1.939.51-3.873.316-5.806a7.289,7.289,0,0,0-3.1-5.226,9.755,9.755,0,0,0-6.047,5.39,10.142,10.142,0,0,0,.182,8.367,9.907,9.907,0,0,1,1.465,3.545c.094,1.289-.527,2.484-.732,3.744-.422,2.578.926,5.074,2.215,7.33a4.582,4.582,0,0,1,1.043-3.48c.744-1,1.693-1.8,2.484-2.76a11.478,11.478,0,0,0,2.49-8.173Zm-2.344-3.545a1.482,1.482,0,0,1-.551.51.7.7,0,0,1-.715-.053,1.172,1.172,0,0,1-.287-.439,7.205,7.205,0,0,1-.3-.768,3.562,3.562,0,0,1,.633-3.258h0a1.336,1.336,0,0,1,1.131.5,2.648,2.648,0,0,1,.668,1.758,3.152,3.152,0,0,1-.568,1.74Z" transform="translate(-181.739 -189.07)" fill="#078c9d"/>
        </g>
        <path id="Trazado_161342" data-name="Trazado 161342" d="M188.581,194.2a1.353,1.353,0,0,1,0-.369,9.293,9.293,0,0,1,.129-1.031,35.515,35.515,0,0,1,.727-3.779,20.2,20.2,0,0,1,2.109-5.273,12.263,12.263,0,0,1,4.992-4.845,8.478,8.478,0,0,1,6.931-.4,8.976,8.976,0,0,1,4.148,3.873,22.441,22.441,0,0,1,1.641,3.48c.164.422.281.75.357.978a2.345,2.345,0,0,1,.105.352,1.324,1.324,0,0,1-.164-.328c-.111-.252-.246-.586-.41-.955a27.479,27.479,0,0,0-1.717-3.41,8.952,8.952,0,0,0-4.1-3.721,8.267,8.267,0,0,0-6.627.387,12.1,12.1,0,0,0-4.881,4.687,20.543,20.543,0,0,0-2.144,5.209c-.422,1.559-.656,2.848-.82,3.738-.076.416-.141.756-.193,1.025A1.454,1.454,0,0,1,188.581,194.2Z" transform="translate(-135.931 -119.8)" fill="#12263f"/>
        <path id="Trazado_161343" data-name="Trazado 161343" d="M133.184,142.154a12.222,12.222,0,0,0-8.455,6.961,12.761,12.761,0,0,0,.5,11.1,42.648,42.648,0,0,0,2.344-4.687c.814-1.529,2.033-3.064,3.721-3.416,1.406-.3,2.795-.3,4.2-.639a6.445,6.445,0,0,0,3.773-2.543c1-1.342,2.314-2.086,3.31-3.428C140.59,142.506,136.618,141.422,133.184,142.154Zm-4.189,8.2a.861.861,0,0,1-.27.34.68.68,0,0,1-.855-.111.9.9,0,0,1-.176-.885c.076-.24.293-.469.533-.422l-.088.152a.5.5,0,0,1,.82,0A.92.92,0,0,1,129,150.357Zm7.148-1.447a2.76,2.76,0,0,1-1.723,1,5.584,5.584,0,0,1-2.021-.047,1.6,1.6,0,0,1-.85-.328.949.949,0,0,1-.217-1.084.363.363,0,0,1,.129-.164.445.445,0,0,1,.246-.047,2.93,2.93,0,0,0,1.6-.193,3.621,3.621,0,0,0,.9-1.008,1.682,1.682,0,0,1,.785-.586.469.469,0,0,1-.123,0h.434a1.171,1.171,0,0,1,.287-.047.932.932,0,0,1,.8.586A1.939,1.939,0,0,1,136.143,148.91Z" transform="translate(-109.068 -104.886)" fill="#078c9d"/>
        <path id="Trazado_161344" data-name="Trazado 161344" d="M135.3,148.65a2.133,2.133,0,0,1,.205-.2,7.126,7.126,0,0,1,.645-.516,10.359,10.359,0,0,1,2.7-1.377,11.437,11.437,0,0,1,4.441-.586,10.986,10.986,0,0,1,5.232,1.641,13.019,13.019,0,0,1,3.873,3.89,21.979,21.979,0,0,1,2.051,3.99c.475,1.172.791,2.162,1,2.848.105.34.17.586.223.791a1.09,1.09,0,0,1,.053.281,7.354,7.354,0,0,1-.393-1.031c-.24-.674-.586-1.635-1.084-2.8a23.98,23.98,0,0,0-2.086-3.914,13.072,13.072,0,0,0-3.8-3.785,10.834,10.834,0,0,0-5.08-1.617,11.589,11.589,0,0,0-4.353.521,13.7,13.7,0,0,0-3.615,1.863Z" transform="translate(-113.873 -106.549)" fill="#12263f"/>
        <path id="Trazado_161345" data-name="Trazado 161345" d="M290.949,122.764a7.535,7.535,0,0,0,5.707.984c1.617-.375,3.193-1.3,4.834-1.019,1.26.223,2.344,1.172,3.633,1.172,1.758.07,3.211-1.506,4.957-1.693a6.64,6.64,0,0,1,3.433.949c.311-1.277-.621-2.49-1.488-3.457-1.758-1.957-3.65-4.008-6.164-4.605-2.777-.656-5.636.586-8.484.586a9.157,9.157,0,0,0-2,.076,6.432,6.432,0,0,0-2.812,1.816,5.489,5.489,0,0,0-1.758,2.344c-.252.873-.07,1.834-.293,2.719" transform="translate(-178.145 -93.693)" fill="#078c9d"/>
        <path id="Trazado_161346" data-name="Trazado 161346" d="M301.3,121.9c0,.035-.451-.135-1.271-.34a16,16,0,0,0-3.515-.5,17.765,17.765,0,0,0-5.22.639,20.138,20.138,0,0,0-5.859,2.689,30.145,30.145,0,0,0-8.138,8.4,14.765,14.765,0,0,0-1.676,3.135c-.287.791-.357,1.26-.387,1.254a1.243,1.243,0,0,1,.035-.34,6.789,6.789,0,0,1,.234-.955,13.816,13.816,0,0,1,1.605-3.217,29.131,29.131,0,0,1,8.15-8.548,19.8,19.8,0,0,1,5.947-2.7,17.2,17.2,0,0,1,5.308-.586,14.507,14.507,0,0,1,3.545.586,9.7,9.7,0,0,1,.926.322A1.962,1.962,0,0,1,301.3,121.9Z" transform="translate(-171.817 -96.143)" fill="#12263f"/>
      </g>
    </g>
    <g id="Grupo_74991" data-name="Grupo 74991" transform="translate(139.829 32.178)">
      <g id="Grupo_74973" data-name="Grupo 74973" transform="translate(93.859 185.282)">
        <path id="Trazado_161347" data-name="Trazado 161347" d="M394.265,359.526l2.859,10.74s-9.96,6.509-9.621,8.548l21.022-4.781L404.782,357.1Z" transform="translate(-387.455 -357.1)" fill="#00bcd4"/>
        <path id="Trazado_161348" data-name="Trazado 161348" d="M414.053,375.48a.873.873,0,0,1,.814.844.844.844,0,0,1-.826.814.92.92,0,0,1-.861-.9.879.879,0,0,1,.955-.756" transform="translate(-398.091 -364.711)" fill="#e1e1e1"/>
        <g id="Grupo_74972" data-name="Grupo 74972" transform="translate(0 15.239)" opacity="0.6">
          <path id="Trazado_161349" data-name="Trazado 161349" d="M408.5,384.8l-.451-1.693-19.985,5.209s-.844.621-.586,1.26Z" transform="translate(-387.426 -383.11)" fill="#fff"/>
        </g>
        <path id="Trazado_161350" data-name="Trazado 161350" d="M403.308,379.376c0,.1.551.029,1.131.246s.943.586,1.031.521-.205-.621-.908-.867S403.261,379.282,403.308,379.376Z" transform="translate(-394.002 -366.24)" fill="#12263f"/>
        <path id="Trazado_161351" data-name="Trazado 161351" d="M399.9,381.871c0,.105.48.176.932.533s.65.791.756.762.029-.621-.533-1.055S399.876,381.771,399.9,381.871Z" transform="translate(-392.591 -367.323)" fill="#12263f"/>
        <path id="Trazado_161352" data-name="Trazado 161352" d="M397.932,385.792c.1,0,.123-.545-.27-1.043s-.92-.621-.943-.521.34.328.656.744S397.827,385.8,397.932,385.792Z" transform="translate(-391.274 -368.32)" fill="#12263f"/>
        <path id="Trazado_161353" data-name="Trazado 161353" d="M402.655,374.758c.064.082.5-.17,1.09-.264s1.084,0,1.119-.111-.486-.369-1.172-.246S402.584,374.688,402.655,374.758Z" transform="translate(-393.729 -364.141)" fill="#12263f"/>
      </g>
      <g id="Grupo_74988" data-name="Grupo 74988" transform="translate(0 0)">
        <g id="Grupo_74974" data-name="Grupo 74974" transform="translate(66.277 60.296)">
          <path id="Trazado_161354" data-name="Trazado 161354" d="M351.123,143.78,340.67,180.528l8.209,1.605,5.426-18.526Z" transform="translate(-340.483 -143.78)" fill="#81d4fa"/>
          <path id="Trazado_161355" data-name="Trazado 161355" d="M350.99,143.78c.187,1.1,1.353,8.062,3.316,19.8v.059c-1.564,5.379-3.416,11.718-5.4,18.532l-.035.141-.146-.029-3.515-.686-4.687-.914-.17-.035.047-.164c2.93-10.4,5.648-19.628,7.558-26.2,1.84-6.34,2.83-9.75,3.047-10.505-.211.768-1.172,4.242-2.988,10.71-1.84,6.627-4.377,15.773-7.312,26.085l-.123-.2,4.687.908,3.515.691-.187.111,5.449-18.521v.059C352.232,151.86,351.16,144.876,350.99,143.78Z" transform="translate(-340.35 -143.78)" fill="#e1e1e1"/>
        </g>
        <path id="Trazado_161356" data-name="Trazado 161356" d="M420.87,248.165s-.75,3.076-5.179,3.68c-13.353,1.8-21.28,11.911-21.28,11.911l3.451-11.267,12.855-8.959,8.2,2.578Z" transform="translate(-296.459 -124.79)" fill="#e1e1e1"/>
        <path id="Trazado_161357" data-name="Trazado 161357" d="M387.668,245.695c-2.226-8.906-3.82-13.681-3.82-13.681s.258-37.932,0-41.084c-.586-7.617-4.9-16.347-5.461-17.46l-21.157,4.963,1.353,10.546,5.332,46.369L382.231,288.4l12.579-1.957S389.906,254.6,387.668,245.695Z" transform="translate(-281.063 -95.779)" fill="#12263f"/>
        <g id="Grupo_74975" data-name="Grupo 74975" transform="translate(71.975 35.934)">
          <path id="Trazado_161358" data-name="Trazado 161358" d="M364.849,102.212l.779.176,7.851,1.758s1.67,20.038,1.945,22.546-3.2,7.511-3.2,7.511,3.2,1.951,4.066,4.453,0,6.773,0,6.773l-4.769,4.254a16.5,16.5,0,0,1-6.843,3.662l-9.96,2.572s-1.172-21.86-4.2-30.62c-2.033-5.859,3.515-18.409,3.515-18.409l6.855-4.687" transform="translate(-350.076 -102.2)" fill="#00bcd4"/>
          <path id="Trazado_161359" data-name="Trazado 161359" d="M360.16,137.249a37.927,37.927,0,0,1-4.9.4,38.962,38.962,0,0,1-4.916.082,75.038,75.038,0,0,1,9.82-.486Z" transform="translate(-350.185 -116.695)" fill="#fff"/>
          <path id="Trazado_161360" data-name="Trazado 161360" d="M363.429,156.187a29.531,29.531,0,0,1-4.33.586,30.09,30.09,0,0,1-4.359.246,30.043,30.043,0,0,1,4.33-.586,29.641,29.641,0,0,1,4.359-.246Z" transform="translate(-352.007 -124.554)" fill="#fff"/>
          <path id="Trazado_161361" data-name="Trazado 161361" d="M366.333,177.38a4.577,4.577,0,0,1-1.236.586,15.556,15.556,0,0,1-3.2.791,15.382,15.382,0,0,1-3.3.082,4.325,4.325,0,0,1-1.348-.24,23.316,23.316,0,0,0,9.093-1.219Z" transform="translate(-353.042 -133.331)" fill="#fff"/>
        </g>
        <g id="Grupo_74983" data-name="Grupo 74983" transform="translate(68.157 4.848)">
          <path id="Trazado_161362" data-name="Trazado 161362" d="M349.337,73.785a5.643,5.643,0,0,1-2.666-3.381c-.492-1.389-.721-2.871-1.266-4.242-.41-1.019.041-2.648-.879-3.252-1.143-.762-1.131-2.777-.691-3.785.486-1.1,1.793-1.91,1.881-2.256.234-.908-.557-1.9-.264-2.789a2.256,2.256,0,0,1,2.4-1.822,6.949,6.949,0,0,1,3.545-2.637c1.851-.48,4.588-.832,6.234.135s2.865,1.623,3.4,3.463" transform="translate(-343.559 -49.144)" fill="#12263f"/>
          <g id="Grupo_74982" data-name="Grupo 74982" transform="translate(0.709 2.165)">
            <g id="Grupo_74980" data-name="Grupo 74980">
              <g id="Grupo_74979" data-name="Grupo 74979" transform="translate(3.584 1.942)">
                <g id="Grupo_74978" data-name="Grupo 74978">
                  <path id="Trazado_161363" data-name="Trazado 161363" d="M366.644,58.724a1.887,1.887,0,0,1,1.682,1.916h0L367.2,86.068c-.047,3-4.435,4.687-7.652,4.617h0c-3.246-.076-3.351-1.67-3.392-4.529-.064-4.775-.064-6.562-.064-6.539s-4.1-.691-4.939-6.047a57.1,57.1,0,0,1-.041-10.593c.211-3.211,2.344-7.148,5.549-6.8Z" transform="translate(-350.886 -56.154)" fill="#e98e6d"/>
                  <g id="Grupo_74976" data-name="Grupo 74976" transform="translate(1.158 8.376)">
                    <path id="Trazado_161364" data-name="Trazado 161364" d="M353.05,73.584a.7.7,0,0,0,.662.7.656.656,0,0,0,.709-.621.68.68,0,0,0-.656-.662.656.656,0,0,0-.715.586Z" transform="translate(-352.94 -71.504)" fill="#12263f"/>
                    <path id="Trazado_161365" data-name="Trazado 161365" d="M352.873,71.171c.082.088.586-.293,1.342-.293s1.283.375,1.359.287-.047-.205-.281-.375a1.893,1.893,0,0,0-1.09-.34,1.758,1.758,0,0,0-1.066.346C352.908,70.966,352.832,71.13,352.873,71.171Z" transform="translate(-352.862 -70.45)" fill="#12263f"/>
                  </g>
                  <g id="Grupo_74977" data-name="Grupo 74977" transform="translate(8.416 8.529)">
                    <path id="Trazado_161366" data-name="Trazado 161366" d="M365.25,73.584a.685.685,0,0,0,.656.7.656.656,0,0,0,.709-.621.68.68,0,0,0-.656-.662A.65.65,0,0,0,365.25,73.584Z" transform="translate(-365.25 -71.656)" fill="#12263f"/>
                    <path id="Trazado_161367" data-name="Trazado 161367" d="M365.263,71.431c.088.088.586-.293,1.348-.287s1.277.369,1.359.281-.047-.2-.281-.375a1.922,1.922,0,0,0-1.09-.34,1.857,1.857,0,0,0-1.072.346C365.3,71.231,365.221,71.39,365.263,71.431Z" transform="translate(-365.251 -70.71)" fill="#12263f"/>
                  </g>
                  <path id="Trazado_161368" data-name="Trazado 161368" d="M359.354,76.911a4.922,4.922,0,0,0-1.2-.217c-.187,0-.369-.059-.4-.187a.92.92,0,0,1,.129-.586l.557-1.435a25.2,25.2,0,0,0,1.266-3.756,23.855,23.855,0,0,0-1.564,3.674c-.188.5-.363.984-.539,1.441a1.125,1.125,0,0,0-.1.744.492.492,0,0,0,.31.275,1.424,1.424,0,0,0,.322.047A4.793,4.793,0,0,0,359.354,76.911Z" transform="translate(-353.616 -62.19)" fill="#12263f"/>
                  <path id="Trazado_161369" data-name="Trazado 161369" d="M359.762,94.875A13.646,13.646,0,0,0,366.927,93s-1.822,3.773-7.177,3.258Z" transform="translate(-354.557 -71.411)" fill="#c86742"/>
                  <path id="Trazado_161370" data-name="Trazado 161370" d="M361.132,83.968a1.342,1.342,0,0,1,1.172-.492,1.207,1.207,0,0,1,.838.457.773.773,0,0,1,.059.879.885.885,0,0,1-.973.24,2.883,2.883,0,0,1-.943-.586.821.821,0,0,1-.205-.223.24.24,0,0,1,0-.275" transform="translate(-355.089 -67.465)" fill="#c86742"/>
                  <path id="Trazado_161371" data-name="Trazado 161371" d="M362.715,82.16c-.117,0-.123.8-.809,1.365s-1.541.475-1.547.586.188.152.551.164a2,2,0,0,0,1.289-.445,1.758,1.758,0,0,0,.633-1.172C362.862,82.359,362.774,82.16,362.715,82.16Z" transform="translate(-354.809 -66.923)" fill="#12263f"/>
                </g>
                <path id="Trazado_161372" data-name="Trazado 161372" d="M364.787,67.358c.07.2.809.105,1.676.211s1.57.346,1.682.164c.053-.088-.07-.275-.352-.469a2.83,2.83,0,0,0-1.248-.439,2.8,2.8,0,0,0-1.312.152C364.911,67.1,364.758,67.259,364.787,67.358Z" transform="translate(-356.641 -60.564)" fill="#12263f"/>
                <path id="Trazado_161373" data-name="Trazado 161373" d="M352.616,67.71c.129.17.639,0,1.248,0s1.131.117,1.248-.059,0-.252-.252-.416a1.822,1.822,0,0,0-2.016.059C352.628,67.458,352.557,67.628,352.616,67.71Z" transform="translate(-351.594 -60.628)" fill="#12263f"/>
              </g>
              <path id="Trazado_161374" data-name="Trazado 161374" d="M361.175,54.4a3.662,3.662,0,0,1-4.324,3.615c-.82-.146-1.717-.586-2.42-.129s-.779,1.582-1.435,2.156c-.943.82-2.449.053-3.644.4-.926.275-1.506,1.172-2.121,1.9s-1.535,1.453-2.461,1.172a11.2,11.2,0,0,1,.369-2.467,3.662,3.662,0,0,1,1.4-2.016,11.756,11.756,0,0,0,1.172-.686c.768-.621.949-1.7,1.424-2.566a4.013,4.013,0,0,1,3.058-2.027,22.755,22.755,0,0,0,3.164-.053c.756-.187,1.418-.686,2.191-.826,1.494-.287,2.889.785,3.972,1.857" transform="translate(-344.77 -52.839)" fill="#12263f"/>
            </g>
            <path id="Trazado_161375" data-name="Trazado 161375" d="M372.185,66.316a.586.586,0,0,1-.228,1.131c-1.8.41-2.039-3.105-1.635-4.1a10.452,10.452,0,0,1-1.8-1.9,7.546,7.546,0,0,1-.832-3.638c-.645.035-3.41-.873-3.111-.961.668-.187,2.045-.627,2.4-1.207a4.1,4.1,0,0,1,3.568-2.051,3.392,3.392,0,0,1,3.058,2.672,4.875,4.875,0,0,1,4.183,2.7,5.66,5.66,0,0,1-.152,5.273,2.706,2.706,0,0,0-.545,1.289,3.168,3.168,0,0,0,.738,1.564,5.068,5.068,0,0,1,.129,4.652c-.656,1.459-1.113,1.975-2.051,2.267-1.822.586.293,4.336-2.742,4.336" transform="translate(-352.961 -53.15)" fill="#12263f"/>
            <g id="Grupo_74981" data-name="Grupo 74981" transform="translate(18.995 13.13)">
              <path id="Trazado_161376" data-name="Trazado 161376" d="M377.342,76.755a1.564,1.564,0,0,1,2.285-1.33,2.147,2.147,0,0,1,.908,2.15c-.135,3.228-3.346,2.432-3.346,2.344S377.278,78.085,377.342,76.755Z" transform="translate(-377.19 -75.249)" fill="#e98e6d"/>
              <path id="Trazado_161377" data-name="Trazado 161377" d="M378.99,79.384a1.324,1.324,0,0,0,.152.088.586.586,0,0,0,.416,0,1.406,1.406,0,0,0,.7-1.225,1.892,1.892,0,0,0-.123-.809.662.662,0,0,0-.4-.451.293.293,0,0,0-.34.141c-.047.088-.029.158-.047.158s-.064-.053-.035-.187a.369.369,0,0,1,.135-.193.41.41,0,0,1,.316-.07.773.773,0,0,1,.586.521,1.922,1.922,0,0,1,.158.908,1.459,1.459,0,0,1-.926,1.389.639.639,0,0,1-.516-.105C378.99,79.46,378.955,79.389,378.99,79.384Z" transform="translate(-377.93 -75.903)" fill="#c86742"/>
            </g>
          </g>
          <path id="Trazado_161378" data-name="Trazado 161378" d="M379.183,68.074s.1-.182.252-.516a3.515,3.515,0,0,0,.293-1.5A3.217,3.217,0,0,0,378.89,64a3.369,3.369,0,0,0-1.066-.779,3.732,3.732,0,0,0-1.395-.3c-.99-.047-1.963.105-2.859,0a4.424,4.424,0,0,1-2.191-.879,4.336,4.336,0,0,1-1.072-1.172,1.681,1.681,0,0,1-.246-.527,5.7,5.7,0,0,0,1.418,1.559,4.441,4.441,0,0,0,2.115.791c.855.088,1.816-.07,2.853,0a4.025,4.025,0,0,1,1.476.334,3.515,3.515,0,0,1,1.137.85,3.281,3.281,0,0,1,.838,2.2,3.364,3.364,0,0,1-.375,1.547,1.594,1.594,0,0,1-.34.457Z" transform="translate(-354.533 -53.78)" fill="#078c9d"/>
          <path id="Trazado_161379" data-name="Trazado 161379" d="M379.293,60.676a2.83,2.83,0,0,0-1.318-.387,4.395,4.395,0,0,0-1.482.252c-.545.182-1.125.451-1.758.656a4.049,4.049,0,0,1-1.922.164,3.92,3.92,0,0,1-1.471-.586,3.515,3.515,0,0,1-.791-.7.949.949,0,0,1-.211-.328,6.446,6.446,0,0,0,1.1.879,3.867,3.867,0,0,0,3.222.316c.633-.2,1.219-.463,1.758-.633a4.16,4.16,0,0,1,1.559-.211,2.262,2.262,0,0,1,1.019.3C379.216,60.559,379.3,60.67,379.293,60.676Z" transform="translate(-354.649 -53.536)" fill="#078c9d"/>
          <path id="Trazado_161380" data-name="Trazado 161380" d="M348.65,55.313a2.818,2.818,0,0,0,.369.516,2.121,2.121,0,0,0,1.57.527,3.82,3.82,0,0,0,2.226-1.172,11.027,11.027,0,0,1,2.5-2.021A3.017,3.017,0,0,1,357,52.969a3.72,3.72,0,0,1,1.476.586,5.32,5.32,0,0,1,1.758,1.963,11.769,11.769,0,0,1,.732,1.553,2.9,2.9,0,0,1,.2.615,4.364,4.364,0,0,1-.287-.586,15.694,15.694,0,0,0-.791-1.564,5.343,5.343,0,0,0-1.728-1.857,3.568,3.568,0,0,0-1.389-.516,2.754,2.754,0,0,0-1.547.24,11.665,11.665,0,0,0-2.461,1.975,3.885,3.885,0,0,1-2.344,1.172,2.156,2.156,0,0,1-1.67-.65,1.271,1.271,0,0,1-.258-.416A.511.511,0,0,1,348.65,55.313Z" transform="translate(-345.667 -50.71)" fill="#078c9d"/>
          <path id="Trazado_161381" data-name="Trazado 161381" d="M367.67,51.54a1.91,1.91,0,0,1,.645.586,4.634,4.634,0,0,1,.9,1.916,4.57,4.57,0,0,1-.035,2.115,1.922,1.922,0,0,1-.346.8c-.035,0,.088-.322.182-.838a5.407,5.407,0,0,0-.035-2.027,5.325,5.325,0,0,0-.8-1.863,8.09,8.09,0,0,1-.51-.691Z" transform="translate(-353.543 -50.136)" fill="#078c9d"/>
        </g>
        <g id="Grupo_74984" data-name="Grupo 74984" transform="translate(13.258)">
          <path id="Trazado_161382" data-name="Trazado 161382" d="M266.23,43.739s-4.418,1.9-4.055,5.332a33.486,33.486,0,0,0,1.441,6.545s-6.931-5.273-13.71-3.146l-.047,1.57a16.8,16.8,0,0,1,9.035,1.711c4.166,2.3,9.621,10.546,9.621,10.546l13.693-6.146-3.234-5.273s.451-5,.527-6.4C279.624,46.346,276.993,38.1,266.23,43.739Zm11.519,3.451a6.7,6.7,0,0,1-.885,3.053l-1.441-3.357-10.869,3.75s-1.963-3.246,2.016-5.367a15.248,15.248,0,0,1,6.556-1.447A4.582,4.582,0,0,1,277.14,45.7,3.263,3.263,0,0,1,277.749,47.19Z" transform="translate(-249.86 -41.255)" fill="#7e5ee3"/>
          <path id="Trazado_161383" data-name="Trazado 161383" d="M292.718,41.14l-5.935-.27-4.863,2.115s.223.756.686.7a19.225,19.225,0,0,0,2.73-.773l-1.547,1.353-.064,1s1.535,1.869,1.8,1.664a2.63,2.63,0,0,0,.533-.861l1.066,1.529h1.67l.762-1.031.809.656s2.074,1.887,3.269,1.453c.685-.252,1.957,2.853,1.957,2.853l4.5-2.853-3.012-3.732Z" transform="translate(-263.136 -40.87)" fill="#e98e6d"/>
          <path id="Trazado_161384" data-name="Trazado 161384" d="M293.147,44.445a3.3,3.3,0,0,1-1.031.146L291,44.656a2.033,2.033,0,0,0-.586.1,4.186,4.186,0,0,0-.586.346c-.4.264-.773.533-1.1.791s-.586.48-.51.762a9.522,9.522,0,0,0,.393.926c-.041.029-.363-.229-.586-.867a.65.65,0,0,1,.088-.586,2.659,2.659,0,0,1,.451-.439,12.233,12.233,0,0,1,1.113-.838,4.87,4.87,0,0,1,.645-.369,2.344,2.344,0,0,1,.691-.1H292.1a3.568,3.568,0,0,1,1.049.064Z" transform="translate(-265.65 -42.318)" fill="#c86742"/>
          <path id="Trazado_161385" data-name="Trazado 161385" d="M292.547,50.27c-.047,0,.111-.311.363-.75.059-.111.129-.234.188-.363a.8.8,0,0,0,.059-.182h0v-.041a.549.549,0,0,0-.053-.07.738.738,0,0,0-.85,0l-.246.129-.187.094-.059-.246-.117-.586c-.053-.176-.141-.316-.234-.334l-.41-.076.375-.17c.369-.17.686-.3.908-.387a1.564,1.564,0,0,1,.27-.088c.076,0,.117,0,.105.041a1.518,1.518,0,0,0-.3.187c-.205.123-.5.293-.855.486l-.029-.246a.691.691,0,0,1,.463.5c.047.217.094.428.146.65l-.234-.123c.088-.047.17-.094.264-.135a1.318,1.318,0,0,1,.627-.146.826.826,0,0,1,.586.264.586.586,0,0,1,.088.141V48.9a.451.451,0,0,1,0,.123.815.815,0,0,1-.105.258,3.265,3.265,0,0,1-.234.363C292.793,50.059,292.576,50.288,292.547,50.27Z" transform="translate(-266.896 -43.491)" fill="#c86742"/>
          <path id="Trazado_161386" data-name="Trazado 161386" d="M291.771,42.222a17.642,17.642,0,0,1-3.252.158l.105-.041c-.1.094-.211.187-.322.275-.791.639-1.535,1.172-2.08,1.559a4.235,4.235,0,0,1-.914.586,20.422,20.422,0,0,1,2.795-2.379c.105-.088.217-.182.3-.264l.047-.041h.064a17.642,17.642,0,0,1,3.252.146Z" transform="translate(-264.538 -41.361)" fill="#c86742"/>
        </g>
        <g id="Grupo_74985" data-name="Grupo 74985" transform="translate(0 12.773)">
          <path id="Trazado_161387" data-name="Trazado 161387" d="M238.615,62.717a12.3,12.3,0,0,0-10.757,6.767,4.734,4.734,0,0,0-.586,2.965,2.18,2.18,0,0,0,2.168,1.822,2.754,2.754,0,0,0,1.758-1.119c1.359-1.664,1.892-3.832,2.7-5.859s2.1-4.025,4.172-4.623" transform="translate(-227.232 -62.67)" fill="#f5f5f5"/>
          <path id="Trazado_161388" data-name="Trazado 161388" d="M244.519,75.059a14.833,14.833,0,0,0-.715-1.9,14.4,14.4,0,0,1-.9-3.381l-.281.258a8.044,8.044,0,0,0-1.447,5.771,3.58,3.58,0,0,0,.445,1.389,1.687,1.687,0,0,0,1.172.82,1.664,1.664,0,0,0,1.629-.978A2.929,2.929,0,0,0,244.519,75.059Z" transform="translate(-232.978 -65.614)" fill="#f5f5f5"/>
          <path id="Trazado_161389" data-name="Trazado 161389" d="M234.791,86.8a7.692,7.692,0,0,0-1.957,1.617,2.642,2.642,0,0,0-.545,2.385,1.617,1.617,0,0,0,2.016,1.055c.885-.369,1.078-1.553.92-2.5a6.864,6.864,0,0,1-.287-2.842" transform="translate(-229.29 -72.546)" fill="#f5f5f5"/>
        </g>
        <g id="Grupo_74987" data-name="Grupo 74987" transform="translate(44.692 6.902)">
          <g id="Grupo_74986" data-name="Grupo 74986">
            <path id="Trazado_161390" data-name="Trazado 161390" d="M359.317,123.584l-.041-.076.041.076-4.283-10.7,1.359-5.144-2.08-23.958h0l-5.49-3.3-.264-2.127-1.506.246-2.49,2.3h0l-20.718-9.228L310.265,53l-6.445,3.861,12.468,23.583,23.495,13.411-.047.164c.211.123,10.376,84.435,14.718,84.693s11.8-10.792,20.542-11.05c5.683-.164,7.67.861,8.361,1.605C380.334,163.508,359.792,124.4,359.317,123.584Z" transform="translate(-303.638 -52.795)" fill="#81d4fa"/>
            <path id="Trazado_161391" data-name="Trazado 161391" d="M359.189,123.439s.152.264.439.8l1.26,2.344,4.81,9.076,17.636,33.4.357.691-.545-.586a5.033,5.033,0,0,0-2.449-1.172,16.479,16.479,0,0,0-2.818-.375,17.475,17.475,0,0,0-5.824.422,19.921,19.921,0,0,0-5.484,2.648c-1.758,1.172-3.392,2.467-5.074,3.826-.844.674-1.687,1.359-2.572,2.016a14.85,14.85,0,0,1-2.853,1.758,4,4,0,0,1-1.682.363.662.662,0,0,1-.469-.187,1.8,1.8,0,0,1-.293-.346,5.727,5.727,0,0,1-.416-.768,25,25,0,0,1-1.107-3.252c-1.213-4.441-2.086-9.087-2.959-13.845-1.717-9.527-3.234-19.558-4.728-29.946s-2.93-21.157-4.371-32.178c-.094-.715-.193-1.435-.287-2.15l-.146-1.066-.076-.451-.035-.27v-.193h0a.152.152,0,0,0,.064.07l-.07-.187.047-.164.076.187L316.1,80.44h-.035V80.4L303.58,56.775l-.07-.123.123-.076,6.445-3.861.117-.064.082.105,13.54,18.685-.053-.041,20.747,9.246-.164.129h0v-.064l.047-.047,2.5-2.291h.035l1.506-.246h.117v.117c.094.773.182,1.459.264,2.133l-.053-.082,5.484,3.31h0l.053.088c.82,9.644,1.506,17.712,2.039,23.958h0c-.586,2.115-.984,3.7-1.365,5.138v-.035l3.129,7.892c.7,1.793,1.078,2.742,1.1,2.83h0l-.041-.076h0l.041.076-.041-.076h0l.041.076h0c-.041-.076-.428-1.019-1.172-2.806l-3.181-7.869v-.041c.375-1.441.791-3.023,1.348-5.144h0c-.545-6.246-1.254-14.308-2.1-23.952l.059.082h0l-5.49-3.3h-.047v-.053l-.281-2.174.129.1-1.506.252h.059l-2.484,2.3.035-.111h0l.041.223-.205-.088-20.753-9.246h-.035v-.029L310.019,52.931l.193.035-6.445,3.867.059-.2,12.451,23.595-.059-.064,23.5,13.411.111.064-.035.117-.053.164-.07-.182a.229.229,0,0,1,.076.1h0v.246l.041.27.076.533.146,1.072c.094.715.193,1.435.287,2.15,1.441,11.021,2.877,21.784,4.365,32.172s3,20.419,4.687,29.94c.873,4.752,1.758,9.375,2.93,13.822a24.056,24.056,0,0,0,1.09,3.211,5.356,5.356,0,0,0,.393.727c.152.217.328.439.539.416a3.692,3.692,0,0,0,1.57-.346,14.413,14.413,0,0,0,2.795-1.711c.879-.65,1.728-1.336,2.566-2.01,1.687-1.353,3.351-2.683,5.1-3.832a20.05,20.05,0,0,1,5.554-2.672,12.062,12.062,0,0,1,2.976-.463c.984,0,1.969,0,2.93.041a17.215,17.215,0,0,1,2.859.387,5.191,5.191,0,0,1,2.555,1.219l-.182.135L365.487,135.7c-2.062-3.949-3.668-7.031-4.758-9.1l-1.23-2.344A7.067,7.067,0,0,0,359.189,123.439Z" transform="translate(-303.51 -52.65)" fill="#e1e1e1"/>
          </g>
          <path id="Trazado_161392" data-name="Trazado 161392" d="M372.909,125.821a2.156,2.156,0,0,1-1.353-.176,28.949,28.949,0,0,1-3.035-1.271c-1.172-.586-2.18-1.084-2.93-1.459a7.141,7.141,0,0,1-1.2-.645,4.98,4.98,0,0,1,1.295.439c.773.322,1.822.82,2.976,1.371s2.2,1.031,2.971,1.353A7.883,7.883,0,0,0,372.909,125.821Z" transform="translate(-328.72 -81.479)" fill="#12263f"/>
          <path id="Trazado_161393" data-name="Trazado 161393" d="M381.991,108.9a15.533,15.533,0,0,0-.334-1.857,6.768,6.768,0,0,0-2.59-3.6,30.419,30.419,0,0,0-4.019-2.209,8.6,8.6,0,0,1-1.658-.967,18.754,18.754,0,0,1,1.758.762,23.876,23.876,0,0,1,4.1,2.15,6.627,6.627,0,0,1,2.625,3.8,5.711,5.711,0,0,1,.17,1.406A1.33,1.33,0,0,1,381.991,108.9Z" transform="translate(-332.447 -72.369)" fill="#12263f"/>
          <path id="Trazado_161394" data-name="Trazado 161394" d="M389.106,160.15a8.788,8.788,0,0,1,.311-2.637,8.981,8.981,0,0,1,.8-2.514,14.6,14.6,0,0,1-.469,2.607A15.068,15.068,0,0,1,389.106,160.15Z" transform="translate(-338.953 -95.032)" fill="#12263f"/>
          <path id="Trazado_161395" data-name="Trazado 161395" d="M389.927,183.478a3.106,3.106,0,0,1-.85.978,7.031,7.031,0,0,1-5.859,1.559,3.182,3.182,0,0,1-1.219-.428c0-.053.48.105,1.254.205a8.074,8.074,0,0,0,3-.2,7.981,7.981,0,0,0,2.707-1.312C389.558,183.812,389.886,183.443,389.927,183.478Z" transform="translate(-336.012 -106.824)" fill="#12263f"/>
          <path id="Trazado_161396" data-name="Trazado 161396" d="M411.628,233.289a4.061,4.061,0,0,1-.814.129,9.519,9.519,0,0,1-.967.082c-.381,0-.809.053-1.289.041a24.987,24.987,0,0,1-3.34-.234,26.95,26.95,0,0,1-4.008-.908,27.305,27.305,0,0,1-3.8-1.553,24.375,24.375,0,0,1-2.871-1.723c-.4-.264-.732-.539-1.031-.768s-.551-.445-.75-.621a3.975,3.975,0,0,1-.586-.586c.041-.047.92.738,2.5,1.758a26.64,26.64,0,0,0,13.9,4.377C410.45,233.365,411.622,233.224,411.628,233.289Z" transform="translate(-340.223 -124.908)" fill="#12263f"/>
          <path id="Trazado_161397" data-name="Trazado 161397" d="M423.509,250.027a1.745,1.745,0,0,1-.217-.158,5.679,5.679,0,0,0-.586-.451,7.646,7.646,0,0,0-2.56-1.025,14.865,14.865,0,0,0-4.1-.264,18.626,18.626,0,0,0-4.939.967,24.081,24.081,0,0,0-7.769,4.8l-2.109,1.834a6.247,6.247,0,0,1-.8.656,6.052,6.052,0,0,1,.709-.744c.475-.463,1.172-1.125,2.051-1.916a34.883,34.883,0,0,1,3.258-2.607,18.391,18.391,0,0,1,4.558-2.344,18.07,18.07,0,0,1,5.021-.955,14.3,14.3,0,0,1,4.166.34,7.031,7.031,0,0,1,2.578,1.172,3.663,3.663,0,0,1,.586.5A1.046,1.046,0,0,1,423.509,250.027Z" transform="translate(-343.644 -133.455)" fill="#12263f"/>
        </g>
        <path id="Trazado_161398" data-name="Trazado 161398" d="M393.683,196.762a.338.338,0,0,1-.076.176,3.175,3.175,0,0,1-.3.463,5.1,5.1,0,0,1-1.553,1.307,5.379,5.379,0,0,1-2.93.65,5.783,5.783,0,0,1-3.351-1.523,8.537,8.537,0,0,1-2.115-3.023,14.708,14.708,0,0,1-.861-2.871c-.17-.838-.264-1.518-.322-1.992a2.93,2.93,0,0,1-.053-.738,4,4,0,0,1,.176.721c.094.463.223,1.137.416,1.963a16.234,16.234,0,0,0,.914,2.8,8.5,8.5,0,0,0,2.057,2.93,5.578,5.578,0,0,0,3.17,1.471,5.332,5.332,0,0,0,2.812-.557A6.222,6.222,0,0,0,393.683,196.762Z" transform="translate(-291.367 -102.296)" fill="#12263f"/>
      </g>
      <g id="Grupo_74989" data-name="Grupo 74989" transform="translate(50 104.028)">
        <path id="Trazado_161399" data-name="Trazado 161399" d="M323.685,218.548,312.57,361.158l7.218-.123,12.5-142.575Z" transform="translate(-312.57 -218.437)" fill="#078c9d"/>
        <path id="Trazado_161400" data-name="Trazado 161400" d="M344.146,218.42l-8.466.111L377.8,360.983h8.3Z" transform="translate(-322.14 -218.42)" fill="#078c9d"/>
        <path id="Trazado_161401" data-name="Trazado 161401" d="M331.558,330.6h23.325l1.945,5.554H329.97Z" transform="translate(-319.775 -264.873)" fill="#078c9d"/>
      </g>
      <g id="Grupo_74990" data-name="Grupo 74990" transform="translate(56.432 97.565)">
        <path id="Trazado_161402" data-name="Trazado 161402" d="M334.629,210.489l-6.879.773-4.2,2.637s-.082.855,1.113.715l2.344-1-1.875,2.051a1,1,0,0,0,1.482.246,5.8,5.8,0,0,0,1.67-1.441l4.137-.287s-3.129,3.006-2.549,3.791.943.615,1.394.328.7-1.277,1.728-1.605,2.73-1.289,4.57-2.162c1.588-.75,3.193-6.117,3.193-6.117l-5.273-1.031Z" transform="translate(-323.548 -207.39)" fill="#e98e6d"/>
        <path id="Trazado_161403" data-name="Trazado 161403" d="M333.028,215.68a25.1,25.1,0,0,1-3.914.75h-.059l.094-.047a24.328,24.328,0,0,1-2.859,2.7,25.124,25.124,0,0,1,2.631-2.93l.035-.041h.111A25.5,25.5,0,0,1,333.028,215.68Z" transform="translate(-324.683 -210.823)" fill="#c86742"/>
      </g>
    </g>
    <path id="Trazado_161404" data-name="Trazado 161404" d="M268.084,461.628c0,.088-55.386.158-123.691.158s-123.7-.07-123.7-.158,55.374-.158,123.7-.158S268.084,461.54,268.084,461.628Z" transform="translate(-1.876 -182.859)" fill="#12263f"/>
  </g>
</svg>
