<svg xmlns="http://www.w3.org/2000/svg" xmlns:xlink="http://www.w3.org/1999/xlink" width="461" height="940" viewBox="0 0 461 940">
  <defs>
    <linearGradient id="linear-gradient" x1="-1.478" y1="0.495" x2="-5.377" y2="0.495" gradientUnits="objectBoundingBox">
      <stop offset="0" stop-color="#70a2f5"/>
      <stop offset="0.26" stop-color="#6d9ef1"/>
      <stop offset="0.52" stop-color="#6294e5"/>
      <stop offset="0.77" stop-color="#5182d2"/>
      <stop offset="1" stop-color="#3b6bb9"/>
    </linearGradient>
    <linearGradient id="linear-gradient-2" x1="-1.658" y1="0.492" x2="-5.413" y2="0.492" xlink:href="#linear-gradient"/>
    <linearGradient id="linear-gradient-3" x1="4.923" y1="0.502" x2="-0.109" y2="0.502" xlink:href="#linear-gradient"/>
    <linearGradient id="linear-gradient-4" x1="0.498" y1="-0.12" x2="0.498" y2="0.796" gradientUnits="objectBoundingBox">
      <stop offset="0" stop-color="#d9344d"/>
      <stop offset="0.44" stop-color="#c52f46"/>
      <stop offset="1" stop-color="#a7283b"/>
    </linearGradient>
    <radialGradient id="radial-gradient" cx="0.357" cy="0.039" r="0.683" gradientTransform="matrix(0.998, 0.019, -0.012, 0.619, 0.436, 16.345)" gradientUnits="objectBoundingBox">
      <stop offset="0" stop-color="#f74c49"/>
      <stop offset="0.69" stop-color="#e33c4c"/>
      <stop offset="1" stop-color="#d9344d"/>
    </radialGradient>
    <radialGradient id="radial-gradient-2" cx="0.605" cy="0.361" r="0.434" gradientTransform="translate(-0.004) scale(1.263 1)" xlink:href="#radial-gradient"/>
    <linearGradient id="linear-gradient-5" x1="0.5" y1="-0.037" x2="0.5" y2="0.584" xlink:href="#linear-gradient-4"/>
    <linearGradient id="linear-gradient-6" x1="0.5" y1="0.455" x2="0.5" y2="3.292" xlink:href="#linear-gradient-4"/>
    <linearGradient id="linear-gradient-7" x1="0.5" y1="0.249" x2="0.5" y2="2.957" xlink:href="#linear-gradient-4"/>
    <linearGradient id="linear-gradient-8" x1="0.501" y1="0.06" x2="0.501" y2="2.785" xlink:href="#linear-gradient-4"/>
    <linearGradient id="linear-gradient-9" x1="-0.992" y1="-2.265" x2="0.017" y2="-2.265" xlink:href="#linear-gradient"/>
    <radialGradient id="radial-gradient-3" cx="-3.256" cy="1.071" r="0.219" gradientTransform="translate(6271.37 -176.23) scale(2.287 2.29)" gradientUnits="objectBoundingBox">
      <stop offset="0" stop-color="#fff"/>
      <stop offset="1"/>
    </radialGradient>
    <radialGradient id="radial-gradient-4" cx="-2.685" cy="5.588" r="0.219" gradientTransform="translate(6023.263 -2052.253) scale(2.287 2.29)" xlink:href="#radial-gradient-3"/>
    <radialGradient id="radial-gradient-5" cx="3.014" cy="2.583" r="0.219" gradientTransform="translate(-4421.976 -835.526) scale(2.287 2.29)" xlink:href="#radial-gradient-3"/>
    <radialGradient id="radial-gradient-6" cx="4.398" cy="3.691" r="0.219" gradientTransform="translate(-6792.363 -1287.645) scale(2.286 2.29)" xlink:href="#radial-gradient-3"/>
  </defs>
  <g id="Grupo_75498" data-name="Grupo 75498" transform="translate(-202.287 -1441.813)">
    <g id="Rectángulo_32464" data-name="Rectángulo 32464" transform="translate(202.287 1441.813)" fill="#fff" stroke="#d0f0ff" stroke-width="3" opacity="0.71">
      <rect width="461" height="940" rx="16" stroke="none"/>
      <rect x="1.5" y="1.5" width="458" height="937" rx="14.5" fill="none"/>
    </g>
    <path id="Trazado_163452" data-name="Trazado 163452" d="M8.012,13.773H13.4V15H6.5V3.625H8.012ZM20.105,15a3.036,3.036,0,0,1-.2-.891A3.225,3.225,0,0,1,17.5,15.156a2.984,2.984,0,0,1-2.051-.707,2.287,2.287,0,0,1-.8-1.793,2.39,2.39,0,0,1,1-2.051,4.733,4.733,0,0,1,2.824-.73h1.406V9.211A1.623,1.623,0,0,0,19.426,8a1.821,1.821,0,0,0-1.336-.449,2.108,2.108,0,0,0-1.3.391,1.151,1.151,0,0,0-.523.945H14.816a2,2,0,0,1,.449-1.223,3.066,3.066,0,0,1,1.219-.934,4.1,4.1,0,0,1,1.691-.344,3.342,3.342,0,0,1,2.289.73,2.635,2.635,0,0,1,.859,2.012v3.891a4.757,4.757,0,0,0,.3,1.852V15Zm-2.4-1.1A2.54,2.54,0,0,0,19,13.547a2.127,2.127,0,0,0,.883-.914V10.9H18.746q-2.656,0-2.656,1.555a1.316,1.316,0,0,0,.453,1.063A1.742,1.742,0,0,0,17.707,13.9Zm14.766-1.141a1.064,1.064,0,0,0-.441-.91,4.249,4.249,0,0,0-1.539-.559,7.277,7.277,0,0,1-1.742-.562,2.479,2.479,0,0,1-.953-.781,1.869,1.869,0,0,1-.309-1.078,2.193,2.193,0,0,1,.879-1.758,3.432,3.432,0,0,1,2.246-.719,3.532,3.532,0,0,1,2.332.742,2.357,2.357,0,0,1,.895,1.9H32.387a1.3,1.3,0,0,0-.5-1.023,1.888,1.888,0,0,0-1.27-.43,1.976,1.976,0,0,0-1.234.344,1.082,1.082,0,0,0-.445.9.877.877,0,0,0,.414.789,5.1,5.1,0,0,0,1.5.508A7.8,7.8,0,0,1,32.6,10.7a2.558,2.558,0,0,1,1,.809,1.988,1.988,0,0,1,.324,1.152,2.163,2.163,0,0,1-.906,1.816,3.8,3.8,0,0,1-2.352.684,4.257,4.257,0,0,1-1.8-.359,2.922,2.922,0,0,1-1.223-1A2.42,2.42,0,0,1,27.2,12.4h1.445a1.5,1.5,0,0,0,.582,1.152,2.258,2.258,0,0,0,1.434.426,2.331,2.331,0,0,0,1.316-.332A1.02,1.02,0,0,0,32.473,12.758ZM37.371,15H35.926V6.547h1.445ZM35.809,4.3a.863.863,0,0,1,.215-.594.807.807,0,0,1,.637-.242.819.819,0,0,1,.641.242.854.854,0,0,1,.219.594.826.826,0,0,1-.219.586.834.834,0,0,1-.641.234.821.821,0,0,1-.637-.234A.834.834,0,0,1,35.809,4.3Zm3.531,6.4a4.968,4.968,0,0,1,.914-3.145,3.151,3.151,0,0,1,4.836-.074l.07-.937h1.32V14.8a3.439,3.439,0,0,1-.973,2.586,3.589,3.589,0,0,1-2.613.945,4.348,4.348,0,0,1-1.789-.391,3.08,3.08,0,0,1-1.336-1.07L40.52,16a2.826,2.826,0,0,0,2.273,1.148,2.214,2.214,0,0,0,1.645-.594,2.269,2.269,0,0,0,.59-1.672v-.727a2.971,2.971,0,0,1-2.367,1,2.887,2.887,0,0,1-2.4-1.2A5.224,5.224,0,0,1,39.34,10.7Zm1.453.164a3.79,3.79,0,0,0,.586,2.246,1.9,1.9,0,0,0,1.641.816,2.117,2.117,0,0,0,2.008-1.242V8.828a2.142,2.142,0,0,0-1.992-1.211,1.921,1.921,0,0,0-1.648.82A4.128,4.128,0,0,0,40.793,10.867Zm13.086,3.3a3.07,3.07,0,0,1-2.477.992,2.628,2.628,0,0,1-2.059-.785,3.4,3.4,0,0,1-.715-2.324v-5.5h1.445v5.461q0,1.922,1.563,1.922a2.163,2.163,0,0,0,2.2-1.234V6.547h1.445V15H53.91ZM59.051,15H57.605V6.547h1.445ZM57.488,4.3a.863.863,0,0,1,.215-.594.807.807,0,0,1,.637-.242.819.819,0,0,1,.641.242A.854.854,0,0,1,59.2,4.3a.826.826,0,0,1-.219.586.834.834,0,0,1-.641.234.821.821,0,0,1-.637-.234A.834.834,0,0,1,57.488,4.3Zm7.383,10.852a3.693,3.693,0,0,1-2.8-1.129A4.19,4.19,0,0,1,61,11.008v-.266a5.073,5.073,0,0,1,.48-2.246A3.748,3.748,0,0,1,62.82,6.949a3.378,3.378,0,0,1,1.871-.559,3.166,3.166,0,0,1,2.563,1.086,4.7,4.7,0,0,1,.914,3.109v.6H62.441a3,3,0,0,0,.73,2.02,2.3,2.3,0,0,0,1.777.77,2.517,2.517,0,0,0,1.3-.312,3.259,3.259,0,0,0,.93-.828l.883.688A3.55,3.55,0,0,1,64.871,15.156Zm-.18-7.578a1.928,1.928,0,0,0-1.469.637A3.1,3.1,0,0,0,62.488,10h4.234V9.891a2.753,2.753,0,0,0-.594-1.707A1.815,1.815,0,0,0,64.691,7.578Zm6.516-1.031.047,1.063a3.08,3.08,0,0,1,2.531-1.219q2.68,0,2.7,3.023V15H75.043V9.406a1.946,1.946,0,0,0-.418-1.352,1.675,1.675,0,0,0-1.277-.437,2.086,2.086,0,0,0-1.234.375,2.546,2.546,0,0,0-.828.984V15H69.84V6.547ZM80.629,4.5V6.547h1.578V7.664H80.629v5.249a1.173,1.173,0,0,0,.211.763.888.888,0,0,0,.719.254,3.5,3.5,0,0,0,.688-.094V15a4.215,4.215,0,0,1-1.109.155,1.8,1.8,0,0,1-1.461-.586,2.517,2.517,0,0,1-.492-1.664V7.664H77.645V6.547h1.539V4.5ZM87.4,15.156a3.693,3.693,0,0,1-2.8-1.129,4.19,4.19,0,0,1-1.078-3.02v-.266a5.073,5.073,0,0,1,.48-2.246,3.748,3.748,0,0,1,1.344-1.547,3.378,3.378,0,0,1,1.871-.559,3.166,3.166,0,0,1,2.563,1.086,4.7,4.7,0,0,1,.914,3.109v.6H84.973a3,3,0,0,0,.73,2.02,2.3,2.3,0,0,0,1.777.77,2.517,2.517,0,0,0,1.3-.312,3.259,3.259,0,0,0,.93-.828l.883.688A3.55,3.55,0,0,1,87.4,15.156Zm-.18-7.578a1.928,1.928,0,0,0-1.469.637A3.1,3.1,0,0,0,85.02,10h4.234V9.891a2.753,2.753,0,0,0-.594-1.707A1.815,1.815,0,0,0,87.223,7.578ZM97.9,15H96.457V6.547H97.9ZM96.34,4.3a.863.863,0,0,1,.215-.594.807.807,0,0,1,.637-.242.819.819,0,0,1,.641.242.854.854,0,0,1,.219.594.826.826,0,0,1-.219.586.834.834,0,0,1-.641.234.821.821,0,0,1-.637-.234A.834.834,0,0,1,96.34,4.3Zm5.234,2.242.039.938a3.122,3.122,0,0,1,2.508-1.094,2.417,2.417,0,0,1,2.414,1.359,3.2,3.2,0,0,1,1.1-.984,3.242,3.242,0,0,1,1.6-.375q2.781,0,2.828,2.945V15h-1.445V9.422a1.941,1.941,0,0,0-.414-1.355,1.823,1.823,0,0,0-1.391-.449,1.916,1.916,0,0,0-1.336.48,1.949,1.949,0,0,0-.617,1.293V15H105.4V9.461a1.613,1.613,0,0,0-1.8-1.844,1.934,1.934,0,0,0-1.945,1.211V15h-1.445V6.547ZM119.457,15a3.036,3.036,0,0,1-.2-.891,3.225,3.225,0,0,1-2.406,1.047,2.984,2.984,0,0,1-2.051-.707,2.288,2.288,0,0,1-.8-1.793,2.39,2.39,0,0,1,1-2.051,4.733,4.733,0,0,1,2.824-.73h1.406V9.211A1.623,1.623,0,0,0,118.777,8a1.821,1.821,0,0,0-1.336-.449,2.108,2.108,0,0,0-1.3.391,1.151,1.151,0,0,0-.523.945h-1.453a2,2,0,0,1,.449-1.223,3.066,3.066,0,0,1,1.219-.934,4.1,4.1,0,0,1,1.691-.344,3.342,3.342,0,0,1,2.289.73,2.635,2.635,0,0,1,.859,2.012v3.891a4.757,4.757,0,0,0,.3,1.852V15Zm-2.4-1.1a2.54,2.54,0,0,0,1.289-.352,2.127,2.127,0,0,0,.883-.914V10.9H118.1q-2.656,0-2.656,1.555a1.316,1.316,0,0,0,.453,1.063A1.742,1.742,0,0,0,117.059,13.9Zm5.539-3.2a4.968,4.968,0,0,1,.914-3.145,3.151,3.151,0,0,1,4.836-.074l.07-.937h1.32V14.8a3.439,3.439,0,0,1-.973,2.586,3.589,3.589,0,0,1-2.613.945,4.348,4.348,0,0,1-1.789-.391,3.08,3.08,0,0,1-1.336-1.07l.75-.867a2.826,2.826,0,0,0,2.273,1.148,2.214,2.214,0,0,0,1.645-.594,2.269,2.269,0,0,0,.59-1.672v-.727a2.971,2.971,0,0,1-2.367,1,2.887,2.887,0,0,1-2.4-1.2A5.224,5.224,0,0,1,122.6,10.7Zm1.453.164a3.79,3.79,0,0,0,.586,2.246,1.9,1.9,0,0,0,1.641.816,2.117,2.117,0,0,0,2.008-1.242V8.828a2.142,2.142,0,0,0-1.992-1.211,1.921,1.921,0,0,0-1.648.82A4.128,4.128,0,0,0,124.051,10.867Zm11.375,4.289a3.693,3.693,0,0,1-2.8-1.129,4.19,4.19,0,0,1-1.078-3.02v-.266a5.073,5.073,0,0,1,.48-2.246,3.748,3.748,0,0,1,1.344-1.547,3.378,3.378,0,0,1,1.871-.559,3.166,3.166,0,0,1,2.563,1.086,4.7,4.7,0,0,1,.914,3.109v.6H133a3,3,0,0,0,.73,2.02,2.3,2.3,0,0,0,1.777.77,2.517,2.517,0,0,0,1.3-.312,3.258,3.258,0,0,0,.93-.828l.883.688A3.55,3.55,0,0,1,135.426,15.156Zm-.18-7.578a1.928,1.928,0,0,0-1.469.637A3.1,3.1,0,0,0,133.043,10h4.234V9.891a2.753,2.753,0,0,0-.594-1.707A1.815,1.815,0,0,0,135.246,7.578Zm6.516-1.031.047,1.063a3.08,3.08,0,0,1,2.531-1.219q2.68,0,2.7,3.023V15H145.6V9.406a1.946,1.946,0,0,0-.418-1.352,1.675,1.675,0,0,0-1.277-.437,2.086,2.086,0,0,0-1.234.375,2.546,2.546,0,0,0-.828.984V15h-1.445V6.547ZM154.754,15h-1.445V3h1.445Zm1.93-4.3a4.993,4.993,0,0,1,.488-2.234,3.642,3.642,0,0,1,1.359-1.531,3.7,3.7,0,0,1,1.988-.539,3.565,3.565,0,0,1,2.793,1.2,4.6,4.6,0,0,1,1.066,3.18v.1a5.036,5.036,0,0,1-.473,2.215,3.589,3.589,0,0,1-1.352,1.527,3.743,3.743,0,0,1-2.02.547,3.556,3.556,0,0,1-2.785-1.2,4.575,4.575,0,0,1-1.066-3.164Zm1.453.172a3.616,3.616,0,0,0,.652,2.258,2.211,2.211,0,0,0,3.5-.012,3.954,3.954,0,0,0,.648-2.418,3.61,3.61,0,0,0-.66-2.254,2.1,2.1,0,0,0-1.754-.863,2.075,2.075,0,0,0-1.727.852A3.925,3.925,0,0,0,158.137,10.867Zm11.445,3.109a2.082,2.082,0,0,0,1.352-.469,1.649,1.649,0,0,0,.641-1.172h1.367a2.621,2.621,0,0,1-.5,1.383,3.293,3.293,0,0,1-1.23,1.047,3.55,3.55,0,0,1-1.629.391A3.482,3.482,0,0,1,166.836,14a4.59,4.59,0,0,1-1.02-3.152v-.242a5.089,5.089,0,0,1,.453-2.2,3.451,3.451,0,0,1,1.3-1.492,3.7,3.7,0,0,1,2-.531,3.39,3.39,0,0,1,2.363.852,3.043,3.043,0,0,1,1,2.211h-1.367a1.992,1.992,0,0,0-.621-1.348,1.932,1.932,0,0,0-1.379-.527,2.023,2.023,0,0,0-1.707.793,3.724,3.724,0,0,0-.605,2.293v.273a3.65,3.65,0,0,0,.6,2.25A2.033,2.033,0,0,0,169.582,13.977ZM179.785,15a3.036,3.036,0,0,1-.2-.891,3.225,3.225,0,0,1-2.406,1.047,2.984,2.984,0,0,1-2.051-.707,2.287,2.287,0,0,1-.8-1.793,2.39,2.39,0,0,1,1-2.051,4.733,4.733,0,0,1,2.824-.73h1.406V9.211A1.623,1.623,0,0,0,179.105,8a1.821,1.821,0,0,0-1.336-.449,2.107,2.107,0,0,0-1.3.391,1.151,1.151,0,0,0-.523.945H174.5a2,2,0,0,1,.449-1.223,3.066,3.066,0,0,1,1.219-.934,4.1,4.1,0,0,1,1.691-.344,3.342,3.342,0,0,1,2.289.73A2.635,2.635,0,0,1,181,9.133v3.891a4.757,4.757,0,0,0,.3,1.852V15Zm-2.4-1.1a2.54,2.54,0,0,0,1.289-.352,2.127,2.127,0,0,0,.883-.914V10.9h-1.133q-2.656,0-2.656,1.555a1.316,1.316,0,0,0,.453,1.063A1.742,1.742,0,0,0,177.387,13.9ZM184.84,15h-1.445V3h1.445Zm3.883,0h-1.445V6.547h1.445ZM187.16,4.3a.863.863,0,0,1,.215-.594.807.807,0,0,1,.637-.242.819.819,0,0,1,.641.242.854.854,0,0,1,.219.594.826.826,0,0,1-.219.586.834.834,0,0,1-.641.234.821.821,0,0,1-.637-.234A.834.834,0,0,1,187.16,4.3Zm5.234,9.516h4.945V15h-6.711V13.938l4.664-6.2H190.7v-1.2h6.406V7.57ZM204.184,15a3.036,3.036,0,0,1-.2-.891,3.225,3.225,0,0,1-2.406,1.047,2.984,2.984,0,0,1-2.051-.707,2.287,2.287,0,0,1-.8-1.793,2.39,2.39,0,0,1,1-2.051,4.733,4.733,0,0,1,2.824-.73h1.406V9.211A1.623,1.623,0,0,0,203.5,8a1.821,1.821,0,0,0-1.336-.449,2.107,2.107,0,0,0-1.3.391,1.151,1.151,0,0,0-.523.945h-1.453a2,2,0,0,1,.449-1.223,3.066,3.066,0,0,1,1.219-.934,4.1,4.1,0,0,1,1.691-.344,3.342,3.342,0,0,1,2.289.73,2.635,2.635,0,0,1,.859,2.012v3.891a4.757,4.757,0,0,0,.3,1.852V15Zm-2.4-1.1a2.54,2.54,0,0,0,1.289-.352,2.127,2.127,0,0,0,.883-.914V10.9h-1.133q-2.656,0-2.656,1.555a1.316,1.316,0,0,0,.453,1.063A1.742,1.742,0,0,0,201.785,13.9ZM213.2,15h-1.445V3H213.2Zm1.93-4.3a4.993,4.993,0,0,1,.488-2.234,3.642,3.642,0,0,1,1.359-1.531,3.7,3.7,0,0,1,1.988-.539,3.565,3.565,0,0,1,2.793,1.2,4.6,4.6,0,0,1,1.066,3.18v.1a5.036,5.036,0,0,1-.473,2.215A3.589,3.589,0,0,1,221,14.609a3.743,3.743,0,0,1-2.02.547,3.556,3.556,0,0,1-2.785-1.2,4.575,4.575,0,0,1-1.066-3.164Zm1.453.172a3.616,3.616,0,0,0,.652,2.258,2.211,2.211,0,0,0,3.5-.012,3.954,3.954,0,0,0,.648-2.418,3.61,3.61,0,0,0-.66-2.254,2.1,2.1,0,0,0-1.754-.863,2.075,2.075,0,0,0-1.727.852A3.925,3.925,0,0,0,216.582,10.867Zm12.977,1.891a1.064,1.064,0,0,0-.441-.91,4.249,4.249,0,0,0-1.539-.559,7.277,7.277,0,0,1-1.742-.562,2.479,2.479,0,0,1-.953-.781,1.869,1.869,0,0,1-.309-1.078,2.193,2.193,0,0,1,.879-1.758,3.432,3.432,0,0,1,2.246-.719,3.532,3.532,0,0,1,2.332.742,2.357,2.357,0,0,1,.895,1.9h-1.453a1.3,1.3,0,0,0-.5-1.023,1.888,1.888,0,0,0-1.27-.43,1.976,1.976,0,0,0-1.234.344,1.082,1.082,0,0,0-.445.9.877.877,0,0,0,.414.789,5.1,5.1,0,0,0,1.5.508,7.8,7.8,0,0,1,1.754.578,2.558,2.558,0,0,1,1,.809A1.988,1.988,0,0,1,231,12.656a2.163,2.163,0,0,1-.906,1.816,3.8,3.8,0,0,1-2.352.684,4.257,4.257,0,0,1-1.8-.359,2.922,2.922,0,0,1-1.223-1,2.42,2.42,0,0,1-.441-1.395h1.445a1.5,1.5,0,0,0,.582,1.152,2.258,2.258,0,0,0,1.434.426,2.331,2.331,0,0,0,1.316-.332A1.02,1.02,0,0,0,229.559,12.758Zm12.211,0a1.064,1.064,0,0,0-.441-.91,4.249,4.249,0,0,0-1.539-.559,7.277,7.277,0,0,1-1.742-.562,2.479,2.479,0,0,1-.953-.781,1.869,1.869,0,0,1-.309-1.078,2.193,2.193,0,0,1,.879-1.758,3.432,3.432,0,0,1,2.246-.719,3.532,3.532,0,0,1,2.332.742,2.357,2.357,0,0,1,.895,1.9h-1.453a1.3,1.3,0,0,0-.5-1.023,1.888,1.888,0,0,0-1.27-.43,1.976,1.976,0,0,0-1.234.344,1.082,1.082,0,0,0-.445.9.877.877,0,0,0,.414.789,5.1,5.1,0,0,0,1.5.508,7.8,7.8,0,0,1,1.754.578,2.558,2.558,0,0,1,1,.809,1.988,1.988,0,0,1,.324,1.152,2.163,2.163,0,0,1-.906,1.816,3.8,3.8,0,0,1-2.352.684,4.257,4.257,0,0,1-1.8-.359,2.922,2.922,0,0,1-1.223-1A2.42,2.42,0,0,1,236.5,12.4h1.445a1.5,1.5,0,0,0,.582,1.152,2.258,2.258,0,0,0,1.434.426,2.331,2.331,0,0,0,1.316-.332A1.02,1.02,0,0,0,241.77,12.758Zm4.9,2.242h-1.445V6.547h1.445ZM245.105,4.3a.863.863,0,0,1,.215-.594.807.807,0,0,1,.637-.242.819.819,0,0,1,.641.242.854.854,0,0,1,.219.594.826.826,0,0,1-.219.586.834.834,0,0,1-.641.234.821.821,0,0,1-.637-.234A.834.834,0,0,1,245.105,4.3Zm5.836.2V6.547h1.578V7.664h-1.578v5.249a1.173,1.173,0,0,0,.211.763.888.888,0,0,0,.719.254,3.5,3.5,0,0,0,.688-.094V15a4.215,4.215,0,0,1-1.109.155,1.8,1.8,0,0,1-1.461-.586,2.517,2.517,0,0,1-.492-1.664V7.664h-1.539V6.547H249.5V4.5ZM255.777,15h-1.445V6.547h1.445ZM254.215,4.3a.863.863,0,0,1,.215-.594.807.807,0,0,1,.637-.242.819.819,0,0,1,.641.242.854.854,0,0,1,.219.594.826.826,0,0,1-.219.586.834.834,0,0,1-.641.234.821.821,0,0,1-.637-.234A.834.834,0,0,1,254.215,4.3Zm3.492,6.391a4.993,4.993,0,0,1,.488-2.234,3.643,3.643,0,0,1,1.359-1.531,3.7,3.7,0,0,1,1.988-.539,3.565,3.565,0,0,1,2.793,1.2,4.6,4.6,0,0,1,1.066,3.18v.1a5.036,5.036,0,0,1-.473,2.215,3.589,3.589,0,0,1-1.352,1.527,3.743,3.743,0,0,1-2.02.547,3.556,3.556,0,0,1-2.785-1.2,4.575,4.575,0,0,1-1.066-3.164Zm1.453.172a3.616,3.616,0,0,0,.652,2.258,2.211,2.211,0,0,0,3.5-.012,3.955,3.955,0,0,0,.648-2.418,3.61,3.61,0,0,0-.66-2.254,2.1,2.1,0,0,0-1.754-.863,2.075,2.075,0,0,0-1.727.852A3.925,3.925,0,0,0,259.16,10.867Zm12.977,1.891a1.064,1.064,0,0,0-.441-.91,4.249,4.249,0,0,0-1.539-.559,7.276,7.276,0,0,1-1.742-.562,2.478,2.478,0,0,1-.953-.781,1.869,1.869,0,0,1-.309-1.078,2.193,2.193,0,0,1,.879-1.758,3.432,3.432,0,0,1,2.246-.719,3.532,3.532,0,0,1,2.332.742,2.357,2.357,0,0,1,.895,1.9h-1.453a1.3,1.3,0,0,0-.5-1.023,1.888,1.888,0,0,0-1.27-.43,1.976,1.976,0,0,0-1.234.344,1.082,1.082,0,0,0-.445.9.877.877,0,0,0,.414.789,5.1,5.1,0,0,0,1.5.508,7.8,7.8,0,0,1,1.754.578,2.559,2.559,0,0,1,1,.809,1.988,1.988,0,0,1,.324,1.152,2.163,2.163,0,0,1-.906,1.816,3.8,3.8,0,0,1-2.352.684,4.257,4.257,0,0,1-1.8-.359,2.922,2.922,0,0,1-1.223-1,2.42,2.42,0,0,1-.441-1.395h1.445a1.5,1.5,0,0,0,.582,1.152,2.258,2.258,0,0,0,1.434.426,2.331,2.331,0,0,0,1.316-.332A1.02,1.02,0,0,0,272.137,12.758Zm14.43-1.891a5.062,5.062,0,0,1-.883,3.109,2.829,2.829,0,0,1-2.391,1.18,3.1,3.1,0,0,1-2.422-.977v4.07h-1.445V6.547h1.32l.07.938a2.977,2.977,0,0,1,2.453-1.094,2.882,2.882,0,0,1,2.41,1.148,5.117,5.117,0,0,1,.887,3.2Zm-1.445-.164a3.735,3.735,0,0,0-.609-2.258,1.963,1.963,0,0,0-1.672-.828,2.125,2.125,0,0,0-1.969,1.164V12.82a2.129,2.129,0,0,0,1.984,1.156,1.954,1.954,0,0,0,1.652-.824A4.077,4.077,0,0,0,285.121,10.7Zm8.5,4.3a3.036,3.036,0,0,1-.2-.891,3.225,3.225,0,0,1-2.406,1.047,2.984,2.984,0,0,1-2.051-.707,2.288,2.288,0,0,1-.8-1.793,2.39,2.39,0,0,1,1-2.051,4.733,4.733,0,0,1,2.824-.73h1.406V9.211A1.623,1.623,0,0,0,292.941,8a1.821,1.821,0,0,0-1.336-.449,2.108,2.108,0,0,0-1.3.391,1.151,1.151,0,0,0-.523.945h-1.453a2,2,0,0,1,.449-1.223A3.066,3.066,0,0,1,290,6.734a4.1,4.1,0,0,1,1.691-.344,3.342,3.342,0,0,1,2.289.73,2.635,2.635,0,0,1,.859,2.012v3.891a4.757,4.757,0,0,0,.3,1.852V15Zm-2.4-1.1a2.54,2.54,0,0,0,1.289-.352,2.126,2.126,0,0,0,.883-.914V10.9h-1.133q-2.656,0-2.656,1.555a1.316,1.316,0,0,0,.453,1.063A1.742,1.742,0,0,0,291.223,13.9Zm9.969-6.055a4.331,4.331,0,0,0-.711-.055A1.9,1.9,0,0,0,298.551,9v6h-1.445V6.547h1.406l.023.977a2.251,2.251,0,0,1,2.016-1.133,1.477,1.477,0,0,1,.641.109ZM307.426,15a3.036,3.036,0,0,1-.2-.891,3.225,3.225,0,0,1-2.406,1.047,2.984,2.984,0,0,1-2.051-.707,2.288,2.288,0,0,1-.8-1.793,2.39,2.39,0,0,1,1-2.051,4.733,4.733,0,0,1,2.824-.73H307.2V9.211A1.623,1.623,0,0,0,306.746,8a1.821,1.821,0,0,0-1.336-.449,2.108,2.108,0,0,0-1.3.391,1.151,1.151,0,0,0-.523.945h-1.453a2,2,0,0,1,.449-1.223,3.066,3.066,0,0,1,1.219-.934,4.1,4.1,0,0,1,1.691-.344,3.342,3.342,0,0,1,2.289.73,2.635,2.635,0,0,1,.859,2.012v3.891a4.757,4.757,0,0,0,.3,1.852V15Zm-2.4-1.1a2.54,2.54,0,0,0,1.289-.352,2.126,2.126,0,0,0,.883-.914V10.9h-1.133q-2.656,0-2.656,1.555a1.316,1.316,0,0,0,.453,1.063A1.742,1.742,0,0,0,305.027,13.9ZM22.75,39H21.3V27H22.75Zm7.531,0a3.036,3.036,0,0,1-.2-.891,3.225,3.225,0,0,1-2.406,1.047,2.984,2.984,0,0,1-2.051-.707,2.287,2.287,0,0,1-.8-1.793,2.39,2.39,0,0,1,1-2.051,4.733,4.733,0,0,1,2.824-.73h1.406v-.664A1.623,1.623,0,0,0,29.6,32a1.821,1.821,0,0,0-1.336-.449,2.108,2.108,0,0,0-1.3.391,1.151,1.151,0,0,0-.523.945H24.992a2,2,0,0,1,.449-1.223,3.066,3.066,0,0,1,1.219-.934,4.1,4.1,0,0,1,1.691-.344,3.342,3.342,0,0,1,2.289.73,2.635,2.635,0,0,1,.859,2.012v3.891a4.757,4.757,0,0,0,.3,1.852V39Zm-2.4-1.1a2.54,2.54,0,0,0,1.289-.352,2.127,2.127,0,0,0,.883-.914V34.9H28.922q-2.656,0-2.656,1.555a1.316,1.316,0,0,0,.453,1.063A1.742,1.742,0,0,0,27.883,37.9Zm11.8-9.4v2.047h1.578v1.117H39.688v5.249a1.173,1.173,0,0,0,.211.763.888.888,0,0,0,.719.254,3.5,3.5,0,0,0,.688-.094V39a4.215,4.215,0,0,1-1.109.155,1.8,1.8,0,0,1-1.461-.586,2.517,2.517,0,0,1-.492-1.664V31.664H36.7V30.547h1.539V28.5Zm2.727,6.2a4.993,4.993,0,0,1,.488-2.234,3.643,3.643,0,0,1,1.359-1.531,3.7,3.7,0,0,1,1.988-.539,3.565,3.565,0,0,1,2.793,1.2,4.6,4.6,0,0,1,1.066,3.18v.1a5.036,5.036,0,0,1-.473,2.215,3.589,3.589,0,0,1-1.352,1.527,3.743,3.743,0,0,1-2.02.547,3.556,3.556,0,0,1-2.785-1.2A4.575,4.575,0,0,1,42.414,34.8Zm1.453.172a3.616,3.616,0,0,0,.652,2.258,2.211,2.211,0,0,0,3.5-.012,3.955,3.955,0,0,0,.648-2.418A3.61,3.61,0,0,0,48,32.441a2.1,2.1,0,0,0-1.754-.863,2.075,2.075,0,0,0-1.727.852A3.925,3.925,0,0,0,43.867,34.867Zm9.414-4.32.039.938a3.122,3.122,0,0,1,2.508-1.094,2.417,2.417,0,0,1,2.414,1.359,3.2,3.2,0,0,1,1.1-.984,3.242,3.242,0,0,1,1.6-.375q2.781,0,2.828,2.945V39H62.32V33.422a1.941,1.941,0,0,0-.414-1.355,1.823,1.823,0,0,0-1.391-.449,1.916,1.916,0,0,0-1.336.48,1.949,1.949,0,0,0-.617,1.293V39H57.109V33.461a1.613,1.613,0,0,0-1.8-1.844,1.934,1.934,0,0,0-1.945,1.211V39H51.914V30.547ZM71.164,39a3.036,3.036,0,0,1-.2-.891,3.225,3.225,0,0,1-2.406,1.047,2.984,2.984,0,0,1-2.051-.707,2.288,2.288,0,0,1-.8-1.793,2.39,2.39,0,0,1,1-2.051,4.733,4.733,0,0,1,2.824-.73h1.406v-.664A1.623,1.623,0,0,0,70.484,32a1.821,1.821,0,0,0-1.336-.449,2.108,2.108,0,0,0-1.3.391,1.151,1.151,0,0,0-.523.945H65.875a2,2,0,0,1,.449-1.223,3.066,3.066,0,0,1,1.219-.934,4.1,4.1,0,0,1,1.691-.344,3.342,3.342,0,0,1,2.289.73,2.635,2.635,0,0,1,.859,2.012v3.891a4.757,4.757,0,0,0,.3,1.852V39Zm-2.4-1.1a2.54,2.54,0,0,0,1.289-.352,2.127,2.127,0,0,0,.883-.914V34.9H69.8q-2.656,0-2.656,1.555a1.316,1.316,0,0,0,.453,1.063A1.742,1.742,0,0,0,68.766,37.9Zm9.492-3.2a4.952,4.952,0,0,1,.922-3.129,3.137,3.137,0,0,1,4.766-.168V27h1.445V39H84.063l-.07-.906a2.943,2.943,0,0,1-2.414,1.063,2.887,2.887,0,0,1-2.395-1.2,5.008,5.008,0,0,1-.926-3.141Zm1.445.164a3.749,3.749,0,0,0,.594,2.25,1.92,1.92,0,0,0,1.641.813A2.108,2.108,0,0,0,83.945,36.7V32.813a2.125,2.125,0,0,0-1.992-1.2,1.929,1.929,0,0,0-1.656.82A4.128,4.128,0,0,0,79.7,34.867Zm11.438,4.289a3.693,3.693,0,0,1-2.8-1.129,4.19,4.19,0,0,1-1.078-3.02v-.266a5.073,5.073,0,0,1,.48-2.246,3.748,3.748,0,0,1,1.344-1.547,3.378,3.378,0,0,1,1.871-.559,3.166,3.166,0,0,1,2.563,1.086,4.7,4.7,0,0,1,.914,3.109v.6H88.711a3,3,0,0,0,.73,2.02,2.3,2.3,0,0,0,1.777.77,2.517,2.517,0,0,0,1.3-.312,3.259,3.259,0,0,0,.93-.828l.883.688A3.55,3.55,0,0,1,91.141,39.156Zm-.18-7.578a1.928,1.928,0,0,0-1.469.637A3.1,3.1,0,0,0,88.758,34h4.234v-.109a2.753,2.753,0,0,0-.594-1.707A1.815,1.815,0,0,0,90.961,31.578Zm16.25,3.289a5.062,5.062,0,0,1-.883,3.109,2.829,2.829,0,0,1-2.391,1.18,3.1,3.1,0,0,1-2.422-.977v4.07H100.07v-11.7h1.32l.07.938a2.977,2.977,0,0,1,2.453-1.094,2.882,2.882,0,0,1,2.41,1.148,5.117,5.117,0,0,1,.887,3.2Zm-1.445-.164a3.735,3.735,0,0,0-.609-2.258,1.963,1.963,0,0,0-1.672-.828,2.125,2.125,0,0,0-1.969,1.164V36.82a2.129,2.129,0,0,0,1.984,1.156,1.954,1.954,0,0,0,1.652-.824A4.077,4.077,0,0,0,105.766,34.7Zm8.5,3.461a3.07,3.07,0,0,1-2.477.992,2.628,2.628,0,0,1-2.059-.785,3.4,3.4,0,0,1-.715-2.324v-5.5h1.445v5.461q0,1.922,1.563,1.922a2.163,2.163,0,0,0,2.2-1.234V30.547h1.445V39H114.3Zm5.172.836h-1.445V27h1.445Zm7.234-2.242a1.064,1.064,0,0,0-.441-.91,4.249,4.249,0,0,0-1.539-.559,7.277,7.277,0,0,1-1.742-.562,2.479,2.479,0,0,1-.953-.781,1.869,1.869,0,0,1-.309-1.078,2.193,2.193,0,0,1,.879-1.758,3.432,3.432,0,0,1,2.246-.719,3.532,3.532,0,0,1,2.332.742,2.357,2.357,0,0,1,.895,1.9h-1.453a1.3,1.3,0,0,0-.5-1.023,1.888,1.888,0,0,0-1.27-.43,1.976,1.976,0,0,0-1.234.344,1.082,1.082,0,0,0-.445.9.877.877,0,0,0,.414.789,5.1,5.1,0,0,0,1.5.508,7.8,7.8,0,0,1,1.754.578,2.558,2.558,0,0,1,1,.809,1.988,1.988,0,0,1,.324,1.152,2.163,2.163,0,0,1-.906,1.816,3.8,3.8,0,0,1-2.352.684,4.257,4.257,0,0,1-1.8-.359,2.922,2.922,0,0,1-1.223-1A2.42,2.42,0,0,1,121.4,36.4h1.445a1.5,1.5,0,0,0,.582,1.152,2.258,2.258,0,0,0,1.434.426,2.331,2.331,0,0,0,1.316-.332A1.02,1.02,0,0,0,126.672,36.758Zm2.945-2.062a4.993,4.993,0,0,1,.488-2.234,3.642,3.642,0,0,1,1.359-1.531,3.7,3.7,0,0,1,1.988-.539,3.565,3.565,0,0,1,2.793,1.2,4.6,4.6,0,0,1,1.066,3.18v.1a5.036,5.036,0,0,1-.473,2.215,3.589,3.589,0,0,1-1.352,1.527,3.743,3.743,0,0,1-2.02.547,3.556,3.556,0,0,1-2.785-1.2,4.575,4.575,0,0,1-1.066-3.164Zm1.453.172a3.616,3.616,0,0,0,.652,2.258,2.211,2.211,0,0,0,3.5-.012,3.954,3.954,0,0,0,.648-2.418,3.61,3.61,0,0,0-.66-2.254,2.1,2.1,0,0,0-1.754-.863,2.075,2.075,0,0,0-1.727.852A3.925,3.925,0,0,0,131.07,34.867Zm15.523,4.289a3.693,3.693,0,0,1-2.8-1.129,4.19,4.19,0,0,1-1.078-3.02v-.266a5.073,5.073,0,0,1,.48-2.246,3.748,3.748,0,0,1,1.344-1.547,3.378,3.378,0,0,1,1.871-.559,3.166,3.166,0,0,1,2.563,1.086,4.7,4.7,0,0,1,.914,3.109v.6h-5.727a3,3,0,0,0,.73,2.02,2.3,2.3,0,0,0,1.777.77,2.517,2.517,0,0,0,1.3-.312,3.258,3.258,0,0,0,.93-.828l.883.688A3.55,3.55,0,0,1,146.594,39.156Zm-.18-7.578a1.928,1.928,0,0,0-1.469.637A3.1,3.1,0,0,0,144.211,34h4.234v-.109a2.753,2.753,0,0,0-.594-1.707A1.815,1.815,0,0,0,146.414,31.578Zm6.516-1.031.047,1.063a3.08,3.08,0,0,1,2.531-1.219q2.68,0,2.7,3.023V39h-1.445V33.406a1.946,1.946,0,0,0-.418-1.352,1.675,1.675,0,0,0-1.277-.437,2.086,2.086,0,0,0-1.234.375,2.546,2.546,0,0,0-.828.984V39h-1.445V30.547Zm14.93,8.609a3.693,3.693,0,0,1-2.8-1.129,4.19,4.19,0,0,1-1.078-3.02v-.266a5.073,5.073,0,0,1,.48-2.246,3.748,3.748,0,0,1,1.344-1.547,3.378,3.378,0,0,1,1.871-.559,3.166,3.166,0,0,1,2.563,1.086,4.7,4.7,0,0,1,.914,3.109v.6H165.43a3,3,0,0,0,.73,2.02,2.3,2.3,0,0,0,1.777.77,2.517,2.517,0,0,0,1.3-.312,3.258,3.258,0,0,0,.93-.828l.883.688A3.55,3.55,0,0,1,167.859,39.156Zm-.18-7.578a1.928,1.928,0,0,0-1.469.637A3.1,3.1,0,0,0,165.477,34h4.234v-.109a2.753,2.753,0,0,0-.594-1.707A1.815,1.815,0,0,0,167.68,31.578ZM174.4,39h-1.445V27H174.4Zm9.664-1.023a2.082,2.082,0,0,0,1.352-.469,1.649,1.649,0,0,0,.641-1.172h1.367a2.621,2.621,0,0,1-.5,1.383,3.293,3.293,0,0,1-1.23,1.047,3.55,3.55,0,0,1-1.629.391A3.482,3.482,0,0,1,181.316,38a4.59,4.59,0,0,1-1.02-3.152v-.242a5.089,5.089,0,0,1,.453-2.2,3.451,3.451,0,0,1,1.3-1.492,3.7,3.7,0,0,1,2-.531,3.39,3.39,0,0,1,2.363.852,3.043,3.043,0,0,1,1,2.211h-1.367a1.992,1.992,0,0,0-.621-1.348,1.932,1.932,0,0,0-1.379-.527,2.023,2.023,0,0,0-1.707.793,3.724,3.724,0,0,0-.605,2.293v.273a3.65,3.65,0,0,0,.6,2.25A2.033,2.033,0,0,0,184.063,37.977Zm10.2.188a3.07,3.07,0,0,1-2.477.992,2.628,2.628,0,0,1-2.059-.785,3.4,3.4,0,0,1-.715-2.324v-5.5h1.445v5.461q0,1.922,1.563,1.922a2.163,2.163,0,0,0,2.2-1.234V30.547h1.445V39H194.3Zm7.109.992a3.693,3.693,0,0,1-2.8-1.129,4.19,4.19,0,0,1-1.078-3.02v-.266a5.073,5.073,0,0,1,.48-2.246,3.748,3.748,0,0,1,1.344-1.547,3.378,3.378,0,0,1,1.871-.559,3.166,3.166,0,0,1,2.563,1.086,4.7,4.7,0,0,1,.914,3.109v.6h-5.727a3,3,0,0,0,.73,2.02,2.3,2.3,0,0,0,1.777.77,2.517,2.517,0,0,0,1.3-.312,3.258,3.258,0,0,0,.93-.828l.883.688A3.55,3.55,0,0,1,201.375,39.156Zm-.18-7.578a1.928,1.928,0,0,0-1.469.637A3.1,3.1,0,0,0,198.992,34h4.234v-.109a2.753,2.753,0,0,0-.594-1.707A1.815,1.815,0,0,0,201.2,31.578Zm9.234.266a4.331,4.331,0,0,0-.711-.055A1.9,1.9,0,0,0,207.789,33v6h-1.445V30.547h1.406l.023.977a2.251,2.251,0,0,1,2.016-1.133,1.477,1.477,0,0,1,.641.109Zm8.469,3.023a5.062,5.062,0,0,1-.883,3.109,2.829,2.829,0,0,1-2.391,1.18,3.1,3.1,0,0,1-2.422-.977v4.07h-1.445v-11.7h1.32l.07.938a2.977,2.977,0,0,1,2.453-1.094,2.882,2.882,0,0,1,2.41,1.148,5.117,5.117,0,0,1,.887,3.2Zm-1.445-.164a3.735,3.735,0,0,0-.609-2.258,1.963,1.963,0,0,0-1.672-.828,2.125,2.125,0,0,0-1.969,1.164V36.82a2.129,2.129,0,0,0,1.984,1.156,1.954,1.954,0,0,0,1.652-.824A4.077,4.077,0,0,0,217.453,34.7Zm2.9-.008a4.993,4.993,0,0,1,.488-2.234A3.642,3.642,0,0,1,222.2,30.93a3.7,3.7,0,0,1,1.988-.539,3.565,3.565,0,0,1,2.793,1.2,4.6,4.6,0,0,1,1.066,3.18v.1a5.036,5.036,0,0,1-.473,2.215,3.589,3.589,0,0,1-1.352,1.527,3.743,3.743,0,0,1-2.02.547,3.556,3.556,0,0,1-2.785-1.2,4.575,4.575,0,0,1-1.066-3.164Zm1.453.172a3.616,3.616,0,0,0,.652,2.258,2.211,2.211,0,0,0,3.5-.012A3.954,3.954,0,0,0,226.6,34.7a3.61,3.61,0,0,0-.66-2.254,2.1,2.1,0,0,0-1.754-.863,2.075,2.075,0,0,0-1.727.852A3.925,3.925,0,0,0,221.8,34.867Zm13.461-3.3a3.073,3.073,0,0,1,2.5-1.18q2.68,0,2.7,3.023V39h-1.445V33.406a1.946,1.946,0,0,0-.418-1.352,1.675,1.675,0,0,0-1.277-.437,2.086,2.086,0,0,0-1.234.375,2.546,2.546,0,0,0-.828.984V39H233.82V27h1.445Zm12.586,6.594a3.07,3.07,0,0,1-2.477.992,2.628,2.628,0,0,1-2.059-.785,3.4,3.4,0,0,1-.715-2.324v-5.5h1.445v5.461q0,1.922,1.563,1.922a2.163,2.163,0,0,0,2.2-1.234V30.547h1.445V39h-1.375Zm4.961-7.617.039.938a3.122,3.122,0,0,1,2.508-1.094,2.417,2.417,0,0,1,2.414,1.359,3.2,3.2,0,0,1,1.1-.984,3.242,3.242,0,0,1,1.6-.375q2.781,0,2.828,2.945V39h-1.445V33.422a1.941,1.941,0,0,0-.414-1.355,1.823,1.823,0,0,0-1.391-.449,1.916,1.916,0,0,0-1.336.48,1.949,1.949,0,0,0-.617,1.293V39h-1.453V33.461a1.613,1.613,0,0,0-1.8-1.844,1.934,1.934,0,0,0-1.945,1.211V39h-1.445V30.547ZM270.7,39a3.036,3.036,0,0,1-.2-.891,3.225,3.225,0,0,1-2.406,1.047,2.984,2.984,0,0,1-2.051-.707,2.288,2.288,0,0,1-.8-1.793,2.39,2.39,0,0,1,1-2.051,4.733,4.733,0,0,1,2.824-.73h1.406v-.664A1.623,1.623,0,0,0,270.016,32a1.821,1.821,0,0,0-1.336-.449,2.108,2.108,0,0,0-1.3.391,1.151,1.151,0,0,0-.523.945h-1.453a2,2,0,0,1,.449-1.223,3.066,3.066,0,0,1,1.219-.934,4.1,4.1,0,0,1,1.691-.344,3.342,3.342,0,0,1,2.289.73,2.635,2.635,0,0,1,.859,2.012v3.891a4.757,4.757,0,0,0,.3,1.852V39Zm-2.4-1.1a2.54,2.54,0,0,0,1.289-.352,2.126,2.126,0,0,0,.883-.914V34.9h-1.133q-2.656,0-2.656,1.555a1.316,1.316,0,0,0,.453,1.063A1.742,1.742,0,0,0,268.3,37.9Zm7.25-7.352.047,1.063a3.08,3.08,0,0,1,2.531-1.219q2.68,0,2.7,3.023V39h-1.445V33.406a1.946,1.946,0,0,0-.418-1.352,1.675,1.675,0,0,0-1.277-.437,2.086,2.086,0,0,0-1.234.375,2.546,2.546,0,0,0-.828.984V39H274.18V30.547Zm7.078,4.148a4.993,4.993,0,0,1,.488-2.234,3.643,3.643,0,0,1,1.359-1.531,3.7,3.7,0,0,1,1.988-.539,3.565,3.565,0,0,1,2.793,1.2,4.6,4.6,0,0,1,1.066,3.18v.1a5.036,5.036,0,0,1-.473,2.215,3.589,3.589,0,0,1-1.352,1.527,3.743,3.743,0,0,1-2.02.547,3.556,3.556,0,0,1-2.785-1.2,4.575,4.575,0,0,1-1.066-3.164Zm1.453.172a3.616,3.616,0,0,0,.652,2.258,2.211,2.211,0,0,0,3.5-.012,3.955,3.955,0,0,0,.648-2.418,3.61,3.61,0,0,0-.66-2.254,2.1,2.1,0,0,0-1.754-.863,2.075,2.075,0,0,0-1.727.852A3.925,3.925,0,0,0,284.078,34.867Zm8.008,3.375a.905.905,0,0,1,.223-.625.848.848,0,0,1,.668-.25.874.874,0,0,1,.676.25.887.887,0,0,1,.23.625.839.839,0,0,1-.23.6.89.89,0,0,1-.676.242.8.8,0,0,1-.891-.844Zm.008-6.9a.905.905,0,0,1,.223-.625.848.848,0,0,1,.668-.25.874.874,0,0,1,.676.25.887.887,0,0,1,.23.625.839.839,0,0,1-.23.6.89.89,0,0,1-.676.242.8.8,0,0,1-.891-.844Z" transform="translate(285.287 1468)" fill="#12263f"/>
    <g id="cf6_pulso" transform="translate(99.128 1298.319)">
      <g id="Capa_2" data-name="Capa 2" transform="translate(155 240.467)">
        <g id="Grupo_75098" data-name="Grupo 75098">
          <path id="Trazado_161700" data-name="Trazado 161700" d="M280.755,297.893c0-.763-3.637-30.87,18.791-47.55s48.886-10.159,58.424,4.221,8.811,18.028,7.857,25.5a53.082,53.082,0,0,1-4.555,14.761s-.382,7.667-2.492,11.3-7.667,9.2-7.667,9.2-2.015,3.446.191,14.666c2.6,13.211,2.039,19.65,15.107,23.847s35.7,13.986,48.54,20.508,25.528,16.383,26.863,37.082-.608,33.6-.322,41.314c.513,14.058,1.061,16.8,2.6,30.3.811,7.154-.191,19.948,1.192,23.775s14.308,22.38,17.885,45.189,2.23,51.163,4.889,60.249c4.6,15.81,5.962,19.364,5.962,19.364s14-2.492,21.092,1.538,7.881,7.07,16.1,9.193,12.686,2.73,12.663,3.577c-.119,5.139-6.331,6.605-12.663,6.021s-16.287-6.51-16.287-6.51-2.695,10.731.382,15.715,8.048,17.062,8.048,17.062,7.857,11.7,7.857,15.715c0,1.61.227,4.769-.7,5.485-1.4,1.192-3.4.334-4.137-.405-4.912-4.889-13.557-23.1-15.095-23.286s10.862,22.475,10.159,30.476a4.233,4.233,0,0,1-3.577,3.076c-1.92.191-7.285-7.667-7.285-7.667s-5.962,2.492-7.476-.394-12.46-24.729-13.044-24.538-2.874.584-2.874.584,4.03,11.685,4.412,13.986-.191,3.267-1.92,3.839-6.51-5.556-8.621-10.159S448.97,660.207,448,655.032s2.683-12.269-.382-17.062-31.823-66.139-33.743-79.564-2.1-38.918-2.1-38.918l-12.162-37.534s-7.476,24.729-3.458,61.536S410.3,658.109,407.655,688.1c-3.744,42.292-11.458,49.828-11.291,81.174.167,28.974,8.847,58.186,8.847,58.186s11.077,24.872,9.539,53.655-12.663,61.083-12.555,86.6a302.52,302.52,0,0,0,3.935,46.775s1.61,12.066,1.538,16.108c-.107,5.962-4.066,20.377-9.67,22.308-1.383.477-3.4-2-3.4-2a6.307,6.307,0,0,1-4.376,1.932,5.509,5.509,0,0,1-4.03-1.92s-.382,5.175-4.018,5.175h-5.4s-.572,1.729-3.446,1.729a8.619,8.619,0,0,1-4.984-1.729s-9.145.072-11.923-3.446c-2.587-3.315-2.874-12.078,2.11-20.27s19.745-33.743,17.825-49.851-.191-44.856-3.255-51.187-7.285-37.38-9.014-51.95,1.192-20.27-2.683-36.426-10.159-38.155-14.38-49.649-13.8-64.386-15.715-73.424a86.485,86.485,0,0,0-4.6-15.143l-6.331,67.665s-.835,33.5-2.027,43.282-6.522,10.54-7.094,17.062,8.239,35.269,6.129,52.725-15.727,63.253-11.124,86.647,7.857,39.347,1.717,43.711-11.089-2.1-13.8,2.671-3.839,14.189-9.014,19.364-10.159,4.6-10.159,4.6-3.458,9-9.2,7.285a18.278,18.278,0,0,1-8.621-5.377s0,3.577-3.076,3.207-3.064-2.385-3.064-2.385-1.729-.966-3.255-1.729-1.92-3.839-1.92-3.839-2.683-.191-3.064-2.492a7.368,7.368,0,0,1,1.192-4.59s-2.683-.393.966-5.962,27.221-20.89,29.713-29.9,10.54-26.458,4.4-47.157-18.779-78.026-15.333-97.2,7.285-35.651,5.962-51.568-31.633-90.868-22.654-140.516,16.108-64.231,14.964-90.1-4.412-51.378-4.412-51.378-1.347,36.426-2.683,42.554S239,605.026,239,605.026l-16.871,35.663s-.191,26.231-7.154,37.57-11.494,18.016-13.414,18.41a13.847,13.847,0,0,1-4.221,0l-5.175,8.62s.763,1.92-2.3,1.192a4.221,4.221,0,0,1-3.255-3.649s-3.267,6.9-5.556,6.713-2.3-3.064-2.3-3.064l.191-7.488s-2.492,6.522-4.769,6.141-2.874-4.412,0-12.078,8.048-25.683,8.048-25.683,1.729-10.361-.954-10.934-5.187,2.873-5.187,2.873-16.478,10.361-18.016,9.777S155,665.263,155,665.263a10.54,10.54,0,0,1,3.827-6.9c3.648-3.064,16.693-15.333,16.693-15.333a20.138,20.138,0,0,0,15.333-7.285,74.913,74.913,0,0,0,10.731-16.3s-.382-41.41,9.2-70.741,16.323-53.464,16.872-78.122c.227-9.539-7.81-22.654-4.316-52.009,3.35-28.079,14.654-31.549,29.618-36.843,14.308-5.067,27.03-12.078,31-15.333s12.925-13.867,12.925-13.867-8.251-3.827-9.539-9.4-.572-6.319-2.683-10.731-6.141-15.715-5.962-20.27S280.958,301.733,280.755,297.893Z" transform="translate(-155 -240.467)" fill="#ffc69f"/>
          <path id="Trazado_161701" data-name="Trazado 161701" d="M284.39,386.817v-1.86a12.766,12.766,0,0,1,.131-1.657,26.152,26.152,0,0,1,.584-3.231,25.55,25.55,0,0,1,2.385-6.093,26.112,26.112,0,0,1,8.895-9.3,37.771,37.771,0,0,1,11.47-4.626,64.862,64.862,0,0,1,23.68-.727,54.562,54.562,0,0,1,11.494,3.172A63.194,63.194,0,0,1,362.762,375.3c.727.656,1.407,1.359,2.1,2.051l1.967,1.943,4.078,3.863a79.739,79.739,0,0,1,8.048,8.43,29.522,29.522,0,0,1,5.64,10.838,43.343,43.343,0,0,1,.942,11.923c-.262,7.7-1.192,15.19-1.9,22.654s-1.3,14.952-.56,22.165a32.117,32.117,0,0,0,1.013,5.222c.25.811.584,1.669.918,2.528s.692,1.705,1.049,2.54a78.361,78.361,0,0,0,5.21,9.765c1.944,3.172,4.09,6.248,6.141,9.467,1.025,1.61,2.015,3.267,2.921,4.972a54.693,54.693,0,0,1,2.385,5.258,127.586,127.586,0,0,1,6.451,21.867c.393,1.848.727,3.744,1.061,5.58s.823,3.577,1.335,5.377c1.037,3.577,2.254,7.154,3.47,10.731s2.468,7.154,3.577,10.731a48.875,48.875,0,0,1,1.467,5.568,8.7,8.7,0,0,1,.155,1.526,8.508,8.508,0,0,0,.072,1.347c.072.906.2,1.824.358,2.742.608,3.684,1.478,7.357,2.242,11.053.382,1.848.751,3.7,1.061,5.568.143.942.274,1.884.382,2.826s.227,1.848.393,2.766a87.5,87.5,0,0,0,2.874,10.874c.56,1.789,1.192,3.577,1.681,5.389s1.312,3.577,1.955,5.282a39.507,39.507,0,0,1,1.717,5.377,11.125,11.125,0,0,1,0,5.664,46.228,46.228,0,0,0-3.708,10.648,46.8,46.8,0,0,1,3.494-10.731,10.934,10.934,0,0,0-.143-5.509,40.535,40.535,0,0,0-1.765-5.342c-.668-1.753-1.455-3.458-2.063-5.282s-1.192-3.577-1.8-5.354a89.206,89.206,0,0,1-3.112-10.91c-.906-7.524-3.076-14.666-4.531-22.142-.179-.942-.334-1.884-.429-2.85-.06-.477-.06-1-.1-1.466a7.066,7.066,0,0,0-.167-1.276,47.276,47.276,0,0,0-1.526-5.342c-1.192-3.577-2.516-7.071-3.815-10.612s-2.575-7.094-3.708-10.731c-.56-1.824-1.1-3.649-1.49-5.556s-.739-3.684-1.192-5.509a125.042,125.042,0,0,0-6.737-21.307c-.751-1.681-1.538-3.374-2.385-4.96s-1.86-3.172-2.885-4.769c-2.063-3.088-4.292-6.152-6.355-9.36a80.478,80.478,0,0,1-5.628-10.063c-.393-.882-.811-1.753-1.192-2.647s-.739-1.777-1.061-2.766a34.007,34.007,0,0,1-1.264-5.831c-.954-7.786-.417-15.417.1-22.964s1.323-15.035,1.431-22.416a38.87,38.87,0,0,0-1-10.552,24.92,24.92,0,0,0-4.912-8.966,76.023,76.023,0,0,0-7.7-7.738l-4.2-3.839-2.087-1.991c-.668-.62-1.312-1.264-1.991-1.86a57.339,57.339,0,0,0-18.195-11.3,49.128,49.128,0,0,0-10.3-2.623,56.842,56.842,0,0,0-10.731-.417c-7.154.37-14.308,1.788-19.888,5.413a19.077,19.077,0,0,0-6.45,6.963,17.967,17.967,0,0,0-1.657,4.423,19.29,19.29,0,0,0-.382,2.325c0,.393-.06.775-.072,1.192v.954Z" transform="translate(-130.114 -217.753)" fill="#ff4f5b"/>
          <path id="Trazado_161702" data-name="Trazado 161702" d="M346.55,371.334a59.959,59.959,0,0,1,9.133-1.49,51.984,51.984,0,0,1,9.241,0A31.894,31.894,0,0,1,374.141,372a21.2,21.2,0,0,1,4.292,2.385,20.114,20.114,0,0,1,1.932,1.562l.894.882.763.811c2.015,2.17,4.042,4.364,5.962,6.749a38.646,38.646,0,0,1,5,7.846,40.538,40.538,0,0,1,2.778,8.835,87.427,87.427,0,0,1,1.335,8.942,80.3,80.3,0,0,1-.405,18,43.416,43.416,0,0,0-.489,8.466l.131.954.238.894.334,1.192c.107.405.167.8.238,1.192a28.452,28.452,0,0,1,.322,4.674c-.1,6.093-1.085,11.8-.286,17.515.608,5.962.668,11.84,1.347,17.635.155,1.467.334,2.921.572,4.292s.62,2.814,1,4.221c.763,2.814,1.645,5.628,2.528,8.43a176.37,176.37,0,0,1,4.769,17.122,40.071,40.071,0,0,1,1.025,8.966,76.471,76.471,0,0,0,.238,8.752c.477,5.819,1.765,11.578,2.778,17.4.525,2.921.942,5.831,1.514,8.716s1.192,5.747,1.92,8.609c1.419,5.711,2.921,11.435,4.269,17.17a152.372,152.372,0,0,0,5.1,16.907c.525,1.371,1.085,2.73,1.693,4.066a24.257,24.257,0,0,0,2.146,3.851,18.971,18.971,0,0,0,6.617,5.711,18.947,18.947,0,0,1-6.737-5.628,23.679,23.679,0,0,1-2.182-3.923c-.632-1.324-1.192-2.683-1.765-4.054a154.345,154.345,0,0,1-5.389-16.871c-1.443-5.723-3.029-11.387-4.543-17.1-.751-2.85-1.467-5.723-2.087-8.621s-1.1-5.819-1.657-8.692c-1.109-5.771-2.5-11.542-3.088-17.48a74.516,74.516,0,0,1-.393-8.919,38.287,38.287,0,0,0-1.192-8.561c-1.288-5.687-3.184-11.256-5.044-16.86-.918-2.8-1.86-5.6-2.695-8.466-.405-1.443-.787-2.885-1.109-4.376s-.5-2.993-.68-4.459c-.787-5.962-.942-11.852-1.645-17.623-.179-1.407-.346-3.029-.393-4.519s0-3.029,0-4.519c.119-2.981.346-5.962.334-8.776a25.946,25.946,0,0,0-.346-4.137,17.2,17.2,0,0,0-.5-1.943l-.358-1.192-.2-1.192a46.24,46.24,0,0,1,.334-9.169,76.308,76.308,0,0,0,.119-17.3c-.334-2.838-.811-5.747-1.419-8.525a36.759,36.759,0,0,0-2.647-7.965c-2.385-4.96-6.415-9.145-10.469-13.378l-.763-.787-.7-.668a13.354,13.354,0,0,0-1.526-1.192,16.143,16.143,0,0,0-3.482-1.836,27.661,27.661,0,0,0-7.977-1.7,53.832,53.832,0,0,0-16.693,1.657Z" transform="translate(-118.159 -215.623)" fill="#ff4f5b"/>
          <path id="Trazado_161703" data-name="Trazado 161703" d="M380.479,469.16c.978,10.552,2.313,21.128,4.161,31.573.942,5.21,2.027,10.409,3.47,15.5l4.519,15.333c2.933,10.254,5.795,20.52,8.5,30.834.692,2.552,1.312,5.2,1.92,7.75a67.742,67.742,0,0,0,2.587,7.536c1.884,4.972,3.78,9.968,5.962,14.8-2.385-4.769-4.352-9.729-6.355-14.666-.99-2.48-1.967-4.948-2.778-7.512s-1.347-5.151-2.1-7.714c-2.945-10.23-6.045-20.425-9.217-30.6l-4.865-15.226a158.468,158.468,0,0,1-3.839-15.608c-2.11-10.5-3.7-21.057-4.936-31.692Z" transform="translate(-112.204 -196.482)" fill="#ff4f5b"/>
          <path id="Trazado_161704" data-name="Trazado 161704" d="M303.3,382.857a59.834,59.834,0,0,0-15.87-9.312,31.789,31.789,0,0,0-8.752-2.158,15.279,15.279,0,0,0-2.206-.107,11.069,11.069,0,0,0-2.182.107c-.739.107-1.407.131-2.194.3l-2.385.465a88.569,88.569,0,0,0-17.909,5.568c-5.616,2.552-10.814,6.152-13.938,11.244a17.754,17.754,0,0,0-2.218,8.346,48.882,48.882,0,0,0,.608,9.276c.441,3.124,1.073,6.236,1.681,9.408.31,1.574.62,3.172.858,4.769a25.7,25.7,0,0,1,.322,5.1,47.7,47.7,0,0,0,.966,9.241c.525,3.16,1.061,6.367,1.383,9.622a55.527,55.527,0,0,1,.179,9.861l-.286,2.468-.441,2.444c-.346,1.61-.739,3.184-1.192,4.769a124.741,124.741,0,0,1-6.856,18.171q-2.039,4.4-4.3,8.68c-1.562,2.85-2.993,5.64-4.424,8.537q-4.257,8.621-8.263,17.372c-1.347,2.921-2.659,5.842-3.923,8.787-.62,1.467-1.192,2.945-1.777,4.424-.119.37-.262.739-.37,1.109l-.238,1.109c-.1.787-.227,1.562-.3,2.385-1.192,12.746-1.264,25.671-3.327,38.393-.107.8-.31,1.586-.465,2.385a22.752,22.752,0,0,1-.584,2.385c-.405,1.574-.954,3.064-1.395,4.614-.906,3.076-1.741,6.176-2.552,9.276-1.61,6.224-3.088,12.472-4.5,18.732,1.312-6.284,2.695-12.555,4.209-18.8.763-3.124,1.55-6.236,2.385-9.336.417-1.55.942-3.088,1.323-4.626a21.911,21.911,0,0,0,.537-2.325c.143-.787.322-1.562.429-2.385,1.86-12.686,1.753-25.564,2.73-38.405a19.181,19.181,0,0,1,.274-2.385l.238-1.252c.107-.405.25-.787.37-1.192.537-1.538,1.192-3.04,1.741-4.531,1.192-2.981,2.5-5.962,3.8-8.871q3.887-8.835,8.012-17.551c1.359-2.885,2.826-5.842,4.316-8.644s2.826-5.723,4.114-8.644a122.949,122.949,0,0,0,6.451-17.945,47.134,47.134,0,0,0,1.681-9.229,51.556,51.556,0,0,0-.322-9.384c-.358-3.136-.93-6.26-1.5-9.419a49.518,49.518,0,0,1-1.192-9.872,41.41,41.41,0,0,0-1.264-9.157c-.656-3.124-1.347-6.3-1.86-9.539a53.353,53.353,0,0,1-.8-9.908,21.307,21.307,0,0,1,2.587-10.087,28.615,28.615,0,0,1,6.8-7.655,42.924,42.924,0,0,1,8.573-5.246,92.152,92.152,0,0,1,18.708-6.081l2.385-.513c.775-.179,1.717-.262,2.564-.393a13.855,13.855,0,0,1,2.623-.167,17.167,17.167,0,0,1,2.6.083,36.068,36.068,0,0,1,9.932,2.265,59.276,59.276,0,0,1,9.062,4.245,68.238,68.238,0,0,1,8.346,5.6Z" transform="translate(-147.026 -216.118)" fill="#ff4f5b"/>
          <path id="Trazado_161705" data-name="Trazado 161705" d="M237.08,450.77c.429,2.945.7,5.831.847,8.764a57.815,57.815,0,0,1-.2,8.847,27.879,27.879,0,0,1-.823,4.459c-.405,1.443-.858,2.814-1.371,4.2-.99,2.754-2.206,5.389-3.04,8.036a21.272,21.272,0,0,0-.87,4.006c-.072.68-.1,1.347-.119,2.063s0,1.467-.072,2.194c-.131,2.9-.334,5.771-.537,8.656q-.644,8.644-1.467,17.253-.405,4.316-.918,8.621a40.658,40.658,0,0,1-1.622,8.585c-1.812,5.521-3.994,10.85-6.152,16.2-4.376,10.672-8.919,21.271-13.533,31.835,4.388-10.636,8.7-21.367,12.877-32.1,2.039-5.389,4.114-10.731,5.795-16.263a39.954,39.954,0,0,0,1.383-8.346q.417-4.292.727-8.609c.429-5.735.787-11.494,1.1-17.241.143-2.874.274-5.747.346-8.609V491.19a20.771,20.771,0,0,1,.083-2.253,22.216,22.216,0,0,1,.847-4.447c.858-2.885,2-5.509,2.909-8.2.453-1.335.882-2.707,1.192-4.042a25.346,25.346,0,0,0,.644-4.066,70.8,70.8,0,0,0-.99-16.848Z" transform="translate(-144.96 -200.019)" fill="#ff4f5b"/>
          <path id="Trazado_161706" data-name="Trazado 161706" d="M307.447,419.94c3.339,11.78,6.307,23.549,9.026,35.448s5.079,23.847,6.725,36.044a162.167,162.167,0,0,1,1.4,18.469q.131,9.229-.37,18.4a346.671,346.671,0,0,1-3.982,36.462c-.548,3.04-1.061,6.033-1.836,9.133l-.346,1.192-.167.6c-.1.262-.227.584-.358.858a7.863,7.863,0,0,1-.382.775l-.286.489-.584.966-2.385,3.887-9.348,15.5-1.192,1.943-.584.966-.286.489-.382.584c-.894,1.335-1.705,2.516-2.528,3.78-1.645,2.5-3.219,5.055-4.769,7.631q-4.525,7.762-8.346,15.93a159.037,159.037,0,0,0-6.582,16.693c-.978,2.826-1.765,5.711-2.576,8.585-.405,1.443-.7,2.909-1.061,4.352s-.692,2.909-.99,4.4c-2.468,11.852-4.912,23.716-6.725,35.639-.882,5.962-1.6,11.923-1.932,17.885a113.486,113.486,0,0,0,.393,17.885c.644,5.962,1.622,11.923,2.5,17.957s1.717,12.043,2.265,18.123c.25,3.04.489,6.093.572,9.157s.143,6.045.286,9.074.31,5.962.537,9.038.477,6.081.441,9.181a64.744,64.744,0,0,1-.727,9.217,79.886,79.886,0,0,1-2.146,8.966c-1.693,5.843-3.672,11.566-4.507,17.468a41.862,41.862,0,0,0-.227,8.907c.179,3,.441,5.962.727,9.038l1.717,18.112c.513,6.045,1.025,12.1,1.025,18.207,0,3.076-.286,6.069-.262,9.086s.083,6.057.179,9.086c.179,6.057.453,12.114.393,18.2a75.108,75.108,0,0,1-.537,9.109c-.119.751-.274,1.5-.405,2.265a12.7,12.7,0,0,1-.656,2.206c-.525,1.431-1.085,2.838-1.669,4.245q-3.482,8.406-7.691,16.49c-1.407,2.683-2.85,5.354-4.447,7.941a35.968,35.968,0,0,1-5.485,7.226,35.457,35.457,0,0,0,5.389-7.285c1.562-2.6,2.981-5.282,4.34-7.989q4.09-8.12,7.488-16.55a31.867,31.867,0,0,0,2.575-8.62,73.746,73.746,0,0,0,.429-9.038c0-6.057-.358-12.1-.62-18.171-.131-3.029-.25-6.057-.286-9.1s.167-6.117.143-9.1c-.072-5.962-.656-12.066-1.192-18.088L265.2,861.2c-.31-3.029-.62-6.045-.835-9.086a42.929,42.929,0,0,1,.131-9.253c.787-6.141,2.731-11.923,4.328-17.778a76.329,76.329,0,0,0,1.991-8.74,63.273,63.273,0,0,0,.6-8.907c0-2.969-.3-5.962-.548-8.978s-.489-6.069-.656-9.109-.262-6.1-.405-9.1-.382-5.962-.668-8.99c-.62-5.962-1.5-11.923-2.468-17.885s-2-11.923-2.742-18.04a116.032,116.032,0,0,1-.632-18.421c.274-6.129.918-12.221,1.741-18.267,1.693-12.078,3.994-24.014,6.331-35.925.274-1.49.608-2.981.942-4.5s.644-3,1.037-4.5c.787-2.969,1.574-5.962,2.54-8.859a163.831,163.831,0,0,1,6.546-17.217,175.127,175.127,0,0,1,8.346-16.43q2.265-4.006,4.769-7.893c.8-1.288,1.693-2.611,2.468-3.815l.239-.37.3-.489.572-.99,1.192-1.967,9.229-15.763,2.3-3.935.584-.99.286-.489c.107-.179,0-.179.083-.262a1.049,1.049,0,0,1,.072-.2l.131-.489.274-.966c.656-2.8,1.192-5.795,1.633-8.728A337.918,337.918,0,0,0,318.381,528c.239-5.962.3-12.007.143-17.969a155.778,155.778,0,0,0-1.538-17.754c-1.741-11.84-4.209-23.644-7.047-35.365s-5.962-23.429-9.348-34.947Z" transform="translate(-136.944 -205.948)" fill="#ff4f5b"/>
          <path id="Trazado_161707" data-name="Trazado 161707" d="M263.992,676.24a84.834,84.834,0,0,1,7.834,12.567,83.468,83.468,0,0,1,5.568,13.652l.966,3.577.775,3.577,1.359,7.154c.918,4.769,1.836,9.479,2.695,14.236s1.645,9.539,2.23,14.38c.286,2.385.525,4.841.656,7.285l.238,7.237c.465,9.622,1.192,19.256,1.526,28.926.179,4.829.31,9.67.179,14.523a99.349,99.349,0,0,1-1.574,14.487c-1.61,9.539-3.577,18.982-5.234,28.485-.811,4.769-1.562,9.539-2.075,14.308a114.049,114.049,0,0,0-.62,14.415,235.6,235.6,0,0,0,2.385,28.819,233.074,233.074,0,0,1-2.826-28.795,115.48,115.48,0,0,1,.393-14.5c.441-4.769,1.121-9.539,1.86-14.308,1.49-9.539,3.339-19.077,4.769-28.544a98.245,98.245,0,0,0,1.335-14.308c0-4.769-.155-9.539-.405-14.415-.513-9.61-1.347-19.22-1.967-28.878l-.358-7.154c-.155-2.385-.429-4.769-.739-7.154-.656-4.769-1.514-9.467-2.444-14.189s-1.908-9.443-2.9-14.165l-1.467-7.154-.8-3.446-.978-3.4a83.952,83.952,0,0,0-13.187-24.9Z" transform="translate(-134.576 -156.654)" fill="#ff4f5b"/>
          <path id="Trazado_161708" data-name="Trazado 161708" d="M308.322,547.54c2.873,8.549,5.389,17.11,7.571,25.85,1.085,4.364,2.063,8.752,2.862,13.211l1.133,6.546.656,3.183.751,3.172a106.132,106.132,0,0,0,4.006,12.376c1.586,4.054,3.446,7.977,5.365,12.042l.715,1.55c.119.274.215.477.382.93a6.978,6.978,0,0,1,.31,1.025,30.441,30.441,0,0,1,.632,3.577c.3,2.277.489,4.519.656,6.761.334,4.483.548,8.942.751,13.4.382,8.907.656,17.79.966,26.684l.513,13.306c.215,4.412.429,8.859.894,13.187a31.215,31.215,0,0,0,3.851,11.923,66.274,66.274,0,0,0,7.559,10.552c2.85,3.35,5.866,6.594,8.811,10a54.618,54.618,0,0,1,4.2,5.425,23.609,23.609,0,0,1,3.04,6.4,24.694,24.694,0,0,1,.942,7c0,2.385-.227,4.567-.417,6.784-.393,4.435-.823,8.835-.787,13.187a35.523,35.523,0,0,0,.549,6.4,16.084,16.084,0,0,0,.858,2.969c.346.894.942,1.92,1.407,2.933a45.991,45.991,0,0,1,2.575,6.331,21.927,21.927,0,0,1,1.073,6.9v.727l.1.811.215,1.633.453,3.3q.453,3.327.775,6.665c.441,4.447.68,8.931.7,13.4a124.638,124.638,0,0,1-2.683,26.684,138.526,138.526,0,0,0-2.969,26.351c-.131,4.435-.143,8.895-.477,13.354a40.027,40.027,0,0,1-2.945,13.116c-.906,2.075-2.063,3.959-2.933,5.962-.453,1.013-.906,2.027-1.276,3.064s-.787,2.075-1.133,3.124a88.355,88.355,0,0,0-3.219,12.9,102.449,102.449,0,0,0-1.478,13.223,76.307,76.307,0,0,1-1.192,13.283,76.2,76.2,0,0,0,.966-13.283,103.294,103.294,0,0,1,1.312-13.283,87.445,87.445,0,0,1,3.052-13.02c.334-1.061.68-2.122,1.085-3.16s.811-2.087,1.252-3.112c.859-2.063,2-4.018,2.85-6.021a38.749,38.749,0,0,0,2.695-12.865c.274-4.412.215-8.859.3-13.306a139.9,139.9,0,0,1,2.623-26.637,122.881,122.881,0,0,0,2.277-26.351c-.083-4.412-.382-8.823-.87-13.211-.238-2.206-.537-4.388-.858-6.582l-.5-3.291-.238-1.669-.119-.858v-.93c0-4.257-1.657-8.263-3.577-12.2-.477-.99-1.013-1.884-1.514-3.052a19.974,19.974,0,0,1-1.037-3.41,37.475,37.475,0,0,1-.691-6.868c-.1-4.543.274-9.026.608-13.45.167-2.206.346-4.424.31-6.522a21.737,21.737,0,0,0-.906-6.176c-1.192-3.947-3.887-7.321-6.784-10.6s-5.962-6.522-8.966-9.9a70.351,70.351,0,0,1-8.1-11.005,39.961,39.961,0,0,1-2.909-6.367l-.537-1.681-.429-1.717a27.624,27.624,0,0,1-.6-3.458c-.548-4.519-.811-8.966-1.1-13.426l-.7-13.306c-.441-8.895-.835-17.778-1.335-26.637-.262-4.424-.537-8.847-.918-13.235-.2-2.182-.417-4.376-.727-6.5a27.411,27.411,0,0,0-.56-2.993,3.933,3.933,0,0,0-.179-.56,4.771,4.771,0,0,0-.274-.62l-.692-1.467c-1.932-3.947-3.947-8.036-5.664-12.245a111.383,111.383,0,0,1-4.388-12.925l-.835-3.315-.739-3.339-1.192-6.582c-.835-4.292-1.848-8.573-2.957-12.818-2.242-8.5-4.877-16.991-7.786-25.254Z" transform="translate(-126.587 -181.407)" fill="#ff4f5b"/>
          <path id="Trazado_161709" data-name="Trazado 161709" d="M337.663,693.948a56.562,56.562,0,0,0-1.622,6.081c-.453,2.087-.775,4.221-1.085,6.343a107.836,107.836,0,0,0-.918,12.877c0,4.316.155,8.632.513,12.937s.918,8.644,1.538,12.949c1.192,8.609,3.04,17.17,4.28,25.886q.93,6.51,1.443,13.116c.31,4.376.489,8.776.584,13.116.238,8.752.179,17.527.083,26.231,0,4.376,0,8.728.167,13.116s.489,8.7.811,13.116c.62,8.716,1.288,17.444,1.741,26.231.107,2.182.215,4.364.238,6.558v3.279a23.387,23.387,0,0,1-.37,3.279c-.692,4.316-1.562,8.609-2.468,12.877.835-4.292,1.633-8.585,2.242-12.913a30.126,30.126,0,0,0,.31-3.243V882.5c-.072-2.17-.2-4.352-.346-6.534-.608-8.716-1.419-17.42-2.194-26.136-.393-4.352-.787-8.716-1.025-13.116s-.358-8.764-.393-13.116c-.06-8.752-.155-17.479-.537-26.231-.167-4.364-.417-8.7-.8-13.032s-.966-8.644-1.657-12.937c-1.371-8.6-3.3-17.122-4.71-25.8-2.85-17.265-4.2-35.3.858-52.82Z" transform="translate(-121.159 -153.473)" fill="#ff4f5b"/>
          <path id="Trazado_161710" data-name="Trazado 161710" d="M274.94,375.1s2.814-11.327,7.154-16.955,7.619-8.943,7.643-14.058a12.984,12.984,0,0,0-2.754-8.239" transform="translate(-131.932 -222.122)" fill="none" stroke="#ff4f5b" stroke-miterlimit="10" stroke-width="2"/>
          <path id="Trazado_161711" data-name="Trazado 161711" d="M303.878,368.593s7.392-17.79,7.094-27.948S302.9,322.7,302.9,322.7" transform="translate(-126.554 -224.651)" fill="none" stroke="#ff4f5b" stroke-miterlimit="10" stroke-width="2"/>
          <path id="Trazado_161712" data-name="Trazado 161712" d="M320.354,381.025c.954-5.9,1.824-11.84,2.552-17.766.358-2.957.68-5.962.823-8.859s.072-5.962,0-8.919c-.131-5.962-.393-11.923-.93-17.885a82.173,82.173,0,0,0-1.192-8.8,14.154,14.154,0,0,0-1.407-3.982,30.928,30.928,0,0,0-2.385-3.649,30.618,30.618,0,0,1-4.769-7.881,16.132,16.132,0,0,1-.942-4.614,41.671,41.671,0,0,1,.072-4.579c.143-3.017.477-5.962.56-8.978a33.146,33.146,0,0,0-.835-8.811c-.668-2.909-1.538-5.771-2.48-8.632a31.182,31.182,0,0,1-1.085-4.4c-.3-1.478-.393-3.017-.727-4.435a20.377,20.377,0,0,0-4.352-7.714,44.332,44.332,0,0,0-6.486-6.2,43.866,43.866,0,0,1,6.653,6.057,20.544,20.544,0,0,1,4.614,7.738c.393,1.514.513,2.981.847,4.447a31.9,31.9,0,0,0,1.192,4.3c1.014,2.814,1.967,5.687,2.719,8.621a34.509,34.509,0,0,1,1.085,9.05c0,3.04-.274,6.021-.346,9.014,0,1.467-.083,3.017,0,4.424a14.191,14.191,0,0,0,.954,4.161,29.058,29.058,0,0,0,4.71,7.357,33.159,33.159,0,0,1,2.635,3.815,16.074,16.074,0,0,1,1.693,4.436,85.026,85.026,0,0,1,1.443,9.026c.68,5.962,1.1,12.019,1.383,18.052.131,3.017.238,6.021.215,9.086s-.334,6.093-.62,9.109c-.584,5.962-1.312,11.983-2.134,17.968Z" transform="translate(-127.733 -239.61)" fill="#ff4f5b"/>
          <path id="Trazado_161713" data-name="Trazado 161713" d="M309.44,272.428a23.455,23.455,0,0,0,4.519-2.969,10.444,10.444,0,0,0,3.267-4.161,39.807,39.807,0,0,0,1.288-5.354c.322-1.812.584-3.649.787-5.485-.1,1.848-.262,3.7-.489,5.532a39.632,39.632,0,0,1-1.025,5.485,11.136,11.136,0,0,1-3.231,4.662A25.768,25.768,0,0,1,310,273.49Z" transform="translate(-125.296 -237.776)" fill="#ff4f5b"/>
          <g id="Grupo_75097" data-name="Grupo 75097" transform="translate(138.522 157.463)">
            <g id="Grupo_75095" data-name="Grupo 75095" transform="translate(3.12 19.089)">
              <path id="Trazado_161714" data-name="Trazado 161714" d="M304.921,396.692a24.016,24.016,0,0,1,2.325-1.681,12.208,12.208,0,0,1,2.23-.906,1.1,1.1,0,0,0,.739-1.335h0a1.109,1.109,0,0,0-1.359-.763,13.783,13.783,0,0,0-2.707,1.121,23.47,23.47,0,0,0-2.6,1.872Z" transform="translate(-268.071 -387.881)" fill="url(#linear-gradient)"/>
              <path id="Trazado_161715" data-name="Trazado 161715" d="M305.266,398.4a24.356,24.356,0,0,1,2.862-.262,11.539,11.539,0,0,1,2.385.37,1.121,1.121,0,0,0,1.323-.775h0a1.085,1.085,0,0,0-.811-1.371,13.38,13.38,0,0,0-2.9-.417,26.084,26.084,0,0,0-3.207.286Z" transform="translate(-267.807 -387.116)" fill="url(#linear-gradient-2)"/>
              <path id="Trazado_161716" data-name="Trazado 161716" d="M274.1,388.922a1.121,1.121,0,0,0,0,1.538,16.9,16.9,0,0,1,1.192,1.335,16.515,16.515,0,0,1,1.645,3.04l2.051-.87a12.882,12.882,0,0,0-3.362-5.079,1.109,1.109,0,0,0-1.61,0Z" transform="translate(-273.794 -388.54)" fill="url(#linear-gradient-3)"/>
            </g>
            <path id="Trazado_161717" data-name="Trazado 161717" d="M300.223,378.509a13.116,13.116,0,0,0-2.683-1.669,30.082,30.082,0,0,0-4.9,6.987,4.769,4.769,0,0,1,2.456,1.025c3.172,2.54,3.911,9.133,3.923,11.232h8.167C307.151,394.916,306.96,383.958,300.223,378.509Z" transform="translate(-267.049 -371.701)" fill="url(#linear-gradient-4)"/>
            <path id="Trazado_161718" data-name="Trazado 161718" d="M298.022,412.346a11.458,11.458,0,1,1,13.116-10.171A11.756,11.756,0,0,1,298.022,412.346Z" transform="translate(-267.888 -369.255)" fill="url(#radial-gradient)"/>
            <path id="Trazado_161719" data-name="Trazado 161719" d="M316.862,405.591a10.182,10.182,0,0,0-1.419-1.681,9.538,9.538,0,0,0-2.611-1.8,9.061,9.061,0,0,0-2.874-.823c-.656-.083-1.777-.155-3.076-.238a10.171,10.171,0,0,1-9.539-9.4h0a5.055,5.055,0,0,1,3.482-5.175,26.368,26.368,0,0,1,4.531-1.192,60.161,60.161,0,0,1,7.226-.441,2.277,2.277,0,0,0,2.206-1.753h0a2.289,2.289,0,0,0-2.254-2.8,63.109,63.109,0,0,0-7.154.489,56.038,56.038,0,0,0-12.162,3.792h-1.729a47.192,47.192,0,0,0-9.682-2.79,62.747,62.747,0,0,0-7.154-.489,2.277,2.277,0,0,0-2.253,2.8h0a2.289,2.289,0,0,0,2.206,1.753,59.706,59.706,0,0,1,7.214.429,20.45,20.45,0,0,1,2.563.548,6.653,6.653,0,0,1,4.877,6.415v.859a10.254,10.254,0,0,1-5.962,9.276,13.02,13.02,0,0,0-6.82,6.439c-.131.286-.238.584-.346.882-1.777,5.127,8.168,26.887,26.816,28.533,16.86,1.49,15.965-24.049,16.073-26.029A12.174,12.174,0,0,0,316.862,405.591Z" transform="translate(-270.954 -371.038)" fill="url(#radial-gradient-2)"/>
            <path id="Trazado_161720" data-name="Trazado 161720" d="M290.489,376.245c-12.841,2.814-13.378,17.885-11.423,27.924l8.406-8.418s-.072-10.469,4.769-11.53a8.717,8.717,0,0,1,3.136-.191,30.083,30.083,0,0,1,4.9-6.987A15.143,15.143,0,0,0,290.489,376.245Z" transform="translate(-269.823 -371.905)" fill="url(#linear-gradient-5)"/>
            <path id="Trazado_161721" data-name="Trazado 161721" d="M292.322,378.742H288.84v-4.459a1.753,1.753,0,0,1,1.741-1.753h0a1.741,1.741,0,0,1,1.741,1.753Z" transform="translate(-267.78 -372.53)" fill="url(#linear-gradient-6)"/>
            <path id="Trazado_161722" data-name="Trazado 161722" d="M297.163,380.05l-3.3-1.133,1.443-4.2a1.753,1.753,0,0,1,2.218-1.085h0a1.753,1.753,0,0,1,1.085,2.218Z" transform="translate(-266.814 -372.335)" fill="url(#linear-gradient-7)"/>
            <path id="Trazado_161723" data-name="Trazado 161723" d="M287.879,379.362l-3.029,1.681-2.194-3.851a1.753,1.753,0,0,1,.656-2.385h0a1.741,1.741,0,0,1,2.385.656Z" transform="translate(-269.013 -372.137)" fill="url(#linear-gradient-8)"/>
            <path id="Trazado_161724" data-name="Trazado 161724" d="M289.276,391.623v.858a10.242,10.242,0,0,1-5.962,9.276,13.044,13.044,0,0,0-6.82,6.427c-.131.3-.238.6-.346.906a5.472,5.472,0,0,0-.2,1.765c-4.769-3.959-5.21-11.458-.93-16.836A12.531,12.531,0,0,1,289,389.644a6.856,6.856,0,0,1,.274,1.979Z" transform="translate(-271.006 -369.362)" fill="url(#linear-gradient-9)"/>
            <g id="Grupo_75096" data-name="Grupo 75096" transform="translate(8.168 28.556)" opacity="0.48">
              <path id="Trazado_161725" data-name="Trazado 161725" d="M312.083,416.917c0,.37-.644.37-.6,0,.286-2.277-1.586-3.577-3.255-4.769l-.548-.382a9.05,9.05,0,0,0,2.826,10.481c.3.238-.119.656-.429.417a9.359,9.359,0,0,1-1.86-1.967,7.524,7.524,0,0,0-.608,6.832c.143.358-.441.513-.572.155a8.108,8.108,0,0,1,.811-7.536,9.717,9.717,0,0,1-.656-8.752,10.828,10.828,0,0,1-1.932-1.908c-1.7-2.182-2.79-4.316-2.385-7.154a7.155,7.155,0,0,1-1.824-.882,11.042,11.042,0,0,0,.227,5.807.3.3,0,0,1-.572.155,11.922,11.922,0,0,1-.513-2.862,5.962,5.962,0,0,0-1.693,3.792c0,.382-.632.382-.6,0a6.522,6.522,0,0,1,2.242-4.555h0a11.7,11.7,0,0,1,.346-2.707,8.966,8.966,0,0,1-3.124-4.6,7.25,7.25,0,0,0,.739.394,8.346,8.346,0,0,0,6.677,5.354c2.6.417,5.962.99,6.343,4.161a.3.3,0,0,1-.6,0c-.3-2.647-3.243-3.16-5.377-3.505a17.307,17.307,0,0,1-1.741-.358c-.489,3.327,1.514,6.331,4.042,8.346a.322.322,0,0,1,.346.262l.644.465C310.366,412.886,312.429,414.437,312.083,416.917Z" transform="translate(-274.308 -396.48)" fill="#f79d9c"/>
              <path id="Trazado_161726" data-name="Trazado 161726" d="M297.31,431.93a9.169,9.169,0,0,1-6.224-8.668.358.358,0,0,1,0-.119,8.6,8.6,0,0,0-2.874-1.645,40.275,40.275,0,0,0-5.747-1.037,28.879,28.879,0,0,0,3.2,2.981c.3.238-.131.656-.429.417-4.03-3.243-7.679-7.559-7.154-13.116.393-4.662,5.318-7.822,6.307-12.162a5.7,5.7,0,0,0,.692-.62c-.393,2.874-2.516,5.175-4.2,7.631,3.577,2.385,7.285,5,7.822,9.539,0,.382-.548.37-.6,0a8.347,8.347,0,0,0-1.407-3.72,11.1,11.1,0,0,0-.262,2.075.3.3,0,0,1-.6,0,11.326,11.326,0,0,1,.382-2.611.179.179,0,0,1,0-.083,23.477,23.477,0,0,0-5.711-4.71,16.5,16.5,0,0,0-1.025,1.848.155.155,0,0,1,.1,0,22.427,22.427,0,0,1,3.494,3.064c.262.286-.167.7-.429.429a21.2,21.2,0,0,0-3.374-2.993h0a10.135,10.135,0,0,0,1.359,9.539,15.25,15.25,0,0,1,5.878-.119.274.274,0,0,1,.3,0c.644.1,1.288.227,1.932.358.37.083.215.656-.155.572l-1.192-.238c1.765,2,4.614,2.17,7.154,2.253a.3.3,0,0,1,0,.6c-2.981-.1-6.2-.382-8.036-2.993a14.687,14.687,0,0,0-5.5,0c.238.346.513.68.787,1.014a2.6,2.6,0,0,1,.858.155.262.262,0,0,1,.131.119c2.17.286,4.686.393,6.594,1.431a29.2,29.2,0,0,1,5.27,4.268c.3.25-.131.668-.417.417-.811-.727-1.633-1.574-2.528-2.385a8.513,8.513,0,0,0,5.759,7.7C297.835,431.477,297.68,432.061,297.31,431.93Z" transform="translate(-278.028 -396.195)" fill="#f79d9c"/>
            </g>
            <rect id="Rectángulo_32457" data-name="Rectángulo 32457" width="4.447" height="10.171" transform="translate(5.977 21.295) rotate(35.99)" opacity="0.49" fill="url(#radial-gradient-3)"/>
            <rect id="Rectángulo_32458" data-name="Rectángulo 32458" width="4.447" height="10.171" transform="translate(37.696 22.439) rotate(105.92)" opacity="0.49" fill="url(#radial-gradient-4)"/>
            <rect id="Rectángulo_32459" data-name="Rectángulo 32459" width="8.966" height="20.508" transform="translate(12.363 46.769) rotate(-131.56)" opacity="0.49" fill="url(#radial-gradient-5)"/>
            <rect id="Rectángulo_32460" data-name="Rectángulo 32460" width="5.842" height="13.354" transform="translate(13.487 16.986) rotate(-131.56)" opacity="0.49" fill="url(#radial-gradient-6)"/>
          </g>
          <path id="Trazado_161727" data-name="Trazado 161727" d="M274.617,337.91s6.486,5.962,15.894,0,24.634-18.851,25.528-21.152-3.7,9.336-11.613,15.846S287.1,344.527,282.511,345.29s-11.721-2.921-11.721-2.921Z" transform="translate(-132.73 -225.851)" fill="#eabba2"/>
          <path id="Trazado_161728" data-name="Trazado 161728" d="M311.36,310.224s2.015,3.649,4.6,2.206c0,0,6.176-5.795,8.728-8.895s6.915-14.4,6.474-16.025-2.647-7-6.677-5.854a10.183,10.183,0,0,0-5.556,3.458s5.175-2.3,7.154-2.015,4.03,3.255,3.935,5.27-4.125,12.46-6.045,14.189-6.808,8.346-8.144,8.43A10.921,10.921,0,0,1,311.36,310.224Z" transform="translate(-124.927 -232.575)" fill="#fff"/>
          <circle id="Elipse_4709" data-name="Elipse 4709" cx="6.045" cy="6.045" r="6.045" transform="translate(180.388 34.641)" fill="#7e5ee3"/>
          <circle id="Elipse_4710" data-name="Elipse 4710" cx="6.045" cy="6.045" r="6.045" transform="translate(177.789 110.473)" fill="#7e5ee3"/>
          <circle id="Elipse_4711" data-name="Elipse 4711" cx="6.045" cy="6.045" r="6.045" transform="translate(179.661 211.404)" fill="#7e5ee3"/>
          <circle id="Elipse_4712" data-name="Elipse 4712" cx="6.045" cy="6.045" r="6.045" transform="translate(309.243 389.932)" fill="#7e5ee3"/>
          <circle id="Elipse_4713" data-name="Elipse 4713" cx="6.045" cy="6.045" r="6.045" transform="translate(143.616 581.635)" fill="#7e5ee3"/>
          <circle id="Elipse_4714" data-name="Elipse 4714" cx="6.045" cy="6.045" r="6.045" transform="translate(114.213 762.703)" fill="#7e5ee3"/>
          <circle id="Elipse_4715" data-name="Elipse 4715" cx="6.045" cy="6.045" r="6.045" transform="translate(142.329 741.134)" fill="#7e5ee3"/>
          <circle id="Elipse_4716" data-name="Elipse 4716" cx="6.045" cy="6.045" r="6.045" transform="translate(234.603 570.642)" fill="#7e5ee3"/>
          <circle id="Elipse_4717" data-name="Elipse 4717" cx="6.045" cy="6.045" r="6.045" transform="translate(216.945 768.748)" fill="#7e5ee3"/>
          <circle id="Elipse_4718" data-name="Elipse 4718" cx="6.045" cy="6.045" r="6.045" transform="translate(293.397 382.361)" fill="#7e5ee3"/>
          <circle id="Elipse_4719" data-name="Elipse 4719" cx="6.045" cy="6.045" r="6.045" transform="translate(184.656 410.214)" fill="#7e5ee3"/>
          <circle id="Elipse_4720" data-name="Elipse 4720" cx="6.045" cy="6.045" r="6.045" transform="translate(142.329 410.214)" fill="#7e5ee3"/>
          <circle id="Elipse_4721" data-name="Elipse 4721" cx="6.045" cy="6.045" r="6.045" transform="translate(269.121 278.008)" fill="#7e5ee3"/>
          <circle id="Elipse_4722" data-name="Elipse 4722" cx="6.045" cy="6.045" r="6.045" transform="translate(43.413 388.394)" fill="#7e5ee3"/>
          <circle id="Elipse_4723" data-name="Elipse 4723" cx="6.045" cy="6.045" r="6.045" transform="translate(54.668 383.887)" fill="#7e5ee3"/>
          <circle id="Elipse_4724" data-name="Elipse 4724" cx="6.045" cy="6.045" r="6.045" transform="translate(177.789 58.511)" fill="#7e5ee3"/>
          <circle id="Elipse_4725" data-name="Elipse 4725" cx="6.045" cy="6.045" r="6.045" transform="translate(153.537 114.956)" fill="#7e5ee3"/>
          <circle id="Elipse_4726" data-name="Elipse 4726" cx="6.045" cy="6.045" r="6.045" transform="translate(79.6 275.48)" fill="#7e5ee3"/>
        </g>
      </g>
    </g>
  </g>
</svg>
