<svg id="cf6_Recuperado__SLIDE_bio_copia_3" data-name="cf6 [Recuperado]_SLIDE bio copia 3" xmlns="http://www.w3.org/2000/svg" xmlns:xlink="http://www.w3.org/1999/xlink" width="610" height="340" viewBox="0 0 610 340">
  <defs>
    <clipPath id="clip-path">
      <rect id="Rectángulo_32686" data-name="Rectángulo 32686" width="610" height="340" fill="none"/>
    </clipPath>
    <clipPath id="clip-path-2">
      <circle id="Elipse_4898" data-name="Elipse 4898" cx="35.92" cy="35.92" r="35.92" transform="translate(260.81 50.98)" fill="none"/>
    </clipPath>
    <linearGradient id="linear-gradient" x1="0.213" y1="1.087" x2="0.846" y2="-0.143" gradientUnits="objectBoundingBox">
      <stop offset="0" stop-color="#68aaaa"/>
      <stop offset="1"/>
    </linearGradient>
    <linearGradient id="linear-gradient-2" x1="0.191" y1="1.175" x2="0.757" y2="-0.037" xlink:href="#linear-gradient"/>
  </defs>
  <g id="Capa_2" data-name="Capa 2">
    <rect id="Rectángulo_32664" data-name="Rectángulo 32664" width="610" height="340" fill="#66d7e5"/>
    <g id="Grupo_75181" data-name="Grupo 75181" clip-path="url(#clip-path)">
      <g id="Grupo_75180" data-name="Grupo 75180">
        <g id="Grupo_75169" data-name="Grupo 75169">
          <path id="Trazado_161814" data-name="Trazado 161814" d="M310.14,170.62c9.63,16.4,10.29,29.12,19.78,46.13l28.63,37.15,15.33,41.47s-29.1,60.88-90.16,70.06L205.63,294c7-16.7-4.32-43.28,11.13-48.76,33.35-11.83,55.74-46.7,71.84-58.82C301.77,176.49,310.14,170.62,310.14,170.62Z" fill="#fd9b66"/>
          <path id="Trazado_161815" data-name="Trazado 161815" d="M216.76,245.23c33.35-11.83,55.74-46.7,71.84-58.82,13.17-9.92,21.54-15.79,21.54-15.79,5.92,10.09,8.46,18.79,11.74,27.95-14,5.76-34.7,9-46.69,22.39-30.83,34.35-34.09,50.56-10.74,71.52s66.7,39.46,102.09,10.89c3-2.39,4.89-5.73,7.09-8.68l.25.68s-29.1,60.88-90.16,70.06L205.63,294C212.59,277.29,201.31,250.71,216.76,245.23Z" fill="#ffab6f"/>
          <path id="Trazado_161816" data-name="Trazado 161816" d="M237.15,238.2c15.47-10.49,35.11,5.74,41.64,35.16,6,27.19-2.49,51.77-17.24,56.28-13.38,4.09-28.48-9.65-35.18-31.57C219.23,274.68,223.29,247.59,237.15,238.2Z" fill="#ffab6f"/>
          <path id="Trazado_161817" data-name="Trazado 161817" d="M358.55,253.9l14.59,39.45c-19.44-5.18-45.17-28.3-68-48.78-16.64-4.73-33.76-22.89-37.56-37.35,8.05-8.52,15-16.26,21-20.81,13.17-9.92,21.54-15.79,21.54-15.79,9.63,16.4,10.29,29.12,19.78,46.13Z" fill="#ffab6f"/>
          <path id="Trazado_161818" data-name="Trazado 161818" d="M348.64,199.68c36.42-45.88,64.38-89.24,65.05-94.52s-24.42-23.75-27.93-22.23-67.1,73.19-79.87,89.66C300.48,195,334.91,211.59,348.64,199.68Z" fill="#ffab6f"/>
          <path id="Trazado_161819" data-name="Trazado 161819" d="M356.06,260.33c14.87-12.12,50.8-43.65,52.56-49.23,2.13-6.74-17.31-35.65-27.62-32.91-4.55,1.2-46.36,36.21-54.69,46.92C327.43,232.89,341.07,256.19,356.06,260.33Z" fill="#ffab6f"/>
          <path id="Trazado_161820" data-name="Trazado 161820" d="M223.44,263.11l85.29,92.83c-12.75,16.83-20.92,31.18-25.35,43.31H117.54C146.42,350.6,182.3,305.51,223.44,263.11Z" fill="#ffab6f"/>
          <path id="Trazado_161821" data-name="Trazado 161821" d="M308.73,355.94l-20.28,19.89c-19.32,4.4-40.07.72-55.93-11.77-27-21.24-29.66-59.94-6.11-86.75Z" fill="#fdb981"/>
          <path id="Trazado_161822" data-name="Trazado 161822" d="M272.49,319.21c13-.91,55.82,12,59.79,18.34,3.85,6.17-12.21,15.29-21.59,19.91-12.52,6.17-32.79,3-41.67-7.84C259.61,338.16,254.8,320.46,272.49,319.21Z" fill="#fdb981"/>
          <path id="Trazado_161823" data-name="Trazado 161823" d="M201.67,213.18l43.37,5.6-.6,21.91c36.9,23.21,46,102.38-2.08,104.85-17.49.9-69.59-17.13-60.37-36.25,11-22.89-.37-53.2.16-57.38C183.15,243.88,193.42,231.93,201.67,213.18Z" fill="#fdb981"/>
          <path id="Trazado_161824" data-name="Trazado 161824" d="M245,218.78s-27,10.4-37.47,16.94C188.64,247.54,187,283,204,310.18c13.38,21.42,34.27,33.63,51.8,32.09a35,35,0,0,1-13.4,3.27c-17.49.9-69.59-17.13-60.37-36.25,11-22.89-.37-53.2.16-57.38,1-8,11.27-20,19.52-38.73Z" fill="#ffab6f"/>
          <path id="Trazado_161825" data-name="Trazado 161825" d="M197.92,224.73c15.54-34.28-6.54-63.35-6.91-66.67s10.15-13.19,21.37-9.4C249,161,246.59,216,244.11,225,244.11,225,197.93,261.76,197.92,224.73Z" fill="#fdb981"/>
          <path id="Trazado_161826" data-name="Trazado 161826" d="M191,158.06a4.19,4.19,0,0,1,.92-2.48H192c19,6.83,28.88,35.66,19.41,66.55-1.69,5.49-5.92,12.35-8.36,17-3.14-2.33-7.54-5.92-7.54-13.57C211.05,191.32,191.38,161.38,191,158.06Z" fill="#ffab6f"/>
        </g>
        <path id="Trazado_161827" data-name="Trazado 161827" d="M221,273.28l.15-3.85h0l.37-9.81h0l4-103.55c19.13,16.27,20.75,48.31,19.51,62.8l-.27,10.06c9.29-7.47,17.45-16,24.67-23.67l.68-.72,1.4-1.5,3.55-3.78.38-.4.1-.1,1.21-1.27.49-.52,1.6-1.65h0c.52-.54,1-1.05,1.54-1.56l.18-.19.27-.26,1.12-1.1.45-.44,1.48-1.39h0l1.44-1.29.42-.37,1-.88.42-.34c.46-.38.92-.74,1.37-1.08h0c3.56-2.68,6.77-5.06,9.56-7.11,3-2.22,5.54-4.06,7.48-5.46.08-.41.16-.83.26-1.25,9.67-12.48,48.52-56.65,68.31-78l-.44,11.29-.55,17.3-.1-.06-1,25.82a3.12,3.12,0,0,1-2.24,2.84,3.291,3.291,0,0,1-1.07.12l-.87,22.67c-6.06,8.13-12.53,16.56-19.3,25.09-6.31,5.47-17,4.93-26.16.57a111.87,111.87,0,0,0,7.44,16.5l1.85,2.4c8.83-8.83,24.33-22.22,35.67-31.27l-2.49,65c-1.83,1.56-3.56,3-5.16,4.35l4.53,12.25-.12,3h0v.75a11.54,11.54,0,0,1-11.5,10.94h-121A10.52,10.52,0,0,1,221,273.28Z" fill="#fd9b66"/>
        <g id="Grupo_75179" data-name="Grupo 75179">
          <g id="Grupo_75174" data-name="Grupo 75174">
            <path id="Trazado_161828" data-name="Trazado 161828" d="M220.33,98.47h0a3.08,3.08,0,0,0-2.2,3V130.5a3.1,3.1,0,0,0,2.2,3h0a3.09,3.09,0,0,0,4-3V101.43a3.09,3.09,0,0,0-4-2.96Z" fill="#e1d1b2"/>
            <path id="Trazado_161829" data-name="Trazado 161829" d="M367.56,57.7h0a3.08,3.08,0,0,0-2.2,2.95V89.73a3.08,3.08,0,0,0,2.2,3h0a3.09,3.09,0,0,0,4-3V60.65a3.09,3.09,0,0,0-4-2.95Z" fill="#e1cca8"/>
            <path id="Trazado_161830" data-name="Trazado 161830" d="M220.33,57.7h0a3.08,3.08,0,0,0-2.2,2.95V89.73a3.08,3.08,0,0,0,2.2,3h0a3.09,3.09,0,0,0,4-3V60.65a3.09,3.09,0,0,0-4-2.95Z" fill="#e1d1b2"/>
            <path id="Trazado_161831" data-name="Trazado 161831" d="M357.64,22.22H232.85A11.63,11.63,0,0,0,221.42,34V268.39a11.63,11.63,0,0,0,11.43,11.81H357.64a11.62,11.62,0,0,0,11.42-11.81V34a11.62,11.62,0,0,0-11.42-11.78Z" fill="#efe6d0"/>
            <path id="Trazado_161832" data-name="Trazado 161832" d="M357.64,21.45H232.85a11.42,11.42,0,0,0-11.43,11.42v2.78c0-6.31,5.12-12.67,11.43-12.67H357.64c6.31,0,11.42,6.36,11.42,12.67V32.87a11.42,11.42,0,0,0-11.42-11.42Z" fill="#fff7e5"/>
            <path id="Trazado_161833" data-name="Trazado 161833" d="M221.42,158.92,369.06,246.1V135.09L221.42,47.91Z" fill="#f9efde"/>
            <path id="Trazado_161834" data-name="Trazado 161834" d="M369.06,73.39,221.42,111.28V236.11l147.64-37.89Z" fill="#f6eede"/>
            <path id="Trazado_161835" data-name="Trazado 161835" d="M357.64,278.28H232.85c-6.31,0-11.43-6.69-11.43-13.24v4.16a11.65,11.65,0,0,0,11.43,11.86H357.64a11.64,11.64,0,0,0,11.42-11.86V265C369.06,271.59,364,278.28,357.64,278.28Z" fill="#e1d1b2"/>
            <rect id="Rectángulo_32665" data-name="Rectángulo 32665" width="138.79" height="226.1" rx="4.53" transform="translate(225.85 33.95)" fill="#0081af"/>
            <path id="Trazado_161836" data-name="Trazado 161836" d="M309.53,27H281a1.67,1.67,0,1,0,0,3.34h28.57a1.67,1.67,0,1,0,0-3.34Z" fill="#6f5443"/>
            <path id="Trazado_161837" data-name="Trazado 161837" d="M279.29,28.66H311.2A1.66,1.66,0,0,0,309.53,27H281a1.66,1.66,0,0,0-1.71,1.66Z" fill="#594234"/>
            <path id="Trazado_161838" data-name="Trazado 161838" d="M358.09,36.12H232.4a4.42,4.42,0,0,0-4.4,4.44V253.45a4.42,4.42,0,0,0,4.39,4.44h125.7a4.42,4.42,0,0,0,4.39-4.44V40.56a4.42,4.42,0,0,0-4.39-4.44Z" fill="#2b9cd0"/>
            <path id="Trazado_161839" data-name="Trazado 161839" d="M358.09,47.85,232.4,104c-2.42,1.08-4.39,3.24-4.39,4.81V245.26c0,1.58,2,2,4.39.89L358.09,190c2.42-1.09,4.39-3.24,4.39-4.81V48.74C362.48,47.17,360.51,46.77,358.09,47.85Z" fill="#81d4fa"/>
            <g id="Grupo_75172" data-name="Grupo 75172">
              <g id="Grupo_75170" data-name="Grupo 75170">
                <rect id="Rectángulo_32666" data-name="Rectángulo 32666" width="3.17" height="10.9" transform="translate(232.52 40.09)" fill="#2bb2e4"/>
                <rect id="Rectángulo_32667" data-name="Rectángulo 32667" width="3.17" height="8.38" transform="translate(236.86 42.6)" fill="#2bb2e4"/>
                <rect id="Rectángulo_32668" data-name="Rectángulo 32668" width="3.17" height="5.87" transform="translate(241.2 45.12)" fill="#2bb2e4"/>
                <rect id="Rectángulo_32669" data-name="Rectángulo 32669" width="3.17" height="2.47" transform="translate(245.53 48.51)" fill="#2bb2e4"/>
              </g>
              <g id="Grupo_75171" data-name="Grupo 75171">
                <path id="Trazado_161840" data-name="Trazado 161840" d="M356.81,40.09H341.58a1.14,1.14,0,0,0-1.15,1.15v8.59A1.14,1.14,0,0,0,341.58,51h15.23A1.15,1.15,0,0,0,358,49.83V41.24a1.15,1.15,0,0,0-1.19-1.15Zm-.33,8.38a1.35,1.35,0,0,1-1.36,1.34H343.28a1.35,1.35,0,0,1-1.37-1.34V42.6a1.35,1.35,0,0,1,1.37-1.34h11.84a1.35,1.35,0,0,1,1.36,1.34Z" fill="#2bb2e4"/>
                <path id="Trazado_161841" data-name="Trazado 161841" d="M339.34,42.77h-.75c-.33,0-.6.39-.6.86v3.81c0,.47.27.86.6.86h.75Z" fill="#2bb2e4"/>
                <path id="Trazado_161842" data-name="Trazado 161842" d="M354.29,42.16H346.5v6.75h7.79a1.06,1.06,0,0,0,1.07-1.06V43.22a1.06,1.06,0,0,0-1.07-1.06Z" fill="#2bb2e4"/>
              </g>
            </g>
            <rect id="Rectángulo_32670" data-name="Rectángulo 32670" width="24.82" height="23.45" rx="3.87" transform="translate(234.4 228.67)" fill="#0081af"/>
            <rect id="Rectángulo_32671" data-name="Rectángulo 32671" width="24.82" height="23.45" rx="3.87" transform="translate(266.5 228.67)" fill="#0081af"/>
            <rect id="Rectángulo_32672" data-name="Rectángulo 32672" width="24.82" height="23.45" rx="3.87" transform="translate(298.61 228.67)" fill="#0081af"/>
            <rect id="Rectángulo_32673" data-name="Rectángulo 32673" width="24.82" height="23.45" rx="3.87" transform="translate(330.72 228.67)" fill="#0081af"/>
            <rect id="Rectángulo_32674" data-name="Rectángulo 32674" width="23.93" height="22.61" rx="3.73" transform="translate(234.84 226.77)" fill="#bdc92a"/>
            <rect id="Rectángulo_32675" data-name="Rectángulo 32675" width="23.93" height="22.61" rx="3.73" transform="translate(266.95 226.77)" fill="#ffdd6a"/>
            <rect id="Rectángulo_32676" data-name="Rectángulo 32676" width="23.93" height="22.61" rx="3.73" transform="translate(299.06 226.77)" fill="#fffae8"/>
            <rect id="Rectángulo_32677" data-name="Rectángulo 32677" width="23.93" height="22.61" rx="3.73" transform="translate(331.16 226.77)" fill="#e9baf5"/>
            <path id="Trazado_161843" data-name="Trazado 161843" d="M254.25,231.3l-1.16-1.16a1.19,1.19,0,0,0-1.69,0l-2.35,2.35a1.19,1.19,0,0,0,0,1.69l1.59,1.6-6.14,6.14-1.59-1.6a1.19,1.19,0,0,0-1.69,0l-2.35,2.35a1.2,1.2,0,0,0,0,1.7l1.15,1.16a2.9,2.9,0,0,0,4.08,0l.2-.2h0l7.95-8h0l.33-.33,1.62-1.62h0l.05-.05a2.88,2.88,0,0,0,0-4.03Z" fill="#fff7d2"/>
            <circle id="Elipse_4735" data-name="Elipse 4735" cx="9.1" cy="9.1" r="9.1" transform="translate(301.92 228.98)" fill="#1fb4ea"/>
            <g id="Grupo_75173" data-name="Grupo 75173">
              <rect id="Rectángulo_32678" data-name="Rectángulo 32678" width="1.75" height="12.75" transform="translate(339.06 230.7)" fill="#fffae8"/>
              <rect id="Rectángulo_32679" data-name="Rectángulo 32679" width="3.1" height="10.76" transform="translate(349.83 230.36) rotate(90)" fill="#fffae8"/>
              <rect id="Rectángulo_32680" data-name="Rectángulo 32680" width="1.75" height="12.75" transform="translate(348.07 230.7)" fill="#fffae8"/>
              <circle id="Elipse_4736" data-name="Elipse 4736" cx="2.19" cy="2.19" r="2.19" transform="translate(336.44 241.41)" fill="#fffae8"/>
              <circle id="Elipse_4737" data-name="Elipse 4737" cx="2.19" cy="2.19" r="2.19" transform="translate(345.44 241.41)" fill="#fffae8"/>
            </g>
            <path id="Trazado_161844" data-name="Trazado 161844" d="M290.88,230.51v-.2l-11.78,7.77L267,230.69v1l11.32,6.92.84.51.8-.53,11-7.26Z" fill="#ffb53d"/>
            <path id="Trazado_161845" data-name="Trazado 161845" d="M314.85,232.89v1.29l-.52,1.32h-3.95v5.17h1.28v-3.48h3.25v6.08h-6.48a1.24,1.24,0,0,1-1.3-1.29v-7.8a1.24,1.24,0,0,1,1.3-1.29Z" fill="#fffae8"/>
          </g>
          <g id="Grupo_75178" data-name="Grupo 75178">
            <path id="Trazado_161846" data-name="Trazado 161846" d="M267.82,185.56H252.05a3.77,3.77,0,0,1-3.76-3.76V166a3.76,3.76,0,0,1,3.76-3.76h15.77a3.76,3.76,0,0,1,3.76,3.76v15.8A3.77,3.77,0,0,1,267.82,185.56ZM252.05,163a3.08,3.08,0,0,0-3.05,3v15.8a3.07,3.07,0,0,0,3.07,3.06h15.77a3.07,3.07,0,0,0,3.07-3.06V166a3.08,3.08,0,0,0-3.07-3.07Z" fill="#fff"/>
            <path id="Trazado_161847" data-name="Trazado 161847" d="M303.13,185.56H287.36a3.77,3.77,0,0,1-3.76-3.76V166a3.76,3.76,0,0,1,3.76-3.76h15.77a3.76,3.76,0,0,1,3.76,3.76v15.8A3.77,3.77,0,0,1,303.13,185.56ZM287.36,163a3.08,3.08,0,0,0-3.07,3.07V181.8a3.07,3.07,0,0,0,3.07,3.06h15.77a3.07,3.07,0,0,0,3.07-3.06V166a3.08,3.08,0,0,0-3.07-3.07Z" fill="#fff"/>
            <path id="Trazado_161848" data-name="Trazado 161848" d="M338.44,185.56H322.67a3.76,3.76,0,0,1-3.76-3.76V166a3.76,3.76,0,0,1,3.76-3.76h15.77A3.76,3.76,0,0,1,342.2,166v15.8a3.77,3.77,0,0,1-3.76,3.76ZM322.67,163a3.08,3.08,0,0,0-3.07,3v15.8a3.07,3.07,0,0,0,3.07,3.06h15.77a3.06,3.06,0,0,0,3.06-3.06V166a3.07,3.07,0,0,0-3.06-3.07Z" fill="#fff"/>
            <g id="Grupo_75175" data-name="Grupo 75175">
              <rect id="Rectángulo_32681" data-name="Rectángulo 32681" width="6.25" height="10.87" rx="2.66" transform="translate(257.09 165.79)" fill="#fff"/>
              <path id="Trazado_161849" data-name="Trazado 161849" d="M263.92,171.12v4.12a2,2,0,0,1-2,2h-3.35a2,2,0,0,1-2-2v-4.12H256v4.12a2.54,2.54,0,0,0,2.54,2.53h3.35a2.54,2.54,0,0,0,2.54-2.53v-4.12Z" fill="#fff"/>
              <rect id="Rectángulo_32682" data-name="Rectángulo 32682" width="0.71" height="4.11" transform="translate(259.86 177.35)" fill="#fff"/>
              <rect id="Rectángulo_32683" data-name="Rectángulo 32683" width="1.57" height="17.43" transform="translate(265.563 166.5) rotate(44.99)" fill="#30acda"/>
              <rect id="Rectángulo_32684" data-name="Rectángulo 32684" width="0.71" height="17.43" transform="translate(265.824 166.821) rotate(45)" fill="#fff"/>
              <rect id="Rectángulo_32685" data-name="Rectángulo 32685" width="4.04" height="0.77" transform="translate(258.19 181.26)" fill="#fff"/>
            </g>
            <g id="Grupo_75176" data-name="Grupo 75176">
              <path id="Trazado_161850" data-name="Trazado 161850" d="M295.7,176.53c.93,0,1.68-1.15,1.68-2.52s-.75-2.49-1.68-2.53Z" fill="#fff"/>
              <path id="Trazado_161851" data-name="Trazado 161851" d="M294.9,167.56l-5.9,4.8v2.77l5.9,4.79Z" fill="#fff"/>
              <path id="Trazado_161852" data-name="Trazado 161852" d="M299.65,174c0-2.71-1.31-4.95-3.11-5.56-.1.16-.21.32-.3.48v.15c1.54.48,2.72,2.53,2.72,4.93s-1.08,4.27-2.53,4.86c.12.2.24.4.38.59C298.47,178.73,299.65,176.57,299.65,174Z" fill="#fff"/>
              <path id="Trazado_161853" data-name="Trazado 161853" d="M301.49,174c0-3.26-1.42-6-3.45-7.11-.16.17-.33.35-.48.53,1.87.94,3.24,3.55,3.24,6.58,0,2.85-1.22,5.34-2.92,6.4.16.18.32.35.49.52C300.22,179.71,301.49,177.08,301.49,174Z" fill="#fff"/>
            </g>
            <g id="Grupo_75177" data-name="Grupo 75177">
              <path id="Trazado_161854" data-name="Trazado 161854" d="M330.55,174.88h0a5.41,5.41,0,0,0-5,3.35l-1.18,2.83h12.36l-1.17-2.83a5.42,5.42,0,0,0-5.01-3.35Z" fill="#fff"/>
              <path id="Trazado_161855" data-name="Trazado 161855" d="M326.76,170.56a3.79,3.79,0,1,0,1.107-2.686,3.8,3.8,0,0,0-1.107,2.686Z" fill="#fff"/>
            </g>
          </g>
          <text id="Jefe" transform="translate(275.55 143.42)" fill="#fff" font-size="20.74" font-family="Roboto-Light, Roboto" font-weight="300"><tspan x="0" y="0">Je</tspan><tspan y="0" letter-spacing="-0.01em">f</tspan><tspan y="0">e</tspan></text>
        </g>
        <path id="Trazado_161856" data-name="Trazado 161856" d="M387.9,244c-14.21,8.36-49.6,26.37-52,30.65-2.9,5.16,4.51,34.88,12.89,36.05,3.69.52,46.69-19.08,55.07-25.58C404.48,278,398.53,252.84,387.9,244Z" fill="#fdb981"/>
        <path id="Trazado_161857" data-name="Trazado 161857" d="M385.34,173c-10.57,9.93-37.6,32-38.66,36.36-1.27,5.28,12.93,32.27,20.71,32.17,3.43,0,36.86-24.68,42.69-32C408.8,202.59,397.08,179.75,385.34,173Z" fill="#fdb981"/>
      </g>
    </g>
    <circle id="Elipse_4738" data-name="Elipse 4738" cx="35.92" cy="35.92" r="35.92" transform="translate(260.81 50.98)" fill="#b3e5fc"/>
    <g id="Grupo_75189" data-name="Grupo 75189" clip-path="url(#clip-path-2)">
      <g id="Grupo_75188" data-name="Grupo 75188">
        <path id="Trazado_161858" data-name="Trazado 161858" d="M282.91,109.41c-.18,0-6.34,26.9-6.34,26.9s-2.62,20.63-.33,25.05c1.62,3.13,39.31.06,39.31.06s1.07-8,2.66-23.77c1.4-13.86-5.87-28.24-5.87-28.24Z" fill="#8cc4c2"/>
        <path id="Trazado_161859" data-name="Trazado 161859" d="M318.59,104.37l-.29-.39-.06-.07-.37-.45-.14-.15-.26-.28-.22-.22-.21-.21-.26-.24-.21-.18-.29-.25-.21-.17-.33-.24-.21-.16-.36-.25L315,101l-.39-.25-.22-.13-.43-.24-.22-.12-.47-.24-.21-.1-.53-.25-.17-.07-.61-.26h-.06c-3.31-1.31-7.36-2.16-13.43-2.16s-10.81.92-13.85,2.34h-.51a20.5,20.5,0,0,0-2.32,1h-.16c-.31.16-.66.33-.94.5l-.12.05a19.938,19.938,0,0,0-1.66,1.11l-.12.08-.64.52-.09.07c-.23.2-.45.39-.66.59l-.05.06-.52.52a26.42,26.42,0,0,0,42.09.48h0Z" fill="#8cc4c2"/>
        <ellipse id="Elipse_4739" data-name="Elipse 4739" cx="2.85" cy="4.17" rx="2.85" ry="4.17" transform="translate(279.496 77.142) rotate(-16.26)" fill="#d78c74"/>
        <path id="Trazado_161860" data-name="Trazado 161860" d="M297.73,84.77h0c-3.33,0-6.14,2.12-6.24,4.6l-.41,10.46c-.09,2.48,2.56,4.46,5.89,4.4s6.15-2.12,6.24-4.6l.41-10.46C303.72,86.7,301.07,84.72,297.73,84.77Z" fill="#d78c74"/>
        <path id="Trazado_161861" data-name="Trazado 161861" d="M307.77,63c-.08-.31-.16-.63-.25-.94-.91-5.17-15.57-7.42-19.79-.24-1.17,2-1.81,4.79-2.48,7a48.411,48.411,0,0,0-1.73,8c-.48,4-.64,8.49,1.23,12.24,2.49,5,8.51,6,13.54,5.36a12.57,12.57,0,0,0,8.52-5c2.32-3.24,2.5-7.4,2.47-11.24A66.553,66.553,0,0,0,307.77,63Z" fill="#e5a185"/>
        <g id="Grupo_75182" data-name="Grupo 75182" opacity="0.38">
          <ellipse id="Elipse_4740" data-name="Elipse 4740" cx="5.21" cy="5.67" rx="5.21" ry="5.67" transform="translate(283.49 74.92)" fill="#e5a185"/>
          <ellipse id="Elipse_4741" data-name="Elipse 4741" cx="5.18" cy="5.64" rx="5.18" ry="5.64" transform="translate(283.52 74.95)" fill="#e5a084"/>
          <ellipse id="Elipse_4742" data-name="Elipse 4742" cx="5.14" cy="5.6" rx="5.14" ry="5.6" transform="translate(283.56 74.99)" fill="#e59f83"/>
          <ellipse id="Elipse_4743" data-name="Elipse 4743" cx="5.11" cy="5.57" rx="5.11" ry="5.57" transform="translate(283.59 75.02)" fill="#e49e83"/>
          <ellipse id="Elipse_4744" data-name="Elipse 4744" cx="5.08" cy="5.53" rx="5.08" ry="5.53" transform="translate(283.62 75.06)" fill="#e49d82"/>
          <ellipse id="Elipse_4745" data-name="Elipse 4745" cx="5.05" cy="5.5" rx="5.05" ry="5.5" transform="translate(283.65 75.09)" fill="#e49c81"/>
          <ellipse id="Elipse_4746" data-name="Elipse 4746" cx="5.01" cy="5.46" rx="5.01" ry="5.46" transform="translate(283.69 75.13)" fill="#e49b80"/>
          <ellipse id="Elipse_4747" data-name="Elipse 4747" cx="4.98" cy="5.43" rx="4.98" ry="5.43" transform="translate(283.72 75.16)" fill="#e49a80"/>
          <ellipse id="Elipse_4748" data-name="Elipse 4748" cx="4.95" cy="5.39" rx="4.95" ry="5.39" transform="translate(283.75 75.2)" fill="#e3997f"/>
          <ellipse id="Elipse_4749" data-name="Elipse 4749" cx="4.92" cy="5.35" rx="4.92" ry="5.35" transform="translate(283.78 75.24)" fill="#e3987e"/>
          <ellipse id="Elipse_4750" data-name="Elipse 4750" cx="4.88" cy="5.32" rx="4.88" ry="5.32" transform="translate(283.82 75.27)" fill="#e3977d"/>
          <ellipse id="Elipse_4751" data-name="Elipse 4751" cx="4.85" cy="5.28" rx="4.85" ry="5.28" transform="translate(283.85 75.31)" fill="#e3967c"/>
          <ellipse id="Elipse_4752" data-name="Elipse 4752" cx="4.82" cy="5.25" rx="4.82" ry="5.25" transform="translate(283.88 75.34)" fill="#e2957c"/>
          <ellipse id="Elipse_4753" data-name="Elipse 4753" cx="4.79" cy="5.21" rx="4.79" ry="5.21" transform="translate(283.91 75.38)" fill="#e2947b"/>
          <ellipse id="Elipse_4754" data-name="Elipse 4754" cx="4.75" cy="5.18" rx="4.75" ry="5.18" transform="translate(283.95 75.41)" fill="#e2937a"/>
          <ellipse id="Elipse_4755" data-name="Elipse 4755" cx="4.72" cy="5.14" rx="4.72" ry="5.14" transform="translate(283.98 75.45)" fill="#e29279"/>
          <ellipse id="Elipse_4756" data-name="Elipse 4756" cx="4.69" cy="5.11" rx="4.69" ry="5.11" transform="translate(284.01 75.48)" fill="#e29179"/>
          <ellipse id="Elipse_4757" data-name="Elipse 4757" cx="4.66" cy="5.07" rx="4.66" ry="5.07" transform="translate(284.04 75.52)" fill="#e19078"/>
          <ellipse id="Elipse_4758" data-name="Elipse 4758" cx="4.62" cy="5.04" rx="4.62" ry="5.04" transform="translate(284.08 75.55)" fill="#e18f77"/>
          <ellipse id="Elipse_4759" data-name="Elipse 4759" cx="4.59" cy="5" rx="4.59" ry="5" transform="translate(284.11 75.59)" fill="#e18e76"/>
          <ellipse id="Elipse_4760" data-name="Elipse 4760" cx="4.56" cy="4.96" rx="4.56" ry="4.96" transform="translate(284.14 75.63)" fill="#e18d75"/>
          <ellipse id="Elipse_4761" data-name="Elipse 4761" cx="4.52" cy="4.93" rx="4.52" ry="4.93" transform="translate(284.18 75.66)" fill="#e18c75"/>
          <ellipse id="Elipse_4762" data-name="Elipse 4762" cx="4.49" cy="4.89" rx="4.49" ry="4.89" transform="translate(284.21 75.7)" fill="#e08b74"/>
          <ellipse id="Elipse_4763" data-name="Elipse 4763" cx="4.46" cy="4.86" rx="4.46" ry="4.86" transform="translate(284.24 75.73)" fill="#e08a73"/>
          <ellipse id="Elipse_4764" data-name="Elipse 4764" cx="4.43" cy="4.82" rx="4.43" ry="4.82" transform="translate(284.27 75.77)" fill="#e08972"/>
          <ellipse id="Elipse_4765" data-name="Elipse 4765" cx="4.39" cy="4.79" rx="4.39" ry="4.79" transform="translate(284.31 75.8)" fill="#e08872"/>
          <ellipse id="Elipse_4766" data-name="Elipse 4766" cx="4.36" cy="4.75" rx="4.36" ry="4.75" transform="translate(284.34 75.84)" fill="#df8771"/>
          <ellipse id="Elipse_4767" data-name="Elipse 4767" cx="4.33" cy="4.72" rx="4.33" ry="4.72" transform="translate(284.37 75.87)" fill="#df8670"/>
          <ellipse id="Elipse_4768" data-name="Elipse 4768" cx="4.3" cy="4.68" rx="4.3" ry="4.68" transform="translate(284.4 75.91)" fill="#df856f"/>
          <ellipse id="Elipse_4769" data-name="Elipse 4769" cx="4.26" cy="4.65" rx="4.26" ry="4.65" transform="translate(284.44 75.94)" fill="#df846f"/>
          <ellipse id="Elipse_4770" data-name="Elipse 4770" cx="4.23" cy="4.61" rx="4.23" ry="4.61" transform="translate(284.47 75.98)" fill="#df836e"/>
          <ellipse id="Elipse_4771" data-name="Elipse 4771" cx="4.2" cy="4.57" rx="4.2" ry="4.57" transform="translate(284.5 76.02)" fill="#de826d"/>
          <ellipse id="Elipse_4772" data-name="Elipse 4772" cx="4.17" cy="4.54" rx="4.17" ry="4.54" transform="translate(284.53 76.05)" fill="#de816c"/>
          <ellipse id="Elipse_4773" data-name="Elipse 4773" cx="4.13" cy="4.5" rx="4.13" ry="4.5" transform="translate(284.57 76.09)" fill="#de806b"/>
          <ellipse id="Elipse_4774" data-name="Elipse 4774" cx="4.1" cy="4.47" rx="4.1" ry="4.47" transform="translate(284.6 76.12)" fill="#de7f6b"/>
          <ellipse id="Elipse_4775" data-name="Elipse 4775" cx="4.07" cy="4.43" rx="4.07" ry="4.43" transform="translate(284.63 76.16)" fill="#de7e6a"/>
          <ellipse id="Elipse_4776" data-name="Elipse 4776" cx="4.04" cy="4.4" rx="4.04" ry="4.4" transform="translate(284.66 76.19)" fill="#dd7d69"/>
          <ellipse id="Elipse_4777" data-name="Elipse 4777" cx="4" cy="4.36" rx="4" ry="4.36" transform="translate(284.7 76.23)" fill="#dd7c68"/>
          <ellipse id="Elipse_4778" data-name="Elipse 4778" cx="3.97" cy="4.33" rx="3.97" ry="4.33" transform="translate(284.73 76.26)" fill="#dd7b68"/>
          <ellipse id="Elipse_4779" data-name="Elipse 4779" cx="3.94" cy="4.29" rx="3.94" ry="4.29" transform="translate(284.76 76.3)" fill="#dd7a67"/>
          <ellipse id="Elipse_4780" data-name="Elipse 4780" cx="3.91" cy="4.25" rx="3.91" ry="4.25" transform="translate(284.79 76.34)" fill="#dd7a66"/>
          <ellipse id="Elipse_4781" data-name="Elipse 4781" cx="3.87" cy="4.22" rx="3.87" ry="4.22" transform="translate(284.83 76.37)" fill="#dc7965"/>
          <ellipse id="Elipse_4782" data-name="Elipse 4782" cx="3.84" cy="4.18" rx="3.84" ry="4.18" transform="translate(284.86 76.41)" fill="#dc7864"/>
          <ellipse id="Elipse_4783" data-name="Elipse 4783" cx="3.81" cy="4.15" rx="3.81" ry="4.15" transform="translate(284.89 76.44)" fill="#dc7764"/>
          <ellipse id="Elipse_4784" data-name="Elipse 4784" cx="3.78" cy="4.11" rx="3.78" ry="4.11" transform="translate(284.92 76.48)" fill="#dc7663"/>
          <ellipse id="Elipse_4785" data-name="Elipse 4785" cx="3.74" cy="4.08" rx="3.74" ry="4.08" transform="translate(284.96 76.51)" fill="#db7562"/>
          <ellipse id="Elipse_4786" data-name="Elipse 4786" cx="3.71" cy="4.04" rx="3.71" ry="4.04" transform="translate(284.99 76.55)" fill="#db7461"/>
          <ellipse id="Elipse_4787" data-name="Elipse 4787" cx="3.68" cy="4.01" rx="3.68" ry="4.01" transform="translate(285.02 76.58)" fill="#db7361"/>
          <ellipse id="Elipse_4788" data-name="Elipse 4788" cx="3.65" cy="3.97" rx="3.65" ry="3.97" transform="translate(285.05 76.62)" fill="#db7260"/>
          <ellipse id="Elipse_4789" data-name="Elipse 4789" cx="3.61" cy="3.94" rx="3.61" ry="3.94" transform="translate(285.09 76.65)" fill="#db715f"/>
          <ellipse id="Elipse_4790" data-name="Elipse 4790" cx="3.58" cy="3.9" rx="3.58" ry="3.9" transform="translate(285.12 76.69)" fill="#da705e"/>
          <ellipse id="Elipse_4791" data-name="Elipse 4791" cx="3.55" cy="3.86" rx="3.55" ry="3.86" transform="translate(285.15 76.73)" fill="#da6f5d"/>
          <ellipse id="Elipse_4792" data-name="Elipse 4792" cx="3.52" cy="3.83" rx="3.52" ry="3.83" transform="translate(285.18 76.76)" fill="#da6e5d"/>
          <ellipse id="Elipse_4793" data-name="Elipse 4793" cx="3.48" cy="3.79" rx="3.48" ry="3.79" transform="translate(285.22 76.8)" fill="#da6d5c"/>
          <ellipse id="Elipse_4794" data-name="Elipse 4794" cx="3.45" cy="3.76" rx="3.45" ry="3.76" transform="translate(285.25 76.83)" fill="#da6c5b"/>
          <ellipse id="Elipse_4795" data-name="Elipse 4795" cx="3.42" cy="3.72" rx="3.42" ry="3.72" transform="translate(285.28 76.87)" fill="#d96b5a"/>
          <ellipse id="Elipse_4796" data-name="Elipse 4796" cx="3.39" cy="3.69" rx="3.39" ry="3.69" transform="translate(285.31 76.9)" fill="#d96a5a"/>
          <ellipse id="Elipse_4797" data-name="Elipse 4797" cx="3.35" cy="3.65" rx="3.35" ry="3.65" transform="translate(285.35 76.94)" fill="#d96959"/>
          <ellipse id="Elipse_4798" data-name="Elipse 4798" cx="3.32" cy="3.62" rx="3.32" ry="3.62" transform="translate(285.38 76.97)" fill="#d96858"/>
          <ellipse id="Elipse_4799" data-name="Elipse 4799" cx="3.29" cy="3.58" rx="3.29" ry="3.58" transform="translate(285.41 77.01)" fill="#d86757"/>
          <ellipse id="Elipse_4800" data-name="Elipse 4800" cx="3.26" cy="3.55" rx="3.26" ry="3.55" transform="translate(285.44 77.04)" fill="#d86657"/>
          <ellipse id="Elipse_4801" data-name="Elipse 4801" cx="3.22" cy="3.51" rx="3.22" ry="3.51" transform="translate(285.48 77.08)" fill="#d86556"/>
          <ellipse id="Elipse_4802" data-name="Elipse 4802" cx="3.19" cy="3.47" rx="3.19" ry="3.47" transform="translate(285.51 77.12)" fill="#d86455"/>
          <ellipse id="Elipse_4803" data-name="Elipse 4803" cx="3.16" cy="3.44" rx="3.16" ry="3.44" transform="translate(285.54 77.15)" fill="#d86354"/>
          <ellipse id="Elipse_4804" data-name="Elipse 4804" cx="3.13" cy="3.4" rx="3.13" ry="3.4" transform="translate(285.57 77.19)" fill="#d76253"/>
          <ellipse id="Elipse_4805" data-name="Elipse 4805" cx="3.09" cy="3.37" rx="3.09" ry="3.37" transform="translate(285.61 77.22)" fill="#d76153"/>
          <ellipse id="Elipse_4806" data-name="Elipse 4806" cx="3.06" cy="3.33" rx="3.06" ry="3.33" transform="translate(285.64 77.26)" fill="#d76052"/>
          <ellipse id="Elipse_4807" data-name="Elipse 4807" cx="3.03" cy="3.3" rx="3.03" ry="3.3" transform="translate(285.67 77.29)" fill="#d75f51"/>
          <ellipse id="Elipse_4808" data-name="Elipse 4808" cx="2.99" cy="3.26" rx="2.99" ry="3.26" transform="translate(285.71 77.33)" fill="#d75e50"/>
          <ellipse id="Elipse_4809" data-name="Elipse 4809" cx="2.96" cy="3.23" rx="2.96" ry="3.23" transform="translate(285.74 77.36)" fill="#d65d50"/>
          <ellipse id="Elipse_4810" data-name="Elipse 4810" cx="2.93" cy="3.19" rx="2.93" ry="3.19" transform="translate(285.77 77.4)" fill="#d65c4f"/>
          <ellipse id="Elipse_4811" data-name="Elipse 4811" cx="2.9" cy="3.16" rx="2.9" ry="3.16" transform="translate(285.8 77.43)" fill="#d65b4e"/>
          <ellipse id="Elipse_4812" data-name="Elipse 4812" cx="2.86" cy="3.12" rx="2.86" ry="3.12" transform="translate(285.84 77.47)" fill="#d65a4d"/>
          <ellipse id="Elipse_4813" data-name="Elipse 4813" cx="2.83" cy="3.08" rx="2.83" ry="3.08" transform="translate(285.87 77.51)" fill="#d5594c"/>
          <path id="Trazado_161862" data-name="Trazado 161862" d="M288.7,77.54a3.06,3.06,0,1,0,2.8,3,2.93,2.93,0,0,0-2.8-3Z" fill="#d5584c"/>
          <path id="Trazado_161863" data-name="Trazado 161863" d="M288.7,77.57a3,3,0,1,0,2.77,3,2.9,2.9,0,0,0-2.77-3Z" fill="#d5574b"/>
          <path id="Trazado_161864" data-name="Trazado 161864" d="M288.7,77.61a3,3,0,1,0,2.74,3,2.86,2.86,0,0,0-2.74-3Z" fill="#d5564a"/>
          <path id="Trazado_161865" data-name="Trazado 161865" d="M288.7,77.64a3,3,0,1,0,2.71,3,2.83,2.83,0,0,0-2.71-3Z" fill="#d55549"/>
          <path id="Trazado_161866" data-name="Trazado 161866" d="M288.7,77.68a2.92,2.92,0,1,0,2.67,2.91A2.8,2.8,0,0,0,288.7,77.68Z" fill="#d45449"/>
          <path id="Trazado_161867" data-name="Trazado 161867" d="M288.7,77.71a2.89,2.89,0,1,0,2.64,2.88,2.77,2.77,0,0,0-2.64-2.88Z" fill="#d45348"/>
          <path id="Trazado_161868" data-name="Trazado 161868" d="M288.7,77.75a2.84,2.84,0,1,0,2.61,2.84,2.72,2.72,0,0,0-2.61-2.84Z" fill="#d45247"/>
        </g>
        <g id="Grupo_75183" data-name="Grupo 75183" opacity="0.38">
          <ellipse id="Elipse_4814" data-name="Elipse 4814" cx="5.4" cy="5.67" rx="5.4" ry="5.67" transform="translate(297.13 74.92)" fill="#e5a185"/>
          <ellipse id="Elipse_4815" data-name="Elipse 4815" cx="5.37" cy="5.64" rx="5.37" ry="5.64" transform="translate(297.16 74.95)" fill="#e5a084"/>
          <ellipse id="Elipse_4816" data-name="Elipse 4816" cx="5.33" cy="5.6" rx="5.33" ry="5.6" transform="translate(297.2 74.99)" fill="#e59f83"/>
          <ellipse id="Elipse_4817" data-name="Elipse 4817" cx="5.3" cy="5.57" rx="5.3" ry="5.57" transform="translate(297.23 75.02)" fill="#e49e83"/>
          <ellipse id="Elipse_4818" data-name="Elipse 4818" cx="5.27" cy="5.53" rx="5.27" ry="5.53" transform="translate(297.26 75.06)" fill="#e49d82"/>
          <ellipse id="Elipse_4819" data-name="Elipse 4819" cx="5.23" cy="5.5" rx="5.23" ry="5.5" transform="translate(297.3 75.09)" fill="#e49c81"/>
          <ellipse id="Elipse_4820" data-name="Elipse 4820" cx="5.2" cy="5.46" rx="5.2" ry="5.46" transform="translate(297.33 75.13)" fill="#e49b80"/>
          <ellipse id="Elipse_4821" data-name="Elipse 4821" cx="5.17" cy="5.43" rx="5.17" ry="5.43" transform="translate(297.36 75.16)" fill="#e49a80"/>
          <ellipse id="Elipse_4822" data-name="Elipse 4822" cx="5.13" cy="5.39" rx="5.13" ry="5.39" transform="translate(297.4 75.2)" fill="#e3997f"/>
          <ellipse id="Elipse_4823" data-name="Elipse 4823" cx="5.1" cy="5.35" rx="5.1" ry="5.35" transform="translate(297.43 75.24)" fill="#e3987e"/>
          <ellipse id="Elipse_4824" data-name="Elipse 4824" cx="5.06" cy="5.32" rx="5.06" ry="5.32" transform="translate(297.47 75.27)" fill="#e3977d"/>
          <ellipse id="Elipse_4825" data-name="Elipse 4825" cx="5.03" cy="5.28" rx="5.03" ry="5.28" transform="translate(297.5 75.31)" fill="#e3967c"/>
          <ellipse id="Elipse_4826" data-name="Elipse 4826" cx="5" cy="5.25" rx="5" ry="5.25" transform="translate(297.53 75.34)" fill="#e2957c"/>
          <ellipse id="Elipse_4827" data-name="Elipse 4827" cx="4.96" cy="5.21" rx="4.96" ry="5.21" transform="translate(297.57 75.38)" fill="#e2947b"/>
          <ellipse id="Elipse_4828" data-name="Elipse 4828" cx="4.93" cy="5.18" rx="4.93" ry="5.18" transform="translate(297.6 75.41)" fill="#e2937a"/>
          <ellipse id="Elipse_4829" data-name="Elipse 4829" cx="4.9" cy="5.14" rx="4.9" ry="5.14" transform="translate(297.63 75.45)" fill="#e29279"/>
          <ellipse id="Elipse_4830" data-name="Elipse 4830" cx="4.86" cy="5.11" rx="4.86" ry="5.11" transform="translate(297.67 75.48)" fill="#e29179"/>
          <ellipse id="Elipse_4831" data-name="Elipse 4831" cx="4.83" cy="5.07" rx="4.83" ry="5.07" transform="translate(297.7 75.52)" fill="#e19078"/>
          <ellipse id="Elipse_4832" data-name="Elipse 4832" cx="4.79" cy="5.04" rx="4.79" ry="5.04" transform="translate(297.74 75.55)" fill="#e18f77"/>
          <ellipse id="Elipse_4833" data-name="Elipse 4833" cx="4.76" cy="5" rx="4.76" ry="5" transform="translate(297.77 75.59)" fill="#e18e76"/>
          <ellipse id="Elipse_4834" data-name="Elipse 4834" cx="4.73" cy="4.96" rx="4.73" ry="4.96" transform="translate(297.8 75.63)" fill="#e18d75"/>
          <ellipse id="Elipse_4835" data-name="Elipse 4835" cx="4.69" cy="4.93" rx="4.69" ry="4.93" transform="translate(297.84 75.66)" fill="#e18c75"/>
          <ellipse id="Elipse_4836" data-name="Elipse 4836" cx="4.66" cy="4.89" rx="4.66" ry="4.89" transform="translate(297.87 75.7)" fill="#e08b74"/>
          <ellipse id="Elipse_4837" data-name="Elipse 4837" cx="4.63" cy="4.86" rx="4.63" ry="4.86" transform="translate(297.9 75.73)" fill="#e08a73"/>
          <ellipse id="Elipse_4838" data-name="Elipse 4838" cx="4.59" cy="4.82" rx="4.59" ry="4.82" transform="translate(297.94 75.77)" fill="#e08972"/>
          <ellipse id="Elipse_4839" data-name="Elipse 4839" cx="4.56" cy="4.79" rx="4.56" ry="4.79" transform="translate(297.97 75.8)" fill="#e08872"/>
          <ellipse id="Elipse_4840" data-name="Elipse 4840" cx="4.52" cy="4.75" rx="4.52" ry="4.75" transform="translate(298.01 75.84)" fill="#df8771"/>
          <ellipse id="Elipse_4841" data-name="Elipse 4841" cx="4.49" cy="4.72" rx="4.49" ry="4.72" transform="translate(298.04 75.87)" fill="#df8670"/>
          <ellipse id="Elipse_4842" data-name="Elipse 4842" cx="4.46" cy="4.68" rx="4.46" ry="4.68" transform="translate(298.07 75.91)" fill="#df856f"/>
          <ellipse id="Elipse_4843" data-name="Elipse 4843" cx="4.42" cy="4.65" rx="4.42" ry="4.65" transform="translate(298.11 75.94)" fill="#df846f"/>
          <ellipse id="Elipse_4844" data-name="Elipse 4844" cx="4.39" cy="4.61" rx="4.39" ry="4.61" transform="translate(298.14 75.98)" fill="#df836e"/>
          <ellipse id="Elipse_4845" data-name="Elipse 4845" cx="4.36" cy="4.57" rx="4.36" ry="4.57" transform="translate(298.17 76.02)" fill="#de826d"/>
          <ellipse id="Elipse_4846" data-name="Elipse 4846" cx="4.32" cy="4.54" rx="4.32" ry="4.54" transform="translate(298.21 76.05)" fill="#de816c"/>
          <ellipse id="Elipse_4847" data-name="Elipse 4847" cx="4.29" cy="4.5" rx="4.29" ry="4.5" transform="translate(298.24 76.09)" fill="#de806b"/>
          <ellipse id="Elipse_4848" data-name="Elipse 4848" cx="4.25" cy="4.47" rx="4.25" ry="4.47" transform="translate(298.28 76.12)" fill="#de7f6b"/>
          <ellipse id="Elipse_4849" data-name="Elipse 4849" cx="4.22" cy="4.43" rx="4.22" ry="4.43" transform="translate(298.31 76.16)" fill="#de7e6a"/>
          <ellipse id="Elipse_4850" data-name="Elipse 4850" cx="4.19" cy="4.4" rx="4.19" ry="4.4" transform="translate(298.34 76.19)" fill="#dd7d69"/>
          <ellipse id="Elipse_4851" data-name="Elipse 4851" cx="4.15" cy="4.36" rx="4.15" ry="4.36" transform="translate(298.38 76.23)" fill="#dd7c68"/>
          <ellipse id="Elipse_4852" data-name="Elipse 4852" cx="4.12" cy="4.33" rx="4.12" ry="4.33" transform="translate(298.41 76.26)" fill="#dd7b68"/>
          <ellipse id="Elipse_4853" data-name="Elipse 4853" cx="4.09" cy="4.29" rx="4.09" ry="4.29" transform="translate(298.44 76.3)" fill="#dd7a67"/>
          <ellipse id="Elipse_4854" data-name="Elipse 4854" cx="4.05" cy="4.25" rx="4.05" ry="4.25" transform="translate(298.48 76.34)" fill="#dd7a66"/>
          <ellipse id="Elipse_4855" data-name="Elipse 4855" cx="4.02" cy="4.22" rx="4.02" ry="4.22" transform="translate(298.51 76.37)" fill="#dc7965"/>
          <ellipse id="Elipse_4856" data-name="Elipse 4856" cx="3.98" cy="4.18" rx="3.98" ry="4.18" transform="translate(298.55 76.41)" fill="#dc7864"/>
          <ellipse id="Elipse_4857" data-name="Elipse 4857" cx="3.95" cy="4.15" rx="3.95" ry="4.15" transform="translate(298.58 76.44)" fill="#dc7764"/>
          <ellipse id="Elipse_4858" data-name="Elipse 4858" cx="3.92" cy="4.11" rx="3.92" ry="4.11" transform="translate(298.61 76.48)" fill="#dc7663"/>
          <ellipse id="Elipse_4859" data-name="Elipse 4859" cx="3.88" cy="4.08" rx="3.88" ry="4.08" transform="translate(298.65 76.51)" fill="#db7562"/>
          <ellipse id="Elipse_4860" data-name="Elipse 4860" cx="3.85" cy="4.04" rx="3.85" ry="4.04" transform="translate(298.68 76.55)" fill="#db7461"/>
          <ellipse id="Elipse_4861" data-name="Elipse 4861" cx="3.82" cy="4.01" rx="3.82" ry="4.01" transform="translate(298.71 76.58)" fill="#db7361"/>
          <ellipse id="Elipse_4862" data-name="Elipse 4862" cx="3.78" cy="3.97" rx="3.78" ry="3.97" transform="translate(298.75 76.62)" fill="#db7260"/>
          <ellipse id="Elipse_4863" data-name="Elipse 4863" cx="3.75" cy="3.94" rx="3.75" ry="3.94" transform="translate(298.78 76.65)" fill="#db715f"/>
          <ellipse id="Elipse_4864" data-name="Elipse 4864" cx="3.71" cy="3.9" rx="3.71" ry="3.9" transform="translate(298.82 76.69)" fill="#da705e"/>
          <ellipse id="Elipse_4865" data-name="Elipse 4865" cx="3.68" cy="3.86" rx="3.68" ry="3.86" transform="translate(298.85 76.73)" fill="#da6f5d"/>
          <ellipse id="Elipse_4866" data-name="Elipse 4866" cx="3.65" cy="3.83" rx="3.65" ry="3.83" transform="translate(298.88 76.76)" fill="#da6e5d"/>
          <ellipse id="Elipse_4867" data-name="Elipse 4867" cx="3.61" cy="3.79" rx="3.61" ry="3.79" transform="translate(298.92 76.8)" fill="#da6d5c"/>
          <ellipse id="Elipse_4868" data-name="Elipse 4868" cx="3.58" cy="3.76" rx="3.58" ry="3.76" transform="translate(298.95 76.83)" fill="#da6c5b"/>
          <ellipse id="Elipse_4869" data-name="Elipse 4869" cx="3.55" cy="3.72" rx="3.55" ry="3.72" transform="translate(298.98 76.87)" fill="#d96b5a"/>
          <ellipse id="Elipse_4870" data-name="Elipse 4870" cx="3.51" cy="3.69" rx="3.51" ry="3.69" transform="translate(299.02 76.9)" fill="#d96a5a"/>
          <ellipse id="Elipse_4871" data-name="Elipse 4871" cx="3.48" cy="3.65" rx="3.48" ry="3.65" transform="translate(299.05 76.94)" fill="#d96959"/>
          <ellipse id="Elipse_4872" data-name="Elipse 4872" cx="3.44" cy="3.62" rx="3.44" ry="3.62" transform="translate(299.09 76.97)" fill="#d96858"/>
          <ellipse id="Elipse_4873" data-name="Elipse 4873" cx="3.41" cy="3.58" rx="3.41" ry="3.58" transform="translate(299.12 77.01)" fill="#d86757"/>
          <ellipse id="Elipse_4874" data-name="Elipse 4874" cx="3.38" cy="3.55" rx="3.38" ry="3.55" transform="translate(299.15 77.04)" fill="#d86657"/>
          <ellipse id="Elipse_4875" data-name="Elipse 4875" cx="3.34" cy="3.51" rx="3.34" ry="3.51" transform="translate(299.19 77.08)" fill="#d86556"/>
          <ellipse id="Elipse_4876" data-name="Elipse 4876" cx="3.31" cy="3.47" rx="3.31" ry="3.47" transform="translate(299.22 77.12)" fill="#d86455"/>
          <ellipse id="Elipse_4877" data-name="Elipse 4877" cx="3.27" cy="3.44" rx="3.27" ry="3.44" transform="translate(299.26 77.15)" fill="#d86354"/>
          <ellipse id="Elipse_4878" data-name="Elipse 4878" cx="3.24" cy="3.4" rx="3.24" ry="3.4" transform="translate(299.29 77.19)" fill="#d76253"/>
          <ellipse id="Elipse_4879" data-name="Elipse 4879" cx="3.21" cy="3.37" rx="3.21" ry="3.37" transform="translate(299.32 77.22)" fill="#d76153"/>
          <ellipse id="Elipse_4880" data-name="Elipse 4880" cx="3.17" cy="3.33" rx="3.17" ry="3.33" transform="translate(299.36 77.26)" fill="#d76052"/>
          <ellipse id="Elipse_4881" data-name="Elipse 4881" cx="3.14" cy="3.3" rx="3.14" ry="3.3" transform="translate(299.39 77.29)" fill="#d75f51"/>
          <ellipse id="Elipse_4882" data-name="Elipse 4882" cx="3.11" cy="3.26" rx="3.11" ry="3.26" transform="translate(299.42 77.33)" fill="#d75e50"/>
          <ellipse id="Elipse_4883" data-name="Elipse 4883" cx="3.07" cy="3.23" rx="3.07" ry="3.23" transform="translate(299.46 77.36)" fill="#d65d50"/>
          <ellipse id="Elipse_4884" data-name="Elipse 4884" cx="3.04" cy="3.19" rx="3.04" ry="3.19" transform="translate(299.49 77.4)" fill="#d65c4f"/>
          <ellipse id="Elipse_4885" data-name="Elipse 4885" cx="3" cy="3.16" rx="3" ry="3.16" transform="translate(299.53 77.43)" fill="#d65b4e"/>
          <ellipse id="Elipse_4886" data-name="Elipse 4886" cx="2.97" cy="3.12" rx="2.97" ry="3.12" transform="translate(299.56 77.47)" fill="#d65a4d"/>
          <ellipse id="Elipse_4887" data-name="Elipse 4887" cx="2.94" cy="3.08" rx="2.94" ry="3.08" transform="translate(299.59 77.51)" fill="#d5594c"/>
          <ellipse id="Elipse_4888" data-name="Elipse 4888" cx="2.9" cy="3.05" rx="2.9" ry="3.05" transform="translate(299.63 77.54)" fill="#d5584c"/>
          <ellipse id="Elipse_4889" data-name="Elipse 4889" cx="2.87" cy="3.01" rx="2.87" ry="3.01" transform="translate(299.66 77.58)" fill="#d5574b"/>
          <ellipse id="Elipse_4890" data-name="Elipse 4890" cx="2.84" cy="2.98" rx="2.84" ry="2.98" transform="translate(299.69 77.61)" fill="#d5564a"/>
          <ellipse id="Elipse_4891" data-name="Elipse 4891" cx="2.8" cy="2.94" rx="2.8" ry="2.94" transform="translate(299.73 77.65)" fill="#d55549"/>
          <ellipse id="Elipse_4892" data-name="Elipse 4892" cx="2.77" cy="2.91" rx="2.77" ry="2.91" transform="translate(299.76 77.68)" fill="#d45449"/>
          <ellipse id="Elipse_4893" data-name="Elipse 4893" cx="2.73" cy="2.87" rx="2.73" ry="2.87" transform="translate(299.8 77.72)" fill="#d45348"/>
          <ellipse id="Elipse_4894" data-name="Elipse 4894" cx="2.7" cy="2.84" rx="2.7" ry="2.84" transform="translate(299.83 77.75)" fill="#d45247"/>
        </g>
        <ellipse id="Elipse_4895" data-name="Elipse 4895" cx="4.17" cy="2.85" rx="4.17" ry="2.85" transform="matrix(0.283, -0.959, 0.959, 0.283, 306.998, 82.786)" fill="#e5a185"/>
        <path id="Trazado_161869" data-name="Trazado 161869" d="M312.79,80.69a2.71,2.71,0,0,1-4.12.91A25.659,25.659,0,0,1,305.3,88c-2.26,3.24-6.55,4.73-10.37,4.69A12.49,12.49,0,0,1,284.74,88c-.31-.4-.6-.8-.88-1.19a13.358,13.358,0,0,0,.89,2.32c2.49,5,8.51,6,13.54,5.36a12.57,12.57,0,0,0,8.52-5,13.44,13.44,0,0,0,2.24-6.27,1.88,1.88,0,0,0,.59.32c1.49.52,3.26-.84,3.95-3a5.61,5.61,0,0,0,.25-2.33,11.071,11.071,0,0,1-1.05,2.48Z" fill="#d78c74"/>
        <path id="Trazado_161870" data-name="Trazado 161870" d="M309.76,79.61l1.36.18a3,3,0,0,1,1.54-2.87C310.07,76,309.76,79.61,309.76,79.61Z" fill="#d78c74"/>
        <path id="Trazado_161871" data-name="Trazado 161871" d="M295.91,83.94c-5.12.15-6.38-1-6.38-1s-1.1,4.83,5.82,4.79c6.6,0,5.87-4.59,5.82-4.86C301.18,82.93,301.12,83.79,295.91,83.94Z" fill="#6c332e"/>
        <path id="Trazado_161872" data-name="Trazado 161872" d="M301.17,82.82Z" fill="#6c332e"/>
        <path id="Trazado_161873" data-name="Trazado 161873" d="M290.66,83.51c1.65,3.29,7.51,3.1,9.19,0a22.349,22.349,0,0,1-3.94.42A15.79,15.79,0,0,1,290.66,83.51Z" fill="#fff"/>
        <path id="Trazado_161874" data-name="Trazado 161874" d="M290.66,83.51A4,4,0,0,0,292,85a10.33,10.33,0,0,1,5.91.25,4.29,4.29,0,0,0,1.91-1.76,22.349,22.349,0,0,1-3.94.42,15.79,15.79,0,0,1-5.22-.4Z" fill="#d1c5ac" opacity="0.37"/>
        <path id="Trazado_161875" data-name="Trazado 161875" d="M299.26,69.08a20.92,20.92,0,0,0-.14,6.9l6.59.22a21.839,21.839,0,0,0,1.05-5S306.39,70.14,299.26,69.08Z" fill="#d78c74"/>
        <path id="Trazado_161876" data-name="Trazado 161876" d="M303,73.46A3.94,3.94,0,0,0,299.12,76s0,2,3,2c3.47,0,3.58-1.82,3.58-1.82a2.67,2.67,0,0,0-2.7-2.72Z" fill="#fff"/>
        <path id="Trazado_161877" data-name="Trazado 161877" d="M287,71c-.72.83-.48,4.35-.48,4.35l5.91.95s.92-1.64,1.68-7.16C294.12,69.16,288.21,69.63,287,71Z" fill="#d78c74"/>
        <path id="Trazado_161878" data-name="Trazado 161878" d="M286.53,75.37s-.43,2.39,2.61,2.51,3.3-1.56,3.3-1.56S289.47,70.81,286.53,75.37Z" fill="#fff"/>
        <path id="Trazado_161879" data-name="Trazado 161879" d="M290.56,74.37c-.64-.2-1.41.46-1.73,1.47a2,2,0,0,0,.32,2,6.61,6.61,0,0,0,1.13,0,2.57,2.57,0,0,0,.85-1.27C291.45,75.55,291.19,74.57,290.56,74.37Z" fill="url(#linear-gradient)"/>
        <path id="Trazado_161880" data-name="Trazado 161880" d="M288.27,76.33V77s2.61-.32,2.43-1.14S288.27,76.33,288.27,76.33Z" fill="#fff" opacity="0.94"/>
        <path id="Trazado_161881" data-name="Trazado 161881" d="M302.79,74.37c-.64-.2-1.41.46-1.73,1.47s-.08,1.91.51,2.15a4.859,4.859,0,0,0,.56,0,2.14,2.14,0,0,0,1.23-1.46C303.68,75.55,303.42,74.57,302.79,74.37Z" fill="url(#linear-gradient-2)"/>
        <path id="Trazado_161882" data-name="Trazado 161882" d="M300.87,76.33V77s1.87-.27,1.68-1.09S300.87,76.33,300.87,76.33Z" fill="#fff" opacity="0.94"/>
        <path id="Trazado_161883" data-name="Trazado 161883" d="M289.33,73.11a2.82,2.82,0,0,0-2.8,2.26s.47-1,2.55-1a4.477,4.477,0,0,1,3.36,2S292.47,73.13,289.33,73.11Z" fill="#381911"/>
        <path id="Trazado_161884" data-name="Trazado 161884" d="M287,71c1.79-.86,5.1.79,6.46-.22.52-.39.65-1.64.65-1.64C287.4,68.84,287,71,287,71Z" fill="#381911"/>
        <path id="Trazado_161885" data-name="Trazado 161885" d="M299.26,69.08s-.34,1.2.31,1.73c1.46,1.22,5.23-.5,7.19.36C306.76,71.17,307.15,68.6,299.26,69.08Z" fill="#381911"/>
        <path id="Trazado_161886" data-name="Trazado 161886" d="M302.85,73.31A3.55,3.55,0,0,0,299.12,76s.94-1.42,3.76-1.26,2.83,1.48,2.83,1.48a2.59,2.59,0,0,0-2.86-2.91Z" fill="#381911"/>
        <path id="Trazado_161887" data-name="Trazado 161887" d="M295.26,80.43a49.921,49.921,0,0,0-7.61,1.11,10.39,10.39,0,0,0,7.7,2.76c6-.24,8.16-2.6,8.16-2.6a20.1,20.1,0,0,0-8.25-1.27Z" fill="#4c2f29"/>
        <path id="Trazado_161888" data-name="Trazado 161888" d="M308.7,119.67l1.22,7.5L325.61,134a50.379,50.379,0,0,0,.49-14.37Z" fill="#d78c74"/>
        <path id="Trazado_161889" data-name="Trazado 161889" d="M266.56,133.61,277.82,131l4.05-11.29H268.19a51,51,0,0,0-1.63,13.9Z" fill="#d78c74"/>
        <path id="Trazado_161890" data-name="Trazado 161890" d="M268.37,122.37c.34.08,11.08,2.18,12.7,2.21l8.67-26.81C275.87,98.24,270.45,110.18,268.37,122.37Z" fill="#8cc4c2"/>
        <path id="Trazado_161891" data-name="Trazado 161891" d="M280.96,121.27l10.01.39V118.9l-9.97-.12Z" fill="#9dd6d2"/>
        <path id="Trazado_161892" data-name="Trazado 161892" d="M301.47,121.64l10.01.39v-2.76l-9.97-.12Z" fill="#9dd6d2"/>
        <path id="Trazado_161893" data-name="Trazado 161893" d="M274.31,165.24h11.45l-11.3-1.91C274.43,163.79,274.38,164.44,274.31,165.24Z" fill="#3b3a40"/>
        <path id="Trazado_161894" data-name="Trazado 161894" d="M305.23,165.24h11.15c.06-1,.11-1.84.17-2.67Z" fill="#3b3a40"/>
        <path id="Trazado_161895" data-name="Trazado 161895" d="M316.21,155.3a189.844,189.844,0,0,1-20.8.71c-12.53-.16-18.58-.6-20.16-.74a.43.43,0,0,0-.46.4q-.23,5.76-.42,9.57h42c.2-2.34.37-5.3.52-9.34a.59.59,0,0,0-.68-.6Z" fill="#3b3a40"/>
        <path id="Trazado_161896" data-name="Trazado 161896" d="M283.25,163.94l2.49.13.47-6.89-2.49-.13Z" fill="#3b3a40"/>
        <path id="Trazado_161897" data-name="Trazado 161897" d="M303.91,163.94l2.49.13.47-6.89-2.49-.13Z" fill="#3b3a40"/>
        <path id="Trazado_161898" data-name="Trazado 161898" d="M290.33,127.66a.84.84,0,1,0,.834.373A.84.84,0,0,0,290.33,127.66Z" fill="#b0b5c1"/>
        <ellipse id="Elipse_4896" data-name="Elipse 4896" cx="0.87" cy="0.74" rx="0.87" ry="0.74" transform="translate(290.46 124.31)" fill="#b0b5c1"/>
        <ellipse id="Elipse_4897" data-name="Elipse 4897" cx="0.87" cy="0.74" rx="0.87" ry="0.74" transform="translate(289.49 135.55)" fill="#b0b5c1"/>
        <path id="Trazado_161899" data-name="Trazado 161899" d="M304.09,96.89s-2.42,2.77-7.51,3-5.88-3-5.88-3-2.06.24-2.63,3.86,5,7,5,7,1-5.19,3.3-5.27,3.18,5.77,3.18,5.77,6-4.27,6.39-6.76S304.09,96.89,304.09,96.89Z" fill="#1b3951" opacity="0.08"/>
        <path id="Trazado_161900" data-name="Trazado 161900" d="M297.6,105l-1.34.77-1.24-.81c.09-.68-8.18,32.69-7.95,39.74.15,4.88,7,8.32,7,8.32s5.71-3.23,6.47-8.1C301.68,137.86,297.59,104.28,297.6,105Z" fill="#3b3a40"/>
        <path id="Trazado_161901" data-name="Trazado 161901" d="M318.22,130.46a15.84,15.84,0,0,0-4.54-.44c-.69.15-3.86.38-10.25-.3-4.85-.52-9.32-2.51-12.5-3.48s-4.29-2.09-7.19-2a7.89,7.89,0,0,0-4.75,1.74c-1.3,5.59-2.42,10.48-2.42,10.48h0c-.09.74-.51,4.28-.84,8.5,1.85.16,4.06.36,5.18.31,6.09-.26,14.58-5.18,14.58-5.18s1.46.65,2,.94c5.54,2.79,14.23,4.49,19.88,4.58.26-2.39.53-5,.83-8a39.26,39.26,0,0,0,0-6.94,1.659,1.659,0,0,0,.02-.21Z" opacity="0.11"/>
        <path id="Trazado_161902" data-name="Trazado 161902" d="M311.47,113.19c-.41.22-1.32.92-2.11,1.4s-1.39.53-1.66,1.29a26.476,26.476,0,0,1-1.74,3s4.53-1.86,5.8-3.38S311.88,113,311.47,113.19Z" fill="#d78c74"/>
        <path id="Trazado_161903" data-name="Trazado 161903" d="M289.55,126.85c-.86-8.68-1.85-17.95-1.52-23.79.17-3,1-5.51,1.71-5.71-13.87.46-24.23,12.66-24.23,36.69l9.79,1.85s-1.5,14.76-3,29.35H288a2.526,2.526,0,0,1,.08-.77C289.5,149.79,290.73,138.83,289.55,126.85Z" fill="#fff"/>
        <path id="Trazado_161904" data-name="Trazado 161904" d="M319.24,137c.42-4.1,5-2.93,6.37-3a62.862,62.862,0,0,0,1-7.83c-.08-2.18.1-4.37-.14-6.55a25.46,25.46,0,0,0-2.77-9.45,23.57,23.57,0,0,0-18.6-12.55c3.19,4.48-2.74,15.71-3.27,26.14-.64,12.59-1.24,28.19-1.69,41.48h18.7C318.82,153.1,318.83,141.19,319.24,137Z" fill="#fff"/>
        <path id="Trazado_161905" data-name="Trazado 161905" d="M313.68,130c-.69.15-3.86.38-10.25-.3-.63-.07-1.26-.17-1.88-.28-.19,4.18-.38,8.58-.56,13a53.49,53.49,0,0,0,17.92,3.09V142.6a2.183,2.183,0,0,1,0-.25c0-.14,0-.29,0-.43V140.5h0v-1.11a1.152,1.152,0,0,0,0-.19c0-.1,0-.21,0-.31v-.66a2.837,2.837,0,0,1,0-.29.761.761,0,0,1,0-.15v-.76l.06-.4v-.07a.521.521,0,0,1,.07-.3v-.05a2.47,2.47,0,0,1,.1-.29h0a2.539,2.539,0,0,1,.13-.29c-.4-1.74-1.27-3.45-1.42-5.16a15.84,15.84,0,0,0-4.17-.47Z" fill="#b8ddda" opacity="0.5"/>
        <path id="Trazado_161906" data-name="Trazado 161906" d="M289.44,125.73c-2.12-.81-3.3-1.58-5.7-1.54a7.89,7.89,0,0,0-4.75,1.74c-1.3,5.59-2.42,10.48-2.42,10.48A15,15,0,0,0,275,139v.14c-.09.86-.19,1.88-.31,3l-.27,2.71c2,.16,5.08.48,6.49.42a28,28,0,0,0,9-2.44,110.321,110.321,0,0,0-.33-16C289.51,126.48,289.48,126.1,289.44,125.73Z" fill="#b8ddda" opacity="0.5"/>
        <path id="Trazado_161907" data-name="Trazado 161907" d="M276.2,125c-2.24-.53-6.22-1.34-8.7,3.39-1.6,3.05-2,3-2,5.66,0,5.09,12.48,6.35,16.76,6.16,6.08-.26,18.49-5.31,18.49-5.31l1.51-3.51c-1.61-1.27-3.22-2.55-4.77-3.89C294.13,127.89,278.38,125.5,276.2,125Z" fill="#fff"/>
        <path id="Trazado_161908" data-name="Trazado 161908" d="M285.66,107.58l-3.71-.83a21.75,21.75,0,0,1,5.68-9.26,9.686,9.686,0,0,0-1.41.17A21.73,21.73,0,0,0,281,107l-.11.43,2.88.64-1.34,1.15,5.21,19.58.85-.23-5.06-19Z" fill="#b8ddda" opacity="0.5"/>
        <path id="Trazado_161909" data-name="Trazado 161909" d="M312.43,105.88a11.78,11.78,0,0,0-3.62-7.6c-.73-.2-1.37-.34-1.92-.44a11.16,11.16,0,0,1,4.62,7.7l-4.66.68,3.54,1.66c-1.11,2.22-6.22,12.66-6.42,17.15h.88c.21-4.75,6.46-17.08,6.53-17.2l.2-.41-1.7-.79,2.58-.38Z" fill="#b8ddda" opacity="0.5"/>
        <g id="Grupo_75184" data-name="Grupo 75184" opacity="0.56">
          <path id="Trazado_161910" data-name="Trazado 161910" d="M279.13,116.5a.43.43,0,0,0-.5.37c-.31,2.12-.73,6.43-.86,7.83a.45.45,0,0,0,.4.48h0a.44.44,0,0,0,.48-.4c.13-1.38.54-5.71.85-7.78a.45.45,0,0,0-.37-.5Z" fill="#b8ddda" opacity="0.5"/>
        </g>
        <g id="Grupo_75185" data-name="Grupo 75185" opacity="0.58">
          <path id="Trazado_161911" data-name="Trazado 161911" d="M273.73,123.27a.43.43,0,0,0-.48.36h0a.47.47,0,0,0,.39.52,12.453,12.453,0,0,1,1.43.32,26.071,26.071,0,0,0-4.21.85.46.46,0,0,0-.31.58.42.42,0,0,0,.51.28,21.27,21.27,0,0,1,6.34-.91l2.37.13-2.17-1a17,17,0,0,0-3.87-1.13Z" fill="#b8ddda" opacity="0.5"/>
        </g>
        <path id="Trazado_161912" data-name="Trazado 161912" d="M317.22,124.93c1.48.06,2.71.2,3.34.28a.47.47,0,0,0,.53-.4h0a.39.39,0,0,0-.33-.45,39.7,39.7,0,0,0-6.63-.3l-3.15.16,3.08.71c.05,0,4.85,1.13,6.81,2.78a.47.47,0,0,0,.63,0,.41.41,0,0,0,0-.61,14.15,14.15,0,0,0-4.28-2.17Z" fill="#b8ddda" opacity="0.5"/>
        <path id="Trazado_161913" data-name="Trazado 161913" d="M323.24,118.84a.73.73,0,0,0,.35-.68c0-.51-.59-.89-1.42-1.19s-1.54-.57-1.54-.57c.81-.54.44-1.39.13-1.44s-1.49-.52-2.16-.69a32.569,32.569,0,0,0-4.9-.22c-.82.06-1.92.72-3.95,1.71a17.4,17.4,0,0,0-5.28,4c-.86,1.15-2.64,4-3.91,4.8-1.1.72,0,2.29-2.82,2.87h-.24c1.55,1.34,3.16,2.62,4.77,3.89l8.83-5.94c1.66.24,4.6-2.11,5.27-2.38,1.22-.5,3-.48,4.3-.81a1.46,1.46,0,0,0,1.14-1.32c1.07-.08,1.87-.58,1.9-1.21A.94.94,0,0,0,323.24,118.84Z" fill="#e5a185"/>
        <path id="Trazado_161914" data-name="Trazado 161914" d="M318.34,122.24a4.69,4.69,0,0,0-2.47.62,5,5,0,0,1-3.34.54c-1.48-.11-2.89-.35-4.38-.38-1,0-4.78-.69-3.88-3h0c-.31.48-.73,1.07-1.19,1.69a15.8,15.8,0,0,1-2.14,2.53h0c-.94.94-.41,2.57-3.19,3.15h-.23c1.55,1.34,3.16,2.62,4.77,3.89l8.83-5.94c1.66.24,4.6-2.11,5.27-2.38,1.22-.5,3-.48,4.3-.81a1.229,1.229,0,0,0,.23-.08h.07l.14-.08h.05l.15-.11h0l.12-.13h0l.07-.1h0a1.11,1.11,0,0,0,.13-.27h0v-.12C321.25,122.23,319.26,122.21,318.34,122.24Z" fill="#d78c74" opacity="0.36"/>
        <path id="Trazado_161915" data-name="Trazado 161915" d="M285.11,119.15a7.67,7.67,0,0,0-6.18,3.32c-.82,1.35-1.53,2.75-1.53,2.75a38.511,38.511,0,0,1,4.53,1c1.5.47,7.45,3.62,14.24,7.61V122.52c-1.42-.49-2.73-1-3.86-1.31C289.13,120.24,288,119.11,285.11,119.15Z" fill="#e5a185"/>
        <path id="Trazado_161916" data-name="Trazado 161916" d="M281.39,121.82a2.65,2.65,0,0,1,1.9-2.07,10.77,10.77,0,0,1,3.95-.38,9,9,0,0,0-2.13-.22,7.67,7.67,0,0,0-6.18,3.32c-.82,1.35-1.53,2.75-1.53,2.75a38.508,38.508,0,0,1,4.53,1c1.5.47,7.45,3.62,14.24,7.61v-5.6c-3.3-1.27-6.81-1.9-10.15-3C284.5,124.61,281.27,123.86,281.39,121.82Z" fill="#d78c74" opacity="0.22"/>
        <path id="Trazado_161917" data-name="Trazado 161917" d="M321.1,115.42c-.29.85-2.23.55-3.82.17a6.81,6.81,0,0,0-5.2,1l-.26.14a13.34,13.34,0,0,1-2.39,1c.12.36,1.56-.07,2.6-.62l.25-.14a6.35,6.35,0,0,1,4.9-1,33.8,33.8,0,0,0,4.1.65c-.39-.14-.65-.25-.65-.25a.94.94,0,0,0,.47-.95Z" fill="#d78c74" opacity="0.55"/>
        <path id="Trazado_161918" data-name="Trazado 161918" d="M323.37,127c-2.56-2-7.67-2.43-8.36-2.28s-3.66.14-10.05-.54c-4-.44-7.28-2.11-10.27-3.14-5.29,2.31-6.21,7.2-6.64,8.8,3.1,1.68,7.08,3.29,11.08,5.7,7.1,4.28,19.65,7.27,23.08,4.17C326,136.29,327.52,130.19,323.37,127Z" fill="#fff"/>
        <path id="Trazado_161919" data-name="Trazado 161919" d="M291.57,131.6l-3.49-1.6a1.848,1.848,0,0,0,0,.23,3.528,3.528,0,0,0,0,.65c1,.52,2,1,3.15,1.56,2.06,1,4.49,2.21,6.79,3.56l1.12-.42-.32-.16C296.29,133.88,293.78,132.67,291.57,131.6Z" fill="#b8ddda" opacity="0.5"/>
        <path id="Trazado_161920" data-name="Trazado 161920" d="M323.59,118.15h-.06c-.39.43-1.7.12-2.52,0a27.37,27.37,0,0,0-5.49-.15c-1.09.16-5.62,1.75-4.73,1.93.35.08,3.77-1.37,4.79-1.52a26.61,26.61,0,0,1,5.36.16,19.251,19.251,0,0,1,2.6.57.89.89,0,0,0-.24-.24h0a.74.74,0,0,0,.29-.75Z" fill="#d78c74" opacity="0.55"/>
        <path id="Trazado_161921" data-name="Trazado 161921" d="M317.22,124.93h.64a11.87,11.87,0,0,0-2.85-.23,8,8,0,0,1-1.43.08l.48.11c.05,0,4.85,1.13,6.81,2.78a.47.47,0,0,0,.63,0,.41.41,0,0,0,0-.61,14.151,14.151,0,0,0-4.28-2.13Z" fill="#b8ddda" opacity="0.5"/>
        <path id="Trazado_161922" data-name="Trazado 161922" d="M321.46,119.91a2.36,2.36,0,0,0-.6,0,3.53,3.53,0,0,1-1,0,11,11,0,0,0-4,.66c-1.28.39-4.51,1.69-3.81,1.86.39.09,2.71-1.09,3.94-1.46a10.07,10.07,0,0,1,3.74-.66,3.78,3.78,0,0,0,1.12.06,3.241,3.241,0,0,1,.46,0c.69.07.33,1.1.32,1.12a1.44,1.44,0,0,0,.14-.51c1.07-.08,1.87-.58,1.9-1.21C323.45,120.39,321.82,120,321.46,119.91Z" fill="#d78c74" opacity="0.55"/>
        <path id="Trazado_161923" data-name="Trazado 161923" d="M296.46,99.87c-.11,0-3.16,2.4-3.35,3.21s1.33,3,3.35,2.83a6.53,6.53,0,0,0,3.89-2.19C300.2,103.69,299,100,296.46,99.87Z" fill="#3b3a40"/>
        <path id="Trazado_161924" data-name="Trazado 161924" d="M296.73,99.49c-5.1.1-5.48-3.85-5.48-3.85s-2.16.93-2.73,4.55,4.56,6.15,4.56,6.15.25-5.52,3.31-5.67,3.18,5.77,3.18,5.77,5.7-3.4,6.05-5.89-2.22-5.62-2.22-5.62S302.3,99.37,296.73,99.49Z" fill="#8cc4c2"/>
        <path id="Trazado_161925" data-name="Trazado 161925" d="M283.74,75.97l.12-2.58-1.03.64Z" fill="#1c1c1c"/>
        <path id="Trazado_161926" data-name="Trazado 161926" d="M296.64,73.69s.53,1.9.64,2.11.57-.42,4-.78,4.93.85,4.93.85l.41-3.1C302,71.59,296.64,73.69,296.64,73.69Z" fill="#fff" opacity="0.41"/>
        <path id="Trazado_161927" data-name="Trazado 161927" d="M284.36,72.77l.41,3.1s1.49-1.22,4.93-.85,3.89,1,4,.78.64-2.11.64-2.11S289,71.59,284.36,72.77Z" fill="#fff" opacity="0.41"/>
        <path id="Trazado_161928" data-name="Trazado 161928" d="M307.22,72.17l-.48-.2a21.93,21.93,0,0,0-9.84,1.11,11.16,11.16,0,0,0-2.72,0,22,22,0,0,0-10-1.15h-.5l-.91.09.08,1.92.65-.16A11,11,0,0,0,284.86,79c.55.89,1.9,1.39,3.72,1.39h.21c1.77,0,3.92-.55,4.5-1.59a17.17,17.17,0,0,0,1.4-4c.19-.29,1.24-.37,1.45,0a19.4,19.4,0,0,0,1.53,4.09c.57,1,2.71,1.57,4.45,1.6h.21c1.81,0,3.15-.47,3.69-1.36a9.51,9.51,0,0,0,1.38-3.94l1.86,1.59,1.13-.92L308.22,73Zm-15.15,6.06c-.19.34-1.57.87-3.31.9-1.35,0-2.41-.26-2.71-.75a10.37,10.37,0,0,1-1.18-5.2,21.32,21.32,0,0,1,8.55,1,20.22,20.22,0,0,1-1.35,4.05Zm12.77.15c-.29.49-1.35.78-2.69.75a4.923,4.923,0,0,1-3.27-.9,20.15,20.15,0,0,1-1.34-4,20.69,20.69,0,0,1,8.47-1,10.57,10.57,0,0,1-1.17,5.15Z" fill="#282828"/>
        <path id="Trazado_161929" data-name="Trazado 161929" d="M307.22,72.17l-.48-.2a21.93,21.93,0,0,0-9.84,1.11,11.16,11.16,0,0,0-2.72,0A22.42,22.42,0,0,0,284.13,72h-.57l-.84.09v.72a15.73,15.73,0,0,1,3.15-.32c5.77.13,6.69,1.19,9.61,1.14,4.57-.08,10.66-3,13.88.85L308.22,73Z" fill="#fff" opacity="0.16"/>
        <path id="Trazado_161930" data-name="Trazado 161930" d="M296.22,88.54h-1.66a.5.5,0,0,0-.5.54c0,.42.26.93,1.28.91s1.25-.43,1.36-.8a.5.5,0,0,0-.48-.65Z" fill="#d78c74" opacity="0.68"/>
        <path id="Trazado_161931" data-name="Trazado 161931" d="M294.83,74.63s-2.91,3.81-2.36,5.27,5,1.38,5.62-.05-2-5.13-2-5.13Z" fill="#e5a185"/>
        <path id="Trazado_161932" data-name="Trazado 161932" d="M292.41,79.13a1.45,1.45,0,0,0,.06.82c.59,1.67,5.07,1.57,5.62,0a1.86,1.86,0,0,0,.07-.93,11.17,11.17,0,0,1-5.75.11Z" fill="#d78c74"/>
        <path id="Trazado_161933" data-name="Trazado 161933" d="M295.49,74.72h-.37a26.411,26.411,0,0,0-1.82,3.93,7.68,7.68,0,0,0,2.39.14c-.09-1.32-.09-2.63-.1-3.94Z" fill="#fff" opacity="0.14"/>
        <g id="Grupo_75186" data-name="Grupo 75186" opacity="0.09">
          <path id="Trazado_161934" data-name="Trazado 161934" d="M294.05,81.64a14.261,14.261,0,0,0-1.9,2.34c.33.08.67.14,1,.2C293.47,83.53,294.27,81.64,294.05,81.64Z"/>
          <path id="Trazado_161935" data-name="Trazado 161935" d="M297.81,81.9c-.12.16,1.06,1.35,1.55,1.84.34-.09.65-.18.95-.28C299.63,83,297.92,81.74,297.81,81.9Z"/>
          <path id="Trazado_161936" data-name="Trazado 161936" d="M295.09,82.5a7.88,7.88,0,0,0-.52,1.8h.78C295.34,83.75,295.23,82.41,295.09,82.5Z"/>
          <path id="Trazado_161937" data-name="Trazado 161937" d="M296.25,81.56a14.54,14.54,0,0,0,.77,2.61L298,84a15.5,15.5,0,0,0-1.75-2.44Z"/>
          <path id="Trazado_161938" data-name="Trazado 161938" d="M289.49,81.7a2.67,2.67,0,0,0-1.25.36q.24.19.57.42C289.09,82.3,289.76,81.82,289.49,81.7Z"/>
          <path id="Trazado_161939" data-name="Trazado 161939" d="M298.64,81.17c-.05.21,2.34,1.26,3.24,1.64a7.759,7.759,0,0,0,.92-.54A23.243,23.243,0,0,0,298.64,81.17Z"/>
          <path id="Trazado_161940" data-name="Trazado 161940" d="M292.63,81.39c-.3-.12-2.54,1-3.35,1.39a9.213,9.213,0,0,0,1,.53C291,82.81,292.93,81.5,292.63,81.39Z"/>
        </g>
        <path id="Trazado_161941" data-name="Trazado 161941" d="M292.76,120.84l-3.44-.77h-.16c-4.65.43-6.19,5.12-6.43,6.44a.34.34,0,0,0,.12.35l3.12,1.64c.42.22.56.23.72,0a8,8,0,0,1,2.21-5.45,6.2,6.2,0,0,1,4.47-1.54A.73.73,0,0,0,292.76,120.84Z" fill="#56433b"/>
        <path id="Trazado_161942" data-name="Trazado 161942" d="M292.54,120.35l-3,.09a3.34,3.34,0,0,0-2,.09l-2.83.14c-.22.07-.08,1.24.14,1.32l2.87,1a3,3,0,0,0,2.12-.1l2.72-1.21C292.84,121.63,293,120.47,292.54,120.35Z" fill="#d6d6d6"/>
        <path id="Trazado_161943" data-name="Trazado 161943" d="M292.54,120.35l-3-.77a3.34,3.34,0,0,0-2,.09l-2.7,1a.27.27,0,0,0,0,.5l2.9.94a3.18,3.18,0,0,0,2.15-.09l2.66-1.12a.275.275,0,1,0-.01-.55Z" fill="#eaeaea"/>
        <path id="Trazado_161944" data-name="Trazado 161944" d="M291.2,120.52l-1.95-.5a2.19,2.19,0,0,0-1.29.06l-1.75.62a.17.17,0,0,0,0,.32l1.88.61a2,2,0,0,0,1.4-.06l1.72-.72a.18.18,0,0,0-.01-.33Z" fill="#d6d6d6"/>
        <path id="Trazado_161945" data-name="Trazado 161945" d="M281.48,151l-7.68-.37-.08.85,6.78.35-1.56,13a2.168,2.168,0,0,1-.08.43h.9l.06-.33Z" fill="#b8ddda" opacity="0.5"/>
        <g id="Grupo_75187" data-name="Grupo 75187" opacity="0.5">
          <path id="Trazado_161946" data-name="Trazado 161946" d="M318.85,152.38v-.88l-8.32.4-.36,13.34h.88l.33-12.5Z" fill="#b8ddda"/>
        </g>
      </g>
    </g>
  </g>
</svg>
