<svg id="Capa_2" data-name="Capa 2" xmlns="http://www.w3.org/2000/svg" xmlns:xlink="http://www.w3.org/1999/xlink" width="610" height="340" viewBox="0 0 610 340">
  <defs>
    <clipPath id="clip-path">
      <rect id="Rect치ngulo_32663" data-name="Rect치ngulo 32663" width="610" height="340" fill="none"/>
    </clipPath>
    <clipPath id="clip-path-2">
      <path id="Trazado_161813" data-name="Trazado 161813" d="M504.94,344.77c-19.8,137.42-306.08,193.6-345,107.93-14-30.72-20.46-46.06-26.79-57.29-15-26.59-22-54.62-29.07-84.31-.18-.74-2.81-33.08-2.82-33.84-.75-51.14-2-263.44-2-263.44H500.48Z" fill="none"/>
    </clipPath>
  </defs>
  <rect id="Rect치ngulo_32662" data-name="Rect치ngulo 32662" width="610" height="340" fill="#66d7e5"/>
  <g id="Grupo_75168" data-name="Grupo 75168" clip-path="url(#clip-path)">
    <g id="Grupo_75167" data-name="Grupo 75167" clip-path="url(#clip-path-2)">
      <g id="Grupo_75166" data-name="Grupo 75166">
        <path id="Trazado_161752" data-name="Trazado 161752" d="M331.42,131.24s23.35,14.52,46.69,27,24.39,32.68,20.24,65.89-10.9,142.68-2.6,167.58-2.59,44.1-17.64,43.59-24.38-7.79-71.6-3.64S224,425.42,210,413.49s18.68-82,18.16-129.71S222.56,198.69,228,179s66.62-46.7,66.62-46.7Z" fill="#81d4fa"/>
        <g id="Grupo_75157" data-name="Grupo 75157">
          <path id="Trazado_161753" data-name="Trazado 161753" d="M263.7,148a60.86,60.86,0,0,0,82.92-7.56l-1.36-.82a59.28,59.28,0,0,1-80.1,7.55Z" fill="#034a6d"/>
          <path id="Trazado_161754" data-name="Trazado 161754" d="M280.69,158.6a42.49,42.49,0,0,1,14.56,32.89,40.88,40.88,0,0,1-16.1,31.17,41.46,41.46,0,0,1-18.56,8.18c-1,.16-1.4-1.34-.42-1.5,14.75-2.46,27.64-13.45,32-27.85,4.48-14.9-.81-31.73-12.54-41.79-.76-.65.34-1.75,1.1-1.1Z" fill="#034a6d"/>
          <path id="Trazado_161755" data-name="Trazado 161755" d="M353.82,171.19a63.54,63.54,0,0,0-43.55,29c-9.84,15.75-11.41,35.23-5.27,52.65a62,62,0,0,0,17.44,25.95c.75.66-.36,1.76-1.1,1.1a65.09,65.09,0,0,1-21.55-50.73c.68-18.61,10.23-35.81,24.94-47.07a63.38,63.38,0,0,1,28.68-12.39c1-.15,1.4,1.35.41,1.5Z" fill="#034a6d"/>
          <path id="Trazado_161756" data-name="Trazado 161756" d="M272.41,235.57a91,91,0,0,0,69,85.63.78.78,0,0,1-.41,1.5,92.52,92.52,0,0,1-70.15-87.13A.781.781,0,0,1,272.41,235.57Z" fill="#034a6d"/>
          <path id="Trazado_161757" data-name="Trazado 161757" d="M260.12,263.14c11.73,13.9,21.13,30.43,23.74,48.64,2.25,15.75-1.27,32.24-10.9,45.06a47.13,47.13,0,0,1-19.48,15.36c-.92.39-1.33-1.12-.42-1.5,14.17-5.94,23.84-19.2,27.84-33.75,4.45-16.2,1.31-33.32-5.82-48.27A115.18,115.18,0,0,0,259,264.24c-.64-.76.45-1.87,1.1-1.1Z" fill="#034a6d"/>
        </g>
        <g id="Grupo_75161" data-name="Grupo 75161">
          <g id="Grupo_75158" data-name="Grupo 75158">
            <path id="Trazado_161758" data-name="Trazado 161758" d="M332.65,138.08s-30.56,22.63-42.42,3.15L294.78,125l3-10.74,2.1-7.53,30.31-5.41C328.84,115.22,329.85,127.34,332.65,138.08Z" fill="#fda19a"/>
            <path id="Trazado_161759" data-name="Trazado 161759" d="M323.12,112.55c-13.46,16.19-25.52,18.1-29.49,16.5l4.15-14.84Z" fill="#27293e"/>
          </g>
          <g id="Grupo_75159" data-name="Grupo 75159">
            <path id="Trazado_161760" data-name="Trazado 161760" d="M282.13,64.78s-9.85-5.78-7.78-11.05,7.78-.75,7.78-.75-7.82-14.1,0-19.17,13.95,7.7,13.95,7.7,2.95-10,9.32-8.83,6,10.71,6,10.71,24.49,1.42,27,14.48c0,0,6.58-3.13,7.34.78s-3.46,4.3-3.46,4.3,8.53.94,7.4,3.94-6.2,2-6.2,2-.2,6.36-3.86,10.62S282.13,64.78,282.13,64.78Z" fill="#27293e"/>
            <path id="Trazado_161761" data-name="Trazado 161761" d="M285,60.77s-3.8,3.66-3.8,7.62c0,10.13,4.58,15.85,4.58,15.85S291.82,65.69,285,60.77Z" fill="#27293e"/>
            <path id="Trazado_161762" data-name="Trazado 161762" d="M333.46,93a30.192,30.192,0,0,1-.47,3.41,21.839,21.839,0,0,1-2.6,6.74,70.589,70.589,0,0,1-7.26,9.54c-5.11,6-13,7.88-20.53,7.43-20-1.19-20.91-14.9-18-35.33,1.82-12.69-1.34-20,2.15-24.74h0l.69-.62a28.81,28.81,0,0,1,20.27-7.05c1.43.06,2.79.17,4.09.31a6.405,6.405,0,0,1,.88.1h.36a7.218,7.218,0,0,1,1,.13l.68.11q.79.12,1.53.27c15.81,3.17,19.17,13.13,19.13,22.75C335.37,82.59,333.77,89,333.46,93Z" fill="#fda19a"/>
            <path id="Trazado_161763" data-name="Trazado 161763" d="M284,66.61s.68-4.84,5.16-5.36c4.27-.49,2.47,3.6,5.38,4s4.31-5.54,10.91-3.56,14.42,9.87,24.25,7.33S336,55.76,321.3,51,284.25,47.72,284,66.61Z" fill="#27293e"/>
            <path id="Trazado_161764" data-name="Trazado 161764" d="M287,79c.5.08,3.21-.67,9.86-1,0,0,.49-5-4.95-4.33C287.87,74.13,287,79,287,79Z" fill="#27293e"/>
            <path id="Trazado_161765" data-name="Trazado 161765" d="M311.78,80.34c-.5,0-5.93-1.82-10.49-2.2,0,0,1.21-5.32,6.48-3.82C311.63,75.41,311.78,80.34,311.78,80.34Z" fill="#27293e"/>
            <path id="Trazado_161766" data-name="Trazado 161766" d="M303.93,83.48a1.741,1.741,0,0,0,1.53,1.91,1.779,1.779,0,0,0,1.41-2c-.03-1.07-.73-1.94-1.54-1.91a1.77,1.77,0,0,0-1.4,2Z" fill="#27293e"/>
            <path id="Trazado_161767" data-name="Trazado 161767" d="M290.88,82.94a1.738,1.738,0,0,0,1.54,1.9,1.759,1.759,0,0,0,1.4-2c-.04-1.08-.73-1.93-1.54-1.91A1.77,1.77,0,0,0,290.88,82.94Z" fill="#27293e"/>
            <path id="Trazado_161768" data-name="Trazado 161768" d="M312.64,89.81c-.08,1.09-2.77,1.53-4.87,1.36s-2.81-.87-2.72-2,1.86-1.84,3.95-1.67S312.73,88.72,312.64,89.81Z" fill="#ca6872"/>
            <path id="Trazado_161769" data-name="Trazado 161769" d="M284,89.88a5.65,5.65,0,0,0,2.93,1c2.1.17,3.87-.58,3.95-1.68s-1.54-2.11-3.63-2.27a5.62,5.62,0,0,0-2.94.46Z" fill="#ca6872"/>
            <path id="Trazado_161770" data-name="Trazado 161770" d="M297.62,90.73a.65.65,0,0,0,0-1.29,6.08,6.08,0,0,1-2.7-.67,11.54,11.54,0,0,0,2.46-5.53.65.65,0,0,0-1.28-.19s-.6,3.82-2.62,5.26a.63.63,0,0,0-.27.48.66.66,0,0,0,.2.52,6.66,6.66,0,0,0,4.17,1.43Z" fill="#27293e"/>
          </g>
          <path id="Trazado_161771" data-name="Trazado 161771" d="M325.87,98A11,11,0,0,0,333,96.36a21.84,21.84,0,0,1-2.6,6.74,11.11,11.11,0,0,1-4.53-5.1Z" fill="#27293e"/>
          <path id="Trazado_161772" data-name="Trazado 161772" d="M317.1,87.9c3.88,2.65,5.74-10.81,13.84-12.34a6.72,6.72,0,0,1,4.45.49c0,6.54-1.62,12.92-1.94,16.9a27.084,27.084,0,0,1-.45,3.33c3.7-8,7.89-17.46,8.92-21.51a15.258,15.258,0,0,0,.41-2.33c-.17-.22-.35-.44-.53-.64a14.381,14.381,0,0,0-2.63-2.36c-.55-.4-1.39-1.07-2.24-1.77a10.89,10.89,0,0,0-7-2.52c-4.24,0-10.7.08-13.92.4C319.56,71,313.93,85.73,317.1,87.9Z" fill="#27293e"/>
          <path id="Trazado_161773" data-name="Trazado 161773" d="M289.11,96s4.7-.14,13.94-.36c0,0-1.38,9.82-8.06,9.25C289.33,104.45,289.11,96,289.11,96Z" fill="#fff"/>
          <path id="Trazado_161774" data-name="Trazado 161774" d="M293.62,108.29A4.15,4.15,0,0,0,298,108c.66-.53-.19-1.52-.85-1a2.88,2.88,0,0,1-3.07.06c-.78-.33-1.22.91-.44,1.24Z" fill="#ca6872"/>
          <path id="Trazado_161775" data-name="Trazado 161775" d="M319.94,92.56a11.06,11.06,0,0,1,2.13-9.43c2.68-3.47,7.55-8.74,11.74-7.81,6.15,1.36,6.45,7,5.39,12.57s-5.36,12.7-13,10.89A8,8,0,0,1,319.94,92.56Z" fill="#fda19a"/>
          <path id="Trazado_161776" data-name="Trazado 161776" d="M327.43,92.14a14.44,14.44,0,0,1,1-7.07c.95-2,3.45-4.73,6-3.67.85.36,1.55-.91.7-1.26-2.44-1-5,.26-6.59,2.16-2.36,2.74-2.69,6.42-2.52,9.9a.721.721,0,1,0,1.44-.06Z" fill="#27293e"/>
          <g id="Grupo_75160" data-name="Grupo 75160">
            <path id="Trazado_161777" data-name="Trazado 161777" d="M283.12,106.76c.83,2.36,1.57,10,12.61,13.21,7,2,13.67,1.52,17.44-.19a7.42,7.42,0,0,0,2.29-1.52c3-.86,8.07-5.66,11.7-9.44a20.71,20.71,0,0,0,4.7-7.74,23.49,23.49,0,0,0,.73-2.77c-4.7,9.42-15.36,16-17.94,14.36a18,18,0,0,1-3-13c1.26-7.19,10.27-15,10.27-15l4.42-6.12c-7.51,5.68-17.12,15.82-17.12,15.82l-.15.39a4.28,4.28,0,0,0-1.34-.79c-2.76-1-9-3.27-11.7-5.71-4.6-4.22-5.39,3-11.8,3.42-1,.07-1.62,1.44-1.9,3.35A34,34,0,0,0,283.12,106.76Z" fill="#fff"/>
            <path id="Trazado_161778" data-name="Trazado 161778" d="M283.12,106.76c.83,2.36,1.57,10,12.61,13.21,7,2,13.67,1.52,17.44-.19a5.872,5.872,0,0,0-.52-.68c-6.06-6.82-5.29-22.82-5.29-22.82-2.92.39-10.57-4.73-13-6.55s-3.89.13-5.21,1.48S284.77,93,282.34,95A34,34,0,0,0,283.12,106.76Z" fill="#277ca0"/>
            <path id="Trazado_161779" data-name="Trazado 161779" d="M295.7,96.87a20,20,0,0,1-7.11-.19c-.79-.17-.45-1.37.33-1.21a18.17,18.17,0,0,0,6.45.2c.79-.12,1.13,1.09.33,1.2Z" fill="#034a6d"/>
            <path id="Trazado_161780" data-name="Trazado 161780" d="M301.67,101.74a31.39,31.39,0,0,1-17-1.15c-.75-.27-.43-1.47.33-1.21a30,30,0,0,0,16.32,1.15.629.629,0,0,1,.34,1.21Z" fill="#034a6d"/>
            <path id="Trazado_161781" data-name="Trazado 161781" d="M303.22,107.09a32.06,32.06,0,0,1-17.49-1.18c-.75-.27-.42-1.48.34-1.21a30.79,30.79,0,0,0,16.82,1.19C303.67,105.73,304.01,106.89,303.22,107.09Z" fill="#034a6d"/>
            <path id="Trazado_161782" data-name="Trazado 161782" d="M304.51,113.07a26.14,26.14,0,0,1-17.63-1.54c-.73-.33-.1-1.41.63-1.08a24.78,24.78,0,0,0,16.66,1.42.624.624,0,0,1,.34,1.2Z" fill="#034a6d"/>
          </g>
        </g>
        <path id="Trazado_161783" data-name="Trazado 161783" d="M311.18,400c.76,51.35-.68,106.63,2.08,142.16,11.5,1.79,40.26,5.53,56.55,3.63,62.26-7.26,68-24.39,68-24.39-13-27.49-24.9-88.2-29.06-122.44s-16.64-125.3-13.48-144.24c6.22-37.36,10.89-74.19,5.18-83-4.6-7.13-51-31-67-39.25C318,185.93,310.32,342,311.18,400Z" fill="#fff"/>
        <path id="Trazado_161784" data-name="Trazado 161784" d="M326.55,267.18A1657.212,1657.212,0,0,0,321,469.33q1,28.38,2.89,56.71c.07,1-1.49,1-1.56,0a1660.054,1660.054,0,0,1-1.43-202.23q1.55-28.35,4.05-56.63c.08-1,1.65-1,1.56,0Z" fill="#277ca0"/>
        <path id="Trazado_161785" data-name="Trazado 161785" d="M375.13,266.43a1824.789,1824.789,0,0,0,36.29,243.131c.21,1-1.3,1.4-1.51.419a1829.476,1829.476,0,0,1-36.34-243.55C373.49,265.43,375.05,265.43,375.13,266.43Z" fill="#277ca0"/>
        <path id="Trazado_161786" data-name="Trazado 161786" d="M330.72,126.49s18.48,5.91,23.08,16.57l-6.13,40L336,185.74l9.06,9.58L333,272.43,315,283S319.64,188.15,330.72,126.49Z" fill="#277ca0"/>
        <path id="Trazado_161787" data-name="Trazado 161787" d="M161.24,518.29s-4.67,19.72,46.18,22.83c11.4.7,28.76-2.89,39.43-2.08,1.19-43.68,4.91-162.8,16.08-212.2,12.25-54.17,12.83-151,28.54-193-6.75,1-28.54,9.34-54,26.46-22.45,15.12-21.27,28.54-17.64,58.63s-2.6,98.06-16.61,155.65S161.24,518.29,161.24,518.29Z" fill="#fff"/>
        <g id="Grupo_75163" data-name="Grupo 75163">
          <path id="Trazado_161788" data-name="Trazado 161788" d="M225.46,230.4s-56.88,22.08-79.27,6.2c-11.83-8.39-18.55-32.47-.5-126.66,2-10.53,11.29-15.93,19,.79,8.74,18.87,2.47,83.81,13.5,80.07,19.42-6.57,30.35-6.79,49.8-22.87C244.43,154.36,244.67,211.47,225.46,230.4Z" fill="#fff"/>
          <path id="Trazado_161789" data-name="Trazado 161789" d="M141.59,127.8a30.25,30.25,0,0,0,27,.28c1-.47.13-1.93-.85-1.46a28.46,28.46,0,0,1-25.27-.28c-1-.49-1.83,1-.85,1.46Z" fill="#277ca0"/>
          <path id="Trazado_161790" data-name="Trazado 161790" d="M157.42,113.82l-.36,15.59a.85.85,0,0,0,1.69,0l.36-15.59a.85.85,0,0,0-1.69,0Z" fill="#277ca0"/>
          <path id="Trazado_161791" data-name="Trazado 161791" d="M221,190.12c.07,13.86-.85,27.8-1.76,41.62-.07,1.08,1.62,1.08,1.69,0,.91-13.82,1.83-27.76,1.76-41.62a.85.85,0,0,0-1.69,0Z" fill="#277ca0"/>
          <path id="Trazado_161792" data-name="Trazado 161792" d="M151.29,238.35a30.76,30.76,0,0,0-16.72-30.73c-1.07-.55-.28-2.25.8-1.7a32.68,32.68,0,0,1,17.77,32.75C153.01,239.88,151.14,239.55,151.29,238.35Z" fill="#277ca0"/>
          <g id="Grupo_75162" data-name="Grupo 75162">
            <path id="Trazado_161793" data-name="Trazado 161793" d="M146.7,77.09s-4.15,14,3.67,19a21.74,21.74,0,0,0,18.39,2.54c7.78-8.05,10.23-4.3,13.93-9.4s-3.56-15.93-3.56-15.93,2.42-25.06-.38-28.26-7.74,20-7.74,20a4,4,0,0,0-3.14-2.26c-3.34-.58-12.27.64-16.84,2.9C147,67.75,146.7,77.09,146.7,77.09Z" fill="#fda19a"/>
            <path id="Trazado_161794" data-name="Trazado 161794" d="M170.79,94.32l-6.64,18s-9.8,7.55-17.71-4.27l-.32-18.22Z" fill="#fda19a"/>
            <path id="Trazado_161795" data-name="Trazado 161795" d="M177.3,89.35c-3.47-3.57-8.22-7.77-9.4-12.83-.45-1.91-.24-4.57,1.84-5.43,1.83-.76,3.92.38,5.59,1,.86.34.38,1.7-.49,1.36-1.4-.55-3.85-2-5.18-.59-1,1-.45,3.28,0,4.47a15.4,15.4,0,0,0,1.6,2.86,62.411,62.411,0,0,0,7.12,8.19c.65.67-.46,1.59-1.11.93Z" fill="#ca6872"/>
            <path id="Trazado_161796" data-name="Trazado 161796" d="M168.45,75.19a39.06,39.06,0,0,1-20,1.4c-.91-.17-.8-1.62.11-1.44a37.81,37.81,0,0,0,19.28-1.26C168.71,73.59,169.33,74.89,168.45,75.19Z" fill="#ca6872"/>
            <path id="Trazado_161797" data-name="Trazado 161797" d="M161.36,79.93a16.68,16.68,0,0,1-3.14,15.92c-.59.72-1.78-.11-1.19-.83a15.36,15.36,0,0,0,2.91-14.83c-.28-.89,1.15-1.14,1.42-.26Z" fill="#ca6872"/>
            <path id="Trazado_161798" data-name="Trazado 161798" d="M164.22,75c.39-3.78.72-7.69-.34-11.39-.26-.9,1.17-1.15,1.42-.27,1.09,3.81.76,7.88.36,11.77a.722.722,0,1,1-1.44-.11Z" fill="#ca6872"/>
            <path id="Trazado_161799" data-name="Trazado 161799" d="M158,76.45a37.88,37.88,0,0,0-.23-11.69.722.722,0,0,1,1.42-.26,39,39,0,0,1,.25,12.06c-.13.92-1.58.81-1.44-.11Z" fill="#ca6872"/>
            <path id="Trazado_161800" data-name="Trazado 161800" d="M152.63,75.56v.35l-1.44-.11a19.82,19.82,0,0,0-.27-9.25c-.24-.9,1.18-1.15,1.42-.26a20.59,20.59,0,0,1,.29,9.62.722.722,0,1,1-1.44-.11q0-.18,0-.36c0-.93,1.45-.81,1.44.12Z" fill="#ca6872"/>
            <path id="Trazado_161801" data-name="Trazado 161801" d="M171.86,66a17.28,17.28,0,0,1-.82,5.89c-.29.88-1.65.39-1.36-.49a16.31,16.31,0,0,0,.74-5.51C170.42,64.96,171.84,65.08,171.86,66Z" fill="#ca6872"/>
          </g>
          <path id="Trazado_161802" data-name="Trazado 161802" d="M176.09,189.29a121.05,121.05,0,0,1-.57,21.45c-.14,1.21-2,.82-1.85-.38a116.731,116.731,0,0,0,.54-21,.941.941,0,0,1,1.88-.09Z" fill="#277ca0"/>
          <path id="Trazado_161803" data-name="Trazado 161803" d="M176.26,197.32l7.4,9.57c.74,1-.84,2-1.57,1l-7.4-9.58c-.74-1,.84-2,1.57-1Z" fill="#277ca0"/>
        </g>
        <path id="Trazado_161804" data-name="Trazado 161804" d="M262.86,256.36q-7.94,52.54-13.25,105.45-5.27,52.47-8,105.16-1.51,29.8-2.19,59.64a.79.79,0,0,1-1.57,0q1.23-53.24,5.09-106.37,3.84-52.85,10.31-105.47,3.62-29.47,8.05-58.83c.15-1,1.66-.57,1.51.42Z" fill="#277ca0"/>
        <path id="Trazado_161805" data-name="Trazado 161805" d="M293.63,129.05c1.55,0-13.8,85.24-23.67,154l-12.43-31.68,10-66.64,8-4.29-8-9.64s6.09-23.29,8-31.94S293.63,129.05,293.63,129.05Z" fill="#277ca0"/>
        <path id="Trazado_161806" data-name="Trazado 161806" d="M397,171.42c-20.22,2.89-25.77,25.58-29,42.33-.19,1-1.74.79-1.55-.2,3.36-17.45,9.31-40.67,30.26-43.68a.783.783,0,0,1,.22,1.55Z" fill="#277ca0"/>
        <g id="Grupo_75164" data-name="Grupo 75164" opacity="0.5">
          <path id="Trazado_161807" data-name="Trazado 161807" d="M321.2,75.09c-8-1.29-29.17-4.44-39.86-3.66,0,0-2.14,12.31-1.41,16.53s10.51,2.77,11.95.61c3.12-4.66,4,1.7,6.91,2.7s14.19,3.22,16.5-1.56a74.665,74.665,0,0,0,4-11.28l5.77,1.08c.79-.38,1.71-1.69,2.38-2.32h0A19.69,19.69,0,0,0,321.2,75.09Z" fill="#fff"/>
        </g>
        <g id="Grupo_75165" data-name="Grupo 75165">
          <path id="Trazado_161808" data-name="Trazado 161808" d="M400.42,171.71s98.83,97.87,97.94,128.89c-.56,19.11-59.54,98.29-59.54,98.29-4-9.76-9.94-12.9-14.68-15.49,0,0,24-77.45,21.73-80.53-9.9-13.58-63.31-66.69-63.31-66.69S370.39,181.31,400.42,171.71Z" fill="#fff"/>
          <path id="Trazado_161809" data-name="Trazado 161809" d="M374,229.42l20.93,20.79c.62.62,1.58-.34,1-1l-20.94-20.8c-.61-.62-1.57.34-.95,1Z" fill="#277ca0"/>
          <path id="Trazado_161810" data-name="Trazado 161810" d="M495.43,290a22.07,22.07,0,0,0-2.3,25.64c.49.84-.83,1.56-1.32.72a23.62,23.62,0,0,1,2.59-27.46c.63-.73,1.66.37,1,1.1Z" fill="#277ca0"/>
          <path id="Trazado_161811" data-name="Trazado 161811" d="M446.64,302a160.274,160.274,0,0,1,21.17,2.53c.95.18.5,1.61-.44,1.43a157.748,157.748,0,0,0-20.77-2.46.75.75,0,1,1,0-1.5Z" fill="#277ca0"/>
          <path id="Trazado_161812" data-name="Trazado 161812" d="M458.58,300.55a22.93,22.93,0,0,0-5.64,3.09c-.76.57-1.8-.52-1-1.1a25.811,25.811,0,0,1,6.31-3.45c.9-.35,1.25,1.12.36,1.46Z" fill="#277ca0"/>
        </g>
      </g>
    </g>
  </g>
</svg>
