<svg xmlns="http://www.w3.org/2000/svg" width="101" height="101" viewBox="0 0 101 101">
  <g id="Capa_2" data-name="Capa 2" transform="translate(-0.484)">
    <circle id="Elipse_4906" data-name="Elipse 4906" cx="50.5" cy="50.5" r="50.5" transform="translate(0.484)" fill="#987ee9"/>
    <g id="Grupo_75237" data-name="Grupo 75237" transform="translate(2.667 2.667)">
      <g id="Grupo_75236" data-name="Grupo 75236" transform="translate(5.573 33.609)">
        <path id="Trazado_162118" data-name="Trazado 162118" d="M23.856,52.742h-.213L11.1,50.533a1.246,1.246,0,1,1,.434-2.454l11.65,2.045c1.6-2.847,4.312-5.784,10.407-5.784a1.244,1.244,0,0,1,0,2.454c-4.982,0-7.052,2.094-8.623,5.236a1.244,1.244,0,0,1-1.113.712Z" transform="translate(-10.072 -44.34)" fill="#fff"/>
        <path id="Trazado_162119" data-name="Trazado 162119" d="M64.875,59.984a1.244,1.244,0,0,1-1.244-1.235V55.787a1.718,1.718,0,0,0-1.718-1.726H53.029a1.244,1.244,0,1,1,0-2.454h8.885a4.205,4.205,0,0,1,4.2,4.205v2.962a1.244,1.244,0,0,1-1.235,1.211Z" transform="translate(-17.622 -45.659)" fill="#fff"/>
        <path id="Trazado_162120" data-name="Trazado 162120" d="M72.885,67.229H70.431a1.244,1.244,0,1,1,0-2.454h2.454a1.726,1.726,0,1,0,0-3.444H48.579a1.244,1.244,0,1,1,0-2.454H72.885a4.205,4.205,0,1,1,0,8.4Z" transform="translate(-16.812 -46.981)" fill="#fff"/>
        <path id="Trazado_162121" data-name="Trazado 162121" d="M68.541,74.472H63.747a1.244,1.244,0,1,1,0-2.454h4.794a1.718,1.718,0,0,0,1.219-.507,1.743,1.743,0,0,0,.5-1.219V68.541H48.579a1.244,1.244,0,1,1,0-2.454H71.486a1.244,1.244,0,0,1,1.235,1.244v2.937a4.205,4.205,0,0,1-4.2,4.205Z" transform="translate(-16.812 -48.292)" fill="#fff"/>
        <path id="Trazado_162122" data-name="Trazado 162122" d="M36.006,81.712h-.164l-3.731-.475h-.123a19.635,19.635,0,0,1-9.449-5.31L11.658,78.636a1.239,1.239,0,0,1-.6-2.405L22.67,73.342a1.252,1.252,0,0,1,1.2.36l.106.106a17.082,17.082,0,0,0,8.492,4.974l3.616.466H56.982A1.718,1.718,0,0,0,58.7,77.523V75.8H41.52a1.244,1.244,0,1,1,0-2.454H59.928a1.244,1.244,0,0,1,.875.36,1.26,1.26,0,0,1,.36.875v2.962a4.205,4.205,0,0,1-4.2,4.205Z" transform="translate(-10.08 -49.609)" fill="#fff"/>
      </g>
      <path id="Trazado_162123" data-name="Trazado 162123" d="M51.317,99.374A48.057,48.057,0,1,1,99.374,51.317,48.057,48.057,0,0,1,51.317,99.374Zm0-93.635A45.578,45.578,0,1,0,96.895,51.317,45.578,45.578,0,0,0,51.317,5.739Z" transform="translate(-3.26 -3.26)" fill="#fff"/>
      <path id="Trazado_162124" data-name="Trazado 162124" d="M62.295,37.083H36.344A1.244,1.244,0,0,1,35.1,35.839V29.425a1.244,1.244,0,0,1,1.244-1.235H59.7a3.845,3.845,0,0,1,3.837,3.837v3.812a1.244,1.244,0,0,1-1.244,1.244Zm-24.716-2.5h23.48V32.027A1.358,1.358,0,0,0,59.7,30.669H37.612Z" transform="translate(-9.051 -7.794)" fill="#fff"/>
      <path id="Trazado_162125" data-name="Trazado 162125" d="M46.892,49.507H39.005a1.244,1.244,0,0,1-1.235-1.235V37.26A1.235,1.235,0,0,1,39.005,36h7.887a1.235,1.235,0,0,1,1.244,1.235V48.272A1.244,1.244,0,0,1,46.892,49.507Zm-6.643-2.454h5.408V38.5H40.249Z" transform="translate(-9.536 -9.215)" fill="#fff"/>
      <path id="Trazado_162126" data-name="Trazado 162126" d="M46.935,51.961H39.048a1.244,1.244,0,0,1,0-2.454h7.887a1.244,1.244,0,1,1,0,2.454Z" transform="translate(-9.579 -11.668)" fill="#fff"/>
      <path id="Trazado_162127" data-name="Trazado 162127" d="M60.735,98.648H39.005A1.244,1.244,0,0,1,37.77,97.4v-15.9a1.244,1.244,0,0,1,2.454,0V96.161H60.678a4.328,4.328,0,0,0,3.5-6.88l-4.647-6.365a1.244,1.244,0,1,1,2-1.464l4.647,6.373a6.815,6.815,0,0,1-5.506,10.824Z" transform="translate(-9.536 -17.302)" fill="#fff"/>
      <path id="Trazado_162128" data-name="Trazado 162128" d="M69.875,34.591H68.108a1.244,1.244,0,0,1,0-2.454h1.767a1.244,1.244,0,1,1,0,2.454Z" transform="translate(-14.865 -8.509)" fill="#fff"/>
      <path id="Trazado_162129" data-name="Trazado 162129" d="M56.892,44.009H48.645a1.244,1.244,0,0,1-1.235-1.244V37.26A1.235,1.235,0,0,1,48.645,36h8.247a1.235,1.235,0,0,1,1.244,1.235v5.506a1.244,1.244,0,0,1-1.244,1.268Zm-7.02-2.454h5.784V38.5H49.889Z" transform="translate(-11.29 -9.215)" fill="#fff"/>
      <path id="Trazado_162130" data-name="Trazado 162130" d="M56.566,52.128A1.244,1.244,0,0,1,55.4,51.31a23.284,23.284,0,0,1-1.284-7.363,1.244,1.244,0,0,1,1.244-1.227h0a1.227,1.227,0,0,1,1.227,1.244,21.124,21.124,0,0,0,1.129,6.463,1.227,1.227,0,0,1-.736,1.587,1.1,1.1,0,0,1-.417.115Z" transform="translate(-12.51 -10.437)" fill="#fff"/>
      <path id="Trazado_162131" data-name="Trazado 162131" d="M93.472,25.73,73.96,32.185l19.512,6.463Z" transform="translate(-16.118 -7.347)" fill="#9af0f0"/>
      <path id="Trazado_162132" data-name="Trazado 162132" d="M44.1,86.43v7.707H60.323s2.454-.221,2.348-2.119-3.927-5.588-3.927-5.588Z" transform="translate(-10.688 -18.386)" fill="#9af0f0"/>
    </g>
  </g>
</svg>
