<svg xmlns="http://www.w3.org/2000/svg" width="102" height="101" viewBox="0 0 102 101">
  <g id="Capa_2" data-name="Capa 2" transform="translate(0.145)">
    <ellipse id="Elipse_4907" data-name="Elipse 4907" cx="51" cy="50.5" rx="51" ry="50.5" transform="translate(-0.145)" fill="#987ee9"/>
    <g id="Grupo_75239" data-name="Grupo 75239" transform="translate(2.667 3.093)">
      <g id="Grupo_75238" data-name="Grupo 75238" transform="translate(20.039 46.813)">
        <path id="Trazado_162133" data-name="Trazado 162133" d="M98.819,69.41H80.231a1.235,1.235,0,0,1-.908-.4,17.222,17.222,0,0,0-12.616-5.555H50.067a1.734,1.734,0,0,0-1.726,1.726v2.962a1.244,1.244,0,1,1-2.454,0V65.205A4.213,4.213,0,0,1,50.067,61H66.708a19.7,19.7,0,0,1,14.055,5.931H98.819a1.244,1.244,0,1,1,0,2.454Z" transform="translate(-31.048 -61)" fill="#fff"/>
        <path id="Trazado_162134" data-name="Trazado 162134" d="M34.574,76.652a1.244,1.244,0,0,1-1.244-1.244V72.447a4.205,4.205,0,0,1,4.205-4.2H59.976a1.244,1.244,0,0,1,0,2.454H37.535a1.726,1.726,0,0,0-1.726,1.718v2.986a1.244,1.244,0,0,1-1.235,1.244Z" transform="translate(-28.768 -62.319)" fill="#fff"/>
        <path id="Trazado_162135" data-name="Trazado 162135" d="M34.6,83.891H32.144a4.205,4.205,0,1,1,0-8.4H58.962a1.244,1.244,0,0,1,0,2.454H32.168a1.726,1.726,0,1,0,0,3.444h2.454a1.244,1.244,0,0,1,0,2.454Z" transform="translate(-27.753 -63.634)" fill="#fff"/>
        <path id="Trazado_162136" data-name="Trazado 162136" d="M44.808,91.132H37.535a4.205,4.205,0,0,1-4.205-4.2V83.974a1.244,1.244,0,0,1,1.244-1.244h25.4a1.244,1.244,0,0,1,0,2.454H35.809v1.726a1.726,1.726,0,0,0,1.726,1.767h7.273a1.244,1.244,0,0,1,0,2.454Z" transform="translate(-28.768 -64.952)" fill="#fff"/>
        <path id="Trazado_162137" data-name="Trazado 162137" d="M77.323,97.891a1.236,1.236,0,0,1-.286-2.454,17.132,17.132,0,0,0,8.59-4.966l.1-.115a1.268,1.268,0,0,1,.9-.36h10a1.244,1.244,0,1,1,0,2.454H87.166a19.537,19.537,0,0,1-9.539,5.408,1.808,1.808,0,0,1-.3.033Z" transform="translate(-36.518 -66.271)" fill="#fff"/>
        <path id="Trazado_162138" data-name="Trazado 162138" d="M40.778,96.877a1.235,1.235,0,0,1-1.08-.622,4.2,4.2,0,0,1-.548-2.078V91.215A1.244,1.244,0,0,1,40.385,90h9.924a1.244,1.244,0,1,1,0,2.454h-8.68v1.726A1.734,1.734,0,0,0,41.85,95a1.235,1.235,0,0,1-1.072,1.849Z" transform="translate(-29.826 -66.271)" fill="#fff"/>
      </g>
      <path id="Trazado_162139" data-name="Trazado 162139" d="M51.317,99.894A48.057,48.057,0,1,1,99.374,51.837,48.057,48.057,0,0,1,51.317,99.894Zm0-93.635A45.578,45.578,0,1,0,96.895,51.837,45.578,45.578,0,0,0,51.317,6.259Z" transform="translate(-3.26 -3.78)" fill="#fff"/>
      <path id="Trazado_162140" data-name="Trazado 162140" d="M28.341,27.992a1.219,1.219,0,0,1-.892-.393l-6.643-7.077a1.239,1.239,0,1,1,1.808-1.694l5.858,6.234,7.895-6.332L30.86,13.053a1.238,1.238,0,1,1,1.775-1.726l6.455,6.66a1.219,1.219,0,0,1,.344.941,1.244,1.244,0,0,1-.458.892l-9.891,7.895A1.211,1.211,0,0,1,28.341,27.992Z" transform="translate(-6.39 -5.084)" fill="#fff"/>
      <path id="Trazado_162141" data-name="Trazado 162141" d="M44.694,38.743H37.42a1.244,1.244,0,0,1-1.235-1.227c-.1-6.6-4.5-9.433-4.549-9.458a1.244,1.244,0,0,1,1.317-2.1,13.728,13.728,0,0,1,5.653,10.308h4.778c-.254-2.823-1.35-9.67-6.185-12.656A1.244,1.244,0,1,1,38.5,21.5c7.314,4.524,7.437,15.544,7.437,16a1.26,1.26,0,0,1-1.244,1.244Z" transform="translate(-8.328 -6.959)" fill="#fff"/>
      <path id="Trazado_162142" data-name="Trazado 162142" d="M18.735,70.226a1.244,1.244,0,0,1-1.211-.957c-1.407-6.054,2.5-9.13,5.334-10.161a9.5,9.5,0,0,1,7.216-7.6A5.915,5.915,0,0,1,31.53,47.49a6.692,6.692,0,0,1,4.582-1.98,1.244,1.244,0,0,1,0,2.454,4.189,4.189,0,0,0-2.757,1.219,4.091,4.091,0,0,0-.769,3.2,1.235,1.235,0,0,1-1.08,1.35c-.229,0-5.866.875-6.283,6.414a1.244,1.244,0,0,1-.941,1.113A5.858,5.858,0,0,0,19.929,68.7,1.235,1.235,0,0,1,19,70.193,1.08,1.08,0,0,1,18.735,70.226Z" transform="translate(-5.8 -11.37)" fill="#fff"/>
      <path id="Trazado_162143" data-name="Trazado 162143" d="M62.737,56.51a1.235,1.235,0,0,1-1.17-.818c-1.211-3.42-6.193-2.454-6.242-2.454a1.235,1.235,0,0,1-1.448-.957C52.731,46.987,48.149,47.47,48,47.494a1.258,1.258,0,0,1-.254-2.5,7.8,7.8,0,0,1,8.3,5.621c2.626-.18,6.545.5,7.895,4.23a1.244,1.244,0,0,1-1.162,1.636Z" transform="translate(-11.145 -11.268)" fill="#fff"/>
      <path id="Trazado_162144" data-name="Trazado 162144" d="M73.489,55.031a1.235,1.235,0,0,1-.941-.393,6.12,6.12,0,0,0-4.23-2.184,7.633,7.633,0,0,0-4.672,1.833,1.262,1.262,0,1,1-1.734-1.833A9.76,9.76,0,0,1,68.392,50a8.459,8.459,0,0,1,6,2.978,1.244,1.244,0,0,1-.9,2.086Z" transform="translate(-13.856 -12.186)" fill="#fff"/>
      <path id="Trazado_162145" data-name="Trazado 162145" d="M32.888,103.527a1.244,1.244,0,0,1-1.194-1.587c.655-2.258.556-3.976-.278-5.089a4.841,4.841,0,0,0-3.452-1.563,1.227,1.227,0,0,1-1.227-1.415c.3-2.037,0-3.534-.908-4.451-1.448-1.481-4.14-1.17-4.164-1.162a1.244,1.244,0,0,1-1.006-.311,1.26,1.26,0,0,1-.4-.974c.115-2.6-.475-4.483-1.759-5.6-2.021-1.751-5.22-1.178-5.252-1.178a1.211,1.211,0,0,1-1.44-.982,1.227,1.227,0,0,1,.974-1.448c.18,0,4.385-.818,7.363,1.726a8.3,8.3,0,0,1,2.634,6.259,7.306,7.306,0,0,1,4.86,1.923,6.709,6.709,0,0,1,1.718,5.285,6.717,6.717,0,0,1,4.091,2.4c1.334,1.767,1.563,4.213.679,7.265a1.227,1.227,0,0,1-1.235.9Z" transform="translate(-4.81 -17.214)" fill="#fff"/>
      <path id="Trazado_162146" data-name="Trazado 162146" d="M37.544,100.431a1.507,1.507,0,0,1-.27,0,1.244,1.244,0,0,1-.941-1.481,8.9,8.9,0,0,1,3.853-5.22,10.153,10.153,0,0,1,7.363-.974,8.59,8.59,0,0,1,3.273-4.222c2.045-1.3,4.614-1.571,7.649-.818a1.238,1.238,0,0,1-.622,2.4,7.172,7.172,0,0,0-5.727.483,6.463,6.463,0,0,0-2.487,3.821,1.276,1.276,0,0,1-.556.818,1.26,1.26,0,0,1-.982.147c-2.724-.728-4.909-.581-6.635.434a6.422,6.422,0,0,0-2.708,3.632,1.235,1.235,0,0,1-1.211.982Z" transform="translate(-9.27 -18.971)" fill="#fff"/>
      <path id="Trazado_162147" data-name="Trazado 162147" d="M83.233,106.033A1.244,1.244,0,0,1,82,104.9c-.041-.4-.532-3.821-5.4-3.714a1.227,1.227,0,0,1-.924-.376,1.252,1.252,0,0,1-.344-.933c0-.573.147-5.67-4.729-5.972a1.227,1.227,0,0,1-1.162-1.309,1.244,1.244,0,0,1,1.276-1.162c5.138.311,6.782,4.393,7.036,7.314,4.909.4,6.545,3.976,6.684,5.956a1.235,1.235,0,0,1-1.145,1.325Z" transform="translate(-15.296 -19.721)" fill="#fff"/>
      <path id="Trazado_162148" data-name="Trazado 162148" d="M44.222,50.4s-7.846-.957-7.9,3.444c0,0,.237,2.831-2.405,3.019-1.857.131-6.054,1.391-5.637,6.4A3.152,3.152,0,0,1,25.6,64.284c-1.988,0-5.105,5.841-.425,10.513,0,0,0-4.7,4.352-5.612,0,0-.311-5.629,5.547-5.923,5.236-.262,3.952,0,3.952,0s.483-5.563,6.128-5.612l3.273-.131S48.632,51.227,44.222,50.4Z" transform="translate(-6.801 -12.243)" fill="#9af0f0"/>
      <path id="Trazado_162149" data-name="Trazado 162149" d="M40.38,107.373s5,4.246,17.254,3.911,17.688-4.009,17.688-4.009.532-4.573-4.909-3.862a1.906,1.906,0,0,1-2.193-2.242c.188-2.528-.671-6.291-6.545-6.054,0,0-2.626-3.551-6.586-2.454,0,0-3.624.63-3.428,5.481,0,0-.671.818-2.454.237s-5.531-1.874-8.255,2C40.994,100.362,41.8,104.976,40.38,107.373Z" transform="translate(-10.011 -19.907)" fill="#9af0f0"/>
    </g>
  </g>
</svg>
