<svg xmlns="http://www.w3.org/2000/svg" xmlns:xlink="http://www.w3.org/1999/xlink" width="179" height="179" viewBox="0 0 179 179">
  <defs>
    <filter id="Elipse_4365" x="0" y="0" width="179" height="179" filterUnits="userSpaceOnUse">
      <feOffset dy="3" input="SourceAlpha"/>
      <feGaussianBlur stdDeviation="3" result="blur"/>
      <feFlood flood-opacity="0.161"/>
      <feComposite operator="in" in2="blur"/>
      <feComposite in="SourceGraphic"/>
    </filter>
    <clipPath id="clip-path">
      <circle id="Elipse_4063" data-name="Elipse 4063" cx="62" cy="62" r="62" fill="none"/>
    </clipPath>
  </defs>
  <g id="Grupo_73317" data-name="Grupo 73317" transform="translate(-276 -1051)">
    <g transform="matrix(1, 0, 0, 1, 276, 1051)" filter="url(#Elipse_4365)">
      <circle id="Elipse_4365-2" data-name="Elipse 4365" cx="80.5" cy="80.5" r="80.5" transform="translate(9 6)" fill="#fff"/>
    </g>
    <g id="Capa_2" data-name="Capa 2" transform="translate(304 1076)">
      <g id="Grupo_73325" data-name="Grupo 73325">
        <circle id="Elipse_4063-2" data-name="Elipse 4063" cx="62" cy="62" r="62" fill="#7e5ee3"/>
        <g id="Grupo_73324" data-name="Grupo 73324" clip-path="url(#clip-path)">
          <g id="Grupo_73323" data-name="Grupo 73323">
            <path id="Trazado_145485" data-name="Trazado 145485" d="M60,80.6c0,1.07.86,2.6,1.05,3.55A2.39,2.39,0,0,1,58.86,87l-4.49.59.43-6.13Z" fill="#ffbb83"/>
            <path id="Trazado_145486" data-name="Trazado 145486" d="M57.58,81.77a13.05,13.05,0,0,0,.69,2.62,2.11,2.11,0,0,1-1.74,2.83l-1.69.23,2-6Z" fill="#ff9d66"/>
            <path id="Trazado_145487" data-name="Trazado 145487" d="M55.74,84.71c-1.51,1.57-3.89,1.83-4.47,2.42-.34.37-.19,1.16.32,1.06s3.6-.78,3.6-.78Z" fill="#ff9d66"/>
            <path id="Trazado_145488" data-name="Trazado 145488" d="M57.33,80.81a1.94,1.94,0,0,0-3,1.3c-.31,2.37-1,5.15-.85,5.43s1.46.37,1.58-.19a13.52,13.52,0,0,1,1.74-3.87c.22-.24,1.25-1.89.86-2.38a1.78,1.78,0,0,0-.33-.29Z" fill="#ffbb83"/>
            <g id="Grupo_73318" data-name="Grupo 73318">
              <path id="Trazado_145489" data-name="Trazado 145489" d="M-.74,104.32c.55.24,2.67.92,3,2.69l3-.29c-1.66-.93-2.93-3.11-5-3.54C-1.11,102.88-1.31,104.07-.74,104.32Z" fill="#ffbb83"/>
              <path id="Trazado_145490" data-name="Trazado 145490" d="M3.71,110.42l3.71-3.08c-2.6-.15-3-1.77-5.44-2.17a6,6,0,0,1-4.16.61c-1-.26-1.84,3.77-.88,4.62a11.15,11.15,0,0,0,5.68.61,2.13,2.13,0,0,0,1.09-.59Z" fill="#ffbb83"/>
              <path id="Trazado_145491" data-name="Trazado 145491" d="M-5.68,108.48a13,13,0,0,0,6.13.67L-.88,110.5a12.94,12.94,0,0,1-4.92-.63C-7.11,109.46-6.31,108.29-5.68,108.48Z" fill="#ffbb83"/>
            </g>
            <path id="Trazado_145492" data-name="Trazado 145492" d="M86.29,52.87c-6.41-5.34-24.59-29-24.59-29l5.51-4.5c11.43,8.59,22.44,19.22,28.55,21.42Z" fill="#0bdffa"/>
            <path id="Trazado_145493" data-name="Trazado 145493" d="M129.82,110.47,108.23,99.89C106.76,93.3,112.45,78.8,113.5,72s1.14-15.7-1.5-21.48c-4.85-10.46-27.41-11.91-26.69-9s2.25,25.15.15,34.75c-1.8,8.2-4.74,14.81-7.87,23.69L91.1,111.17h38.79Z" fill="#0bdffa"/>
            <path id="Trazado_145494" data-name="Trazado 145494" d="M129.82,110.47,108.23,99.89C106.76,93.3,112.45,78.8,113.5,72s1.14-15.7-1.5-21.48c-.93-2-10.1,2.64-12.38,18.58-2.71,18.9-7.09,34.05-16.41,31.28-.58-.17-5.09-.16-5.62-.44h0L91.1,111.15h38.79Z" fill="#08a7bc"/>
            <path id="Trazado_145495" data-name="Trazado 145495" d="M88.54,96.35l2.65-8.32.99.18-1,9.76Z" fill="#08a7bc"/>
            <path id="Trazado_145496" data-name="Trazado 145496" d="M88.3,86.9l3.33,2.03,3.26-.99-3.2.06Z" fill="#08a7bc"/>
            <path id="Trazado_145497" data-name="Trazado 145497" d="M55.9,45.36,51.18,64.91s4.6,5.39,5.78,7.84c1.32,2.76,9.26-.38,9.39-3S63.88,57.76,55.9,45.36Z" fill="#0bdffa"/>
            <path id="Trazado_145498" data-name="Trazado 145498" d="M53,57.22l-1.86,7.69s4.6,5.39,5.78,7.84c.64,1.33,3.2,1.73,5.69,1.5a18.4,18.4,0,0,0-2-9A17,17,0,0,0,53,57.22Z" fill="#08a7bc"/>
            <path id="Trazado_145499" data-name="Trazado 145499" d="M54.76,58.68c2.3-3,2.26-13.7-.21-14.85-1.28-.6-12.92-1-19.82,3.83C28,52.34,24.14,62.05,22.64,69.59h0c-1.66,6.41.11,17.83,5.49,33l26.75-5.88s-3.2-11.16-3.82-18.33C50.75,71,52.61,61.52,54.76,58.68Z" fill="#0bdffa"/>
            <path id="Trazado_145500" data-name="Trazado 145500" d="M38.13,45.82a12.46,12.46,0,0,0,.55,1.88c2,5.25,7.22,8.13,11.66,6.43,3.49-1.33,5.45-5.11,5.15-9.21a2.16,2.16,0,0,0-.94-1.09C53.46,43.32,44.91,43,38.13,45.82Z" fill="#08a7bc"/>
            <path id="Trazado_145501" data-name="Trazado 145501" d="M48.86,52.32c2.9-.57,3.85-5,2.36-8.83h0a26.5,26.5,0,0,0-7.05.61C39.49,45.29,44.4,53.2,48.86,52.32Z" fill="#efd4a5"/>
            <path id="Trazado_145502" data-name="Trazado 145502" d="M43,84.46c-1.54-5.48.54-13,2.37-19.56,1.58-5.68,3.07-11,2-14.15l.45-.16c1.12,3.25-.39,8.69-2,14.44C44,71.57,42,79,43.46,84.33Z" fill="#efd4a5"/>
            <path id="Trazado_145503" data-name="Trazado 145503" d="M55,58.36C49.12,66,51.89,88.47,42,83.65a6.48,6.48,0,0,1-4-4.4c-2.92-8.75,2.45-20,1.56-22.54-.83-2.36-12.37-9.15-16.74,11.93l-.21,1c-1.66,6.41-1.33,18.5,5,35l27.23-7.81s-2.83-10.94-3.45-18.1C51.24,74.14,53.06,62,55,58.36Z" fill="#08a7bc"/>
            <path id="Trazado_145504" data-name="Trazado 145504" d="M23.56,83.43A41.38,41.38,0,0,1,23.75,65c-.33,1.12-.63,2.32-.9,3.63l-.21,1c-1.66,6.41-1.33,18.5,5,35L33.32,103a39.57,39.57,0,0,1-9.76-19.57Z" fill="#06707d"/>
            <path id="Trazado_145505" data-name="Trazado 145505" d="M43.53,100.38,42.02,90.02l.84.01,4.62,10.18Z" fill="#06707d"/>
            <path id="Trazado_145506" data-name="Trazado 145506" d="M37.7,89.45l5.1,1.48,3.86-2.51-4.52,1.27Z" fill="#06707d"/>
            <path id="Trazado_145507" data-name="Trazado 145507" d="M14.93,111.15H53.57l-11-17.43s-12.55,4-25.76,9.41C18.42,104.35,16.16,110,14.93,111.15Z" fill="#ffb845"/>
            <path id="Trazado_145508" data-name="Trazado 145508" d="M39.8,100.25,38.66,95c-4.73,1.6-13.15,4.55-21.87,8.12.48.36.19,2.76.12,3.66Z" fill="#f7b242"/>
            <path id="Trazado_145509" data-name="Trazado 145509" d="M19.88,101.89l-3.09,1.24c1.63,1.22-.63,6.91-1.86,8h2.78a15.87,15.87,0,0,0,1.81-3.88A11.52,11.52,0,0,0,19.88,101.89Z" fill="#ffe7b0"/>
            <path id="Trazado_145510" data-name="Trazado 145510" d="M18.06,107.74a9.54,9.54,0,0,0,.23-5.21,187.141,187.141,0,0,0-17.58,8l-.08.66H16.39A13.64,13.64,0,0,0,18.06,107.74Z" fill="#ffbb83"/>
            <path id="Trazado_145511" data-name="Trazado 145511" d="M13.22,108.37C8.66,109.78.63,111.15.63,111.15H16.39a13.64,13.64,0,0,0,1.67-3.41,12,12,0,0,0,.31-1.25,54,54,0,0,1-5.15,1.88Z" fill="#ff9d66"/>
            <path id="Trazado_145512" data-name="Trazado 145512" d="M64.74,86.36c-12.2-.36,2.72,24.79,2.72,24.79h57l.16-.33S77,86.73,64.74,86.36Z" fill="#12263f"/>
            <path id="Trazado_145513" data-name="Trazado 145513" d="M77.2,99.5S63.11,95.42,60.72,88.7c-2.16,6.39,7.19,22.15,7.19,22.15h57l.16-.33Z" fill="#0e1d2f"/>
            <path id="Trazado_145514" data-name="Trazado 145514" d="M28.87,101.78l2.71,9.37H82.07a12.62,12.62,0,0,0,2.16-5.67c1-7.32-5.59-19.4-19.65-19.81C52.37,85.31,34.66,93.89,28.87,101.78Z" fill="#ffb845"/>
            <path id="Trazado_145515" data-name="Trazado 145515" d="M64.58,85.67c-12.21-.36-29.92,8.22-35.71,16.11l6-.59c1.55,4.16,7.76,4.82,14.11,4.12,3-.32.88-10.2,4.19-9.37,6.71,1.69,22.08,1.75,26.62-3.27A20.26,20.26,0,0,0,64.58,85.67Z" fill="#fad18e"/>
            <path id="Trazado_145516" data-name="Trazado 145516" d="M71.78,101.47c-8-3.4-16.42-6.13-21.34-6.27-8.35-.24-15,12.49-10.57,16h23Z" fill="#f7b242"/>
            <path id="Trazado_145517" data-name="Trazado 145517" d="M54.25,108.06a37.86,37.86,0,0,1-16-3.63c-.76,2.52,0,5.51,1.57,6.72h23l3.38-4.74A41.45,41.45,0,0,1,54.25,108.06Z" fill="#b98632"/>
            <path id="Trazado_145518" data-name="Trazado 145518" d="M37.22,103.75c1.46-3.28,1.15-6.6-.69-7.42s-4.52,1.18-6,4.46-1.16,6.6.68,7.42S35.76,107,37.22,103.75Z" fill="#ffe7b0"/>
            <path id="Trazado_145519" data-name="Trazado 145519" d="M32.61,98.46C28.78,101.67,31,106.9,31,106.9s5.75-.75,5.55-6.49C36.48,98.56,34,97.27,32.61,98.46Z" fill="#ff9d66"/>
            <path id="Trazado_145520" data-name="Trazado 145520" d="M124.76,111.15h-1.64s2.1-4.4,2.5-4.58S124.76,111.15,124.76,111.15Z" fill="#e8ce9a"/>
            <path id="Trazado_145521" data-name="Trazado 145521" d="M27.51,78.1c-3.55-2.21-3.75-3.78-3.75-3.78l2.72-2.42Z" fill="#efd4a5"/>
            <path id="Trazado_145522" data-name="Trazado 145522" d="M58.77,73.69c-4-1.1-4.68-2.55-4.68-2.55L56,68Z" fill="#efd4a5"/>
            <path id="Trazado_145523" data-name="Trazado 145523" d="M41.27,52.62c-.09-3.54-7.47-5.65-12.1.64-5.58,7.6-5,17.53-2.89,23.12l11.09-3.45C35.81,65.36,41.35,56.15,41.27,52.62Z" fill="#0bdffa"/>
            <path id="Trazado_145524" data-name="Trazado 145524" d="M103.82,47.54c-2.35,8.15-6.7,44.95-6.7,44.95l5.75,3S114,65.91,113.74,58.34C113.36,46.75,104.72,44.39,103.82,47.54Z" fill="#0bdffa"/>
            <path id="Trazado_145525" data-name="Trazado 145525" d="M71.78,101.47c-1.38-.59-2.77-1.15-4.15-1.69-6,1-11.76,6.62-9.55,11.3a.14.14,0,0,1,0,.07h4.81Z" fill="#ffe7b0"/>
            <path id="Trazado_145526" data-name="Trazado 145526" d="M60.8,108.93a4.66,4.66,0,0,0,.58,2.22H89.22v-.9a204.061,204.061,0,0,0-18.39-9.18C64.91,102.49,60.8,105.48,60.8,108.93Z" fill="#ffbb83"/>
            <path id="Trazado_145527" data-name="Trazado 145527" d="M78.22,109.87a115.19,115.19,0,0,1-17-2.78,4.55,4.55,0,0,0-.4,1.84,4.66,4.66,0,0,0,.58,2.22H89.22l-3.45-.73a59.22,59.22,0,0,1-7.55-.55Z" fill="#ff9d66"/>
            <path id="Trazado_145528" data-name="Trazado 145528" d="M27.94,110.59c-5.88,1.44-8.25-3.9-7.24-7.13s8.69-7.78,9.86-7.78,5.09,3,4,7C33.78,105.65,30.88,109.88,27.94,110.59Z" fill="#ffbb83"/>
            <path id="Trazado_145529" data-name="Trazado 145529" d="M32,105.2h0l-1.45-1.83s-1.42,5-4.71,4.63c-2-.23-4.31-6.26-5.43-3.86-1.51,3.23,2.24,8.09,7.58,6.78,2.13-.52,4.65-3.22,5.5-5.57C33.4,104.64,32.79,104.76,32,105.2Z" fill="#963e2d"/>
            <path id="Trazado_145530" data-name="Trazado 145530" d="M32.4,105.84c.47-1,.44-2,0-2.19s-1.27.38-1.73,1.35-.44,2,.05,2.19S31.94,106.82,32.4,105.84Z" fill="#ffbb83"/>
            <path id="Trazado_145531" data-name="Trazado 145531" d="M47.11,51c-2.73-1.24-3.87-4.77-3.08-6.3S49.17,40,49.17,40Z" fill="#ed7656"/>
            <path id="Trazado_145532" data-name="Trazado 145532" d="M53.52,48.27c3.78-3.18,5.35-6.29,4.85-8.16s-4.22,2.56-4.22,2.56Z" fill="#963e2d"/>
            <path id="Trazado_145533" data-name="Trazado 145533" d="M45.26,47c.52-5.78,4.25-9.24,7.77-8.84,4.11.47,4.79,3.64,3.88,6.27s-4.14,7.07-5.73,7.83C50.06,52.83,44.86,51.64,45.26,47Z" fill="#ffbb83"/>
            <path id="Trazado_145534" data-name="Trazado 145534" d="M45.83,43.82c.3-2.58,1.86-8.33,5.44-9.15,5.15-1.17,7.19,3.49,7.13,5.66-.08,3.19-3.54,2.94-6.72-.38C49.13,37.29,45.83,43.82,45.83,43.82Z" fill="#963e2d"/>
            <path id="Trazado_145535" data-name="Trazado 145535" d="M47.45,44.29c1.23-2.9,2.71-5.39,4.63-3.94L52,37.79l-3.94.9L46.1,43.2Z" fill="#963e2d"/>
            <path id="Trazado_145536" data-name="Trazado 145536" d="M47.66,42.62c.29-1.09.09-2.08-.43-2.22S46,41,45.76,42.12s-.09,2.09.43,2.22S47.37,43.71,47.66,42.62Z" fill="#ffbb83"/>
            <path id="Trazado_145537" data-name="Trazado 145537" d="M24.8,71.69a20.86,20.86,0,0,0,1.48,4.69l11.09-3.45a14.52,14.52,0,0,1-.27-2.55,9.68,9.68,0,0,0-5.34-1.52,9.56,9.56,0,0,0-6.96,2.83Z" fill="#ffedca"/>
            <path id="Trazado_145538" data-name="Trazado 145538" d="M41.62,87.65c-9.21-3-14.6-8.14-15.34-11.27s8-6.82,11.09-3.45,8.22,12.45,8.22,12.45Z" fill="#ffbb83"/>
            <path id="Trazado_145539" data-name="Trazado 145539" d="M66.35,69.78a8.6,8.6,0,0,0,0-3.22A8,8,0,0,0,61,64.46a7.28,7.28,0,0,0-6.67,5A30.849,30.849,0,0,1,57,72.75C58.28,75.51,66.22,72.37,66.35,69.78Z" fill="#ffedca"/>
            <path id="Trazado_145540" data-name="Trazado 145540" d="M60.16,81.63c.53-2,6.34-9.44,6.14-12.16s-8.8-2.25-10.14,1.47c-1.24,3.46-1.85,11.17-1.85,11.17Z" fill="#ffbb83"/>
            <path id="Trazado_145541" data-name="Trazado 145541" d="M56.76,75.19A27,27,0,0,1,60.26,68c-1.86.45-3.56,1.42-4.1,2.91a44.561,44.561,0,0,0-1.55,8.2C54.41,80.86,55.91,77.77,56.76,75.19Z" fill="#ff9d66"/>
            <path id="Trazado_145542" data-name="Trazado 145542" d="M30.6,52.68l-.5,1a16.38,16.38,0,0,1,7.18,1.84l.38-.88C34.93,52.67,30.6,52.68,30.6,52.68Z" fill="#ffedca"/>
            <path id="Trazado_145543" data-name="Trazado 145543" d="M33.93,71.78l.21-.18c-3.71-.18-8.41,2.46-7.86,4.78.74,3.13,6.13,8.31,15.34,11.27l-.13-1.74C41.15,84.89,31.77,74.11,33.93,71.78Z" fill="#ff9d66"/>
            <path id="Trazado_145544" data-name="Trazado 145544" d="M38.98,62.4l5.79.74L43.7,67.13l-5.55-.33Z" fill="#08a7bc"/>
            <path id="Trazado_145545" data-name="Trazado 145545" d="M39.39,62.31l5.31.68-.98,3.66-5.09-.31Z" fill="#efd4a5"/>
            <path id="Trazado_145546" data-name="Trazado 145546" d="M47.15,42.46c.16-.62.05-1.18-.25-1.26s-.67.36-.83,1,0,1.18.24,1.26S47,43.08,47.15,42.46Z" fill="#ed7656"/>
            <path id="Trazado_145547" data-name="Trazado 145547" d="M46.85,43.15c.12-.44,0-.84-.17-.89s-.47.25-.59.69,0,.83.17.89S46.74,43.58,46.85,43.15Z" fill="#ffbb83"/>
            <path id="Trazado_145548" data-name="Trazado 145548" d="M96.89,93a37.079,37.079,0,0,1-4,5.76c-.55.68.81,1.85,1.65,1.09s1.61-2.42,2.76-2.48,2.77-3.87,2.77-3.87Z" fill="#ffbb83"/>
            <path id="Trazado_145549" data-name="Trazado 145549" d="M85.36,76.45c3.39-10.11,3.72-23.38,2.9-26.09-1-3.17-9.64-9.74-24.57-28.53l-2,2s18.13,23.61,24.57,29c.36,7.86.37,17.79-.86,23.4Z" fill="#08a7bc"/>
            <path id="Trazado_145550" data-name="Trazado 145550" d="M61,22.47l2.93,4.93s5.27-2.41,7.74-5.27L66.5,18.31Z" fill="#ffedca"/>
            <path id="Trazado_145551" data-name="Trazado 145551" d="M66,18.21c.42-3.29,1.31-7,.74-7.8s-2.39-1-2.39-1l-.63,5.17Z" fill="#ffbb83"/>
            <path id="Trazado_145552" data-name="Trazado 145552" d="M61.51,22.94a9.13,9.13,0,0,1-6.12-5.51c-.59-1.62.26-6.31.26-6.31L65.11,13l1.74,5.75a9.93,9.93,0,0,1-5.34,4.19Z" fill="#ffbb83"/>
            <path id="Trazado_145553" data-name="Trazado 145553" d="M61.52,3a10.48,10.48,0,0,0-8.88,2.9A56.19,56.19,0,0,0,58.7,19.23a14.49,14.49,0,0,0,8.87-2.9A45.79,45.79,0,0,0,61.52,3Z" fill="#efe8ce"/>
            <path id="Trazado_145554" data-name="Trazado 145554" d="M63.12,10.12A32.43,32.43,0,0,1,54.3,9a49.88,49.88,0,0,0,4.57,9.45,13,13,0,0,0,7.92-2.58,38.46,38.46,0,0,0-2.05-5.81Q63.94,10.12,63.12,10.12Z" fill="#f982bd"/>
            <path id="Trazado_145555" data-name="Trazado 145555" d="M54.58,14.25c-1.22-2.07-.86-3.48-.22-4s5-.51,5.42,0,.15,2-.57,2.06-3.1.19-3.1.19l.58,2Z" fill="#ffbb83"/>
            <path id="Trazado_145556" data-name="Trazado 145556" d="M55.36,16.76c-1.27-2.21-.89-3.59-.23-4s5.19.09,5.58.66.15,2-.59,2-3.19-.18-3.19-.18l.6,2.09Z" fill="#ffbb83"/>
            <path id="Trazado_145557" data-name="Trazado 145557" d="M56.39,19.28c-1.47-2.27-1.21-3.62-.58-4s5.27.37,5.72,1,.32,2-.43,2-3.24-.35-3.24-.35L58.64,20Z" fill="#ffbb83"/>
            <path id="Trazado_145558" data-name="Trazado 145558" d="M95.74,53.08c4.1,1.22,9.57-1.79,12.77-6.84C104.39,42.85,98.1,41,93.1,40.43,90.23,46.15,91.38,51.78,95.74,53.08Z" fill="#08a7bc"/>
            <path id="Trazado_145559" data-name="Trazado 145559" d="M93.09,81.38l-.46-.14c.71-2.23.85-6.18,1-10.74.25-7.18.57-16.12,3.44-21.52l.43.22c-2.82,5.31-3.13,14.18-3.39,21.31C94,75.12,93.82,79.09,93.09,81.38Z" fill="#efd4a5"/>
            <path id="Trazado_145560" data-name="Trazado 145560" d="M96.92,49.79c-2.9-.57-4.07-4.3-2.58-8.11h0a26.93,26.93,0,0,1,7.05.61C106.07,43.48,101.38,50.66,96.92,49.79Z" fill="#efd4a5"/>
            <path id="Trazado_145561" data-name="Trazado 145561" d="M97.25,48.47a4.29,4.29,0,0,0,4.28-5.6c-.79-1.52-5.14-4.67-5.14-4.67C95.55,42.37,92.88,48.31,97.25,48.47Z" fill="#ed7656"/>
            <path id="Trazado_145562" data-name="Trazado 145562" d="M90.67,37.29c-3.58.1-1.8-6.68,4.44-6.84a5.29,5.29,0,0,1,4.22,1.66c2.58,3.1,1.32,9.65,1.32,9.65l-1-.46s-3.42-5.83-4.41-6.2S90.67,37.29,90.67,37.29Z" fill="#d34124"/>
            <path id="Trazado_145563" data-name="Trazado 145563" d="M99.82,43.74c.48-5.21-2.32-9.71-5.59-10-3.81-.29-5,2.41-4.55,4.89s2.58,7.53,3.91,8.48C94.52,47.83,99.44,47.87,99.82,43.74Z" fill="#ffbb83"/>
            <path id="Trazado_145564" data-name="Trazado 145564" d="M97.14,33.07c-2,1.08,1,8,1,8l1.87-.25C99.6,37.63,100.54,34.39,97.14,33.07Z" fill="#d34124"/>
            <path id="Trazado_145565" data-name="Trazado 145565" d="M100.32,39.72c0-1.17-.44-2.12-1-2.12s-1,.95-1,2.12.43,2.13,1,2.13S100.32,40.9,100.32,39.72Z" fill="#ffbb83"/>
            <path id="Trazado_145566" data-name="Trazado 145566" d="M100,39.85c0-.73-.27-1.32-.61-1.32s-.6.59-.6,1.32.27,1.31.6,1.31S100,40.57,100,39.85Z" fill="#ed7656"/>
            <ellipse id="Elipse_4524" data-name="Elipse 4524" cx="0.39" cy="0.84" rx="0.39" ry="0.84" transform="translate(98.97 39.6)" fill="#ffbb83"/>
            <path id="Trazado_145567" data-name="Trazado 145567" d="M93.96,80.78l-1.91-.5-.48,1.63,1.91.49Z" fill="#efd4a5"/>
            <path id="Trazado_145568" data-name="Trazado 145568" d="M96.76,34.33c-3.7,2.47-6.49,4-7.64,2.24s2.17-5.4,4.85-5A3.07,3.07,0,0,1,96.76,34.33Z" fill="#d34124"/>
            <path id="Trazado_145569" data-name="Trazado 145569" d="M93.83,59.85l-5.84-.47-.05,4.01,5.5.81Z" fill="#08a7bc"/>
            <path id="Trazado_145570" data-name="Trazado 145570" d="M91.52,58.09l-1.1-.12-.19,1.97,1.29.23Z" fill="#08a7bc"/>
            <path id="Trazado_145571" data-name="Trazado 145571" d="M91.35,57.92l-1-.04-.07,1.32.94.15Z" fill="#efd4a5"/>
            <path id="Trazado_145572" data-name="Trazado 145572" d="M93.35,59.77l-5.07-.4-.04,3.46,4.77.7Z" fill="#efd4a5"/>
            <path id="Trazado_145573" data-name="Trazado 145573" d="M77.62,105.85C65.77,94.86,61.79,72.06,68.76,55c8.34-20.4-4.93-37.37-5.07-37.54l.37-.31c.14.17,13.59,17.37,5.13,38-6.89,16.86-3,39.41,8.75,50.27Z" fill="#efe8ce"/>
            <path id="Trazado_145574" data-name="Trazado 145574" d="M78.21,106.56l-1.14-.71.71-.96,1.17,1.26Z" fill="#efe8ce"/>
            <path id="Trazado_145575" data-name="Trazado 145575" d="M79.65,107.04l-1.32-.65.3-.33Z" fill="#efe8ce"/>
            <path id="Trazado_145576" data-name="Trazado 145576" d="M61.71,7.5a11.666,11.666,0,0,0,1.79-.09,45.209,45.209,0,0,0-2.31-4,9.2,9.2,0,0,0-7.07,1.91C55.45,6.61,58.35,7.5,61.71,7.5Z" fill="#fff9e6"/>
            <g id="Grupo_73319" data-name="Grupo 73319">
              <path id="Trazado_145577" data-name="Trazado 145577" d="M27.64,101.28a1.87,1.87,0,0,0-.92-.16c-.07.07.25.25.7.4a1.72,1.72,0,0,0,.93.15C28.41,101.61,28.09,101.43,27.64,101.28Z" fill="#ed7656"/>
              <path id="Trazado_145578" data-name="Trazado 145578" d="M24.9,99.89c-.33-.25-.67-.39-.74-.32s.14.33.47.58.67.4.74.33S25.24,100.14,24.9,99.89Z" fill="#ed7656"/>
              <path id="Trazado_145579" data-name="Trazado 145579" d="M25.38,103.1l1.38.82a.39.39,0,0,0,.51-.11l.23-.32a.32.32,0,0,0-.09-.48L26,102.19a.39.39,0,0,0-.51.11l-.23.32a.32.32,0,0,0,.12.48Z" fill="#963e2d"/>
              <path id="Trazado_145580" data-name="Trazado 145580" d="M22.29,101.2l1,.87a.31.31,0,0,0,.44-.08l.22-.31a.34.34,0,0,0,0-.47l-1-.88a.3.3,0,0,0-.44.09l-.22.3A.36.36,0,0,0,22.29,101.2Z" fill="#963e2d"/>
              <path id="Trazado_145581" data-name="Trazado 145581" d="M26.09,100.11l.22-.09c.2-.69.67-1.76,1.3-1a.18.18,0,0,1,.05-.07C26.77,97.45,26.16,99.64,26.09,100.11Z" fill="#ed7656"/>
              <path id="Trazado_145582" data-name="Trazado 145582" d="M29.81,98l-.22.13c-.8.41-1.54.44-1.65.07s.36-.91,1.06-1.32Z" fill="#492e36"/>
            </g>
            <g id="Grupo_73320" data-name="Grupo 73320">
              <path id="Trazado_145583" data-name="Trazado 145583" d="M94.58,40.8c-.12-.45,0-.87.23-.95s.53.21.65.65a.9.9,0,0,1-.24,1C94.98,41.63,94.69,41.24,94.58,40.8Z" fill="#604748"/>
              <path id="Trazado_145584" data-name="Trazado 145584" d="M90.89,41.18c-.12-.44,0-.82.25-.85s.56.29.67.72,0,.82-.25.86S91,41.62,90.89,41.18Z" fill="#604748"/>
              <path id="Trazado_145585" data-name="Trazado 145585" d="M96,39.59l-.13-.27a.34.34,0,0,0-.45-.11l-1.55.69c-.21.1-.3.29-.19.44l.2.27a.44.44,0,0,0,.53.06l1.4-.67a.28.28,0,0,0,.19-.41Z" fill="#d34124"/>
              <path id="Trazado_145586" data-name="Trazado 145586" d="M91.94,40l-1.53-.35c-.19,0-.33.05-.33.22v.32a.46.46,0,0,0,.35.38L92,41c.19.05.34,0,.33-.22v-.33a.48.48,0,0,0-.39-.45Z" fill="#d34124"/>
              <path id="Trazado_145587" data-name="Trazado 145587" d="M93.26,41.65l.18.21c-.19.66-.29,1.61.72,1.42a.22.22,0,0,1,0,.08C92.59,43.84,93.06,42.1,93.26,41.65Z" fill="#ed7656"/>
              <path id="Trazado_145588" data-name="Trazado 145588" d="M95.59,43.94a2.47,2.47,0,0,1,.19.49l-2.58.72-.08-.21C93.81,44.69,95.59,43.94,95.59,43.94Z" fill="#ed7656"/>
              <path id="Trazado_145589" data-name="Trazado 145589" d="M94.43,45.27a.62.62,0,0,1,.55,0c.07.09-.06.22-.29.3a.689.689,0,0,1-.54,0C94.08,45.51,94.2,45.34,94.43,45.27Z" fill="#ed7656"/>
            </g>
            <g id="Grupo_73321" data-name="Grupo 73321">
              <path id="Trazado_145590" data-name="Trazado 145590" d="M51.53,45.26c.23-.42.26-.89.08-1s-.52,0-.75.45-.26.89-.08,1.05S51.3,45.68,51.53,45.26Z" fill="#604748"/>
              <path id="Trazado_145591" data-name="Trazado 145591" d="M54.48,46.92c.23-.41.25-.84,0-1s-.57.11-.8.52-.25.84,0,1S54.25,47.33,54.48,46.92Z" fill="#604748"/>
              <path id="Trazado_145592" data-name="Trazado 145592" d="M52.73,44.46l-.88-1.34a.39.39,0,0,0-.51-.12l-.35.19a.33.33,0,0,0-.12.47L51.75,45a.4.4,0,0,0,.51.13l.35-.19a.32.32,0,0,0,.12-.48Z" fill="#963e2d"/>
              <path id="Trazado_145593" data-name="Trazado 145593" d="M55.46,45.32l-1.37-.13a.35.35,0,0,0-.36.3l-.06.35a.29.29,0,0,0,.25.35l1.37.13a.35.35,0,0,0,.36-.3l.06-.35a.28.28,0,0,0-.25-.35Z" fill="#963e2d"/>
              <path id="Trazado_145594" data-name="Trazado 145594" d="M52.42,46.59l-.23.14c0,.76-.22,1.77-1,1.23a.24.24,0,0,0,0,.08C52.34,49.07,52.46,47.12,52.42,46.59Z" fill="#ed7656"/>
              <path id="Trazado_145595" data-name="Trazado 145595" d="M49.72,48.15c-.07.13-.25.31-.3.44l2.15,1.61C51.61,50.15,49.72,48.15,49.72,48.15Z" fill="#ed7656"/>
              <path id="Trazado_145596" data-name="Trazado 145596" d="M50.33,49.91c-.17-.15-.39-.22-.48-.15s0,.24.16.39.39.23.48.16S50.51,50.07,50.33,49.91Z" fill="#ed7656"/>
            </g>
            <g id="Grupo_73322" data-name="Grupo 73322">
              <path id="Trazado_145597" data-name="Trazado 145597" d="M91.06,104.14c-.56.24-2.68.92-3,2.69l-2.54-.26a6.7,6.7,0,0,1,4.34-3.71C91.27,102.56,91.62,103.89,91.06,104.14Z" fill="#ffbb83"/>
              <path id="Trazado_145598" data-name="Trazado 145598" d="M86.91,110.42l-4.25-3.73c2.93.62,3.35-1,6-1.52a6,6,0,0,0,4.17.61c1-.26,1.84,3.77.88,4.62A11.19,11.19,0,0,1,88,111,2.09,2.09,0,0,1,86.91,110.42Z" fill="#ffbb83"/>
              <path id="Trazado_145599" data-name="Trazado 145599" d="M94.73,104.55a5.72,5.72,0,0,1-4,1.38l1.46,1.25A6.65,6.65,0,0,0,95.67,106C96.43,105.37,95.09,104.27,94.73,104.55Z" fill="#ffbb83"/>
              <path id="Trazado_145600" data-name="Trazado 145600" d="M96.49,106a7.81,7.81,0,0,1-4.78,1.22l1.5,1.28A7.7,7.7,0,0,0,97,107.46C98,106.92,96.94,105.79,96.49,106Z" fill="#ffbb83"/>
              <path id="Trazado_145601" data-name="Trazado 145601" d="M96.29,108.48a13,13,0,0,1-6.12.67l1.32,1.35a12.89,12.89,0,0,0,4.92-.63C97.73,109.46,96.93,108.29,96.29,108.48Z" fill="#ffbb83"/>
            </g>
            <path id="Trazado_145602" data-name="Trazado 145602" d="M40,86c.47.9.47,2.61.75,3.52.42,1.37,1.8,1.9,3.36,1.31l4.35-1.93L44.81,84Z" fill="#ff9d66"/>
            <path id="Trazado_145603" data-name="Trazado 145603" d="M41,85.15a27.811,27.811,0,0,1,1.9,3.31c.42,1.36,1.8,1.9,3.35,1.31l1.63-.72-4.87-4Z" fill="#ffbb83"/>
            <path id="Trazado_145604" data-name="Trazado 145604" d="M45.66,87.19c2.17.52,4.4-.54,5.25-.35.51.12.83.89.33,1.08s-3.65,1.28-3.65,1.28Z" fill="#ff9d66"/>
            <path id="Trazado_145605" data-name="Trazado 145605" d="M43.66,82.1c2.12,2.39,6.8,5.38,6.77,5.74s-1.09.81-1.54.51a19.639,19.639,0,0,0-4.23-1.9c-.38-.08-2.63-.83-2.78-1.44C41.56,83.72,43.66,82.1,43.66,82.1Z" fill="#ffbb83"/>
            <path id="Trazado_145606" data-name="Trazado 145606" d="M97,97.25c1.11.84-.19,7.61.29,8s1.42.88,1.54,0,2-8.11.93-9.38S97,97.25,97,97.25Z" fill="#ffbb83"/>
            <path id="Trazado_145607" data-name="Trazado 145607" d="M99.42,98.19c1.11.83-.19,7.61.29,8s1.42.88,1.54,0,2-8.12.94-9.39S99.42,98.19,99.42,98.19Z" fill="#ffbb83"/>
            <path id="Trazado_145608" data-name="Trazado 145608" d="M100.9,97.25c1.2.69.72,7.58,1.25,7.91s1.51.7,1.53-.15,1-8.3-.2-9.44S100.9,97.25,100.9,97.25Z" fill="#ffbb83"/>
            <path id="Trazado_145609" data-name="Trazado 145609" d="M103,95.41a2.3,2.3,0,1,0-.67,1.633A2.31,2.31,0,0,0,103,95.41Z" fill="#ffbb83"/>
            <path id="Trazado_145610" data-name="Trazado 145610" d="M96.76,92.97l.52-4.33,8.23.95-1.48,6.85Z" fill="#ffedca"/>
          </g>
        </g>
      </g>
    </g>
  </g>
</svg>
