<svg xmlns="http://www.w3.org/2000/svg" width="102" height="101" viewBox="0 0 102 101">
  <g id="Capa_2" data-name="Capa 2" transform="translate(0.258)">
    <ellipse id="Elipse_4903" data-name="Elipse 4903" cx="51" cy="50.5" rx="51" ry="50.5" transform="translate(-0.258)" fill="#987ee9"/>
    <g id="Grupo_75234" data-name="Grupo 75234" transform="translate(2.667 2.667)">
      <g id="Grupo_75233" data-name="Grupo 75233">
        <path id="Trazado_162095" data-name="Trazado 162095" d="M51.317,99.374A48.057,48.057,0,1,1,99.374,51.317,48.057,48.057,0,0,1,51.317,99.374Zm0-93.635A45.578,45.578,0,1,0,96.895,51.317,45.578,45.578,0,0,0,51.317,5.739Z" transform="translate(-3.26 -3.26)" fill="#fff"/>
        <path id="Trazado_162096" data-name="Trazado 162096" d="M31.24,48.543A1.235,1.235,0,0,1,30,47.324c-.041-2.88,0-5.964.057-9.179V25.488a1.244,1.244,0,0,1,2.454,0V38.177c-.057,3.207-.057,6.267-.057,9.106a1.235,1.235,0,0,1-1.219,1.26Z" transform="translate(-8.12 -7.113)" fill="#fff"/>
        <path id="Trazado_162097" data-name="Trazado 162097" d="M57.534,96.926c-11.5,0-19.635-5.441-23.562-15.79a1.239,1.239,0,1,1,2.315-.884C39.993,90,47.52,94.774,58.606,94.431a1.24,1.24,0,1,1,.082,2.479C58.295,96.926,57.91,96.926,57.534,96.926Z" transform="translate(-8.831 -17.118)" fill="#fff"/>
        <path id="Trazado_162098" data-name="Trazado 162098" d="M47.73,42.774a7.079,7.079,0,0,1-1.014-.049,10.047,10.047,0,0,1-6.021-2.61,1.238,1.238,0,1,1,1.7-1.8,7.625,7.625,0,0,0,4.549,1.939,7.363,7.363,0,0,0,5.3-1.44A1.239,1.239,0,0,1,53.8,40.745a9.711,9.711,0,0,1-6.071,2.029Z" transform="translate(-9.998 -9.574)" fill="#fff"/>
        <path id="Trazado_162099" data-name="Trazado 162099" d="M74.57,42.774q-.5,0-1.006-.049a10.087,10.087,0,0,1-6.03-2.61,1.238,1.238,0,1,1,1.7-1.8,7.65,7.65,0,0,0,4.549,1.939,7.363,7.363,0,0,0,5.3-1.44,1.239,1.239,0,0,1,1.554,1.931A9.678,9.678,0,0,1,74.57,42.774Z" transform="translate(-14.879 -9.574)" fill="#fff"/>
        <path id="Trazado_162100" data-name="Trazado 162100" d="M44.055,109.934a1.08,1.08,0,0,1-.417-.082,1.227,1.227,0,0,1-.744-1.579,106.806,106.806,0,0,0,3.42-11.683,1.257,1.257,0,1,1,2.454.54,109.63,109.63,0,0,1-3.51,11.986,1.252,1.252,0,0,1-1.2.818Z" transform="translate(-10.455 -20.055)" fill="#fff"/>
        <path id="Trazado_162101" data-name="Trazado 162101" d="M91.714,48.543h0a1.244,1.244,0,0,1-1.227-1.26c0-2.847,0-5.907-.057-9.073V25.488a1.244,1.244,0,0,1,2.454,0V38.177c.082,3.174.1,6.259.057,9.147A1.227,1.227,0,0,1,91.714,48.543Z" transform="translate(-19.114 -7.113)" fill="#fff"/>
        <path id="Trazado_162102" data-name="Trazado 162102" d="M61.66,96.959a24.847,24.847,0,0,1-2.667-.147,1.244,1.244,0,0,1-1.1-1.366,1.219,1.219,0,0,1,1.366-1.1c12.812,1.374,20.142-8.615,22.229-14.1a1.239,1.239,0,0,1,2.315.884C81.631,86.839,74.341,96.959,61.66,96.959Z" transform="translate(-13.194 -17.118)" fill="#fff"/>
        <path id="Trazado_162103" data-name="Trazado 162103" d="M78.163,109.934A1.244,1.244,0,0,1,77,109.116a110.675,110.675,0,0,1-3.518-11.986,1.257,1.257,0,0,1,2.454-.54,110.138,110.138,0,0,0,3.428,11.683,1.235,1.235,0,0,1-.745,1.579A1.121,1.121,0,0,1,78.163,109.934Z" transform="translate(-16.026 -20.055)" fill="#fff"/>
        <path id="Trazado_162104" data-name="Trazado 162104" d="M55.144,81.69h0c-13.974-.221-22.343-6.61-23.112-7.24s-7.142-5.342-6.463-18.964a5.138,5.138,0,0,1,1.5-3.608,4.279,4.279,0,0,1,3.493-.982c14.579,1.636,23.726-5.571,23.807-5.637a1.239,1.239,0,0,1,1.563,1.923c-.4.327-9.981,7.895-25.64,6.177a1.939,1.939,0,0,0-1.554.352,2.765,2.765,0,0,0-.687,1.833c-.63,12.7,5.154,16.706,5.4,16.87l.106.074c.074.065,8.181,6.488,21.615,6.7a1.244,1.244,0,0,1,0,2.454Z" transform="translate(-7.308 -10.848)" fill="#fff"/>
        <path id="Trazado_162105" data-name="Trazado 162105" d="M61.585,81.7a1.244,1.244,0,0,1,0-2.454c13.442-.213,21.533-6.635,21.615-6.7l.106-.082c.245-.155,6.03-4.164,5.4-16.8a2.823,2.823,0,0,0-.7-1.9,1.914,1.914,0,0,0-1.546-.352c-15.683,1.694-25.256-5.874-25.656-6.2a1.236,1.236,0,0,1,1.554-1.923c.09.065,9.228,7.24,23.816,5.637a4.279,4.279,0,0,1,3.493.982,5.261,5.261,0,0,1,1.481,3.731c.7,13.5-5.727,18.318-6.455,18.817s-9.089,7.02-23.088,7.24Z" transform="translate(-13.643 -10.854)" fill="#fff"/>
        <path id="Trazado_162106" data-name="Trazado 162106" d="M42.16,24.172a117.238,117.238,0,0,1-15.544-1.137,1.244,1.244,0,0,1,.327-2.454c34.648,4.647,39.6-6.471,39.646-6.545a1.244,1.244,0,0,1,2.3.933C68.7,15.369,64.806,24.172,42.16,24.172Z" transform="translate(-7.332 -5.093)" fill="#fff"/>
        <path id="Trazado_162107" data-name="Trazado 162107" d="M89.372,23.725c-4.222,0-10.284-1.505-13.7-9.163a1.244,1.244,0,1,1,2.266-1.006c4.68,10.513,14.906,7.363,15.34,7.191a1.239,1.239,0,1,1,.769,2.356,17.033,17.033,0,0,1-4.68.622Z" transform="translate(-16.403 -4.982)" fill="#fff"/>
      </g>
      <path id="Trazado_162108" data-name="Trazado 162108" d="M22.716,28.57V45.121s-4.639,2.814-3.812,9.76,1.514,14.571,7.478,19.365c0,0,1.309,7.281,9.752,11.585l-2.978,6.79S9.11,76.373,10.133,54.39c0,0,.663-17.549,10.758-26.18Z" transform="translate(-4.504 -7.798)" fill="#9af0f0"/>
      <path id="Trazado_162109" data-name="Trazado 162109" d="M95.581,28.57V45.121s4.639,2.814,3.812,9.76S97.88,69.452,91.932,74.246c0,0-1.309,7.281-9.752,11.585l2.978,6.79s24.028-16.248,23.006-38.231c0,0-.663-17.549-10.758-26.18Z" transform="translate(-17.613 -7.798)" fill="#9af0f0"/>
    </g>
  </g>
</svg>
