<svg xmlns="http://www.w3.org/2000/svg" xmlns:xlink="http://www.w3.org/1999/xlink" width="822" height="402" viewBox="0 0 822 402">
  <defs>
    <linearGradient id="linear-gradient" y1="0.5" x2="1" y2="0.5" gradientUnits="objectBoundingBox">
      <stop offset="0" stop-color="#12263f"/>
      <stop offset="1" stop-color="#416a7d"/>
    </linearGradient>
  </defs>
  <g id="Capa_2" data-name="Capa 2" transform="translate(-82.79 -61.37)">
    <g id="Grupo_73348" data-name="Grupo 73348">
      <rect id="Rect치ngulo_32326" data-name="Rect치ngulo 32326" width="820" height="400" rx="12" transform="translate(82.79 63.37)" fill="#bdbdbd"/>
      <rect id="Rect치ngulo_32327" data-name="Rect치ngulo 32327" width="820" height="400" rx="12" transform="translate(84.79 61.37)" fill="#cdeefd"/>
      <g id="Grupo_73344" data-name="Grupo 73344">
        <path id="Trazado_145695" data-name="Trazado 145695" d="M466.43,125.3c0-14.76,11.6-26.72,25.91-26.72s25.93,12,25.93,26.72S506.66,152,492.34,152,466.43,140.07,466.43,125.3ZM577.26,257.74l-26.52-85.38a12.86,12.86,0,0,0-2.06-5.22c-1.63-5.14-6-8.82-11.23-8.76l-45.15.48-45.07-.48c-5.18-.06-9.59,3.62-11.23,8.76a12.711,12.711,0,0,0-2.05,5.22l-26.52,89.18a11.86,11.86,0,0,0,9.93,13.78A12.42,12.42,0,0,0,431,264.72l25.12-80.14h.92v85a5.271,5.271,0,0,0,.53,2.2V403.64c0,6.8,7.17,12.32,16,12.32s16-5.52,16-12.32v-121h5.47v121c0,6.8,7.16,12.32,16,12.32s16-5.52,16-12.32V271.85a5.419,5.419,0,0,0,.53-2.2v-85h.91l25.12,76.33a12.41,12.41,0,0,0,13.69,10.6,11.84,11.84,0,0,0,9.97-13.84Z" fill="#717d8c"/>
        <path id="Trazado_145696" data-name="Trazado 145696" d="M468.53,125a26.9,26.9,0,1,1,26.89,26.83A26.9,26.9,0,0,1,468.53,125ZM582.15,256.72,556,172.2a12.6,12.6,0,0,0-2.14-5.24,12.32,12.32,0,0,0-11.65-8.79l-46.84.48-46.77-.48A12.31,12.31,0,0,0,437,167a12.49,12.49,0,0,0-2.13,5.23L408.5,260.45a12,12,0,0,0,10.3,13.83c6.76.88,11.95-2.64,13-9.39l26.06-80.42h.95v85.36a5.15,5.15,0,0,0,.55,2.2V404.31c0,6.82,7.44,12.36,16.6,12.36s16.6-5.54,16.6-12.36V282.9h5.68V404.31c0,6.82,7.43,12.36,16.59,12.36s16.6-5.54,16.6-12.36V272a5.149,5.149,0,0,0,.55-2.2V184.48h1l26,76.6c1.08,6.75,6.07,10.35,12.83,9.47a11.94,11.94,0,0,0,10.34-13.83Z" fill="#b3e5fc"/>
        <path id="Trazado_145697" data-name="Trazado 145697" d="M469.56,123.16c0-14.74,11.5-26.68,25.68-26.68s25.68,11.94,25.68,26.68-11.5,26.69-25.68,26.69S469.56,137.9,469.56,123.16ZM579.35,255.37l-26.26-85.23a12.88,12.88,0,0,0-2-5.21c-1.61-5.13-6-8.81-11.13-8.75l-44.72.48-44.65-.48c-5.12-.06-9.5,3.62-11.12,8.75a12.88,12.88,0,0,0-2,5.21l-26.26,89A11.82,11.82,0,0,0,421,272.93a12.32,12.32,0,0,0,13.56-10.59l24.88-80h.91v84.92a5.329,5.329,0,0,0,.52,2.19V401c0,6.79,7.1,12.3,15.85,12.3s15.85-5.51,15.85-12.3V280.26h5.42V401c0,6.79,7.09,12.3,15.85,12.3s15.85-5.51,15.85-12.3V269.46a5.381,5.381,0,0,0,.53-2.19V182.35h.9L556,258.55a12.33,12.33,0,0,0,13.56,10.58,11.82,11.82,0,0,0,9.79-13.76Z" fill="url(#linear-gradient)"/>
      </g>
      <circle id="Elipse_4525" data-name="Elipse 4525" cx="62.5" cy="62.5" r="62.5" transform="translate(115.9 89.53)" fill="#0bdffa"/>
      <g id="Grupo_73345" data-name="Grupo 73345">
        <path id="Trazado_145698" data-name="Trazado 145698" d="M163.31,154.56l-1.91.49a1.3,1.3,0,0,0,.32,2.55,1.169,1.169,0,0,0,.32,0l1.92-.49a1.3,1.3,0,0,0-.65-2.51Z" fill="#fff"/>
        <path id="Trazado_145699" data-name="Trazado 145699" d="M169.19,139.82a1.28,1.28,0,0,0,1.09.61,1.32,1.32,0,0,0,.69-.2,1.3,1.3,0,0,0,.41-1.79l-1-1.67a1.3,1.3,0,1,0-2.2,1.38Z" fill="#fff"/>
        <path id="Trazado_145700" data-name="Trazado 145700" d="M184.86,139.67a1.27,1.27,0,0,0,.6.15,1.32,1.32,0,0,0,1.15-.7l.91-1.75a1.293,1.293,0,0,0-2.29-1.2l-.92,1.75a1.29,1.29,0,0,0,.55,1.75Z" fill="#fff"/>
        <path id="Trazado_145701" data-name="Trazado 145701" d="M191.74,156.1a1.3,1.3,0,0,0,.86,1.62l1.89.57a1.292,1.292,0,1,0,.76-2.47l-1.89-.58a1.3,1.3,0,0,0-1.62.86Z" fill="#fff"/>
        <path id="Trazado_145702" data-name="Trazado 145702" d="M192.58,161.89,191,160.64a1.29,1.29,0,0,0-1.63,2l1.53,1.25a1.306,1.306,0,0,0,1.68-2Z" fill="#fff"/>
        <path id="Trazado_145703" data-name="Trazado 145703" d="M177.12,165.92a1.29,1.29,0,0,0-1.41,1.17l-.18,2a1.29,1.29,0,0,0,1.17,1.41h.12a1.28,1.28,0,0,0,1.28-1.17l.19-2A1.31,1.31,0,0,0,177.12,165.92Z" fill="#fff"/>
        <path id="Trazado_145704" data-name="Trazado 145704" d="M221.13,148.48c-.43-.44-.88-.88-1.34-1.32A1.29,1.29,0,1,0,218,149c.45.42.88.85,1.29,1.27a2.49,2.49,0,0,1,0,3.47A68.88,68.88,0,0,1,203,165.85a58.591,58.591,0,0,1-10.68,4.47,23,23,0,0,0,0-36.55,65.79,65.79,0,0,1,21.16,11.36,1.29,1.29,0,1,0,1.61-2C208.53,137.85,195,129,178.4,129a54.57,54.57,0,0,0-25.83,6.89,71.279,71.279,0,0,0-16.9,12.55,5.08,5.08,0,0,0,0,7.1,68.768,68.768,0,0,0,8.22,7.07,1.28,1.28,0,0,0,.76.25,1.32,1.32,0,0,0,1-.52,1.29,1.29,0,0,0-.28-1.81,67.26,67.26,0,0,1-7.91-6.8,2.49,2.49,0,0,1,0-3.47,68.581,68.581,0,0,1,16.28-12.09,59.249,59.249,0,0,1,10.68-4.46,23,23,0,0,0,0,36.53,60.591,60.591,0,0,1-14.07-6.39A1.312,1.312,0,1,0,149,166.1c9.54,5.84,19.7,8.93,29.39,8.93a54.69,54.69,0,0,0,25.83-6.89,71.249,71.249,0,0,0,16.9-12.56,5.08,5.08,0,0,0,.01-7.1ZM158,152a20.41,20.41,0,1,1,20.41,20.41A20.41,20.41,0,0,1,158,152Z" fill="#fff"/>
        <path id="Trazado_145705" data-name="Trazado 145705" d="M195.14,146.34a6.31,6.31,0,0,0-10.66-4.57,11.93,11.93,0,1,0,5.84,10.71,6.33,6.33,0,0,0,4.82-6.14Zm-16.74,15A9.34,9.34,0,1,1,183,143.9a6.25,6.25,0,0,0-.49,2.44,6.32,6.32,0,0,0,5.21,6.22,9.35,9.35,0,0,1-9.32,8.81Zm6.7-15a3.73,3.73,0,1,1,3.72,3.73,3.73,3.73,0,0,1-3.72-3.73Z" fill="#fff"/>
      </g>
      <circle id="Elipse_4526" data-name="Elipse 4526" cx="62.5" cy="62.5" r="62.5" transform="translate(748.04 89.53)" fill="#0bdffa"/>
      <circle id="Elipse_4527" data-name="Elipse 4527" cx="62.5" cy="62.5" r="62.5" transform="translate(115.9 298.89)" fill="#0bdffa"/>
      <path id="Trazado_145706" data-name="Trazado 145706" d="M176.91,314.73a1.35,1.35,0,0,0,1.35-1.35v-9.12a1.36,1.36,0,0,0-2.71,0v9.12a1.35,1.35,0,0,0,1.36,1.35Zm-25.24,9.67a1.354,1.354,0,1,0,1.91-1.92L147.13,316a1.354,1.354,0,0,0-1.91,1.92Zm-9.1,22h-9.12a1.35,1.35,0,1,0,0,2.7h9.12a1.35,1.35,0,0,0,0-2.7Zm9.1,24.67-6.45,6.45a1.351,1.351,0,0,0,1.91,1.91l6.45-6.44a1.354,1.354,0,0,0-1.91-1.92Zm50.47,0a1.354,1.354,0,0,0-1.91,1.92l6.45,6.44a1.351,1.351,0,0,0,1.91-1.91Zm18.22-24.67h-9.12a1.35,1.35,0,1,0,0,2.7h9.12a1.35,1.35,0,0,0,0-2.7ZM206.68,316l-6.45,6.45a1.354,1.354,0,0,0,1.91,1.92l6.45-6.45a1.354,1.354,0,1,0-1.91-1.92Zm-3.05,29a27,27,0,0,0-26.72-27.1,26.453,26.453,0,0,0-14.493,4.322,27.08,27.08,0,0,0-9.677,11.2,1.353,1.353,0,1,0,2.45,1.15A24,24,0,0,1,200.92,345a24.45,24.45,0,0,1-6.8,17c-2.52,2.64-4.68,5.16-5.23,8.69H165.28c-.7-3.67-3.2-6.24-5.45-8.55A24.44,24.44,0,0,1,152.89,345a25,25,0,0,1,.45-4.74,1.35,1.35,0,1,0-2.65-.52,27.51,27.51,0,0,0,7.2,24.31c2.85,2.93,4.87,5.27,4.87,8.7h0l.08,7.94a7.11,7.11,0,0,0,3.43,6.09v1.49A6.76,6.76,0,0,0,173,395h8.3a6.77,6.77,0,0,0,6.76-6.76v-1.49a7.13,7.13,0,0,0,3.43-6.09s0-8.84,0-8.93c.25-3.13,2.15-5.36,4.59-7.9A27.17,27.17,0,0,0,203.63,345Zm-18.25,43.3a4.06,4.06,0,0,1-4,4.05H173a4.06,4.06,0,0,1-4.06-4.05v-.53a6.611,6.611,0,0,0,1,.08h14.43a6.4,6.4,0,0,0,1-.08Zm-1-3.16H170a4.43,4.43,0,0,1-4.42-4.42v-.09h13.71a1.35,1.35,0,1,0,0-2.7H165.54V373.4h23.23v4.51h-3.25a1.35,1.35,0,1,0,0,2.7h3.25v.09a4.42,4.42,0,0,1-4.38,4.42Zm1.31-40a1.354,1.354,0,1,0,2.14,1.66l2.67-3.45a4.323,4.323,0,1,0-6.83-5.3l-8.74,11.25-5-5.55a4.33,4.33,0,1,0-6.42,5.8L172,359a4.35,4.35,0,0,0,6.63-.25l5.36-6.89a1.354,1.354,0,1,0-2.14-1.66l-5.35,6.9a1.65,1.65,0,0,1-2.49.09l-8.48-9.38a1.625,1.625,0,0,1,2.41-2.18l6.1,6.75a1.36,1.36,0,0,0,2.07-.08l9.72-12.53a1.63,1.63,0,0,1,2.57,2Z" fill="#fff"/>
      <g id="Grupo_73346" data-name="Grupo 73346">
        <path id="Trazado_145707" data-name="Trazado 145707" d="M800,106.15a29.25,29.25,0,0,0-29.22,29.21v42.58a19.82,19.82,0,0,0,3.32,11,1.35,1.35,0,1,0,2.24-1.49,17.08,17.08,0,0,1-2.87-9.53V135.36a26.528,26.528,0,1,1,53.055,0c-.005,13.89-5.215,20.87-10.735,28.25-3.76,5-7.64,10.24-9.76,17.71-1.43,5-3.33,8.57-5.8,10.78s-5.34,3.12-9.29,3.12a17.46,17.46,0,0,1-10.61-3.52,1.343,1.343,0,1,0-1.61,2.15,20.12,20.12,0,0,0,12.22,4.06c9.12,0,14.57-4.89,17.68-15.85,2-7,5.55-11.78,9.32-16.84,5.54-7.41,11.27-15.07,11.27-29.86A29.25,29.25,0,0,0,800,106.15Z" fill="#fff"/>
        <path id="Trazado_145708" data-name="Trazado 145708" d="M810.85,122.1a19.47,19.47,0,0,0-31.63,15.23,1.35,1.35,0,1,0,2.69,0,16.65,16.65,0,0,1,1.86-7.67c2.93-1.93,9.45-1.54,14.14,2,6.46,4.81,5.05,12,3.63,15.83a1.33,1.33,0,0,0,.8,1.72,1.25,1.25,0,0,0,.46.09,1.34,1.34,0,0,0,1.26-.88,18.07,18.07,0,0,0,.8-11.42,14.42,14.42,0,0,0-5.35-7.5,18.62,18.62,0,0,0-13.15-3.5,16.78,16.78,0,0,1,22.82-1.75,17,17,0,0,1,5.87,9.19,1.342,1.342,0,1,0,2.61-.63A19.59,19.59,0,0,0,810.85,122.1Z" fill="#fff"/>
        <path id="Trazado_145709" data-name="Trazado 145709" d="M783.7,170.06a9.93,9.93,0,0,0,8.26,6.8,12.629,12.629,0,0,0,1.59.11,9.58,9.58,0,0,0,6.86-2.81,26.448,26.448,0,0,0,4.53-6.61,31.447,31.447,0,0,1,1.76-3h0c.92-1.44,1.91-2.87,2.87-4.26,4.16-6,8.09-11.72,8.57-21a1.342,1.342,0,0,0-2.68-.14c-.45,8.51-4.17,13.9-8.11,19.61-1,1.4-2,2.85-2.91,4.33-.65,1-1.24,2.07-1.87,3.23-2.31,4.26-4.69,8.66-10.27,7.93a7.3,7.3,0,0,1-6.07-5,7.58,7.58,0,0,1,1.72-7.88,7.39,7.39,0,0,0-5.23-12.61,1.35,1.35,0,0,0,0,2.69,4.7,4.7,0,0,1,3.32,8,10.26,10.26,0,0,0-2.34,10.61Z" fill="#fff"/>
        <path id="Trazado_145710" data-name="Trazado 145710" d="M832,156.68a22.26,22.26,0,0,1,6.56-15.84,1.344,1.344,0,0,0-1.9-1.9,25.08,25.08,0,0,0,0,35.48,1.344,1.344,0,1,0,1.9-1.9A22.26,22.26,0,0,1,832,156.68Z" fill="#fff"/>
        <path id="Trazado_145711" data-name="Trazado 145711" d="M848.08,156.68a6.29,6.29,0,0,1,1.86-4.48,1.344,1.344,0,1,0-1.9-1.9,9,9,0,0,0,0,12.76,1.36,1.36,0,0,0,1,.4,1.345,1.345,0,0,0,1-2.3A6.29,6.29,0,0,1,848.08,156.68Z" fill="#fff"/>
        <path id="Trazado_145712" data-name="Trazado 145712" d="M844.27,144.62a1.36,1.36,0,0,0-1.91,0,17,17,0,0,0,0,24.12,1.35,1.35,0,1,0,1.91-1.9,14.34,14.34,0,0,1,0-20.32A1.35,1.35,0,0,0,844.27,144.62Z" fill="#fff"/>
      </g>
      <g id="Grupo_73347" data-name="Grupo 73347">
        <circle id="Elipse_4528" data-name="Elipse 4528" cx="62.5" cy="62.5" r="62.5" transform="translate(748.04 288.75)" fill="#0bdffa"/>
        <path id="Trazado_145713" data-name="Trazado 145713" d="M861.28,384.38l-6.71-6.71a1.513,1.513,0,0,0-2.14,2.14l6.71,6.71a1.5,1.5,0,0,0,1.07.45,1.52,1.52,0,0,0,1.07-2.59Zm-63.89-17.83a1.52,1.52,0,1,0,3,0v-2.33a5.93,5.93,0,0,0-.55-11.27,5.92,5.92,0,0,0-5-9,5.871,5.871,0,0,0,.76-2.89,5.94,5.94,0,0,0-5.93-5.93h-2.91a5.94,5.94,0,0,0-5.17-8.83h-.08a1.52,1.52,0,0,0,0,3h.08a2.9,2.9,0,1,1,0,5.8h-6.94a2.9,2.9,0,0,1-.26-5.78,1.52,1.52,0,0,0-.27-3,5.84,5.84,0,0,0-2.21.64l-10-10a1.52,1.52,0,0,0-2.15,2.14l9.87,9.87a6,6,0,0,0,5,9.15h.75a5.92,5.92,0,0,0,5.17,8.82h.08a5.93,5.93,0,0,0,5.17,8.83h1.94a5.92,5.92,0,0,0,5.17,8.82h4.46v1.95ZM777.67,341a2.9,2.9,0,0,1,2.9-2.9h9.1a2.9,2.9,0,1,1,0,5.79h-9.1A2.9,2.9,0,0,1,777.67,341Zm5.25,8.82a2.9,2.9,0,0,1,2.9-2.9h9a2.9,2.9,0,1,1,0,5.8h-9a2.9,2.9,0,0,1-2.9-2.87Zm7.11,8.83a2.9,2.9,0,0,1,2.9-2.9h5.39a2.9,2.9,0,0,1,0,5.79h-5.39a2.9,2.9,0,0,1-2.93-2.86Zm62,4.45a6.7,6.7,0,0,0-2-4.84l-8.79-8.79a15.56,15.56,0,0,0-5.62-3.58L823.8,341.6l-4.32-11.83a15.559,15.559,0,0,0-3.58-5.62l-7.31-7.31a6.77,6.77,0,0,0-11.2,2.63L779,300a1.514,1.514,0,0,0-2.2,2.08l36.77,38.83a1.5,1.5,0,0,0,.58.38l20.49,7.48a12.429,12.429,0,0,1,4.51,2.88l8.79,8.78a3.741,3.741,0,1,1-5.29,5.29l-7.33-7.35a1.55,1.55,0,0,0-1.66-.33,1.53,1.53,0,0,0-.93,1.4v26a2.9,2.9,0,1,1-5.8,0V376.3a1.52,1.52,0,1,0-3,0v6.78a2.89,2.89,0,0,1-3,2.9,3,3,0,0,1-2.79-3v-9.71a1.52,1.52,0,1,0-3,0v7.44a2.9,2.9,0,0,1-5.8,0v-9.63a1.52,1.52,0,1,0-3,0V376a2.89,2.89,0,0,1-3,2.9,3,3,0,0,1-2.79-3v-2.05a1.52,1.52,0,0,0-3,0v2.05a6,6,0,0,0,5.71,6,5.9,5.9,0,0,0,3.13-.75,5.94,5.94,0,0,0,5.91,5.5,5.84,5.84,0,0,0,3.46-1.12,6,6,0,0,0,5.15,3.49,5.88,5.88,0,0,0,3.65-1.1,5.94,5.94,0,0,0,5.39,3.46,5.88,5.88,0,0,0,1.93-.32l11.49,11.48a1.48,1.48,0,0,0,1.07.45,1.52,1.52,0,0,0,1.07-2.59l-11.24-11.1a5.87,5.87,0,0,0,1.45-3.87V363.11l11.58,11.57a1.51,1.51,0,0,0,1.07.44,1.55,1.55,0,0,0,1.07-.44,1.51,1.51,0,0,0,0-2.14l-2.84-2.84a6.77,6.77,0,0,0,3.37-1.77,6.7,6.7,0,0,0,2-4.8Zm-51.9-40.84a3.74,3.74,0,0,1,6.33-3.3l7.3,7.3a12.391,12.391,0,0,1,2.88,4.52l3.45,9.43-4.6-1.67Z" fill="#fff"/>
      </g>
      <path id="Trazado_145714" data-name="Trazado 145714" d="M395.96,124.52H284.07V104.31h-.32l-31.71,50.22,31.71,50.2h.32V184.52H395.96Z" fill="#08a7bc"/>
      <path id="Trazado_145715" data-name="Trazado 145715" d="M395.96,326.46H284.07V306.25h-.32l-31.71,50.21,31.71,50.21h.32V386.46H395.96Z" fill="#08a7bc"/>
      <path id="Trazado_145716" data-name="Trazado 145716" d="M592.04,124.52H703.92V104.31h.33l31.71,50.22-31.71,50.2h-.33V184.52H592.04Z" fill="#08a7bc"/>
      <path id="Trazado_145717" data-name="Trazado 145717" d="M592.04,326.46H703.92V306.25h.33l31.71,50.21-31.71,50.21h-.33V386.46H592.04Z" fill="#08a7bc"/>
      <path id="Trazado_163246" data-name="Trazado 163246" d="M13.6-7.126a9.013,9.013,0,0,1-.779,3.866A5.869,5.869,0,0,1,10.587-.7a6.169,6.169,0,0,1-3.327.9A6.211,6.211,0,0,1,3.948-.687,5.926,5.926,0,0,1,1.692-3.235a8.755,8.755,0,0,1-.81-3.809v-.738a8.965,8.965,0,0,1,.795-3.881,5.917,5.917,0,0,1,2.246-2.574,6.177,6.177,0,0,1,3.317-.9,6.177,6.177,0,0,1,3.317.9A5.917,5.917,0,0,1,12.8-11.664,8.94,8.94,0,0,1,13.6-7.793ZM10.479-7.8a6.283,6.283,0,0,0-.841-3.568,2.74,2.74,0,0,0-2.4-1.22,2.741,2.741,0,0,0-2.389,1.2A6.211,6.211,0,0,0,4-7.854v.728A6.361,6.361,0,0,0,4.84-3.579,2.733,2.733,0,0,0,7.26-2.317,2.708,2.708,0,0,0,9.639-3.532a6.324,6.324,0,0,0,.841-3.543ZM25.635-5.445A6.718,6.718,0,0,1,24.5-1.287,3.77,3.77,0,0,1,21.318.205a3.464,3.464,0,0,1-2.881-1.384L18.3,0H15.637V-15.75H18.6v5.65a3.375,3.375,0,0,1,2.7-1.2,3.8,3.8,0,0,1,3.184,1.492,6.728,6.728,0,0,1,1.154,4.2Zm-2.963-.226a4.438,4.438,0,0,0-.533-2.463,1.8,1.8,0,0,0-1.589-.777A1.954,1.954,0,0,0,18.6-7.748v4.392a1.981,1.981,0,0,0,1.969,1.172A1.83,1.83,0,0,0,22.456-3.6,7.343,7.343,0,0,0,22.671-5.671Zm10.8,2.6a.955.955,0,0,0-.538-.856A6.115,6.115,0,0,0,31.2-4.481q-3.958-.831-3.958-3.363A3.049,3.049,0,0,1,28.47-10.31a4.943,4.943,0,0,1,3.2-.99,5.32,5.32,0,0,1,3.379.995,3.135,3.135,0,0,1,1.266,2.584H33.356a1.434,1.434,0,0,0-.41-1.051,1.736,1.736,0,0,0-1.282-.415,1.774,1.774,0,0,0-1.159.338,1.068,1.068,0,0,0-.41.861.913.913,0,0,0,.467.795,4.8,4.8,0,0,0,1.574.523,12.856,12.856,0,0,1,1.866.5A3.066,3.066,0,0,1,36.35-3.189a2.894,2.894,0,0,1-1.3,2.456,5.618,5.618,0,0,1-3.363.938,5.867,5.867,0,0,1-2.476-.5,4.155,4.155,0,0,1-1.7-1.364A3.169,3.169,0,0,1,26.9-3.527h2.81a1.547,1.547,0,0,0,.584,1.21,2.318,2.318,0,0,0,1.456.42,2.146,2.146,0,0,0,1.287-.323A1,1,0,0,0,33.469-3.066Zm9.9,3.271a5.447,5.447,0,0,1-3.973-1.5,5.321,5.321,0,0,1-1.533-3.989v-.287A6.7,6.7,0,0,1,38.5-8.557a4.741,4.741,0,0,1,1.83-2.03,5.137,5.137,0,0,1,2.7-.713,4.6,4.6,0,0,1,3.584,1.436,5.833,5.833,0,0,1,1.307,4.071v1.21H40.862a2.753,2.753,0,0,0,.866,1.743,2.619,2.619,0,0,0,1.83.656,3.2,3.2,0,0,0,2.676-1.241l1.456,1.63a4.449,4.449,0,0,1-1.8,1.471A5.921,5.921,0,0,1,43.364.205Zm-.338-9.116a1.852,1.852,0,0,0-1.43.6,3.093,3.093,0,0,0-.7,1.71h4.122V-6.84a2.206,2.206,0,0,0-.533-1.529A1.91,1.91,0,0,0,43.025-8.911Zm12.817.595A8.051,8.051,0,0,0,54.776-8.4a2.171,2.171,0,0,0-2.2,1.138V0H49.608V-11.095h2.8l.082,1.323A2.746,2.746,0,0,1,54.961-11.3a3.105,3.105,0,0,1,.923.133Zm5.973,4.7,2.061-7.475h3.1L63.231,0H60.4L56.658-11.095h3.1ZM74.341,0a3.291,3.291,0,0,1-.3-.995,3.586,3.586,0,0,1-2.8,1.2,3.939,3.939,0,0,1-2.7-.943,3.034,3.034,0,0,1-1.072-2.379,3.135,3.135,0,0,1,1.307-2.707,6.451,6.451,0,0,1,3.779-.954H73.92v-.636a1.828,1.828,0,0,0-.395-1.23,1.553,1.553,0,0,0-1.246-.461,1.766,1.766,0,0,0-1.174.359,1.219,1.219,0,0,0-.426.984H67.717a2.977,2.977,0,0,1,.595-1.784,3.931,3.931,0,0,1,1.682-1.287,6.129,6.129,0,0,1,2.44-.467,4.842,4.842,0,0,1,3.256,1.031,3.605,3.605,0,0,1,1.2,2.9v4.809a5.3,5.3,0,0,0,.441,2.389V0ZM71.89-2.061a2.552,2.552,0,0,0,1.21-.292,1.919,1.919,0,0,0,.82-.784V-5.045H72.813q-2.225,0-2.369,1.538l-.01.174a1.186,1.186,0,0,0,.39.913A1.514,1.514,0,0,0,71.89-2.061ZM85.4-8.316A8.051,8.051,0,0,0,84.338-8.4a2.171,2.171,0,0,0-2.2,1.138V0H79.17V-11.095h2.8l.082,1.323A2.746,2.746,0,0,1,84.523-11.3a3.105,3.105,0,0,1,.923.133Z" transform="translate(290.11 158.17)" fill="#fff"/>
      <path id="Trazado_163245" data-name="Trazado 163245" d="M13.053-4.973a5.283,5.283,0,0,1-1.779,3.794A6.248,6.248,0,0,1,7.044.205,5.618,5.618,0,0,1,2.528-1.728,7.925,7.925,0,0,1,.882-7.034v-.913a8.95,8.95,0,0,1,.759-3.794,5.686,5.686,0,0,1,2.169-2.517,6.075,6.075,0,0,1,3.276-.877,6.087,6.087,0,0,1,4.163,1.384,5.677,5.677,0,0,1,1.825,3.886H10a3.118,3.118,0,0,0-.8-2.1,2.981,2.981,0,0,0-2.107-.651,2.614,2.614,0,0,0-2.3,1.1A6.178,6.178,0,0,0,4-8.09v1.128a6.612,6.612,0,0,0,.733,3.538A2.565,2.565,0,0,0,7.044-2.307a3.037,3.037,0,0,0,2.128-.651,2.941,2.941,0,0,0,.8-2.015Zm1.364-.677a6.58,6.58,0,0,1,.636-2.943,4.654,4.654,0,0,1,1.83-2,5.34,5.34,0,0,1,2.774-.708,5.052,5.052,0,0,1,3.666,1.374,5.514,5.514,0,0,1,1.584,3.732l.021.759a5.8,5.8,0,0,1-1.425,4.1A4.954,4.954,0,0,1,19.677.205a4.979,4.979,0,0,1-3.83-1.538,5.9,5.9,0,0,1-1.43-4.184Zm2.963.21a4.147,4.147,0,0,0,.595,2.418,1.962,1.962,0,0,0,1.7.837,1.966,1.966,0,0,0,1.682-.827,4.538,4.538,0,0,0,.6-2.644,4.106,4.106,0,0,0-.6-2.4,1.967,1.967,0,0,0-1.7-.852,1.934,1.934,0,0,0-1.682.847A4.614,4.614,0,0,0,17.38-5.44Zm12.151-5.655.092,1.241A3.9,3.9,0,0,1,32.813-11.3a2.959,2.959,0,0,1,2.943,1.692A3.809,3.809,0,0,1,39.088-11.3a3.309,3.309,0,0,1,2.687,1.051,4.831,4.831,0,0,1,.882,3.163V0H39.683V-7.092a2.121,2.121,0,0,0-.369-1.382,1.634,1.634,0,0,0-1.3-.437,1.85,1.85,0,0,0-1.846,1.274L36.176,0H33.212V-7.081a2.1,2.1,0,0,0-.379-1.4,1.65,1.65,0,0,0-1.292-.432,1.92,1.92,0,0,0-1.825,1.048V0H26.752V-11.095ZM54.92-5.445a6.654,6.654,0,0,1-1.164,4.107A3.731,3.731,0,0,1,50.613.205,3.456,3.456,0,0,1,47.9-.964V4.266H44.933v-15.36h2.748l.1,1.087a3.483,3.483,0,0,1,2.81-1.292,3.757,3.757,0,0,1,3.189,1.518A6.834,6.834,0,0,1,54.92-5.6Zm-2.963-.226a4.391,4.391,0,0,0-.549-2.4,1.785,1.785,0,0,0-1.594-.843A1.94,1.94,0,0,0,47.9-7.841v4.556a1.972,1.972,0,0,0,1.938,1.1Q51.957-2.184,51.957-5.671ZM62.99-8.316A8.051,8.051,0,0,0,61.923-8.4a2.171,2.171,0,0,0-2.2,1.138V0H56.755V-11.095h2.8l.082,1.323A2.746,2.746,0,0,1,62.108-11.3a3.105,3.105,0,0,1,.923.133ZM69.117.205a5.447,5.447,0,0,1-3.973-1.5A5.321,5.321,0,0,1,63.61-5.281v-.287a6.7,6.7,0,0,1,.646-2.989,4.741,4.741,0,0,1,1.83-2.03,5.137,5.137,0,0,1,2.7-.713,4.6,4.6,0,0,1,3.584,1.436A5.833,5.833,0,0,1,73.68-5.793v1.21H66.615a2.753,2.753,0,0,0,.866,1.743,2.619,2.619,0,0,0,1.83.656,3.2,3.2,0,0,0,2.676-1.241l1.456,1.63a4.449,4.449,0,0,1-1.8,1.471A5.921,5.921,0,0,1,69.117.205Zm-.338-9.116a1.852,1.852,0,0,0-1.43.6,3.093,3.093,0,0,0-.7,1.71h4.122V-6.84a2.206,2.206,0,0,0-.533-1.529A1.91,1.91,0,0,0,68.778-8.911Zm9.311-2.184.092,1.282A3.874,3.874,0,0,1,81.37-11.3,3.219,3.219,0,0,1,84-10.264a4.832,4.832,0,0,1,.882,3.1V0H81.914V-7.112a1.93,1.93,0,0,0-.41-1.372,1.833,1.833,0,0,0-1.364-.426,2.038,2.038,0,0,0-1.876,1.069V0H75.3V-11.095Zm8.572,5.465a6.686,6.686,0,0,1,1.164-4.132A3.776,3.776,0,0,1,91.009-11.3a3.4,3.4,0,0,1,2.676,1.21v-5.66h2.974V0H93.982l-.144-1.179A3.487,3.487,0,0,1,90.988.205a3.766,3.766,0,0,1-3.143-1.543A6.9,6.9,0,0,1,86.661-5.629Zm2.963.211a4.4,4.4,0,0,0,.543,2.4,1.769,1.769,0,0,0,1.579.834,1.982,1.982,0,0,0,1.938-1.164v-4.4a1.954,1.954,0,0,0-1.917-1.164Q89.624-8.911,89.624-5.419ZM104.062.205a5.447,5.447,0,0,1-3.973-1.5,5.321,5.321,0,0,1-1.533-3.989v-.287A6.7,6.7,0,0,1,99.2-8.557a4.741,4.741,0,0,1,1.83-2.03,5.137,5.137,0,0,1,2.7-.713,4.6,4.6,0,0,1,3.584,1.436,5.833,5.833,0,0,1,1.307,4.071v1.21H101.56a2.753,2.753,0,0,0,.866,1.743,2.619,2.619,0,0,0,1.83.656,3.2,3.2,0,0,0,2.676-1.241l1.456,1.63a4.449,4.449,0,0,1-1.8,1.471A5.921,5.921,0,0,1,104.062.205Zm-.338-9.116a1.852,1.852,0,0,0-1.43.6,3.093,3.093,0,0,0-.7,1.71h4.122V-6.84a2.206,2.206,0,0,0-.533-1.529A1.91,1.91,0,0,0,103.724-8.911Zm12.817.595a8.051,8.051,0,0,0-1.066-.082,2.171,2.171,0,0,0-2.2,1.138V0h-2.963V-11.095h2.8l.082,1.323a2.746,2.746,0,0,1,2.471-1.528,3.105,3.105,0,0,1,.923.133Z" transform="translate(274.44 361.85)" fill="#fff"/>
      <path id="Trazado_163247" data-name="Trazado 163247" d="M10.315-6.491H4.409v4.02h6.932V0H1.333V-14.93H11.32v2.492H4.409V-8.88h5.906Zm8.644,3.425a.955.955,0,0,0-.538-.856,6.115,6.115,0,0,0-1.728-.559q-3.958-.831-3.958-3.363a3.049,3.049,0,0,1,1.225-2.466,4.943,4.943,0,0,1,3.2-.99,5.32,5.32,0,0,1,3.379.995A3.135,3.135,0,0,1,21.81-7.721H18.847a1.434,1.434,0,0,0-.41-1.051,1.736,1.736,0,0,0-1.282-.415A1.774,1.774,0,0,0,16-8.849a1.068,1.068,0,0,0-.41.861.913.913,0,0,0,.467.795,4.8,4.8,0,0,0,1.574.523,12.856,12.856,0,0,1,1.866.5,3.066,3.066,0,0,1,2.348,2.984,2.894,2.894,0,0,1-1.3,2.456,5.618,5.618,0,0,1-3.363.938,5.867,5.867,0,0,1-2.476-.5A4.155,4.155,0,0,1,13-1.656a3.169,3.169,0,0,1-.615-1.871H15.2a1.547,1.547,0,0,0,.584,1.21,2.318,2.318,0,0,0,1.456.42,2.146,2.146,0,0,0,1.287-.323A1,1,0,0,0,18.959-3.066Zm9.4.882A1.944,1.944,0,0,0,29.7-2.635a1.581,1.581,0,0,0,.533-1.2h2.779a3.8,3.8,0,0,1-.615,2.066A4.06,4.06,0,0,1,30.736-.313a5.183,5.183,0,0,1-2.323.518,4.817,4.817,0,0,1-3.753-1.512,5.985,5.985,0,0,1-1.374-4.178v-.195A5.917,5.917,0,0,1,24.65-9.772,4.761,4.761,0,0,1,28.393-11.3a4.667,4.667,0,0,1,3.338,1.184,4.193,4.193,0,0,1,1.277,3.153H30.229A2.036,2.036,0,0,0,29.7-8.369a1.778,1.778,0,0,0-1.354-.541,1.785,1.785,0,0,0-1.564.755,4.374,4.374,0,0,0-.528,2.449V-5.4a4.43,4.43,0,0,0,.523,2.465A1.807,1.807,0,0,0,28.362-2.184ZM41.344-1.128A3.716,3.716,0,0,1,38.309.205,3.5,3.5,0,0,1,35.586-.82a4.377,4.377,0,0,1-.959-3v-7.27h2.963v7.176q0,1.735,1.579,1.735a2.14,2.14,0,0,0,2.071-1.047v-7.863h2.974V0H41.426Zm9.721-1.056A1.944,1.944,0,0,0,52.4-2.635a1.581,1.581,0,0,0,.533-1.2h2.779a3.8,3.8,0,0,1-.615,2.066A4.06,4.06,0,0,1,53.438-.313a5.183,5.183,0,0,1-2.323.518,4.817,4.817,0,0,1-3.753-1.512,5.985,5.985,0,0,1-1.374-4.178v-.195a5.917,5.917,0,0,1,1.364-4.091A4.761,4.761,0,0,1,51.1-11.3a4.667,4.667,0,0,1,3.338,1.184,4.193,4.193,0,0,1,1.277,3.153H52.931A2.036,2.036,0,0,0,52.4-8.369a1.778,1.778,0,0,0-1.354-.541,1.785,1.785,0,0,0-1.564.755,4.374,4.374,0,0,0-.528,2.449V-5.4a4.43,4.43,0,0,0,.523,2.465A1.807,1.807,0,0,0,51.064-2.184Zm9.229-7.7A3.7,3.7,0,0,1,63.256-11.3q3.609,0,3.661,4.194V0H63.954V-7.04a2.069,2.069,0,0,0-.41-1.413,1.756,1.756,0,0,0-1.364-.457A2.016,2.016,0,0,0,60.293-7.9V0H57.33V-15.75h2.963ZM75.582,0a3.291,3.291,0,0,1-.3-.995,3.586,3.586,0,0,1-2.8,1.2,3.939,3.939,0,0,1-2.7-.943,3.034,3.034,0,0,1-1.072-2.379,3.135,3.135,0,0,1,1.307-2.707A6.451,6.451,0,0,1,73.8-6.778h1.364v-.636a1.828,1.828,0,0,0-.395-1.23,1.553,1.553,0,0,0-1.246-.461,1.766,1.766,0,0,0-1.174.359,1.219,1.219,0,0,0-.426.984H68.958a2.977,2.977,0,0,1,.595-1.784,3.931,3.931,0,0,1,1.682-1.287,6.129,6.129,0,0,1,2.44-.467,4.842,4.842,0,0,1,3.256,1.031,3.605,3.605,0,0,1,1.2,2.9v4.809a5.3,5.3,0,0,0,.441,2.389V0ZM73.131-2.061a2.552,2.552,0,0,0,1.21-.292,1.919,1.919,0,0,0,.82-.784V-5.045H74.054q-2.225,0-2.369,1.538l-.01.174a1.186,1.186,0,0,0,.39.913A1.514,1.514,0,0,0,73.131-2.061ZM86.646-8.316A8.051,8.051,0,0,0,85.579-8.4a2.171,2.171,0,0,0-2.2,1.138V0H80.411V-11.095h2.8l.082,1.323A2.746,2.746,0,0,1,85.764-11.3a3.105,3.105,0,0,1,.923.133Z" transform="translate(615.8 158.17)" fill="#fff"/>
      <g id="Grupo">
        <path id="Trazado_163242" data-name="Trazado 163242" d="M9.762-3.076H4.368L3.343,0H.072L5.629-14.93H8.48L14.068,0H10.8ZM5.2-5.568H8.931L7.055-11.156ZM19.882-2.184a1.944,1.944,0,0,0,1.333-.451,1.581,1.581,0,0,0,.533-1.2h2.779a3.8,3.8,0,0,1-.615,2.066A4.06,4.06,0,0,1,22.256-.313a5.183,5.183,0,0,1-2.323.518,4.817,4.817,0,0,1-3.753-1.512,5.985,5.985,0,0,1-1.374-4.178v-.195A5.917,5.917,0,0,1,16.17-9.772,4.761,4.761,0,0,1,19.913-11.3a4.667,4.667,0,0,1,3.338,1.184,4.193,4.193,0,0,1,1.277,3.153H21.749a2.036,2.036,0,0,0-.533-1.407,1.778,1.778,0,0,0-1.354-.541,1.785,1.785,0,0,0-1.564.755,4.374,4.374,0,0,0-.528,2.449V-5.4a4.43,4.43,0,0,0,.523,2.465A1.807,1.807,0,0,0,19.882-2.184Zm9.885-11.638v2.728h1.9v2.174h-1.9v5.537A1.322,1.322,0,0,0,30-2.5a1.184,1.184,0,0,0,.9.267,4.726,4.726,0,0,0,.872-.072V-.062a6.1,6.1,0,0,1-1.794.267q-3.117,0-3.179-3.148V-8.921h-1.62v-2.174H26.8v-2.728ZM39.959-1.128A3.716,3.716,0,0,1,36.924.205,3.5,3.5,0,0,1,34.2-.82a4.377,4.377,0,0,1-.959-3v-7.27h2.963v7.176q0,1.735,1.579,1.735a2.14,2.14,0,0,0,2.071-1.047v-7.863h2.974V0H40.042ZM51.5,0a3.291,3.291,0,0,1-.3-.995,3.586,3.586,0,0,1-2.8,1.2,3.939,3.939,0,0,1-2.7-.943,3.034,3.034,0,0,1-1.072-2.379,3.135,3.135,0,0,1,1.307-2.707,6.451,6.451,0,0,1,3.779-.954h1.364v-.636a1.828,1.828,0,0,0-.395-1.23,1.553,1.553,0,0,0-1.246-.461,1.766,1.766,0,0,0-1.174.359,1.219,1.219,0,0,0-.426.984H44.871a2.977,2.977,0,0,1,.595-1.784,3.931,3.931,0,0,1,1.682-1.287,6.129,6.129,0,0,1,2.44-.467,4.842,4.842,0,0,1,3.256,1.031,3.605,3.605,0,0,1,1.2,2.9v4.809a5.3,5.3,0,0,0,.441,2.389V0ZM49.044-2.061a2.552,2.552,0,0,0,1.21-.292,1.919,1.919,0,0,0,.82-.784V-5.045H49.967q-2.225,0-2.369,1.538l-.01.174a1.186,1.186,0,0,0,.39.913A1.514,1.514,0,0,0,49.044-2.061ZM62.559-8.316A8.051,8.051,0,0,0,61.493-8.4a2.171,2.171,0,0,0-2.2,1.138V0H56.325V-11.095h2.8l.082,1.323A2.746,2.746,0,0,1,61.677-11.3a3.105,3.105,0,0,1,.923.133Z" transform="translate(627.84 346.78)" fill="#fff"/>
        <path id="Trazado_163244" data-name="Trazado 163244" d="M7.373-8.316A8.051,8.051,0,0,0,6.306-8.4,2.171,2.171,0,0,0,4.1-7.26V0H1.138V-11.095h2.8L4.02-9.772A2.746,2.746,0,0,1,6.491-11.3a3.105,3.105,0,0,1,.923.133Z" transform="translate(599.85 371.98)" fill="#fff"/>
        <path id="Trazado_163243" data-name="Trazado 163243" d="M7.567,0a3.291,3.291,0,0,1-.3-.995,3.586,3.586,0,0,1-2.8,1.2,3.939,3.939,0,0,1-2.7-.943A3.034,3.034,0,0,1,.7-3.117,3.135,3.135,0,0,1,2-5.824a6.451,6.451,0,0,1,3.779-.954H7.147v-.636a1.828,1.828,0,0,0-.395-1.23,1.553,1.553,0,0,0-1.246-.461,1.766,1.766,0,0,0-1.174.359,1.219,1.219,0,0,0-.426.984H.943a2.977,2.977,0,0,1,.595-1.784A3.931,3.931,0,0,1,3.22-10.833,6.129,6.129,0,0,1,5.66-11.3a4.842,4.842,0,0,1,3.256,1.031,3.605,3.605,0,0,1,1.2,2.9v4.809a5.3,5.3,0,0,0,.441,2.389V0ZM5.117-2.061a2.552,2.552,0,0,0,1.21-.292,1.919,1.919,0,0,0,.82-.784V-5.045H6.04q-2.225,0-2.369,1.538l-.01.174a1.186,1.186,0,0,0,.39.913A1.514,1.514,0,0,0,5.117-2.061ZM6.245-15.75h3.23l-2.84,3.179H4.225ZM22.384-5.445A6.654,6.654,0,0,1,21.22-1.338,3.731,3.731,0,0,1,18.078.205,3.456,3.456,0,0,1,15.36-.964V4.266H12.4v-15.36h2.748l.1,1.087a3.483,3.483,0,0,1,2.81-1.292,3.757,3.757,0,0,1,3.189,1.518A6.834,6.834,0,0,1,22.384-5.6Zm-2.963-.226a4.391,4.391,0,0,0-.549-2.4,1.785,1.785,0,0,0-1.594-.843,1.94,1.94,0,0,0-1.917,1.07v4.556a1.972,1.972,0,0,0,1.938,1.1Q19.421-2.184,19.421-5.671ZM27.347,0H24.374V-11.095h2.974ZM24.2-13.966a1.459,1.459,0,0,1,.446-1.1,1.676,1.676,0,0,1,1.215-.431,1.679,1.679,0,0,1,1.21.431,1.451,1.451,0,0,1,.451,1.1,1.455,1.455,0,0,1-.456,1.107,1.684,1.684,0,0,1-1.2.431,1.684,1.684,0,0,1-1.2-.431A1.455,1.455,0,0,1,24.2-13.966Zm5.127,8.336A6.686,6.686,0,0,1,30.49-9.762,3.776,3.776,0,0,1,33.674-11.3a3.4,3.4,0,0,1,2.676,1.21v-5.66h2.974V0H36.647L36.5-1.179A3.487,3.487,0,0,1,33.653.205,3.766,3.766,0,0,1,30.51-1.338,6.9,6.9,0,0,1,29.326-5.629Zm2.963.211a4.4,4.4,0,0,0,.543,2.4,1.769,1.769,0,0,0,1.579.834A1.982,1.982,0,0,0,36.35-3.348v-4.4a1.954,1.954,0,0,0-1.917-1.164Q32.29-8.911,32.29-5.419ZM48.05,0a3.291,3.291,0,0,1-.3-.995,3.586,3.586,0,0,1-2.8,1.2,3.939,3.939,0,0,1-2.7-.943A3.034,3.034,0,0,1,41.18-3.117a3.135,3.135,0,0,1,1.307-2.707,6.451,6.451,0,0,1,3.779-.954h1.364v-.636a1.828,1.828,0,0,0-.395-1.23,1.553,1.553,0,0,0-1.246-.461,1.766,1.766,0,0,0-1.174.359,1.219,1.219,0,0,0-.426.984H41.426a2.977,2.977,0,0,1,.595-1.784A3.931,3.931,0,0,1,43.7-10.833a6.129,6.129,0,0,1,2.44-.467A4.842,4.842,0,0,1,49.4-10.269a3.605,3.605,0,0,1,1.2,2.9v4.809a5.3,5.3,0,0,0,.441,2.389V0ZM45.6-2.061a2.552,2.552,0,0,0,1.21-.292,1.919,1.919,0,0,0,.82-.784V-5.045H46.522q-2.225,0-2.369,1.538l-.01.174a1.186,1.186,0,0,0,.39.913A1.514,1.514,0,0,0,45.6-2.061Zm10.059-9.034.092,1.241A3.9,3.9,0,0,1,58.939-11.3a2.959,2.959,0,0,1,2.943,1.692A3.809,3.809,0,0,1,65.215-11.3,3.309,3.309,0,0,1,67.9-10.249a4.831,4.831,0,0,1,.882,3.163V0H65.81V-7.092a2.121,2.121,0,0,0-.369-1.382,1.634,1.634,0,0,0-1.3-.437,1.85,1.85,0,0,0-1.846,1.274L62.3,0H59.339V-7.081a2.1,2.1,0,0,0-.379-1.4,1.65,1.65,0,0,0-1.292-.432,1.92,1.92,0,0,0-1.825,1.048V0H52.879V-11.095ZM76.166.205a5.447,5.447,0,0,1-3.973-1.5A5.321,5.321,0,0,1,70.66-5.281v-.287a6.7,6.7,0,0,1,.646-2.989,4.741,4.741,0,0,1,1.83-2.03,5.137,5.137,0,0,1,2.7-.713,4.6,4.6,0,0,1,3.584,1.436,5.833,5.833,0,0,1,1.307,4.071v1.21H73.664a2.753,2.753,0,0,0,.866,1.743,2.619,2.619,0,0,0,1.83.656,3.2,3.2,0,0,0,2.676-1.241l1.456,1.63a4.449,4.449,0,0,1-1.8,1.471A5.921,5.921,0,0,1,76.166.205Zm-.338-9.116a1.852,1.852,0,0,0-1.43.6,3.093,3.093,0,0,0-.7,1.71h4.122V-6.84a2.206,2.206,0,0,0-.533-1.529A1.91,1.91,0,0,0,75.828-8.911Zm9.311-2.184.092,1.282A3.874,3.874,0,0,1,88.419-11.3a3.219,3.219,0,0,1,2.625,1.036,4.832,4.832,0,0,1,.882,3.1V0H88.963V-7.112a1.93,1.93,0,0,0-.41-1.372,1.833,1.833,0,0,0-1.364-.426,2.038,2.038,0,0,0-1.876,1.069V0H82.349V-11.095ZM97.72-13.822v2.728h1.9v2.174h-1.9v5.537a1.322,1.322,0,0,0,.236.882,1.184,1.184,0,0,0,.9.267,4.726,4.726,0,0,0,.872-.072V-.062a6.1,6.1,0,0,1-1.794.267q-3.117,0-3.179-3.148V-8.921h-1.62v-2.174h1.62v-2.728ZM106.374.205a5.447,5.447,0,0,1-3.973-1.5,5.321,5.321,0,0,1-1.533-3.989v-.287a6.7,6.7,0,0,1,.646-2.989,4.741,4.741,0,0,1,1.83-2.03,5.137,5.137,0,0,1,2.7-.713,4.6,4.6,0,0,1,3.584,1.436,5.833,5.833,0,0,1,1.307,4.071v1.21h-7.065a2.753,2.753,0,0,0,.866,1.743,2.619,2.619,0,0,0,1.83.656,3.2,3.2,0,0,0,2.676-1.241l1.456,1.63a4.449,4.449,0,0,1-1.8,1.471A5.921,5.921,0,0,1,106.374.205Zm-.338-9.116a1.852,1.852,0,0,0-1.43.6,3.093,3.093,0,0,0-.7,1.71h4.122V-6.84a2.206,2.206,0,0,0-.533-1.529A1.91,1.91,0,0,0,106.036-8.911Z" transform="translate(607.2 371.98)" fill="#fff"/>
      </g>
    </g>
  </g>
</svg>
