<svg id="Capa_2" data-name="Capa 2" xmlns="http://www.w3.org/2000/svg" width="215" height="142.249" viewBox="0 0 215 142.249">
  <g id="Grupo_75341" data-name="Grupo 75341" transform="translate(68.958 0)">
    <path id="Trazado_162408" data-name="Trazado 162408" d="M127.961,170.72H135.3v6l-7.5-2.478Z" transform="translate(-109.12 -101.099)" fill="#f2bf89"/>
    <path id="Trazado_162409" data-name="Trazado 162409" d="M132.871,169c-.107,2.782-1.851,5.367-6.637,5.045-2.746-.17-6.485-4.714-6.485-4.714Z" transform="translate(-108.27 -100.917)" fill="#f2bf89"/>
    <path id="Trazado_162410" data-name="Trazado 162410" d="M145.622,139.717l-4.579,14.239-4.732,11.994-10.841-7,2.782-8.6L132.5,135.88C135.282,126.4,148.716,128.188,145.622,139.717Z" transform="translate(-108.874 -96.777)" fill="#f7b242"/>
    <path id="Trazado_162411" data-name="Trazado 162411" d="M149.357,232.019a10.816,10.816,0,0,0,.716,1.154.188.188,0,0,1,.054.072,8.4,8.4,0,0,0,1.172,1.279l.179.17a8.748,8.748,0,0,0,4.249,1.995c4.544.894,7.352-1.69,8.417-6.046.081-.322.152-.662.206-1s1.529-5.17,3.1-12.218h0c1.243-5.581,2.6-12.576,3.515-19.91.17-1.4.331-2.835.474-4.266q.161-1.735.3-3.461v-1.547h0a17.393,17.393,0,0,0-.188-2.048,12.674,12.674,0,0,0-.626-2.522,8.051,8.051,0,0,0-.787-1.547,5.537,5.537,0,0,0-2.173-1.968c-6.154-3.095-17.674,5.492-17.674,5.492-.116,2.424-.215,4.588-.3,6.52v.948c-.072,1.288-.116,2.478-.17,3.578-.59,12.871-.555,13.22-1.154,26.609,0,.939-.081,1.95-.125,3.032a9.168,9.168,0,0,0,.814,5.689Z" transform="translate(-111.294 -102.023)" fill="#464747"/>
    <path id="Trazado_162412" data-name="Trazado 162412" d="M141,123.726a9.964,9.964,0,0,1-5.626,1.834l-4.633-15.4c.993-.268,6.261-2.755,10.116-4.678l4.311,9.776.608,1.36a.51.51,0,0,1,.17.089C147.072,117.367,143.316,122.242,141,123.726Z" transform="translate(-109.43 -94.212)" fill="#f2bf89"/>
    <g id="Grupo_75339" data-name="Grupo 75339" transform="translate(7.241)">
      <path id="Trazado_162413" data-name="Trazado 162413" d="M119.334,111.132a17.888,17.888,0,0,0,1.225,2.048,13.636,13.636,0,0,0,1.306.8l.143.662.671,2.978a1.279,1.279,0,0,0,1.789.823l.25-.089.894-.331.188.25c.241.358.653.966,1.064,1.6h0c.492.742,1,1.547,1.333,2.039l.322.5a6.342,6.342,0,0,0,2.549,1.95,3.086,3.086,0,0,0,3.166-.331l2.012-1.592a2.436,2.436,0,0,1,.215-.215,9.55,9.55,0,0,0,.6-11.5c-.063-.1-.143-.206-.215-.3a.778.778,0,0,0,.134-.116h0a4.015,4.015,0,0,1,.555-.376c1.646-.894,4.3-1.279,3.452-2.683-1.055-1.789-1.038-5.51-2.46-7.8-3.676-4.669-6.9-5.814-9.633-5.438l-.555.089c-2.531.537-4.642,2.272-6.324,3.515a10.125,10.125,0,0,0-3.873,9.714h0a13.47,13.47,0,0,0,1.19,3.8Z" transform="translate(-115.327 -92.994)" fill="#ffc990"/>
      <path id="Trazado_162414" data-name="Trazado 162414" d="M142.049,109.526c-5.465,6.2-7.281-3.927-7.281-3.927s-1.529,1.145-1.574,2.182c-.76.68-1.279,1.038-1.914,1.6-6.4-7.907-5.885-10.68-13.506-2.138-3.122-.555-5.528-4.365,3.989-11.628,4.767-3.578,11.019-3.909,14.973.581C139.035,98.855,140.466,100.215,142.049,109.526Z" transform="translate(-115.01 -92.882)" fill="#b17f4a"/>
      <path id="Trazado_162415" data-name="Trazado 162415" d="M138.35,106.723c1.109,1.512,1.109,4.195.116,4.91s-1.789-.581-2.889-2.084c-.742-.993-2.039-2.227-1.181-3.336S136.7,104.5,138.35,106.723Z" transform="translate(-117.027 -94.184)" fill="#ffc990"/>
    </g>
    <path id="Trazado_162416" data-name="Trazado 162416" d="M132.987,143.12a.223.223,0,0,1,0,.107h0c.08,1.252.25,2.916.537,4.857.34,2.424.894,5.286,1.565,8.372a99.521,99.521,0,0,0,5.054,16.1,5.87,5.87,0,0,0,.233.546c3.578,8.3,8.461,15.205,14.839,16.1a24.1,24.1,0,0,0,9.955-1.181l2.6-.894c3.068-5.617,4.973-12.692,1.789-17.576-.179-.635-.376-1.351-.581-2.129-2.245-8.381-3.318-24.463-5.5-34.776-.814-3.837-1.789-6.878-3.014-8.426-5.027-6.342-14.4-6.261-14.418-6.261h0a29.052,29.052,0,0,1-5.751,6.127c-1.9,1.556-3.721,2.683-4.651,2.826h0s-.34.76-.8,2.066A33.989,33.989,0,0,0,132.987,143.12Z" transform="translate(-109.656 -95.529)" fill="#ff9d00"/>
    <path id="Trazado_162417" data-name="Trazado 162417" d="M107.233,242.255a22.039,22.039,0,0,0,9.714,2.451h13.327l1.789.063h.626a5.724,5.724,0,0,0,1.02-.107l1.869-.376a.546.546,0,0,0,.358-.25v-.1a.376.376,0,0,0,0-.161,2.162,2.162,0,0,0,0-.358c0-.59,0-1.529-.1-2.558,0-.322-.045-.653-.072-.984a5.094,5.094,0,0,0-.054-.716h0c-.152-1.735-.331-3.372-.438-3.757v-.072c-.063-.241-.483-1-.8-2.03a7.379,7.379,0,0,1-.331-2.415v-.394l-2.755-.2-3.2-.224h-.3l-3.461-.233a5.965,5.965,0,0,1-.671,1.279,11.7,11.7,0,0,1-3.909,3.005,3.857,3.857,0,0,1-.537.233h0c-1.1.4-2.889.617-4.66,1.091l-1.261.331c-2.308.572-4.222.894-5.223,1.869-.993.662-.957,2.093-1.225,3.81v.1A.608.608,0,0,0,107.233,242.255Z" transform="translate(-106.915 -107.34)" fill="#3c3c3b"/>
    <path id="Trazado_162418" data-name="Trazado 162418" d="M116.309,187.144c.054.778,3.148,21.806,4.034,41.734h0l10.894,3.22,5.537,1.637h0c2.352-13.658,1-28.3-.492-37.96-.25-1.7-.519-3.238-.769-4.6-.7-3.775-1.279-6.127-1.342-6.35a8.551,8.551,0,0,0-1.7-3.578,8.944,8.944,0,0,0-7.844-3.354h-.179a8.944,8.944,0,0,0-5.93,3.041,8.828,8.828,0,0,0-1.69,2.934c-.054.152-.1.3-.143.456a8.7,8.7,0,0,0-.376,2.817Z" transform="translate(-107.906 -101.852)" fill="#565858"/>
    <path id="Trazado_162419" data-name="Trazado 162419" d="M125.336,194.508h.063l5.635.4c1.556.134,3.345.259,5.25.4l10.116.751c6.619.483,12.316.894,12.522.894,4.544-.349,7.415-2,9.132-4.3,2.156-2.871,2.513-6.735,2.147-10.241h0a23.9,23.9,0,0,0-.438-2.621c-.733-3.5-2.012-6.189-2.54-6.4h-.054l-13.256,3.533c-7.075-.215-12.4-.394-16.413-.528-13.882-.456-12.111-.429-13.13-.277a9.15,9.15,0,0,0-7.513,6.95,5.312,5.312,0,0,0-.188.894,9.257,9.257,0,0,0,8.667,10.545Z" transform="translate(-107.935 -101.381)" fill="#565858"/>
    <path id="Trazado_162420" data-name="Trazado 162420" d="M130.39,239.454h2.334l1.789.063h.626a5.724,5.724,0,0,0,1.02-.107l1.869-.376a.545.545,0,0,0,.358-.25s0-.054,0-.1a.375.375,0,0,0,0-.161,2.164,2.164,0,0,0,0-.358c0-.59,0-1.529-.1-2.558,0-.322-.045-.653-.072-.984a5.1,5.1,0,0,0-.054-.716h0a92.229,92.229,0,0,0,1.252-14.812,145.043,145.043,0,0,0-1.744-23.157c2.531.2,5.268.4,7.943.59l2.173.17c-.179,3.783-.286,6.485-.4,8.739-.152,3.775-.241,6.35-.438,10.733,0,.787-.072,1.637-.107,2.576,0,.7-.054,1.431-.1,2.227h0c0,.742-.054,1.529-.1,2.37h0c0,.939-.089,1.959-.125,3.032a9.222,9.222,0,0,0,.894,5.706,11.254,11.254,0,0,0,.716,1.145l.063.08a8.408,8.408,0,0,0,1.163,1.288l.179.161a8.05,8.05,0,0,0,.635.563,9,9,0,0,0,6.333,1.655l.331-.054c.993-.179,1.941-.349,2.862-.5,1.789-.3,3.408-.563,4.946-.8l1.485-.233c1.905-.286,3.649-.528,5.25-.733h0l1.038-.134a.51.51,0,0,1,.134,0c1.2-.152,2.326-.277,3.372-.4,1.529-.161,2.889-.3,4.132-.411l1.208-.107,3.64-.322,1.046-.081,1.664-.161c1.073-.116,2.075-.25,3.068-.429l.072-.823.331-3.8a12.978,12.978,0,0,1,4.07,1.789,5.635,5.635,0,0,1,1.19,1.046c.742.787,1.583,1.843,2.576,2.835.313.3.617.617.894.894l.769.8c1.3,1.368,2.352,2.478,3.453,2.809.894.474,1.932,0,3.238-.564l.769-.3a.572.572,0,0,0,.456-.572,15.964,15.964,0,0,0-.3-2.889,23.12,23.12,0,0,0-1.306-4.544,1.084,1.084,0,0,0-.081-.179,17.5,17.5,0,0,0-.993-2.057l-1.449-2.487-1.708-2.952c-3.757,1.279-7.567,2.5-11.341,3.622-1.02.3-2.012.59-3.014.894l-.152.045-3.453.975-1.351.358c-1.038.286-2.012.546-2.961.787-1.968.492-3.775.894-5.483,1.252-.635.125-1.252.233-1.869.331a57.841,57.841,0,0,1-9.615.823h-1.225A25.778,25.778,0,0,1,152.143,229a11.225,11.225,0,0,1-2.88-1.789c.555-1.351,1.1-2.683,1.69-4.034.268-.581.528-1.172.787-1.789.438-.948.894-1.9,1.368-2.835,3.962-7.96,8.837-15.161,14.633-20.026.411-.358.841-.689,1.261-1.02.179-1.422.349-2.835.483-4.275a13.023,13.023,0,0,0,2.272-7.88,22.814,22.814,0,0,0-.134-2.37l-.429-2.63-.394.59a18.39,18.39,0,0,1-1.225,5.215,10.894,10.894,0,0,1-3.649,4.821,11.94,11.94,0,0,1-3.166,1.682,79.773,79.773,0,0,1-13.533.51h0l-1.243-.072c-.894-.072-1.789-.152-2.683-.259a58.137,58.137,0,0,1-7.111-1.225l-1.324-.483-5.206-1.914-.286.376h0l1.673,9.776a114.13,114.13,0,0,1,1.243,20.044c-.072,1.914-.2,3.8-.4,5.617a55.235,55.235,0,0,1-1.163,7.334c-.08.376-.179.742-.277,1.118s-.224.841-.349,1.252c-.215.76-.447,1.5-.716,2.227C131.061,237.817,130.73,238.64,130.39,239.454Z" transform="translate(-109.393 -102.115)" fill="#1d1d1b" opacity="0.1"/>
    <path id="Trazado_162421" data-name="Trazado 162421" d="M123.517,162.422a1.288,1.288,0,0,1,.572,1.789l-2.156,4.249a1.306,1.306,0,0,1-1.789.572h0a1.315,1.315,0,0,1-.572-1.789l2.165-4.24a1.3,1.3,0,0,1,1.789-.572Z" transform="translate(-108.235 -100.207)" fill="#ffcf9a"/>
    <path id="Trazado_162422" data-name="Trazado 162422" d="M126.476,162.912a1.306,1.306,0,0,1,.6,1.789l-2.5,4.973a1.315,1.315,0,0,1-1.789.59h0a1.306,1.306,0,0,1-.6-1.789l2.5-4.973a1.315,1.315,0,0,1,1.789-.59Z" transform="translate(-108.511 -100.259)" fill="#ffcf9a"/>
    <path id="Trazado_162423" data-name="Trazado 162423" d="M128.7,164.982a1.306,1.306,0,0,1,.59,1.789l-2.111,4.266a1.315,1.315,0,0,1-1.789.6h0a1.306,1.306,0,0,1-.6-1.789l2.12-4.275a1.306,1.306,0,0,1,1.789-.59Z" transform="translate(-108.786 -100.477)" fill="#ffcf9a"/>
    <path id="Trazado_162424" data-name="Trazado 162424" d="M130.576,167.437a1.109,1.109,0,0,1,.51,1.485l-1.494,3.023a1.109,1.109,0,0,1-1.485.5h0a1.109,1.109,0,0,1-.5-1.485l1.485-3.023A1.118,1.118,0,0,1,130.576,167.437Z" transform="translate(-109.087 -100.74)" fill="#ffcf9a"/>
    <path id="Trazado_162425" data-name="Trazado 162425" d="M152.15,169.122l6.86,3.256,11.985-3.2c-2.245-8.381-3.318-24.463-5.5-34.776H152.812C164.279,149.695,162.686,157.736,152.15,169.122Z" transform="translate(-111.69 -97.265)" fill="#1d1d1b" opacity="0.15"/>
    <g id="Grupo_75340" data-name="Grupo 75340" transform="translate(28.213 24.93)">
      <path id="Trazado_162426" data-name="Trazado 162426" d="M149.495,165.987h0a1.592,1.592,0,0,0-2.308-.358c-3.023,2.093-3.721,3.5-6.9,4.8a1.69,1.69,0,0,0-.894,2.129h0a1.574,1.574,0,0,0,2.12.894c3.354-1.351,4.2-2.817,7.4-4.991A1.914,1.914,0,0,0,149.495,165.987Z" transform="translate(-138.545 -125.455)" fill="#f2bf89"/>
      <rect id="Rectángulo_32837" data-name="Rectángulo 32837" width="8.13" height="7.844" transform="matrix(0.764, -0.645, 0.645, 0.764, 9.789, 40.935)" fill="#ffcf9a"/>
      <path id="Trazado_162427" data-name="Trazado 162427" d="M171.092,150.428l-7.9-7.424-4.1-3.846-7.925-7.451a6.333,6.333,0,0,1-.152-8.944l.081-.089a6.35,6.35,0,0,1,8.944-.152l.894.832,19.49,18.309Z" transform="translate(-139.596 -120.754)" fill="#f7b242"/>
      <path id="Trazado_162428" data-name="Trazado 162428" d="M156.34,158.787s.662,3.953,1.118,6.717c.107.707.215,1.351.3,1.887,0,.152.063.277.072.4l.17,1.02c.644-.733,23.515-14.928,23.515-14.928a6.109,6.109,0,0,0,1.252-1.431,6,6,0,0,0,.814-4.857,8.461,8.461,0,0,0-3.318-4.472c-2.558-.894-7.093,1.1-12.638,5.706C160.07,155.075,156.34,158.787,156.34,158.787Z" transform="translate(-140.345 -123.094)" fill="#ffcf9a"/>
      <path id="Trazado_162429" data-name="Trazado 162429" d="M147,179.272h0a1.521,1.521,0,0,0,2.138-.116l1.306-1.449.045-.045.054-.063.206-.242.966-1.055a1.565,1.565,0,0,0,.358-.769,1.476,1.476,0,0,0,0-.626,1.449,1.449,0,0,0-.456-.742h0a1.494,1.494,0,0,0-2.12.125h0l-.045.054-1.306,1.431h0l-.107.134a1.735,1.735,0,0,1-.25.259l-.331.385-.206.206-.286.331a1.5,1.5,0,0,0,.036,2.182Z" transform="translate(-139.308 -126.352)" fill="#f2bf89"/>
      <path id="Trazado_162430" data-name="Trazado 162430" d="M150.809,180.135h0a1.333,1.333,0,0,0,1.869-.259l1.583-2.12.385-.528a1.342,1.342,0,0,0-.277-1.869h0a1.342,1.342,0,0,0-1.878.277v.054l-1.252,1.682-.277.385-.054.063-.045.045-.3.411A1.333,1.333,0,0,0,150.809,180.135Z" transform="translate(-139.707 -126.491)" fill="#f2bf89"/>
      <path id="Trazado_162431" data-name="Trazado 162431" d="M138.835,177.523h0a1.5,1.5,0,0,0,2.129.125l1.708-1.708.975-.975.814-.823.259-.268a1.324,1.324,0,0,0,.331-.438h0a1.521,1.521,0,0,0-.063-1.413c-.063-.08-.116-.17-.17-.233h0a1.5,1.5,0,0,0-2.138-.116l-1.27,1.27-.894.894-.385.376-.179.179-1.064,1.073a1.512,1.512,0,0,0-.054,2.057Z" transform="translate(-138.458 -126.088)" fill="#f2bf89"/>
      <path id="Trazado_162432" data-name="Trazado 162432" d="M143.462,178.045h0a1.5,1.5,0,0,0,2.12-.224l1.172-1.225.206-.206.653-.689,1.2-1.234a1.18,1.18,0,0,0,.179-.3s0-.045,0-.054a1.494,1.494,0,0,0-.429-1.789h0a1.5,1.5,0,0,0-2.12.233l-.894.894h0l-.429.429h0l-.2.188v.045l-1.655,1.717a.215.215,0,0,0-.054.1,1.5,1.5,0,0,0,.25,2.12Z" transform="translate(-138.925 -126.163)" fill="#f2bf89"/>
      <path id="Trazado_162433" data-name="Trazado 162433" d="M142.329,172.06a1.529,1.529,0,0,0,.25,1.02,1.664,1.664,0,0,0,.34.376h0a1.538,1.538,0,0,0,1.878-.045v-.045a1.909,1.909,0,0,0,.2-.188,1.322,1.322,0,0,0-.152.25,1.467,1.467,0,0,0,.465,1.789h0a1.494,1.494,0,0,0,1.869-.045,1.738,1.738,0,0,0,.25-.259l.107-.134.152-.224a1.341,1.341,0,0,0-.134.206h0v.089a1.521,1.521,0,0,0,.492,1.789h0a1.494,1.494,0,0,0,2.111-.313l.3-.385a1.916,1.916,0,0,0-.116.2l-.072.143a1.333,1.333,0,0,0,.456,1.529h0a1.333,1.333,0,0,0,1.869-.259l.769-1.038h0l2.182-2.907a4.472,4.472,0,0,0,.894-2.683,4.821,4.821,0,0,0-.125-1.02,2.054,2.054,0,0,0-.125-.376,4.007,4.007,0,0,0-1.02-1.664,3.579,3.579,0,0,0-.5-.456l-2.388-1.789a4.315,4.315,0,0,0-5.769.358,4,4,0,0,0-.438.5l-1.324,1.789h0l-2.191,2.916a1.144,1.144,0,0,0-.143.25,1.565,1.565,0,0,0-.08.626Z" transform="translate(-138.865 -125.393)" fill="#ffcf9a"/>
    </g>
    <path id="Trazado_162434" data-name="Trazado 162434" d="M138.827,175.07h0a1.5,1.5,0,0,0,2.129.125l1.708-1.708a1.5,1.5,0,0,0,.3,2h0a1.5,1.5,0,0,0,2.12-.224l1.091-1.127-.206.233a1.5,1.5,0,0,0,.125,2.138h0a1.521,1.521,0,0,0,2.138-.116l1.306-1.449-.3.411a1.333,1.333,0,0,0,.259,1.869h0a1.333,1.333,0,0,0,1.869-.259l1.583-2.12h0l2.182-2.907a4.472,4.472,0,0,0,.894-2.683c.644-.733,23.515-14.928,23.515-14.928a6.109,6.109,0,0,0,1.252-1.431,6,6,0,0,0,.814-4.857,54.131,54.131,0,0,1-22.593,16.726,35.862,35.862,0,0,1-3.533,1.207c-.25.089-.483.152-.724.224.751,5.179-1.9,6.073-1.9,6.073-1.95.966-6.181.617-9.266.179-2.093-.3-3.658-.644-3.658-.644l-1.064,1.073a1.512,1.512,0,0,0-.045,2.191Z" transform="translate(-110.236 -98.705)" fill="#1d1d1b" opacity="0.05"/>
    <path id="Trazado_162435" data-name="Trazado 162435" d="M120.57,173.3l1.619,1.243c.152.107.3.233.456.358.894.716,1.843,1.44,2.737,2.156a.76.76,0,0,1,.152.125l1.342,1.064,1.029.823,2.522,1.986h0l1.476,1.109c.242.2.492.376.742.555.894.662,1.789,1.3,2.683,1.869a1.851,1.851,0,0,0,.34.224c.769.519,1.556,1,2.326,1.449.966.546,1.941,1.055,2.925,1.494a21.851,21.851,0,0,0,2.835,1.1l-1.225.716.894,3.649.429,3.014,1.181,1.673h0c1.44,7.254,4.213,21.216,6.181,30.849a12.576,12.576,0,0,0,6.771,8.8l11.485-2.084c-7.451-5.447-14.517-12.522-18.783-21.6a53.961,53.961,0,0,1-2.424-24.024,7.011,7.011,0,0,1,.081-.716c.134-1.055.286-2.12.465-3.2C140.713,185.1,130.275,179.677,120.57,173.3Z" transform="translate(-108.356 -101.371)" fill="#1d1d1b" opacity="0.1"/>
  </g>
  <g id="Grupo_75347" data-name="Grupo 75347" transform="translate(0 110.088)">
    <path id="Trazado_162436" data-name="Trazado 162436" d="M244.78,246.822c0,2.272-1.52,4.123-3.4,4.123H33.178c-1.878,0-3.4-1.851-3.4-4.123h0c0-2.281,1.52-4.132,3.4-4.132h208.2C243.26,242.69,244.78,244.541,244.78,246.822Z" transform="translate(-29.78 -218.785)" fill="#131313" opacity="0.1"/>
    <g id="Grupo_75342" data-name="Grupo 75342" transform="translate(4.767 17.277)">
      <path id="Trazado_162437" data-name="Trazado 162437" d="M42.469,239.909c.116-.894,1.127-.841,1.7-.662a46.434,46.434,0,0,0,4.723.894c.42.17.823.224,1.243.376a8.43,8.43,0,0,1,1.172.492c.3.367.492.662.823,1.145a23.944,23.944,0,0,1-7.6-.841C43.927,241.063,42.362,240.652,42.469,239.909Z" transform="translate(-35.886 -235.688)" fill="#ffc990"/>
      <path id="Trazado_162438" data-name="Trazado 162438" d="M35.11,245.5h0a.662.662,0,0,0,.572.653H54.126l-.2-2.809-.134-2.227c0,.063-.143.08-.4.063s-1.038-.143-1.789-.286c-1.834-.358-4.32-.894-5.367-1.046a1.176,1.176,0,0,0-.25,0A2.164,2.164,0,0,0,45.2,240l-1.789.689-.742.286-2.388.894a2.738,2.738,0,0,0-.456.233l-2.8,1.789-1.592,1.02A.689.689,0,0,0,35.11,245.5Z" transform="translate(-35.11 -235.762)" fill="#e8b783"/>
      <path id="Trazado_162439" data-name="Trazado 162439" d="M55.5,240.459v.241l.233,2.12.3,2.817H84.328a29.143,29.143,0,0,0,5.563.125h0l.59-.063a.385.385,0,0,0,.206-.089c.358-.242.537-1.011.537-2.03.045-3.032-1.368-8.282-3.631-8.3h-.34l-18.246,3.005-1.941.322L66,238.768l-3.5.563Z" transform="translate(-37.262 -235.28)" fill="#e8b783"/>
    </g>
    <g id="Grupo_75346" data-name="Grupo 75346" transform="translate(10.176)">
      <path id="Trazado_162440" data-name="Trazado 162440" d="M264.189,243.461l-3.5.429c-.975.116-1.887.206-2.683.259a31.246,31.246,0,0,1-4.293,0c-1.44-.116-2.218-.367-2.326-.6a9.49,9.49,0,0,1-.653-2.317,16.848,16.848,0,0,1,2.281-11.476c.107-.152.206-.313.313-.474,2.182-3.515,3.113-8.756,4.1-10.161,1.485-2.111,5.188-1.717,5.188-1.717l.054.769,1.172,16.619-1.69,3.256,1.834.644v.894Z" transform="translate(-63.319 -216.113)" fill="#2e2e2d"/>
      <path id="Trazado_162441" data-name="Trazado 162441" d="M164.784,241.042c-6.207,4.991-17.084,4.356-22.432.1-1.172-7.37-1.485-14.159,0-19.776,8.39-.394,20.259,1.923,26.556,2.907Z" transform="translate(-51.764 -216.529)" fill="#00bcd4"/>
      <path id="Trazado_162442" data-name="Trazado 162442" d="M266.027,235.523l-1.995,3.041,1.789.823-.224,4.749-3.524.089c-1.467,0-2.755,0-3.873-.054a23.363,23.363,0,0,1-4.052-.537c-.832-.215-1.27-.447-1.333-.626a8.354,8.354,0,0,1-.385-1.878c-.34-3.336.537-8.39,3.327-11.7s4.249-8.792,5.42-10.161a3.641,3.641,0,0,1,1.682-1.055,8.274,8.274,0,0,1,3.64-.152Z" transform="translate(-63.511 -216.171)" fill="#3c3c3b"/>
      <g id="Grupo_75344" data-name="Grupo 75344" transform="translate(0 3.043)">
        <path id="Trazado_162443" data-name="Trazado 162443" d="M77.588,227.03v14.06l-5.885.179h0l-1.2.045-4.937.152-.027-.948v-.2l-.08-3.766-.009-.268-.045-2.182-.116-5.376,3.56-.492,3.551-.492,2.147-.3Z" transform="translate(-43.705 -220.175)" fill="#f0b87d"/>
        <g id="Grupo_75343" data-name="Grupo 75343">
          <path id="Trazado_162444" data-name="Trazado 162444" d="M70.134,226.936h0a.894.894,0,0,1,0,.215h0a9.436,9.436,0,0,1-6.476,6.708l-.331.072a.688.688,0,0,1,0,.134h0a4.259,4.259,0,0,0,.259.76c.089.2.2.411.3.617h0c.286.555.626,1.109.894,1.6.331.662.492,1.243.179,1.6h0a1.1,1.1,0,0,1-.411.268,6.477,6.477,0,0,0-1.324.742h0c-.224.161-.456.331-.689.519-1.431,1.127-3.005,2.612-4.678,3.211a22.9,22.9,0,0,1-2.862.492h-.483a13.763,13.763,0,0,1-2.191,0,7.612,7.612,0,0,1-5.662-2.8h0a7.44,7.44,0,0,1-.572-.85,6.546,6.546,0,0,1-.4-.733,12.516,12.516,0,0,1-.555-1.3c-.125-.313-.224-.635-.322-.948-.286-.894-.492-1.789-.707-2.585a10.134,10.134,0,0,1,1.789-8.569,10.964,10.964,0,0,1,1.216-1.3h0a12.916,12.916,0,0,1,3.256-2.182,16.941,16.941,0,0,1,2.191-.823,13.8,13.8,0,0,1,1.512.188l.528-.42,2.343-1.878a1.27,1.27,0,0,1,1.869.447l.581,1c.769-.179,4.964-1.6,4.964-1.6a6.19,6.19,0,0,1,3.318.134,2.987,2.987,0,0,1,2.075,2.138l.474,2.093.089.385a7.084,7.084,0,0,1-.179,2.656Z" transform="translate(-41.438 -219.366)" fill="#f0b87d"/>
          <path id="Trazado_162445" data-name="Trazado 162445" d="M67.957,241.1c-.224,1.467-1.538,2.352-3.309,2.907-.3.1-.617.179-.948.259-.617.134-1.261.25-1.923.331-2.782.367-5.8.3-7.433.376H53.118a20.832,20.832,0,0,1-5.367-.438,6.476,6.476,0,0,1-4.571-3.721h0a11.324,11.324,0,0,1-.5-1.19,29.446,29.446,0,0,1-.894-2.961c-1.252-4.723-.519-8.739,1.19-10.581l.215-.215a3.032,3.032,0,0,1,3.649-.492h0a13.569,13.569,0,0,0,.107,1.413,1.735,1.735,0,0,0,0,.215c.894,9.329,4.83,6.485,14.123,4.472a23.845,23.845,0,0,1,.742,2.361l-.063.08c-.662.894-2.683,3.077-2.853,3.211a12.9,12.9,0,0,1,4.043-1.055h.179a3.252,3.252,0,0,1,.59,0h0a4.311,4.311,0,0,1,2.683.894h0c.116.1.233.215.34.322a3.886,3.886,0,0,1,.3.367,4.356,4.356,0,0,1,.474.894A7.074,7.074,0,0,1,68,240.784.506.506,0,0,0,67.957,241.1Z" transform="translate(-41.157 -219.958)" fill="#3c3c3b"/>
          <path id="Trazado_162446" data-name="Trazado 162446" d="M62.183,239.3c1.789-.483,3.444-2.549,3.122-3.712s-1.726-.644-3.515-.179c-1.181.3-2.943.456-2.97,1.843C58.8,238.458,59.571,240.005,62.183,239.3Z" transform="translate(-43.022 -221.004)" fill="#f0b87d"/>
        </g>
        <path id="Trazado_162447" data-name="Trazado 162447" d="M72.44,226.977h0a.9.9,0,0,1,0,.215h0a8.05,8.05,0,0,1-3.05,2.138,26.019,26.019,0,0,1-3.73,1.145,6.091,6.091,0,0,0,2.683-2.1,7.957,7.957,0,0,0,.59-.894,11.958,11.958,0,0,0,.894-2.173,13.014,13.014,0,0,0,.394-1.431,8.39,8.39,0,0,0,.2-1.95,6.261,6.261,0,0,0-.429-2.173,2.987,2.987,0,0,1,2.075,2.138l.474,2.093.089.385a7.084,7.084,0,0,1-.188,2.612Z" transform="translate(-43.744 -219.406)" fill="#050504" opacity="0.1"/>
      </g>
      <path id="Trazado_162448" data-name="Trazado 162448" d="M139.919,223.76a16.963,16.963,0,0,1-.125,2.5,53.989,53.989,0,0,1-2.254,10.85c-.268.894-.572,1.834-.894,2.764l-.51,1.458h0l-.081.215a.683.683,0,0,1,0,.1c-.206.572-.42,1.145-.644,1.708v.1l-.179.456H122.639l-7.889.045h-1.914l-8.891.072h-3.22c-8.873.072-14.454.733-19.311-.429a17.218,17.218,0,0,1-4.365-1.655h0c-.537-.286-1.064-.608-1.61-.966l-.411-.116-2.558-.8h0l.054-.233c.17-.68.322-1.36.474-2.057l.233-1.145h0l.161-.832c.045-.215.081-.429.116-.644.519-2.755.939-5.367,1.449-7.558.116-.465.224-.894.349-1.342h0a1.346,1.346,0,0,1,.125-.42,3.1,3.1,0,0,1,.894-.894,16.612,16.612,0,0,1,1.682-1.064h0c.107-.1.42-.385.948-.8a27.594,27.594,0,0,1,7.155-3.9c.5-.2,1.02-.376,1.574-.546s1.3-.4,1.986-.572c.984-.25,2.03-.465,3.131-.644.8-.116,1.628-.224,2.487-.3h.233l.716-.063h.894c1.109-.045,2.272,0,3.479,0h.608a76.781,76.781,0,0,1,16.386-1.038,89.038,89.038,0,0,1,8.944.707c.948.134,1.887.277,2.809.447a40.9,40.9,0,0,1,6.574,1.726,21.953,21.953,0,0,1,3.157,1.44c.2.107.385.224.563.34v.2a24.048,24.048,0,0,1,.268,2.9Z" transform="translate(-44.463 -215.964)" fill="#e69f56"/>
      <path id="Trazado_162449" data-name="Trazado 162449" d="M117.15,235.381l-1.288,8.3-.3,1.986v.179h-1.038l-9.7-.089-16.1-.152c-4.964-.894-6.851-3.3-7.549-5.367a6.878,6.878,0,0,1-.313-3.122c1.118-5.223,7.37-5.5,10.832-4.884,6.189,1.091,22.629,2.817,25.16,3.086h.268Z" transform="translate(-45.355 -217.656)" fill="#e69f56"/>
      <path id="Trazado_162450" data-name="Trazado 162450" d="M201.178,225l-1.127,14.472-.411,5.367h-1.172c-8.56.179-15.778.572-23.864,0a109.123,109.123,0,0,1-11.753-1.449q-1.789-.322-3.73-.724l-.054-.394-.367-2.683L156.76,225.01c4.043-.42,7.791-.7,11.279-.894C182.43,223.445,192.484,224.617,201.178,225Z" transform="translate(-53.399 -216.803)" fill="#00bcd4"/>
      <path id="Trazado_162451" data-name="Trazado 162451" d="M250.561,230.223l-1.306,11.493-.3,2.683-.063.555h-.179c-22.11.161-31.046.331-45.33,0h0l.724-5.367,1.986-14.508a340.864,340.864,0,0,0,42.226,4.991Z" transform="translate(-58.34 -216.926)" fill="#00bcd4"/>
      <path id="Trazado_162452" data-name="Trazado 162452" d="M148.361,238.174c-.259,1.458-.528,2.764-.76,3.819-.143.608-.277,1.136-.4,1.547-.2.626-.358.993-.483.993H141.76v-.116c.268-.733.519-1.485.742-2.245.089-.268.17-.528.242-.8.376-1.279.716-2.594,1.02-3.927,1.172-5.116,1.9-10.6,2.683-16.1a1.426,1.426,0,0,1,.063-.51l3.748.277c.089,0,.143.179.17.483C150.588,223.666,149.461,232.137,148.361,238.174Z" transform="translate(-51.804 -216.478)" fill="#cc8d4c"/>
      <g id="Grupo_75345" data-name="Grupo 75345" transform="translate(67.819 17.689)">
        <path id="Trazado_162453" data-name="Trazado 162453" d="M168.86,240.288c-.116-.894-1.127-.85-1.708-.671a47.124,47.124,0,0,1-4.723.894c-.42.17-.814.233-1.243.385a8.809,8.809,0,0,0-1.172.483c-.3.367-.483.671-.814,1.154a23.909,23.909,0,0,0,7.6-.85C167.393,241.469,168.958,241.058,168.86,240.288Z" transform="translate(-121.464 -236.138)" fill="#ffc990"/>
        <path id="Trazado_162454" data-name="Trazado 162454" d="M175.107,245.916h0a.653.653,0,0,1-.572.653H156.1l.188-2.809.152-2.2c0,.072.152.081.4.072a16.391,16.391,0,0,0,1.789-.3c1.789-.358,4.32-.894,5.367-1.047h.259a2.2,2.2,0,0,1,.787.152l1.789.689.742.286,2.4.894a2.228,2.228,0,0,1,.456.241l2.791,1.789,1.574,1.055A.635.635,0,0,1,175.107,245.916Z" transform="translate(-121.137 -236.22)" fill="#ffc990"/>
        <path id="Trazado_162455" data-name="Trazado 162455" d="M152.778,240.874v.25l-.224,2.111-.313,2.817v.054H123.924a30.8,30.8,0,0,1-5.572.125h0l-.59-.072a.411.411,0,0,1-.206-.08c-.358-.25-.537-1.02-.546-2.03,0-3.041,1.377-8.291,3.64-8.309h.322l18.264,2.934,1.95.313,1.055.17,3.506.555Z" transform="translate(-117.01 -235.74)" fill="#ffc990"/>
      </g>
    </g>
    <path id="Trazado_162456" data-name="Trazado 162456" d="M243.678,241.521l-.224,4.749-3.523.089c-1.466,0-2.763,0-3.872-.054a31.213,31.213,0,0,1-4.292,0c-22.113.161-31.037.322-45.317,0h0c-8.557.179-15.773.581-23.857,0H116.132a30.788,30.788,0,0,1-5.571.125h0l-9.684-.089H97.659c-11.624.089-17.571,1.2-23.669-2.084h0q-.8-.429-1.61-.966l-.411-.125-2.584-.751h0l-1.2.045c-.224,1.467-1.538,2.361-3.308,2.907-.3.1-.617.179-.948.259-3.183.733-7.323.617-9.353.707H53.352c-5.955.125-8.4-1.011-9.952-4.159,1.064.322,2.119.608,3.165.823h0a23.072,23.072,0,0,0,12.295-.42,17.737,17.737,0,0,0,4.355-1.145,13.839,13.839,0,0,0,1.735-.823h0a7.082,7.082,0,0,0,5.463-3.148c0,1.208,6.134,3.5,6.751,3.39,9.1,2.263,19.985,3.184,32.029,3.39h2.683c6.456.054,13.234-.089,20.226-.331h1.386l3.675-.143c2.37-.089,4.757-.2,7.153-.3h.331c.787.116,1.574.215,2.379.3,1.726.188,3.487.313,5.3.385h0c2.835.107,5.785.089,8.9-.054a231.358,231.358,0,0,0,25.931-3.1l.581-.1.286.063a125.173,125.173,0,0,0,40.739,2.469l1.5-.134c.671-.063,1.35-.134,2.021-.215,3.156-.34,6.393-.778,9.764-1.288Z" transform="translate(-31.218 -218.233)" fill="#1d1d1b" opacity="0.1"/>
    <path id="Trazado_162457" data-name="Trazado 162457" d="M69.673,221.838l.474,2.093-2.317-.107c-4.472-.143-8.944,0-12.862,1.243a23.417,23.417,0,0,1-7.871,1.145,12.514,12.514,0,0,1-1.324-.116,13.131,13.131,0,0,1-2.683-.6l.215-.215a3.032,3.032,0,0,1,3.649-.492h0a12.916,12.916,0,0,1,3.336-2.173,16.944,16.944,0,0,1,2.191-.823,13.791,13.791,0,0,1,1.512.188l.528-.42,2.343-1.878a1.27,1.27,0,0,1,1.869.447l.581,1c.769-.179,4.964-1.6,4.964-1.6a6.19,6.19,0,0,1,3.318.134A2.987,2.987,0,0,1,69.673,221.838Z" transform="translate(-31.185 -216.323)" fill="#1d1d1b" opacity="0.1"/>
  </g>
</svg>
