<svg xmlns="http://www.w3.org/2000/svg" width="327.404" height="341.037" viewBox="0 0 327.404 341.037">
  <g id="Capa_2" data-name="Capa 2" transform="translate(-29.262 -30.59)">
    <g id="Grupo_75453" data-name="Grupo 75453" transform="translate(33.196 71.124)">
      <g id="Grupo_75450" data-name="Grupo 75450" transform="translate(5.217 86.647)">
        <path id="Trazado_162983" data-name="Trazado 162983" d="M52.128,147.887c5.186-2.01,18.683-5.407,18.683-5.407l4.473,13.912-20.369,4.914-9.076-7.494Z" transform="translate(-33.497 -124.592)" fill="#efaea6"/>
        <path id="Trazado_162984" data-name="Trazado 162984" d="M59.891,150.111c-.13-1.569-1.3-.506-3.7-.324-5.432.415-11.565-17.84-12.965-20.459-.7-1.3-8.842-1.219-6.483,5.86,2.023,6.12,8.466,25.749,10.735,32.413a3.228,3.228,0,0,0,3.293,2.2c5.186-.389,12.68-3.189,12.226-5.108C63.029,161.6,60.423,156.658,59.891,150.111Z" transform="translate(-36.32 -128.683)" fill="#211b2d"/>
        <path id="Trazado_162985" data-name="Trazado 162985" d="M225.053,260.612c-23.338-23.143-36.186-99.587-53.508-114.86-14.262-12.576-115.469-10.943-113.136-1.206s5.277,21.38,10.722,20.524,78.959-5.718,78.077,6.794,24.556,71.7,27.227,76.586S225.053,260.612,225.053,260.612Z" transform="translate(-29.782 -126.282)" fill="#12263f"/>
        <path id="Trazado_162986" data-name="Trazado 162986" d="M225.053,260.612c-23.338-23.143-36.186-99.587-53.508-114.86-14.262-12.576-115.469-10.943-113.136-1.206s5.277,21.38,10.722,20.524,78.959-5.718,78.077,6.794,24.556,71.7,27.227,76.586S225.053,260.612,225.053,260.612Z" transform="translate(-29.782 -126.282)" fill="#191939" opacity="0.61"/>
      </g>
      <g id="Grupo_75451" data-name="Grupo 75451" transform="translate(0 40.436)">
        <path id="Trazado_162987" data-name="Trazado 162987" d="M47.632,115.8c5.42,1.076,18.67,5.471,18.67,5.471l-3.7,14.145-19.785-6.781L39.23,117.473Z" transform="translate(-30.24 -86.293)" fill="#efaea6"/>
        <path id="Trazado_162988" data-name="Trazado 162988" d="M52.229,122.121c.739-1.387-.83-1.128-2.93-2.256-4.81-2.593-.182-21.263.078-24.193.13-1.5-6.807-5.783-8.622,1.452-1.569,6.262-6.677,26.281-8.363,33.126A3.254,3.254,0,0,0,34,133.893c4.629,2.489,12.408,4.123,13.056,2.256C48.767,133.5,49.182,127.994,52.229,122.121Z" transform="translate(-32.296 -93.041)" fill="#211b2d"/>
      </g>
      <path id="Trazado_162989" data-name="Trazado 162989" d="M47.931,135.054c1.673,5.018,63.53,16.648,83.627,37.6,1.1,1.154,12.965,39.479,26.657,71.672,9.97,23.467,15.092,35.214,30.546,38.637,8.4,1.854,14.806,1.932,20.083-.194a29.82,29.82,0,0,0,10.035-6.9,79.844,79.844,0,0,0,7.779-9.97s-8.726-6.7-17.607-14.184c-7.779-6.483-15.558-13.691-17.84-17.529-4.836-8.233-25.438-74.551-38.079-84.275-19.72-15.131-90.757-33.8-95.581-35.447S46.271,130.037,47.931,135.054Z" transform="translate(-27.739 -46.285)" fill="#12263f"/>
      <path id="Trazado_162990" data-name="Trazado 162990" d="M232.29,112.362c5.186-9.543.078-17.036,1.05-22.041s9.076-19.448-3.89-21.574c-2.593-.428-4.784,4.382-6.171,9.387-1.037,3.786-6.2-.674-6.923,1.387-1.115,3.164,1.906,4.706,3.047,7.235,1.517,3.358,1.206,15.429-.091,20.395C217.082,115.758,232.29,112.362,232.29,112.362Z" transform="translate(22.212 -59.818)" fill="#efaea6"/>
      <path id="Trazado_162991" data-name="Trazado 162991" d="M240,179.85c1.776,7,6.133,9.205,6.133,9.205,5.277,1.673,16.855-.519,21.963-2.269,5.614-1.919,5.186-2.386,5.186-2.386l-6.7-8-3.151-3.773a15.559,15.559,0,0,1-6.327.506c-2.852-.259-2.113,1.05-6.6-1.1C247.209,170.476,244.266,176.025,240,179.85Z" transform="translate(29.295 -29.262)" fill="#efaea6"/>
      <path id="Trazado_162992" data-name="Trazado 162992" d="M259.824,172.47a21.3,21.3,0,0,1-6.949.441c-2.386,8.492,4.408,12.226,6.34,9.867a58.233,58.233,0,0,0,3.76-6.483Z" transform="translate(32.964 -29.052)" fill="#1f1f39" opacity="0.14"/>
      <g id="Grupo_75452" data-name="Grupo 75452" transform="translate(290.929 132.478)">
        <path id="Trazado_162993" data-name="Trazado 162993" d="M280.431,176.022c-3.8-2.593-8.946-11.345-10.489-8.648s-8.013-5.562-9.763-2.749c-4.227,6.82-4.434,17.348-1.608,20.174s12.486,7.779,12.486,7.779Z" transform="translate(-256.686 -164.033)" fill="#efaea6"/>
        <path id="Trazado_162994" data-name="Trazado 162994" d="M272.241,178.956c1.011-2.334.532-2.71,2.152-3.812s2.217,2.775,4.343.182,4.11-5.64,7.559-4.045c4.979,2.295,1.828,6.081-.22,8.35-1.3,1.478,2.074,3.98,0,7.235-1.634,2.593-2.982,1.361-4.538,3.565-.946,1.3-.207,5.42-3.164,6.651-5.5,2.256-7.4-3.371-12.706-1.919-6.2,1.7-9.27-12.291-7.65-12.771,1.893-.558,4.888,3.617,6.573,2.9,2.515-1.063,1.037-2.23.467-4.668s1.076-5.808,3.008-2.023S271.333,181.07,272.241,178.956Z" transform="translate(-256.418 -162.014)" fill="#23233d"/>
      </g>
      <path id="Trazado_162995" data-name="Trazado 162995" d="M280.064,190.756c-.441-6.146-12.538-6.029-14.56-10.372-1.219-2.593,1.828-1.7,2.917-3.164,2.891-3.89,3.89-3.514,1.8-4.434-36.744-15.792-106.057,33.269-106.057,33.269s-5.718,27.137,8.661,34.008c17.724,8.466,17.931,17.49,21.691,15.325,14.43-8.272,75.381-47.79,75.381-47.79S275.358,201.907,280.064,190.756Z" transform="translate(6.475 -29.887)" fill="#fff"/>
      <path id="Trazado_162996" data-name="Trazado 162996" d="M272.611,198.09c-14.029-32.439-17.568-38.779-18.865-49.891s-.415-56.114.7-60.444c1.011-3.993-14.016.156-19.189,3.4s-1.374,46.675-2.139,59.861c-.622,10.735,6.081,30.858.324,36.886-4.862,5.1-27.564,11.332-38.9,16.557-7.429,3.384-14.7,13.328-31.558,5.77-8.168-3.643-3.06,21.354,1.439,23.584,7.779,3.825,20.537-.519,39.791-10.074,18.32-9.076,9.724-15.494,45.236-24.025a70.882,70.882,0,0,1,23.156-1.621Z" transform="translate(5.177 -54.66)" fill="#81d4fa"/>
      <path id="Trazado_162997" data-name="Trazado 162997" d="M272.611,198.09c-14.029-32.439-17.568-38.779-18.865-49.891s-.415-56.114.7-60.444c1.011-3.993-14.016.156-19.189,3.4s-1.374,46.675-2.139,59.861c-.622,10.735,6.081,30.858.324,36.886-4.862,5.1-27.564,11.332-38.9,16.557-7.429,3.384-14.7,13.328-31.558,5.77-8.168-3.643-3.06,21.354,1.439,23.584,7.779,3.825,20.537-.519,39.791-10.074,18.32-9.076,9.724-15.494,45.236-24.025a70.882,70.882,0,0,1,23.156-1.621Z" transform="translate(5.177 -54.66)" fill="#1f1f39" opacity="0.17"/>
      <path id="Trazado_162998" data-name="Trazado 162998" d="M160.3,256.18c2.321,3.89,3.008,3.89,7.559,6.664,6.288,3.721,16.012.117,17.827-2.347,8.907-12.1,14.819-8.8,24.453-14.677,10.813-7.624,34.721-12.33,49.268-23.338a72.427,72.427,0,0,0,9.361-9.231c7.611-8.246,13.653-27.538,12.784-27.111-24.116,2.593-57.048-.272-76.573,20.459-10.269,9.413-20.745,4.953-32.05,9.309C161.793,219.579,153.82,244.823,160.3,256.18Z" transform="translate(4.972 -25)" fill="#81d4fa"/>
      <path id="Trazado_162999" data-name="Trazado 162999" d="M194.21,206.014a314.946,314.946,0,0,1,45.107-5.277l-1.037-12.8-.895.1c-3.89.467-7.948,1.076-11.889,1.906h0a82.238,82.238,0,0,0-13.3,3.89c-.635.246-1.3.506-1.867.778h0l-.752.337a32.211,32.211,0,0,0-2.943,1.543l-1.024.6A89.184,89.184,0,0,0,194.21,206.014Z" transform="translate(15.717 -24.465)" fill="#1f1f39" opacity="0.17"/>
      <path id="Trazado_163000" data-name="Trazado 163000" d="M240.663,183.86c.441-.454-8.907-7.65-10.982-15.416a16.66,16.66,0,0,1-.545-6.6c.843-6.483,3.021-12.576,5.562-20.485,1.3,3.514,1,3.967,3.514,9.283-2.956,5.523-2.178,8.272-2.45,11.669a25.011,25.011,0,0,0,.609,7.4,41.307,41.307,0,0,0,4.81,11.513c.921,1.569,2.671,2.113,2.437,3.747C243.346,187.18,240.131,184.457,240.663,183.86Z" transform="translate(26.04 -38.277)" fill="#1f1f39" opacity="0.18"/>
      <path id="Trazado_163001" data-name="Trazado 163001" d="M244.308,213.569a3.1,3.1,0,0,0,3.553-2.788c.272-1.867-.441-2.152-1.491-3.89-3.151-5.368-6.794-13.173-6.172-21.522s14.858-24.984,14.482-37.6-10.541-18.281-10.061-36.3,11.345-35.382,11.423-40.7-.467-8.648-2.593-8.894-5.912,1.685-8.039,5.031-10.217,34.825-10.658,43.447c-.713,14.093,9.478,28.213,8.622,37.211s-9.413,26.683-10.774,37.172c-1.5,11.669,10.217,23.623,9.568,24.3a3.189,3.189,0,0,0-1.193,2.839C241.093,212.947,243.128,213.427,244.308,213.569Z" transform="translate(27.062 -61.854)" fill="#ff9d00"/>
      <path id="Trazado_163002" data-name="Trazado 163002" d="M198.186,123.529c-6.055-9.076-1.673-16.946-3.1-21.9S184.235,83.09,196.9,79.784c2.5-.648,5.186,3.89,7.014,8.791,1.387,3.656,6.107-1.3,7.014.726,1.413,3.047-1.452,4.862-2.347,7.481-1.206,3.488.233,15.481,1.984,20.3C213.654,125.552,198.186,123.529,198.186,123.529Z" transform="translate(14.581 -56.555)" fill="#efaea6"/>
      <path id="Trazado_163003" data-name="Trazado 163003" d="M268.21,215.14c-34.6-34.8-45.949-47.362-48.439-56.775S212.2,101.473,210.7,99.386c-3.617-5.186-19.176,8.051-19.176,8.051.363,4.356,4.836,44.9,6.625,56.075,2.515,15.636,36.6,57.359,36.6,57.359s11.2,20.589,23.182,15S268.21,215.14,268.21,215.14Z" transform="translate(14.919 -51.082)" fill="#81d4fa"/>
    </g>
    <circle id="Elipse_4911" data-name="Elipse 4911" cx="10.826" cy="10.826" r="10.826" transform="translate(324.377 62.083)" fill="#fff" opacity="0.79"/>
    <circle id="Elipse_4912" data-name="Elipse 4912" cx="6.742" cy="6.742" r="6.742" transform="translate(335.059 99.188) rotate(-4.8)" fill="#fff"/>
    <circle id="Elipse_4913" data-name="Elipse 4913" cx="6.223" cy="6.223" r="6.223" transform="translate(324.571 129.866)" fill="#fff" opacity="0.79"/>
    <circle id="Elipse_4914" data-name="Elipse 4914" cx="5.264" cy="5.264" r="5.264" transform="translate(330.6 160.477)" fill="#fff"/>
    <circle id="Elipse_4915" data-name="Elipse 4915" cx="4.084" cy="4.084" r="4.084" transform="translate(327.148 193.89) rotate(-67.28)" fill="#fff" opacity="0.36"/>
    <circle id="Elipse_4916" data-name="Elipse 4916" cx="4.084" cy="4.084" r="4.084" transform="matrix(0.769, -0.64, 0.64, 0.769, 341.957, 151.427)" fill="#fff" opacity="0.5"/>
    <path id="Trazado_163004" data-name="Trazado 163004" d="M261.524,91.338a4.071,4.071,0,1,1-.926-2.985,4.084,4.084,0,0,1,.926,2.985Z" transform="translate(66.457 16.694)" fill="#fff" opacity="0.5"/>
    <g id="Grupo_75454" data-name="Grupo 75454" transform="translate(69.151 30.591)" opacity="0.9">
      <circle id="Elipse_4917" data-name="Elipse 4917" cx="9.659" cy="9.659" r="9.659" transform="translate(0 18.253) rotate(-70.88)" fill="#fff"/>
      <circle id="Elipse_4918" data-name="Elipse 4918" cx="8.505" cy="8.505" r="8.505" transform="translate(35.891 34.409)" fill="#fff" opacity="0.5"/>
      <circle id="Elipse_4919" data-name="Elipse 4919" cx="6.016" cy="6.016" r="6.016" transform="translate(8.283 51.442) rotate(-70.63)" fill="#fff"/>
    </g>
    <g id="Grupo_75457" data-name="Grupo 75457" transform="translate(29.262 275.259)">
      <g id="Grupo_75455" data-name="Grupo 75455" transform="translate(55.242)">
        <ellipse id="Elipse_4920" data-name="Elipse 4920" cx="8.739" cy="9.97" rx="8.739" ry="9.97" fill="#fff" opacity="0.75"/>
        <circle id="Elipse_4921" data-name="Elipse 4921" cx="6.418" cy="6.418" r="6.418" transform="translate(11.889 23.558)" fill="#fff" opacity="0.35"/>
        <circle id="Elipse_4922" data-name="Elipse 4922" cx="4.317" cy="4.317" r="4.317" transform="translate(0.933 32.426)" fill="#fff" opacity="0.75"/>
      </g>
      <g id="Grupo_75456" data-name="Grupo 75456" transform="translate(0 42.72)" opacity="0.81">
        <path id="Trazado_163005" data-name="Trazado 163005" d="M95.577,262.3c10.191,5.484,6.794,7.9,1.841,10.917s-18.151,8.168-27.72,7.066S48.6,270.078,43.184,272.8,28.637,281.293,30,277.39c1.1-3.138,5.381-4.2,3.332-7.053s-6.12-8.013-2.826-8.881c4.175-1.1,7.585,4.071,10.243,3.241,5.938-1.867,18-7.585,22.132-7.585s4.914-4.823,7.779-4.862,3.034,1.517,5.186,4.253S88.1,258.292,95.577,262.3Z" transform="translate(-29.262 -252.249)" fill="#0267a4" fill-rule="evenodd" opacity="0.49"/>
        <path id="Trazado_163006" data-name="Trazado 163006" d="M69.832,270.562c-2.515,3.993-4.045,6.936-2.593,7.364s5.484-.285,5.627-1.737S70.843,272.3,72,271.2,69.832,270.562,69.832,270.562Z" transform="translate(-18.168 -246.848)" fill="#fff" fill-rule="evenodd" opacity="0.75"/>
        <path id="Trazado_163007" data-name="Trazado 163007" d="M55.82,272.575c-2.463,1.958-7.779,1.426-9.581-.921s-1.05-1.595,0-2.891,9.581,1.206,9.581,2.5Z" transform="translate(-24.551 -247.46)" fill="#fff" fill-rule="evenodd" opacity="0.75"/>
      </g>
    </g>
    <g id="Grupo_75458" data-name="Grupo 75458" transform="translate(296.544 348.873)" opacity="0.57">
      <path id="Trazado_163008" data-name="Trazado 163008" d="M239.376,285.7c-6.483,4.862-3.89,6.2-.169,7.779s13.432,3.89,20.031,2.113,13.653-9.244,17.75-7.948,10.995,4.447,9.646,1.867c-1.076-2.074-4.175-2.386-3.034-4.59s3.449-6.2,1.063-6.483c-3.021-.35-4.862,3.6-6.807,3.306-4.369-.7-13.354-3.488-16.233-3.06s-3.89-2.865-5.873-2.593-1.958,1.3-3.189,3.5S244.187,282.123,239.376,285.7Z" transform="translate(-235.413 -276.078)" fill="#0267a4" fill-rule="evenodd" opacity="0.49"/>
      <path id="Trazado_163009" data-name="Trazado 163009" d="M247.781,289.68c2.165,2.528,3.527,4.421,2.593,4.862s-3.89.363-4.11-.635,1.011-2.956.1-3.578S247.781,289.68,247.781,289.68Z" transform="translate(-232.227 -272.044)" fill="#fff" fill-rule="evenodd" opacity="0.75"/>
      <path id="Trazado_163010" data-name="Trazado 163010" d="M258.523,289.695a5.549,5.549,0,0,0,6.573-1.621c1.063-1.828.57-1.206-.3-2.01s-6.548,1.815-6.418,2.723Z" transform="translate(-228.603 -273.161)" fill="#fff" fill-rule="evenodd" opacity="0.75"/>
    </g>
  </g>
</svg>
