<svg xmlns="http://www.w3.org/2000/svg" width="306.491" height="428.494" viewBox="0 0 306.491 428.494">
  <g id="Capa_2" data-name="Capa 2" transform="translate(-72.01 -37.622)">
    <g id="Grupo_75448" data-name="Grupo 75448" transform="translate(72.01 37.622)">
      <g id="Grupo_75447" data-name="Grupo 75447" transform="translate(1.777)">
        <path id="Trazado_162903" data-name="Trazado 162903" d="M200.963,269.387l6.728-4.357,1.774,3.855,10.391-.482.173-7.711c0-3.2,0-6.034-.116-8.463a47.268,47.268,0,0,0-1.176-8.829c-.463-1.812-.964-2.776-1.349-2.93a18.621,18.621,0,0,0-4.087-.829c-7.306-.733-18.333,1.176-25.543,7.268s-19.277,9.272-22.188,11.836a8.038,8.038,0,0,0-2.313,3.663,18.352,18.352,0,0,0-.328,7.962Z" transform="translate(10.294 149.661)" fill="#3c3c3b"/>
        <g id="Grupo_75437" data-name="Grupo 75437" transform="translate(0 361.992)">
          <path id="Trazado_162904" data-name="Trazado 162904" d="M127.811,260.663a1.176,1.176,0,0,1-.5.752.983.983,0,0,1-.848.174l-3.855-.733a16,16,0,0,1-3.277-1.118l-4.8-2.12-3.855-1.754c-.231,0-.443-.212-.675-.289l-19.933-8.058a35.43,35.43,0,0,1-7.094-3.855,43.2,43.2,0,0,1-9.774-8.713,1.2,1.2,0,0,1,0-1.5L74.74,231.4l44.589,20.048,9.369,4.26v.617Z" transform="translate(-72.932 -219.839)" fill="#d2d2d2"/>
          <g id="Grupo_75436" data-name="Grupo 75436" transform="translate(1.707)">
            <path id="Trazado_162905" data-name="Trazado 162905" d="M84.678,235.113c6.188.829,12.646,5.88,20.8,2.313,3.1-.983,11.74-8.752,4.087-11.991-.829-.347-1.08,2.1-3.721,3.855-8.443,5.783-17.176,4.588-23.885,3.6h0A3.412,3.412,0,0,0,84.678,235.113Z" transform="translate(-66.264 -225.403)" fill="#e5e5e5"/>
            <path id="Trazado_162906" data-name="Trazado 162906" d="M127.722,258.784h0l-9.889-4.029-7.036-2.7a35.078,35.078,0,0,0-3.643-1.215l-9.5-2.14a44.7,44.7,0,0,1-11.913-5.34,52.819,52.819,0,0,1-11.778-9.118.405.405,0,0,1-.135-.366,6.072,6.072,0,0,1,4.01-4.646c2.757-1.022,6.728-.212,11.721.54h0a3.142,3.142,0,0,0,2.583,2.043H92.5l1.774.193a6.424,6.424,0,0,0,1.08,0c.675.116,1.388.154,2.159.212a7.71,7.71,0,0,1,1.157,0h2.1a3.644,3.644,0,0,0,1.118,0,9.474,9.474,0,0,0,2.082-.154,3.412,3.412,0,0,0,1.176-.193h0a13.488,13.488,0,0,0,2.082-.347h0l1.349-.328h.154a9.484,9.484,0,0,0,1.928-.578,14.707,14.707,0,0,0,1.407-.443,2.159,2.159,0,0,1,2.641.887c.251.4.482.887.771,1.426,1.812,3.354,4.318,8,10.371,9.041h0a1.928,1.928,0,0,0,.578,0,15.653,15.653,0,0,0,5.61-.212,22.668,22.668,0,0,1-.154,4.993,15.959,15.959,0,0,1-.578,3.065A26.314,26.314,0,0,1,127.722,258.784Z" transform="translate(-73.818 -222.297)" fill="#2b2a28"/>
          </g>
          <path id="Trazado_162907" data-name="Trazado 162907" d="M107.07,242.629c-3.374-.231-2.159-2.641-6.13-4.8.867-.482,1.928-.154,3.508-2.043,1.176-1.369,2.313-2.718,3.258-2.776H108a1.2,1.2,0,0,1,.848.5,1.137,1.137,0,0,1,.154.964C108.477,236.364,107.552,239.873,107.07,242.629Z" transform="translate(-46.948 -218.345)" fill="#e5e5e5"/>
          <path id="Trazado_162908" data-name="Trazado 162908" d="M84.4,234.93h0a1.118,1.118,0,0,1-1.06-1.157v-3.547a1.118,1.118,0,0,1,1.06-1.176h0a1.118,1.118,0,0,1,1.06,1.157v3.547a1.118,1.118,0,0,1-1.06,1.176Z" transform="translate(-63.277 -222.019)" fill="#d2d2d2"/>
          <path id="Trazado_162909" data-name="Trazado 162909" d="M86.091,235.02h0a1.1,1.1,0,0,1-1.06-1.157v-3.547a1.118,1.118,0,0,1,1.06-1.157h0a1.1,1.1,0,0,1,1.06,1.157v3.547A1.137,1.137,0,0,1,86.091,235.02Z" transform="translate(-61.709 -221.917)" fill="#d2d2d2"/>
          <path id="Trazado_162910" data-name="Trazado 162910" d="M87.792,235.12h0a1.118,1.118,0,0,1-1.06-1.157v-3.547a1.1,1.1,0,0,1,1.041-1.176h0a1.1,1.1,0,0,1,1.06,1.157v3.566a1.1,1.1,0,0,1-1.041,1.157Z" transform="translate(-60.132 -221.843)" fill="#d2d2d2"/>
          <path id="Trazado_162911" data-name="Trazado 162911" d="M89.879,235.122h0a1.157,1.157,0,0,1-1.2-1.1l-.386-3.682a1.137,1.137,0,0,1,.925-1.311h0a1.176,1.176,0,0,1,1.2,1.1l.386,3.7A1.157,1.157,0,0,1,89.879,235.122Z" transform="translate(-58.692 -222.038)" fill="#d2d2d2"/>
          <path id="Trazado_162912" data-name="Trazado 162912" d="M92.093,234.946h0a1.157,1.157,0,0,1-1.33-.964l-.887-3.7a1.157,1.157,0,0,1,.733-1.446h0a1.2,1.2,0,0,1,1.33.964l.887,3.7a1.176,1.176,0,0,1-.733,1.446Z" transform="translate(-57.263 -222.228)" fill="#d2d2d2"/>
          <path id="Trazado_162913" data-name="Trazado 162913" d="M94.3,234.277h0a1.176,1.176,0,0,1-1.388-.887l-1.234-3.643a1.176,1.176,0,0,1,.617-1.523h0a1.157,1.157,0,0,1,1.388.867l1.176,3.643a1.137,1.137,0,0,1-.559,1.542Z" transform="translate(-55.618 -222.813)" fill="#d2d2d2"/>
        </g>
        <path id="Trazado_162914" data-name="Trazado 162914" d="M204.209,182.44c-.482.482-.386,1.7-.135,3.2.135.733.27,1.542.5,2.371-4.029,7-24.521,15.094-60.878,33.735-8.386,4.3-23.461,7.827-28.916-.135l-1.465-2.429c-19.624-28.511,73.524-68.126,75.567-68.338a18.8,18.8,0,0,1,14.092,4.434C210.494,161.466,213.154,172.878,204.209,182.44Z" transform="translate(-37.984 67.333)" fill="#4f5050"/>
        <path id="Trazado_162915" data-name="Trazado 162915" d="M166.8,198.8l-2.525,5.494-2.969,6.728-41.119,92.763-2.641-2.063-6.554-5.2-12.55-9.947-1.369-1.041-2.2-1.793-.231-.135-1.793-1.465-.559-.443h0L91.41,281,89,279.245,132.066,183.8a17.522,17.522,0,0,1,4.164-6,14.692,14.692,0,0,1,1.561-1.369,11.561,11.561,0,0,1,1.446-1.022,18.892,18.892,0,0,1,10.718-2.892,19.9,19.9,0,0,1,3.508.463l.347.116a21.2,21.2,0,0,1,2.834.945l.347.116a.559.559,0,0,1,.27.154A16.117,16.117,0,0,1,160.307,176,18.757,18.757,0,0,1,166.8,198.8Z" transform="translate(-58.025 87.522)" fill="#4f5050"/>
        <path id="Trazado_162916" data-name="Trazado 162916" d="M193.391,112.946l-40.656,57.312L132.32,157.053l36.01-57.485c3.682-5.783,11.933-10.911,19.277-5.783C187.608,93.707,200.851,101.939,193.391,112.946Z" transform="translate(-17.835 12.526)" fill="#e8b485"/>
        <path id="Trazado_162917" data-name="Trazado 162917" d="M158.7,99.668l-16.135,27.3,22.053,14.709L185.24,114.4C195.457,99.109,173.462,77.634,158.7,99.668Z" transform="translate(-8.335 11.192)" fill="#f7b242"/>
        <path id="Trazado_162918" data-name="Trazado 162918" d="M170.485,141.651h0a16.443,16.443,0,0,1-1.2,1.6L135.9,168.543l-6.978,5.282-3.759,2.93-1.754,1.292-4.935-3.316-.193-.154-5.031-3.431L115.91,168l.116-.135,6.824-7.981,9.639-11.412,18.853-22.169a2.062,2.062,0,0,1,.308-.27,12.2,12.2,0,0,1,16.964-.27l.173.212a4.781,4.781,0,0,1,.752.79,12.068,12.068,0,0,1,1.388,14.265Z" transform="translate(-35.527 41.094)" fill="#e8b485"/>
        <g id="Grupo_75438" data-name="Grupo 75438" transform="translate(49.004 207.929)">
          <path id="Trazado_162919" data-name="Trazado 162919" d="M125.1,148.773c-.675-.733-1.33-1.465-1.928-2.217a41.678,41.678,0,0,1-13.86-.867c-1.349-.4-3.412-.366-3.855,1.581h0c-1,2.467,2.14,3.7,3.528,4.241,2.911,1.137,13.591,1.928,19.489,1.542A44.664,44.664,0,0,0,125.1,148.773Z" transform="translate(-91.944 -145.484)" fill="#e8b485"/>
          <path id="Trazado_162920" data-name="Trazado 162920" d="M118.878,154.015h0a2.6,2.6,0,0,1-.848,1.06l-1.137.81h-.154l-.347.328h-.154l-13.764,9.639a2.545,2.545,0,0,1-3.6-.54h0a2.66,2.66,0,0,1,.52-3.682l14.4-10.044,1.349-.983a2.68,2.68,0,0,1,3.47.694h0a2.6,2.6,0,0,1,.27,2.718Z" transform="translate(-98.352 -141.068)" fill="#e8b485"/>
          <path id="Trazado_162921" data-name="Trazado 162921" d="M120.484,155.811a2.873,2.873,0,0,1-.386.6l-1.928,1.928h0l-.116.154v.116h0v.116l-.212.193-.135.135-12.665,12.338a2.583,2.583,0,0,1-3.682,0h0a2.66,2.66,0,0,1,0-3.7l13.263-12.954.193-.116.154-.212h.154l1.619-1.619a1.1,1.1,0,0,1,.366-.251h0a2.487,2.487,0,0,1,3.3.308h0a2.545,2.545,0,0,1,.077,2.969Z" transform="translate(-96.256 -139.393)" fill="#e8b485"/>
          <path id="Trazado_162922" data-name="Trazado 162922" d="M121.039,157.815a.385.385,0,0,1-.135.27l-1.6,1.928-.193.27-.27.347L108.3,173.391a2.641,2.641,0,0,1-3.663.424h0a2.641,2.641,0,0,1-.424-3.682L114.7,157.371l.135-.135.212-.193v-.116h.116l.116-.154,1.523-1.928a2.159,2.159,0,0,1,.867-.655,2.545,2.545,0,0,1,2.8.231h0a2.583,2.583,0,0,1,.578,3.393Z" transform="translate(-93.438 -137.696)" fill="#e8b485"/>
          <path id="Trazado_162923" data-name="Trazado 162923" d="M120.8,159.292l-1.928,2.911h0L111.7,173.114a2.333,2.333,0,0,1-2.892.81l-.328-.135a2.39,2.39,0,0,1-.733-3.258l7.711-11.682.366-.54,1.041-1.561a2.236,2.236,0,0,1,.694-.655,2.14,2.14,0,0,1,2.487,0h0a2.294,2.294,0,0,1,.752,3.2Z" transform="translate(-89.962 -136.012)" fill="#e8b485"/>
          <path id="Trazado_162924" data-name="Trazado 162924" d="M129.183,163.46l-6.13,5.59-2.911,2.159h0a2.236,2.236,0,0,1-3.219-.482h0a2.467,2.467,0,0,1,.482-3.3l-.578.443h0a2.506,2.506,0,0,1-3.547-.54h0a2.6,2.6,0,0,1,.212-3.393h0l-.231.251h0a2.66,2.66,0,0,1-3.586-.617h0a2.525,2.525,0,0,1,.54-3.586,1.75,1.75,0,0,0-.251.154.249.249,0,0,0-.193.116c-.077.116,0,0-.154,0a2.737,2.737,0,0,1-3.046-.925h0a2.6,2.6,0,0,1,.578-3.643h0l1.349-.983,2.814-2.063v-.1l.887-.636,4.222-3.065a14.979,14.979,0,0,1,5.9-2.718h.771a4.993,4.993,0,0,1,4.607,1.928l2.68,2.448a7.712,7.712,0,0,1,1.157,2.024,12.92,12.92,0,0,1,.694,2.564A10.661,10.661,0,0,1,129.183,163.46Z" transform="translate(-91.192 -144.922)" fill="#e8b485"/>
        </g>
        <path id="Trazado_162925" data-name="Trazado 162925" d="M182.789,94.46c1.272,2.969-.887,6.728-4.183,10.371a89.619,89.619,0,0,1-15.75,12.646L159,112.542l-5.359-6.8L141.67,90.643c1.465-.694,8.482-4.935,15.229-9.523,1.735-1.137,3.451-2.294,5.051-3.451,1.041-.733,2.082-1.446,2.988-2.159l.578.559.54.636,3.2,3.354,3.663,3.855,2.853,3.027,1.349,1.446Z" transform="translate(-9.161 -2.472)" fill="#ebb686"/>
        <path id="Trazado_162926" data-name="Trazado 162926" d="M214.9,155.837c0,1.137-.154,2.294-.212,3.489-.135,2.66-.193,5.417-.347,8.328a138.26,138.26,0,0,1-2.525,22.188,175.577,175.577,0,0,1-9.523,31.056l-1.137,2.757c-.559,1.349-1.157,2.757-1.774,4.183h0l-11.47-3.528-1.928-.578-3.046-1.234-5.571-4.048-9.793-4.954-13.9-7q.964-2.545,1.677-5.147a51.371,51.371,0,0,0,1.157-5.436,11.9,11.9,0,0,0,.212-1.2c.116-.655.193-1.33.27-1.928s.193-1.561.251-2.352h0c0-.867.135-1.735.173-2.622.1-1.561.135-3.123.116-4.665a2.854,2.854,0,0,0,0-.4h0a.212.212,0,0,0,0-.154.945.945,0,0,0,0-.328c0-1.928-.116-3.855-.27-5.783-.173-2.159-.4-4.26-.694-6.265a2.274,2.274,0,0,1,0-.521h0a1.927,1.927,0,0,1,0-.328h0l-.173-1.118c-.251-1.523-.5-2.969-.79-4.337-.771-3.855-1.639-7.21-2.313-9.484s-1.1-3.47-1.137-3.6c-.713-2.236-1.272-4.415-1.735-6.574q-.463-2.14-.81-4.222a77.668,77.668,0,0,1,1.041-30.053c.193-.81.386-1.561.559-2.236h0a36.978,36.978,0,0,1,1.33-4.164h0l3.123-2.352h0l6.651-5.051h0l8.251-6.554,5.783-4.28a46.459,46.459,0,0,1,13.9,6.554h0l.617.4c9.639,6.843,17.08,17.35,21.051,31.307.212.675.386,1.369.559,2.063.27,1.06.54,2.14.771,3.219a1.464,1.464,0,0,0,0,.308c.521,2.506.945,5.07,1.234,7.711h0a102.94,102.94,0,0,1,.424,18.93Z" transform="translate(-2.719 6.647)" fill="#ff9d00"/>
        <g id="Grupo_75439" data-name="Grupo 75439" transform="translate(103.442 42.664)">
          <path id="Trazado_162927" data-name="Trazado 162927" d="M179.256,74.1a59.51,59.51,0,0,1,5.224,12.607c.366,1.427.694,2.892.945,4.376.386,2.448-3.277,3.99-7.113,5.359a31.384,31.384,0,0,0-6.747,2.834.674.674,0,0,0-.347.193c5.783,8.617,3.007,19.277-1.484,24.771a10.294,10.294,0,0,1-2.159,2.217l-4.9,3.277c-4.646,2.988-10-.983-12.569-4.8,0,0-3.855-6.709-4.839-8.231l-2.6.733a2.911,2.911,0,0,1-3.682-1.754h0a.868.868,0,0,1-.193-.443l-1.542-8.424h0l-.4-2.12a27.219,27.219,0,0,1-2.68-2.159,32.136,32.136,0,0,1-4.434-13.668,22.844,22.844,0,0,1,10.622-21.089c6.651-4.106,17.35-11.566,28.916-4.3A34.371,34.371,0,0,1,179.256,74.1Z" transform="translate(-123.741 -59.13)" fill="#ffc692"/>
          <path id="Trazado_162928" data-name="Trazado 162928" d="M177.5,68.363c5.012,5.629,9.812,12.26,11.566,18.487a14.111,14.111,0,0,1,0,8.559,10.891,10.891,0,0,1-2.217,3.855,12.782,12.782,0,0,1-1.446,1.2c-5.436,4.53-8.848,2.757-10.95-.636h0a24.656,24.656,0,0,1-2.467-6.5s0-.1,0-.135a38.264,38.264,0,0,1-.675-3.855c0,.559,0,1.928-.1,3.412a7.123,7.123,0,0,1,0,.887,53.612,53.612,0,0,1-.27,5.456c-2.506,1.484-2.506,1.484-4.916,2.737a6.5,6.5,0,0,1-.521-.81l-2.082-3.142c-2.988-4.646-5.378-8.656-7.6-11.566-5.783-7.711-10.6-8.617-23.133,3.181h0c-4.7,1.928-15.326-10.14,11.239-25.388,9.639-5.475,20.087-5.976,28.473-.386a28.782,28.782,0,0,1,5.089,4.646Z" transform="translate(-126.592 -59.754)" fill="#3c3c3b"/>
          <path id="Trazado_162929" data-name="Trazado 162929" d="M156.185,76.717c2.2,3.624,1.7,9.639-.675,11.1s-3.855-1.658-6.13-5.263c-1.484-2.371-4.164-5.417-1.928-7.711C149.3,72.766,152.966,71.4,156.185,76.717Z" transform="translate(-108.034 -47.462)" fill="#ffc692"/>
        </g>
        <g id="Grupo_75441" data-name="Grupo 75441" transform="translate(28.859 375.397)">
          <path id="Trazado_162930" data-name="Trazado 162930" d="M147.2,260.313a1.157,1.157,0,0,1-.347.829.887.887,0,0,1-.771.347l-4.01.135a16.75,16.75,0,0,1-3.451-.385l-5.051-1.118-4.164-.906c-.251,0-.463-.116-.713-.135l-8.482-1.465-12.7-2.178a35.835,35.835,0,0,1-7.711-2.217,43.2,43.2,0,0,1-11.431-6.4,1.2,1.2,0,0,1-.328-1.484l1.06-2.294,5.34,1.118,19.779,4.2,15.422,3.258,7.21,1.542,10.063,2.178v.617Z" transform="translate(-87.902 -222.445)" fill="#dadada"/>
          <g id="Grupo_75440" data-name="Grupo 75440" transform="translate(1.216)">
            <path id="Trazado_162931" data-name="Trazado 162931" d="M99.114,247.091c6.207-.5,13.61,3.084,20.82-2.14,2.814-1.6,9.639-11.046,1.446-12.588-.887-.154-.617,2.294-2.814,4.607-7.017,7.4-15.807,8.116-22.555,8.578h0a3.354,3.354,0,0,0,3.1,1.542Z" transform="translate(-81.596 -232.356)" fill="#ededed"/>
            <path id="Trazado_162932" data-name="Trazado 162932" d="M148.306,251.886a26.7,26.7,0,0,1-1.928,9.754v.135l-10.525-1.928-7.422-1.253-1.08-.135c-.887-.116-1.812-.212-2.737-.289h-9.639a45.86,45.86,0,0,1-12.685-2.718,52.32,52.32,0,0,1-13.494-6.4c-.116,0-.231-.212-.212-.328a2.622,2.622,0,0,1,0-1.041,6.458,6.458,0,0,1,2.776-4.26,5.618,5.618,0,0,1,.675-.386,11.316,11.316,0,0,1,3.1-.925c2.178-.386,4.8-.463,7.711-.655h0a3.2,3.2,0,0,0,1.928,1.349.867.867,0,0,0,.386,0h1.118l1.735-.193h0a4.066,4.066,0,0,0,1.06-.116h0a17.386,17.386,0,0,0,2.14-.251,4.528,4.528,0,0,1,1.118-.193h0a16.826,16.826,0,0,0,1.928-.54h0a3.566,3.566,0,0,0,1.06-.212h0a3.089,3.089,0,0,0,1.022-.308,6.106,6.106,0,0,0,.964-.289h0a2.986,2.986,0,0,0,.694-.251l.386-.193h0a10.873,10.873,0,0,0,1.928-.79h0c.386-.212.848-.386,1.234-.6h.135a4.587,4.587,0,0,0,.983-.463,8.186,8.186,0,0,0,.887-.521h0a7.168,7.168,0,0,0,1.272-.733,2.2,2.2,0,0,1,2.776.328c.328.347.655.752,1.041,1.234h0c2.487,2.911,5.9,6.863,12.029,6.631h0a1.658,1.658,0,0,0,.52,0h.617a16.982,16.982,0,0,0,4.839-1.33,26.7,26.7,0,0,1,1,8.039Z" transform="translate(-88.533 -228.226)" fill="#33312f"/>
          </g>
          <path id="Trazado_162933" data-name="Trazado 162933" d="M122.877,247.6c-3.335.5-2.68-2.121-7.017-3.393.752-.655,1.928-.559,3.007-2.737.848-1.581,1.7-3.161,2.6-3.412h.27a1.137,1.137,0,0,1,.925.308,1.157,1.157,0,0,1,.366.906C122.916,241.2,122.761,244.82,122.877,247.6Z" transform="translate(-61.965 -227.078)" fill="#ededed"/>
          <path id="Trazado_162934" data-name="Trazado 162934" d="M99.482,244.3h0a1.118,1.118,0,0,1-1.292-.906l-.752-3.47a1.118,1.118,0,0,1,.771-1.369h0a1.137,1.137,0,0,1,1.292.906l.771,3.47A1.137,1.137,0,0,1,99.482,244.3Z" transform="translate(-79.091 -226.617)" fill="#dadada"/>
          <path id="Trazado_162935" data-name="Trazado 162935" d="M101.162,244.023h0a1.1,1.1,0,0,1-1.272-.906l-.771-3.451a1.118,1.118,0,0,1,.79-1.369h0a1.1,1.1,0,0,1,1.272.906l.771,3.451a1.118,1.118,0,0,1-.79,1.369Z" transform="translate(-77.532 -226.859)" fill="#dadada"/>
          <path id="Trazado_162936" data-name="Trazado 162936" d="M102.839,243.771h0a1.1,1.1,0,0,1-1.292-.906l-.771-3.47a1.137,1.137,0,0,1,.79-1.369h0a1.137,1.137,0,0,1,1.292.906l.752,3.47a1.118,1.118,0,0,1-.771,1.369Z" transform="translate(-75.99 -227.109)" fill="#dadada"/>
          <path id="Trazado_162937" data-name="Trazado 162937" d="M104.866,243.339h0a1.157,1.157,0,0,1-1.388-.829l-1.157-3.528a1.137,1.137,0,0,1,.617-1.484h0a1.137,1.137,0,0,1,1.388.81l1.157,3.528a1.137,1.137,0,0,1-.617,1.5Z" transform="translate(-74.605 -227.621)" fill="#dadada"/>
          <path id="Trazado_162938" data-name="Trazado 162938" d="M107.035,242.647h0a1.157,1.157,0,0,1-1.5-.655l-1.658-3.431a1.176,1.176,0,0,1,.4-1.581h0a1.157,1.157,0,0,1,1.5.655l1.658,3.431a1.176,1.176,0,0,1-.4,1.581Z" transform="translate(-73.227 -228.143)" fill="#dadada"/>
          <path id="Trazado_162939" data-name="Trazado 162939" d="M108.981,241.565h0a1.176,1.176,0,0,1-1.542-.559l-1.928-3.316a1.176,1.176,0,0,1,.27-1.619h0a1.2,1.2,0,0,1,1.561.559l1.928,3.316a1.157,1.157,0,0,1-.289,1.619Z" transform="translate(-71.761 -229.008)" fill="#dadada"/>
        </g>
        <path id="Trazado_162940" data-name="Trazado 162940" d="M205.275,181.589c-.443.54-.27,1.735.1,3.2a19.289,19.289,0,0,0,.675,2.352c-1.234,2.506-4.453,5.321-9.639,8.771-9.234,6.246-24.656,14.632-45.977,27.451l-2.8,1.7a44.571,44.571,0,0,1-7.441,3.547l-1.06.386c-7.518,2.583-16.116,3.3-20.318-2.043l-.925-1.311-.713-1a14.535,14.535,0,0,1-3.065-11.817.829.829,0,0,1,0-.212c1.022-6.111,5.34-12.627,11.393-19.046.328-.328.636-.636.945-.983,2.255-2.294,4.742-4.607,7.364-6.863,1-.887,2.063-1.754,3.123-2.66.6-.463,1.214-.945,1.793-1.427,1.928-1.561,3.99-3.084,6.034-4.588,3.451-2.545,6.959-4.974,10.41-7.248l3.451-2.236h0c1.349-.887,2.7-1.716,4.029-2.545,5.783-3.624,11.3-6.728,15.576-9.041a102.4,102.4,0,0,1,9.523-4.819,18.6,18.6,0,0,1,2.892-.289,18.892,18.892,0,0,1,8.964,2.159,17.35,17.35,0,0,1,2.487,1.542,17.754,17.754,0,0,1,4.8,24.694A19.536,19.536,0,0,1,205.275,181.589Z" transform="translate(-34.944 67.433)" fill="#12263f"/>
        <path id="Trazado_162941" data-name="Trazado 162941" d="M161.842,193.444a19.742,19.742,0,0,1-.347,4.337l-.6,2.834-.694,3.123-1.465,7.21-20.53,99.375-3.007-1.446-7.518-3.721-.6-.289-13.706-6.747h0l-1.523-.713h0l-2.082-1.022h0l-.463-.231H109.1l-2.063-1.06h0l-.6-.289h0l-.366-.193H105.9l-.655-.443L102.66,292.9l.308-1.427.636-2.911,18.988-89.331,1.928-8.79a2.331,2.331,0,0,1,0-.347.829.829,0,0,1,0-.212,17.7,17.7,0,0,1,2.68-6.188,13.342,13.342,0,0,1,1.253-1.658,11.1,11.1,0,0,1,1.2-1.311,19.144,19.144,0,0,1,3.219-2.525,18.564,18.564,0,0,1,6.631-2.564h.193a19.138,19.138,0,0,1,3.335-.251H144.3a12.106,12.106,0,0,1,2.043.27h.386a.637.637,0,0,1,.308.1,16.405,16.405,0,0,1,3.316.983c.347.154.713.308,1.041.482a7.4,7.4,0,0,1,.675.347,18.66,18.66,0,0,1,8.81,10.622,17.85,17.85,0,0,1,.964,5.263Z" transform="translate(-45.352 90.18)" fill="#565858"/>
        <path id="Trazado_162942" data-name="Trazado 162942" d="M207.782,162.609l-1.214,2.737-1.831,4.164-2.159,4.916s-9.909,25.774-32.887,23.962a28.906,28.906,0,0,1-3.065-.366l-.906-.193a25.6,25.6,0,0,1-8.174-3.161,24.175,24.175,0,0,1-3.239-2.294L142.74,170.263l8.79-11.8,2.294-3.123,5.34-7.152,37.495,11.2,11.046,3.3Z" transform="translate(-8.168 64.956)" fill="#12263f"/>
        <path id="Trazado_162943" data-name="Trazado 162943" d="M125.728,112.154c0,.733-.386,1.446-.424,2.2a2.66,2.66,0,0,0,1.774,2.352,7.711,7.711,0,0,0,3.065.347h.212a7.711,7.711,0,0,1,3.277-3.1,2.988,2.988,0,0,0-2.8-1.677l1.928-2.641c0-.135.193-.328,0-.463s-.347.135-.193.173a1.234,1.234,0,0,0,.482-.81c0-.308-.4-.617-.655-.424a11.239,11.239,0,0,1-2.313-3.855l-3.624,3.239c-.79.694-1.639,1.581-1.5,2.622C125.053,110.785,125.651,111.479,125.728,112.154Z" transform="translate(-24.68 24.191)" fill="#565858"/>
        <g id="Grupo_75442" data-name="Grupo 75442" transform="translate(109.291 109.946)">
          <path id="Trazado_162944" data-name="Trazado 162944" d="M130.713,100.678a1.253,1.253,0,0,1-.173-2.448L143.147,94.7a1.253,1.253,0,0,1,1.542.867,1.272,1.272,0,0,1-.867,1.542l-12.607,3.528A1.5,1.5,0,0,1,130.713,100.678Z" transform="translate(-129.626 -94.656)" fill="#878787"/>
          <path id="Trazado_162945" data-name="Trazado 162945" d="M134.086,108.8a1.272,1.272,0,0,1-.713-.366,1.253,1.253,0,0,1,0-1.754l9.812-9.812a1.254,1.254,0,0,1,1.774,1.774l-9.812,9.793A1.292,1.292,0,0,1,134.086,108.8Z" transform="translate(-126.483 -92.946)" fill="#878787"/>
          <path id="Trazado_162946" data-name="Trazado 162946" d="M138.412,113.389a.906.906,0,0,1-.328,0,1.272,1.272,0,0,1-.655-1.658l5.359-12.415a1.253,1.253,0,0,1,2.294.983l-5.359,12.453A1.253,1.253,0,0,1,138.412,113.389Z" transform="translate(-122.481 -90.942)" fill="#878787"/>
        </g>
        <path id="Trazado_162947" data-name="Trazado 162947" d="M232.58,174.226h0c-.366,2.159-.906,4.415-1.542,6.766l-16.367,60.473v.135a20.55,20.55,0,0,1-25.35,14.015l-.4-.154a18.968,18.968,0,0,1-3.489-1.349,20.53,20.53,0,0,1-11.258-19.933,21.818,21.818,0,0,1,.752-4.068l2.545-9.1,6.959-33.7L187.8,171.1l.308-1.561,4.26-22.362S235.587,157.262,232.58,174.226Z" transform="translate(20.933 64.019)" fill="#078c9d"/>
        <path id="Trazado_162948" data-name="Trazado 162948" d="M173.3,287.806a10.217,10.217,0,0,0,8.174,10.159l1.658.328,2.159.443,1.928.386h0l16.54,3.354h.251a9.639,9.639,0,0,0,4.839-.289,10.14,10.14,0,0,0,7.133-9.639V205.53a18.332,18.332,0,0,0-.154-2.737,20.107,20.107,0,0,0-2.969-8.482,20.55,20.55,0,0,0-17.022-9.639h-.4a20.434,20.434,0,0,0-20.781,18.911q0,.607,0,1.214v2.159l-.386,20.935-.308,16.906v3.6l-.135,8.231v2.622l-.193,17.118Z" transform="translate(20.183 98.798)" fill="#078c9d"/>
        <path id="Trazado_162949" data-name="Trazado 162949" d="M226.045,86.228c1.928,8.193-31.943,11.354-31.943,11.354L188.55,60.319c2.352,0,17.928-3.624,27.644-5.629C215.288,54.806,223.037,73.428,226.045,86.228Z" transform="translate(34.331 -21.788)" fill="#f1bc87"/>
        <path id="Trazado_162950" data-name="Trazado 162950" d="M253.971,200.859a98.957,98.957,0,0,1-12.183,5.4,109.764,109.764,0,0,1-17.928,5.031c-.906.193-1.831.366-2.757.521s-2.429.4-3.663.578a145.273,145.273,0,0,1-25.5,1.215c-1.754,0-3.509-.154-5.3-.27l-3.547-.27c-.386-2.853-.733-5.783-1.022-8.6-.231-2.217-.443-4.453-.617-6.67-.251-3.566-.463-7.152-.6-10.718a26.907,26.907,0,0,0-.1-2.815c0-1.928,0-3.971-.116-5.937v-2.082c0-4.665,0-9.215.135-13.61.135-5.07.366-9.928.655-14.477a11.71,11.71,0,0,1,.135-2.178,5.692,5.692,0,0,0,0-1.523c0-.983.154-1.928.212-2.892s.173-2.275.289-3.354c.559-6.554,1.157-12.048,1.7-16,.4-3.2.752-5.417.945-6.381,2.8-14.439,11.991-27.875,15.923-33.89l.5-.193L232.65,69.58a157.806,157.806,0,0,1,11.393,19.277c3.971,8.771,5.59,18.8,6.554,29.764.5,5.668.829,11.566,1.214,17.716q.289,5.783.81,11.8a33.377,33.377,0,0,0,.308,3.354C253.239,153.919,253.624,177.572,253.971,200.859Z" transform="translate(26.993 -7.974)" fill="#dadada"/>
        <path id="Trazado_162951" data-name="Trazado 162951" d="M252.021,182.363a60.952,60.952,0,0,1-9,.5h-.867a4.6,4.6,0,0,0-1.253.116,97.4,97.4,0,0,1-15.538,0h0a72.636,72.636,0,0,1-17.735-3.528c-.424-.116-.829-.27-1.234-.424-.81-.27-1.6-.6-2.371-.906-9.407-3.855-16.116-9.793-19.412-16.752v-.154a7.554,7.554,0,0,0-.308-.694,23.268,23.268,0,0,1-1.928-7.46c-.174-1.1-.308-2.178-.482-3.239l3.547.289c1.774.154,3.547.251,5.282.308a138.8,138.8,0,0,0,25.562-1.253c1.214-.193,2.41-.366,3.624-.6s1.928-.328,2.757-.521a115.275,115.275,0,0,0,17.928-5.089,112.12,112.12,0,0,0,12.183-5.34v3.354C263.067,168.927,252.06,182.228,252.021,182.363Z" transform="translate(28.153 55.15)" fill="#00bcd4"/>
        <path id="Trazado_162952" data-name="Trazado 162952" d="M180.766,88.819l2.949-.675c.79,1.581,1.234,5.031,3.219,8.212,4.588,6.188,7.5,10.911,12.916,9.484l3.142-1.06c6.766-2.429,15.229-13.186,11.952-24.829,4.087-1.5,12.241,1.311,11.566-3.007-.655-4.646,2.7-12.511,1.735-18.622-7.229-26.41-23.345-20.935-33.2-18.564-10.236,2.949-18.506,11.566-17.542,26.159a37.47,37.47,0,0,0,.733,5.417,32.776,32.776,0,0,0,2.043,2.853S172.284,87.142,180.766,88.819Z" transform="translate(23.493 -37.622)" fill="#ffc990"/>
        <path id="Trazado_162953" data-name="Trazado 162953" d="M195.19,47a5.571,5.571,0,0,0-3.335,7.287c3.72,9.5,8.212,23.133,14.419,27.316.193.135,4.415-1.137,9.2-2.1a5.783,5.783,0,0,0,4.646-4.858c1.176-8.964-2.718-18.834-6.9-29.437a4.434,4.434,0,0,0-5.571-2.545Z" transform="translate(37.041 -33.178)" fill="#131313"/>
        <path id="Trazado_162954" data-name="Trazado 162954" d="M179.46,175.8l3.374-16.212C181.291,167.513,179.749,175.32,179.46,175.8Z" transform="translate(25.898 75.532)" fill="#1d1d1b" opacity="0.2"/>
        <path id="Trazado_162955" data-name="Trazado 162955" d="M183.12,150.478l.173-.308A.713.713,0,0,1,183.12,150.478Z" transform="translate(29.294 66.793)" fill="#1d1d1b" opacity="0.2"/>
        <path id="Trazado_162956" data-name="Trazado 162956" d="M306.956,94.283c-11.431,22.651-20.183,43.837-36.107,61.514-3.046,1.754-11.566,10.391-12.742,16.559-.154.81-.443,13.3-.964,23.133h0a101.287,101.287,0,0,1-.925,11.1,23.229,23.229,0,0,1-2.14-8.154c-.173-1.1-.308-2.178-.482-3.239-.386-2.853-.733-5.783-1.022-8.6a175.572,175.572,0,0,1-9.523,31.056h0l-1.214,2.737c-.559,1.349-1.157,2.757-1.773,4.183h0l-2.159,4.916S228,255.269,205.017,253.457c-9.234,6.246-24.656,14.632-45.977,27.451l-.694,3.123-1.465,7.21-20.511,99.433-3.007-1.446a26.7,26.7,0,0,1-1.928,9.754l.193,4.4a1.157,1.157,0,0,1-.347.829.887.887,0,0,1-.771.347l-4.01.135a16.75,16.75,0,0,1-3.451-.386L118,403.184l-4.164-.906c-.251,0-.463-.116-.713-.135l-8.482-1.465c2.41-1.465,5.051-3.065,7.711-4.819.6-.386,1.2-.79,1.774-1.214a63.191,63.191,0,0,0,11.1-9.427c.675-.713,1.311-1.465,1.928-2.217l.366-.482c.386-.482.733-.983,1.06-1.484h0l.173-.251a2.274,2.274,0,0,0,.251-.347,4.2,4.2,0,0,0,.231-.424c6.766-31.326,15.422-73.254,19.547-93.765l.752-3.643h0c.27-1.427.54-2.718.752-3.855h0c.578-3.027.925-4.819.925-5.031s.713-.79,2.371-1.928c1.234-.79,3.027-1.812,5.456-3.2,6.3-3.586,16.964-9.465,33.813-18.834l16.559-9.234c.906-.482,1.812-1,2.737-1.523a30.726,30.726,0,0,0,3.335-2.159,48.464,48.464,0,0,0,13.128-15.75,70.2,70.2,0,0,0,3.354-6.708c9.022-20.126,11.123-43.663,11.123-43.895-7.21,3.682-7.827,3.855-18.371,8.5-11.817,13.34-20.087,16.81-28.588,19.142a51.378,51.378,0,0,0,1.157-5.436,11.885,11.885,0,0,0,.212-1.2c1.06-1.292,2.217-2.7,3.489-4.183h0l2.429-2.737c.443-.52.925-1.06,1.407-1.581l1.812-2.063c3.6-4.029,7.518-8.289,11.239-12.4h0c8.617-9.523,16.27-18.179,16.887-20.839,7.981-8.174,10.313-11.856,10.853-14.015.231-1.06.4-2.121.559-3.181h0c1.928-14.265-4.954-28.164-15.306-41.736h0l.617.4c9.639,6.843,17.08,17.35,21.051,31.307,4.742-4.434,11.393-9.465,11.393-9.465l2.892-3.393,13.687-16.232,26.314,2.969Z" transform="translate(-43.515 9.83)" fill="#1d1d1b" opacity="0.2"/>
        <g id="Grupo_75444" data-name="Grupo 75444" transform="translate(138.05 80.389)">
          <path id="Trazado_162957" data-name="Trazado 162957" d="M153.625,132.5l5.012.81a17.464,17.464,0,0,0,5.918.308A5.976,5.976,0,0,0,169.2,130.3a3.7,3.7,0,0,0-1.928-4.877,7.711,7.711,0,0,0-4.492.829,13.051,13.051,0,0,1-6.882.424,20.047,20.047,0,0,0-4.087-.752,3.374,3.374,0,0,0-3.316,2.063,3.181,3.181,0,0,0,1.5,3.335,9.08,9.08,0,0,0,3.624,1.176Z" transform="translate(-140.929 -36.602)" fill="#e8b485"/>
          <path id="Trazado_162958" data-name="Trazado 162958" d="M194.282,112.984c17.35-16.1,36.338,9.639,16.058,21.938l-40.483,21.456-9.407-14.053Z" transform="translate(-129.788 -52.865)" fill="#ffc990"/>
          <path id="Trazado_162959" data-name="Trazado 162959" d="M218.019,113.154l-19.509,25.7L179.85,119.92l14.419-22.4Z" transform="translate(-111.789 -62.442)" fill="#ffc990"/>
          <path id="Trazado_162960" data-name="Trazado 162960" d="M205.393,87.664c11.836-17.581,38.034-5.089,24.251,16.328L211.08,130.036,187.33,114.4Z" transform="translate(-104.85 -79.323)" fill="#fff"/>
          <g id="Grupo_75443" data-name="Grupo 75443" transform="translate(0 88.407)">
            <path id="Trazado_162961" data-name="Trazado 162961" d="M179.174,140.251a18.7,18.7,0,0,1-7.711,8.694l-6.689,4.453a.5.5,0,0,1-.578,0c-5.88-4.318-9.754-9.639-13.8-16.232a.578.578,0,0,1,0-.347l.385-2.834a.521.521,0,0,1,.212-.347c1.5-1.022,11.566-7.807,12.068-8a8.4,8.4,0,0,1,6.766.578h0S179.27,140.078,179.174,140.251Z" transform="translate(-139.143 -125.184)" fill="#ffc990"/>
            <path id="Trazado_162962" data-name="Trazado 162962" d="M157.645,129.18a1.118,1.118,0,0,0-.347.154l-9.947,6.342c-5.282,3.123-2.506,9.272,3.335,5.475l9.639-6.169s0-.1.135-.135a55.634,55.634,0,0,1-2.815-5.668Z" transform="translate(-144.544 -121.477)" fill="#e8b485"/>
            <path id="Trazado_162963" data-name="Trazado 162963" d="M159.205,132.13l-10.93,7c-4.954,2.892-1.253,8.733,3.855,5.263l10.583-6.843C161.48,135.735,160.266,133.981,159.205,132.13Z" transform="translate(-143.252 -118.74)" fill="#e8b485"/>
            <path id="Trazado_162964" data-name="Trazado 162964" d="M160.716,134.86l-10.468,7c-4.877,3.123-1.388,8.521,3.566,5.3l10.7-7.152C163.2,138.33,161.93,136.614,160.716,134.86Z" transform="translate(-141.427 -116.207)" fill="#e8b485"/>
            <path id="Trazado_162965" data-name="Trazado 162965" d="M160.831,137.48l-6.284,4.376c-5.513,3.3-1.793,8.019,2.776,4.511l6.824-4.742C163.028,140.275,161.929,138.887,160.831,137.48Z" transform="translate(-137.821 -113.776)" fill="#e8b485"/>
            <path id="Trazado_162966" data-name="Trazado 162966" d="M168.895,148.667l-4.762,3.181a2.66,2.66,0,0,1-3.624-1.06h0a2.68,2.68,0,0,1,.829-3.7l-.829.5a3.046,3.046,0,0,1-4.183-1.022h0a3.007,3.007,0,0,1,.925-4.183l-.771.463a3.046,3.046,0,0,1-4.183-1.022h0a3.007,3.007,0,0,1,.925-4.183,3.065,3.065,0,0,1-4.183-1.022h0a3.027,3.027,0,0,1,.925-4.183l6.169-3.855Z" transform="translate(-140.816 -122.033)" fill="#ffc990"/>
          </g>
        </g>
        <path id="Trazado_162967" data-name="Trazado 162967" d="M202.442,57.186c.983,4.183-1.407,9.831-4.125,10.468s-3.239-2.8-4.26-6.959c-.675-2.757-2.313-6.516.482-8.1C196.89,51.21,200.977,51.075,202.442,57.186Z" transform="translate(38.425 -24.457)" fill="#ffc990"/>
        <path id="Trazado_162968" data-name="Trazado 162968" d="M243.167,260.829l-.231,7.711-10.371.424-1.6-3.528-.173-.366-6.747,4.337-38.034.771a19.741,19.741,0,0,1-.193-4.993,13.632,13.632,0,0,1,.559-2.969,7.962,7.962,0,0,1,2.352-3.643,56.929,56.929,0,0,1,9.851-4.7,54.112,54.112,0,0,0,12.068-6.786,3.41,3.41,0,0,0,.328-.231c7-5.783,17.562-7.711,24.849-7.171h.713a17.079,17.079,0,0,1,4.087.848c.386.135.906,1.1,1.349,2.911a40.949,40.949,0,0,1,.867,5.359c0,1.06.193,2.217.251,3.489C243.244,254.815,243.244,257.725,243.167,260.829Z" transform="translate(31.725 149.756)" fill="#33312f"/>
        <path id="Trazado_162969" data-name="Trazado 162969" d="M243,170.819l-.79,6.015-8.386,63.48-.366,2.834v.135a20.28,20.28,0,0,1-6.612,11.393,19.991,19.991,0,0,1-4.222,2.834,20.4,20.4,0,0,1-13.282,1.831h-.4a23.13,23.13,0,0,1-3.6-1.08,20.067,20.067,0,0,1-7.036-4.742,18.118,18.118,0,0,1-2.815-3.624,20.569,20.569,0,0,1-2.757-7.5h0a20.131,20.131,0,0,1-.251-3.065,22.941,22.941,0,0,1,.4-4.087l.887-4.7.887-4.588,3.181-51.818.463-7.711v-6.612l1.06-.771,8.887-6.477c3.547-6.593,14.709-10.641,23.653-8.328C240.316,146.318,246.736,154.164,243,170.819Z" transform="translate(37.968 60.679)" fill="#00bcd4"/>
        <path id="Trazado_162970" data-name="Trazado 162970" d="M236.475,299.77a10.352,10.352,0,0,1-1.928.964,9.851,9.851,0,0,1-4.781.694,1.37,1.37,0,0,1-.27,0l-1.774-.212-14.979-1.773h0l-1.928-.212-2.024-.251-1.677-.193a9.871,9.871,0,0,1-2.776-.752,10.14,10.14,0,0,1-6.188-8.694v-.733l-.694-10.66-1.215-17.08-.154-2.6-.54-8.231-.251-3.6-1.1-16.868-.964-14.9-.386-5.976-.251-2.236v-2.333h0a20.588,20.588,0,0,1,2.7-9.234,21.207,21.207,0,0,1,2.583-3.509,20.01,20.01,0,0,1,4.762-3.855,20.589,20.589,0,0,1,9-2.737h.4a20.569,20.569,0,0,1,17.755,8.174,20.086,20.086,0,0,1,3.663,8.212,6.636,6.636,0,0,1,.173,1.08,9.27,9.27,0,0,1,.193,1.639l3.547,43.046.655,8.212.231,2.6,1.349,17.061,1.292,15.807a10.082,10.082,0,0,1-4.434,9.157Z" transform="translate(38.089 98.863)" fill="#00bcd4"/>
        <path id="Trazado_162971" data-name="Trazado 162971" d="M183.21,107.191l-7.017,30.844-8.444,33.254-.154.231-11.162,26.873-5.783,13.822-4.048,9.639a.227.227,0,0,0-.193.116c-.058.116-.328.154-.521.193h0a41.292,41.292,0,0,1-12.916,3.181c-1.388,0-3.354.694-3.258,2.718h0c-.193,2.66,3.161,2.872,4.646,2.969a17.7,17.7,0,0,0,3.7-.347h0l-.636.867v.116l-2.043,2.834-.983,1.33-10.641,13.976a2.641,2.641,0,0,0,.636,3.663h0a2.545,2.545,0,0,0,3.6-.578l10.14-13.4s0-.116.135-.1l-8.656,16.367a2.66,2.66,0,0,0,1.137,3.528h0a2.583,2.583,0,0,0,3.508-1.137l8.289-15.6-6.092,15.422a2.641,2.641,0,0,0,1.523,3.374h0a2.66,2.66,0,0,0,3.374-1.523l6.072-15.287v-.116l-3.855,13.494a2.39,2.39,0,0,0,1.677,2.872h.366a2.333,2.333,0,0,0,2.506-1.658l3.489-12.588h0l2.1-2.93,4.164-7.113a10.641,10.641,0,0,0-.193-8.983l2.7-3.855,5.031-7.171,24.116-34.314a12.335,12.335,0,0,0,.636-1.928h0l11.085-34.969,11.3-32.27C217.967,95.451,190.555,81.687,183.21,107.191Z" transform="translate(-26.219 13.905)" fill="#1d1d1b" opacity="0.2"/>
        <path id="Trazado_162972" data-name="Trazado 162972" d="M228.247,221.9l-8.386,63.48a9.27,9.27,0,0,1,.193,1.639l3.547,43.046.655,8.212.231,2.6,1.349,17.061,1.292,15.807a10.082,10.082,0,0,1-4.492,9.272c0,1.06.193,2.217.251,3.489a77.105,77.105,0,0,1,0,8.463l-.231,7.711-10.371.424-1.523-3.528c1.2-5.031,2.294-10.082,3.219-15.152.655-3.528,1.214-7.055,1.639-10.6a128.2,128.2,0,0,0,.636-29.4c-1.446-14.13-5.783-27.8-7.711-41.871-.154-.983-.27-1.928-.366-2.988a128.755,128.755,0,0,1,.4-29.591,206.07,206.07,0,0,1,5.571-27.952c1.7-6.439,3.6-13.031,4.993-19.644,2.14-10.294,2.988-20.646-.347-30.478-.308-.906-.655-1.793-.964-2.718a18.257,18.257,0,0,1-.925-3.489,15.982,15.982,0,0,1-.154-3.046h0a30.883,30.883,0,0,1,.251-3.258q4.434-42.16,8.79-84.4c.5,5.668.829,11.566,1.214,17.716q.289,5.783.81,11.8a33.368,33.368,0,0,0,.308,3.354c.231,2.39.617,26.044.964,49.331v3.354C239.293,208.467,228.285,221.768,228.247,221.9Z" transform="translate(51.927 15.609)" fill="#1d1d1b" opacity="0.2"/>
        <g id="Grupo_75446" data-name="Grupo 75446" transform="translate(88.313 104.906)">
          <path id="Trazado_162973" data-name="Trazado 162973" d="M192.376,111.6l-25.388,65.543-23.017-7.711,20.839-64.541c2.159-6.516,8.906-13.494,17.35-10.391C182.081,94.245,196.867,99.007,192.376,111.6Z" transform="translate(-95.34 -90.469)" fill="#ffc692"/>
          <path id="Trazado_162974" data-name="Trazado 162974" d="M158.844,105.128l-8.964,30.4,24.887,8.887,13.321-31.48C194.276,95.605,167.769,80.125,158.844,105.128Z" transform="translate(-89.857 -92.041)" fill="#f7b242"/>
          <path id="Trazado_162975" data-name="Trazado 162975" d="M179.206,144.788h0a16.78,16.78,0,0,1-.771,1.831L152.2,179.391l-5.475,6.824-2.93,3.855-1.388,1.677-5.59-1.928-.231-.1-5.783-2.1,1.793-3.682v-.173l4.646-9.407,6.631-13.494,12.858-26.121.231-.328a12.183,12.183,0,0,1,16.386-4.4l.231.154a4.279,4.279,0,0,1,.906.578,12.048,12.048,0,0,1,4.839,13.494Z" transform="translate(-107.559 -58.235)" fill="#ffc692"/>
          <g id="Grupo_75445" data-name="Grupo 75445" transform="translate(0 125.093)">
            <path id="Trazado_162976" data-name="Trazado 162976" d="M142.411,158.807c-.829-.559-1.658-1.1-2.429-1.677a41.831,41.831,0,0,1-13.668,2.545c-1.407,0-3.393.482-3.431,2.506h0c-.366,2.622,2.988,3.065,4.453,3.239,3.123.386,13.668-1.388,19.277-3.277a44.335,44.335,0,0,0-4.2-3.335Z" transform="translate(-114.929 -156.749)" fill="#ffc692"/>
            <path id="Trazado_162977" data-name="Trazado 162977" d="M136.318,165.924h0a2.622,2.622,0,0,1-.559,1.234l-.906,1.06-.135.1-.251.4h-.135l-10.988,12.723a2.545,2.545,0,0,1-3.624.347h0a2.6,2.6,0,0,1-.386-3.682L130.9,164.825l1.08-1.272a2.68,2.68,0,0,1,3.528-.173h0A2.564,2.564,0,0,1,136.318,165.924Z" transform="translate(-118.744 -151.49)" fill="#ffc692"/>
            <path id="Trazado_162978" data-name="Trazado 162978" d="M137.837,167.271a2.043,2.043,0,0,1-.231.655l-1.407,2.352h0v.289h0v.116l-.154.231-.1.173-9.253,15.056a2.622,2.622,0,0,1-3.586.906h0a2.622,2.622,0,0,1-.906-3.566l9.639-15.807s0-.116.154-.173v-.231l.135-.1,1.176-1.928a1.137,1.137,0,0,1,.289-.328h0a2.506,2.506,0,0,1,3.277-.521h0a2.564,2.564,0,0,1,.964,2.872Z" transform="translate(-115.868 -150.369)" fill="#ffc692"/>
            <path id="Trazado_162979" data-name="Trazado 162979" d="M138.757,168.749v.308l-1.1,2.294-.1.289-.193.424h0l-7.036,14.882a2.66,2.66,0,0,1-3.451,1.311h0a2.6,2.6,0,0,1-1.311-3.451l7.036-14.94.1-.173.154-.231v-.4l1-2.178a2.448,2.448,0,0,1,.694-.829,2.506,2.506,0,0,1,2.757-.463h0A2.545,2.545,0,0,1,138.757,168.749Z" transform="translate(-112.624 -149.11)" fill="#ffc692"/>
            <path id="Trazado_162980" data-name="Trazado 162980" d="M139.142,169.755l-1.118,3.3h0l-4.28,12.357a2.333,2.333,0,0,1-2.6,1.484h-.366a2.39,2.39,0,0,1-1.5-2.969l4.665-13.224.212-.6.655-1.793a2.314,2.314,0,0,1,.482-.81,2.217,2.217,0,0,1,2.429-.636h0A2.333,2.333,0,0,1,139.142,169.755Z" transform="translate(-109.077 -147.841)" fill="#ffc692"/>
            <path id="Trazado_162981" data-name="Trazado 162981" d="M148.927,172.485l-4.492,6.863-2.39,2.776h0a2.255,2.255,0,0,1-3.239.347h0a2.448,2.448,0,0,1-.328-3.3l-.463.559v.116h0a2.487,2.487,0,0,1-3.547.347h0a2.641,2.641,0,0,1-.636-3.354h0l-.173.289h0a2.66,2.66,0,0,1-3.6.289h0a2.564,2.564,0,0,1-.347-3.624,1.06,1.06,0,0,1-.212.212c-.077.039,0,.116-.154.173s0,0-.135,0a2.7,2.7,0,0,1-3.181-.154h0a2.622,2.622,0,0,1-.867-3.47h0l1.08-1.272,2.217-2.68v-.116l.694-.848,3.354-4.01a14.555,14.555,0,0,1,5.051-4.068c.193,0,.328-.154.52-.173a1.042,1.042,0,0,1,.212-.1,5.051,5.051,0,0,1,4.916.655l3.181,1.735a8.462,8.462,0,0,1,1.639,1.677,14.422,14.422,0,0,1,1.292,2.333A10.564,10.564,0,0,1,148.927,172.485Z" transform="translate(-113.098 -156.932)" fill="#ffc692"/>
          </g>
        </g>
      </g>
      <path id="Trazado_162982" data-name="Trazado 162982" d="M378.5,259.486a10.8,10.8,0,0,1-10.776,10.8H82.805a10.8,10.8,0,0,1-10.8-10.8h0a10.8,10.8,0,0,1,10.8-10.776h284.92A10.776,10.776,0,0,1,378.5,259.486Z" transform="translate(-72.01 158.212)" fill="#131313" opacity="0.1"/>
    </g>
  </g>
</svg>
