<svg id="Grupo_75338" data-name="Grupo 75338" xmlns="http://www.w3.org/2000/svg" width="206.201" height="175.139" viewBox="0 0 206.201 175.139">
  <g id="Grupo_75330" data-name="Grupo 75330" transform="translate(49.058)">
    <path id="Trazado_162339" data-name="Trazado 162339" d="M105.3,106.9l1,13.757,1.673-2.944,1.673.9,2.174,1.171,1.6.836.36-4.182.778-9.275a11.567,11.567,0,0,1-2.509.485,12.436,12.436,0,0,1-2.367,0,17.229,17.229,0,0,1-2.425-.326A12.975,12.975,0,0,1,105.3,106.9Z" transform="translate(-88.641 -57.383)" fill="#ffc990"/>
    <path id="Trazado_162340" data-name="Trazado 162340" d="M109.778,85.33h.092a4.474,4.474,0,0,1,4.608,4.34l-.142,16.1a16.191,16.191,0,0,1-9.2.234L104.7,93.935C104.258,89.126,107.311,85.4,109.778,85.33Z" transform="translate(-88.536 -53.851)" fill="#ededed"/>
    <path id="Trazado_162341" data-name="Trazado 162341" d="M87.2,108.8l-1.673,3.847-.151.335,20,8.029c1.154-.694,6.766-.142,6.908-1.673.092-1,2.726-3.546,2.509-4.5-.393-1.673-3.839-2.434-4.884-2.576C106.263,111.8,87.2,108.8,87.2,108.8Z" transform="translate(-85.38 -57.694)" fill="#edbb86"/>
    <path id="Trazado_162342" data-name="Trazado 162342" d="M105.95,135.151l-1.84,9.509,8.714-23.191a21.859,21.859,0,0,0,.4-2.969l-3.772-24.78v25.323Z" transform="translate(-88.446 -55.225)" fill="#131313" opacity="0.1"/>
    <g id="Grupo_75326" data-name="Grupo 75326" transform="translate(4.607 66.678)">
      <path id="Trazado_162343" data-name="Trazado 162343" d="M90.907,247.356c-.376,1.472,5.5,1.355,6.13,1.355l11.307-.259c3.345-.7,1.1-6.3.97-6.565a2.308,2.308,0,0,0-1.321-1.346h0c-.535-.176-2.024-.276-5.135,1.037h0l-.159.067c-3.195,1.321-5.495,2.041-8.363,3.2C92.655,245.474,91.425,246.252,90.907,247.356Z" transform="translate(-90.889 -145.92)" fill="#16191e"/>
      <path id="Trazado_162344" data-name="Trazado 162344" d="M96.82,225.753c2.459,1.781,5.854,1.246,9.45-.912a10.438,10.438,0,0,1,4-1.321.209.209,0,0,1,0-.1c.435-5.344.97-9.919,1.522-13.891.92-6.54,1.9-11.441,2.442-15.522.134-.886.234-1.748.309-2.559.067-.577.1-1.129.134-1.673a20.347,20.347,0,0,0-2.108-10.855c2.593-6.69,4.792-18.7,6.348-26.762v.769c.059,1.522.109,3.011.176,4.491.226,5.955.435,11.315.937,17.755.117,1.505.243,3.078.41,4.725.535,2.158,1.246,5.62,2.007,9.684.109.61.243,1.229.351,1.857.184.895.36,1.815.519,2.751.067.343.134.669.192,1,1.723,9.425,3.529,20.071,4.374,25.089h0l3.145,1.673,2.651,1.422v-1.422c0-4.842.243-9.1.485-12.888.418-6.423.97-11.524,1-15.89V191.4a22.757,22.757,0,0,0-3.63-12.737.393.393,0,0,0,0-.084V178.4c1.288-6.506,1.614-13.18,2.459-27.021.259-2.735-2.935-22.706-2.952-22.873h-.435l-4.416-.234-8.581-.452-2.668-.125-5.252-.276h-.042l-.151.435c0,.1-.075.192-.109.293a127.244,127.244,0,0,0-7.351,38.044c-.134,4.123-.677,7.6-.259,11.6l.677,10.788.184,2.827.092,1.572.05.794,1.673,26.528a2.216,2.216,0,0,1-1.372,2.266C101.043,223.395,98.844,224.917,96.82,225.753Z" transform="translate(-91.86 -127.42)" fill="#ffc990"/>
      <g id="Grupo_75325" data-name="Grupo 75325" transform="translate(23.443 87.863)">
        <path id="Trazado_162345" data-name="Trazado 162345" d="M118.937,247.356c-.368,1.472,5.5,1.355,6.139,1.355l11.3-.259c3.345-.7,1.1-6.3.979-6.565a2.317,2.317,0,0,0-1.33-1.346h0c-.535-.176-2.024-.276-5.135,1.037h0l-.159.067c-3.186,1.321-5.495,2.041-8.363,3.2C120.7,245.474,119.455,246.252,118.937,247.356Z" transform="translate(-118.92 -233.783)" fill="#16191e"/>
        <path id="Trazado_162346" data-name="Trazado 162346" d="M132.5,237.5l-.485-5.018h5.553c-.284,2.509.962,5.2.728,8.146a.167.167,0,0,0,0,.092,10.161,10.161,0,0,0-4,1.33c-3.563,2.149-6.992,2.676-9.45.9a33.362,33.362,0,0,0,6.289-3.145A2.509,2.509,0,0,0,132.5,237.5Z" transform="translate(-119.891 -232.48)" fill="#ffc990"/>
      </g>
    </g>
    <path id="Trazado_162347" data-name="Trazado 162347" d="M140.306,203.93H127.92c.243,1.213.468,2.509.711,3.755,5.394.711,8.664,3.563,10.688,13.908C139.8,214.275,140.448,208.689,140.306,203.93Z" transform="translate(-92.343 -73.266)" fill="#131313" opacity="0.1"/>
    <path id="Trazado_162348" data-name="Trazado 162348" d="M103.83,203.93l.142,2.367c4.24.594,8,5.612,8.982,15.714,1.137-7.962,2.317-13.531,2.751-18.081Z" transform="translate(-88.4 -73.266)" fill="#131313" opacity="0.1"/>
    <path id="Trazado_162349" data-name="Trazado 162349" d="M138.6,184.669a13.489,13.489,0,0,1-3.345,1.087h0a63.745,63.745,0,0,1-11.876.97h0c-2.952.05-6.055,0-9.1-.192h0c-4.106-.209-8.1-.552-11.474-.987-2.342-.293-4.382-.627-5.955-.97q.243-2.383.519-4.625c1.146-10.236,2.317-18.683,3.462-25.675.644-3.956,1.288-7.46,1.915-10.554.067-.343.142-.677.209-1.012h0c2.7-13.072,5.093-18.683,6.507-21.987a1.145,1.145,0,0,1,.109-.293l.2-.443c.159-.4.309-.753.435-1.1-.159-.836-.326-1.773-.477-2.676-.059-.318-.117-.652-.159-.978-.368-2.158-.7-4.391-.987-6.632h0c-.059-.393-.109-.786-.159-1.179s-.092-.736-.134-1.1h0v-.259c-.092-.836-.176-1.614-.268-2.425-.217-2.208-.4-4.4-.519-6.523a71.22,71.22,0,0,1,.142-12.1h0a26.612,26.612,0,0,1,5.018-1.806h0c.753-.234,1.514-.485,2.275-.761l.418-.059q.468-.075.928-.125h0a44.643,44.643,0,0,1,9.25,0h.318a9.171,9.171,0,0,1,.937.276c.636.176,1.522.435,2.509.786h0c3.3,1.146,7.853,3.245,8.79,6.49a15.322,15.322,0,0,1-.109,1.606,128.543,128.543,0,0,1-4.274,20.071,48.424,48.424,0,0,1-3.053,7.962c0,.067.368,1.087.97,3.078a.134.134,0,0,1,0,.084c.552,1.84,1.346,4.742,2.216,8.739a.125.125,0,0,1,0,.075c.059.276.117.552.184.836h0c.544,2.509,1.087,5.444,1.6,8.748.142.878.284,1.79.418,2.726.836,5.787,1.581,12.7,2.041,20.715Q138.707,173.575,138.6,184.669Z" transform="translate(-87.257 -53.311)" fill="#ededed"/>
    <path id="Trazado_162350" data-name="Trazado 162350" d="M122.5,104.741a6.979,6.979,0,0,0,6.69,7.226c3.68,0,6.247-1.857,6.473-6.515.243-4.826-4.759-7.937-5.72-12.193C129.107,89.454,122.5,100.752,122.5,104.741Z" transform="translate(-91.456 -55.024)" fill="#ededed"/>
    <g id="Grupo_75327" data-name="Grupo 75327" transform="translate(18.193 36.507)">
      <path id="Trazado_162351" data-name="Trazado 162351" d="M120.322,103.6a6.979,6.979,0,0,1-6.69,7.226c-3.688,0-6.239-1.857-6.473-6.515-.243-4.834,4.767-7.937,5.729-12.193C113.715,88.3,120.322,99.6,120.322,103.6Z" transform="translate(-107.136 -91.344)" fill="#ededed"/>
      <path id="Trazado_162352" data-name="Trazado 162352" d="M114.549,111.084c-3.914,0-6.59-1.94-6.833-6.816a7.359,7.359,0,0,1,.084-1.438,7.385,7.385,0,0,0-.661,3.345c.234,4.658,2.768,6.515,6.473,6.515a6.691,6.691,0,0,0,5.913-3.788,6.841,6.841,0,0,1-4.976,2.183Z" transform="translate(-107.134 -93.224)" fill="#1d1d1b" opacity="0.07"/>
    </g>
    <path id="Trazado_162353" data-name="Trazado 162353" d="M138.266,133.239c.059.276.117.552.184.836l-.427-1.188v-.042a50.967,50.967,0,0,0-2.133-4.859,21.075,21.075,0,0,0-4.29-5.854c-.309-.268-.619-.527-.945-.778,2.835-3.655,3.83-7.577,4.29-12.085-1.087,1.982-3.053,2.835-5.553,2.835a6.69,6.69,0,0,1-5.913-3.8,6.841,6.841,0,0,0,5.018,2.174c3.922,0,6.59-1.94,6.833-6.816a6.413,6.413,0,0,0-.084-1.447c.059.142.109.284.159.427.117-2.358.243-4.859.51-7.527l6.515-1.84a128.538,128.538,0,0,1-4.274,20.071,48.422,48.422,0,0,1-3.053,7.962c0,.067.368,1.087.97,3.078a.134.134,0,0,1,0,.084c.552,1.84,1.346,4.742,2.216,8.739a.126.126,0,0,1-.025.025Z" transform="translate(-91.617 -55.153)" fill="#1d1d1b" opacity="0.07"/>
    <g id="Grupo_75329" data-name="Grupo 75329" transform="translate(16.861)">
      <path id="Trazado_162354" data-name="Trazado 162354" d="M109.931,63.193l3.822-4.073-.125-9.96C105.423,50.423,102.228,59.472,109.931,63.193Z" transform="translate(-105.541 -47.931)" fill="#362a2b"/>
      <path id="Trazado_162355" data-name="Trazado 162355" d="M119,80.192l.836-4.583c4.4-6.381,5.921-6.632,10.538-6.59V80.46L122.7,85.051Z" transform="translate(-107.744 -51.181)" fill="#edbb86"/>
      <g id="Grupo_75328" data-name="Grupo 75328" transform="translate(2.631)">
        <path id="Trazado_162356" data-name="Trazado 162356" d="M130.852,65.668a22.388,22.388,0,0,0,.226-7.727c-2.317-11.349-10.236-9.434-14.468-8.706-10.922,2.409-7.192,14.117-7.192,14.117l-.7,4.064c-.192.836.677,1.3,1.355,1.489a1.188,1.188,0,0,1,.836,1,19.237,19.237,0,0,0,1.087,3.479c.836,2.074,2.81,2.777,5.135,2.325,0,0,5.687-1.53,6.155-9.007C125.1,66.136,130.467,67.441,130.852,65.668Z" transform="translate(-108.688 -47.847)" fill="#ffc990"/>
        <path id="Trazado_162357" data-name="Trazado 162357" d="M131.787,73.039c-13,6.047-5.946-11.524-7.284-11.332-8.748,1.246-6.69-8.622-15.438-5.955-.535-2.342.209-6.69,9.852-7.92,6.415-.786,11.457,1.714,13.44,7.159C134.288,60.335,139.933,68.313,131.787,73.039Z" transform="translate(-108.728 -47.691)" fill="#362a2b"/>
        <path id="Trazado_162358" data-name="Trazado 162358" d="M128.491,64.648c.3,1.79-.836,4.115-2.032,4.307s-1.288-1.28-1.606-3.061c-.209-1.188-.836-2.818.427-3.4C126.35,61.971,128.048,62.038,128.491,64.648Z" transform="translate(-111.278 -50.071)" fill="#ffc990"/>
      </g>
      <path id="Trazado_162359" data-name="Trazado 162359" d="M116.413,58.716a5.344,5.344,0,0,0-3.479-2.843,12.453,12.453,0,0,0-4.274-.192,1.556,1.556,0,0,0-.677.134.719.719,0,0,0-.393.577,1.137,1.137,0,0,0,.477.836,10.22,10.22,0,0,0,6.021,2.91,4.114,4.114,0,0,1,2.718,2.81A8.112,8.112,0,0,0,116.413,58.716Z" transform="translate(-105.877 -48.982)" fill="#362a2b"/>
    </g>
  </g>
  <path id="Trazado_162360" data-name="Trazado 162360" d="M138.921,176.509q-2.643-1.489-5.294-2.777a78.9,78.9,0,0,0-13.456-5.227c-.886-.243-1.773-.468-2.651-.677a57.831,57.831,0,0,0-14.426-1.572l-1.514.059c.644-3.956,1.288-7.46,1.915-10.554h33.386C137.717,161.581,138.461,168.505,138.921,176.509Z" transform="translate(-38.974 -65.381)" fill="#1d1d1b" opacity="0.1"/>
  <path id="Trazado_162361" data-name="Trazado 162361" d="M65.55,119.466a1.129,1.129,0,0,1-.276,0,1.079,1.079,0,0,1-.761-1.313l.769-2.9a6.8,6.8,0,0,1,6.364-5.294l3.345-.217a1.077,1.077,0,0,1,.142,2.149l-3.345.217a4.625,4.625,0,0,0-4.432,3.63l-.769,2.927a1.087,1.087,0,0,1-1.037.8Z" transform="translate(-32.901 -57.847)" fill="#9d9d9c"/>
  <path id="Trazado_162362" data-name="Trazado 162362" d="M229.735,250.908a4.458,4.458,0,0,1-4.458,4.457H31.178a4.458,4.458,0,0,1-4.458-4.458h0a4.458,4.458,0,0,1,4.458-4.458h194.1a4.458,4.458,0,0,1,4.458,4.458Z" transform="translate(-26.72 -80.226)" fill="#131313" opacity="0.1"/>
  <g id="Grupo_75331" data-name="Grupo 75331" transform="translate(3.747 93.666)">
    <path id="Trazado_162363" data-name="Trazado 162363" d="M40.667,245.915a4.734,4.734,0,1,1-4.725-4.725A4.733,4.733,0,0,1,40.667,245.915Z" transform="translate(-31.2 -173.031)" fill="#3c3c3b"/>
    <rect id="Rectángulo_32830" data-name="Rectángulo 32830" width="3.696" height="68.77" transform="translate(7.611)" fill="#878787"/>
    <path id="Trazado_162364" data-name="Trazado 162364" d="M36.219,247.017h0a1.589,1.589,0,0,1-1.489-.962l-1.89-4.826h6.69l-1.848,4.826a1.589,1.589,0,0,1-1.464.962Z" transform="translate(-31.468 -173.037)" fill="#12263f"/>
    <path id="Trazado_162365" data-name="Trazado 162365" d="M42.89,241.739H31.6V238.9a1.2,1.2,0,0,1,1.213-1.2h8.865a1.2,1.2,0,0,1,1.213,1.2Z" transform="translate(-31.265 -172.46)" fill="#706f6f"/>
    <path id="Trazado_162366" data-name="Trazado 162366" d="M37.533,246.366a.836.836,0,1,1-.836-.836A.836.836,0,0,1,37.533,246.366Z" transform="translate(-31.963 -173.741)" fill="#3c3c3b"/>
  </g>
  <g id="Grupo_75332" data-name="Grupo 75332" transform="translate(19.578 93.666)">
    <ellipse id="Elipse_4908" data-name="Elipse 4908" cx="4.725" cy="4.725" rx="4.725" ry="4.725" transform="translate(0 68.159)" fill="#3c3c3b"/>
    <rect id="Rectángulo_32831" data-name="Rectángulo 32831" width="3.696" height="68.77" transform="translate(7.602)" fill="#878787"/>
    <path id="Trazado_162367" data-name="Trazado 162367" d="M55.135,247.017h0a1.589,1.589,0,0,1-1.505-.962l-1.89-4.826h6.732l-1.882,4.826A1.572,1.572,0,0,1,55.135,247.017Z" transform="translate(-50.394 -173.037)" fill="#12263f"/>
    <path id="Trazado_162368" data-name="Trazado 162368" d="M61.793,241.739H50.52V238.9a1.2,1.2,0,0,1,1.238-1.2h8.865a1.2,1.2,0,0,1,1.171,1.2Z" transform="translate(-50.194 -172.459)" fill="#706f6f"/>
    <path id="Trazado_162369" data-name="Trazado 162369" d="M56.453,246.366a.836.836,0,1,1-.836-.836A.836.836,0,0,1,56.453,246.366Z" transform="translate(-50.891 -173.741)" fill="#3c3c3b"/>
  </g>
  <g id="Grupo_75333" data-name="Grupo 75333" transform="translate(186.497 93.666)">
    <ellipse id="Elipse_4909" data-name="Elipse 4909" cx="4.725" cy="4.725" rx="4.725" ry="4.725" transform="translate(0 68.159)" fill="#3c3c3b"/>
    <rect id="Rectángulo_32832" data-name="Rectángulo 32832" width="3.696" height="68.77" transform="translate(7.602)" fill="#878787"/>
    <path id="Trazado_162370" data-name="Trazado 162370" d="M254.722,247.011h0a1.572,1.572,0,0,1-1.464-1l-1.9-4.826h6.69l-1.865,4.859a1.581,1.581,0,0,1-1.464.962Z" transform="translate(-249.988 -173.031)" fill="#12263f"/>
    <path id="Trazado_162371" data-name="Trazado 162371" d="M261.392,241.739H250.11V238.9a1.2,1.2,0,0,1,1.2-1.2h8.873a1.2,1.2,0,0,1,1.2,1.2Z" transform="translate(-249.784 -172.46)" fill="#706f6f"/>
    <path id="Trazado_162372" data-name="Trazado 162372" d="M256.043,246.366a.836.836,0,1,1-.836-.836A.836.836,0,0,1,256.043,246.366Z" transform="translate(-250.481 -173.741)" fill="#3c3c3b"/>
  </g>
  <path id="Trazado_162373" data-name="Trazado 162373" d="M233.343,157.4H29.3v-6.565a5.127,5.127,0,0,1,5.127-5.127h193.79a5.127,5.127,0,0,1,5.127,5.127Z" transform="translate(-27.142 -63.736)" fill="#ededed"/>
  <path id="Trazado_162374" data-name="Trazado 162374" d="M229.579,149.66c0,2.116-1.413,3.822-3.153,3.822H41.133c-1.74,0-3.153-1.673-3.153-3.822h0c0-2.116,1.413-3.83,3.153-3.83H226.426C228.166,145.83,229.579,147.5,229.579,149.66Z" transform="translate(-28.563 -63.755)" fill="#131313" opacity="0.1"/>
  <path id="Trazado_162375" data-name="Trazado 162375" d="M260.219,144.917l-3.245.4c-.912.109-1.748.184-2.509.234a27.467,27.467,0,0,1-3.981,0c-1.338-.109-2.057-.335-2.149-.552a8.471,8.471,0,0,1-.611-2.149c-.493-3.044-.059-7.527,2.108-10.638.1-.142.2-.293.293-.443,2.024-3.262,2.894-8.121,3.805-9.417,1.372-1.957,4.809-1.589,4.809-1.589l.05.711,1.087,15.4L258.3,139.9l1.673.594v.836Z" transform="translate(-62.866 -59.648)" fill="#2e2e2d"/>
  <path id="Trazado_162376" data-name="Trazado 162376" d="M161.016,142.931c-5.762,4.625-15.89,4.039-20.807.084-1.087-6.824-1.372-13.122,0-18.324,7.786-.376,18.792,1.773,24.629,2.685Z" transform="translate(-45.145 -60.288)" fill="#00bcd4"/>
  <path id="Trazado_162377" data-name="Trazado 162377" d="M262.042,137.59l-1.857,2.86,1.673.761-.209,4.407-3.27.075c-1.355,0-2.551,0-3.588-.05a20.739,20.739,0,0,1-3.755-.493c-.769-.2-1.179-.41-1.238-.577a7.878,7.878,0,0,1-.351-1.74,15.7,15.7,0,0,1,3.078-10.872c2.584-3.086,3.947-8.162,5.018-9.425a3.345,3.345,0,0,1,1.564-.978,7.627,7.627,0,0,1,3.345-.142Z" transform="translate(-63.167 -59.739)" fill="#3c3c3b"/>
  <g id="Grupo_75335" data-name="Grupo 75335" transform="translate(11.062 62.754)">
    <path id="Trazado_162378" data-name="Trazado 162378" d="M75.259,130.31v13.03l-5.453.167h0l-1.112.042-4.575.142-.025-.886v-.176l-.075-3.5-.008-.243-.042-2.024-.109-4.984,3.3-.452,3.3-.46,1.99-.276Z" transform="translate(-43.861 -123.969)" fill="#ffc990"/>
    <g id="Grupo_75334" data-name="Grupo 75334">
      <path id="Trazado_162379" data-name="Trazado 162379" d="M64.655,123.014A2.76,2.76,0,0,1,66.579,125l.527,2.3a7,7,0,0,1-.209,2.634h0a8.714,8.714,0,0,1-6.239,6.289.586.586,0,0,1,0,.117h0c.368,1.673,2.7,3.914,1.112,4.508-1.756.652-3.88,3.345-6.2,4.182-10.655,2.509-11.8-4.182-12.837-8.137a9.291,9.291,0,0,1,2.793-9.158,11.884,11.884,0,0,1,3.053-1.982,18.4,18.4,0,0,1,2.032-.769,13.793,13.793,0,0,1,1.4.184l.493-.393,2.174-1.748a1.162,1.162,0,0,1,1.723.418l.552.928c.711-.167,4.591-1.489,4.591-1.489A5.77,5.77,0,0,1,64.655,123.014Z" transform="translate(-40.358 -122.728)" fill="#ffc990"/>
      <path id="Trazado_162380" data-name="Trazado 162380" d="M64.78,143.206c-.209,1.355-1.43,2.183-3.069,2.693-.276.092-.577.167-.836.243a48.125,48.125,0,0,1-8.673.652H51.064c-5.52.117-7.786-.937-9.2-3.855a22.1,22.1,0,0,1-1.338-3.864c-1.2-4.558-.418-8.413,1.3-10.036a2.835,2.835,0,0,1,3.387-.46h0a13.755,13.755,0,0,0,.117,1.514c.836,8.647,4.474,6.013,13.1,4.14.36,1.029.36,1.029.686,2.183l-.059.075c-.619.836-2.509,2.852-2.643,2.977a11.575,11.575,0,0,1,3.646-.92h.167a3.924,3.924,0,0,1,.544,0h0a3.981,3.981,0,0,1,2.459.836h0a3.346,3.346,0,0,1,.6.636,5.854,5.854,0,0,1,.945,3.186Z" transform="translate(-39.947 -123.626)" fill="#3c3c3b"/>
      <path id="Trazado_162381" data-name="Trazado 162381" d="M60.569,142.2c1.673-.452,3.178-2.367,2.885-3.446s-1.6-.594-3.253-.167c-1.1.284-2.726.426-2.751,1.673C57.425,141.4,58.136,142.842,60.569,142.2Z" transform="translate(-42.812 -125.244)" fill="#ffc990"/>
    </g>
    <path id="Trazado_162382" data-name="Trazado 162382" d="M68.209,123.07a2.76,2.76,0,0,1,1.924,1.982l.527,2.3a7,7,0,0,1-.209,2.634h0a7.384,7.384,0,0,1-2.843,1.982,22.479,22.479,0,0,1-3.437,1.079,5.578,5.578,0,0,0,2.509-1.949,10.036,10.036,0,0,0,1.413-2.86,9.325,9.325,0,0,0,.544-3.128A5.628,5.628,0,0,0,68.209,123.07Z" transform="translate(-43.912 -122.784)" fill="#050504" opacity="0.1"/>
  </g>
  <path id="Trazado_162383" data-name="Trazado 162383" d="M131.315,139.046q-.577,1.957-1.3,3.922l-.1.284q-.393,1.054-.836,2.107h-.636c-2.467,0-9.8,0-18.349.067h-1.714l-8.246.059H97.143c-10.763.084-16.291,1.1-21.945-1.932h0c-.493-.259-1-.56-1.5-.886l-.376-.117L71,141.831h0c.184-.7.343-1.4.493-2.116l.217-1.062h0c.611-3.053,1.054-6.03,1.606-8.363.109-.435.209-.836.326-1.246,0,0,5.018-4.734,10.036-6.624a31.863,31.863,0,0,1,8.514-1.907c.56-.05,1.146-.084,1.74-.109,1.2-.05,2.459,0,3.788,0,6.18-1.4,35.125,1.974,35.7,3.546C133.891,128.375,132.979,133.61,131.315,139.046Z" transform="translate(-33.968 -59.539)" fill="#e69f56"/>
  <path id="Trazado_162384" data-name="Trazado 162384" d="M195.753,128.214l-1.045,13.381-.385,4.951h-1.087c-7.928.167-14.627.535-22.12,0a98.051,98.051,0,0,1-10.872-1.346c-1.121-.192-2.275-.418-3.462-.661l-.05-.368-.335-2.509-1.806-13.523c3.747-.393,7.226-.652,10.462-.836C178.35,126.775,187.691,127.863,195.753,128.214Z" transform="translate(-47.651 -60.699)" fill="#00bcd4"/>
  <path id="Trazado_162385" data-name="Trazado 162385" d="M244.539,133.158l-1.2,10.655-.284,2.509-.059.51h-.167c-20.506.151-28.786.309-42.025,0h0l.677-4.934,1.84-13.448a314.915,314.915,0,0,0,39.148,4.641Z" transform="translate(-55.215 -60.91)" fill="#00bcd4"/>
  <path id="Trazado_162386" data-name="Trazado 162386" d="M158.824,146.764l-67.039-1.673L87.16,134.52c6.791.477,9.275-.753,12.645-4.29,1.673,2.743,16.049,5.553,25.424,7.594C140.642,141.253,140.182,143.494,158.824,146.764Z" transform="translate(-36.613 -61.202)" fill="#1d1d1b" opacity="0.1"/>
  <path id="Trazado_162387" data-name="Trazado 162387" d="M112.939,138.388l-1.188,7.7-.284,1.84v.159h-.945l-8.99-.084-14.97-.167c-4.608-.836-6.364-3.061-7-4.943A6.323,6.323,0,0,1,79.269,140c1.037-4.842,6.833-5.093,10.036-4.524,5.737,1.012,20.983,2.618,23.325,2.86h.251Z" transform="translate(-35.313 -62.025)" fill="#ffc990"/>
  <path id="Trazado_162388" data-name="Trazado 162388" d="M165.937,143.4c-.109-.836-1.045-.786-1.581-.619a42.651,42.651,0,0,1-4.374.836c-.393.159-.761.209-1.154.351a7.717,7.717,0,0,0-1.087.452c-.276.343-.452.619-.761,1.07a22.271,22.271,0,0,0,7.05-.786C164.582,144.495,166.037,144.11,165.937,143.4Z" transform="translate(-48.042 -63.24)" fill="#ffc990"/>
  <path id="Trazado_162389" data-name="Trazado 162389" d="M171.546,148.667h0a.61.61,0,0,1-.535.6H153.9l.184-2.609.142-2.041c0,.067.134.075.376.067s.953-.134,1.673-.268c1.673-.335,4.006-.836,5.018-.978h.217a2.116,2.116,0,0,1,.728.134l1.673.636.686.268,2.225.836a2.216,2.216,0,0,1,.418.226l2.593,1.673,1.48.945A.627.627,0,0,1,171.546,148.667Z" transform="translate(-47.538 -63.364)" fill="#ffc990"/>
  <path id="Trazado_162390" data-name="Trazado 162390" d="M148.261,143.933l-.5,4.575v.042h-26.2a28.258,28.258,0,0,1-5.16.117h0l-.544-.059a.5.5,0,0,1-.192-.084c-.335-.226-.5-.945-.5-1.882,0-2.818,1.271-7.686,3.345-7.7h.3l16.935,2.718,1.806.293.978.159,3.253.519Z" transform="translate(-41.197 -62.627)" fill="#ffc990"/>
  <path id="Trazado_162391" data-name="Trazado 162391" d="M227.924,144.373l-.209,4.4-3.27.084c-1.355,0-2.559,0-3.588-.05a27.47,27.47,0,0,1-3.981,0c-20.506.151-28.786.309-42.025,0h0c-7.928.167-14.619.535-22.12,0h-43.1a28.261,28.261,0,0,1-5.16.117h0l-8.982-.084H92.492c-10.763.084-16.291,1.1-21.945-1.932h0c-.493-.259-1-.56-1.5-.886l-.376-.117-2.375-.711h-1.1c-.209,1.355-1.43,2.183-3.069,2.693-.276.092-.577.167-.836.243a48.125,48.125,0,0,1-8.673.652H51.479c-5.52.117-7.786-.937-9.2-3.855a29.6,29.6,0,0,0,2.927.761h0a21.41,21.41,0,0,0,11.407-.385,16.543,16.543,0,0,0,3.947-1.02,13.239,13.239,0,0,0,1.606-.761h0a6.59,6.59,0,0,0,5.068-2.91c0,1.121,5.687,3.237,6.264,3.136,8.438,2.1,18.533,2.961,29.706,3.145h2.509c5.988.042,12.277-.084,18.767-.309h1.28l3.412-.125c2.191-.084,4.407-.184,6.69-.284h.3c.728.1,1.464.192,2.208.268q2.4.259,4.918.36h0c2.626.1,5.361.075,8.254-.059a212.374,212.374,0,0,0,24.027-2.877l.544-.092.259.059a115.844,115.844,0,0,0,37.785,2.291,12.971,12.971,0,0,0,1.388-.125l1.882-.192c2.919-.318,5.929-.728,9.057-1.2Z" transform="translate(-29.267 -62.901)" fill="#1d1d1b" opacity="0.1"/>
  <rect id="Rectángulo_32833" data-name="Rectángulo 32833" width="204.043" height="3.237" transform="translate(2.158 91.508)" fill="#706f6f"/>
  <g id="Grupo_75336" data-name="Grupo 75336" transform="translate(169.872 93.666)">
    <path id="Trazado_162392" data-name="Trazado 162392" d="M239.29,245.915a4.725,4.725,0,1,1-4.725-4.725,4.725,4.725,0,0,1,4.725,4.725Z" transform="translate(-229.84 -173.031)" fill="#3c3c3b"/>
    <rect id="Rectángulo_32834" data-name="Rectángulo 32834" width="3.696" height="68.77" transform="translate(7.602)" fill="#878787"/>
    <path id="Trazado_162393" data-name="Trazado 162393" d="M234.854,247.011h0a1.581,1.581,0,0,1-1.464-1l-1.89-4.826h6.732l-1.924,4.859A1.572,1.572,0,0,1,234.854,247.011Z" transform="translate(-230.112 -173.031)" fill="#12263f"/>
    <path id="Trazado_162394" data-name="Trazado 162394" d="M241.512,241.739H230.23V238.9a1.2,1.2,0,0,1,1.213-1.2h8.865a1.2,1.2,0,0,1,1.2,1.2Z" transform="translate(-229.904 -172.46)" fill="#706f6f"/>
    <path id="Trazado_162395" data-name="Trazado 162395" d="M236.163,246.366a.836.836,0,1,1-.836-.836A.836.836,0,0,1,236.163,246.366Z" transform="translate(-230.601 -173.741)" fill="#3c3c3b"/>
  </g>
  <rect id="Rectángulo_32835" data-name="Rectángulo 32835" width="181.613" height="3.696" transform="translate(14.334 150.694)" fill="#878787"/>
  <path id="Trazado_162396" data-name="Trazado 162396" d="M56,122.965l5.679,2.852,7.15-1.673a7.9,7.9,0,0,0-2.7-5.628l-2.843-.836C59.387,118.291,57.547,120.825,56,122.965Z" transform="translate(-31.513 -59.147)" fill="#ff9d00"/>
  <path id="Trazado_162397" data-name="Trazado 162397" d="M61.306,127.785l-6.021-3.019a1.079,1.079,0,0,1,.97-1.924l5.327,2.676,6.774-1.564a1.091,1.091,0,1,1,.46,2.133Z" transform="translate(-31.307 -59.978)" fill="#d14618"/>
  <path id="Trazado_162398" data-name="Trazado 162398" d="M83.8,104.81c-4.734,0-9.258,1.673-10.947,3.755v3.4c1.673,1.932,5.913,3.345,10.613,3.345,6,0,10.4-2.241,10.4-5.018S89.8,104.81,83.8,104.81Z" transform="translate(-34.271 -57.041)" fill="#ff9d00"/>
  <path id="Trazado_162399" data-name="Trazado 162399" d="M91.987,111.488a1.188,1.188,0,0,0,1.581-.585h0a1.02,1.02,0,0,0-.51-1.355,10.513,10.513,0,0,1-4.667-1.831c-.677-.527-1.79-1.054-1.547.519a2.8,2.8,0,0,0,1.614,1.547Z" transform="translate(-36.556 -57.43)" fill="#edbb86"/>
  <path id="Trazado_162400" data-name="Trazado 162400" d="M95.516,110.384l-.226,4.667,25.432,3.186a3.646,3.646,0,0,0,3.128-3.981v-.092a4.483,4.483,0,0,0-4.432-4.524Z" transform="translate(-37.944 -57.831)" fill="#ffc990"/>
  <g id="Grupo_75337" data-name="Grupo 75337" transform="translate(46.06 51.524)">
    <path id="Trazado_162401" data-name="Trazado 162401" d="M83.072,111.759a1.02,1.02,0,0,1-1.154-.661c-.075-.677.36-.92.97-.978l4.182-.611a1.062,1.062,0,0,1,1.137.836h0a1.1,1.1,0,0,1-1,1.246Z" transform="translate(-81.814 -109.334)" fill="#edbb86"/>
    <path id="Trazado_162402" data-name="Trazado 162402" d="M82.87,113.788a1.029,1.029,0,0,1-1.07-.794c-.059-.619.468-.836,1.079-.836l4.257-.117a1.045,1.045,0,0,1,1.02,1h0a1.1,1.1,0,0,1-1.171,1.121Z" transform="translate(-81.795 -109.749)" fill="#edbb86"/>
    <path id="Trazado_162403" data-name="Trazado 162403" d="M83.493,115.688a.978.978,0,0,1-.953-.836c-.042-.644.51-.836,1.1-.728l4.048.243a1,1,0,0,1,.886,1.037h0a1.037,1.037,0,0,1-1.179.97Z" transform="translate(-81.916 -110.085)" fill="#edbb86"/>
    <path id="Trazado_162404" data-name="Trazado 162404" d="M84.2,117.592a.92.92,0,0,1-.836-.836c-.059-.6.527-.7,1.062-.6l3.772.485a.937.937,0,0,1,.761,1.029h0a.978.978,0,0,1-1.162.836Z" transform="translate(-82.05 -110.416)" fill="#edbb86"/>
    <path id="Trazado_162405" data-name="Trazado 162405" d="M87.218,109.551l.661-.059a10.379,10.379,0,0,1,6.841,1.012h.075l.962-.117,2.743,2.074.318,2.091v.092a.159.159,0,0,1-.151.184l-3.345.427h-.059a.117.117,0,0,0-.092.117c-1.915,1.748-6.13,1.974-6.13,1.974h-.393a.9.9,0,0,1-.928-.769h0a.886.886,0,0,1,.836-.97h-.343a1.045,1.045,0,0,1-1.146-.912h0a.987.987,0,0,1,.92-1.1h-.309a1.045,1.045,0,0,1-1.146-.912h0a1,1,0,0,1,.9-1.129,1.045,1.045,0,0,1-1.146-.92h0a1,1,0,0,1,.928-1.087Z" transform="translate(-82.53 -109.3)" fill="#ffc990"/>
  </g>
  <path id="Trazado_162406" data-name="Trazado 162406" d="M123.834,104.77,116.65,114.3l.836.3,7.937,2.643,5.628-6.69a15,15,0,0,1-6-4.24C124.654,105.8,124.235,105.289,123.834,104.77Z" transform="translate(-41.441 -57.034)" fill="#ffc990"/>
  <path id="Trazado_162407" data-name="Trazado 162407" d="M127.833,98.569l-1.857,2.509-.736.97c.4.519.836,1.029,1.263,1.53a15,15,0,0,0,6,4.24l9.133-10.872c2.367-3.429,1.313-7.318.209-8.187C135.711,85.054,131.813,94.036,127.833,98.569Z" transform="translate(-42.847 -54.27)" fill="#ededed"/>
</svg>
