<svg xmlns="http://www.w3.org/2000/svg" width="558.147" height="416.579" viewBox="0 0 558.147 416.579">
  <g id="Grupo_73870" data-name="Grupo 73870" transform="translate(-247 -4588)">
    <g id="Capa_2" data-name="Capa 2" transform="translate(61.63 4574.91)">
      <g id="Grupo_73855" data-name="Grupo 73855" transform="translate(-38.03)">
        <path id="Trazado_163282" data-name="Trazado 163282" d="M3.258-11.375,6.977-2.094,10.7-11.375h1.945V0h-1.5V-4.43l.141-4.781L7.547,0H6.4L2.672-9.187,2.82-4.43V0H1.32V-11.375ZM16.633,0H15.188V-8.453h1.445ZM15.07-10.7a.863.863,0,0,1,.215-.594.807.807,0,0,1,.637-.242.819.819,0,0,1,.641.242.854.854,0,0,1,.219.594.826.826,0,0,1-.219.586.834.834,0,0,1-.641.234.821.821,0,0,1-.637-.234A.834.834,0,0,1,15.07-10.7Zm7.961,3.539a4.331,4.331,0,0,0-.711-.055A1.9,1.9,0,0,0,20.391-6V0H18.945V-8.453h1.406l.023.977a2.251,2.251,0,0,1,2.016-1.133,1.477,1.477,0,0,1,.641.109ZM28.946,0a3.036,3.036,0,0,1-.2-.891A3.225,3.225,0,0,1,26.336.156a2.984,2.984,0,0,1-2.051-.707,2.287,2.287,0,0,1-.8-1.793,2.39,2.39,0,0,1,1-2.051,4.733,4.733,0,0,1,2.824-.73h1.406v-.664A1.623,1.623,0,0,0,28.266-7a1.821,1.821,0,0,0-1.336-.449,2.108,2.108,0,0,0-1.3.391,1.151,1.151,0,0,0-.523.945H23.657a2,2,0,0,1,.449-1.223,3.066,3.066,0,0,1,1.219-.934,4.1,4.1,0,0,1,1.691-.344,3.342,3.342,0,0,1,2.289.73,2.635,2.635,0,0,1,.859,2.012v3.891a4.757,4.757,0,0,0,.3,1.852V0Zm-2.4-1.1a2.54,2.54,0,0,0,1.289-.352,2.127,2.127,0,0,0,.883-.914V-4.1H27.586q-2.656,0-2.656,1.555a1.316,1.316,0,0,0,.453,1.063A1.742,1.742,0,0,0,26.547-1.1Zm5.531-3.2A4.952,4.952,0,0,1,33-7.426a2.915,2.915,0,0,1,2.414-1.184,2.932,2.932,0,0,1,2.352,1.016V-12h1.445V0H37.883l-.07-.906A2.943,2.943,0,0,1,35.4.156,2.887,2.887,0,0,1,33-1.047a5.008,5.008,0,0,1-.926-3.141Zm1.445.164a3.749,3.749,0,0,0,.594,2.25,1.92,1.92,0,0,0,1.641.813A2.108,2.108,0,0,0,37.766-2.3V-6.187a2.125,2.125,0,0,0-1.992-1.2,1.929,1.929,0,0,0-1.656.82A4.128,4.128,0,0,0,33.524-4.133ZM46.672,0a3.036,3.036,0,0,1-.2-.891A3.225,3.225,0,0,1,44.063.156a2.984,2.984,0,0,1-2.051-.707,2.287,2.287,0,0,1-.8-1.793,2.39,2.39,0,0,1,1-2.051,4.733,4.733,0,0,1,2.824-.73h1.406v-.664A1.623,1.623,0,0,0,45.993-7a1.821,1.821,0,0,0-1.336-.449,2.107,2.107,0,0,0-1.3.391,1.151,1.151,0,0,0-.523.945H41.383a2,2,0,0,1,.449-1.223,3.066,3.066,0,0,1,1.219-.934,4.1,4.1,0,0,1,1.691-.344,3.342,3.342,0,0,1,2.289.73,2.635,2.635,0,0,1,.859,2.012v3.891a4.757,4.757,0,0,0,.3,1.852V0Zm-2.4-1.1a2.54,2.54,0,0,0,1.289-.352,2.127,2.127,0,0,0,.883-.914V-4.1H45.313q-2.656,0-2.656,1.555a1.316,1.316,0,0,0,.453,1.063A1.742,1.742,0,0,0,44.274-1.1ZM59.336,0a3.036,3.036,0,0,1-.2-.891A3.225,3.225,0,0,1,56.727.156a2.984,2.984,0,0,1-2.051-.707,2.287,2.287,0,0,1-.8-1.793,2.39,2.39,0,0,1,1-2.051,4.733,4.733,0,0,1,2.824-.73H59.11v-.664A1.623,1.623,0,0,0,58.657-7a1.821,1.821,0,0,0-1.336-.449,2.107,2.107,0,0,0-1.3.391,1.151,1.151,0,0,0-.523.945H54.047A2,2,0,0,1,54.5-7.332a3.066,3.066,0,0,1,1.219-.934,4.1,4.1,0,0,1,1.691-.344,3.342,3.342,0,0,1,2.289.73,2.635,2.635,0,0,1,.859,2.012v3.891a4.757,4.757,0,0,0,.3,1.852V0Zm-2.4-1.1a2.54,2.54,0,0,0,1.289-.352,2.127,2.127,0,0,0,.883-.914V-4.1H57.977q-2.656,0-2.656,1.555a1.316,1.316,0,0,0,.453,1.063A1.742,1.742,0,0,0,56.938-1.1ZM64.391,0H62.946V-12h1.445Zm6.984,0V-7.336H70.039V-8.453h1.336V-9.32a2.878,2.878,0,0,1,.727-2.1,2.745,2.745,0,0,1,2.055-.742,3.816,3.816,0,0,1,.992.132l-.078,1.165a4.151,4.151,0,0,0-.781-.07,1.41,1.41,0,0,0-1.086.411,1.669,1.669,0,0,0-.383,1.18v.893h1.8v1.117h-1.8V0Zm8.93-7.156a4.331,4.331,0,0,0-.711-.055A1.9,1.9,0,0,0,77.664-6V0H76.219V-8.453h1.406l.023.977a2.251,2.251,0,0,1,2.016-1.133,1.477,1.477,0,0,1,.641.109ZM84.833.156a3.693,3.693,0,0,1-2.8-1.129,4.19,4.19,0,0,1-1.078-3.02v-.266a5.073,5.073,0,0,1,.48-2.246,3.748,3.748,0,0,1,1.344-1.547,3.378,3.378,0,0,1,1.871-.559,3.166,3.166,0,0,1,2.563,1.086,4.7,4.7,0,0,1,.914,3.109v.6H82.4a3,3,0,0,0,.73,2.02,2.3,2.3,0,0,0,1.777.77,2.517,2.517,0,0,0,1.3-.312,3.259,3.259,0,0,0,.93-.828l.883.688A3.55,3.55,0,0,1,84.833.156Zm-.18-7.578a1.928,1.928,0,0,0-1.469.637A3.1,3.1,0,0,0,82.45-5h4.234v-.109a2.753,2.753,0,0,0-.594-1.707A1.815,1.815,0,0,0,84.653-7.422Zm6.516-1.031.047,1.063a3.08,3.08,0,0,1,2.531-1.219q2.68,0,2.7,3.023V0H95V-5.594a1.946,1.946,0,0,0-.418-1.352,1.675,1.675,0,0,0-1.277-.437,2.086,2.086,0,0,0-1.234.375,2.546,2.546,0,0,0-.828.984V0H89.8V-8.453ZM100.59-10.5v2.047h1.578v1.117H100.59v5.249a1.173,1.173,0,0,0,.211.763.888.888,0,0,0,.719.254,3.5,3.5,0,0,0,.688-.094V0A4.215,4.215,0,0,1,101.1.156,1.8,1.8,0,0,1,99.637-.43a2.517,2.517,0,0,1-.492-1.664V-7.336H97.606V-8.453h1.539V-10.5ZM107.364.156a3.693,3.693,0,0,1-2.8-1.129,4.19,4.19,0,0,1-1.078-3.02v-.266a5.073,5.073,0,0,1,.48-2.246,3.748,3.748,0,0,1,1.344-1.547,3.378,3.378,0,0,1,1.871-.559,3.166,3.166,0,0,1,2.563,1.086,4.7,4.7,0,0,1,.914,3.109v.6h-5.727a3,3,0,0,0,.73,2.02,2.3,2.3,0,0,0,1.777.77,2.517,2.517,0,0,0,1.3-.312,3.259,3.259,0,0,0,.93-.828l.883.688A3.55,3.55,0,0,1,107.364.156Zm-.18-7.578a1.928,1.928,0,0,0-1.469.637A3.1,3.1,0,0,0,104.981-5h4.234v-.109a2.753,2.753,0,0,0-.594-1.707A1.815,1.815,0,0,0,107.184-7.422Zm5.18,6.664a.905.905,0,0,1,.223-.625.848.848,0,0,1,.668-.25.874.874,0,0,1,.676.25.887.887,0,0,1,.23.625.839.839,0,0,1-.23.6.89.89,0,0,1-.676.242.863.863,0,0,1-.668-.242A.855.855,0,0,1,112.364-.758Z" transform="translate(602.43 88.36)" fill="#12263f"/>
        <path id="Trazado_163280" data-name="Trazado 163280" d="M2.82-4.453V0H1.32V-11.375h4.2a4.215,4.215,0,0,1,2.926.953A3.231,3.231,0,0,1,9.5-7.9,3.189,3.189,0,0,1,8.465-5.348,4.4,4.4,0,0,1,5.5-4.453Zm0-1.227h2.7a2.7,2.7,0,0,0,1.844-.567A2.075,2.075,0,0,0,8-7.887a2.143,2.143,0,0,0-.641-1.628A2.525,2.525,0,0,0,5.6-10.148H2.82ZM10.543-4.3a4.993,4.993,0,0,1,.488-2.234A3.643,3.643,0,0,1,12.391-8.07a3.7,3.7,0,0,1,1.988-.539,3.565,3.565,0,0,1,2.793,1.2,4.6,4.6,0,0,1,1.066,3.18v.1a5.036,5.036,0,0,1-.473,2.215A3.589,3.589,0,0,1,16.414-.391a3.743,3.743,0,0,1-2.02.547,3.556,3.556,0,0,1-2.785-1.2A4.575,4.575,0,0,1,10.543-4.2ZM12-4.133a3.616,3.616,0,0,0,.652,2.258,2.088,2.088,0,0,0,1.746.852,2.075,2.075,0,0,0,1.75-.863A3.955,3.955,0,0,0,16.793-4.3a3.61,3.61,0,0,0-.66-2.254,2.1,2.1,0,0,0-1.754-.863,2.075,2.075,0,0,0-1.727.852A3.925,3.925,0,0,0,12-4.133ZM24.973-2.242a1.064,1.064,0,0,0-.441-.91,4.249,4.249,0,0,0-1.539-.559,7.277,7.277,0,0,1-1.742-.562,2.479,2.479,0,0,1-.953-.781,1.869,1.869,0,0,1-.309-1.078,2.193,2.193,0,0,1,.879-1.758,3.432,3.432,0,0,1,2.246-.719,3.532,3.532,0,0,1,2.332.742,2.357,2.357,0,0,1,.895,1.9H24.887a1.3,1.3,0,0,0-.5-1.023,1.888,1.888,0,0,0-1.27-.43,1.976,1.976,0,0,0-1.234.344,1.082,1.082,0,0,0-.445.9.877.877,0,0,0,.414.789,5.1,5.1,0,0,0,1.5.508A7.8,7.8,0,0,1,25.1-4.3a2.558,2.558,0,0,1,1,.809,1.988,1.988,0,0,1,.324,1.152,2.163,2.163,0,0,1-.906,1.816A3.8,3.8,0,0,1,23.16.156a4.257,4.257,0,0,1-1.8-.359,2.922,2.922,0,0,1-1.223-1A2.42,2.42,0,0,1,19.7-2.6h1.445a1.5,1.5,0,0,0,.582,1.152,2.258,2.258,0,0,0,1.434.426,2.331,2.331,0,0,0,1.316-.332A1.02,1.02,0,0,0,24.973-2.242ZM29.871,0H28.426V-8.453h1.445ZM28.309-10.7a.863.863,0,0,1,.215-.594.807.807,0,0,1,.637-.242.819.819,0,0,1,.641.242.854.854,0,0,1,.219.594.826.826,0,0,1-.219.586.834.834,0,0,1-.641.234.821.821,0,0,1-.637-.234A.834.834,0,0,1,28.309-10.7Zm7.266,9.672a2.082,2.082,0,0,0,1.352-.469,1.649,1.649,0,0,0,.641-1.172h1.367a2.621,2.621,0,0,1-.5,1.383A3.293,3.293,0,0,1,37.2-.234a3.55,3.55,0,0,1-1.629.391A3.482,3.482,0,0,1,32.828-1a4.59,4.59,0,0,1-1.02-3.152v-.242a5.089,5.089,0,0,1,.453-2.2,3.451,3.451,0,0,1,1.3-1.492,3.7,3.7,0,0,1,2-.531,3.39,3.39,0,0,1,2.363.852,3.043,3.043,0,0,1,1,2.211H37.567a1.992,1.992,0,0,0-.621-1.348,1.932,1.932,0,0,0-1.379-.527,2.023,2.023,0,0,0-1.707.793,3.724,3.724,0,0,0-.605,2.293v.273a3.65,3.65,0,0,0,.6,2.25A2.033,2.033,0,0,0,35.574-1.023ZM42.129,0H40.684V-8.453h1.445ZM40.567-10.7a.863.863,0,0,1,.215-.594.807.807,0,0,1,.637-.242.819.819,0,0,1,.641.242.854.854,0,0,1,.219.594.826.826,0,0,1-.219.586.834.834,0,0,1-.641.234.821.821,0,0,1-.637-.234A.834.834,0,0,1,40.567-10.7ZM44.059-4.3a4.993,4.993,0,0,1,.488-2.234A3.643,3.643,0,0,1,45.906-8.07a3.7,3.7,0,0,1,1.988-.539,3.565,3.565,0,0,1,2.793,1.2,4.6,4.6,0,0,1,1.066,3.18v.1a5.036,5.036,0,0,1-.473,2.215A3.589,3.589,0,0,1,49.93-.391a3.743,3.743,0,0,1-2.02.547,3.556,3.556,0,0,1-2.785-1.2A4.575,4.575,0,0,1,44.059-4.2Zm1.453.172a3.616,3.616,0,0,0,.652,2.258,2.088,2.088,0,0,0,1.746.852,2.075,2.075,0,0,0,1.75-.863A3.955,3.955,0,0,0,50.309-4.3a3.61,3.61,0,0,0-.66-2.254,2.1,2.1,0,0,0-1.754-.863,2.075,2.075,0,0,0-1.727.852A3.925,3.925,0,0,0,45.512-4.133Zm3.039-7.852H50.3l-2.094,2.3-1.164,0Zm6.383,3.531.047,1.063a3.08,3.08,0,0,1,2.531-1.219q2.68,0,2.7,3.023V0H58.77V-5.594a1.946,1.946,0,0,0-.418-1.352,1.675,1.675,0,0,0-1.277-.437,2.086,2.086,0,0,0-1.234.375,2.546,2.546,0,0,0-.828.984V0H53.567V-8.453ZM69.863.156a3.693,3.693,0,0,1-2.8-1.129,4.19,4.19,0,0,1-1.078-3.02v-.266a5.073,5.073,0,0,1,.48-2.246,3.748,3.748,0,0,1,1.344-1.547,3.378,3.378,0,0,1,1.871-.559,3.166,3.166,0,0,1,2.563,1.086,4.7,4.7,0,0,1,.914,3.109v.6H67.434a3,3,0,0,0,.73,2.02,2.3,2.3,0,0,0,1.777.77,2.517,2.517,0,0,0,1.3-.312,3.259,3.259,0,0,0,.93-.828l.883.688A3.55,3.55,0,0,1,69.863.156Zm-.18-7.578a1.928,1.928,0,0,0-1.469.637A3.1,3.1,0,0,0,67.481-5h4.234v-.109a2.753,2.753,0,0,0-.594-1.707A1.815,1.815,0,0,0,69.684-7.422Zm9.234.266a4.331,4.331,0,0,0-.711-.055A1.9,1.9,0,0,0,76.277-6V0H74.832V-8.453h1.406l.023.977a2.251,2.251,0,0,1,2.016-1.133,1.477,1.477,0,0,1,.641.109ZM83.446.156a3.693,3.693,0,0,1-2.8-1.129,4.19,4.19,0,0,1-1.078-3.02v-.266a5.073,5.073,0,0,1,.48-2.246,3.748,3.748,0,0,1,1.344-1.547,3.378,3.378,0,0,1,1.871-.559,3.166,3.166,0,0,1,2.563,1.086,4.7,4.7,0,0,1,.914,3.109v.6H81.016a3,3,0,0,0,.73,2.02,2.3,2.3,0,0,0,1.777.77,2.517,2.517,0,0,0,1.3-.312,3.259,3.259,0,0,0,.93-.828l.883.688A3.55,3.55,0,0,1,83.446.156Zm-.18-7.578a1.928,1.928,0,0,0-1.469.637A3.1,3.1,0,0,0,81.063-5H85.3v-.109A2.753,2.753,0,0,0,84.7-6.816,1.815,1.815,0,0,0,83.266-7.422Zm8.539,6.4a2.082,2.082,0,0,0,1.352-.469A1.649,1.649,0,0,0,93.8-2.664h1.367a2.621,2.621,0,0,1-.5,1.383,3.293,3.293,0,0,1-1.23,1.047A3.55,3.55,0,0,1,91.8.156,3.482,3.482,0,0,1,89.059-1a4.59,4.59,0,0,1-1.02-3.152v-.242a5.089,5.089,0,0,1,.453-2.2,3.451,3.451,0,0,1,1.3-1.492,3.7,3.7,0,0,1,2-.531,3.39,3.39,0,0,1,2.363.852,3.043,3.043,0,0,1,1,2.211H93.8a1.992,1.992,0,0,0-.621-1.348A1.932,1.932,0,0,0,91.8-7.422a2.023,2.023,0,0,0-1.707.793,3.724,3.724,0,0,0-.605,2.293v.273a3.65,3.65,0,0,0,.6,2.25A2.033,2.033,0,0,0,91.8-1.023ZM98.75-10.5v2.047h1.578v1.117H98.75v5.249a1.173,1.173,0,0,0,.211.763.888.888,0,0,0,.719.254,3.5,3.5,0,0,0,.687-.094V0a4.215,4.215,0,0,1-1.109.155A1.8,1.8,0,0,1,97.8-.43,2.517,2.517,0,0,1,97.3-2.094V-7.336H95.766V-8.453H97.3V-10.5ZM107.235,0a3.036,3.036,0,0,1-.2-.891A3.225,3.225,0,0,1,104.625.156a2.984,2.984,0,0,1-2.051-.707,2.288,2.288,0,0,1-.8-1.793,2.39,2.39,0,0,1,1-2.051,4.733,4.733,0,0,1,2.824-.73h1.406v-.664A1.623,1.623,0,0,0,106.555-7a1.821,1.821,0,0,0-1.336-.449,2.108,2.108,0,0,0-1.3.391,1.151,1.151,0,0,0-.523.945h-1.453a2,2,0,0,1,.449-1.223,3.066,3.066,0,0,1,1.219-.934,4.1,4.1,0,0,1,1.691-.344,3.342,3.342,0,0,1,2.289.73,2.635,2.635,0,0,1,.859,2.012v3.891a4.757,4.757,0,0,0,.3,1.852V0Zm-2.4-1.1a2.54,2.54,0,0,0,1.289-.352,2.127,2.127,0,0,0,.883-.914V-4.1h-1.133q-2.656,0-2.656,1.555a1.316,1.316,0,0,0,.453,1.063A1.742,1.742,0,0,0,104.836-1.1Zm5.914.344a.905.905,0,0,1,.223-.625.848.848,0,0,1,.668-.25.874.874,0,0,1,.676.25.887.887,0,0,1,.23.625.839.839,0,0,1-.23.6.89.89,0,0,1-.676.242.863.863,0,0,1-.668-.242A.855.855,0,0,1,110.75-.758Z" transform="translate(223.4 202.72)" fill="#12263f"/>
        <g id="Grupo_73845" data-name="Grupo 73845">
          <path id="Trazado_146751" data-name="Trazado 146751" d="M484.94,81.18l86.89,3.31v1.38l-86.89,3.31Z" fill="#00bcd4"/>
          <path id="Trazado_146752" data-name="Trazado 146752" d="M589.9,85.18,564.43,95.59l6.04-10.41-6.04-10.4Z" fill="#00bcd4"/>
        </g>
        <g id="Grupo_73846" data-name="Grupo 73846">
          <path id="Trazado_146753" data-name="Trazado 146753" d="M508.5,169.1l63.33,3.11v1.78L508.5,177.1Z" fill="#00bcd4"/>
          <path id="Trazado_146754" data-name="Trazado 146754" d="M589.9,173.1l-25.47,10.4,6.04-10.4-6.04-10.41Z" fill="#00bcd4"/>
        </g>
        <g id="Grupo_73847" data-name="Grupo 73847">
          <path id="Trazado_146755" data-name="Trazado 146755" d="M413.91,202.68l-54.21-3v-2l54.21-3Z" fill="#00bcd4"/>
          <path id="Trazado_146756" data-name="Trazado 146756" d="M341.63,198.68l25.47-10.4-6.04,10.4,6.04,10.41Z" fill="#00bcd4"/>
        </g>
        <path id="Trazado_163281" data-name="Trazado 163281" d="M1.32,0V-11.375H5.039a4.317,4.317,0,0,1,2.785.766,2.759,2.759,0,0,1,.934,2.266A2.31,2.31,0,0,1,8.3-6.934a2.938,2.938,0,0,1-1.234.949A2.638,2.638,0,0,1,8.527-5a2.814,2.814,0,0,1,.535,1.723A3.042,3.042,0,0,1,8.07-.875,4.1,4.1,0,0,1,5.266,0Zm1.5-5.32v4.094H5.3A2.385,2.385,0,0,0,6.949-1.77a1.907,1.907,0,0,0,.605-1.5q0-2.055-2.234-2.055Zm0-1.2H5.086A2.375,2.375,0,0,0,6.66-7.017a1.654,1.654,0,0,0,.59-1.339A1.626,1.626,0,0,0,6.7-9.722a2.686,2.686,0,0,0-1.664-.427H2.82ZM12.625,0H11.18V-8.453h1.445ZM11.063-10.7a.863.863,0,0,1,.215-.594.807.807,0,0,1,.637-.242.819.819,0,0,1,.641.242.854.854,0,0,1,.219.594.826.826,0,0,1-.219.586.834.834,0,0,1-.641.234.821.821,0,0,1-.637-.234A.834.834,0,0,1,11.063-10.7ZM22.078-4.133A5.062,5.062,0,0,1,21.2-1.023,2.829,2.829,0,0,1,18.8.156,3.1,3.1,0,0,1,16.383-.82V3.25H14.938v-11.7h1.32l.07.938a2.977,2.977,0,0,1,2.453-1.094,2.882,2.882,0,0,1,2.41,1.148,5.117,5.117,0,0,1,.887,3.2ZM20.633-4.3a3.735,3.735,0,0,0-.609-2.258,1.963,1.963,0,0,0-1.672-.828,2.125,2.125,0,0,0-1.969,1.164V-2.18a2.129,2.129,0,0,0,1.984,1.156,1.954,1.954,0,0,0,1.652-.824A4.077,4.077,0,0,0,20.633-4.3ZM27.422.156a3.693,3.693,0,0,1-2.8-1.129,4.19,4.19,0,0,1-1.078-3.02v-.266a5.073,5.073,0,0,1,.48-2.246,3.748,3.748,0,0,1,1.344-1.547,3.378,3.378,0,0,1,1.871-.559A3.166,3.166,0,0,1,29.8-7.523a4.7,4.7,0,0,1,.914,3.109v.6H24.992a3,3,0,0,0,.73,2.02,2.3,2.3,0,0,0,1.777.77,2.517,2.517,0,0,0,1.3-.312,3.259,3.259,0,0,0,.93-.828l.883.688A3.55,3.55,0,0,1,27.422.156Zm-.18-7.578a1.928,1.928,0,0,0-1.469.637A3.1,3.1,0,0,0,25.039-5h4.234v-.109a2.753,2.753,0,0,0-.594-1.707A1.815,1.815,0,0,0,27.242-7.422Zm4.8,3.125a4.952,4.952,0,0,1,.922-3.129,2.915,2.915,0,0,1,2.414-1.184,2.932,2.932,0,0,1,2.352,1.016V-12h1.445V0H37.844l-.07-.906A2.943,2.943,0,0,1,35.359.156a2.887,2.887,0,0,1-2.395-1.2,5.008,5.008,0,0,1-.926-3.141Zm1.445.164a3.749,3.749,0,0,0,.594,2.25,1.92,1.92,0,0,0,1.641.813A2.108,2.108,0,0,0,37.727-2.3V-6.187a2.125,2.125,0,0,0-1.992-1.2,1.929,1.929,0,0,0-1.656.82A4.128,4.128,0,0,0,33.484-4.133ZM44.922.156a3.693,3.693,0,0,1-2.8-1.129,4.19,4.19,0,0,1-1.078-3.02v-.266a5.073,5.073,0,0,1,.48-2.246,3.748,3.748,0,0,1,1.344-1.547,3.378,3.378,0,0,1,1.871-.559A3.166,3.166,0,0,1,47.3-7.523a4.7,4.7,0,0,1,.914,3.109v.6H42.492a3,3,0,0,0,.73,2.02A2.3,2.3,0,0,0,45-1.023a2.517,2.517,0,0,0,1.3-.312,3.259,3.259,0,0,0,.93-.828l.883.688A3.55,3.55,0,0,1,44.922.156Zm-.18-7.578a1.928,1.928,0,0,0-1.469.637A3.1,3.1,0,0,0,42.539-5h4.234v-.109a2.753,2.753,0,0,0-.594-1.707A1.815,1.815,0,0,0,44.742-7.422Zm10.07,5.18a1.064,1.064,0,0,0-.441-.91,4.249,4.249,0,0,0-1.539-.559,7.277,7.277,0,0,1-1.742-.562,2.479,2.479,0,0,1-.953-.781,1.869,1.869,0,0,1-.309-1.078,2.193,2.193,0,0,1,.879-1.758,3.432,3.432,0,0,1,2.246-.719,3.532,3.532,0,0,1,2.332.742,2.357,2.357,0,0,1,.895,1.9H54.727a1.3,1.3,0,0,0-.5-1.023,1.888,1.888,0,0,0-1.27-.43,1.976,1.976,0,0,0-1.234.344,1.082,1.082,0,0,0-.445.9.877.877,0,0,0,.414.789,5.1,5.1,0,0,0,1.5.508,7.8,7.8,0,0,1,1.754.578,2.558,2.558,0,0,1,1,.809,1.988,1.988,0,0,1,.324,1.152,2.163,2.163,0,0,1-.906,1.816A3.8,3.8,0,0,1,53,.156,4.257,4.257,0,0,1,51.2-.2a2.922,2.922,0,0,1-1.223-1A2.42,2.42,0,0,1,49.539-2.6h1.445a1.5,1.5,0,0,0,.582,1.152A2.258,2.258,0,0,0,53-1.023a2.331,2.331,0,0,0,1.316-.332A1.02,1.02,0,0,0,54.813-2.242ZM60.1-10.5v2.047H61.68v1.117H60.1v5.249a1.173,1.173,0,0,0,.211.763.888.888,0,0,0,.719.254,3.5,3.5,0,0,0,.688-.094V0a4.215,4.215,0,0,1-1.109.155A1.8,1.8,0,0,1,59.148-.43a2.517,2.517,0,0,1-.492-1.664V-7.336H57.117V-8.453h1.539V-10.5ZM68.586,0a3.036,3.036,0,0,1-.2-.891A3.225,3.225,0,0,1,65.977.156a2.984,2.984,0,0,1-2.051-.707,2.287,2.287,0,0,1-.8-1.793,2.39,2.39,0,0,1,1-2.051,4.733,4.733,0,0,1,2.824-.73h1.406v-.664A1.623,1.623,0,0,0,67.906-7a1.821,1.821,0,0,0-1.336-.449,2.108,2.108,0,0,0-1.3.391,1.151,1.151,0,0,0-.523.945H63.3a2,2,0,0,1,.449-1.223,3.066,3.066,0,0,1,1.219-.934,4.1,4.1,0,0,1,1.691-.344,3.342,3.342,0,0,1,2.289.73A2.635,2.635,0,0,1,69.8-5.867v3.891a4.757,4.757,0,0,0,.3,1.852V0Zm-2.4-1.1a2.54,2.54,0,0,0,1.289-.352,2.127,2.127,0,0,0,.883-.914V-4.1H67.227q-2.656,0-2.656,1.555a1.316,1.316,0,0,0,.453,1.063A1.742,1.742,0,0,0,66.188-1.1Zm9.273.078a2.082,2.082,0,0,0,1.352-.469,1.649,1.649,0,0,0,.641-1.172H78.82a2.621,2.621,0,0,1-.5,1.383A3.293,3.293,0,0,1,77.09-.234a3.55,3.55,0,0,1-1.629.391A3.482,3.482,0,0,1,72.715-1,4.59,4.59,0,0,1,71.7-4.148v-.242a5.089,5.089,0,0,1,.453-2.2,3.451,3.451,0,0,1,1.3-1.492,3.7,3.7,0,0,1,2-.531,3.39,3.39,0,0,1,2.363.852,3.043,3.043,0,0,1,1,2.211H77.453a1.992,1.992,0,0,0-.621-1.348,1.932,1.932,0,0,0-1.379-.527,2.023,2.023,0,0,0-1.707.793,3.724,3.724,0,0,0-.605,2.293v.273a3.65,3.65,0,0,0,.6,2.25A2.033,2.033,0,0,0,75.461-1.023ZM82.016,0H80.57V-8.453h1.445ZM80.453-10.7a.863.863,0,0,1,.215-.594.807.807,0,0,1,.637-.242.819.819,0,0,1,.641.242.854.854,0,0,1,.219.594.826.826,0,0,1-.219.586.834.834,0,0,1-.641.234.821.821,0,0,1-.637-.234A.834.834,0,0,1,80.453-10.7ZM83.945-4.3a4.993,4.993,0,0,1,.488-2.234A3.643,3.643,0,0,1,85.793-8.07a3.7,3.7,0,0,1,1.988-.539,3.565,3.565,0,0,1,2.793,1.2,4.6,4.6,0,0,1,1.066,3.18v.1a5.036,5.036,0,0,1-.473,2.215A3.589,3.589,0,0,1,89.816-.391,3.743,3.743,0,0,1,87.8.156a3.556,3.556,0,0,1-2.785-1.2A4.575,4.575,0,0,1,83.945-4.2Zm1.453.172a3.616,3.616,0,0,0,.652,2.258,2.088,2.088,0,0,0,1.746.852,2.075,2.075,0,0,0,1.75-.863A3.955,3.955,0,0,0,90.2-4.3a3.61,3.61,0,0,0-.66-2.254,2.1,2.1,0,0,0-1.754-.863,2.075,2.075,0,0,0-1.727.852A3.925,3.925,0,0,0,85.4-4.133Zm3.039-7.852h1.75l-2.094,2.3-1.164,0ZM94.82-8.453l.047,1.063A3.08,3.08,0,0,1,97.4-8.609q2.68,0,2.7,3.023V0H98.656V-5.594a1.946,1.946,0,0,0-.418-1.352,1.675,1.675,0,0,0-1.277-.437,2.086,2.086,0,0,0-1.234.375,2.546,2.546,0,0,0-.828.984V0H93.453V-8.453Z" transform="translate(236.37 352.06)" fill="#12263f"/>
        <g id="Grupo_73848" data-name="Grupo 73848">
          <path id="Trazado_146757" data-name="Trazado 146757" d="M413.91,352.01l-54.21-2.99v-2.01l54.21-3Z" fill="#00bcd4"/>
          <path id="Trazado_146758" data-name="Trazado 146758" d="M341.63,348.01l25.47-10.4-6.04,10.4,6.04,10.41Z" fill="#00bcd4"/>
        </g>
        <g id="Grupo_73849" data-name="Grupo 73849">
          <path id="Trazado_146759" data-name="Trazado 146759" d="M532.72,235.89l39.11,2.74v2.52l-39.11,2.74Z" fill="#00bcd4"/>
          <path id="Trazado_146760" data-name="Trazado 146760" d="M589.9,239.89,564.43,250.3l6.04-10.41-6.04-10.4Z" fill="#00bcd4"/>
        </g>
        <path id="Trazado_163283" data-name="Trazado 163283" d="M3.258-11.375,6.977-2.094,10.7-11.375h1.945V0h-1.5V-4.43l.141-4.781L7.547,0H6.4L2.672-9.187,2.82-4.43V0H1.32V-11.375ZM16.633,0H15.188V-8.453h1.445ZM15.07-10.7a.863.863,0,0,1,.215-.594.807.807,0,0,1,.637-.242.819.819,0,0,1,.641.242.854.854,0,0,1,.219.594.826.826,0,0,1-.219.586.834.834,0,0,1-.641.234.821.821,0,0,1-.637-.234A.834.834,0,0,1,15.07-10.7ZM22.453.156a3.693,3.693,0,0,1-2.8-1.129,4.19,4.19,0,0,1-1.078-3.02v-.266a5.073,5.073,0,0,1,.48-2.246A3.748,3.748,0,0,1,20.4-8.051a3.378,3.378,0,0,1,1.871-.559,3.166,3.166,0,0,1,2.563,1.086,4.7,4.7,0,0,1,.914,3.109v.6H20.023a3,3,0,0,0,.73,2.02,2.3,2.3,0,0,0,1.777.77,2.517,2.517,0,0,0,1.3-.312,3.259,3.259,0,0,0,.93-.828l.883.688A3.55,3.55,0,0,1,22.453.156Zm-.18-7.578a1.928,1.928,0,0,0-1.469.637A3.1,3.1,0,0,0,20.07-5H24.3v-.109a2.753,2.753,0,0,0-.594-1.707A1.815,1.815,0,0,0,22.273-7.422Zm6.508-1.031.039.938a3.122,3.122,0,0,1,2.508-1.094A2.417,2.417,0,0,1,33.742-7.25a3.2,3.2,0,0,1,1.1-.984,3.242,3.242,0,0,1,1.6-.375q2.781,0,2.828,2.945V0H37.82V-5.578a1.941,1.941,0,0,0-.414-1.355,1.823,1.823,0,0,0-1.391-.449,1.917,1.917,0,0,0-1.336.48,1.949,1.949,0,0,0-.617,1.293V0H32.609V-5.539a1.613,1.613,0,0,0-1.8-1.844,1.934,1.934,0,0,0-1.945,1.211V0H27.414V-8.453ZM48.6-4.133a5.026,5.026,0,0,1-.891,3.113A2.846,2.846,0,0,1,45.32.156,2.947,2.947,0,0,1,42.844-.977L42.773,0H41.445V-12h1.445v4.477A2.93,2.93,0,0,1,45.3-8.609a2.863,2.863,0,0,1,2.418,1.164A5.177,5.177,0,0,1,48.6-4.258ZM47.156-4.3a3.906,3.906,0,0,0-.57-2.281,1.888,1.888,0,0,0-1.641-.8,2.122,2.122,0,0,0-2.055,1.328V-2.4a2.181,2.181,0,0,0,2.07,1.328,1.878,1.878,0,0,0,1.617-.8A4.153,4.153,0,0,0,47.156-4.3Zm7.352-2.859a4.331,4.331,0,0,0-.711-.055A1.9,1.9,0,0,0,51.867-6V0H50.422V-8.453h1.406l.023.977a2.251,2.251,0,0,1,2.016-1.133,1.477,1.477,0,0,1,.641.109ZM55.137-4.3a4.993,4.993,0,0,1,.488-2.234A3.643,3.643,0,0,1,56.985-8.07a3.7,3.7,0,0,1,1.988-.539,3.565,3.565,0,0,1,2.793,1.2,4.6,4.6,0,0,1,1.066,3.18v.1a5.036,5.036,0,0,1-.473,2.215A3.589,3.589,0,0,1,61.008-.391a3.743,3.743,0,0,1-2.02.547,3.556,3.556,0,0,1-2.785-1.2A4.575,4.575,0,0,1,55.137-4.2Zm1.453.172a3.616,3.616,0,0,0,.652,2.258,2.088,2.088,0,0,0,1.746.852,2.075,2.075,0,0,0,1.75-.863A3.955,3.955,0,0,0,61.387-4.3a3.61,3.61,0,0,0-.66-2.254,2.1,2.1,0,0,0-1.754-.863,2.075,2.075,0,0,0-1.727.852A3.925,3.925,0,0,0,56.59-4.133ZM69.567-2.242a1.064,1.064,0,0,0-.441-.91,4.249,4.249,0,0,0-1.539-.559,7.277,7.277,0,0,1-1.742-.562,2.479,2.479,0,0,1-.953-.781,1.869,1.869,0,0,1-.309-1.078,2.193,2.193,0,0,1,.879-1.758,3.432,3.432,0,0,1,2.246-.719,3.532,3.532,0,0,1,2.332.742,2.357,2.357,0,0,1,.895,1.9H69.481a1.3,1.3,0,0,0-.5-1.023,1.888,1.888,0,0,0-1.27-.43,1.976,1.976,0,0,0-1.234.344,1.082,1.082,0,0,0-.445.9.877.877,0,0,0,.414.789,5.1,5.1,0,0,0,1.5.508,7.8,7.8,0,0,1,1.754.578,2.558,2.558,0,0,1,1,.809,1.988,1.988,0,0,1,.324,1.152,2.163,2.163,0,0,1-.906,1.816,3.8,3.8,0,0,1-2.352.684,4.257,4.257,0,0,1-1.8-.359,2.922,2.922,0,0,1-1.223-1A2.42,2.42,0,0,1,64.293-2.6h1.445a1.5,1.5,0,0,0,.582,1.152,2.258,2.258,0,0,0,1.434.426,2.331,2.331,0,0,0,1.316-.332A1.02,1.02,0,0,0,69.567-2.242Zm12.211,0a1.064,1.064,0,0,0-.441-.91A4.249,4.249,0,0,0,79.8-3.711a7.277,7.277,0,0,1-1.742-.562,2.479,2.479,0,0,1-.953-.781,1.869,1.869,0,0,1-.309-1.078,2.193,2.193,0,0,1,.879-1.758,3.432,3.432,0,0,1,2.246-.719,3.532,3.532,0,0,1,2.332.742,2.357,2.357,0,0,1,.895,1.9H81.692a1.3,1.3,0,0,0-.5-1.023,1.888,1.888,0,0,0-1.27-.43,1.976,1.976,0,0,0-1.234.344,1.082,1.082,0,0,0-.445.9.877.877,0,0,0,.414.789,5.1,5.1,0,0,0,1.5.508A7.8,7.8,0,0,1,81.9-4.3a2.558,2.558,0,0,1,1,.809,1.988,1.988,0,0,1,.324,1.152,2.163,2.163,0,0,1-.906,1.816,3.8,3.8,0,0,1-2.352.684,4.257,4.257,0,0,1-1.8-.359,2.922,2.922,0,0,1-1.223-1A2.42,2.42,0,0,1,76.5-2.6h1.445a1.5,1.5,0,0,0,.582,1.152,2.258,2.258,0,0,0,1.434.426,2.331,2.331,0,0,0,1.316-.332A1.02,1.02,0,0,0,81.777-2.242ZM90.324-.836a3.07,3.07,0,0,1-2.477.992,2.628,2.628,0,0,1-2.059-.785,3.4,3.4,0,0,1-.715-2.324v-5.5H86.52v5.461q0,1.922,1.563,1.922a2.163,2.163,0,0,0,2.2-1.234V-8.453h1.445V0H90.356Zm10.742-3.3a5.062,5.062,0,0,1-.883,3.109A2.829,2.829,0,0,1,97.793.156,3.1,3.1,0,0,1,95.371-.82V3.25H93.926v-11.7h1.32l.07.938A2.977,2.977,0,0,1,97.77-8.609a2.882,2.882,0,0,1,2.41,1.148,5.117,5.117,0,0,1,.887,3.2ZM99.621-4.3a3.735,3.735,0,0,0-.609-2.258,1.963,1.963,0,0,0-1.672-.828,2.125,2.125,0,0,0-1.969,1.164V-2.18a2.129,2.129,0,0,0,1.984,1.156,1.954,1.954,0,0,0,1.652-.824A4.077,4.077,0,0,0,99.621-4.3ZM106.41.156a3.693,3.693,0,0,1-2.8-1.129,4.19,4.19,0,0,1-1.078-3.02v-.266a5.073,5.073,0,0,1,.48-2.246,3.748,3.748,0,0,1,1.344-1.547,3.378,3.378,0,0,1,1.871-.559,3.166,3.166,0,0,1,2.563,1.086,4.7,4.7,0,0,1,.914,3.109v.6h-5.727a3,3,0,0,0,.73,2.02,2.3,2.3,0,0,0,1.777.77,2.517,2.517,0,0,0,1.3-.312,3.259,3.259,0,0,0,.93-.828l.883.688A3.55,3.55,0,0,1,106.41.156Zm-.18-7.578a1.928,1.928,0,0,0-1.469.637A3.1,3.1,0,0,0,104.027-5h4.234v-.109a2.753,2.753,0,0,0-.594-1.707A1.815,1.815,0,0,0,106.231-7.422Zm9.234.266a4.331,4.331,0,0,0-.711-.055A1.9,1.9,0,0,0,112.824-6V0h-1.445V-8.453h1.406l.023.977a2.251,2.251,0,0,1,2.016-1.133,1.477,1.477,0,0,1,.641.109ZM118.363,0h-1.445V-8.453h1.445ZM116.8-10.7a.863.863,0,0,1,.215-.594.807.807,0,0,1,.637-.242.819.819,0,0,1,.641.242.854.854,0,0,1,.219.594.826.826,0,0,1-.219.586.834.834,0,0,1-.641.234.821.821,0,0,1-.637-.234A.834.834,0,0,1,116.8-10.7ZM120.293-4.3a4.993,4.993,0,0,1,.488-2.234,3.643,3.643,0,0,1,1.359-1.531,3.7,3.7,0,0,1,1.988-.539,3.565,3.565,0,0,1,2.793,1.2,4.6,4.6,0,0,1,1.066,3.18v.1a5.036,5.036,0,0,1-.473,2.215,3.589,3.589,0,0,1-1.352,1.527,3.743,3.743,0,0,1-2.02.547,3.556,3.556,0,0,1-2.785-1.2A4.575,4.575,0,0,1,120.293-4.2Zm1.453.172a3.616,3.616,0,0,0,.652,2.258,2.088,2.088,0,0,0,1.746.852,2.075,2.075,0,0,0,1.75-.863,3.955,3.955,0,0,0,.648-2.418,3.61,3.61,0,0,0-.66-2.254,2.1,2.1,0,0,0-1.754-.863,2.075,2.075,0,0,0-1.727.852A3.925,3.925,0,0,0,121.746-4.133Zm12.141-3.023a4.331,4.331,0,0,0-.711-.055A1.9,1.9,0,0,0,131.246-6V0H129.8V-8.453h1.406l.023.977a2.251,2.251,0,0,1,2.016-1.133,1.477,1.477,0,0,1,.641.109ZM138.414.156a3.693,3.693,0,0,1-2.8-1.129,4.19,4.19,0,0,1-1.078-3.02v-.266a5.073,5.073,0,0,1,.48-2.246,3.748,3.748,0,0,1,1.344-1.547,3.378,3.378,0,0,1,1.871-.559A3.166,3.166,0,0,1,140.8-7.523a4.7,4.7,0,0,1,.914,3.109v.6h-5.727a3,3,0,0,0,.73,2.02,2.3,2.3,0,0,0,1.777.77,2.517,2.517,0,0,0,1.3-.312,3.258,3.258,0,0,0,.93-.828l.883.688A3.55,3.55,0,0,1,138.414.156Zm-.18-7.578a1.928,1.928,0,0,0-1.469.637A3.1,3.1,0,0,0,136.032-5h4.234v-.109a2.753,2.753,0,0,0-.594-1.707A1.815,1.815,0,0,0,138.235-7.422Zm10.07,5.18a1.064,1.064,0,0,0-.441-.91,4.249,4.249,0,0,0-1.539-.559,7.277,7.277,0,0,1-1.742-.562,2.479,2.479,0,0,1-.953-.781,1.869,1.869,0,0,1-.309-1.078,2.193,2.193,0,0,1,.879-1.758,3.432,3.432,0,0,1,2.246-.719,3.532,3.532,0,0,1,2.332.742,2.357,2.357,0,0,1,.895,1.9h-1.453a1.3,1.3,0,0,0-.5-1.023,1.888,1.888,0,0,0-1.27-.43,1.976,1.976,0,0,0-1.234.344,1.082,1.082,0,0,0-.445.9.877.877,0,0,0,.414.789,5.1,5.1,0,0,0,1.5.508,7.8,7.8,0,0,1,1.754.578,2.558,2.558,0,0,1,1,.809,1.988,1.988,0,0,1,.324,1.152,2.163,2.163,0,0,1-.906,1.816,3.8,3.8,0,0,1-2.352.684A4.257,4.257,0,0,1,144.7-.2a2.922,2.922,0,0,1-1.223-1,2.42,2.42,0,0,1-.441-1.395h1.445a1.5,1.5,0,0,0,.582,1.152,2.258,2.258,0,0,0,1.434.426,2.331,2.331,0,0,0,1.316-.332A1.02,1.02,0,0,0,148.3-2.242ZM2.664,19.2H1.219V7.2H2.664Zm3.883,0H5.1V10.747H6.547ZM4.984,8.5A.863.863,0,0,1,5.2,7.911a.807.807,0,0,1,.637-.242.819.819,0,0,1,.641.242A.854.854,0,0,1,6.7,8.5a.826.826,0,0,1-.219.586.834.834,0,0,1-.641.234A.821.821,0,0,1,5.2,9.091.834.834,0,0,1,4.984,8.5Zm3.531,6.4a4.968,4.968,0,0,1,.914-3.145,2.923,2.923,0,0,1,2.422-1.168,2.908,2.908,0,0,1,2.414,1.094l.07-.937h1.32V19a3.439,3.439,0,0,1-.973,2.586,3.589,3.589,0,0,1-2.613.945,4.348,4.348,0,0,1-1.789-.391,3.08,3.08,0,0,1-1.336-1.07L9.7,20.2a2.826,2.826,0,0,0,2.273,1.148,2.214,2.214,0,0,0,1.645-.594,2.269,2.269,0,0,0,.59-1.672v-.727a2.971,2.971,0,0,1-2.367,1,2.887,2.887,0,0,1-2.4-1.2A5.224,5.224,0,0,1,8.516,14.9Zm1.453.164a3.79,3.79,0,0,0,.586,2.246,1.9,1.9,0,0,0,1.641.816A2.117,2.117,0,0,0,14.2,16.888V13.028a2.142,2.142,0,0,0-1.992-1.211,1.921,1.921,0,0,0-1.648.82A4.128,4.128,0,0,0,9.969,15.067Zm11.375,4.289a3.693,3.693,0,0,1-2.8-1.129,4.19,4.19,0,0,1-1.078-3.02v-.266a5.073,5.073,0,0,1,.48-2.246,3.748,3.748,0,0,1,1.344-1.547,3.378,3.378,0,0,1,1.871-.559,3.166,3.166,0,0,1,2.563,1.086,4.7,4.7,0,0,1,.914,3.109v.6H18.914a3,3,0,0,0,.73,2.02,2.3,2.3,0,0,0,1.777.77,2.517,2.517,0,0,0,1.3-.312,3.259,3.259,0,0,0,.93-.828l.883.688A3.55,3.55,0,0,1,21.344,19.356Zm-.18-7.578a1.928,1.928,0,0,0-1.469.637,3.1,3.1,0,0,0-.734,1.785H23.2v-.109a2.753,2.753,0,0,0-.594-1.707A1.815,1.815,0,0,0,21.164,11.778Zm9.234.266a4.331,4.331,0,0,0-.711-.055,1.9,1.9,0,0,0-1.93,1.211v6H26.313V10.747h1.406l.023.977a2.251,2.251,0,0,1,2.016-1.133,1.477,1.477,0,0,1,.641.109ZM36.313,19.2a3.036,3.036,0,0,1-.2-.891A3.225,3.225,0,0,1,33.7,19.356a2.984,2.984,0,0,1-2.051-.707,2.287,2.287,0,0,1-.8-1.793,2.39,2.39,0,0,1,1-2.051,4.733,4.733,0,0,1,2.824-.73h1.406v-.664a1.623,1.623,0,0,0-.453-1.207,1.821,1.821,0,0,0-1.336-.449,2.107,2.107,0,0,0-1.3.391,1.151,1.151,0,0,0-.523.945H31.024a2,2,0,0,1,.449-1.223,3.066,3.066,0,0,1,1.219-.934,4.1,4.1,0,0,1,1.691-.344,3.342,3.342,0,0,1,2.289.73,2.635,2.635,0,0,1,.859,2.012v3.891a4.757,4.757,0,0,0,.3,1.852V19.2Zm-2.4-1.1a2.54,2.54,0,0,0,1.289-.352,2.127,2.127,0,0,0,.883-.914V15.1H34.953q-2.656,0-2.656,1.555a1.316,1.316,0,0,0,.453,1.063A1.742,1.742,0,0,0,33.914,18.1Zm7.242-7.352.039.938A3.122,3.122,0,0,1,43.7,10.591a2.417,2.417,0,0,1,2.414,1.359,3.2,3.2,0,0,1,1.1-.984,3.242,3.242,0,0,1,1.6-.375q2.781,0,2.828,2.945V19.2H50.2V13.622a1.941,1.941,0,0,0-.414-1.355,1.823,1.823,0,0,0-1.391-.449,1.917,1.917,0,0,0-1.336.48,1.949,1.949,0,0,0-.617,1.293V19.2H44.985V13.661a1.613,1.613,0,0,0-1.8-1.844,1.934,1.934,0,0,0-1.945,1.211V19.2H39.789V10.747Zm16.172,8.609a3.693,3.693,0,0,1-2.8-1.129,4.19,4.19,0,0,1-1.078-3.02v-.266a5.073,5.073,0,0,1,.48-2.246,3.748,3.748,0,0,1,1.344-1.547,3.378,3.378,0,0,1,1.871-.559,3.166,3.166,0,0,1,2.563,1.086,4.7,4.7,0,0,1,.914,3.109v.6H54.9a3,3,0,0,0,.73,2.02,2.3,2.3,0,0,0,1.777.77,2.517,2.517,0,0,0,1.3-.312,3.259,3.259,0,0,0,.93-.828l.883.688A3.55,3.55,0,0,1,57.328,19.356Zm-.18-7.578a1.928,1.928,0,0,0-1.469.637,3.1,3.1,0,0,0-.734,1.785H59.18v-.109a2.753,2.753,0,0,0-.594-1.707A1.815,1.815,0,0,0,57.149,11.778Zm6.516-1.031.047,1.063a3.08,3.08,0,0,1,2.531-1.219q2.68,0,2.7,3.023V19.2H67.5V13.606a1.946,1.946,0,0,0-.418-1.352,1.675,1.675,0,0,0-1.277-.437,2.086,2.086,0,0,0-1.234.375,2.547,2.547,0,0,0-.828.984V19.2H62.3V10.747ZM73.086,8.7v2.047h1.578v1.117H73.086v5.249a1.173,1.173,0,0,0,.211.763.888.888,0,0,0,.719.254,3.5,3.5,0,0,0,.688-.094V19.2a4.215,4.215,0,0,1-1.109.155,1.8,1.8,0,0,1-1.461-.586,2.517,2.517,0,0,1-.492-1.664V11.864H70.1V10.747h1.539V8.7ZM79.86,19.356a3.693,3.693,0,0,1-2.8-1.129,4.19,4.19,0,0,1-1.078-3.02v-.266a5.073,5.073,0,0,1,.48-2.246,3.748,3.748,0,0,1,1.344-1.547,3.378,3.378,0,0,1,1.871-.559,3.166,3.166,0,0,1,2.563,1.086,4.7,4.7,0,0,1,.914,3.109v.6H77.43a3,3,0,0,0,.73,2.02,2.3,2.3,0,0,0,1.777.77,2.517,2.517,0,0,0,1.3-.312,3.259,3.259,0,0,0,.93-.828l.883.688A3.55,3.55,0,0,1,79.86,19.356Zm-.18-7.578a1.928,1.928,0,0,0-1.469.637,3.1,3.1,0,0,0-.734,1.785h4.234v-.109a2.753,2.753,0,0,0-.594-1.707A1.815,1.815,0,0,0,79.68,11.778Zm14.031,5.18a1.064,1.064,0,0,0-.441-.91,4.249,4.249,0,0,0-1.539-.559,7.277,7.277,0,0,1-1.742-.562,2.479,2.479,0,0,1-.953-.781,1.869,1.869,0,0,1-.309-1.078,2.193,2.193,0,0,1,.879-1.758,3.432,3.432,0,0,1,2.246-.719,3.532,3.532,0,0,1,2.332.742,2.357,2.357,0,0,1,.895,1.9H93.625a1.3,1.3,0,0,0-.5-1.023,1.888,1.888,0,0,0-1.27-.43,1.976,1.976,0,0,0-1.234.344,1.082,1.082,0,0,0-.445.9.877.877,0,0,0,.414.789,5.1,5.1,0,0,0,1.5.508,7.8,7.8,0,0,1,1.754.578,2.558,2.558,0,0,1,1,.809,1.988,1.988,0,0,1,.324,1.152,2.163,2.163,0,0,1-.906,1.816,3.8,3.8,0,0,1-2.352.684A4.257,4.257,0,0,1,90.1,19a2.922,2.922,0,0,1-1.223-1,2.42,2.42,0,0,1-.441-1.395h1.445a1.5,1.5,0,0,0,.582,1.152,2.258,2.258,0,0,0,1.434.426,2.331,2.331,0,0,0,1.316-.332A1.02,1.02,0,0,0,93.711,16.958Zm6.836,2.4a3.693,3.693,0,0,1-2.8-1.129,4.19,4.19,0,0,1-1.078-3.02v-.266a5.073,5.073,0,0,1,.48-2.246A3.748,3.748,0,0,1,98.5,11.149a3.378,3.378,0,0,1,1.871-.559,3.166,3.166,0,0,1,2.563,1.086,4.7,4.7,0,0,1,.914,3.109v.6H98.118a3,3,0,0,0,.73,2.02,2.3,2.3,0,0,0,1.777.77,2.517,2.517,0,0,0,1.3-.312,3.259,3.259,0,0,0,.93-.828l.883.688A3.55,3.55,0,0,1,100.547,19.356Zm-.18-7.578a1.928,1.928,0,0,0-1.469.637,3.1,3.1,0,0,0-.734,1.785H102.4v-.109a2.753,2.753,0,0,0-.594-1.707A1.815,1.815,0,0,0,100.368,11.778Zm12.289,3.289a5.062,5.062,0,0,1-.883,3.109,2.829,2.829,0,0,1-2.391,1.18,3.1,3.1,0,0,1-2.422-.977v4.07h-1.445v-11.7h1.32l.07.938a2.977,2.977,0,0,1,2.453-1.094,2.882,2.882,0,0,1,2.41,1.148,5.117,5.117,0,0,1,.887,3.2Zm-1.445-.164a3.735,3.735,0,0,0-.609-2.258,1.963,1.963,0,0,0-1.672-.828,2.125,2.125,0,0,0-1.969,1.164V17.02a2.129,2.129,0,0,0,1.984,1.156,1.954,1.954,0,0,0,1.652-.824A4.077,4.077,0,0,0,111.211,14.9Zm8.5,4.3a3.036,3.036,0,0,1-.2-.891,3.225,3.225,0,0,1-2.406,1.047,2.984,2.984,0,0,1-2.051-.707,2.288,2.288,0,0,1-.8-1.793,2.39,2.39,0,0,1,1-2.051,4.733,4.733,0,0,1,2.824-.73h1.406v-.664a1.623,1.623,0,0,0-.453-1.207,1.821,1.821,0,0,0-1.336-.449,2.108,2.108,0,0,0-1.3.391,1.151,1.151,0,0,0-.523.945h-1.453a2,2,0,0,1,.449-1.223,3.066,3.066,0,0,1,1.219-.934,4.1,4.1,0,0,1,1.691-.344,3.342,3.342,0,0,1,2.289.73,2.635,2.635,0,0,1,.859,2.012v3.891a4.757,4.757,0,0,0,.3,1.852V19.2Zm-2.4-1.1a2.54,2.54,0,0,0,1.289-.352,2.127,2.127,0,0,0,.883-.914V15.1h-1.133q-2.656,0-2.656,1.555a1.316,1.316,0,0,0,.453,1.063A1.742,1.742,0,0,0,117.313,18.1Zm9.969-6.055a4.331,4.331,0,0,0-.711-.055,1.9,1.9,0,0,0-1.93,1.211v6H123.2V10.747H124.6l.023.977a2.251,2.251,0,0,1,2.016-1.133,1.477,1.477,0,0,1,.641.109ZM133.2,19.2a3.036,3.036,0,0,1-.2-.891,3.225,3.225,0,0,1-2.406,1.047,2.984,2.984,0,0,1-2.051-.707,2.287,2.287,0,0,1-.8-1.793,2.39,2.39,0,0,1,1-2.051,4.733,4.733,0,0,1,2.824-.73h1.406v-.664a1.623,1.623,0,0,0-.453-1.207,1.821,1.821,0,0,0-1.336-.449,2.107,2.107,0,0,0-1.3.391,1.151,1.151,0,0,0-.523.945h-1.453a2,2,0,0,1,.449-1.223,3.066,3.066,0,0,1,1.219-.934,4.1,4.1,0,0,1,1.691-.344,3.342,3.342,0,0,1,2.289.73,2.635,2.635,0,0,1,.859,2.012v3.891a4.757,4.757,0,0,0,.3,1.852V19.2Zm-2.4-1.1a2.54,2.54,0,0,0,1.289-.352,2.127,2.127,0,0,0,.883-.914V15.1h-1.133q-2.656,0-2.656,1.555a1.316,1.316,0,0,0,.453,1.063A1.742,1.742,0,0,0,130.8,18.1Zm5.531-3.2a4.952,4.952,0,0,1,.922-3.129,3.137,3.137,0,0,1,4.766-.168V7.2h1.445v12h-1.328l-.07-.906a2.943,2.943,0,0,1-2.414,1.063,2.887,2.887,0,0,1-2.395-1.2,5.008,5.008,0,0,1-.926-3.141Zm1.445.164a3.749,3.749,0,0,0,.594,2.25,1.919,1.919,0,0,0,1.641.813,2.108,2.108,0,0,0,2.008-1.234V13.013a2.125,2.125,0,0,0-1.992-1.2,1.929,1.929,0,0,0-1.656.82A4.128,4.128,0,0,0,137.774,15.067Zm7.547-.172a4.993,4.993,0,0,1,.488-2.234,3.642,3.642,0,0,1,1.359-1.531,3.7,3.7,0,0,1,1.988-.539,3.565,3.565,0,0,1,2.793,1.2,4.6,4.6,0,0,1,1.066,3.18v.1a5.036,5.036,0,0,1-.473,2.215,3.589,3.589,0,0,1-1.352,1.527,3.743,3.743,0,0,1-2.02.547,3.556,3.556,0,0,1-2.785-1.2A4.575,4.575,0,0,1,145.321,15Zm1.453.172a3.616,3.616,0,0,0,.652,2.258,2.211,2.211,0,0,0,3.5-.012,3.954,3.954,0,0,0,.648-2.418,3.61,3.61,0,0,0-.66-2.254,2.1,2.1,0,0,0-1.754-.863,2.075,2.075,0,0,0-1.727.852A3.925,3.925,0,0,0,146.774,15.067Zm12.977,1.891a1.064,1.064,0,0,0-.441-.91,4.249,4.249,0,0,0-1.539-.559,7.277,7.277,0,0,1-1.742-.562,2.479,2.479,0,0,1-.953-.781,1.869,1.869,0,0,1-.309-1.078,2.193,2.193,0,0,1,.879-1.758,3.432,3.432,0,0,1,2.246-.719,3.532,3.532,0,0,1,2.332.742,2.357,2.357,0,0,1,.895,1.9h-1.453a1.3,1.3,0,0,0-.5-1.023,1.888,1.888,0,0,0-1.27-.43,1.976,1.976,0,0,0-1.234.344,1.082,1.082,0,0,0-.445.9.877.877,0,0,0,.414.789,5.1,5.1,0,0,0,1.5.508,7.8,7.8,0,0,1,1.754.578,2.558,2.558,0,0,1,1,.809,1.988,1.988,0,0,1,.324,1.152,2.163,2.163,0,0,1-.906,1.816,3.8,3.8,0,0,1-2.352.684,4.257,4.257,0,0,1-1.8-.359,2.922,2.922,0,0,1-1.223-1,2.42,2.42,0,0,1-.441-1.395h1.445a1.5,1.5,0,0,0,.582,1.152,2.258,2.258,0,0,0,1.434.426,2.331,2.331,0,0,0,1.316-.332A1.02,1.02,0,0,0,159.751,16.958ZM.742,34.1a4.952,4.952,0,0,1,.922-3.129,2.915,2.915,0,0,1,2.414-1.184A2.932,2.932,0,0,1,6.43,30.806V26.4H7.875v12H6.547l-.07-.906a2.943,2.943,0,0,1-2.414,1.063,2.887,2.887,0,0,1-2.395-1.2,5.008,5.008,0,0,1-.926-3.141Zm1.445.164a3.749,3.749,0,0,0,.594,2.25,1.92,1.92,0,0,0,1.641.813A2.108,2.108,0,0,0,6.43,36.1V32.213a2.125,2.125,0,0,0-1.992-1.2,1.929,1.929,0,0,0-1.656.82A4.128,4.128,0,0,0,2.188,34.267Zm11.438,4.289a3.693,3.693,0,0,1-2.8-1.129,4.19,4.19,0,0,1-1.078-3.02v-.266a5.073,5.073,0,0,1,.48-2.246,3.748,3.748,0,0,1,1.344-1.547,3.378,3.378,0,0,1,1.871-.559,3.166,3.166,0,0,1,2.563,1.086,4.7,4.7,0,0,1,.914,3.109v.6H11.2a3,3,0,0,0,.73,2.02,2.3,2.3,0,0,0,1.777.77,2.517,2.517,0,0,0,1.3-.312,3.258,3.258,0,0,0,.93-.828l.883.688A3.55,3.55,0,0,1,13.625,38.556Zm-.18-7.578a1.928,1.928,0,0,0-1.469.637,3.1,3.1,0,0,0-.734,1.785h4.234v-.109a2.753,2.753,0,0,0-.594-1.707A1.815,1.815,0,0,0,13.445,30.978ZM20.164,38.4H18.719v-12h1.445Zm9.664-1.023a2.082,2.082,0,0,0,1.352-.469,1.649,1.649,0,0,0,.641-1.172h1.367a2.621,2.621,0,0,1-.5,1.383,3.293,3.293,0,0,1-1.23,1.047,3.55,3.55,0,0,1-1.629.391A3.482,3.482,0,0,1,27.082,37.4a4.59,4.59,0,0,1-1.02-3.152v-.242a5.089,5.089,0,0,1,.453-2.2,3.451,3.451,0,0,1,1.3-1.492,3.7,3.7,0,0,1,2-.531,3.39,3.39,0,0,1,2.363.852,3.043,3.043,0,0,1,1,2.211H31.82a1.992,1.992,0,0,0-.621-1.348,1.932,1.932,0,0,0-1.379-.527,2.023,2.023,0,0,0-1.707.793,3.724,3.724,0,0,0-.605,2.293v.273a3.65,3.65,0,0,0,.6,2.25A2.033,2.033,0,0,0,29.828,37.377Zm10.2.188a3.07,3.07,0,0,1-2.477.992,2.628,2.628,0,0,1-2.059-.785,3.4,3.4,0,0,1-.715-2.324v-5.5h1.445v5.461q0,1.922,1.563,1.922a2.163,2.163,0,0,0,2.2-1.234V29.947h1.445V38.4H40.063Zm7.109.992a3.693,3.693,0,0,1-2.8-1.129,4.19,4.19,0,0,1-1.078-3.02v-.266a5.073,5.073,0,0,1,.48-2.246,3.748,3.748,0,0,1,1.344-1.547,3.378,3.378,0,0,1,1.871-.559,3.166,3.166,0,0,1,2.563,1.086,4.7,4.7,0,0,1,.914,3.109v.6H44.711a3,3,0,0,0,.73,2.02,2.3,2.3,0,0,0,1.777.77,2.517,2.517,0,0,0,1.3-.312,3.258,3.258,0,0,0,.93-.828l.883.688A3.55,3.55,0,0,1,47.141,38.556Zm-.18-7.578a1.928,1.928,0,0,0-1.469.637,3.1,3.1,0,0,0-.734,1.785h4.234v-.109a2.753,2.753,0,0,0-.594-1.707A1.815,1.815,0,0,0,46.961,30.978Zm9.234.266a4.331,4.331,0,0,0-.711-.055,1.9,1.9,0,0,0-1.93,1.211v6H52.109V29.947h1.406l.023.977a2.251,2.251,0,0,1,2.016-1.133,1.477,1.477,0,0,1,.641.109Zm8.469,3.023a5.062,5.062,0,0,1-.883,3.109,2.829,2.829,0,0,1-2.391,1.18,3.1,3.1,0,0,1-2.422-.977v4.07H57.523v-11.7h1.32l.07.938a2.977,2.977,0,0,1,2.453-1.094,2.882,2.882,0,0,1,2.41,1.148,5.117,5.117,0,0,1,.887,3.2ZM63.219,34.1a3.735,3.735,0,0,0-.609-2.258,1.963,1.963,0,0,0-1.672-.828,2.125,2.125,0,0,0-1.969,1.164V36.22a2.129,2.129,0,0,0,1.984,1.156,1.954,1.954,0,0,0,1.652-.824A4.077,4.077,0,0,0,63.219,34.1Zm2.9-.008a4.993,4.993,0,0,1,.488-2.234,3.643,3.643,0,0,1,1.359-1.531,3.7,3.7,0,0,1,1.988-.539,3.565,3.565,0,0,1,2.793,1.2,4.6,4.6,0,0,1,1.066,3.18v.1a5.036,5.036,0,0,1-.473,2.215,3.589,3.589,0,0,1-1.352,1.527,3.743,3.743,0,0,1-2.02.547,3.556,3.556,0,0,1-2.785-1.2A4.575,4.575,0,0,1,66.117,34.2Zm1.453.172a3.616,3.616,0,0,0,.652,2.258,2.211,2.211,0,0,0,3.5-.012,3.955,3.955,0,0,0,.648-2.418,3.61,3.61,0,0,0-.66-2.254,2.1,2.1,0,0,0-1.754-.863,2.075,2.075,0,0,0-1.727.852A3.925,3.925,0,0,0,67.57,34.267Zm8.086,3.375a.905.905,0,0,1,.223-.625.848.848,0,0,1,.668-.25.874.874,0,0,1,.676.25.887.887,0,0,1,.23.625.839.839,0,0,1-.23.6.89.89,0,0,1-.676.242.8.8,0,0,1-.891-.844Z" transform="translate(602.43 177.59)" fill="#12263f"/>
        <g id="Grupo">
          <path id="Trazado_163284" data-name="Trazado 163284" d="M3.258-11.375,6.977-2.094,10.7-11.375h1.945V0h-1.5V-4.43l.141-4.781L7.547,0H6.4L2.672-9.187,2.82-4.43V0H1.32V-11.375ZM20.281,0a3.036,3.036,0,0,1-.2-.891A3.225,3.225,0,0,1,17.672.156a2.984,2.984,0,0,1-2.051-.707,2.287,2.287,0,0,1-.8-1.793,2.39,2.39,0,0,1,1-2.051,4.733,4.733,0,0,1,2.824-.73h1.406v-.664A1.623,1.623,0,0,0,19.6-7a1.821,1.821,0,0,0-1.336-.449,2.108,2.108,0,0,0-1.3.391,1.151,1.151,0,0,0-.523.945H14.992a2,2,0,0,1,.449-1.223,3.066,3.066,0,0,1,1.219-.934,4.1,4.1,0,0,1,1.691-.344,3.342,3.342,0,0,1,2.289.73A2.635,2.635,0,0,1,21.5-5.867v3.891a4.757,4.757,0,0,0,.3,1.852V0Zm-2.4-1.1a2.54,2.54,0,0,0,1.289-.352,2.127,2.127,0,0,0,.883-.914V-4.1H18.922q-2.656,0-2.656,1.555a1.316,1.316,0,0,0,.453,1.063A1.742,1.742,0,0,0,17.883-1.1Zm7.25-7.352.047,1.063a3.08,3.08,0,0,1,2.531-1.219q2.68,0,2.7,3.023V0H28.969V-5.594a1.946,1.946,0,0,0-.418-1.352,1.675,1.675,0,0,0-1.277-.437,2.086,2.086,0,0,0-1.234.375,2.546,2.546,0,0,0-.828.984V0H23.766V-8.453ZM32.211-4.3A4.993,4.993,0,0,1,32.7-6.539,3.643,3.643,0,0,1,34.059-8.07a3.7,3.7,0,0,1,1.988-.539,3.565,3.565,0,0,1,2.793,1.2,4.6,4.6,0,0,1,1.066,3.18v.1a5.036,5.036,0,0,1-.473,2.215A3.589,3.589,0,0,1,38.082-.391a3.743,3.743,0,0,1-2.02.547,3.556,3.556,0,0,1-2.785-1.2A4.575,4.575,0,0,1,32.211-4.2Zm1.453.172a3.616,3.616,0,0,0,.652,2.258,2.088,2.088,0,0,0,1.746.852,2.075,2.075,0,0,0,1.75-.863A3.955,3.955,0,0,0,38.461-4.3a3.61,3.61,0,0,0-.66-2.254,2.1,2.1,0,0,0-1.754-.863,2.075,2.075,0,0,0-1.727.852A3.925,3.925,0,0,0,33.664-4.133ZM46.641-2.242a1.064,1.064,0,0,0-.441-.91,4.249,4.249,0,0,0-1.539-.559,7.277,7.277,0,0,1-1.742-.562,2.479,2.479,0,0,1-.953-.781,1.869,1.869,0,0,1-.309-1.078,2.193,2.193,0,0,1,.879-1.758,3.432,3.432,0,0,1,2.246-.719,3.532,3.532,0,0,1,2.332.742,2.357,2.357,0,0,1,.895,1.9H46.555a1.3,1.3,0,0,0-.5-1.023,1.888,1.888,0,0,0-1.27-.43,1.976,1.976,0,0,0-1.234.344,1.082,1.082,0,0,0-.445.9.877.877,0,0,0,.414.789,5.1,5.1,0,0,0,1.5.508,7.8,7.8,0,0,1,1.754.578,2.558,2.558,0,0,1,1,.809,1.988,1.988,0,0,1,.324,1.152A2.163,2.163,0,0,1,47.18-.527a3.8,3.8,0,0,1-2.352.684,4.257,4.257,0,0,1-1.8-.359,2.922,2.922,0,0,1-1.223-1A2.42,2.42,0,0,1,41.367-2.6h1.445a1.5,1.5,0,0,0,.582,1.152,2.258,2.258,0,0,0,1.434.426,2.331,2.331,0,0,0,1.316-.332A1.02,1.02,0,0,0,46.641-2.242Zm12.211,0a1.064,1.064,0,0,0-.441-.91,4.249,4.249,0,0,0-1.539-.559,7.277,7.277,0,0,1-1.742-.562,2.479,2.479,0,0,1-.953-.781,1.869,1.869,0,0,1-.309-1.078,2.193,2.193,0,0,1,.879-1.758,3.432,3.432,0,0,1,2.246-.719,3.532,3.532,0,0,1,2.332.742,2.357,2.357,0,0,1,.895,1.9H58.766a1.3,1.3,0,0,0-.5-1.023,1.888,1.888,0,0,0-1.27-.43,1.976,1.976,0,0,0-1.234.344,1.082,1.082,0,0,0-.445.9.877.877,0,0,0,.414.789,5.1,5.1,0,0,0,1.5.508,7.8,7.8,0,0,1,1.754.578,2.558,2.558,0,0,1,1,.809A1.988,1.988,0,0,1,60.3-2.344a2.163,2.163,0,0,1-.906,1.816,3.8,3.8,0,0,1-2.352.684,4.257,4.257,0,0,1-1.8-.359,2.922,2.922,0,0,1-1.223-1A2.42,2.42,0,0,1,53.578-2.6h1.445a1.5,1.5,0,0,0,.582,1.152,2.258,2.258,0,0,0,1.434.426,2.331,2.331,0,0,0,1.316-.332A1.02,1.02,0,0,0,58.852-2.242ZM67.4-.836a3.07,3.07,0,0,1-2.477.992,2.628,2.628,0,0,1-2.059-.785,3.4,3.4,0,0,1-.715-2.324v-5.5h1.445v5.461q0,1.922,1.563,1.922a2.163,2.163,0,0,0,2.2-1.234V-8.453H68.8V0H67.43Zm10.742-3.3a5.062,5.062,0,0,1-.883,3.109A2.829,2.829,0,0,1,74.867.156,3.1,3.1,0,0,1,72.445-.82V3.25H71v-11.7h1.32l.07.938a2.977,2.977,0,0,1,2.453-1.094,2.882,2.882,0,0,1,2.41,1.148,5.117,5.117,0,0,1,.887,3.2ZM76.7-4.3a3.735,3.735,0,0,0-.609-2.258,1.963,1.963,0,0,0-1.672-.828,2.125,2.125,0,0,0-1.969,1.164V-2.18A2.129,2.129,0,0,0,74.43-1.023a1.954,1.954,0,0,0,1.652-.824A4.077,4.077,0,0,0,76.7-4.3ZM81.547,0H80.1V-8.453h1.445ZM79.984-10.7a.863.863,0,0,1,.215-.594.807.807,0,0,1,.637-.242.819.819,0,0,1,.641.242.854.854,0,0,1,.219.594.826.826,0,0,1-.219.586.834.834,0,0,1-.641.234.821.821,0,0,1-.637-.234A.834.834,0,0,1,79.984-10.7Zm5.242,2.242.047,1.063A3.08,3.08,0,0,1,87.8-8.609q2.68,0,2.7,3.023V0H89.063V-5.594a1.946,1.946,0,0,0-.418-1.352,1.675,1.675,0,0,0-1.277-.437,2.086,2.086,0,0,0-1.234.375,2.546,2.546,0,0,0-.828.984V0H83.859V-8.453ZM97.906,0a3.036,3.036,0,0,1-.2-.891A3.225,3.225,0,0,1,95.3.156a2.984,2.984,0,0,1-2.051-.707,2.288,2.288,0,0,1-.8-1.793,2.39,2.39,0,0,1,1-2.051,4.733,4.733,0,0,1,2.824-.73H97.68v-.664A1.623,1.623,0,0,0,97.227-7a1.821,1.821,0,0,0-1.336-.449,2.108,2.108,0,0,0-1.3.391,1.151,1.151,0,0,0-.523.945H92.617a2,2,0,0,1,.449-1.223,3.066,3.066,0,0,1,1.219-.934,4.1,4.1,0,0,1,1.691-.344,3.342,3.342,0,0,1,2.289.73,2.635,2.635,0,0,1,.859,2.012v3.891a4.757,4.757,0,0,0,.3,1.852V0Zm-2.4-1.1A2.54,2.54,0,0,0,96.8-1.453a2.127,2.127,0,0,0,.883-.914V-4.1H96.547q-2.656,0-2.656,1.555a1.316,1.316,0,0,0,.453,1.063A1.742,1.742,0,0,0,95.508-1.1Zm5.531-3.2a4.952,4.952,0,0,1,.922-3.129,2.915,2.915,0,0,1,2.414-1.184,2.932,2.932,0,0,1,2.352,1.016V-12h1.445V0h-1.328l-.07-.906A2.943,2.943,0,0,1,104.359.156a2.887,2.887,0,0,1-2.395-1.2,5.008,5.008,0,0,1-.926-3.141Zm1.445.164a3.749,3.749,0,0,0,.594,2.25,1.92,1.92,0,0,0,1.641.813A2.109,2.109,0,0,0,106.727-2.3V-6.187a2.125,2.125,0,0,0-1.992-1.2,1.929,1.929,0,0,0-1.656.82A4.128,4.128,0,0,0,102.484-4.133ZM115.633,0a3.036,3.036,0,0,1-.2-.891A3.225,3.225,0,0,1,113.023.156a2.984,2.984,0,0,1-2.051-.707,2.288,2.288,0,0,1-.8-1.793,2.39,2.39,0,0,1,1-2.051A4.733,4.733,0,0,1,114-5.125h1.406v-.664A1.623,1.623,0,0,0,114.953-7a1.821,1.821,0,0,0-1.336-.449,2.108,2.108,0,0,0-1.3.391,1.151,1.151,0,0,0-.523.945h-1.453a2,2,0,0,1,.449-1.223,3.066,3.066,0,0,1,1.219-.934,4.1,4.1,0,0,1,1.691-.344,3.342,3.342,0,0,1,2.289.73,2.635,2.635,0,0,1,.859,2.012v3.891a4.757,4.757,0,0,0,.3,1.852V0Zm-2.4-1.1a2.54,2.54,0,0,0,1.289-.352,2.127,2.127,0,0,0,.883-.914V-4.1h-1.133q-2.656,0-2.656,1.555a1.316,1.316,0,0,0,.453,1.063A1.742,1.742,0,0,0,113.234-1.1Zm10.8-1.141a1.064,1.064,0,0,0-.441-.91,4.249,4.249,0,0,0-1.539-.559,7.277,7.277,0,0,1-1.742-.562,2.479,2.479,0,0,1-.953-.781,1.869,1.869,0,0,1-.309-1.078,2.193,2.193,0,0,1,.879-1.758,3.432,3.432,0,0,1,2.246-.719,3.532,3.532,0,0,1,2.332.742,2.357,2.357,0,0,1,.895,1.9h-1.453a1.3,1.3,0,0,0-.5-1.023,1.888,1.888,0,0,0-1.27-.43,1.976,1.976,0,0,0-1.234.344,1.082,1.082,0,0,0-.445.9.877.877,0,0,0,.414.789,5.1,5.1,0,0,0,1.5.508,7.8,7.8,0,0,1,1.754.578,2.558,2.558,0,0,1,1,.809,1.988,1.988,0,0,1,.324,1.152,2.163,2.163,0,0,1-.906,1.816,3.8,3.8,0,0,1-2.352.684,4.257,4.257,0,0,1-1.8-.359,2.922,2.922,0,0,1-1.223-1,2.42,2.42,0,0,1-.441-1.395h1.445a1.5,1.5,0,0,0,.582,1.152,2.258,2.258,0,0,0,1.434.426,2.331,2.331,0,0,0,1.316-.332A1.02,1.02,0,0,0,124.039-2.242Zm7.234-2.375a12.079,12.079,0,0,1,.473-3.391,9.85,9.85,0,0,1,1.41-2.953,6,6,0,0,1,1.945-1.875l.3.953a6.222,6.222,0,0,0-1.871,2.672,11.583,11.583,0,0,0-.8,4.023l-.008.664a11.643,11.643,0,0,0,1.1,5.234A6.252,6.252,0,0,0,135.4,2.789l-.3.883a6.192,6.192,0,0,1-1.984-1.937A10.859,10.859,0,0,1,131.273-4.617Zm12.664.484a5.062,5.062,0,0,1-.883,3.109,2.829,2.829,0,0,1-2.391,1.18,3.1,3.1,0,0,1-2.422-.977V3.25H136.8v-11.7h1.32l.07.938a2.977,2.977,0,0,1,2.453-1.094,2.882,2.882,0,0,1,2.41,1.148,5.117,5.117,0,0,1,.887,3.2ZM142.492-4.3a3.735,3.735,0,0,0-.609-2.258,1.963,1.963,0,0,0-1.672-.828,2.125,2.125,0,0,0-1.969,1.164V-2.18a2.129,2.129,0,0,0,1.984,1.156,1.954,1.954,0,0,0,1.652-.824A4.077,4.077,0,0,0,142.492-4.3Zm8.5,4.3a3.036,3.036,0,0,1-.2-.891A3.225,3.225,0,0,1,148.383.156a2.984,2.984,0,0,1-2.051-.707,2.287,2.287,0,0,1-.8-1.793,2.39,2.39,0,0,1,1-2.051,4.733,4.733,0,0,1,2.824-.73h1.406v-.664A1.623,1.623,0,0,0,150.313-7a1.821,1.821,0,0,0-1.336-.449,2.107,2.107,0,0,0-1.3.391,1.151,1.151,0,0,0-.523.945H145.7a2,2,0,0,1,.449-1.223,3.066,3.066,0,0,1,1.219-.934,4.1,4.1,0,0,1,1.691-.344,3.342,3.342,0,0,1,2.289.73,2.635,2.635,0,0,1,.859,2.012v3.891a4.757,4.757,0,0,0,.3,1.852V0Zm-2.4-1.1a2.54,2.54,0,0,0,1.289-.352,2.127,2.127,0,0,0,.883-.914V-4.1h-1.133q-2.656,0-2.656,1.555a1.316,1.316,0,0,0,.453,1.063A1.742,1.742,0,0,0,148.594-1.1ZM156.047,0H154.6V-12h1.445Zm3.672-8.453.039.938a3.122,3.122,0,0,1,2.508-1.094A2.417,2.417,0,0,1,164.68-7.25a3.2,3.2,0,0,1,1.1-.984,3.242,3.242,0,0,1,1.6-.375q2.781,0,2.828,2.945V0h-1.445V-5.578a1.941,1.941,0,0,0-.414-1.355,1.823,1.823,0,0,0-1.391-.449,1.917,1.917,0,0,0-1.336.48A1.949,1.949,0,0,0,165-5.609V0h-1.453V-5.539a1.613,1.613,0,0,0-1.8-1.844A1.934,1.934,0,0,0,159.8-6.172V0h-1.445V-8.453ZM177.6,0a3.036,3.036,0,0,1-.2-.891A3.225,3.225,0,0,1,174.992.156a2.984,2.984,0,0,1-2.051-.707,2.287,2.287,0,0,1-.8-1.793,2.39,2.39,0,0,1,1-2.051,4.733,4.733,0,0,1,2.824-.73h1.406v-.664A1.623,1.623,0,0,0,176.922-7a1.821,1.821,0,0,0-1.336-.449,2.107,2.107,0,0,0-1.3.391,1.151,1.151,0,0,0-.523.945h-1.453a2,2,0,0,1,.449-1.223,3.066,3.066,0,0,1,1.219-.934,4.1,4.1,0,0,1,1.691-.344,3.342,3.342,0,0,1,2.289.73,2.635,2.635,0,0,1,.859,2.012v3.891a4.757,4.757,0,0,0,.3,1.852V0Zm-2.4-1.1a2.54,2.54,0,0,0,1.289-.352,2.127,2.127,0,0,0,.883-.914V-4.1h-1.133q-2.656,0-2.656,1.555a1.316,1.316,0,0,0,.453,1.063A1.742,1.742,0,0,0,175.2-1.1Z" transform="translate(602.43 242.67)" fill="#12263f"/>
          <path id="Trazado_163285" data-name="Trazado 163285" d="M2.539-7.43a3.073,3.073,0,0,1,2.5-1.18q2.68,0,2.7,3.023V0H6.3V-5.594a1.946,1.946,0,0,0-.418-1.352A1.675,1.675,0,0,0,4.6-7.383a2.086,2.086,0,0,0-1.234.375,2.546,2.546,0,0,0-.828.984V0H1.094V-12H2.539ZM15.125,0a3.036,3.036,0,0,1-.2-.891A3.225,3.225,0,0,1,12.516.156a2.984,2.984,0,0,1-2.051-.707,2.287,2.287,0,0,1-.8-1.793,2.39,2.39,0,0,1,1-2.051,4.733,4.733,0,0,1,2.824-.73H14.9v-.664A1.623,1.623,0,0,0,14.445-7a1.821,1.821,0,0,0-1.336-.449,2.107,2.107,0,0,0-1.3.391,1.151,1.151,0,0,0-.523.945H9.836a2,2,0,0,1,.449-1.223A3.066,3.066,0,0,1,11.5-8.266,4.1,4.1,0,0,1,13.2-8.609a3.342,3.342,0,0,1,2.289.73,2.635,2.635,0,0,1,.859,2.012v3.891a4.757,4.757,0,0,0,.3,1.852V0Zm-2.4-1.1a2.54,2.54,0,0,0,1.289-.352,2.127,2.127,0,0,0,.883-.914V-4.1H13.766q-2.656,0-2.656,1.555a1.316,1.316,0,0,0,.453,1.063A1.742,1.742,0,0,0,12.727-1.1ZM22-1.023a2.082,2.082,0,0,0,1.352-.469,1.649,1.649,0,0,0,.641-1.172h1.367a2.621,2.621,0,0,1-.5,1.383,3.293,3.293,0,0,1-1.23,1.047A3.55,3.55,0,0,1,22,.156,3.482,3.482,0,0,1,19.254-1a4.59,4.59,0,0,1-1.02-3.152v-.242a5.089,5.089,0,0,1,.453-2.2,3.451,3.451,0,0,1,1.3-1.492,3.7,3.7,0,0,1,2-.531,3.39,3.39,0,0,1,2.363.852,3.043,3.043,0,0,1,1,2.211H23.992a1.992,1.992,0,0,0-.621-1.348,1.932,1.932,0,0,0-1.379-.527,2.023,2.023,0,0,0-1.707.793,3.724,3.724,0,0,0-.605,2.293v.273a3.65,3.65,0,0,0,.6,2.25A2.033,2.033,0,0,0,22-1.023ZM28.555,0H27.109V-8.453h1.445ZM26.992-10.7a.863.863,0,0,1,.215-.594.807.807,0,0,1,.637-.242.819.819,0,0,1,.641.242.854.854,0,0,1,.219.594.826.826,0,0,1-.219.586.834.834,0,0,1-.641.234.821.821,0,0,1-.637-.234A.834.834,0,0,1,26.992-10.7ZM36.086,0a3.036,3.036,0,0,1-.2-.891A3.225,3.225,0,0,1,33.477.156a2.984,2.984,0,0,1-2.051-.707,2.287,2.287,0,0,1-.8-1.793,2.39,2.39,0,0,1,1-2.051,4.733,4.733,0,0,1,2.824-.73h1.406v-.664A1.623,1.623,0,0,0,35.406-7a1.821,1.821,0,0,0-1.336-.449,2.107,2.107,0,0,0-1.3.391,1.151,1.151,0,0,0-.523.945H30.8a2,2,0,0,1,.449-1.223,3.066,3.066,0,0,1,1.219-.934,4.1,4.1,0,0,1,1.691-.344,3.342,3.342,0,0,1,2.289.73A2.635,2.635,0,0,1,37.3-5.867v3.891a4.757,4.757,0,0,0,.3,1.852V0Zm-2.4-1.1a2.54,2.54,0,0,0,1.289-.352,2.127,2.127,0,0,0,.883-.914V-4.1H34.727q-2.656,0-2.656,1.555a1.316,1.316,0,0,0,.453,1.063A1.742,1.742,0,0,0,33.688-1.1ZM43.18-4.3A4.952,4.952,0,0,1,44.1-7.426a2.915,2.915,0,0,1,2.414-1.184,2.932,2.932,0,0,1,2.352,1.016V-12h1.445V0H48.984l-.07-.906A2.943,2.943,0,0,1,46.5.156a2.887,2.887,0,0,1-2.395-1.2,5.008,5.008,0,0,1-.926-3.141Zm1.445.164a3.749,3.749,0,0,0,.594,2.25,1.92,1.92,0,0,0,1.641.813A2.108,2.108,0,0,0,48.867-2.3V-6.187a2.125,2.125,0,0,0-1.992-1.2,1.929,1.929,0,0,0-1.656.82A4.128,4.128,0,0,0,44.625-4.133ZM56.063.156a3.693,3.693,0,0,1-2.8-1.129,4.19,4.19,0,0,1-1.078-3.02v-.266a5.073,5.073,0,0,1,.48-2.246,3.748,3.748,0,0,1,1.344-1.547,3.378,3.378,0,0,1,1.871-.559,3.166,3.166,0,0,1,2.563,1.086,4.7,4.7,0,0,1,.914,3.109v.6H53.633a3,3,0,0,0,.73,2.02,2.3,2.3,0,0,0,1.777.77,2.517,2.517,0,0,0,1.3-.312,3.259,3.259,0,0,0,.93-.828l.883.688A3.55,3.55,0,0,1,56.063.156Zm-.18-7.578a1.928,1.928,0,0,0-1.469.637A3.1,3.1,0,0,0,53.68-5h4.234v-.109a2.753,2.753,0,0,0-.594-1.707A1.815,1.815,0,0,0,55.883-7.422ZM62.6,0H61.156V-12H62.6Zm7.531,0a3.036,3.036,0,0,1-.2-.891A3.225,3.225,0,0,1,67.523.156a2.984,2.984,0,0,1-2.051-.707,2.288,2.288,0,0,1-.8-1.793,2.39,2.39,0,0,1,1-2.051,4.733,4.733,0,0,1,2.824-.73h1.406v-.664A1.623,1.623,0,0,0,69.453-7a1.821,1.821,0,0,0-1.336-.449,2.108,2.108,0,0,0-1.3.391,1.151,1.151,0,0,0-.523.945H64.844a2,2,0,0,1,.449-1.223,3.066,3.066,0,0,1,1.219-.934A4.1,4.1,0,0,1,68.2-8.609a3.342,3.342,0,0,1,2.289.73,2.635,2.635,0,0,1,.859,2.012v3.891a4.757,4.757,0,0,0,.3,1.852V0Zm-2.4-1.1a2.54,2.54,0,0,0,1.289-.352,2.127,2.127,0,0,0,.883-.914V-4.1H68.773q-2.656,0-2.656,1.555a1.316,1.316,0,0,0,.453,1.063A1.742,1.742,0,0,0,67.734-1.1Zm7.25-7.352.047,1.063a3.08,3.08,0,0,1,2.531-1.219q2.68,0,2.7,3.023V0H78.82V-5.594A1.946,1.946,0,0,0,78.4-6.945a1.675,1.675,0,0,0-1.277-.437,2.086,2.086,0,0,0-1.234.375,2.546,2.546,0,0,0-.828.984V0H73.617V-8.453ZM84.406-10.5v2.047h1.578v1.117H84.406v5.249a1.173,1.173,0,0,0,.211.763.888.888,0,0,0,.719.254,3.5,3.5,0,0,0,.688-.094V0a4.215,4.215,0,0,1-1.109.155A1.8,1.8,0,0,1,83.453-.43a2.517,2.517,0,0,1-.492-1.664V-7.336H81.422V-8.453h1.539V-10.5ZM91.18.156a3.693,3.693,0,0,1-2.8-1.129A4.19,4.19,0,0,1,87.3-3.992v-.266a5.073,5.073,0,0,1,.48-2.246,3.748,3.748,0,0,1,1.344-1.547A3.378,3.378,0,0,1,91-8.609a3.166,3.166,0,0,1,2.563,1.086,4.7,4.7,0,0,1,.914,3.109v.6H88.75a3,3,0,0,0,.73,2.02,2.3,2.3,0,0,0,1.777.77,2.517,2.517,0,0,0,1.3-.312,3.259,3.259,0,0,0,.93-.828l.883.688A3.55,3.55,0,0,1,91.18.156ZM91-7.422a1.928,1.928,0,0,0-1.469.637A3.1,3.1,0,0,0,88.8-5h4.234v-.109a2.753,2.753,0,0,0-.594-1.707A1.815,1.815,0,0,0,91-7.422Zm8.484,2.883a12.084,12.084,0,0,1-.457,3.34,9.876,9.876,0,0,1-1.4,2.949,6.127,6.127,0,0,1-1.973,1.922l-.3-.883A6.281,6.281,0,0,0,97.285-.074a12.387,12.387,0,0,0,.746-4.309v-.25a12.861,12.861,0,0,0-.344-3.051,10.3,10.3,0,0,0-.957-2.527,5.838,5.838,0,0,0-1.379-1.742l.3-.883a6.1,6.1,0,0,1,1.965,1.906,9.9,9.9,0,0,1,1.4,2.945A12.363,12.363,0,0,1,99.484-4.539Z" transform="translate(602.43 261.87)" fill="#12263f"/>
        </g>
        <g id="_1" data-name="1">
          <g id="Grupo_73850" data-name="Grupo 73850">
            <path id="Trazado_146761" data-name="Trazado 146761" d="M463.36,91.79c2.3-.7,3.26.42,3.72,1.14a3.09,3.09,0,0,1,.25,2.46,25,25,0,0,1-1.15,3.09c-1.05,2.48,0,4.52-2.84,4.52-.89.06-3.11.68-3-.77a54.3,54.3,0,0,1,3.02-10.44Z" fill="#fcc992"/>
            <path id="Trazado_146762" data-name="Trazado 146762" d="M461.56,103.7a1.92,1.92,0,0,1-1.37-.42,1.27,1.27,0,0,1-.38-1.08,54.72,54.72,0,0,1,3.12-10.71l.1-.15h.18c1.91-.58,3.36-.12,4.31,1.36a3.59,3.59,0,0,1,.31,2.87,25.511,25.511,0,0,1-1.17,3.16,8.511,8.511,0,0,0-.53,2.1c-.21,1.35-.42,2.74-2.79,2.74a4.5,4.5,0,0,0-.49.06A9.09,9.09,0,0,1,461.56,103.7Zm2.15-11.47a57.994,57.994,0,0,0-2.86,10c0,.19,0,.24,0,.25.27.25,1.27.11,1.8,0l.61-.07c1.51,0,1.59-.51,1.79-1.86a9.6,9.6,0,0,1,.6-2.34,24.836,24.836,0,0,0,1.13-3,2.58,2.58,0,0,0-.19-2,2.32,2.32,0,0,0-2.88-.98Z" fill="#e8a96b"/>
          </g>
          <g id="Grupo_73851" data-name="Grupo 73851">
            <path id="Trazado_146763" data-name="Trazado 146763" d="M434.92,91.79c-2.3-.7-3.26.42-3.72,1.14a3.09,3.09,0,0,0-.25,2.46,25,25,0,0,0,1.15,3.09c1,2.48,0,4.52,2.84,4.52.89.06,3.12.68,3-.77a54.3,54.3,0,0,0-3.02-10.44Z" fill="#fcc992"/>
            <path id="Trazado_146764" data-name="Trazado 146764" d="M436.72,103.7a9.091,9.091,0,0,1-1.29-.12l-.53-.07c-2.33,0-2.54-1.38-2.75-2.73a8.92,8.92,0,0,0-.52-2.1,25.23,25.23,0,0,1-1.18-3.16,3.58,3.58,0,0,1,.31-2.87c.95-1.48,2.4-1.94,4.31-1.36h.18l.1.15a54,54,0,0,1,3.12,10.71,1.27,1.27,0,0,1-.38,1.08,1.92,1.92,0,0,1-1.37.47Zm-3.14-11.61a2.15,2.15,0,0,0-1.94,1.12,2.58,2.58,0,0,0-.19,2,28.012,28.012,0,0,0,1.13,3,9.6,9.6,0,0,1,.6,2.34c.2,1.35.28,1.86,1.76,1.86a2.092,2.092,0,0,1,.64.07c.54.08,1.53.22,1.8,0,0,0,.07-.06.06-.25a58,58,0,0,0-2.87-10,3.79,3.79,0,0,0-.99-.14Z" fill="#e8a96b"/>
          </g>
          <g id="Grupo_73852" data-name="Grupo 73852">
            <path id="Trazado_146765" data-name="Trazado 146765" d="M522.3,230.3a11.73,11.73,0,0,1,4.29,1.9c2.1,1.29,3.67,1.23,4.41.2,1-1.44-3.66-4-5.86-5.66-2.74-2.13-7.47-3.23-9.81-5.12a2.589,2.589,0,0,1-.48-.54,7.5,7.5,0,0,1-1-1.9c-1.44-4-5.21-17-7.64-26.21-2.6-9.88-5-14.87-6.45-17.39-.79-4.28-1.08-9-4.17-19.22.44-18.2-4.3-24-8.54-26.82-7.09-4.73-13.19-3.13-26.88-11.34l-1.5-12.89H439.74l-1.5,12.89c-13.7,8.21-19.79,6.61-26.88,11.34-4.24,2.83-9,8.62-8.55,26.82-3.08,10.21-3.38,14.94-4.16,19.22-1.46,2.52-3.85,7.51-6.45,17.39-.67,2.55-5.95,22.14-8.09,27.37A3.85,3.85,0,0,1,383,222c-2.34,1.89-7.07,3-9.81,5.12-2.19,1.71-6.9,4.22-5.86,5.66.74,1,2.32,1.09,4.41-.2a12.11,12.11,0,0,1,4.29-1.9.87.87,0,0,1,.88,1.23c-.66,1.48-2.47,3.95-4.62,8-.57,1.05-3.73,5.3-4.83,8a1.49,1.49,0,0,0,2.49,1.54,41.52,41.52,0,0,0,5.16-6.92c.36-.67,2.13-3.65,2.64-4.49-.31,1-2,4.4-2.44,5.55-.76,1.92-3.11,7.21-3.89,9.32-.51,1.35,1.8,2.49,2.8,1.17a43.63,43.63,0,0,0,5.16-9.43s1.48-3.32,2.27-5.33c-.45,2.14-.91,3.06-1.38,5.29,0,0-2.39,6.14-2.64,8a1.5,1.5,0,0,0,2.74,1,66.181,66.181,0,0,0,3.62-8c1.26-3.36,2.15-5.92,2.15-5.92s-.41,2.61-.71,4.15c-.16.83-1.52,4.43-1.59,6.84a1.3,1.3,0,0,0,2,1c1.64-1.11,3.2-7.38,3.2-7.38.65-2.73,2.21-8.24,2.84-9.83,1.55-3.95.84-6.42.77-8.75a5.429,5.429,0,0,1,.41-1.63c.71-1.83,2.92-5.87,10.45-18.27,7.1-11.7,8.71-21.06,8.71-21.06,3.64-5.29,5.56-11.14,7.48-15.42,4,13.36,3.65,19.67,2.8,32.54-1.88,28.33-9.92,38-8.59,73.71.61,16.52,5.78,33.07,5.63,39-.16,6.17-.51,13-.94,17.14-.7,6.94-1.93,13.88-1.61,20.88.31,6.83,3.07,13.27,5.1,19.76a109.679,109.679,0,0,1,3.52,16.23c1.9,12.44,3.27,16-7.28,31.11-1.14,1.62-3.28,4.34-2.63,6.5.61,2,3.33,2.27,5,2.4,12.65.9,17.89.89,19.13-1.79A5.11,5.11,0,0,0,440,423c-2.94-8.75-1.11-17.76-2.2-26.72-.82-6.75-1.19-7.89.59-17.63,1.12-6.14,2.31-12.28,2.89-18.5,1.72-18.53-3.43-22.78-3.18-33.88.27-11.37,10.75-60.28,9.5-81.57a1.21,1.21,0,0,1,1.19-1.27h.93a1.2,1.2,0,0,1,1.19,1.26c-1.39,30,9.21,70.14,9.47,81.58.26,11.1-4.89,15.35-3.17,33.88.57,6.22,1.77,12.36,2.89,18.5,1.78,9.74,1.41,10.88.59,17.63-1.09,9,.74,18-2.21,26.72a5.11,5.11,0,0,0,.12,3.75c1.24,2.68,6.47,2.69,19.12,1.79,1.69-.13,4.42-.41,5-2.4.66-2.16-1.49-4.88-2.62-6.5-10.55-15.08-9.18-18.67-7.28-31.11a109.663,109.663,0,0,1,3.52-16.23c2-6.49,4.79-12.93,5.1-19.76.32-7-.91-13.94-1.62-20.88-.42-4.18-.77-11-.93-17.14-.15-5.94,5-22.49,5.63-39,1.33-35.81-4.22-45.47-8.52-73.64-1.64-10.68-1.47-20.18,1.67-33.68a151.7,151.7,0,0,0,8.89,16.7s1.25,9.15,8.36,20.85c7.45,12.27,9.68,16.35,10.43,18.21a5.139,5.139,0,0,1,.27,2.05c-.15,2.13-.6,4.49.8,8,.63,1.59,2.19,7.1,2.85,9.83,0,0,1.56,6.27,3.19,7.38a1.3,1.3,0,0,0,2.06-1c-.08-2.4-1.44-6-1.6-6.84-.3-1.54-.61-3.52-.61-3.52s.78,1.73,2.06,5.3a63.72,63.72,0,0,0,3.61,8,1.5,1.5,0,0,0,2.75-1c-.26-1.89-2.64-8-2.64-8-.48-2.22-1.23-3.65-1.68-5.79.78,2,2.78,5.84,2.78,5.84a45.456,45.456,0,0,0,4.94,9.42c1,1.33,3.31.19,2.8-1.17-.78-2.1-3.13-7.4-3.89-9.31-.41-1-2.76-6-2.8-6.17.52.84,2.64,4.43,3,5.11A40.761,40.761,0,0,0,528.4,249a1.48,1.48,0,0,0,2.48-1.53c-1.1-2.68-4.26-7.3-4.83-8.36-2.15-4-4-6.13-4.62-7.61a.87.87,0,0,1,.87-1.2Z" fill="#fcc992"/>
            <path id="Trazado_146766" data-name="Trazado 146766" d="M431.73,429.62c-2.86,0-6.5-.22-11-.54-1.42-.11-4.75-.35-5.48-2.77-.68-2.22,1.16-4.8,2.38-6.51l.31-.44c9.81-14,9.19-18,7.53-28.61l-.33-2.12a107.377,107.377,0,0,0-3.51-16.15c-.45-1.45-.94-2.9-1.43-4.35-1.7-5-3.45-10.17-3.69-15.55a94.736,94.736,0,0,1,1-15.66c.22-1.76.43-3.53.61-5.29.4-4,.76-10.68.93-17.1.06-2.4-.78-6.62-1.84-12-1.53-7.71-3.43-17.3-3.79-27-.79-21.31,1.69-33.13,4.32-45.64a185.873,185.873,0,0,0,4.26-28.1c.8-12.16,1.22-18.48-2.38-31l-.86,2.08a62.829,62.829,0,0,1-6,12A69.17,69.17,0,0,1,404,206c-8.14,13.4-9.82,16.66-10.42,18.19a5,5,0,0,0-.36,1.38v.14c0,.39.06.87.11,1.37a14.69,14.69,0,0,1-.91,7.49c-.6,1.54-2.15,7-2.82,9.77-.16.66-1.66,6.49-3.41,7.68a2,2,0,0,1-2,.07,1.65,1.65,0,0,1-.85-1.55,16.1,16.1,0,0,1,.6-3.47,51.758,51.758,0,0,1-3.12,6.71,2.018,2.018,0,0,1-3.69-1.33,29.731,29.731,0,0,1,1.32-4.48,44,44,0,0,1-3.79,6.31,2.12,2.12,0,0,1-2.76.5,1.77,1.77,0,0,1-.95-2.17c.47-1.26,1.5-3.66,2.41-5.78l.82-1.93a44.994,44.994,0,0,1-3.84,4.79,2.06,2.06,0,0,1-2.62.3,1.87,1.87,0,0,1-.72-2.38,43.6,43.6,0,0,1,3.73-6.3,17.231,17.231,0,0,0,1.12-1.74c1.16-2.17,2.21-3.88,3.05-5.25a27.612,27.612,0,0,0,1.56-2.7.35.35,0,0,0,0-.36.32.32,0,0,0-.3-.13A11.33,11.33,0,0,0,372,233c-2.23,1.38-4.14,1.4-5.1.07a1.32,1.32,0,0,1-.23-1c.21-1.19,1.84-2.37,4.31-4.05.7-.48,1.37-.93,1.89-1.33a23.831,23.831,0,0,1,5.27-2.76,20.86,20.86,0,0,0,4.53-2.35,3.56,3.56,0,0,0,1-1.41c2-5,7.15-23.82,8.06-27.31,2-7.61,4.18-13.47,6.47-17.44.16-.93.31-1.87.46-2.89a104.88,104.88,0,0,1,3.67-16.22c-.43-18.61,4.47-24.3,8.78-27.18,3.2-2.14,6.22-3,9.72-4a64.83,64.83,0,0,0,17-7.19l1.47-12.64a.52.52,0,0,1,.52-.46h18.93a.52.52,0,0,1,.52.46l1.46,12.64a65,65,0,0,0,17,7.19,32.71,32.71,0,0,1,9.72,4c4.31,2.88,9.2,8.57,8.77,27.18a103.683,103.683,0,0,1,3.67,16.22c.16,1,.3,2,.47,2.89,2.29,4,4.46,9.84,6.46,17.44,2.54,9.63,6.24,22.35,7.63,26.17a7,7,0,0,0,.92,1.76,2.668,2.668,0,0,0,.39.44,20.661,20.661,0,0,0,4.53,2.35,24.6,24.6,0,0,1,5.28,2.77c.51.4,1.18.85,1.88,1.33,2.47,1.67,4.1,2.86,4.31,4.05a1.28,1.28,0,0,1-.22,1c-1,1.34-2.88,1.32-5.11-.06a11.389,11.389,0,0,0-4.08-1.82.27.27,0,0,0-.3.13.33.33,0,0,0,0,.36,18.935,18.935,0,0,0,1.42,2.34,60.068,60.068,0,0,1,3.18,5.23c.16.3.55.91,1,1.69a54.319,54.319,0,0,1,3.81,6.72,1.88,1.88,0,0,1-.72,2.39,2.06,2.06,0,0,1-2.62-.3,45.008,45.008,0,0,1-3.84-4.79c.25.59.54,1.25.83,1.95.91,2.11,1.93,4.5,2.4,5.76a1.75,1.75,0,0,1-.95,2.17,2.12,2.12,0,0,1-2.75-.5,44.886,44.886,0,0,1-4.58-8.48,46.993,46.993,0,0,1,2.1,6.65,1.92,1.92,0,0,1-1.27,2.09,2,2,0,0,1-2.42-.76,51.834,51.834,0,0,1-3.1-6.65,16.837,16.837,0,0,1,.59,3.41,1.65,1.65,0,0,1-.86,1.55,2,2,0,0,1-2-.07c-1.75-1.19-3.24-7-3.41-7.68-.67-2.79-2.22-8.23-2.82-9.77a14.659,14.659,0,0,1-.9-7.49l.06-.79a4.37,4.37,0,0,0-.24-1.83c-.62-1.54-2.31-4.81-10.39-18.12-6.64-10.95-8.23-19.81-8.41-20.93a151.756,151.756,0,0,1-8.22-15.28c-2.64,11.93-3,21-1.33,32,1.25,8.2,2.59,14.71,3.88,21,3.12,15.25,5.59,27.3,4.65,52.72-.36,9.73-2.26,19.32-3.79,27-1.06,5.34-1.9,9.56-1.84,12,.16,6.42.53,13.14.93,17.1.18,1.76.39,3.53.61,5.29a95.911,95.911,0,0,1,1,15.66c-.25,5.38-2,10.55-3.69,15.55-.49,1.45-1,2.9-1.43,4.35a109,109,0,0,0-3.51,16.15l-.33,2.12c-1.66,10.62-2.28,14.6,7.53,28.61l.31.44c1.21,1.71,3.06,4.29,2.38,6.51-.73,2.42-4.06,2.66-5.48,2.77-12.56.9-18.21,1-19.63-2.1a5.58,5.58,0,0,1-.14-4.13c1.8-5.35,1.79-11,1.78-16.36a84.268,84.268,0,0,1,.4-10.25l.17-1.38c.7-5.62.89-7.13-.75-16.1l-.34-1.83c-1-5.45-2-11.09-2.56-16.71a61.27,61.27,0,0,1,1.64-22.47,42.3,42.3,0,0,0,1.53-11.45c-.08-3.84-1.35-11-2.95-20-3.14-17.64-7.44-41.8-6.52-61.64a.69.69,0,0,0-.19-.51.67.67,0,0,0-.49-.21h-.91a.68.68,0,0,0-.5.22.66.66,0,0,0-.18.5c.79,13.55-3.07,37.79-6.18,57.27-1.73,10.85-3.22,20.21-3.32,24.34a42.678,42.678,0,0,0,1.54,11.45,61.271,61.271,0,0,1,1.64,22.47c-.52,5.62-1.56,11.24-2.56,16.69l-.34,1.85c-1.64,9-1.45,10.48-.75,16.1l.17,1.38a86.334,86.334,0,0,1,.4,10.25c0,5.42,0,11,1.78,16.36a5.58,5.58,0,0,1-.14,4.13C439.42,428.94,436.78,429.62,431.73,429.62Zm-12-260.86a.51.51,0,0,1,.5.37c4.09,13.61,3.67,20,2.83,32.73a188.38,188.38,0,0,1-4.29,28.26c-2.62,12.44-5.09,24.2-4.3,45.39.36,9.64,2.25,19.19,3.77,26.86,1.07,5.4,1.92,9.67,1.86,12.18-.17,6.45-.53,13.2-.94,17.19-.18,1.76-.39,3.53-.61,5.3a94.206,94.206,0,0,0-1,15.49c.24,5.24,2,10.34,3.63,15.27.5,1.45,1,2.91,1.44,4.37a108.05,108.05,0,0,1,3.55,16.3l.32,2.12c1.71,10.92,2.35,15-7.7,29.37l-.31.45c-1.1,1.54-2.76,3.87-2.24,5.6.47,1.53,2.57,1.88,4.56,2,12.23.87,17.53.86,18.62-1.49a4.54,4.54,0,0,0,.09-3.37c-1.85-5.51-1.84-11.19-1.83-16.69a83.859,83.859,0,0,0-.4-10.12l-.17-1.38c-.69-5.6-.9-7.3.77-16.42l.34-1.85c1-5.42,2-11,2.54-16.6A60.581,60.581,0,0,0,439.11,338a43.369,43.369,0,0,1-1.57-11.71c.1-4.2,1.6-13.59,3.33-24.47,3.1-19.43,7-43.61,6.17-57.05a1.75,1.75,0,0,1,.46-1.27,1.73,1.73,0,0,1,1.25-.55h.94a1.69,1.69,0,0,1,1.23.54,1.72,1.72,0,0,1,.47,1.26c-.92,19.73,3.37,43.83,6.5,61.42,1.61,9.05,2.88,16.2,3,20.12A43,43,0,0,1,459.3,338a60.36,60.36,0,0,0-1.61,22.14c.51,5.58,1.55,11.2,2.55,16.63l.33,1.82c1.67,9.13,1.46,10.82.76,16.42l-.17,1.38a83.844,83.844,0,0,0-.39,10.12c0,5.5,0,11.18-1.83,16.69a4.54,4.54,0,0,0,.09,3.37c1.09,2.35,6.38,2.37,18.62,1.49,2-.15,4.09-.5,4.56-2,.52-1.73-1.14-4.06-2.24-5.61l-.32-.44c-10-14.36-9.41-18.45-7.7-29.37l.33-2.12a112.159,112.159,0,0,1,3.54-16.3c.46-1.46.95-2.92,1.45-4.37,1.67-4.94,3.39-10,3.63-15.27a92.925,92.925,0,0,0-1-15.48c-.21-1.77-.42-3.54-.6-5.31-.41-4-.77-10.74-.94-17.19-.06-2.51.78-6.78,1.86-12.18,1.52-7.67,3.41-17.22,3.77-26.86.94-25.31-1.52-37.3-4.63-52.49-1.29-6.3-2.63-12.82-3.89-21.05-1.77-11.57-1.3-21.07,1.68-33.88a.55.55,0,0,1,.46-.4.54.54,0,0,1,.52.31A155.217,155.217,0,0,0,487,184.63a.54.54,0,0,1,.08.21c0,.09,1.33,9.19,8.29,20.65,7.67,12.63,9.73,16.45,10.47,18.28a5.829,5.829,0,0,1,.31,2.29,3.132,3.132,0,0,1-.07.8,13.79,13.79,0,0,0,.84,7c.61,1.57,2.18,7.08,2.86,9.9.59,2.34,1.91,6.34,3,7.07a1,1,0,0,0,.92,0,.61.61,0,0,0,.32-.61,24.1,24.1,0,0,0-1.23-5.48c-.18-.59-.31-1-.36-1.28-.3-1.53-.61-3.52-.61-3.54a.51.51,0,0,1,.36-.58.5.5,0,0,1,.62.28c0,.07.81,1.8,2.08,5.34a64.244,64.244,0,0,0,3.55,7.9,1,1,0,0,0,1.19.36.89.89,0,0,0,.61-1,64.726,64.726,0,0,0-2.61-7.91,24.489,24.489,0,0,0-.86-3,24.886,24.886,0,0,1-.84-2.91.522.522,0,0,1,1-.3c.77,2,2.74,5.75,2.76,5.79a45.18,45.18,0,0,0,4.9,9.35,1.07,1.07,0,0,0,1.42.21c.12-.06.66-.39.48-.89-.46-1.23-1.48-3.61-2.38-5.71-.63-1.46-1.2-2.81-1.51-3.59s-1.35-3-2.06-4.55-.73-1.59-.75-1.66a.51.51,0,0,1,.28-.62.52.52,0,0,1,.66.2c.54.88,2.65,4.46,3,5.13a41,41,0,0,0,5.09,6.81,1,1,0,0,0,1.3.13.83.83,0,0,0,.32-1.11,53.478,53.478,0,0,0-3.73-6.56c-.5-.8-.9-1.43-1.08-1.75a54.651,54.651,0,0,0-3.13-5.16,18.319,18.319,0,0,1-1.5-2.48,1.42,1.42,0,0,1,.15-1.42,1.37,1.37,0,0,1,1.27-.54,12.821,12.821,0,0,1,4.5,2c1.71,1.05,3.1,1.18,3.71.33a.24.24,0,0,0,0-.2c-.15-.85-2.3-2.31-3.87-3.37-.72-.49-1.4-1-1.94-1.37a23.63,23.63,0,0,0-5-2.63A21.07,21.07,0,0,1,515,222a3,3,0,0,1-.57-.63,7.661,7.661,0,0,1-1.07-2c-1.39-3.84-5.11-16.6-7.65-26.25-2-7.57-4.15-13.38-6.4-17.27a.871.871,0,0,1-.07-.17c-.17-1-.32-1.94-.48-3a104.2,104.2,0,0,0-3.66-16.16.509.509,0,0,1,0-.17c.44-18.37-4.53-23.84-8.31-26.36-3.07-2.06-6-2.91-9.43-3.9a66,66,0,0,1-17.43-7.43.54.54,0,0,1-.25-.39l-1.44-12.43h-18l-1.44,12.43a.54.54,0,0,1-.25.39,66,66,0,0,1-17.43,7.43c-3.41,1-6.36,1.84-9.44,3.9-3.77,2.52-8.74,8-8.31,26.36a.33.33,0,0,1,0,.17,104.2,104.2,0,0,0-3.66,16.16c-.16,1.06-.31,2-.49,3a.49.49,0,0,1-.06.17c-2.25,3.89-4.41,9.7-6.4,17.27-.92,3.5-6,22.36-8.11,27.43a4.47,4.47,0,0,1-1.31,1.83,21,21,0,0,1-4.77,2.49,24.19,24.19,0,0,0-5.05,2.63c-.54.42-1.22.88-1.94,1.37-1.57,1.07-3.72,2.53-3.86,3.37a.24.24,0,0,0,0,.21c.61.84,2,.72,3.72-.34a12.54,12.54,0,0,1,4.49-2,1.33,1.33,0,0,1,1.27.54,1.42,1.42,0,0,1,.16,1.41,30.381,30.381,0,0,1-1.62,2.82c-.84,1.36-1.88,3-3,5.19-.19.35-.63,1-1.18,1.83a43.428,43.428,0,0,0-3.63,6.11.85.85,0,0,0,.32,1.12,1,1,0,0,0,1.31-.14,40.352,40.352,0,0,0,5.08-6.81c.37-.68,2.14-3.66,2.66-4.51a.519.519,0,0,1,.94.42c-.2.66-.86,2.1-1.51,3.5-.4.85-.76,1.65-.94,2.1-.31.77-.89,2.11-1.51,3.56-.9,2.11-1.92,4.5-2.38,5.74-.19.5.36.83.47.89a1.09,1.09,0,0,0,1.42-.22,42.411,42.411,0,0,0,5.09-9.3c0-.06,1.5-3.36,2.27-5.33a.54.54,0,0,1,.64-.31.53.53,0,0,1,.36.61c-.23,1.09-.47,1.88-.69,2.65s-.46,1.54-.7,2.63c0,.15-2.39,6.19-2.63,8a.89.89,0,0,0,.61,1,1,1,0,0,0,1.19-.36,67.45,67.45,0,0,0,3.56-7.9c1.25-3.32,2.14-5.89,2.15-5.91a.51.51,0,0,1,.61-.34.53.53,0,0,1,.39.59s-.41,2.63-.7,4.17a7.18,7.18,0,0,1-.37,1.27,24.1,24.1,0,0,0-1.22,5.48.6.6,0,0,0,.31.61,1,1,0,0,0,.93,0c1.07-.73,2.4-4.72,3-7.07.68-2.81,2.25-8.32,2.87-9.9a13.88,13.88,0,0,0,.83-7c-.05-.52-.09-1-.1-1.52v-.22a6.069,6.069,0,0,1,.42-1.62c.72-1.82,2.77-5.63,10.5-18.35,7-11.49,8.62-20.79,8.64-20.88a.49.49,0,0,1,.08-.21,62.088,62.088,0,0,0,6-11.91c.49-1.22,1-2.37,1.44-3.43a.52.52,0,0,1,.42-.35Z" fill="#e8a96b"/>
          </g>
          <g id="Grupo_73853" data-name="Grupo 73853">
            <path id="Trazado_146767" data-name="Trazado 146767" d="M464.4,81.51c-.27-2.2-1.89-10.69-14.72-10.61H448.6c-12.83-.08-14.45,8.41-14.72,10.61-1.32,10.75.67,15.19,1.25,20.11.11.94.45,2.83.8,4.7a11.73,11.73,0,0,0,6.34,8.36,17.17,17.17,0,0,0,6.67,2h.4a17.31,17.31,0,0,0,6.67-2,11.7,11.7,0,0,0,6.34-8.36c.35-1.87.69-3.76.8-4.7C463.74,96.7,465.72,92.26,464.4,81.51Z" fill="#fcc992"/>
            <path id="Trazado_146768" data-name="Trazado 146768" d="M449.33,117.18h-.53a17.41,17.41,0,0,1-6.76-2,12.27,12.27,0,0,1-6.62-8.72c-.44-2.33-.71-3.93-.81-4.74-.14-1.2-.37-2.39-.61-3.64a46.729,46.729,0,0,1-.63-16.59c.41-3.36,2.69-11.15,15.24-11.07h1.27c12.34,0,14.63,7.73,15,11.07a46.931,46.931,0,0,1-.6,16.51c-.24,1.25-.47,2.44-.61,3.64-.1.83-.37,2.42-.81,4.74a12.28,12.28,0,0,1-6.62,8.73,17.42,17.42,0,0,1-6.76,2h-.12Zm-.19-1.05h.19a16.2,16.2,0,0,0,6.45-1.92,11.23,11.23,0,0,0,6.06-8c.43-2.27.7-3.88.8-4.67.14-1.24.38-2.45.62-3.72a45.06,45.06,0,0,0,.62-16.26c-.37-3.07-2.49-10.16-14-10.16h-1.45c-11.52,0-13.64,7.09-14,10.16A45.53,45.53,0,0,0,435,97.84c.25,1.27.48,2.48.63,3.72.09.79.36,2.36.79,4.67a11.23,11.23,0,0,0,6.06,8,16.2,16.2,0,0,0,6.45,1.92h.19Z" fill="#e8a96b"/>
          </g>
          <path id="Trazado_146769" data-name="Trazado 146769" d="M479.79,161.61s-.17.42-.37,1.07-.44,1.54-.64,2.43c-.43,1.78-.7,3.58-.7,3.58a.52.52,0,1,1-1.03-.15s.41-1.86,1-3.64c.27-.89.57-1.77.82-2.42s.45-1.08.45-1.08a.27.27,0,0,1,.37-.14A.28.28,0,0,1,479.79,161.61Z" fill="#e8a96b"/>
          <path id="Trazado_146770" data-name="Trazado 146770" d="M417.86,162.1s.2.42.45,1.06.56,1.5.83,2.37c.56,1.73,1,3.49,1,3.49a.53.53,0,0,1-.37.64.52.52,0,0,1-.64-.37s-.35-1.8-.78-3.55c-.21-.87-.45-1.73-.66-2.37s-.37-1.05-.37-1.05a.28.28,0,0,1,.15-.36.27.27,0,0,1,.35.13Z" fill="#e8a96b"/>
          <g id="Grupo_73854" data-name="Grupo 73854">
            <path id="Trazado_146771" data-name="Trazado 146771" d="M471.56,157.21a2.61,2.61,0,1,0-2.59,2.34,2.47,2.47,0,0,0,2.59-2.34Z" fill="#e8a96b"/>
            <path id="Trazado_146772" data-name="Trazado 146772" d="M431.91,157.21a2.61,2.61,0,1,0-2.59,2.34,2.47,2.47,0,0,0,2.59-2.34Z" fill="#e8a96b"/>
          </g>
        </g>
      </g>
    </g>
    <g id="Grupo_73869" data-name="Grupo 73869" transform="translate(-38 -613.817)">
      <rect id="Rectngulo_5230" data-name="Rectngulo 5230" width="5" height="28" transform="translate(285 5201.817)" fill="#ff9d00"/>
      <path id="Trazado_163279" data-name="Trazado 163279" d="M1.073,0V-9.242H3.682a4.2,4.2,0,0,1,2.133.533A3.606,3.606,0,0,1,7.246-7.192a4.938,4.938,0,0,1,.511,2.26v.59a4.955,4.955,0,0,1-.5,2.292A3.55,3.55,0,0,1,5.811-.54,4.467,4.467,0,0,1,3.631,0ZM2.292-8.246V-1H3.574a2.79,2.79,0,0,0,2.193-.877,3.622,3.622,0,0,0,.784-2.5v-.54a3.68,3.68,0,0,0-.74-2.449,2.632,2.632,0,0,0-2.1-.886ZM12.264.127A3,3,0,0,1,9.991-.79a3.4,3.4,0,0,1-.876-2.453v-.216a4.121,4.121,0,0,1,.39-1.825A3.045,3.045,0,0,1,10.6-6.541,2.745,2.745,0,0,1,12.118-7a2.572,2.572,0,0,1,2.082.882,3.82,3.82,0,0,1,.743,2.526V-3.1H10.29a2.441,2.441,0,0,0,.594,1.641,1.866,1.866,0,0,0,1.444.625,2.045,2.045,0,0,0,1.054-.254,2.648,2.648,0,0,0,.755-.673l.717.559A2.884,2.884,0,0,1,12.264.127ZM12.118-6.03a1.566,1.566,0,0,0-1.193.517,2.515,2.515,0,0,0-.6,1.45h3.44v-.089a2.237,2.237,0,0,0-.482-1.387A1.475,1.475,0,0,0,12.118-6.03ZM20.3-1.822a.864.864,0,0,0-.359-.74,3.452,3.452,0,0,0-1.25-.454,5.912,5.912,0,0,1-1.416-.457,2.014,2.014,0,0,1-.774-.635,1.518,1.518,0,0,1-.251-.876,1.782,1.782,0,0,1,.714-1.428A2.789,2.789,0,0,1,18.789-7a2.87,2.87,0,0,1,1.895.6,1.915,1.915,0,0,1,.727,1.542H20.23a1.06,1.06,0,0,0-.409-.832,1.534,1.534,0,0,0-1.031-.349,1.606,1.606,0,0,0-1,.279.879.879,0,0,0-.362.73.712.712,0,0,0,.336.641,4.139,4.139,0,0,0,1.216.413A6.334,6.334,0,0,1,20.4-3.5a2.079,2.079,0,0,1,.809.657,1.615,1.615,0,0,1,.263.936,1.758,1.758,0,0,1-.736,1.476,3.089,3.089,0,0,1-1.911.555,3.459,3.459,0,0,1-1.46-.292,2.375,2.375,0,0,1-.993-.816,1.966,1.966,0,0,1-.359-1.133h1.174a1.216,1.216,0,0,0,.473.936,1.835,1.835,0,0,0,1.165.346A1.894,1.894,0,0,0,19.9-1.1.829.829,0,0,0,20.3-1.822Zm2.418-1.669a4.023,4.023,0,0,1,.749-2.542A2.369,2.369,0,0,1,25.429-7a2.382,2.382,0,0,1,1.911.825V-9.75h1.174V0H27.435l-.057-.736a2.391,2.391,0,0,1-1.961.863A2.346,2.346,0,0,1,23.47-.851,4.069,4.069,0,0,1,22.718-3.4Zm1.174.133a3.046,3.046,0,0,0,.482,1.828,1.56,1.56,0,0,0,1.333.66,1.713,1.713,0,0,0,1.631-1V-5.027A1.726,1.726,0,0,0,25.721-6a1.567,1.567,0,0,0-1.346.667A3.354,3.354,0,0,0,23.893-3.358ZM33.186.127A3,3,0,0,1,30.913-.79a3.4,3.4,0,0,1-.876-2.453v-.216a4.121,4.121,0,0,1,.39-1.825,3.045,3.045,0,0,1,1.092-1.257A2.745,2.745,0,0,1,33.04-7a2.572,2.572,0,0,1,2.082.882,3.82,3.82,0,0,1,.743,2.526V-3.1H31.211A2.441,2.441,0,0,0,31.8-1.457a1.866,1.866,0,0,0,1.444.625A2.045,2.045,0,0,0,34.3-1.085a2.648,2.648,0,0,0,.755-.673l.717.559A2.884,2.884,0,0,1,33.186.127ZM33.04-6.03a1.566,1.566,0,0,0-1.193.517,2.515,2.515,0,0,0-.6,1.45h3.44v-.089a2.237,2.237,0,0,0-.482-1.387A1.475,1.475,0,0,0,33.04-6.03ZM41.717,0H40.542V-9.75h1.174Zm6.119,0a2.467,2.467,0,0,1-.165-.724,2.62,2.62,0,0,1-1.955.851A2.424,2.424,0,0,1,44.05-.448,1.859,1.859,0,0,1,43.4-1.9a1.942,1.942,0,0,1,.816-1.666,3.846,3.846,0,0,1,2.295-.594h1.143V-4.7a1.319,1.319,0,0,0-.368-.981A1.48,1.48,0,0,0,46.2-6.049a1.712,1.712,0,0,0-1.054.317.935.935,0,0,0-.425.768H43.539a1.621,1.621,0,0,1,.365-.993,2.491,2.491,0,0,1,.99-.759A3.331,3.331,0,0,1,46.268-7a2.715,2.715,0,0,1,1.86.594,2.141,2.141,0,0,1,.7,1.635v3.161a3.865,3.865,0,0,0,.241,1.5V0ZM45.887-.9a2.064,2.064,0,0,0,1.047-.286,1.728,1.728,0,0,0,.717-.743V-3.333h-.92q-2.158,0-2.158,1.263a1.069,1.069,0,0,0,.368.863A1.415,1.415,0,0,0,45.887-.9ZM56.64-.832a1.692,1.692,0,0,0,1.1-.381,1.34,1.34,0,0,0,.521-.952H59.37a2.13,2.13,0,0,1-.406,1.124,2.676,2.676,0,0,1-1,.851A2.885,2.885,0,0,1,56.64.127a2.829,2.829,0,0,1-2.231-.936,3.729,3.729,0,0,1-.828-2.561v-.2a4.135,4.135,0,0,1,.368-1.784,2.8,2.8,0,0,1,1.057-1.212A3,3,0,0,1,56.634-7a2.755,2.755,0,0,1,1.92.692,2.473,2.473,0,0,1,.816,1.8H58.259a1.618,1.618,0,0,0-.5-1.095,1.57,1.57,0,0,0-1.12-.428,1.644,1.644,0,0,0-1.387.644,3.026,3.026,0,0,0-.492,1.863V-3.3a2.965,2.965,0,0,0,.489,1.828A1.651,1.651,0,0,0,56.64-.832Zm6.9.958A3,3,0,0,1,61.268-.79a3.4,3.4,0,0,1-.876-2.453v-.216a4.121,4.121,0,0,1,.39-1.825,3.045,3.045,0,0,1,1.092-1.257A2.745,2.745,0,0,1,63.394-7a2.572,2.572,0,0,1,2.082.882,3.82,3.82,0,0,1,.743,2.526V-3.1H61.566a2.441,2.441,0,0,0,.594,1.641A1.866,1.866,0,0,0,63.6-.832a2.045,2.045,0,0,0,1.054-.254,2.648,2.648,0,0,0,.755-.673l.717.559A2.884,2.884,0,0,1,63.54.127ZM63.394-6.03a1.566,1.566,0,0,0-1.193.517,2.515,2.515,0,0,0-.6,1.45h3.44v-.089a2.237,2.237,0,0,0-.482-1.387A1.475,1.475,0,0,0,63.394-6.03Zm.571-3.707h1.422l-1.7,1.866-.946,0ZM68.853,0H67.679V-9.75h1.174Zm6.119-.679A2.494,2.494,0,0,1,72.96.127a2.135,2.135,0,0,1-1.673-.638A2.761,2.761,0,0,1,70.707-2.4V-6.868h1.174v4.437q0,1.562,1.27,1.562a1.758,1.758,0,0,0,1.79-1v-5h1.174V0H75Zm4.2.679H78V-9.75h1.174Zm6.119,0a2.467,2.467,0,0,1-.165-.724,2.62,2.62,0,0,1-1.955.851,2.424,2.424,0,0,1-1.666-.574A1.859,1.859,0,0,1,80.856-1.9a1.942,1.942,0,0,1,.816-1.666,3.846,3.846,0,0,1,2.295-.594h1.143V-4.7a1.319,1.319,0,0,0-.368-.981,1.48,1.48,0,0,0-1.085-.365,1.712,1.712,0,0,0-1.054.317.935.935,0,0,0-.425.768H81a1.621,1.621,0,0,1,.365-.993,2.491,2.491,0,0,1,.99-.759A3.331,3.331,0,0,1,83.726-7a2.715,2.715,0,0,1,1.86.594,2.141,2.141,0,0,1,.7,1.635v3.161a3.865,3.865,0,0,0,.241,1.5V0ZM83.345-.9a2.064,2.064,0,0,0,1.047-.286,1.728,1.728,0,0,0,.717-.743V-3.333h-.92q-2.158,0-2.158,1.263a1.069,1.069,0,0,0,.368.863A1.415,1.415,0,0,0,83.345-.9Zm9.172-5.142A2.5,2.5,0,0,1,94.548-7q2.177,0,2.2,2.457V0H95.57V-4.545a1.581,1.581,0,0,0-.34-1.1A1.361,1.361,0,0,0,94.193-6a1.7,1.7,0,0,0-1,.3,2.069,2.069,0,0,0-.673.8V0H91.343V-9.75h1.174ZM102.743,0a2.467,2.467,0,0,1-.165-.724,2.62,2.62,0,0,1-1.955.851,2.424,2.424,0,0,1-1.666-.574A1.859,1.859,0,0,1,98.306-1.9a1.942,1.942,0,0,1,.816-1.666,3.846,3.846,0,0,1,2.295-.594h1.143V-4.7a1.319,1.319,0,0,0-.368-.981,1.48,1.48,0,0,0-1.085-.365,1.712,1.712,0,0,0-1.054.317.935.935,0,0,0-.425.768H98.446a1.621,1.621,0,0,1,.365-.993,2.491,2.491,0,0,1,.99-.759A3.331,3.331,0,0,1,101.175-7a2.715,2.715,0,0,1,1.86.594,2.141,2.141,0,0,1,.7,1.635v3.161a3.865,3.865,0,0,0,.241,1.5V0Zm-1.949-.9a2.064,2.064,0,0,0,1.047-.286,1.728,1.728,0,0,0,.717-.743V-3.333h-.92q-2.158,0-2.158,1.263a1.069,1.069,0,0,0,.368.863A1.415,1.415,0,0,0,100.794-.9Zm8.779-.927a.864.864,0,0,0-.359-.74,3.452,3.452,0,0,0-1.25-.454,5.912,5.912,0,0,1-1.416-.457,2.014,2.014,0,0,1-.774-.635,1.518,1.518,0,0,1-.251-.876,1.782,1.782,0,0,1,.714-1.428A2.789,2.789,0,0,1,108.063-7a2.87,2.87,0,0,1,1.895.6,1.915,1.915,0,0,1,.727,1.542H109.5a1.06,1.06,0,0,0-.409-.832,1.534,1.534,0,0,0-1.031-.349,1.606,1.606,0,0,0-1,.279.879.879,0,0,0-.362.73.712.712,0,0,0,.336.641,4.139,4.139,0,0,0,1.216.413,6.334,6.334,0,0,1,1.425.47,2.079,2.079,0,0,1,.809.657,1.615,1.615,0,0,1,.263.936,1.758,1.758,0,0,1-.736,1.476A3.089,3.089,0,0,1,108.1.127a3.459,3.459,0,0,1-1.46-.292,2.375,2.375,0,0,1-.993-.816,1.966,1.966,0,0,1-.359-1.133h1.174a1.216,1.216,0,0,0,.473.936,1.835,1.835,0,0,0,1.165.346,1.894,1.894,0,0,0,1.07-.27A.829.829,0,0,0,109.573-1.822Zm4.3-6.709v1.663h1.282v.908h-1.282V-1.7a.953.953,0,0,0,.171.62.721.721,0,0,0,.584.207,2.843,2.843,0,0,0,.559-.076V0a3.424,3.424,0,0,1-.9.126A1.462,1.462,0,0,1,113.1-.349a2.045,2.045,0,0,1-.4-1.352V-5.96h-1.25v-.908h1.25V-8.531ZM120.764,0a2.467,2.467,0,0,1-.165-.724,2.62,2.62,0,0,1-1.955.851,2.424,2.424,0,0,1-1.666-.574,1.859,1.859,0,0,1-.651-1.457,1.942,1.942,0,0,1,.816-1.666,3.846,3.846,0,0,1,2.295-.594h1.143V-4.7a1.319,1.319,0,0,0-.368-.981,1.48,1.48,0,0,0-1.085-.365,1.712,1.712,0,0,0-1.054.317.935.935,0,0,0-.425.768h-1.181a1.621,1.621,0,0,1,.365-.993,2.491,2.491,0,0,1,.99-.759A3.331,3.331,0,0,1,119.2-7a2.715,2.715,0,0,1,1.86.594,2.141,2.141,0,0,1,.7,1.635v3.161A3.865,3.865,0,0,0,122-.1V0Zm-1.949-.9a2.064,2.064,0,0,0,1.047-.286,1.728,1.728,0,0,0,.717-.743V-3.333h-.92q-2.158,0-2.158,1.263a1.069,1.069,0,0,0,.368.863A1.415,1.415,0,0,0,118.815-.9ZM129.664.127a3,3,0,0,1-2.272-.917,3.4,3.4,0,0,1-.876-2.453v-.216a4.121,4.121,0,0,1,.39-1.825A3.045,3.045,0,0,1,128-6.541,2.745,2.745,0,0,1,129.518-7a2.572,2.572,0,0,1,2.082.882,3.82,3.82,0,0,1,.743,2.526V-3.1h-4.653a2.441,2.441,0,0,0,.594,1.641,1.866,1.866,0,0,0,1.444.625,2.045,2.045,0,0,0,1.054-.254,2.647,2.647,0,0,0,.755-.673l.717.559A2.884,2.884,0,0,1,129.664.127Zm-.146-6.157a1.566,1.566,0,0,0-1.193.517,2.515,2.515,0,0,0-.6,1.45h3.44v-.089a2.237,2.237,0,0,0-.482-1.387A1.475,1.475,0,0,0,129.518-6.03ZM134.977,0H133.8V-9.75h1.174Zm4.786-3.5a4.057,4.057,0,0,1,.4-1.815,2.959,2.959,0,0,1,1.1-1.244A3.007,3.007,0,0,1,142.879-7a2.9,2.9,0,0,1,2.269.971,3.736,3.736,0,0,1,.866,2.583v.083a4.092,4.092,0,0,1-.384,1.8,2.916,2.916,0,0,1-1.1,1.241,3.041,3.041,0,0,1-1.641.444,2.889,2.889,0,0,1-2.263-.971,3.718,3.718,0,0,1-.866-2.571Zm1.181.14a2.938,2.938,0,0,0,.53,1.834,1.7,1.7,0,0,0,1.419.692,1.686,1.686,0,0,0,1.422-.7,3.213,3.213,0,0,0,.527-1.965,2.933,2.933,0,0,0-.536-1.831,1.705,1.705,0,0,0-1.425-.7,1.686,1.686,0,0,0-1.4.692A3.189,3.189,0,0,0,140.943-3.358Zm9.864-2.457a3.519,3.519,0,0,0-.578-.044,1.547,1.547,0,0,0-1.568.984V0h-1.174V-6.868h1.143l.019.793A1.829,1.829,0,0,1,150.287-7a1.2,1.2,0,0,1,.521.089Zm.679,2.323a4.037,4.037,0,0,1,.743-2.555A2.375,2.375,0,0,1,154.2-7a2.363,2.363,0,0,1,1.961.889l.057-.762h1.073v6.7a2.794,2.794,0,0,1-.79,2.1,2.916,2.916,0,0,1-2.123.768,3.532,3.532,0,0,1-1.454-.317,2.5,2.5,0,0,1-1.085-.87l.609-.7a2.3,2.3,0,0,0,1.847.933,1.8,1.8,0,0,0,1.336-.482A1.844,1.844,0,0,0,156.108-.1v-.59a2.414,2.414,0,0,1-1.923.813,2.346,2.346,0,0,1-1.952-.971A4.244,4.244,0,0,1,151.487-3.491Zm1.181.133a3.08,3.08,0,0,0,.476,1.825,1.547,1.547,0,0,0,1.333.663,1.72,1.72,0,0,0,1.631-1.009V-5.015A1.74,1.74,0,0,0,154.489-6a1.561,1.561,0,0,0-1.339.667A3.354,3.354,0,0,0,152.667-3.358ZM163.3,0a2.467,2.467,0,0,1-.165-.724,2.62,2.62,0,0,1-1.955.851,2.424,2.424,0,0,1-1.666-.574,1.859,1.859,0,0,1-.651-1.457,1.942,1.942,0,0,1,.816-1.666,3.846,3.846,0,0,1,2.295-.594h1.143V-4.7a1.319,1.319,0,0,0-.368-.981,1.48,1.48,0,0,0-1.085-.365,1.712,1.712,0,0,0-1.054.317.935.935,0,0,0-.425.768H159a1.621,1.621,0,0,1,.365-.993,2.491,2.491,0,0,1,.99-.759A3.331,3.331,0,0,1,161.732-7a2.715,2.715,0,0,1,1.86.594,2.141,2.141,0,0,1,.7,1.635v3.161a3.865,3.865,0,0,0,.241,1.5V0Zm-1.949-.9a2.064,2.064,0,0,0,1.047-.286,1.728,1.728,0,0,0,.717-.743V-3.333h-.92q-2.158,0-2.158,1.263a1.069,1.069,0,0,0,.368.863A1.415,1.415,0,0,0,161.351-.9Zm5.891-5.973L167.28-6A2.5,2.5,0,0,1,169.336-7q2.177,0,2.2,2.457V0h-1.174V-4.545a1.581,1.581,0,0,0-.34-1.1A1.361,1.361,0,0,0,168.981-6a1.7,1.7,0,0,0-1,.3,2.069,2.069,0,0,0-.673.8V0h-1.174V-6.868ZM174.58,0h-1.174V-6.868h1.174Zm-1.27-8.69a.7.7,0,0,1,.175-.482.655.655,0,0,1,.517-.2.666.666,0,0,1,.521.2.694.694,0,0,1,.178.482.671.671,0,0,1-.178.476.678.678,0,0,1-.521.19.667.667,0,0,1-.517-.19A.678.678,0,0,1,173.31-8.69Zm7.147,6.868a.865.865,0,0,0-.359-.74,3.452,3.452,0,0,0-1.25-.454,5.912,5.912,0,0,1-1.416-.457,2.014,2.014,0,0,1-.774-.635,1.518,1.518,0,0,1-.251-.876,1.782,1.782,0,0,1,.714-1.428A2.789,2.789,0,0,1,178.947-7a2.87,2.87,0,0,1,1.895.6,1.915,1.915,0,0,1,.727,1.542h-1.181a1.06,1.06,0,0,0-.409-.832,1.534,1.534,0,0,0-1.031-.349,1.605,1.605,0,0,0-1,.279.879.879,0,0,0-.362.73.712.712,0,0,0,.336.641,4.139,4.139,0,0,0,1.216.413,6.334,6.334,0,0,1,1.425.47,2.079,2.079,0,0,1,.809.657,1.615,1.615,0,0,1,.263.936A1.758,1.758,0,0,1,180.9-.428a3.089,3.089,0,0,1-1.911.555,3.459,3.459,0,0,1-1.46-.292,2.375,2.375,0,0,1-.993-.816,1.966,1.966,0,0,1-.359-1.133h1.174a1.216,1.216,0,0,0,.473.936,1.835,1.835,0,0,0,1.165.346,1.894,1.894,0,0,0,1.07-.27A.829.829,0,0,0,180.458-1.822Zm3.809-5.046.032.762A2.536,2.536,0,0,1,186.335-7a1.964,1.964,0,0,1,1.961,1.1,2.6,2.6,0,0,1,.892-.8,2.634,2.634,0,0,1,1.3-.3q2.26,0,2.3,2.393V0H191.61V-4.532a1.577,1.577,0,0,0-.336-1.1A1.482,1.482,0,0,0,190.144-6a1.557,1.557,0,0,0-1.085.39,1.584,1.584,0,0,0-.5,1.051V0h-1.181V-4.5A1.31,1.31,0,0,0,185.91-6a1.571,1.571,0,0,0-1.581.984V0h-1.174V-6.868ZM194.245-3.5a4.057,4.057,0,0,1,.4-1.815,2.959,2.959,0,0,1,1.1-1.244A3.007,3.007,0,0,1,197.361-7a2.9,2.9,0,0,1,2.269.971A3.736,3.736,0,0,1,200.5-3.44v.083a4.092,4.092,0,0,1-.384,1.8,2.916,2.916,0,0,1-1.1,1.241,3.041,3.041,0,0,1-1.641.444,2.889,2.889,0,0,1-2.263-.971,3.718,3.718,0,0,1-.866-2.571Zm1.181.14a2.938,2.938,0,0,0,.53,1.834,1.7,1.7,0,0,0,1.419.692,1.686,1.686,0,0,0,1.422-.7,3.213,3.213,0,0,0,.527-1.965,2.933,2.933,0,0,0-.536-1.831,1.705,1.705,0,0,0-1.425-.7,1.686,1.686,0,0,0-1.4.692A3.189,3.189,0,0,0,195.425-3.358Z" transform="translate(301 5220.817)" fill="#12263f"/>
    </g>
  </g>
</svg>
